M48
;GenerationSoftware,Autodesk,EAGLE,9.6.1*%
;CreationDate,2025-01-14T18:51:49Z*%
FMAT,2
ICI,OFF
METRIC,TZ,000.000
T3C0.250
T2C0.350
T1C1.016
%
G90
M71
T1
X10160Y14684
X-9763Y17224
X-9763Y14684
X-9763Y12144
T2
X2461Y25059
X-1528Y27612
X5140Y3641
X2123Y6498
X12300Y16669
X10469Y17463
X-4930Y17780
X-5999Y16385
X-6826Y24289
X8096Y22860
X4763Y16828
X70Y20796
X-82Y27781
X1669Y27781
T3
X-3120Y12224
X-2064Y10636
X-2064Y6191
X-4445Y4684
X-1555Y2839
X-9607Y22178
X9773Y6757
X11260Y19674
X-6089Y5874
X4517Y6584
X-79Y13279
X1429Y13279
X2937Y13279
X-9538Y7769
M30