G04 EAGLE Gerber RS-274X export*
G75*
%MOMM*%
%FSLAX34Y34*%
%LPD*%
%INTop Copper*%
%IPPOS*%
%AMOC8*
5,1,8,0,0,1.08239X$1,22.5*%
G01*
%ADD10R,0.800000X0.800000*%
%ADD11P,1.649562X8X22.500000*%
%ADD12R,1.100000X1.000000*%
%ADD13C,1.524000*%
%ADD14C,1.000000*%
%ADD15R,0.500000X1.000000*%
%ADD16C,0.508000*%
%ADD17C,0.756400*%
%ADD18C,0.812800*%
%ADD19C,0.656400*%
%ADD20C,0.203200*%
%ADD21C,0.254000*%

G36*
X-66778Y-475D02*
X-66778Y-475D01*
X-66750Y-477D01*
X-66682Y-455D01*
X-66611Y-441D01*
X-66588Y-425D01*
X-66561Y-416D01*
X-66507Y-369D01*
X-66447Y-328D01*
X-66432Y-305D01*
X-66411Y-286D01*
X-66379Y-221D01*
X-66340Y-161D01*
X-66336Y-133D01*
X-66323Y-107D01*
X-66314Y-6D01*
X-66307Y35D01*
X-66310Y45D01*
X-66309Y58D01*
X-66551Y3109D01*
X-66561Y3141D01*
X-66564Y3188D01*
X-67105Y5396D01*
X-64423Y5396D01*
X-64138Y4327D01*
X-63923Y2682D01*
X-63896Y2593D01*
X-63876Y2501D01*
X-63861Y2475D01*
X-63852Y2447D01*
X-63798Y2370D01*
X-63750Y2290D01*
X-63727Y2270D01*
X-63710Y2246D01*
X-63634Y2191D01*
X-63563Y2130D01*
X-63535Y2119D01*
X-63511Y2101D01*
X-63422Y2073D01*
X-63335Y2038D01*
X-63297Y2034D01*
X-63277Y2027D01*
X-63244Y2028D01*
X-63168Y2019D01*
X-28793Y2019D01*
X-28681Y2038D01*
X-28567Y2054D01*
X-28559Y2058D01*
X-28550Y2059D01*
X-28450Y2112D01*
X-28347Y2164D01*
X-28341Y2170D01*
X-28333Y2174D01*
X-28254Y2257D01*
X-28174Y2338D01*
X-28170Y2346D01*
X-28164Y2353D01*
X-28115Y2457D01*
X-28065Y2559D01*
X-28063Y2569D01*
X-28060Y2576D01*
X-28057Y2599D01*
X-28034Y2724D01*
X-27992Y3280D01*
X-27995Y3315D01*
X-27990Y3349D01*
X-28006Y3437D01*
X-28014Y3525D01*
X-28028Y3557D01*
X-28034Y3591D01*
X-28068Y3662D01*
X-27925Y4290D01*
X-27923Y4323D01*
X-27908Y4402D01*
X-27860Y5041D01*
X-27819Y5100D01*
X-27762Y5168D01*
X-27750Y5200D01*
X-27730Y5229D01*
X-27675Y5387D01*
X-27185Y7534D01*
X-27183Y7569D01*
X-27172Y7602D01*
X-27175Y7691D01*
X-27169Y7779D01*
X-27178Y7813D01*
X-27179Y7848D01*
X-27203Y7923D01*
X-26968Y8522D01*
X-26961Y8555D01*
X-26934Y8631D01*
X-26792Y9256D01*
X-26742Y9308D01*
X-26676Y9367D01*
X-26658Y9397D01*
X-26635Y9422D01*
X-26557Y9570D01*
X-25752Y11620D01*
X-25745Y11654D01*
X-25730Y11685D01*
X-25719Y11773D01*
X-25700Y11860D01*
X-25704Y11895D01*
X-25700Y11929D01*
X-25712Y12008D01*
X-25390Y12565D01*
X-25379Y12596D01*
X-25341Y12668D01*
X-25107Y13264D01*
X-25050Y13308D01*
X-24976Y13356D01*
X-24954Y13383D01*
X-24927Y13405D01*
X-24828Y13540D01*
X-23727Y15447D01*
X-23714Y15479D01*
X-23695Y15508D01*
X-23671Y15594D01*
X-23640Y15677D01*
X-23638Y15712D01*
X-23629Y15745D01*
X-23629Y15824D01*
X-23228Y16328D01*
X-23212Y16356D01*
X-23164Y16422D01*
X-22844Y16976D01*
X-22781Y17012D01*
X-22700Y17048D01*
X-22675Y17072D01*
X-22644Y17089D01*
X-22526Y17208D01*
X-21153Y18929D01*
X-21136Y18959D01*
X-21113Y18985D01*
X-21076Y19066D01*
X-21033Y19144D01*
X-21027Y19178D01*
X-21012Y19209D01*
X-21001Y19288D01*
X-20529Y19726D01*
X-20509Y19752D01*
X-20451Y19809D01*
X-20052Y20310D01*
X-20019Y20322D01*
X-19977Y20329D01*
X-19944Y20347D01*
X-19900Y20359D01*
X-19871Y20379D01*
X-19839Y20391D01*
X-19785Y20431D01*
X-19760Y20444D01*
X-19743Y20462D01*
X-19704Y20491D01*
X-18335Y21762D01*
X-18270Y21845D01*
X-18202Y21925D01*
X-18195Y21942D01*
X-18184Y21956D01*
X-18149Y22055D01*
X-18110Y22153D01*
X-18107Y22175D01*
X-18103Y22188D01*
X-18102Y22219D01*
X-18091Y22320D01*
X-18091Y23817D01*
X-18106Y23907D01*
X-18113Y23998D01*
X-18126Y24028D01*
X-18131Y24060D01*
X-18174Y24140D01*
X-18209Y24224D01*
X-18235Y24256D01*
X-18246Y24277D01*
X-18269Y24299D01*
X-18314Y24355D01*
X-20357Y26398D01*
X-20357Y30380D01*
X-17541Y33196D01*
X-13559Y33196D01*
X-10744Y30380D01*
X-10744Y27805D01*
X-10733Y27739D01*
X-10732Y27672D01*
X-10713Y27618D01*
X-10704Y27563D01*
X-10673Y27503D01*
X-10650Y27440D01*
X-10615Y27395D01*
X-10589Y27345D01*
X-10540Y27299D01*
X-10499Y27246D01*
X-10452Y27215D01*
X-10410Y27176D01*
X-10350Y27148D01*
X-10294Y27111D01*
X-10239Y27096D01*
X-10187Y27072D01*
X-10121Y27065D01*
X-10056Y27048D01*
X-9999Y27051D01*
X-9943Y27045D01*
X-9877Y27059D01*
X-9810Y27064D01*
X-9735Y27090D01*
X-9703Y27097D01*
X-9685Y27108D01*
X-9652Y27120D01*
X-9184Y27345D01*
X-9112Y27339D01*
X-9025Y27324D01*
X-8991Y27329D01*
X-8956Y27326D01*
X-8791Y27357D01*
X-6687Y28006D01*
X-6656Y28022D01*
X-6622Y28030D01*
X-6547Y28076D01*
X-6467Y28116D01*
X-6442Y28140D01*
X-6413Y28159D01*
X-6359Y28217D01*
X-5723Y28313D01*
X-5691Y28323D01*
X-5612Y28338D01*
X-5000Y28527D01*
X-4930Y28510D01*
X-4846Y28482D01*
X-4811Y28482D01*
X-4777Y28474D01*
X-4610Y28481D01*
X-2432Y28809D01*
X-2399Y28819D01*
X-2365Y28822D01*
X-2283Y28857D01*
X-2198Y28884D01*
X-2170Y28905D01*
X-2138Y28918D01*
X-2076Y28968D01*
X-1433Y28968D01*
X-1400Y28973D01*
X-1319Y28976D01*
X-686Y29072D01*
X-619Y29045D01*
X-540Y29005D01*
X-506Y28999D01*
X-474Y28986D01*
X-307Y28968D01*
X1895Y28968D01*
X1929Y28974D01*
X1963Y28971D01*
X2050Y28993D01*
X2137Y29008D01*
X2168Y29024D01*
X2202Y29033D01*
X2270Y29072D01*
X2907Y28976D01*
X2940Y28977D01*
X3020Y28968D01*
X3661Y28968D01*
X3723Y28932D01*
X3795Y28880D01*
X3828Y28869D01*
X3858Y28852D01*
X4020Y28809D01*
X6197Y28481D01*
X6232Y28481D01*
X6266Y28473D01*
X6354Y28483D01*
X6443Y28484D01*
X6476Y28495D01*
X6510Y28499D01*
X6584Y28528D01*
X7199Y28338D01*
X7232Y28334D01*
X7310Y28313D01*
X7943Y28217D01*
X7999Y28172D01*
X8063Y28110D01*
X8094Y28095D01*
X8121Y28073D01*
X8275Y28006D01*
X10379Y27357D01*
X10413Y27353D01*
X10445Y27340D01*
X10534Y27336D01*
X10622Y27324D01*
X10656Y27330D01*
X10691Y27329D01*
X10769Y27346D01*
X11348Y27067D01*
X11380Y27058D01*
X11454Y27026D01*
X12066Y26837D01*
X12115Y26784D01*
X12168Y26713D01*
X12197Y26693D01*
X12220Y26668D01*
X12362Y26579D01*
X14346Y25623D01*
X14380Y25614D01*
X14410Y25596D01*
X14497Y25579D01*
X14582Y25554D01*
X14617Y25555D01*
X14651Y25548D01*
X14730Y25555D01*
X15262Y25192D01*
X15292Y25178D01*
X15360Y25135D01*
X15937Y24857D01*
X15977Y24798D01*
X16020Y24720D01*
X16045Y24696D01*
X16064Y24667D01*
X16192Y24558D01*
X18011Y23318D01*
X18042Y23303D01*
X18070Y23281D01*
X18154Y23251D01*
X18234Y23214D01*
X18268Y23210D01*
X18301Y23198D01*
X18380Y23192D01*
X18852Y22754D01*
X18880Y22736D01*
X18941Y22684D01*
X19470Y22323D01*
X19480Y22301D01*
X19482Y22293D01*
X19491Y22278D01*
X19501Y22258D01*
X19531Y22174D01*
X19553Y22147D01*
X19568Y22116D01*
X19677Y21989D01*
X21291Y20491D01*
X21320Y20472D01*
X21344Y20447D01*
X21382Y20426D01*
X21413Y20400D01*
X21454Y20383D01*
X21496Y20355D01*
X21530Y20346D01*
X21560Y20330D01*
X21620Y20316D01*
X21641Y20308D01*
X22039Y19809D01*
X22044Y19804D01*
X22048Y19799D01*
X22069Y19780D01*
X22116Y19726D01*
X22586Y19290D01*
X22606Y19222D01*
X22624Y19134D01*
X22641Y19104D01*
X22651Y19071D01*
X22741Y18929D01*
X24114Y17208D01*
X24139Y17184D01*
X24159Y17156D01*
X24230Y17102D01*
X24296Y17043D01*
X24328Y17029D01*
X24356Y17008D01*
X24429Y16979D01*
X24751Y16422D01*
X24772Y16396D01*
X24815Y16328D01*
X25215Y15827D01*
X25225Y15756D01*
X25229Y15667D01*
X25242Y15635D01*
X25247Y15600D01*
X25314Y15447D01*
X26415Y13540D01*
X26437Y13513D01*
X26452Y13482D01*
X26515Y13418D01*
X26571Y13350D01*
X26600Y13331D01*
X26624Y13306D01*
X26693Y13267D01*
X26736Y13158D01*
X26928Y12668D01*
X26945Y12639D01*
X26978Y12565D01*
X27298Y12011D01*
X27297Y11939D01*
X27288Y11850D01*
X27296Y11817D01*
X27296Y11782D01*
X27340Y11620D01*
X28144Y9570D01*
X28162Y9540D01*
X28172Y9507D01*
X28224Y9435D01*
X28270Y9359D01*
X28296Y9336D01*
X28316Y9308D01*
X28379Y9259D01*
X28522Y8631D01*
X28534Y8601D01*
X28555Y8522D01*
X28789Y7926D01*
X28778Y7856D01*
X28756Y7769D01*
X28759Y7735D01*
X28753Y7701D01*
X28772Y7534D01*
X29262Y5387D01*
X29275Y5355D01*
X29281Y5321D01*
X29321Y5242D01*
X29355Y5159D01*
X29378Y5133D01*
X29393Y5102D01*
X29448Y5044D01*
X29496Y4402D01*
X29503Y4370D01*
X29513Y4290D01*
X29655Y3666D01*
X29633Y3597D01*
X29599Y3515D01*
X29596Y3481D01*
X29586Y3448D01*
X29580Y3280D01*
X29621Y2724D01*
X29648Y2613D01*
X29673Y2501D01*
X29677Y2493D01*
X29679Y2485D01*
X29740Y2388D01*
X29799Y2290D01*
X29805Y2284D01*
X29810Y2277D01*
X29899Y2204D01*
X29986Y2130D01*
X29994Y2127D01*
X30001Y2121D01*
X30107Y2081D01*
X30214Y2038D01*
X30224Y2037D01*
X30231Y2034D01*
X30254Y2034D01*
X30381Y2019D01*
X64756Y2019D01*
X64848Y2035D01*
X64942Y2043D01*
X64969Y2054D01*
X64999Y2059D01*
X65081Y2103D01*
X65167Y2140D01*
X65190Y2160D01*
X65216Y2174D01*
X65280Y2242D01*
X65350Y2305D01*
X65365Y2331D01*
X65385Y2353D01*
X65425Y2438D01*
X65471Y2519D01*
X65480Y2556D01*
X65489Y2576D01*
X65492Y2608D01*
X65511Y2682D01*
X65725Y4327D01*
X66010Y5396D01*
X68693Y5396D01*
X68151Y3188D01*
X68150Y3154D01*
X68139Y3109D01*
X67896Y58D01*
X67900Y30D01*
X67895Y2D01*
X67911Y-68D01*
X67920Y-139D01*
X67934Y-164D01*
X67941Y-191D01*
X67983Y-249D01*
X68019Y-311D01*
X68042Y-329D01*
X68059Y-351D01*
X68120Y-388D01*
X68178Y-431D01*
X68205Y-438D01*
X68230Y-453D01*
X68330Y-470D01*
X68371Y-480D01*
X68381Y-478D01*
X68394Y-481D01*
X87394Y-481D01*
X87470Y-465D01*
X87547Y-456D01*
X87567Y-445D01*
X87589Y-441D01*
X87653Y-397D01*
X87721Y-359D01*
X87736Y-340D01*
X87753Y-328D01*
X87777Y-291D01*
X87826Y-230D01*
X97326Y16270D01*
X97335Y16297D01*
X97352Y16320D01*
X97367Y16391D01*
X97389Y16458D01*
X97387Y16487D01*
X97393Y16515D01*
X97379Y16585D01*
X97374Y16657D01*
X97360Y16682D01*
X97355Y16710D01*
X97315Y16769D01*
X97282Y16833D01*
X97260Y16851D01*
X97244Y16875D01*
X97161Y16933D01*
X97128Y16959D01*
X97118Y16962D01*
X97107Y16970D01*
X94341Y18279D01*
X94308Y18287D01*
X94266Y18307D01*
X91326Y19155D01*
X91292Y19157D01*
X91247Y19171D01*
X88209Y19536D01*
X88175Y19533D01*
X88129Y19539D01*
X85072Y19412D01*
X85039Y19404D01*
X84992Y19402D01*
X84917Y19387D01*
X84917Y21958D01*
X85935Y22094D01*
X88826Y22097D01*
X91693Y21723D01*
X94486Y20978D01*
X96049Y20333D01*
X96114Y20318D01*
X96139Y20308D01*
X96159Y20306D01*
X96227Y20284D01*
X96258Y20284D01*
X96288Y20277D01*
X96380Y20286D01*
X96473Y20288D01*
X96502Y20298D01*
X96533Y20301D01*
X96618Y20339D01*
X96705Y20370D01*
X96729Y20389D01*
X96757Y20401D01*
X96801Y20441D01*
X96807Y20444D01*
X96826Y20464D01*
X96899Y20521D01*
X96922Y20552D01*
X96938Y20568D01*
X96954Y20596D01*
X96963Y20609D01*
X96976Y20623D01*
X96981Y20633D01*
X96998Y20656D01*
X114160Y50383D01*
X114201Y50490D01*
X114209Y50509D01*
X114220Y50534D01*
X114221Y50540D01*
X114244Y50596D01*
X114244Y50605D01*
X114247Y50613D01*
X114252Y50727D01*
X114258Y50842D01*
X114256Y50850D01*
X114256Y50859D01*
X114224Y50969D01*
X114194Y51079D01*
X114189Y51086D01*
X114187Y51095D01*
X114121Y51188D01*
X114057Y51283D01*
X114049Y51290D01*
X114045Y51296D01*
X114027Y51309D01*
X113930Y51393D01*
X113475Y51703D01*
X113443Y51717D01*
X113416Y51739D01*
X113332Y51769D01*
X113252Y51807D01*
X113217Y51810D01*
X113184Y51822D01*
X113105Y51828D01*
X112633Y52265D01*
X112606Y52284D01*
X112544Y52336D01*
X112015Y52697D01*
X111985Y52762D01*
X111954Y52845D01*
X111932Y52873D01*
X111918Y52904D01*
X111808Y53031D01*
X110192Y54530D01*
X110163Y54549D01*
X110139Y54574D01*
X110061Y54616D01*
X109987Y54665D01*
X109953Y54674D01*
X109923Y54691D01*
X109845Y54708D01*
X109444Y55211D01*
X109419Y55234D01*
X109366Y55295D01*
X108897Y55730D01*
X108876Y55799D01*
X108859Y55886D01*
X108841Y55916D01*
X108831Y55949D01*
X108742Y56091D01*
X107367Y57814D01*
X107341Y57837D01*
X107322Y57866D01*
X107251Y57919D01*
X107185Y57979D01*
X107153Y57993D01*
X107125Y58014D01*
X107051Y58042D01*
X106729Y58600D01*
X106708Y58625D01*
X106665Y58694D01*
X106266Y59194D01*
X106255Y59265D01*
X106251Y59354D01*
X106238Y59386D01*
X106233Y59421D01*
X106166Y59574D01*
X105063Y61483D01*
X105041Y61510D01*
X105026Y61541D01*
X104964Y61604D01*
X104908Y61673D01*
X104878Y61692D01*
X104854Y61716D01*
X104785Y61756D01*
X104550Y62355D01*
X104533Y62383D01*
X104500Y62457D01*
X104180Y63012D01*
X104181Y63084D01*
X104189Y63172D01*
X104182Y63206D01*
X104182Y63241D01*
X104138Y63403D01*
X103690Y64544D01*
X103689Y64544D01*
X103689Y64545D01*
X103624Y64654D01*
X103564Y64755D01*
X103563Y64756D01*
X103467Y64839D01*
X103377Y64915D01*
X103377Y64916D01*
X103376Y64916D01*
X103251Y64967D01*
X103150Y65008D01*
X103149Y65008D01*
X103148Y65008D01*
X102981Y65027D01*
X102305Y65027D01*
X102215Y65012D01*
X102124Y65005D01*
X102094Y64992D01*
X102062Y64987D01*
X101981Y64944D01*
X101897Y64909D01*
X101865Y64883D01*
X101845Y64872D01*
X101822Y64848D01*
X101766Y64804D01*
X99723Y62761D01*
X95741Y62761D01*
X92926Y65576D01*
X92926Y69558D01*
X95741Y72374D01*
X99723Y72374D01*
X100568Y71529D01*
X100649Y71471D01*
X100727Y71408D01*
X100749Y71400D01*
X100768Y71386D01*
X100863Y71357D01*
X100957Y71321D01*
X100980Y71320D01*
X101003Y71314D01*
X101103Y71316D01*
X101203Y71313D01*
X101225Y71319D01*
X101249Y71320D01*
X101343Y71354D01*
X101439Y71383D01*
X101458Y71396D01*
X101480Y71404D01*
X101558Y71467D01*
X101640Y71524D01*
X101653Y71543D01*
X101672Y71558D01*
X101726Y71642D01*
X101785Y71723D01*
X101792Y71745D01*
X101805Y71765D01*
X101829Y71862D01*
X101860Y71957D01*
X101861Y71986D01*
X101865Y72004D01*
X101862Y72036D01*
X101865Y72125D01*
X101729Y73944D01*
X101720Y73978D01*
X101720Y74012D01*
X101692Y74097D01*
X101671Y74183D01*
X101652Y74212D01*
X101641Y74245D01*
X101596Y74311D01*
X101644Y74953D01*
X101641Y74985D01*
X101644Y75066D01*
X101596Y75705D01*
X101628Y75769D01*
X101674Y75845D01*
X101682Y75879D01*
X101697Y75910D01*
X101728Y76075D01*
X101892Y78273D01*
X101889Y78307D01*
X101894Y78342D01*
X101878Y78430D01*
X101870Y78518D01*
X101856Y78550D01*
X101850Y78584D01*
X101816Y78655D01*
X101959Y79283D01*
X101961Y79316D01*
X101976Y79395D01*
X102023Y80034D01*
X102064Y80093D01*
X102121Y80161D01*
X102134Y80193D01*
X102154Y80222D01*
X102209Y80380D01*
X102699Y82529D01*
X102701Y82564D01*
X102711Y82597D01*
X102708Y82686D01*
X102714Y82775D01*
X102705Y82808D01*
X102704Y82843D01*
X102680Y82919D01*
X102915Y83518D01*
X102922Y83550D01*
X102949Y83627D01*
X103091Y84251D01*
X103140Y84303D01*
X103207Y84362D01*
X103224Y84392D01*
X103248Y84417D01*
X103326Y84566D01*
X104131Y86618D01*
X104138Y86652D01*
X104153Y86683D01*
X104164Y86771D01*
X104182Y86858D01*
X104178Y86893D01*
X104183Y86927D01*
X104171Y87006D01*
X104492Y87563D01*
X104504Y87594D01*
X104542Y87666D01*
X104775Y88262D01*
X104832Y88306D01*
X104906Y88355D01*
X104928Y88382D01*
X104955Y88403D01*
X105055Y88538D01*
X106156Y90447D01*
X106168Y90480D01*
X106188Y90509D01*
X106212Y90594D01*
X106243Y90678D01*
X106244Y90712D01*
X106254Y90746D01*
X106253Y90825D01*
X106655Y91328D01*
X106671Y91357D01*
X106719Y91422D01*
X107039Y91977D01*
X107101Y92012D01*
X107182Y92049D01*
X107207Y92073D01*
X107238Y92090D01*
X107356Y92209D01*
X108730Y93932D01*
X108747Y93962D01*
X108770Y93988D01*
X108806Y94069D01*
X108850Y94147D01*
X108856Y94181D01*
X108870Y94213D01*
X108882Y94291D01*
X109354Y94729D01*
X109374Y94755D01*
X109431Y94812D01*
X109830Y95313D01*
X109897Y95339D01*
X109983Y95363D01*
X110011Y95383D01*
X110044Y95395D01*
X110179Y95495D01*
X111794Y96995D01*
X111815Y97022D01*
X111842Y97044D01*
X111890Y97118D01*
X111945Y97189D01*
X111956Y97222D01*
X111975Y97251D01*
X111998Y97327D01*
X112530Y97689D01*
X112554Y97712D01*
X112619Y97760D01*
X113088Y98196D01*
X113158Y98211D01*
X113246Y98223D01*
X113278Y98238D01*
X113311Y98245D01*
X113460Y98324D01*
X115280Y99566D01*
X115306Y99590D01*
X115336Y99607D01*
X115394Y99674D01*
X115459Y99736D01*
X115475Y99766D01*
X115498Y99792D01*
X115532Y99864D01*
X116112Y100143D01*
X116139Y100162D01*
X116210Y100200D01*
X116739Y100561D01*
X116811Y100566D01*
X116900Y100564D01*
X116933Y100574D01*
X116967Y100576D01*
X117126Y100632D01*
X119111Y101589D01*
X119139Y101609D01*
X119172Y101622D01*
X119240Y101679D01*
X119312Y101730D01*
X119333Y101758D01*
X119360Y101781D01*
X119404Y101846D01*
X120019Y102036D01*
X120049Y102051D01*
X120125Y102078D01*
X120702Y102356D01*
X120774Y102350D01*
X120861Y102334D01*
X120895Y102340D01*
X120930Y102337D01*
X121095Y102368D01*
X123201Y103019D01*
X123231Y103034D01*
X123265Y103042D01*
X123341Y103089D01*
X123421Y103128D01*
X123445Y103153D01*
X123475Y103171D01*
X123529Y103229D01*
X124165Y103325D01*
X124196Y103335D01*
X124276Y103351D01*
X124888Y103540D01*
X124958Y103523D01*
X125042Y103495D01*
X125077Y103495D01*
X125110Y103487D01*
X125278Y103493D01*
X127457Y103823D01*
X127490Y103833D01*
X127525Y103836D01*
X127607Y103871D01*
X127691Y103898D01*
X127719Y103919D01*
X127751Y103932D01*
X127813Y103982D01*
X128457Y103982D01*
X128489Y103988D01*
X128570Y103991D01*
X129204Y104086D01*
X129270Y104060D01*
X129349Y104019D01*
X129384Y104014D01*
X129416Y104001D01*
X129582Y103983D01*
X131787Y103983D01*
X131821Y103989D01*
X131855Y103986D01*
X131941Y104009D01*
X132029Y104023D01*
X132060Y104039D01*
X132093Y104048D01*
X132162Y104088D01*
X132799Y103992D01*
X132832Y103993D01*
X132912Y103984D01*
X133552Y103984D01*
X133614Y103947D01*
X133686Y103896D01*
X133720Y103885D01*
X133749Y103868D01*
X133912Y103825D01*
X136091Y103497D01*
X136126Y103497D01*
X136160Y103490D01*
X136248Y103499D01*
X136337Y103500D01*
X136370Y103512D01*
X136404Y103515D01*
X136478Y103544D01*
X137093Y103355D01*
X137126Y103350D01*
X137204Y103330D01*
X137838Y103234D01*
X137893Y103189D01*
X137957Y103127D01*
X137988Y103112D01*
X138015Y103090D01*
X138169Y103023D01*
X140275Y102374D01*
X140310Y102370D01*
X140342Y102357D01*
X140431Y102353D01*
X140519Y102341D01*
X140553Y102347D01*
X140588Y102346D01*
X140665Y102364D01*
X141245Y102085D01*
X141277Y102075D01*
X141351Y102043D01*
X141963Y101854D01*
X142011Y101801D01*
X142065Y101731D01*
X142094Y101711D01*
X142117Y101685D01*
X142259Y101596D01*
X142772Y101350D01*
X142881Y101318D01*
X142991Y101283D01*
X143000Y101283D01*
X143008Y101280D01*
X143122Y101285D01*
X143237Y101286D01*
X143245Y101289D01*
X143254Y101290D01*
X143361Y101330D01*
X143469Y101368D01*
X143476Y101374D01*
X143484Y101377D01*
X143572Y101450D01*
X143662Y101520D01*
X143669Y101529D01*
X143674Y101533D01*
X143686Y101553D01*
X143762Y101655D01*
X160925Y131384D01*
X160958Y131472D01*
X160998Y131556D01*
X161002Y131586D01*
X161012Y131614D01*
X161016Y131708D01*
X161026Y131800D01*
X161020Y131830D01*
X161021Y131860D01*
X160995Y131950D01*
X160976Y132041D01*
X160960Y132067D01*
X160952Y132096D01*
X160898Y132172D01*
X160850Y132253D01*
X160823Y132279D01*
X160810Y132297D01*
X160784Y132317D01*
X160729Y132369D01*
X159494Y133317D01*
X159422Y133372D01*
X157374Y135420D01*
X155611Y137718D01*
X154163Y140226D01*
X153054Y142902D01*
X152305Y145699D01*
X151937Y148496D01*
X154530Y148496D01*
X154530Y148486D01*
X154531Y148482D01*
X154530Y148480D01*
X154537Y148453D01*
X154537Y148452D01*
X154536Y148406D01*
X155028Y145379D01*
X155040Y145347D01*
X155048Y145301D01*
X156019Y142393D01*
X156035Y142363D01*
X156050Y142319D01*
X157475Y139604D01*
X157496Y139578D01*
X157518Y139536D01*
X159360Y137085D01*
X159385Y137062D01*
X159413Y137025D01*
X161624Y134900D01*
X161653Y134882D01*
X161687Y134850D01*
X164210Y133108D01*
X164237Y133097D01*
X164259Y133078D01*
X164327Y133058D01*
X164393Y133030D01*
X164422Y133030D01*
X164450Y133021D01*
X164521Y133029D01*
X164592Y133029D01*
X164618Y133040D01*
X164647Y133044D01*
X164710Y133079D01*
X164775Y133106D01*
X164795Y133127D01*
X164821Y133141D01*
X164884Y133218D01*
X164914Y133249D01*
X164918Y133259D01*
X164926Y133270D01*
X174426Y149770D01*
X174437Y149801D01*
X174445Y149814D01*
X174449Y149839D01*
X174451Y149842D01*
X174482Y149913D01*
X174482Y149936D01*
X174489Y149958D01*
X174483Y150035D01*
X174484Y150112D01*
X174475Y150136D01*
X174474Y150157D01*
X174453Y150196D01*
X174426Y150268D01*
X164926Y166768D01*
X164907Y166790D01*
X164895Y166816D01*
X164842Y166864D01*
X164795Y166917D01*
X164769Y166930D01*
X164747Y166949D01*
X164680Y166972D01*
X164616Y167003D01*
X164587Y167004D01*
X164559Y167014D01*
X164488Y167009D01*
X164417Y167012D01*
X164390Y167002D01*
X164361Y167000D01*
X164270Y166958D01*
X164230Y166943D01*
X164222Y166935D01*
X164210Y166930D01*
X161687Y165188D01*
X161663Y165163D01*
X161624Y165137D01*
X159413Y163013D01*
X159394Y162985D01*
X159360Y162953D01*
X157518Y160502D01*
X157503Y160471D01*
X157475Y160434D01*
X156050Y157719D01*
X156041Y157687D01*
X156025Y157662D01*
X156024Y157654D01*
X156019Y157645D01*
X155048Y154736D01*
X155043Y154703D01*
X155028Y154658D01*
X154536Y151632D01*
X154538Y151598D01*
X154530Y151552D01*
X154530Y151542D01*
X151937Y151542D01*
X152305Y154338D01*
X153054Y157136D01*
X154163Y159811D01*
X155611Y162319D01*
X155642Y162361D01*
X157374Y164617D01*
X159422Y166665D01*
X160729Y167669D01*
X160793Y167736D01*
X160862Y167799D01*
X160877Y167826D01*
X160898Y167848D01*
X160937Y167932D01*
X160982Y168014D01*
X160988Y168044D01*
X161000Y168071D01*
X161010Y168164D01*
X161027Y168256D01*
X161023Y168286D01*
X161026Y168316D01*
X161006Y168407D01*
X160993Y168499D01*
X160977Y168535D01*
X160972Y168556D01*
X160956Y168584D01*
X160925Y168653D01*
X143762Y198382D01*
X143689Y198471D01*
X143619Y198561D01*
X143612Y198566D01*
X143606Y198573D01*
X143508Y198634D01*
X143414Y198696D01*
X143405Y198699D01*
X143397Y198704D01*
X143286Y198730D01*
X143176Y198760D01*
X143167Y198759D01*
X143158Y198761D01*
X143044Y198751D01*
X142930Y198743D01*
X142920Y198740D01*
X142913Y198739D01*
X142892Y198730D01*
X142772Y198688D01*
X142259Y198441D01*
X142231Y198421D01*
X142199Y198408D01*
X142131Y198351D01*
X142058Y198300D01*
X142037Y198272D01*
X142011Y198250D01*
X141966Y198184D01*
X141351Y197994D01*
X141322Y197980D01*
X141245Y197953D01*
X140668Y197675D01*
X140597Y197681D01*
X140509Y197697D01*
X140475Y197692D01*
X140440Y197695D01*
X140275Y197663D01*
X138169Y197014D01*
X138138Y196999D01*
X138104Y196991D01*
X138028Y196944D01*
X137949Y196905D01*
X137924Y196880D01*
X137895Y196862D01*
X137841Y196804D01*
X137204Y196708D01*
X137173Y196698D01*
X137093Y196683D01*
X136481Y196494D01*
X136412Y196511D01*
X136327Y196539D01*
X136293Y196539D01*
X136259Y196547D01*
X136091Y196541D01*
X133912Y196213D01*
X133879Y196202D01*
X133844Y196199D01*
X133762Y196165D01*
X133677Y196137D01*
X133650Y196117D01*
X133618Y196103D01*
X133556Y196054D01*
X132912Y196054D01*
X132880Y196049D01*
X132799Y196045D01*
X132165Y195950D01*
X132099Y195977D01*
X132020Y196018D01*
X131985Y196023D01*
X131953Y196036D01*
X131787Y196054D01*
X129582Y196055D01*
X129548Y196049D01*
X129514Y196052D01*
X129427Y196030D01*
X129340Y196015D01*
X129309Y195999D01*
X129275Y195990D01*
X129207Y195951D01*
X128570Y196047D01*
X128537Y196046D01*
X128457Y196055D01*
X127816Y196055D01*
X127755Y196092D01*
X127683Y196144D01*
X127649Y196154D01*
X127619Y196172D01*
X127457Y196215D01*
X125278Y196544D01*
X125243Y196544D01*
X125209Y196551D01*
X125121Y196542D01*
X125032Y196541D01*
X124999Y196530D01*
X124965Y196526D01*
X124891Y196497D01*
X124276Y196687D01*
X124243Y196691D01*
X124165Y196712D01*
X123532Y196808D01*
X123476Y196853D01*
X123413Y196915D01*
X123381Y196930D01*
X123354Y196952D01*
X123201Y197019D01*
X121095Y197669D01*
X121060Y197674D01*
X121028Y197687D01*
X120939Y197691D01*
X120851Y197703D01*
X120817Y197696D01*
X120782Y197698D01*
X120705Y197680D01*
X120125Y197960D01*
X120093Y197969D01*
X120019Y198001D01*
X119407Y198190D01*
X119359Y198243D01*
X119305Y198314D01*
X119277Y198334D01*
X119253Y198359D01*
X119111Y198449D01*
X118782Y198607D01*
X118767Y198612D01*
X118754Y198620D01*
X118649Y198646D01*
X118546Y198677D01*
X118530Y198676D01*
X118515Y198680D01*
X118408Y198672D01*
X118300Y198667D01*
X118286Y198662D01*
X118270Y198661D01*
X118171Y198619D01*
X118070Y198580D01*
X118058Y198571D01*
X118044Y198565D01*
X117913Y198460D01*
X117630Y198177D01*
X117585Y198114D01*
X117561Y198089D01*
X117556Y198079D01*
X117518Y198033D01*
X117505Y198003D01*
X117487Y197977D01*
X117460Y197890D01*
X117426Y197805D01*
X117421Y197764D01*
X117414Y197742D01*
X117415Y197710D01*
X117407Y197639D01*
X117407Y194749D01*
X114591Y191934D01*
X110609Y191934D01*
X107794Y194749D01*
X107794Y198731D01*
X110609Y201547D01*
X111309Y201547D01*
X111399Y201562D01*
X111489Y201569D01*
X111520Y201581D01*
X111552Y201587D01*
X111632Y201629D01*
X111716Y201665D01*
X111740Y201686D01*
X111770Y201702D01*
X111832Y201767D01*
X111900Y201828D01*
X111916Y201856D01*
X111939Y201880D01*
X111977Y201962D01*
X112022Y202041D01*
X112029Y202073D01*
X112043Y202103D01*
X112053Y202193D01*
X112070Y202282D01*
X112067Y202324D01*
X112070Y202348D01*
X112063Y202379D01*
X112057Y202450D01*
X112024Y202626D01*
X112012Y202659D01*
X112008Y202693D01*
X111970Y202774D01*
X111940Y202858D01*
X111918Y202885D01*
X111904Y202916D01*
X111794Y203043D01*
X110179Y204543D01*
X110150Y204562D01*
X110126Y204587D01*
X110048Y204630D01*
X109974Y204679D01*
X109940Y204688D01*
X109910Y204704D01*
X109832Y204722D01*
X109431Y205225D01*
X109407Y205247D01*
X109354Y205308D01*
X108885Y205744D01*
X108864Y205813D01*
X108846Y205900D01*
X108829Y205930D01*
X108819Y205963D01*
X108730Y206105D01*
X107356Y207829D01*
X107330Y207852D01*
X107311Y207881D01*
X107240Y207934D01*
X107174Y207994D01*
X107142Y208008D01*
X107114Y208029D01*
X107040Y208058D01*
X106719Y208615D01*
X106698Y208641D01*
X106655Y208709D01*
X106255Y209210D01*
X106245Y209281D01*
X106241Y209370D01*
X106228Y209402D01*
X106223Y209436D01*
X106156Y209590D01*
X105055Y211499D01*
X105033Y211526D01*
X105018Y211557D01*
X104955Y211621D01*
X104899Y211690D01*
X104870Y211708D01*
X104845Y211733D01*
X104776Y211772D01*
X104542Y212372D01*
X104525Y212400D01*
X104523Y212403D01*
X104523Y212404D01*
X104522Y212406D01*
X104492Y212474D01*
X104172Y213029D01*
X104173Y213101D01*
X104182Y213189D01*
X104174Y213223D01*
X104174Y213258D01*
X104131Y213420D01*
X103326Y215472D01*
X103308Y215502D01*
X103298Y215535D01*
X103246Y215606D01*
X103200Y215683D01*
X103174Y215706D01*
X103154Y215734D01*
X103092Y215783D01*
X102949Y216411D01*
X102936Y216441D01*
X102915Y216519D01*
X102681Y217116D01*
X102693Y217187D01*
X102715Y217273D01*
X102712Y217307D01*
X102718Y217342D01*
X102699Y217508D01*
X102209Y219657D01*
X102196Y219689D01*
X102190Y219724D01*
X102150Y219803D01*
X102116Y219885D01*
X102093Y219911D01*
X102078Y219942D01*
X102024Y220000D01*
X101976Y220642D01*
X101968Y220674D01*
X101959Y220755D01*
X101816Y221379D01*
X101838Y221447D01*
X101873Y221529D01*
X101875Y221564D01*
X101886Y221597D01*
X101892Y221765D01*
X101728Y223963D01*
X101720Y223996D01*
X101720Y224031D01*
X101691Y224115D01*
X101670Y224202D01*
X101652Y224231D01*
X101641Y224264D01*
X101596Y224329D01*
X101644Y224971D01*
X101641Y225004D01*
X101644Y225085D01*
X101596Y225724D01*
X101628Y225788D01*
X101675Y225864D01*
X101682Y225898D01*
X101698Y225929D01*
X101729Y226094D01*
X101894Y228291D01*
X101891Y228326D01*
X101896Y228360D01*
X101880Y228448D01*
X101873Y228537D01*
X101859Y228568D01*
X101853Y228602D01*
X101818Y228674D01*
X101961Y229301D01*
X101964Y229334D01*
X101978Y229414D01*
X102026Y230052D01*
X102067Y230111D01*
X102125Y230179D01*
X102137Y230212D01*
X102157Y230240D01*
X102212Y230399D01*
X102703Y232547D01*
X102706Y232582D01*
X102716Y232615D01*
X102713Y232704D01*
X102719Y232793D01*
X102710Y232826D01*
X102709Y232861D01*
X102685Y232937D01*
X102921Y233536D01*
X102928Y233568D01*
X102954Y233645D01*
X103097Y234269D01*
X103146Y234321D01*
X103213Y234380D01*
X103230Y234410D01*
X103254Y234435D01*
X103332Y234583D01*
X104138Y236635D01*
X104145Y236669D01*
X104160Y236700D01*
X104171Y236788D01*
X104190Y236875D01*
X104186Y236910D01*
X104190Y236944D01*
X104178Y237023D01*
X104500Y237580D01*
X104512Y237611D01*
X104550Y237683D01*
X104784Y238279D01*
X104840Y238323D01*
X104915Y238371D01*
X104937Y238398D01*
X104964Y238420D01*
X105063Y238555D01*
X106166Y240463D01*
X106178Y240496D01*
X106198Y240524D01*
X106222Y240610D01*
X106253Y240693D01*
X106254Y240728D01*
X106264Y240761D01*
X106264Y240841D01*
X106665Y241344D01*
X106678Y241367D01*
X106695Y241385D01*
X106703Y241403D01*
X106729Y241438D01*
X107049Y241992D01*
X107112Y242027D01*
X107193Y242064D01*
X107218Y242088D01*
X107249Y242105D01*
X107367Y242223D01*
X108742Y243946D01*
X108759Y243977D01*
X108782Y244002D01*
X108819Y244083D01*
X108862Y244161D01*
X108869Y244195D01*
X108883Y244227D01*
X108895Y244305D01*
X109366Y244743D01*
X109387Y244769D01*
X109444Y244826D01*
X109843Y245327D01*
X109910Y245352D01*
X109996Y245376D01*
X110025Y245396D01*
X110057Y245408D01*
X110192Y245508D01*
X111808Y247007D01*
X111829Y247034D01*
X111856Y247056D01*
X111904Y247131D01*
X111959Y247201D01*
X111970Y247234D01*
X111989Y247263D01*
X112012Y247339D01*
X112544Y247701D01*
X112568Y247724D01*
X112633Y247772D01*
X113103Y248207D01*
X113173Y248223D01*
X113261Y248234D01*
X113293Y248249D01*
X113326Y248256D01*
X113475Y248335D01*
X113930Y248645D01*
X114013Y248724D01*
X114097Y248801D01*
X114102Y248808D01*
X114108Y248814D01*
X114161Y248916D01*
X114217Y249016D01*
X114219Y249024D01*
X114223Y249032D01*
X114241Y249145D01*
X114262Y249257D01*
X114261Y249266D01*
X114262Y249275D01*
X114244Y249388D01*
X114228Y249501D01*
X114224Y249511D01*
X114222Y249517D01*
X114212Y249538D01*
X114160Y249655D01*
X86458Y297637D01*
X86415Y297690D01*
X86381Y297748D01*
X86338Y297784D01*
X86303Y297828D01*
X86245Y297864D01*
X86194Y297908D01*
X86142Y297929D01*
X86094Y297958D01*
X86028Y297974D01*
X85966Y298000D01*
X85887Y298008D01*
X85855Y298016D01*
X85834Y298014D01*
X85799Y298018D01*
X24892Y298018D01*
X24872Y298015D01*
X24853Y298017D01*
X24751Y297995D01*
X24649Y297978D01*
X24632Y297969D01*
X24612Y297965D01*
X24523Y297912D01*
X24432Y297863D01*
X24418Y297849D01*
X24401Y297839D01*
X24334Y297760D01*
X24262Y297685D01*
X24254Y297667D01*
X24241Y297652D01*
X24202Y297555D01*
X24159Y297462D01*
X24157Y297442D01*
X24149Y297423D01*
X24131Y297257D01*
X24131Y297098D01*
X24134Y297079D01*
X24132Y297059D01*
X24154Y296958D01*
X24170Y296856D01*
X24180Y296838D01*
X24184Y296819D01*
X24237Y296730D01*
X24286Y296638D01*
X24300Y296625D01*
X24310Y296608D01*
X24389Y296540D01*
X24464Y296469D01*
X24482Y296461D01*
X24497Y296448D01*
X24593Y296409D01*
X24687Y296365D01*
X24707Y296363D01*
X24725Y296356D01*
X24892Y296337D01*
X29513Y296337D01*
X30406Y295444D01*
X30406Y284181D01*
X29513Y283288D01*
X24892Y283288D01*
X24872Y283285D01*
X24853Y283287D01*
X24751Y283265D01*
X24649Y283248D01*
X24632Y283239D01*
X24612Y283234D01*
X24523Y283181D01*
X24432Y283133D01*
X24418Y283119D01*
X24401Y283108D01*
X24334Y283030D01*
X24262Y282955D01*
X24254Y282937D01*
X24241Y282921D01*
X24202Y282825D01*
X24159Y282732D01*
X24157Y282712D01*
X24149Y282693D01*
X24131Y282527D01*
X24131Y273098D01*
X24134Y273079D01*
X24132Y273059D01*
X24154Y272958D01*
X24170Y272856D01*
X24180Y272838D01*
X24184Y272819D01*
X24237Y272730D01*
X24286Y272638D01*
X24300Y272625D01*
X24310Y272608D01*
X24389Y272540D01*
X24464Y272469D01*
X24482Y272461D01*
X24497Y272448D01*
X24593Y272409D01*
X24687Y272365D01*
X24707Y272363D01*
X24725Y272356D01*
X24892Y272337D01*
X29513Y272337D01*
X30406Y271444D01*
X30406Y260181D01*
X29513Y259288D01*
X23250Y259288D01*
X22920Y259618D01*
X22903Y259630D01*
X22891Y259645D01*
X22804Y259701D01*
X22720Y259761D01*
X22701Y259767D01*
X22684Y259778D01*
X22584Y259803D01*
X22485Y259834D01*
X22465Y259833D01*
X22445Y259838D01*
X22342Y259830D01*
X22239Y259827D01*
X22220Y259821D01*
X22200Y259819D01*
X22105Y259779D01*
X22008Y259743D01*
X21992Y259731D01*
X21974Y259723D01*
X21843Y259618D01*
X21513Y259288D01*
X15250Y259288D01*
X14920Y259618D01*
X14903Y259630D01*
X14891Y259645D01*
X14804Y259701D01*
X14720Y259761D01*
X14701Y259767D01*
X14684Y259778D01*
X14584Y259803D01*
X14485Y259834D01*
X14465Y259833D01*
X14445Y259838D01*
X14342Y259830D01*
X14239Y259827D01*
X14220Y259821D01*
X14200Y259819D01*
X14105Y259779D01*
X14008Y259743D01*
X13992Y259731D01*
X13974Y259723D01*
X13843Y259618D01*
X13513Y259288D01*
X7207Y259288D01*
X7188Y259285D01*
X7168Y259287D01*
X7067Y259265D01*
X6964Y259248D01*
X6947Y259239D01*
X6927Y259234D01*
X6838Y259181D01*
X6747Y259133D01*
X6733Y259119D01*
X6716Y259108D01*
X6649Y259030D01*
X6578Y258955D01*
X6569Y258937D01*
X6556Y258921D01*
X6518Y258825D01*
X6474Y258732D01*
X6472Y258712D01*
X6464Y258693D01*
X6446Y258527D01*
X6446Y255420D01*
X6449Y255400D01*
X6447Y255380D01*
X6469Y255279D01*
X6486Y255177D01*
X6495Y255159D01*
X6499Y255140D01*
X6552Y255051D01*
X6601Y254960D01*
X6615Y254946D01*
X6625Y254929D01*
X6704Y254861D01*
X6779Y254790D01*
X6797Y254782D01*
X6812Y254769D01*
X6909Y254730D01*
X7002Y254687D01*
X7022Y254684D01*
X7041Y254677D01*
X7207Y254658D01*
X20851Y254658D01*
X20941Y254673D01*
X21032Y254680D01*
X21062Y254693D01*
X21094Y254698D01*
X21174Y254741D01*
X21258Y254777D01*
X21290Y254802D01*
X21311Y254813D01*
X21333Y254837D01*
X21389Y254881D01*
X22408Y255900D01*
X26804Y255900D01*
X29913Y252792D01*
X29913Y248396D01*
X26804Y245287D01*
X22408Y245287D01*
X21389Y246306D01*
X21315Y246359D01*
X21246Y246419D01*
X21216Y246431D01*
X21189Y246450D01*
X21102Y246476D01*
X21018Y246511D01*
X20977Y246515D01*
X20954Y246522D01*
X20922Y246521D01*
X20851Y246529D01*
X3310Y246529D01*
X-1778Y251618D01*
X-1837Y251659D01*
X-1889Y251709D01*
X-1936Y251731D01*
X-1978Y251761D01*
X-2047Y251782D01*
X-2112Y251812D01*
X-2164Y251818D01*
X-2213Y251834D01*
X-2285Y251832D01*
X-2356Y251840D01*
X-2407Y251828D01*
X-2459Y251827D01*
X-2527Y251803D01*
X-2597Y251787D01*
X-2641Y251761D01*
X-2690Y251743D01*
X-2746Y251698D01*
X-2808Y251661D01*
X-2842Y251622D01*
X-2882Y251589D01*
X-2921Y251529D01*
X-2968Y251474D01*
X-2987Y251426D01*
X-3015Y251382D01*
X-3033Y251313D01*
X-3060Y251246D01*
X-3067Y251175D01*
X-3075Y251144D01*
X-3073Y251120D01*
X-3078Y251079D01*
X-3078Y154061D01*
X-3063Y153971D01*
X-3056Y153880D01*
X-3044Y153851D01*
X-3038Y153819D01*
X-2996Y153738D01*
X-2960Y153654D01*
X-2934Y153622D01*
X-2923Y153601D01*
X-2900Y153579D01*
X-2855Y153523D01*
X12851Y137817D01*
X12925Y137764D01*
X12994Y137705D01*
X13025Y137692D01*
X13051Y137674D01*
X13138Y137647D01*
X13223Y137613D01*
X13263Y137608D01*
X13286Y137601D01*
X13318Y137602D01*
X13389Y137594D01*
X16279Y137594D01*
X19094Y134779D01*
X19094Y130796D01*
X17551Y129253D01*
X17509Y129195D01*
X17459Y129143D01*
X17437Y129095D01*
X17407Y129053D01*
X17386Y128985D01*
X17356Y128919D01*
X17350Y128868D01*
X17335Y128818D01*
X17336Y128746D01*
X17329Y128675D01*
X17340Y128624D01*
X17341Y128572D01*
X17366Y128505D01*
X17381Y128435D01*
X17408Y128390D01*
X17425Y128341D01*
X17470Y128285D01*
X17507Y128224D01*
X17547Y128190D01*
X17579Y128149D01*
X17639Y128110D01*
X17694Y128064D01*
X17742Y128044D01*
X17786Y128016D01*
X17856Y127999D01*
X17922Y127972D01*
X17993Y127964D01*
X18025Y127956D01*
X18048Y127958D01*
X18089Y127953D01*
X20626Y127953D01*
X20716Y127968D01*
X20807Y127975D01*
X20837Y127988D01*
X20869Y127993D01*
X20949Y128036D01*
X21033Y128071D01*
X21065Y128097D01*
X21086Y128108D01*
X21108Y128131D01*
X21164Y128176D01*
X24339Y131351D01*
X24392Y131425D01*
X24452Y131494D01*
X24464Y131525D01*
X24483Y131551D01*
X24509Y131638D01*
X24544Y131723D01*
X24548Y131763D01*
X24555Y131786D01*
X24554Y131818D01*
X24562Y131889D01*
X24562Y134779D01*
X27378Y137594D01*
X31360Y137594D01*
X34175Y134779D01*
X34175Y130796D01*
X31360Y127981D01*
X28470Y127981D01*
X28380Y127966D01*
X28289Y127959D01*
X28260Y127946D01*
X28228Y127941D01*
X28147Y127898D01*
X28063Y127863D01*
X28031Y127837D01*
X28010Y127826D01*
X27988Y127803D01*
X27932Y127758D01*
X23046Y122872D01*
X-7402Y122872D01*
X-31116Y146585D01*
X-31116Y272817D01*
X-21944Y281988D01*
X-21902Y282046D01*
X-21853Y282098D01*
X-21831Y282146D01*
X-21800Y282188D01*
X-21779Y282256D01*
X-21749Y282322D01*
X-21743Y282373D01*
X-21728Y282423D01*
X-21730Y282495D01*
X-21722Y282566D01*
X-21733Y282617D01*
X-21734Y282669D01*
X-21759Y282736D01*
X-21774Y282806D01*
X-21801Y282851D01*
X-21819Y282900D01*
X-21864Y282956D01*
X-21901Y283017D01*
X-21940Y283051D01*
X-21973Y283092D01*
X-22033Y283131D01*
X-22087Y283177D01*
X-22136Y283197D01*
X-22180Y283225D01*
X-22249Y283242D01*
X-22316Y283269D01*
X-22387Y283277D01*
X-22418Y283285D01*
X-22441Y283283D01*
X-22482Y283288D01*
X-24750Y283288D01*
X-25643Y284181D01*
X-25643Y295444D01*
X-24750Y296337D01*
X-18487Y296337D01*
X-18157Y296007D01*
X-18141Y295995D01*
X-18128Y295980D01*
X-18041Y295924D01*
X-17957Y295864D01*
X-17938Y295858D01*
X-17921Y295847D01*
X-17821Y295822D01*
X-17722Y295791D01*
X-17702Y295792D01*
X-17683Y295787D01*
X-17580Y295795D01*
X-17476Y295798D01*
X-17458Y295804D01*
X-17438Y295806D01*
X-17343Y295846D01*
X-17245Y295882D01*
X-17230Y295894D01*
X-17211Y295902D01*
X-17080Y296007D01*
X-16750Y296337D01*
X-10487Y296337D01*
X-10157Y296007D01*
X-10141Y295995D01*
X-10128Y295980D01*
X-10041Y295924D01*
X-9957Y295864D01*
X-9938Y295858D01*
X-9921Y295847D01*
X-9821Y295822D01*
X-9722Y295791D01*
X-9702Y295792D01*
X-9683Y295787D01*
X-9580Y295795D01*
X-9476Y295798D01*
X-9458Y295804D01*
X-9438Y295806D01*
X-9343Y295846D01*
X-9245Y295882D01*
X-9230Y295894D01*
X-9211Y295902D01*
X-9080Y296007D01*
X-8750Y296337D01*
X-2487Y296337D01*
X-2157Y296007D01*
X-2141Y295995D01*
X-2128Y295980D01*
X-2041Y295924D01*
X-1957Y295864D01*
X-1938Y295858D01*
X-1921Y295847D01*
X-1821Y295822D01*
X-1722Y295791D01*
X-1702Y295792D01*
X-1683Y295787D01*
X-1580Y295795D01*
X-1476Y295798D01*
X-1458Y295804D01*
X-1438Y295806D01*
X-1343Y295846D01*
X-1245Y295882D01*
X-1230Y295894D01*
X-1211Y295902D01*
X-1080Y296007D01*
X-750Y296337D01*
X5271Y296337D01*
X5290Y296340D01*
X5310Y296338D01*
X5411Y296360D01*
X5513Y296377D01*
X5531Y296386D01*
X5550Y296391D01*
X5639Y296444D01*
X5731Y296492D01*
X5744Y296506D01*
X5761Y296517D01*
X5829Y296595D01*
X5900Y296670D01*
X5908Y296688D01*
X5921Y296704D01*
X5960Y296800D01*
X6004Y296893D01*
X6006Y296913D01*
X6013Y296932D01*
X6032Y297098D01*
X6032Y297257D01*
X6029Y297276D01*
X6031Y297296D01*
X6009Y297397D01*
X5992Y297500D01*
X5983Y297517D01*
X5978Y297537D01*
X5925Y297626D01*
X5877Y297717D01*
X5863Y297731D01*
X5852Y297748D01*
X5774Y297815D01*
X5699Y297886D01*
X5681Y297895D01*
X5665Y297908D01*
X5569Y297946D01*
X5476Y297990D01*
X5456Y297992D01*
X5437Y298000D01*
X5271Y298018D01*
X-84212Y298018D01*
X-84278Y298007D01*
X-84346Y298006D01*
X-84399Y297987D01*
X-84454Y297978D01*
X-84514Y297947D01*
X-84578Y297924D01*
X-84622Y297889D01*
X-84672Y297863D01*
X-84718Y297814D01*
X-84771Y297773D01*
X-84818Y297709D01*
X-84841Y297685D01*
X-84850Y297666D01*
X-84871Y297637D01*
X-112573Y249655D01*
X-112613Y249547D01*
X-112656Y249441D01*
X-112657Y249433D01*
X-112660Y249425D01*
X-112664Y249310D01*
X-112671Y249196D01*
X-112669Y249187D01*
X-112669Y249179D01*
X-112636Y249069D01*
X-112606Y248959D01*
X-112602Y248951D01*
X-112599Y248943D01*
X-112533Y248849D01*
X-112470Y248754D01*
X-112462Y248747D01*
X-112458Y248742D01*
X-112439Y248728D01*
X-112342Y248645D01*
X-111887Y248335D01*
X-111856Y248320D01*
X-111828Y248299D01*
X-111745Y248268D01*
X-111664Y248231D01*
X-111630Y248227D01*
X-111597Y248215D01*
X-111518Y248210D01*
X-111046Y247772D01*
X-111018Y247754D01*
X-110957Y247701D01*
X-110428Y247340D01*
X-110397Y247276D01*
X-110367Y247192D01*
X-110345Y247165D01*
X-110330Y247134D01*
X-110220Y247007D01*
X-108604Y245508D01*
X-108575Y245489D01*
X-108552Y245463D01*
X-108473Y245421D01*
X-108399Y245372D01*
X-108366Y245363D01*
X-108335Y245347D01*
X-108258Y245329D01*
X-107856Y244826D01*
X-107832Y244804D01*
X-107779Y244743D01*
X-107309Y244307D01*
X-107289Y244239D01*
X-107271Y244151D01*
X-107254Y244121D01*
X-107244Y244088D01*
X-107154Y243946D01*
X-105780Y242223D01*
X-105754Y242200D01*
X-105734Y242172D01*
X-105663Y242118D01*
X-105597Y242058D01*
X-105565Y242045D01*
X-105537Y242024D01*
X-105464Y241995D01*
X-105142Y241438D01*
X-105121Y241412D01*
X-105077Y241344D01*
X-104678Y240843D01*
X-104668Y240772D01*
X-104663Y240683D01*
X-104651Y240651D01*
X-104646Y240617D01*
X-104579Y240463D01*
X-103476Y238555D01*
X-103454Y238528D01*
X-103439Y238497D01*
X-103376Y238433D01*
X-103320Y238364D01*
X-103291Y238346D01*
X-103266Y238321D01*
X-103198Y238282D01*
X-102962Y237683D01*
X-102945Y237654D01*
X-102913Y237580D01*
X-102592Y237026D01*
X-102593Y236954D01*
X-102602Y236865D01*
X-102594Y236831D01*
X-102594Y236797D01*
X-102551Y236635D01*
X-101745Y234583D01*
X-101727Y234554D01*
X-101717Y234521D01*
X-101664Y234448D01*
X-101619Y234372D01*
X-101593Y234349D01*
X-101572Y234321D01*
X-101510Y234272D01*
X-101367Y233645D01*
X-101354Y233614D01*
X-101333Y233536D01*
X-101099Y232940D01*
X-101110Y232869D01*
X-101132Y232783D01*
X-101130Y232748D01*
X-101135Y232714D01*
X-101116Y232547D01*
X-100625Y230399D01*
X-100612Y230366D01*
X-100606Y230332D01*
X-100566Y230253D01*
X-100532Y230171D01*
X-100509Y230144D01*
X-100493Y230114D01*
X-100439Y230056D01*
X-100391Y229414D01*
X-100383Y229382D01*
X-100374Y229301D01*
X-100231Y228677D01*
X-100253Y228609D01*
X-100287Y228527D01*
X-100290Y228492D01*
X-100301Y228459D01*
X-100306Y228291D01*
X-100154Y226269D01*
X-100144Y226227D01*
X-100143Y226184D01*
X-100115Y226108D01*
X-100096Y226030D01*
X-100073Y225993D01*
X-100058Y225953D01*
X-100008Y225890D01*
X-99965Y225822D01*
X-99932Y225794D01*
X-99905Y225761D01*
X-99837Y225717D01*
X-99775Y225666D01*
X-99734Y225651D01*
X-99698Y225628D01*
X-99620Y225608D01*
X-99545Y225580D01*
X-99501Y225578D01*
X-99459Y225568D01*
X-99379Y225574D01*
X-99299Y225571D01*
X-99257Y225583D01*
X-99214Y225587D01*
X-99140Y225618D01*
X-99063Y225641D01*
X-99028Y225666D01*
X-98988Y225683D01*
X-98872Y225776D01*
X-98862Y225783D01*
X-98860Y225785D01*
X-98857Y225788D01*
X-98060Y226585D01*
X-94078Y226585D01*
X-91262Y223769D01*
X-91262Y219787D01*
X-94078Y216971D01*
X-98060Y216971D01*
X-99670Y218581D01*
X-99759Y218645D01*
X-99846Y218712D01*
X-99859Y218717D01*
X-99870Y218725D01*
X-99974Y218757D01*
X-100078Y218793D01*
X-100092Y218793D01*
X-100105Y218797D01*
X-100214Y218794D01*
X-100324Y218795D01*
X-100337Y218791D01*
X-100351Y218791D01*
X-100454Y218753D01*
X-100558Y218719D01*
X-100569Y218711D01*
X-100582Y218706D01*
X-100668Y218637D01*
X-100755Y218572D01*
X-100763Y218561D01*
X-100774Y218552D01*
X-100833Y218460D01*
X-100896Y218370D01*
X-100901Y218355D01*
X-100907Y218345D01*
X-100914Y218318D01*
X-100951Y218212D01*
X-101111Y217508D01*
X-101113Y217474D01*
X-101123Y217440D01*
X-101121Y217351D01*
X-101126Y217263D01*
X-101117Y217229D01*
X-101116Y217194D01*
X-101093Y217119D01*
X-101328Y216520D01*
X-101335Y216487D01*
X-101361Y216411D01*
X-101504Y215786D01*
X-101553Y215734D01*
X-101619Y215675D01*
X-101637Y215645D01*
X-101661Y215620D01*
X-101739Y215472D01*
X-102543Y213420D01*
X-102550Y213386D01*
X-102565Y213354D01*
X-102576Y213266D01*
X-102595Y213179D01*
X-102591Y213145D01*
X-102595Y213110D01*
X-102583Y213032D01*
X-102905Y212474D01*
X-102916Y212443D01*
X-102954Y212372D01*
X-103188Y211775D01*
X-103244Y211731D01*
X-103319Y211683D01*
X-103340Y211656D01*
X-103368Y211634D01*
X-103467Y211499D01*
X-104569Y209590D01*
X-104581Y209558D01*
X-104600Y209529D01*
X-104624Y209443D01*
X-104655Y209360D01*
X-104657Y209325D01*
X-104666Y209292D01*
X-104666Y209213D01*
X-105067Y208709D01*
X-105083Y208680D01*
X-105131Y208615D01*
X-105451Y208060D01*
X-105513Y208025D01*
X-105595Y207989D01*
X-105620Y207965D01*
X-105650Y207948D01*
X-105768Y207829D01*
X-107142Y206105D01*
X-107159Y206075D01*
X-107183Y206050D01*
X-107219Y205968D01*
X-107262Y205891D01*
X-107269Y205857D01*
X-107283Y205825D01*
X-107295Y205746D01*
X-107766Y205308D01*
X-107787Y205283D01*
X-107844Y205225D01*
X-108243Y204724D01*
X-108310Y204699D01*
X-108395Y204675D01*
X-108424Y204655D01*
X-108456Y204643D01*
X-108591Y204543D01*
X-110206Y203043D01*
X-110228Y203015D01*
X-110255Y202994D01*
X-110303Y202919D01*
X-110357Y202849D01*
X-110369Y202816D01*
X-110387Y202787D01*
X-110411Y202711D01*
X-110942Y202348D01*
X-110966Y202325D01*
X-111031Y202277D01*
X-111501Y201841D01*
X-111571Y201826D01*
X-111659Y201815D01*
X-111690Y201800D01*
X-111724Y201792D01*
X-111872Y201714D01*
X-113693Y200472D01*
X-113718Y200448D01*
X-113748Y200430D01*
X-113807Y200363D01*
X-113871Y200302D01*
X-113887Y200271D01*
X-113910Y200245D01*
X-113944Y200174D01*
X-114524Y199894D01*
X-114551Y199875D01*
X-114623Y199837D01*
X-115152Y199476D01*
X-115223Y199472D01*
X-115312Y199474D01*
X-115345Y199463D01*
X-115380Y199461D01*
X-115538Y199405D01*
X-117524Y198448D01*
X-117552Y198429D01*
X-117584Y198416D01*
X-117652Y198358D01*
X-117725Y198307D01*
X-117746Y198279D01*
X-117772Y198257D01*
X-117817Y198191D01*
X-118432Y198001D01*
X-118461Y197987D01*
X-118538Y197960D01*
X-119114Y197682D01*
X-119186Y197688D01*
X-119273Y197703D01*
X-119308Y197698D01*
X-119342Y197701D01*
X-119507Y197669D01*
X-121613Y197019D01*
X-121644Y197003D01*
X-121678Y196996D01*
X-121754Y196949D01*
X-121833Y196909D01*
X-121858Y196885D01*
X-121887Y196867D01*
X-121941Y196808D01*
X-122578Y196712D01*
X-122609Y196702D01*
X-122688Y196687D01*
X-123300Y196498D01*
X-123370Y196514D01*
X-123454Y196543D01*
X-123489Y196543D01*
X-123523Y196551D01*
X-123690Y196544D01*
X-125870Y196215D01*
X-125903Y196204D01*
X-125937Y196201D01*
X-126019Y196167D01*
X-126104Y196139D01*
X-126132Y196119D01*
X-126164Y196105D01*
X-126226Y196055D01*
X-126869Y196055D01*
X-126902Y196050D01*
X-126983Y196047D01*
X-127616Y195951D01*
X-127682Y195978D01*
X-127762Y196018D01*
X-127796Y196024D01*
X-127828Y196036D01*
X-127995Y196055D01*
X-130199Y196054D01*
X-130233Y196049D01*
X-130268Y196051D01*
X-130354Y196029D01*
X-130442Y196014D01*
X-130472Y195998D01*
X-130506Y195989D01*
X-130575Y195950D01*
X-131211Y196045D01*
X-131244Y196045D01*
X-131325Y196054D01*
X-131965Y196054D01*
X-132027Y196090D01*
X-132099Y196142D01*
X-132132Y196152D01*
X-132162Y196170D01*
X-132324Y196213D01*
X-134504Y196541D01*
X-134538Y196540D01*
X-134572Y196548D01*
X-134661Y196539D01*
X-134750Y196537D01*
X-134783Y196526D01*
X-134817Y196522D01*
X-134891Y196493D01*
X-135506Y196683D01*
X-135539Y196687D01*
X-135617Y196708D01*
X-136250Y196803D01*
X-136306Y196848D01*
X-136369Y196910D01*
X-136401Y196925D01*
X-136428Y196947D01*
X-136582Y197014D01*
X-138688Y197663D01*
X-138722Y197668D01*
X-138755Y197680D01*
X-138844Y197685D01*
X-138932Y197697D01*
X-138966Y197690D01*
X-139000Y197692D01*
X-139078Y197674D01*
X-139658Y197953D01*
X-139689Y197962D01*
X-139763Y197994D01*
X-140376Y198183D01*
X-140424Y198236D01*
X-140478Y198307D01*
X-140506Y198327D01*
X-140530Y198352D01*
X-140672Y198441D01*
X-141185Y198688D01*
X-141293Y198720D01*
X-141403Y198755D01*
X-141412Y198755D01*
X-141421Y198757D01*
X-141535Y198753D01*
X-141649Y198751D01*
X-141657Y198748D01*
X-141666Y198748D01*
X-141774Y198707D01*
X-141881Y198669D01*
X-141888Y198664D01*
X-141896Y198661D01*
X-141985Y198588D01*
X-142075Y198518D01*
X-142081Y198509D01*
X-142087Y198504D01*
X-142099Y198485D01*
X-142174Y198382D01*
X-159338Y168653D01*
X-159371Y168566D01*
X-159411Y168481D01*
X-159414Y168451D01*
X-159425Y168423D01*
X-159428Y168330D01*
X-159439Y168237D01*
X-159433Y168207D01*
X-159434Y168177D01*
X-159407Y168088D01*
X-159388Y167997D01*
X-159373Y167970D01*
X-159364Y167941D01*
X-159310Y167865D01*
X-159263Y167785D01*
X-159235Y167758D01*
X-159223Y167740D01*
X-159196Y167721D01*
X-159142Y167669D01*
X-158428Y167120D01*
X-157834Y166665D01*
X-155786Y164617D01*
X-154023Y162319D01*
X-152575Y159812D01*
X-151467Y157136D01*
X-150717Y154338D01*
X-150349Y151542D01*
X-152943Y151542D01*
X-152943Y151552D01*
X-152949Y151585D01*
X-152949Y151632D01*
X-153441Y154658D01*
X-153453Y154690D01*
X-153460Y154736D01*
X-154431Y157645D01*
X-154444Y157668D01*
X-154450Y157693D01*
X-154457Y157702D01*
X-154463Y157719D01*
X-155887Y160434D01*
X-155909Y160460D01*
X-155930Y160502D01*
X-157772Y162953D01*
X-157798Y162975D01*
X-157826Y163013D01*
X-160037Y165137D01*
X-160066Y165155D01*
X-160099Y165188D01*
X-162623Y166930D01*
X-162649Y166941D01*
X-162672Y166959D01*
X-162740Y166980D01*
X-162806Y167008D01*
X-162834Y167008D01*
X-162862Y167016D01*
X-162933Y167008D01*
X-163004Y167008D01*
X-163031Y166997D01*
X-163060Y166994D01*
X-163122Y166959D01*
X-163188Y166931D01*
X-163208Y166910D01*
X-163233Y166896D01*
X-163297Y166819D01*
X-163326Y166789D01*
X-163330Y166778D01*
X-163339Y166768D01*
X-172839Y150268D01*
X-172863Y150195D01*
X-172894Y150124D01*
X-172895Y150101D01*
X-172902Y150079D01*
X-172896Y150003D01*
X-172897Y149926D01*
X-172888Y149901D01*
X-172886Y149881D01*
X-172866Y149841D01*
X-172846Y149789D01*
X-172845Y149784D01*
X-172844Y149782D01*
X-172839Y149770D01*
X-163339Y133270D01*
X-163320Y133248D01*
X-163308Y133222D01*
X-163255Y133174D01*
X-163207Y133121D01*
X-163181Y133108D01*
X-163160Y133089D01*
X-163092Y133065D01*
X-163028Y133035D01*
X-162999Y133033D01*
X-162972Y133024D01*
X-162901Y133029D01*
X-162829Y133025D01*
X-162802Y133036D01*
X-162773Y133038D01*
X-162683Y133080D01*
X-162643Y133095D01*
X-162635Y133102D01*
X-162623Y133108D01*
X-160099Y134850D01*
X-160076Y134874D01*
X-160037Y134900D01*
X-157826Y137025D01*
X-157806Y137052D01*
X-157772Y137085D01*
X-155930Y139536D01*
X-155916Y139567D01*
X-155887Y139604D01*
X-154463Y142319D01*
X-154453Y142351D01*
X-154431Y142393D01*
X-153460Y145301D01*
X-153456Y145335D01*
X-153441Y145379D01*
X-152949Y148406D01*
X-152950Y148439D01*
X-152943Y148486D01*
X-152943Y148496D01*
X-150349Y148496D01*
X-150717Y145699D01*
X-151467Y142902D01*
X-152575Y140226D01*
X-154023Y137718D01*
X-154041Y137695D01*
X-155786Y135420D01*
X-157834Y133372D01*
X-159142Y132369D01*
X-159206Y132301D01*
X-159275Y132238D01*
X-159290Y132212D01*
X-159310Y132190D01*
X-159349Y132105D01*
X-159395Y132023D01*
X-159400Y131994D01*
X-159413Y131966D01*
X-159423Y131873D01*
X-159440Y131782D01*
X-159435Y131752D01*
X-159439Y131721D01*
X-159418Y131630D01*
X-159405Y131538D01*
X-159390Y131503D01*
X-159385Y131481D01*
X-159368Y131453D01*
X-159338Y131384D01*
X-142174Y101655D01*
X-142101Y101566D01*
X-142031Y101477D01*
X-142024Y101472D01*
X-142018Y101465D01*
X-141921Y101404D01*
X-141826Y101341D01*
X-141818Y101339D01*
X-141810Y101334D01*
X-141699Y101307D01*
X-141588Y101278D01*
X-141579Y101279D01*
X-141571Y101276D01*
X-141457Y101287D01*
X-141343Y101294D01*
X-141333Y101298D01*
X-141326Y101298D01*
X-141304Y101308D01*
X-141185Y101350D01*
X-140672Y101596D01*
X-140644Y101616D01*
X-140611Y101629D01*
X-140543Y101687D01*
X-140470Y101738D01*
X-140450Y101765D01*
X-140423Y101788D01*
X-140379Y101853D01*
X-139763Y102043D01*
X-139734Y102058D01*
X-139658Y102085D01*
X-139081Y102362D01*
X-139009Y102356D01*
X-138922Y102341D01*
X-138887Y102346D01*
X-138853Y102343D01*
X-138688Y102374D01*
X-136582Y103023D01*
X-136550Y103039D01*
X-136517Y103047D01*
X-136441Y103093D01*
X-136361Y103133D01*
X-136337Y103157D01*
X-136307Y103176D01*
X-136253Y103234D01*
X-135617Y103330D01*
X-135585Y103340D01*
X-135506Y103355D01*
X-134894Y103543D01*
X-134824Y103527D01*
X-134740Y103498D01*
X-134705Y103498D01*
X-134671Y103490D01*
X-134504Y103497D01*
X-132324Y103825D01*
X-132291Y103835D01*
X-132257Y103838D01*
X-132175Y103873D01*
X-132090Y103900D01*
X-132062Y103921D01*
X-132030Y103934D01*
X-131968Y103984D01*
X-131325Y103984D01*
X-131292Y103989D01*
X-131211Y103992D01*
X-130578Y104087D01*
X-130511Y104061D01*
X-130432Y104020D01*
X-130398Y104015D01*
X-130366Y104002D01*
X-130199Y103983D01*
X-127995Y103983D01*
X-127961Y103988D01*
X-127926Y103986D01*
X-127840Y104008D01*
X-127752Y104022D01*
X-127721Y104038D01*
X-127688Y104047D01*
X-127619Y104087D01*
X-126983Y103991D01*
X-126950Y103991D01*
X-126869Y103982D01*
X-126229Y103982D01*
X-126167Y103946D01*
X-126095Y103894D01*
X-126062Y103883D01*
X-126032Y103866D01*
X-125870Y103823D01*
X-123690Y103493D01*
X-123656Y103494D01*
X-123622Y103486D01*
X-123534Y103495D01*
X-123445Y103496D01*
X-123412Y103508D01*
X-123377Y103511D01*
X-123303Y103541D01*
X-122688Y103351D01*
X-122656Y103346D01*
X-122578Y103325D01*
X-121944Y103230D01*
X-121889Y103185D01*
X-121825Y103122D01*
X-121794Y103107D01*
X-121767Y103085D01*
X-121613Y103019D01*
X-119507Y102368D01*
X-119473Y102364D01*
X-119440Y102351D01*
X-119351Y102347D01*
X-119263Y102335D01*
X-119229Y102341D01*
X-119195Y102339D01*
X-119117Y102357D01*
X-118538Y102078D01*
X-118506Y102068D01*
X-118432Y102036D01*
X-117820Y101847D01*
X-117771Y101794D01*
X-117718Y101723D01*
X-117689Y101704D01*
X-117666Y101678D01*
X-117524Y101589D01*
X-115538Y100632D01*
X-115505Y100622D01*
X-115475Y100605D01*
X-115387Y100588D01*
X-115302Y100562D01*
X-115268Y100564D01*
X-115234Y100557D01*
X-115154Y100563D01*
X-114623Y100200D01*
X-114593Y100186D01*
X-114524Y100143D01*
X-113947Y99865D01*
X-113907Y99806D01*
X-113865Y99728D01*
X-113839Y99704D01*
X-113820Y99675D01*
X-113693Y99566D01*
X-111872Y98324D01*
X-111841Y98309D01*
X-111813Y98288D01*
X-111730Y98257D01*
X-111649Y98220D01*
X-111615Y98216D01*
X-111582Y98204D01*
X-111503Y98198D01*
X-111031Y97760D01*
X-111004Y97742D01*
X-110942Y97689D01*
X-110413Y97328D01*
X-110383Y97264D01*
X-110352Y97180D01*
X-110331Y97153D01*
X-110316Y97122D01*
X-110206Y96995D01*
X-108591Y95495D01*
X-108562Y95476D01*
X-108539Y95450D01*
X-108460Y95408D01*
X-108386Y95359D01*
X-108353Y95350D01*
X-108322Y95333D01*
X-108245Y95316D01*
X-107844Y94812D01*
X-107819Y94790D01*
X-107766Y94729D01*
X-107297Y94293D01*
X-107277Y94225D01*
X-107259Y94137D01*
X-107242Y94107D01*
X-107232Y94074D01*
X-107142Y93932D01*
X-105768Y92209D01*
X-105743Y92185D01*
X-105723Y92157D01*
X-105652Y92103D01*
X-105586Y92043D01*
X-105554Y92030D01*
X-105527Y92009D01*
X-105453Y91980D01*
X-105131Y91422D01*
X-105110Y91397D01*
X-105067Y91328D01*
X-104668Y90827D01*
X-104658Y90757D01*
X-104653Y90668D01*
X-104641Y90635D01*
X-104636Y90601D01*
X-104569Y90447D01*
X-103467Y88538D01*
X-103445Y88511D01*
X-103430Y88480D01*
X-103368Y88417D01*
X-103311Y88348D01*
X-103282Y88329D01*
X-103258Y88305D01*
X-103189Y88265D01*
X-102954Y87666D01*
X-102937Y87638D01*
X-102905Y87563D01*
X-102585Y87009D01*
X-102585Y86937D01*
X-102594Y86848D01*
X-102587Y86815D01*
X-102587Y86780D01*
X-102543Y86618D01*
X-101739Y84566D01*
X-101721Y84536D01*
X-101711Y84503D01*
X-101658Y84431D01*
X-101613Y84354D01*
X-101587Y84332D01*
X-101566Y84304D01*
X-101504Y84254D01*
X-101361Y83627D01*
X-101349Y83596D01*
X-101328Y83518D01*
X-101094Y82922D01*
X-101096Y82917D01*
X-101099Y82888D01*
X-101105Y82851D01*
X-101127Y82765D01*
X-101125Y82730D01*
X-101130Y82696D01*
X-101111Y82529D01*
X-100722Y80823D01*
X-100700Y80769D01*
X-100688Y80712D01*
X-100654Y80656D01*
X-100629Y80595D01*
X-100592Y80551D01*
X-100562Y80501D01*
X-100512Y80458D01*
X-100469Y80409D01*
X-100419Y80379D01*
X-100375Y80341D01*
X-100314Y80317D01*
X-100257Y80283D01*
X-100201Y80271D01*
X-100147Y80249D01*
X-100048Y80238D01*
X-100017Y80232D01*
X-100003Y80233D01*
X-99980Y80231D01*
X-99955Y80231D01*
X-99865Y80246D01*
X-99774Y80253D01*
X-99745Y80265D01*
X-99713Y80271D01*
X-99632Y80313D01*
X-99548Y80349D01*
X-99516Y80375D01*
X-99495Y80386D01*
X-99473Y80409D01*
X-99417Y80454D01*
X-97374Y82497D01*
X-93392Y82497D01*
X-90576Y79681D01*
X-90576Y75699D01*
X-93392Y72883D01*
X-97374Y72883D01*
X-98849Y74358D01*
X-98884Y74383D01*
X-98913Y74415D01*
X-98983Y74455D01*
X-99048Y74502D01*
X-99090Y74514D01*
X-99128Y74535D01*
X-99207Y74550D01*
X-99284Y74574D01*
X-99327Y74573D01*
X-99369Y74581D01*
X-99449Y74570D01*
X-99529Y74568D01*
X-99570Y74553D01*
X-99613Y74547D01*
X-99685Y74511D01*
X-99760Y74483D01*
X-99794Y74456D01*
X-99833Y74437D01*
X-99890Y74380D01*
X-99952Y74329D01*
X-99976Y74293D01*
X-100006Y74262D01*
X-100042Y74190D01*
X-100085Y74123D01*
X-100096Y74081D01*
X-100115Y74042D01*
X-100142Y73896D01*
X-100146Y73884D01*
X-100145Y73881D01*
X-100146Y73877D01*
X-100306Y71746D01*
X-100303Y71712D01*
X-100309Y71677D01*
X-100293Y71590D01*
X-100285Y71501D01*
X-100271Y71469D01*
X-100265Y71435D01*
X-100231Y71364D01*
X-100374Y70736D01*
X-100376Y70703D01*
X-100391Y70624D01*
X-100439Y69985D01*
X-100480Y69926D01*
X-100537Y69858D01*
X-100550Y69826D01*
X-100570Y69797D01*
X-100625Y69639D01*
X-101116Y67490D01*
X-101118Y67456D01*
X-101128Y67422D01*
X-101126Y67334D01*
X-101131Y67245D01*
X-101122Y67211D01*
X-101121Y67177D01*
X-101098Y67101D01*
X-101333Y66502D01*
X-101340Y66470D01*
X-101367Y66393D01*
X-101509Y65769D01*
X-101559Y65717D01*
X-101625Y65658D01*
X-101643Y65628D01*
X-101667Y65602D01*
X-101745Y65454D01*
X-102551Y63403D01*
X-102558Y63369D01*
X-102573Y63337D01*
X-102584Y63249D01*
X-102602Y63162D01*
X-102598Y63128D01*
X-102603Y63093D01*
X-102591Y63015D01*
X-102913Y62457D01*
X-102924Y62427D01*
X-102962Y62355D01*
X-103196Y61759D01*
X-103253Y61715D01*
X-103327Y61666D01*
X-103349Y61639D01*
X-103376Y61618D01*
X-103476Y61483D01*
X-104579Y59574D01*
X-104591Y59542D01*
X-104610Y59513D01*
X-104634Y59427D01*
X-104666Y59344D01*
X-104667Y59310D01*
X-104676Y59276D01*
X-104676Y59197D01*
X-105077Y58694D01*
X-105094Y58665D01*
X-105142Y58600D01*
X-105462Y58045D01*
X-105524Y58010D01*
X-105605Y57974D01*
X-105631Y57950D01*
X-105661Y57933D01*
X-105780Y57814D01*
X-107154Y56091D01*
X-107171Y56061D01*
X-107195Y56035D01*
X-107231Y55954D01*
X-107275Y55877D01*
X-107281Y55843D01*
X-107295Y55811D01*
X-107307Y55732D01*
X-107779Y55295D01*
X-107799Y55269D01*
X-107856Y55211D01*
X-108256Y54711D01*
X-108323Y54685D01*
X-108408Y54661D01*
X-108437Y54642D01*
X-108469Y54629D01*
X-108604Y54530D01*
X-110221Y53031D01*
X-110242Y53003D01*
X-110269Y52982D01*
X-110317Y52907D01*
X-110371Y52837D01*
X-110383Y52804D01*
X-110402Y52775D01*
X-110425Y52699D01*
X-110957Y52336D01*
X-110981Y52314D01*
X-111046Y52265D01*
X-111515Y51830D01*
X-111585Y51815D01*
X-111674Y51804D01*
X-111705Y51789D01*
X-111739Y51781D01*
X-111887Y51703D01*
X-112342Y51393D01*
X-112425Y51314D01*
X-112510Y51237D01*
X-112514Y51229D01*
X-112521Y51223D01*
X-112574Y51122D01*
X-112630Y51022D01*
X-112631Y51013D01*
X-112635Y51006D01*
X-112654Y50893D01*
X-112675Y50780D01*
X-112673Y50771D01*
X-112675Y50763D01*
X-112656Y50650D01*
X-112640Y50536D01*
X-112636Y50527D01*
X-112635Y50520D01*
X-112624Y50500D01*
X-112609Y50465D01*
X-112608Y50460D01*
X-112603Y50452D01*
X-112573Y50383D01*
X-95411Y20656D01*
X-95367Y20603D01*
X-95341Y20560D01*
X-95326Y20546D01*
X-95299Y20508D01*
X-95274Y20490D01*
X-95255Y20466D01*
X-95176Y20417D01*
X-95157Y20402D01*
X-95154Y20400D01*
X-95153Y20399D01*
X-95102Y20361D01*
X-95073Y20352D01*
X-95047Y20335D01*
X-94956Y20313D01*
X-94868Y20285D01*
X-94837Y20285D01*
X-94807Y20278D01*
X-94715Y20286D01*
X-94622Y20287D01*
X-94585Y20298D01*
X-94562Y20299D01*
X-94533Y20313D01*
X-94461Y20333D01*
X-92898Y20978D01*
X-90105Y21723D01*
X-87239Y22097D01*
X-84348Y22094D01*
X-83329Y21958D01*
X-83329Y19387D01*
X-83405Y19402D01*
X-83439Y19402D01*
X-83484Y19412D01*
X-86542Y19539D01*
X-86575Y19534D01*
X-86622Y19536D01*
X-89660Y19171D01*
X-89692Y19160D01*
X-89739Y19155D01*
X-92679Y18307D01*
X-92709Y18291D01*
X-92754Y18279D01*
X-95520Y16970D01*
X-95543Y16953D01*
X-95570Y16943D01*
X-95622Y16894D01*
X-95679Y16851D01*
X-95693Y16826D01*
X-95714Y16807D01*
X-95743Y16741D01*
X-95779Y16679D01*
X-95783Y16651D01*
X-95794Y16624D01*
X-95795Y16553D01*
X-95804Y16482D01*
X-95796Y16454D01*
X-95797Y16426D01*
X-95762Y16331D01*
X-95750Y16290D01*
X-95743Y16282D01*
X-95739Y16270D01*
X-86239Y-230D01*
X-86187Y-289D01*
X-86141Y-351D01*
X-86122Y-363D01*
X-86107Y-379D01*
X-86037Y-413D01*
X-85970Y-453D01*
X-85946Y-457D01*
X-85928Y-465D01*
X-85883Y-467D01*
X-85806Y-481D01*
X-66806Y-481D01*
X-66778Y-475D01*
G37*
G36*
X132735Y197586D02*
X132735Y197586D01*
X132778Y197585D01*
X136771Y198185D01*
X136801Y198196D01*
X136844Y198202D01*
X140702Y199391D01*
X140730Y199406D01*
X140772Y199418D01*
X144410Y201169D01*
X144432Y201185D01*
X144457Y201195D01*
X144510Y201245D01*
X144569Y201289D01*
X144582Y201313D01*
X144602Y201331D01*
X144631Y201398D01*
X144668Y201462D01*
X144671Y201489D01*
X144682Y201513D01*
X144683Y201587D01*
X144691Y201659D01*
X144684Y201685D01*
X144684Y201712D01*
X144648Y201811D01*
X144636Y201850D01*
X144630Y201857D01*
X144626Y201868D01*
X117626Y248668D01*
X117608Y248689D01*
X117597Y248713D01*
X117543Y248763D01*
X117495Y248817D01*
X117470Y248829D01*
X117450Y248847D01*
X117381Y248872D01*
X117315Y248903D01*
X117288Y248904D01*
X117262Y248913D01*
X117189Y248909D01*
X117116Y248912D01*
X117091Y248903D01*
X117064Y248901D01*
X116968Y248857D01*
X116930Y248843D01*
X116923Y248836D01*
X116913Y248831D01*
X113576Y246558D01*
X113554Y246535D01*
X113517Y246511D01*
X110557Y243766D01*
X110538Y243740D01*
X110506Y243711D01*
X107988Y240555D01*
X107973Y240527D01*
X107946Y240494D01*
X105926Y236998D01*
X105915Y236968D01*
X105893Y236930D01*
X104417Y233172D01*
X104411Y233141D01*
X104395Y233101D01*
X103495Y229165D01*
X103494Y229133D01*
X103484Y229091D01*
X103181Y225065D01*
X103184Y225041D01*
X103181Y225022D01*
X103183Y225012D01*
X103181Y224990D01*
X103481Y220964D01*
X103490Y220933D01*
X103492Y220890D01*
X104390Y216953D01*
X104403Y216924D01*
X104412Y216882D01*
X105886Y213123D01*
X105903Y213096D01*
X105918Y213056D01*
X107936Y209558D01*
X107957Y209534D01*
X107978Y209497D01*
X110494Y206339D01*
X110518Y206319D01*
X110545Y206284D01*
X113504Y203537D01*
X113531Y203521D01*
X113562Y203491D01*
X116897Y201215D01*
X116927Y201203D01*
X116962Y201178D01*
X120599Y199425D01*
X120630Y199417D01*
X120669Y199397D01*
X124527Y198206D01*
X124558Y198203D01*
X124599Y198189D01*
X128592Y197586D01*
X128624Y197588D01*
X128666Y197581D01*
X132704Y197579D01*
X132735Y197586D01*
G37*
G36*
X-127079Y197581D02*
X-127079Y197581D01*
X-127047Y197587D01*
X-127004Y197586D01*
X-123012Y198189D01*
X-122982Y198200D01*
X-122939Y198206D01*
X-119081Y199397D01*
X-119053Y199413D01*
X-119012Y199425D01*
X-115375Y201178D01*
X-115349Y201197D01*
X-115310Y201215D01*
X-111975Y203491D01*
X-111952Y203513D01*
X-111916Y203537D01*
X-108957Y206284D01*
X-108939Y206310D01*
X-108907Y206339D01*
X-106390Y209497D01*
X-106376Y209525D01*
X-106348Y209558D01*
X-104330Y213056D01*
X-104320Y213086D01*
X-104298Y213123D01*
X-102824Y216882D01*
X-102819Y216913D01*
X-102802Y216953D01*
X-101905Y220890D01*
X-101904Y220922D01*
X-101894Y220964D01*
X-101593Y224990D01*
X-101597Y225022D01*
X-101596Y225038D01*
X-101593Y225055D01*
X-101594Y225059D01*
X-101593Y225065D01*
X-101896Y229091D01*
X-101905Y229122D01*
X-101908Y229165D01*
X-102807Y233101D01*
X-102820Y233130D01*
X-102829Y233172D01*
X-104306Y236930D01*
X-104323Y236957D01*
X-104338Y236998D01*
X-106358Y240494D01*
X-106379Y240518D01*
X-106400Y240555D01*
X-108919Y243711D01*
X-108943Y243732D01*
X-108969Y243766D01*
X-111930Y246511D01*
X-111957Y246528D01*
X-111988Y246558D01*
X-115325Y248831D01*
X-115350Y248842D01*
X-115371Y248859D01*
X-115441Y248880D01*
X-115508Y248908D01*
X-115536Y248908D01*
X-115562Y248916D01*
X-115634Y248908D01*
X-115707Y248908D01*
X-115732Y248897D01*
X-115759Y248894D01*
X-115823Y248858D01*
X-115890Y248829D01*
X-115909Y248810D01*
X-115933Y248796D01*
X-116000Y248715D01*
X-116028Y248686D01*
X-116031Y248677D01*
X-116039Y248668D01*
X-143039Y201868D01*
X-143047Y201842D01*
X-143063Y201820D01*
X-143079Y201749D01*
X-143102Y201680D01*
X-143100Y201652D01*
X-143105Y201626D01*
X-143092Y201554D01*
X-143086Y201481D01*
X-143074Y201457D01*
X-143069Y201431D01*
X-143028Y201370D01*
X-142995Y201305D01*
X-142974Y201288D01*
X-142959Y201265D01*
X-142873Y201204D01*
X-142841Y201178D01*
X-142832Y201176D01*
X-142823Y201169D01*
X-139184Y199418D01*
X-139153Y199410D01*
X-139115Y199391D01*
X-135256Y198202D01*
X-135224Y198199D01*
X-135183Y198185D01*
X-131191Y197585D01*
X-131159Y197587D01*
X-131116Y197579D01*
X-127079Y197581D01*
G37*
G36*
X117222Y51130D02*
X117222Y51130D01*
X117295Y51130D01*
X117320Y51141D01*
X117347Y51144D01*
X117411Y51179D01*
X117478Y51208D01*
X117496Y51228D01*
X117520Y51241D01*
X117587Y51322D01*
X117615Y51351D01*
X117619Y51360D01*
X117626Y51369D01*
X144626Y98169D01*
X144635Y98195D01*
X144651Y98217D01*
X144666Y98288D01*
X144689Y98358D01*
X144687Y98385D01*
X144693Y98412D01*
X144679Y98483D01*
X144674Y98556D01*
X144661Y98580D01*
X144656Y98607D01*
X144616Y98668D01*
X144582Y98733D01*
X144561Y98750D01*
X144546Y98773D01*
X144460Y98833D01*
X144429Y98859D01*
X144420Y98862D01*
X144410Y98869D01*
X140772Y100619D01*
X140741Y100627D01*
X140702Y100647D01*
X136844Y101835D01*
X136812Y101839D01*
X136771Y101852D01*
X132778Y102453D01*
X132746Y102451D01*
X132704Y102458D01*
X128666Y102457D01*
X128635Y102450D01*
X128592Y102451D01*
X124599Y101848D01*
X124569Y101837D01*
X124527Y101832D01*
X120669Y100640D01*
X120641Y100625D01*
X120599Y100613D01*
X116962Y98860D01*
X116937Y98841D01*
X116897Y98823D01*
X113562Y96547D01*
X113540Y96524D01*
X113504Y96500D01*
X110545Y93753D01*
X110526Y93727D01*
X110494Y93698D01*
X107978Y90541D01*
X107963Y90512D01*
X107936Y90479D01*
X105918Y86982D01*
X105908Y86952D01*
X105886Y86915D01*
X104412Y83156D01*
X104406Y83124D01*
X104390Y83084D01*
X103492Y79148D01*
X103492Y79116D01*
X103481Y79074D01*
X103181Y75047D01*
X103185Y75016D01*
X103181Y74973D01*
X103484Y70946D01*
X103493Y70916D01*
X103495Y70873D01*
X104395Y66936D01*
X104408Y66907D01*
X104417Y66865D01*
X105893Y63107D01*
X105911Y63080D01*
X105926Y63040D01*
X107946Y59544D01*
X107967Y59520D01*
X107988Y59482D01*
X110506Y56326D01*
X110530Y56306D01*
X110557Y56271D01*
X113517Y53526D01*
X113545Y53509D01*
X113576Y53480D01*
X116913Y51206D01*
X116938Y51196D01*
X116959Y51178D01*
X117029Y51157D01*
X117096Y51129D01*
X117123Y51129D01*
X117149Y51122D01*
X117222Y51130D01*
G37*
G36*
X-115602Y51129D02*
X-115602Y51129D01*
X-115529Y51126D01*
X-115503Y51135D01*
X-115476Y51137D01*
X-115381Y51181D01*
X-115343Y51195D01*
X-115336Y51201D01*
X-115325Y51206D01*
X-111988Y53480D01*
X-111966Y53502D01*
X-111930Y53526D01*
X-108969Y56271D01*
X-108951Y56297D01*
X-108919Y56326D01*
X-106400Y59482D01*
X-106386Y59510D01*
X-106358Y59544D01*
X-104338Y63040D01*
X-104328Y63070D01*
X-104306Y63107D01*
X-102829Y66865D01*
X-102824Y66897D01*
X-102807Y66936D01*
X-101908Y70873D01*
X-101907Y70904D01*
X-101896Y70946D01*
X-101593Y74973D01*
X-101597Y75004D01*
X-101593Y75047D01*
X-101894Y79074D01*
X-101902Y79104D01*
X-101905Y79148D01*
X-102802Y83084D01*
X-102815Y83113D01*
X-102824Y83156D01*
X-104298Y86915D01*
X-104315Y86941D01*
X-104330Y86982D01*
X-106348Y90479D01*
X-106369Y90503D01*
X-106390Y90541D01*
X-108907Y93698D01*
X-108931Y93719D01*
X-108957Y93753D01*
X-111916Y96500D01*
X-111943Y96517D01*
X-111975Y96547D01*
X-115310Y98823D01*
X-115339Y98835D01*
X-115375Y98860D01*
X-119012Y100613D01*
X-119043Y100621D01*
X-119081Y100640D01*
X-122939Y101832D01*
X-122971Y101835D01*
X-123012Y101848D01*
X-127004Y102451D01*
X-127036Y102450D01*
X-127079Y102457D01*
X-131116Y102458D01*
X-131148Y102452D01*
X-131191Y102453D01*
X-135183Y101852D01*
X-135213Y101841D01*
X-135256Y101835D01*
X-139115Y100647D01*
X-139143Y100631D01*
X-139184Y100619D01*
X-142823Y98869D01*
X-142844Y98852D01*
X-142870Y98843D01*
X-142923Y98793D01*
X-142981Y98748D01*
X-142995Y98725D01*
X-143014Y98706D01*
X-143044Y98639D01*
X-143080Y98576D01*
X-143083Y98549D01*
X-143094Y98524D01*
X-143095Y98451D01*
X-143104Y98379D01*
X-143096Y98352D01*
X-143097Y98325D01*
X-143060Y98227D01*
X-143049Y98188D01*
X-143043Y98180D01*
X-143039Y98169D01*
X-116039Y51369D01*
X-116021Y51349D01*
X-116009Y51324D01*
X-115955Y51275D01*
X-115907Y51220D01*
X-115882Y51209D01*
X-115862Y51190D01*
X-115794Y51166D01*
X-115728Y51134D01*
X-115700Y51133D01*
X-115675Y51124D01*
X-115602Y51129D01*
G37*
G36*
X27820Y-475D02*
X27820Y-475D01*
X27848Y-478D01*
X27917Y-455D01*
X27989Y-441D01*
X28011Y-426D01*
X28037Y-417D01*
X28092Y-370D01*
X28153Y-328D01*
X28167Y-305D01*
X28188Y-288D01*
X28220Y-222D01*
X28260Y-161D01*
X28264Y-134D01*
X28276Y-110D01*
X28286Y-5D01*
X28293Y35D01*
X28291Y45D01*
X28292Y56D01*
X27990Y4080D01*
X27981Y4111D01*
X27979Y4154D01*
X27081Y8088D01*
X27068Y8117D01*
X27059Y8160D01*
X25585Y11916D01*
X25567Y11943D01*
X25552Y11983D01*
X23535Y15478D01*
X23513Y15502D01*
X23493Y15540D01*
X20977Y18695D01*
X20952Y18715D01*
X20926Y18749D01*
X17968Y21494D01*
X17940Y21511D01*
X17909Y21541D01*
X14575Y23814D01*
X14546Y23826D01*
X14510Y23851D01*
X10875Y25602D01*
X10844Y25610D01*
X10805Y25629D01*
X6949Y26819D01*
X6917Y26822D01*
X6876Y26836D01*
X2886Y27437D01*
X2854Y27435D01*
X2811Y27443D01*
X-1224Y27443D01*
X-1255Y27436D01*
X-1298Y27437D01*
X-5289Y26836D01*
X-5319Y26825D01*
X-5361Y26819D01*
X-9218Y25629D01*
X-9246Y25614D01*
X-9287Y25602D01*
X-12923Y23851D01*
X-12948Y23832D01*
X-12988Y23814D01*
X-16322Y21541D01*
X-16344Y21518D01*
X-16380Y21494D01*
X-19338Y18749D01*
X-19357Y18724D01*
X-19389Y18695D01*
X-21905Y15540D01*
X-21920Y15511D01*
X-21947Y15478D01*
X-23965Y11983D01*
X-23975Y11953D01*
X-23997Y11916D01*
X-25471Y8160D01*
X-25477Y8128D01*
X-25493Y8088D01*
X-26391Y4154D01*
X-26392Y4122D01*
X-26403Y4080D01*
X-26704Y56D01*
X-26701Y29D01*
X-26705Y2D01*
X-26688Y-69D01*
X-26679Y-141D01*
X-26665Y-165D01*
X-26659Y-191D01*
X-26616Y-250D01*
X-26579Y-313D01*
X-26557Y-329D01*
X-26541Y-351D01*
X-26479Y-389D01*
X-26420Y-432D01*
X-26394Y-439D01*
X-26370Y-453D01*
X-26267Y-470D01*
X-26227Y-480D01*
X-26218Y-479D01*
X-26206Y-481D01*
X27794Y-481D01*
X27820Y-475D01*
G37*
%LPC*%
G36*
X32531Y58563D02*
X32531Y58563D01*
X31638Y59456D01*
X31638Y70719D01*
X32531Y71612D01*
X35361Y71612D01*
X35380Y71615D01*
X35400Y71613D01*
X35501Y71635D01*
X35603Y71652D01*
X35621Y71661D01*
X35640Y71666D01*
X35729Y71719D01*
X35821Y71767D01*
X35834Y71781D01*
X35851Y71792D01*
X35919Y71870D01*
X35990Y71945D01*
X35998Y71963D01*
X36011Y71979D01*
X36050Y72075D01*
X36094Y72168D01*
X36096Y72188D01*
X36103Y72207D01*
X36122Y72373D01*
X36122Y84959D01*
X92799Y141636D01*
X92811Y141652D01*
X92826Y141664D01*
X92882Y141752D01*
X92942Y141836D01*
X92948Y141855D01*
X92959Y141871D01*
X92984Y141972D01*
X93015Y142071D01*
X93014Y142091D01*
X93019Y142110D01*
X93011Y142213D01*
X93008Y142316D01*
X93002Y142335D01*
X93000Y142355D01*
X92960Y142450D01*
X92924Y142547D01*
X92911Y142563D01*
X92904Y142581D01*
X92799Y142712D01*
X92455Y143056D01*
X92455Y150632D01*
X97812Y155988D01*
X105388Y155988D01*
X110745Y150632D01*
X110745Y143056D01*
X105388Y137699D01*
X97812Y137699D01*
X97469Y138043D01*
X97452Y138054D01*
X97440Y138070D01*
X97353Y138126D01*
X97269Y138186D01*
X97250Y138192D01*
X97233Y138203D01*
X97133Y138228D01*
X97034Y138259D01*
X97014Y138258D01*
X96995Y138263D01*
X96892Y138255D01*
X96788Y138252D01*
X96769Y138245D01*
X96749Y138244D01*
X96654Y138203D01*
X96557Y138168D01*
X96541Y138155D01*
X96523Y138147D01*
X96392Y138043D01*
X41426Y83077D01*
X41373Y83003D01*
X41314Y82933D01*
X41301Y82903D01*
X41283Y82877D01*
X41256Y82790D01*
X41222Y82705D01*
X41217Y82664D01*
X41210Y82642D01*
X41211Y82610D01*
X41203Y82539D01*
X41203Y72373D01*
X41206Y72354D01*
X41204Y72334D01*
X41226Y72233D01*
X41243Y72131D01*
X41252Y72113D01*
X41257Y72094D01*
X41310Y72005D01*
X41358Y71913D01*
X41372Y71900D01*
X41383Y71883D01*
X41461Y71815D01*
X41536Y71744D01*
X41554Y71736D01*
X41570Y71723D01*
X41666Y71684D01*
X41759Y71640D01*
X41779Y71638D01*
X41798Y71631D01*
X41964Y71612D01*
X44794Y71612D01*
X45537Y70869D01*
X45611Y70816D01*
X45681Y70756D01*
X45711Y70744D01*
X45737Y70725D01*
X45824Y70699D01*
X45909Y70664D01*
X45950Y70660D01*
X45972Y70653D01*
X46004Y70654D01*
X46076Y70646D01*
X47162Y70646D01*
X49978Y67830D01*
X49978Y63848D01*
X47162Y61033D01*
X46448Y61033D01*
X46429Y61029D01*
X46409Y61031D01*
X46308Y61009D01*
X46206Y60993D01*
X46188Y60983D01*
X46169Y60979D01*
X46080Y60926D01*
X45988Y60878D01*
X45975Y60863D01*
X45958Y60853D01*
X45890Y60774D01*
X45819Y60699D01*
X45811Y60681D01*
X45798Y60666D01*
X45759Y60570D01*
X45715Y60476D01*
X45713Y60457D01*
X45706Y60438D01*
X45687Y60271D01*
X45687Y59456D01*
X44794Y58563D01*
X32531Y58563D01*
G37*
%LPD*%
%LPC*%
G36*
X43445Y30817D02*
X43445Y30817D01*
X41391Y31668D01*
X16495Y56564D01*
X15821Y58191D01*
X15786Y58247D01*
X15761Y58307D01*
X15709Y58372D01*
X15691Y58400D01*
X15676Y58412D01*
X15656Y58438D01*
X14638Y59456D01*
X14638Y70719D01*
X15531Y71612D01*
X27794Y71612D01*
X28687Y70719D01*
X28687Y60494D01*
X28702Y60404D01*
X28709Y60313D01*
X28722Y60283D01*
X28727Y60252D01*
X28770Y60171D01*
X28805Y60087D01*
X28831Y60055D01*
X28842Y60034D01*
X28865Y60012D01*
X28910Y59956D01*
X46648Y42218D01*
X46722Y42165D01*
X46792Y42105D01*
X46822Y42093D01*
X46848Y42074D01*
X46935Y42047D01*
X47020Y42013D01*
X47061Y42009D01*
X47083Y42002D01*
X47115Y42003D01*
X47187Y41995D01*
X52507Y41995D01*
X53048Y41771D01*
X53111Y41756D01*
X53172Y41731D01*
X53255Y41722D01*
X53287Y41715D01*
X53306Y41716D01*
X53339Y41713D01*
X53593Y41713D01*
X53773Y41533D01*
X53826Y41495D01*
X53873Y41449D01*
X53946Y41409D01*
X53973Y41389D01*
X53991Y41384D01*
X54020Y41368D01*
X54561Y41144D01*
X56133Y39572D01*
X56357Y39031D01*
X56392Y38975D01*
X56417Y38915D01*
X56464Y38856D01*
X56480Y38830D01*
X56483Y38827D01*
X56487Y38822D01*
X56502Y38809D01*
X56522Y38784D01*
X56702Y38604D01*
X56702Y38350D01*
X56712Y38285D01*
X56713Y38220D01*
X56736Y38140D01*
X56742Y38107D01*
X56751Y38090D01*
X56760Y38059D01*
X56984Y37518D01*
X56984Y35294D01*
X56760Y34753D01*
X56745Y34690D01*
X56720Y34629D01*
X56711Y34546D01*
X56704Y34514D01*
X56705Y34495D01*
X56702Y34462D01*
X56702Y34208D01*
X56522Y34028D01*
X56484Y33975D01*
X56438Y33928D01*
X56398Y33855D01*
X56379Y33828D01*
X56373Y33810D01*
X56357Y33781D01*
X56133Y33240D01*
X54561Y31668D01*
X54020Y31444D01*
X53964Y31409D01*
X53904Y31384D01*
X53839Y31332D01*
X53811Y31314D01*
X53798Y31299D01*
X53773Y31279D01*
X53593Y31099D01*
X53339Y31099D01*
X53274Y31089D01*
X53209Y31088D01*
X53129Y31065D01*
X53096Y31060D01*
X53079Y31050D01*
X53048Y31041D01*
X52507Y30817D01*
X43445Y30817D01*
G37*
%LPD*%
%LPC*%
G36*
X-99450Y137699D02*
X-99450Y137699D01*
X-102811Y139091D01*
X-105384Y141664D01*
X-106776Y145025D01*
X-106776Y148663D01*
X-105384Y152024D01*
X-102811Y154596D01*
X-100896Y155390D01*
X-100796Y155452D01*
X-100696Y155511D01*
X-100692Y155516D01*
X-100687Y155519D01*
X-100612Y155610D01*
X-100536Y155698D01*
X-100534Y155704D01*
X-100530Y155709D01*
X-100488Y155817D01*
X-100444Y155926D01*
X-100444Y155934D01*
X-100442Y155938D01*
X-100441Y155957D01*
X-100426Y156093D01*
X-100426Y162995D01*
X-100445Y163109D01*
X-100462Y163225D01*
X-100465Y163231D01*
X-100466Y163237D01*
X-100520Y163340D01*
X-100573Y163445D01*
X-100578Y163449D01*
X-100581Y163455D01*
X-100665Y163535D01*
X-100749Y163617D01*
X-100756Y163621D01*
X-100759Y163624D01*
X-100776Y163632D01*
X-100896Y163698D01*
X-102811Y164491D01*
X-105384Y167064D01*
X-106776Y170425D01*
X-106776Y174063D01*
X-105384Y177424D01*
X-102811Y179996D01*
X-99450Y181388D01*
X-95812Y181388D01*
X-92451Y179996D01*
X-89879Y177424D01*
X-88487Y174063D01*
X-88487Y170425D01*
X-89879Y167064D01*
X-92451Y164491D01*
X-94367Y163698D01*
X-94466Y163636D01*
X-94566Y163576D01*
X-94570Y163572D01*
X-94576Y163568D01*
X-94651Y163478D01*
X-94726Y163389D01*
X-94728Y163384D01*
X-94732Y163379D01*
X-94774Y163270D01*
X-94818Y163161D01*
X-94819Y163154D01*
X-94821Y163149D01*
X-94821Y163131D01*
X-94837Y162995D01*
X-94837Y156093D01*
X-94818Y155978D01*
X-94801Y155862D01*
X-94798Y155856D01*
X-94797Y155850D01*
X-94742Y155748D01*
X-94689Y155643D01*
X-94685Y155638D01*
X-94682Y155633D01*
X-94598Y155553D01*
X-94514Y155471D01*
X-94507Y155467D01*
X-94503Y155463D01*
X-94487Y155456D01*
X-94367Y155390D01*
X-92451Y154596D01*
X-89879Y152024D01*
X-88487Y148663D01*
X-88487Y145025D01*
X-89879Y141664D01*
X-92451Y139091D01*
X-95812Y137699D01*
X-99450Y137699D01*
G37*
%LPD*%
%LPC*%
G36*
X-45562Y41255D02*
X-45562Y41255D01*
X-47616Y42106D01*
X-50419Y44909D01*
X-51270Y46964D01*
X-51270Y59055D01*
X-51264Y59070D01*
X-51249Y59134D01*
X-51224Y59195D01*
X-51215Y59277D01*
X-51208Y59309D01*
X-51210Y59329D01*
X-51206Y59361D01*
X-51206Y62575D01*
X-50313Y63468D01*
X-47099Y63468D01*
X-47034Y63479D01*
X-46969Y63480D01*
X-46889Y63503D01*
X-46856Y63508D01*
X-46839Y63517D01*
X-46808Y63526D01*
X-46793Y63532D01*
X-27237Y63532D01*
X-27146Y63547D01*
X-27056Y63554D01*
X-27026Y63567D01*
X-26994Y63572D01*
X-26913Y63615D01*
X-26829Y63651D01*
X-26797Y63676D01*
X-26776Y63687D01*
X-26754Y63711D01*
X-26698Y63755D01*
X-23803Y66650D01*
X-21749Y67501D01*
X-19526Y67501D01*
X-17472Y66650D01*
X-15900Y65078D01*
X-15049Y63024D01*
X-15049Y60801D01*
X-15900Y58747D01*
X-21440Y53206D01*
X-23495Y52355D01*
X-39331Y52355D01*
X-39351Y52352D01*
X-39371Y52354D01*
X-39472Y52332D01*
X-39574Y52315D01*
X-39592Y52306D01*
X-39611Y52302D01*
X-39700Y52249D01*
X-39791Y52200D01*
X-39805Y52186D01*
X-39822Y52176D01*
X-39890Y52097D01*
X-39961Y52022D01*
X-39969Y52004D01*
X-39982Y51989D01*
X-40021Y51892D01*
X-40064Y51799D01*
X-40067Y51779D01*
X-40074Y51760D01*
X-40093Y51594D01*
X-40093Y50706D01*
X-40078Y50615D01*
X-40071Y50525D01*
X-40058Y50495D01*
X-40053Y50463D01*
X-40010Y50382D01*
X-39974Y50298D01*
X-39949Y50266D01*
X-39938Y50245D01*
X-39914Y50223D01*
X-39870Y50167D01*
X-39712Y50010D01*
X-38861Y47956D01*
X-38861Y45732D01*
X-39712Y43678D01*
X-41284Y42106D01*
X-43338Y41255D01*
X-45562Y41255D01*
G37*
%LPD*%
G36*
X14395Y271633D02*
X14395Y271633D01*
X14432Y271630D01*
X14480Y271648D01*
X14530Y271657D01*
X14565Y271680D01*
X14594Y271691D01*
X14615Y271714D01*
X14650Y271738D01*
X15250Y272337D01*
X21513Y272337D01*
X21956Y271894D01*
X21978Y271880D01*
X21994Y271860D01*
X22051Y271835D01*
X22103Y271803D01*
X22129Y271800D01*
X22153Y271790D01*
X22214Y271792D01*
X22276Y271786D01*
X22300Y271795D01*
X22326Y271796D01*
X22380Y271826D01*
X22438Y271848D01*
X22455Y271867D01*
X22478Y271879D01*
X22513Y271929D01*
X22555Y271975D01*
X22563Y271999D01*
X22578Y272021D01*
X22594Y272105D01*
X22605Y272141D01*
X22603Y272151D01*
X22605Y272163D01*
X22605Y283775D01*
X22588Y283849D01*
X22575Y283923D01*
X22568Y283934D01*
X22566Y283943D01*
X22542Y283972D01*
X22494Y284044D01*
X22357Y284181D01*
X22357Y295444D01*
X22494Y295581D01*
X22534Y295646D01*
X22578Y295708D01*
X22580Y295720D01*
X22585Y295729D01*
X22589Y295766D01*
X22605Y295850D01*
X22605Y296863D01*
X22594Y296912D01*
X22592Y296963D01*
X22574Y296995D01*
X22566Y297031D01*
X22533Y297071D01*
X22509Y297115D01*
X22479Y297137D01*
X22456Y297165D01*
X22409Y297186D01*
X22367Y297215D01*
X22325Y297223D01*
X22297Y297236D01*
X22267Y297235D01*
X22225Y297243D01*
X7938Y297243D01*
X7888Y297231D01*
X7837Y297229D01*
X7805Y297212D01*
X7769Y297203D01*
X7729Y297171D01*
X7685Y297146D01*
X7664Y297116D01*
X7635Y297093D01*
X7614Y297046D01*
X7585Y297005D01*
X7577Y296963D01*
X7564Y296935D01*
X7565Y296904D01*
X7557Y296863D01*
X7557Y272717D01*
X7569Y272668D01*
X7571Y272617D01*
X7588Y272585D01*
X7597Y272549D01*
X7629Y272509D01*
X7654Y272465D01*
X7684Y272443D01*
X7707Y272415D01*
X7754Y272394D01*
X7795Y272365D01*
X7837Y272357D01*
X7865Y272344D01*
X7896Y272345D01*
X7938Y272337D01*
X13513Y272337D01*
X14112Y271738D01*
X14156Y271711D01*
X14193Y271676D01*
X14228Y271666D01*
X14260Y271646D01*
X14310Y271641D01*
X14359Y271627D01*
X14395Y271633D01*
G37*
%LPC*%
G36*
X121892Y161099D02*
X121892Y161099D01*
X121351Y161323D01*
X121287Y161338D01*
X121226Y161362D01*
X121143Y161371D01*
X121111Y161379D01*
X121092Y161377D01*
X121059Y161381D01*
X120805Y161381D01*
X120625Y161561D01*
X120572Y161599D01*
X120525Y161645D01*
X120452Y161685D01*
X120426Y161704D01*
X120407Y161710D01*
X120378Y161726D01*
X119837Y161950D01*
X112974Y168813D01*
X112900Y168866D01*
X112830Y168926D01*
X112800Y168938D01*
X112774Y168957D01*
X112687Y168984D01*
X112602Y169018D01*
X112561Y169022D01*
X112539Y169029D01*
X112507Y169028D01*
X112435Y169036D01*
X103579Y169036D01*
X103038Y169260D01*
X102975Y169275D01*
X102914Y169300D01*
X102831Y169309D01*
X102799Y169316D01*
X102780Y169315D01*
X102747Y169318D01*
X102493Y169318D01*
X102313Y169498D01*
X102260Y169536D01*
X102213Y169582D01*
X102140Y169622D01*
X102113Y169642D01*
X102095Y169647D01*
X102066Y169663D01*
X101525Y169887D01*
X99953Y171459D01*
X99729Y172000D01*
X99694Y172056D01*
X99669Y172116D01*
X99617Y172181D01*
X99599Y172209D01*
X99584Y172222D01*
X99564Y172247D01*
X99384Y172427D01*
X99384Y172681D01*
X99374Y172746D01*
X99373Y172811D01*
X99350Y172891D01*
X99344Y172924D01*
X99335Y172941D01*
X99326Y172972D01*
X99102Y173513D01*
X99102Y175737D01*
X99326Y176278D01*
X99341Y176341D01*
X99366Y176402D01*
X99375Y176485D01*
X99382Y176517D01*
X99381Y176536D01*
X99384Y176569D01*
X99384Y176823D01*
X99564Y177003D01*
X99602Y177056D01*
X99648Y177103D01*
X99688Y177176D01*
X99707Y177203D01*
X99713Y177221D01*
X99729Y177250D01*
X99953Y177791D01*
X101525Y179363D01*
X102066Y179587D01*
X102122Y179622D01*
X102182Y179647D01*
X102247Y179699D01*
X102275Y179717D01*
X102288Y179732D01*
X102313Y179752D01*
X102493Y179932D01*
X102747Y179932D01*
X102812Y179942D01*
X102877Y179943D01*
X102957Y179966D01*
X102990Y179971D01*
X103007Y179981D01*
X103038Y179990D01*
X103579Y180214D01*
X116177Y180214D01*
X118232Y179363D01*
X127741Y169853D01*
X127965Y169312D01*
X128000Y169257D01*
X128025Y169196D01*
X128077Y169131D01*
X128095Y169103D01*
X128110Y169091D01*
X128130Y169065D01*
X128310Y168886D01*
X128310Y168631D01*
X128321Y168567D01*
X128321Y168501D01*
X128344Y168421D01*
X128350Y168389D01*
X128359Y168372D01*
X128368Y168340D01*
X128592Y167799D01*
X128592Y165576D01*
X128368Y165035D01*
X128353Y164971D01*
X128328Y164910D01*
X128319Y164827D01*
X128312Y164795D01*
X128314Y164776D01*
X128310Y164744D01*
X128310Y164489D01*
X128130Y164310D01*
X128092Y164256D01*
X128046Y164210D01*
X128006Y164137D01*
X127987Y164110D01*
X127981Y164091D01*
X127965Y164063D01*
X127741Y163522D01*
X126169Y161950D01*
X125628Y161726D01*
X125572Y161691D01*
X125512Y161665D01*
X125447Y161613D01*
X125419Y161596D01*
X125407Y161581D01*
X125381Y161561D01*
X125201Y161381D01*
X124947Y161381D01*
X124883Y161370D01*
X124817Y161370D01*
X124737Y161346D01*
X124704Y161341D01*
X124687Y161332D01*
X124656Y161323D01*
X124115Y161099D01*
X121892Y161099D01*
G37*
%LPD*%
%LPC*%
G36*
X-21749Y100774D02*
X-21749Y100774D01*
X-23803Y101625D01*
X-35940Y113761D01*
X-36790Y115815D01*
X-36790Y123349D01*
X-35940Y125403D01*
X-34368Y126975D01*
X-32313Y127826D01*
X-30090Y127826D01*
X-28036Y126975D01*
X-26464Y125403D01*
X-25613Y123349D01*
X-25613Y119557D01*
X-25598Y119467D01*
X-25591Y119376D01*
X-25579Y119346D01*
X-25573Y119314D01*
X-25531Y119233D01*
X-25495Y119150D01*
X-25469Y119118D01*
X-25458Y119097D01*
X-25435Y119075D01*
X-25390Y119019D01*
X-15900Y109528D01*
X-15049Y107474D01*
X-15049Y105251D01*
X-15900Y103197D01*
X-17472Y101625D01*
X-19526Y100774D01*
X-21749Y100774D01*
G37*
%LPD*%
%LPC*%
G36*
X-61097Y158264D02*
X-61097Y158264D01*
X-61638Y158488D01*
X-61701Y158503D01*
X-61762Y158527D01*
X-61845Y158536D01*
X-61877Y158544D01*
X-61896Y158542D01*
X-61929Y158546D01*
X-62183Y158546D01*
X-62363Y158725D01*
X-62416Y158764D01*
X-62463Y158810D01*
X-62536Y158850D01*
X-62563Y158869D01*
X-62581Y158875D01*
X-62610Y158891D01*
X-63151Y159115D01*
X-64723Y160687D01*
X-64947Y161228D01*
X-64982Y161283D01*
X-65007Y161344D01*
X-65059Y161409D01*
X-65077Y161437D01*
X-65092Y161449D01*
X-65112Y161475D01*
X-65292Y161654D01*
X-65292Y161909D01*
X-65293Y161917D01*
X-65293Y161921D01*
X-65297Y161941D01*
X-65302Y161973D01*
X-65303Y162039D01*
X-65326Y162119D01*
X-65332Y162151D01*
X-65341Y162168D01*
X-65350Y162200D01*
X-65574Y162741D01*
X-65574Y164964D01*
X-65350Y165505D01*
X-65335Y165569D01*
X-65310Y165630D01*
X-65301Y165713D01*
X-65294Y165745D01*
X-65295Y165764D01*
X-65292Y165796D01*
X-65292Y166051D01*
X-65112Y166230D01*
X-65074Y166283D01*
X-65028Y166330D01*
X-64988Y166403D01*
X-64968Y166430D01*
X-64963Y166449D01*
X-64947Y166477D01*
X-64723Y167018D01*
X-55108Y176633D01*
X-55055Y176707D01*
X-54996Y176776D01*
X-54984Y176806D01*
X-54965Y176833D01*
X-54938Y176920D01*
X-54904Y177004D01*
X-54899Y177045D01*
X-54892Y177068D01*
X-54893Y177100D01*
X-54885Y177171D01*
X-54885Y178912D01*
X-54661Y179453D01*
X-54646Y179516D01*
X-54622Y179577D01*
X-54613Y179660D01*
X-54605Y179692D01*
X-54607Y179711D01*
X-54603Y179744D01*
X-54603Y179998D01*
X-54424Y180178D01*
X-54385Y180231D01*
X-54339Y180278D01*
X-54299Y180351D01*
X-54280Y180378D01*
X-54274Y180396D01*
X-54259Y180425D01*
X-54034Y180966D01*
X-52462Y182538D01*
X-51921Y182762D01*
X-51866Y182797D01*
X-51805Y182822D01*
X-51740Y182874D01*
X-51712Y182892D01*
X-51700Y182907D01*
X-51674Y182927D01*
X-51495Y183107D01*
X-51240Y183107D01*
X-51176Y183117D01*
X-51110Y183118D01*
X-51030Y183141D01*
X-50998Y183146D01*
X-50981Y183156D01*
X-50949Y183165D01*
X-50408Y183389D01*
X-48185Y183389D01*
X-47644Y183165D01*
X-47580Y183150D01*
X-47519Y183125D01*
X-47437Y183116D01*
X-47404Y183109D01*
X-47385Y183110D01*
X-47353Y183107D01*
X-47098Y183107D01*
X-46919Y182927D01*
X-46866Y182889D01*
X-46819Y182843D01*
X-46746Y182803D01*
X-46719Y182783D01*
X-46700Y182778D01*
X-46672Y182762D01*
X-46131Y182538D01*
X-44559Y180966D01*
X-44335Y180425D01*
X-44300Y180369D01*
X-44274Y180309D01*
X-44222Y180244D01*
X-44205Y180216D01*
X-44190Y180203D01*
X-44170Y180178D01*
X-43990Y179998D01*
X-43990Y179744D01*
X-43979Y179679D01*
X-43979Y179614D01*
X-43955Y179534D01*
X-43950Y179501D01*
X-43941Y179484D01*
X-43932Y179453D01*
X-43708Y178912D01*
X-43708Y173429D01*
X-44559Y171375D01*
X-56819Y159115D01*
X-57360Y158891D01*
X-57416Y158856D01*
X-57476Y158830D01*
X-57541Y158778D01*
X-57569Y158761D01*
X-57582Y158746D01*
X-57607Y158725D01*
X-57787Y158546D01*
X-58041Y158546D01*
X-58106Y158535D01*
X-58171Y158535D01*
X-58251Y158511D01*
X-58284Y158506D01*
X-58301Y158497D01*
X-58332Y158488D01*
X-58873Y158264D01*
X-61097Y158264D01*
G37*
%LPD*%
%LPC*%
G36*
X-99450Y112299D02*
X-99450Y112299D01*
X-102811Y113691D01*
X-105384Y116264D01*
X-106776Y119625D01*
X-106776Y123263D01*
X-105384Y126624D01*
X-102811Y129196D01*
X-99450Y130588D01*
X-95812Y130588D01*
X-92451Y129196D01*
X-89879Y126624D01*
X-88487Y123263D01*
X-88487Y119625D01*
X-89879Y116264D01*
X-92451Y113691D01*
X-95812Y112299D01*
X-99450Y112299D01*
G37*
%LPD*%
%LPC*%
G36*
X-65313Y52419D02*
X-65313Y52419D01*
X-66206Y53312D01*
X-66206Y62575D01*
X-65313Y63468D01*
X-63270Y63468D01*
X-63180Y63483D01*
X-63089Y63490D01*
X-63059Y63503D01*
X-63027Y63508D01*
X-62959Y63544D01*
X-58832Y63544D01*
X-58757Y63521D01*
X-58672Y63487D01*
X-58631Y63482D01*
X-58609Y63476D01*
X-58577Y63476D01*
X-58505Y63468D01*
X-56050Y63468D01*
X-55157Y62575D01*
X-55157Y53312D01*
X-56050Y52419D01*
X-65313Y52419D01*
G37*
%LPD*%
%LPC*%
G36*
X-68255Y8442D02*
X-68255Y8442D01*
X-68514Y9052D01*
X-68533Y9080D01*
X-68551Y9124D01*
X-70184Y11712D01*
X-70207Y11736D01*
X-70232Y11776D01*
X-72258Y14069D01*
X-72285Y14089D01*
X-72316Y14124D01*
X-74684Y16062D01*
X-74714Y16078D01*
X-74750Y16108D01*
X-77398Y17641D01*
X-77430Y17652D01*
X-77470Y17676D01*
X-80283Y18746D01*
X-80283Y21390D01*
X-78690Y20961D01*
X-76045Y19862D01*
X-76020Y19852D01*
X-73529Y18409D01*
X-73518Y18403D01*
X-71227Y16641D01*
X-69185Y14594D01*
X-67428Y12298D01*
X-65986Y9793D01*
X-65428Y8442D01*
X-68255Y8442D01*
G37*
%LPD*%
%LPC*%
G36*
X67016Y8442D02*
X67016Y8442D01*
X67573Y9793D01*
X68523Y11443D01*
X69016Y12298D01*
X70236Y13892D01*
X70773Y14594D01*
X72815Y16640D01*
X75106Y18403D01*
X77608Y19852D01*
X80278Y20961D01*
X81871Y21390D01*
X81871Y18746D01*
X79058Y17676D01*
X79029Y17658D01*
X78985Y17641D01*
X76337Y16108D01*
X76312Y16086D01*
X76271Y16062D01*
X73903Y14124D01*
X73882Y14098D01*
X73846Y14069D01*
X71819Y11776D01*
X71802Y11747D01*
X71771Y11712D01*
X70139Y9124D01*
X70127Y9092D01*
X70101Y9052D01*
X69842Y8442D01*
X67016Y8442D01*
G37*
%LPD*%
D10*
X-60681Y57944D03*
X-45681Y57944D03*
D11*
X101600Y146844D03*
D12*
X38663Y65088D03*
X21663Y65088D03*
D13*
X-97631Y172244D03*
X-97631Y146844D03*
X-97631Y121444D03*
D14*
X165994Y150019D03*
X83394Y6919D03*
X-81806Y6919D03*
X-164406Y150019D03*
X124694Y221519D03*
X124694Y78519D03*
X794Y6919D03*
X-123106Y78519D03*
X-123106Y221519D03*
D15*
X-21619Y265813D03*
X-13619Y265813D03*
X-5619Y265813D03*
X2381Y265813D03*
X10381Y265813D03*
X18381Y265813D03*
X26381Y265813D03*
X26381Y289813D03*
X18381Y289813D03*
X10381Y289813D03*
X2381Y289813D03*
X-5619Y289813D03*
X-13619Y289813D03*
X-21619Y289813D03*
D16*
X2381Y265813D02*
X2381Y253206D01*
X4994Y250594D02*
X24606Y250594D01*
D17*
X24606Y250594D03*
D16*
X4994Y250594D02*
X2381Y253206D01*
D17*
X-15280Y276119D03*
D16*
X-5467Y289661D02*
X-5619Y289813D01*
X-5467Y289661D02*
X-5467Y284344D01*
X-13692Y276119D01*
X-15280Y276119D01*
D17*
X51395Y36406D03*
X21233Y64981D03*
D18*
X44557Y36406D02*
X51395Y36406D01*
X21233Y59730D02*
X21233Y64981D01*
X21233Y59730D02*
X44557Y36406D01*
D19*
X-31202Y122238D03*
X-20638Y106363D03*
D18*
X-31202Y116927D01*
X-31202Y122238D01*
X-24606Y57944D02*
X-45681Y57944D01*
X-24606Y57944D02*
X-20638Y61913D01*
D19*
X-20638Y61913D03*
D18*
X-45681Y57944D02*
X-45681Y48075D01*
X-44450Y46844D01*
D19*
X-44450Y46844D03*
D17*
X123003Y166688D03*
D18*
X115066Y174625D01*
X104691Y174625D01*
D17*
X104691Y174625D03*
X-49297Y177800D03*
D18*
X-49297Y174541D01*
X-59985Y163852D01*
D17*
X-59985Y163852D03*
D20*
X21663Y65088D02*
X21556Y64981D01*
X21233Y64981D01*
D17*
X-68263Y242888D03*
X80963Y228600D03*
X47625Y168275D03*
D18*
X69850Y20463D02*
X83394Y6919D01*
X69850Y20463D02*
X69850Y30163D01*
X68263Y30163D01*
X165994Y150019D02*
X165200Y150813D01*
X139700Y150813D01*
X-134144Y150019D02*
X-164406Y150019D01*
X-134144Y150019D02*
X-133350Y150813D01*
X-81806Y46781D02*
X-81806Y6919D01*
X-81806Y46781D02*
X-80963Y47625D01*
D17*
X703Y207963D03*
D19*
X-15550Y28389D03*
D20*
X-15550Y23263D01*
X794Y6919D01*
X-96328Y221519D02*
X-123106Y221519D01*
X-96328Y221519D02*
X-96069Y221778D01*
D19*
X-96069Y221778D03*
X97732Y67567D03*
D20*
X113742Y67567D01*
X124694Y78519D01*
D19*
X112600Y196740D03*
D20*
X124694Y208834D01*
X124694Y221519D01*
D19*
X-60888Y58738D03*
D21*
X-60681Y58531D01*
X-60681Y57944D01*
D20*
X38663Y65088D02*
X38663Y83906D01*
X101600Y146844D01*
D19*
X45171Y65839D03*
D20*
X44420Y65088D01*
X38663Y65088D01*
D21*
X-97631Y146844D02*
X-97631Y172244D01*
D20*
X-13619Y145613D02*
X-13619Y265813D01*
X-13619Y145613D02*
X-794Y132788D01*
D19*
X-794Y132788D03*
X14288Y132788D03*
D20*
X-5619Y152694D01*
X-5619Y265813D01*
D19*
X29369Y132788D03*
D20*
X21994Y125413D01*
X-6350Y125413D01*
X-28575Y147638D01*
X-28575Y271764D01*
X-13619Y286720D01*
X-13619Y289813D01*
D19*
X-95383Y77690D03*
D20*
X-122278Y77690D01*
X-123106Y78519D01*
D16*
X2381Y281013D02*
X2381Y289813D01*
X2381Y281013D02*
X-819Y277813D01*
D17*
X-819Y277813D03*
X16694Y277813D03*
D20*
X18381Y289813D02*
X10381Y289813D01*
X18381Y289813D02*
X18381Y279500D01*
X16694Y277813D01*
M02*
