G04 EAGLE Gerber RS-274X export*
G75*
%MOMM*%
%FSLAX34Y34*%
%LPD*%
%INSilkscreen Top*%
%IPPOS*%
%AMOC8*
5,1,8,0,0,1.08239X$1,22.5*%
G01*
%ADD10C,0.101600*%
%ADD11C,0.152400*%
%ADD12C,0.127000*%
%ADD13C,0.076200*%
%ADD14C,0.254000*%
%ADD15C,0.200000*%
%ADD16R,0.259075X0.015238*%
%ADD17R,1.310638X0.015238*%
%ADD18R,0.015238X0.015238*%
%ADD19R,0.304800X0.015238*%
%ADD20R,1.356356X0.015238*%
%ADD21R,0.335275X0.015238*%
%ADD22R,1.402075X0.015238*%
%ADD23R,0.365756X0.015238*%
%ADD24R,1.417319X0.015238*%
%ADD25R,0.381000X0.015238*%
%ADD26R,1.447800X0.015238*%
%ADD27R,0.396238X0.015238*%
%ADD28R,1.463037X0.015238*%
%ADD29R,0.411475X0.015238*%
%ADD30R,1.478275X0.015238*%
%ADD31R,0.426719X0.015238*%
%ADD32R,1.493519X0.015238*%
%ADD33R,0.441956X0.015238*%
%ADD34R,1.508756X0.015238*%
%ADD35R,0.457200X0.015238*%
%ADD36R,1.524000X0.015238*%
%ADD37R,0.472438X0.015238*%
%ADD38R,1.539238X0.015238*%
%ADD39R,0.487675X0.015238*%
%ADD40R,1.554475X0.015238*%
%ADD41R,0.502919X0.015238*%
%ADD42R,1.569719X0.015238*%
%ADD43R,0.518156X0.015238*%
%ADD44R,1.584956X0.015238*%
%ADD45R,0.533400X0.015238*%
%ADD46R,1.600200X0.015238*%
%ADD47R,0.548638X0.015238*%
%ADD48R,1.615438X0.015238*%
%ADD49R,0.563875X0.015238*%
%ADD50R,1.630675X0.015238*%
%ADD51R,0.579119X0.015238*%
%ADD52R,1.645919X0.015238*%
%ADD53R,0.594356X0.015238*%
%ADD54R,1.661156X0.015238*%
%ADD55R,0.609600X0.015238*%
%ADD56R,1.676400X0.015238*%
%ADD57R,0.624838X0.015238*%
%ADD58R,1.691638X0.015238*%
%ADD59R,0.640075X0.015238*%
%ADD60R,1.706875X0.015238*%
%ADD61R,0.655319X0.015238*%
%ADD62R,1.722119X0.015238*%
%ADD63R,0.670556X0.015238*%
%ADD64R,1.737356X0.015238*%
%ADD65R,0.685800X0.015238*%
%ADD66R,1.752600X0.015238*%
%ADD67R,0.701037X0.015238*%
%ADD68R,0.716275X0.015238*%
%ADD69R,0.731519X0.015238*%
%ADD70R,1.767838X0.015238*%
%ADD71R,1.783075X0.015238*%
%ADD72R,0.746756X0.015238*%
%ADD73R,1.798319X0.015238*%
%ADD74R,0.030481X0.015238*%
%ADD75R,0.762000X0.015238*%
%ADD76R,0.807719X0.015238*%
%ADD77R,0.868681X0.015238*%
%ADD78R,0.777238X0.015238*%
%ADD79R,0.853438X0.015238*%
%ADD80R,0.838200X0.015238*%
%ADD81R,0.792475X0.015238*%
%ADD82R,0.822963X0.015238*%
%ADD83R,0.822956X0.015238*%
%ADD84R,0.868675X0.015238*%
%ADD85R,0.883919X0.015238*%
%ADD86R,0.899156X0.015238*%
%ADD87R,0.914400X0.015238*%
%ADD88R,0.929638X0.015238*%
%ADD89R,0.944875X0.015238*%
%ADD90R,0.960119X0.015238*%
%ADD91R,0.975356X0.015238*%
%ADD92R,0.990600X0.015238*%
%ADD93R,1.005837X0.015238*%
%ADD94R,1.021075X0.015238*%
%ADD95R,1.036319X0.015238*%
%ADD96R,1.051556X0.015238*%
%ADD97R,1.066800X0.015238*%
%ADD98R,1.082037X0.015238*%
%ADD99R,1.097275X0.015238*%
%ADD100R,1.112519X0.015238*%
%ADD101R,1.127756X0.015238*%
%ADD102R,1.143000X0.015238*%
%ADD103R,1.158238X0.015238*%
%ADD104R,1.173475X0.015238*%
%ADD105R,1.188719X0.015238*%
%ADD106R,1.203956X0.015238*%
%ADD107R,1.219200X0.015238*%
%ADD108R,1.234438X0.015238*%
%ADD109R,1.249675X0.015238*%
%ADD110R,1.264919X0.015238*%
%ADD111R,1.280156X0.015238*%
%ADD112R,1.295400X0.015238*%
%ADD113R,1.325875X0.015238*%
%ADD114R,0.670563X0.015238*%
%ADD115R,1.341119X0.015238*%
%ADD116R,1.371600X0.015238*%
%ADD117R,1.386838X0.015238*%
%ADD118R,0.045719X0.015238*%
%ADD119R,0.060956X0.015238*%
%ADD120R,1.432556X0.015238*%
%ADD121R,0.106681X0.015238*%
%ADD122R,0.121919X0.015238*%
%ADD123R,0.152400X0.015238*%
%ADD124R,0.182875X0.015238*%
%ADD125R,0.030475X0.015238*%
%ADD126R,0.213363X0.015238*%
%ADD127R,0.076200X0.015238*%
%ADD128R,0.320038X0.015238*%
%ADD129R,0.243838X0.015238*%
%ADD130R,0.106675X0.015238*%
%ADD131R,0.274319X0.015238*%
%ADD132R,0.259081X0.015238*%
%ADD133R,0.198119X0.015238*%
%ADD134R,0.228600X0.015238*%


D10*
X152686Y134549D02*
X152686Y137795D01*
X152684Y137908D01*
X152678Y138021D01*
X152668Y138134D01*
X152654Y138247D01*
X152637Y138359D01*
X152615Y138470D01*
X152590Y138580D01*
X152560Y138690D01*
X152527Y138798D01*
X152490Y138905D01*
X152450Y139011D01*
X152405Y139115D01*
X152357Y139218D01*
X152306Y139319D01*
X152251Y139418D01*
X152193Y139515D01*
X152131Y139610D01*
X152066Y139703D01*
X151998Y139793D01*
X151927Y139881D01*
X151852Y139967D01*
X151775Y140050D01*
X151695Y140130D01*
X151612Y140207D01*
X151526Y140282D01*
X151438Y140353D01*
X151348Y140421D01*
X151255Y140486D01*
X151160Y140548D01*
X151063Y140606D01*
X150964Y140661D01*
X150863Y140712D01*
X150760Y140760D01*
X150656Y140805D01*
X150550Y140845D01*
X150443Y140882D01*
X150335Y140915D01*
X150225Y140945D01*
X150115Y140970D01*
X150004Y140992D01*
X149892Y141009D01*
X149779Y141023D01*
X149666Y141033D01*
X149553Y141039D01*
X149440Y141041D01*
X149327Y141039D01*
X149214Y141033D01*
X149101Y141023D01*
X148988Y141009D01*
X148876Y140992D01*
X148765Y140970D01*
X148655Y140945D01*
X148545Y140915D01*
X148437Y140882D01*
X148330Y140845D01*
X148224Y140805D01*
X148120Y140760D01*
X148017Y140712D01*
X147916Y140661D01*
X147817Y140606D01*
X147720Y140548D01*
X147625Y140486D01*
X147532Y140421D01*
X147442Y140353D01*
X147354Y140282D01*
X147268Y140207D01*
X147185Y140130D01*
X147105Y140050D01*
X147028Y139967D01*
X146953Y139881D01*
X146882Y139793D01*
X146814Y139703D01*
X146749Y139610D01*
X146687Y139515D01*
X146629Y139418D01*
X146574Y139319D01*
X146523Y139218D01*
X146475Y139115D01*
X146430Y139011D01*
X146390Y138905D01*
X146353Y138798D01*
X146320Y138690D01*
X146290Y138580D01*
X146265Y138470D01*
X146243Y138359D01*
X146226Y138247D01*
X146212Y138134D01*
X146202Y138021D01*
X146196Y137908D01*
X146194Y137795D01*
X141002Y138444D02*
X141002Y134549D01*
X141002Y138444D02*
X141004Y138545D01*
X141010Y138645D01*
X141020Y138745D01*
X141033Y138845D01*
X141051Y138944D01*
X141072Y139043D01*
X141097Y139140D01*
X141126Y139237D01*
X141159Y139332D01*
X141195Y139426D01*
X141235Y139518D01*
X141278Y139609D01*
X141325Y139698D01*
X141375Y139785D01*
X141429Y139871D01*
X141486Y139954D01*
X141546Y140034D01*
X141609Y140113D01*
X141676Y140189D01*
X141745Y140262D01*
X141817Y140332D01*
X141891Y140400D01*
X141968Y140465D01*
X142048Y140526D01*
X142130Y140585D01*
X142214Y140640D01*
X142300Y140692D01*
X142388Y140741D01*
X142478Y140786D01*
X142570Y140828D01*
X142663Y140866D01*
X142758Y140900D01*
X142853Y140931D01*
X142950Y140958D01*
X143048Y140981D01*
X143147Y141001D01*
X143247Y141016D01*
X143347Y141028D01*
X143447Y141036D01*
X143548Y141040D01*
X143648Y141040D01*
X143749Y141036D01*
X143849Y141028D01*
X143949Y141016D01*
X144049Y141001D01*
X144148Y140981D01*
X144246Y140958D01*
X144343Y140931D01*
X144438Y140900D01*
X144533Y140866D01*
X144626Y140828D01*
X144718Y140786D01*
X144808Y140741D01*
X144896Y140692D01*
X144982Y140640D01*
X145066Y140585D01*
X145148Y140526D01*
X145228Y140465D01*
X145305Y140400D01*
X145379Y140332D01*
X145451Y140262D01*
X145520Y140189D01*
X145587Y140113D01*
X145650Y140034D01*
X145710Y139954D01*
X145767Y139871D01*
X145821Y139785D01*
X145871Y139698D01*
X145918Y139609D01*
X145961Y139518D01*
X146001Y139426D01*
X146037Y139332D01*
X146070Y139237D01*
X146099Y139140D01*
X146124Y139043D01*
X146145Y138944D01*
X146163Y138845D01*
X146176Y138745D01*
X146186Y138645D01*
X146192Y138545D01*
X146194Y138444D01*
X146195Y138444D02*
X146195Y135848D01*
X141002Y145330D02*
X152686Y149225D01*
X141002Y153120D01*
X152686Y157409D02*
X152686Y160655D01*
X152684Y160768D01*
X152678Y160881D01*
X152668Y160994D01*
X152654Y161107D01*
X152637Y161219D01*
X152615Y161330D01*
X152590Y161440D01*
X152560Y161550D01*
X152527Y161658D01*
X152490Y161765D01*
X152450Y161871D01*
X152405Y161975D01*
X152357Y162078D01*
X152306Y162179D01*
X152251Y162278D01*
X152193Y162375D01*
X152131Y162470D01*
X152066Y162563D01*
X151998Y162653D01*
X151927Y162741D01*
X151852Y162827D01*
X151775Y162910D01*
X151695Y162990D01*
X151612Y163067D01*
X151526Y163142D01*
X151438Y163213D01*
X151348Y163281D01*
X151255Y163346D01*
X151160Y163408D01*
X151063Y163466D01*
X150964Y163521D01*
X150863Y163572D01*
X150760Y163620D01*
X150656Y163665D01*
X150550Y163705D01*
X150443Y163742D01*
X150335Y163775D01*
X150225Y163805D01*
X150115Y163830D01*
X150004Y163852D01*
X149892Y163869D01*
X149779Y163883D01*
X149666Y163893D01*
X149553Y163899D01*
X149440Y163901D01*
X149327Y163899D01*
X149214Y163893D01*
X149101Y163883D01*
X148988Y163869D01*
X148876Y163852D01*
X148765Y163830D01*
X148655Y163805D01*
X148545Y163775D01*
X148437Y163742D01*
X148330Y163705D01*
X148224Y163665D01*
X148120Y163620D01*
X148017Y163572D01*
X147916Y163521D01*
X147817Y163466D01*
X147720Y163408D01*
X147625Y163346D01*
X147532Y163281D01*
X147442Y163213D01*
X147354Y163142D01*
X147268Y163067D01*
X147185Y162990D01*
X147105Y162910D01*
X147028Y162827D01*
X146953Y162741D01*
X146882Y162653D01*
X146814Y162563D01*
X146749Y162470D01*
X146687Y162375D01*
X146629Y162278D01*
X146574Y162179D01*
X146523Y162078D01*
X146475Y161975D01*
X146430Y161871D01*
X146390Y161765D01*
X146353Y161658D01*
X146320Y161550D01*
X146290Y161440D01*
X146265Y161330D01*
X146243Y161219D01*
X146226Y161107D01*
X146212Y160994D01*
X146202Y160881D01*
X146196Y160768D01*
X146194Y160655D01*
X141002Y161304D02*
X141002Y157409D01*
X141002Y161304D02*
X141004Y161405D01*
X141010Y161505D01*
X141020Y161605D01*
X141033Y161705D01*
X141051Y161804D01*
X141072Y161903D01*
X141097Y162000D01*
X141126Y162097D01*
X141159Y162192D01*
X141195Y162286D01*
X141235Y162378D01*
X141278Y162469D01*
X141325Y162558D01*
X141375Y162645D01*
X141429Y162731D01*
X141486Y162814D01*
X141546Y162894D01*
X141609Y162973D01*
X141676Y163049D01*
X141745Y163122D01*
X141817Y163192D01*
X141891Y163260D01*
X141968Y163325D01*
X142048Y163386D01*
X142130Y163445D01*
X142214Y163500D01*
X142300Y163552D01*
X142388Y163601D01*
X142478Y163646D01*
X142570Y163688D01*
X142663Y163726D01*
X142758Y163760D01*
X142853Y163791D01*
X142950Y163818D01*
X143048Y163841D01*
X143147Y163861D01*
X143247Y163876D01*
X143347Y163888D01*
X143447Y163896D01*
X143548Y163900D01*
X143648Y163900D01*
X143749Y163896D01*
X143849Y163888D01*
X143949Y163876D01*
X144049Y163861D01*
X144148Y163841D01*
X144246Y163818D01*
X144343Y163791D01*
X144438Y163760D01*
X144533Y163726D01*
X144626Y163688D01*
X144718Y163646D01*
X144808Y163601D01*
X144896Y163552D01*
X144982Y163500D01*
X145066Y163445D01*
X145148Y163386D01*
X145228Y163325D01*
X145305Y163260D01*
X145379Y163192D01*
X145451Y163122D01*
X145520Y163049D01*
X145587Y162973D01*
X145650Y162894D01*
X145710Y162814D01*
X145767Y162731D01*
X145821Y162645D01*
X145871Y162558D01*
X145918Y162469D01*
X145961Y162378D01*
X146001Y162286D01*
X146037Y162192D01*
X146070Y162097D01*
X146099Y162000D01*
X146124Y161903D01*
X146145Y161804D01*
X146163Y161705D01*
X146176Y161605D01*
X146186Y161505D01*
X146192Y161405D01*
X146194Y161304D01*
X146195Y161304D02*
X146195Y158708D01*
X66219Y10884D02*
X63561Y9022D01*
X66220Y10883D02*
X66311Y10950D01*
X66401Y11019D01*
X66488Y11092D01*
X66572Y11168D01*
X66653Y11247D01*
X66732Y11328D01*
X66808Y11412D01*
X66881Y11499D01*
X66950Y11589D01*
X67017Y11680D01*
X67080Y11774D01*
X67140Y11870D01*
X67197Y11968D01*
X67250Y12068D01*
X67300Y12170D01*
X67346Y12274D01*
X67388Y12379D01*
X67427Y12485D01*
X67462Y12593D01*
X67493Y12702D01*
X67521Y12812D01*
X67544Y12923D01*
X67564Y13034D01*
X67580Y13146D01*
X67592Y13259D01*
X67600Y13372D01*
X67604Y13485D01*
X67604Y13599D01*
X67600Y13712D01*
X67592Y13825D01*
X67580Y13938D01*
X67564Y14050D01*
X67544Y14161D01*
X67521Y14272D01*
X67493Y14382D01*
X67462Y14491D01*
X67427Y14599D01*
X67388Y14705D01*
X67346Y14810D01*
X67300Y14914D01*
X67250Y15016D01*
X67197Y15116D01*
X67140Y15214D01*
X67080Y15310D01*
X67017Y15404D01*
X66950Y15495D01*
X66881Y15585D01*
X66808Y15672D01*
X66732Y15756D01*
X66653Y15837D01*
X66572Y15916D01*
X66488Y15992D01*
X66401Y16065D01*
X66312Y16134D01*
X66220Y16201D01*
X66126Y16264D01*
X66030Y16324D01*
X65932Y16381D01*
X65832Y16434D01*
X65730Y16484D01*
X65626Y16530D01*
X65521Y16572D01*
X65415Y16611D01*
X65307Y16646D01*
X65198Y16677D01*
X65088Y16705D01*
X64977Y16728D01*
X64866Y16748D01*
X64754Y16764D01*
X64641Y16776D01*
X64528Y16784D01*
X64415Y16788D01*
X64301Y16788D01*
X64188Y16784D01*
X64075Y16776D01*
X63962Y16764D01*
X63850Y16748D01*
X63739Y16728D01*
X63628Y16705D01*
X63518Y16677D01*
X63409Y16646D01*
X63301Y16611D01*
X63195Y16572D01*
X63090Y16530D01*
X62986Y16484D01*
X62884Y16434D01*
X62784Y16381D01*
X62686Y16324D01*
X62590Y16264D01*
X62496Y16201D01*
X60049Y20827D02*
X56859Y18593D01*
X60049Y20827D02*
X60133Y20883D01*
X60218Y20936D01*
X60306Y20985D01*
X60395Y21031D01*
X60487Y21074D01*
X60580Y21113D01*
X60674Y21148D01*
X60769Y21180D01*
X60866Y21208D01*
X60964Y21232D01*
X61062Y21252D01*
X61162Y21269D01*
X61262Y21281D01*
X61362Y21290D01*
X61463Y21295D01*
X61563Y21296D01*
X61664Y21293D01*
X61764Y21286D01*
X61864Y21275D01*
X61964Y21261D01*
X62063Y21242D01*
X62161Y21220D01*
X62258Y21194D01*
X62355Y21164D01*
X62450Y21131D01*
X62543Y21094D01*
X62635Y21053D01*
X62726Y21008D01*
X62814Y20961D01*
X62901Y20909D01*
X62985Y20855D01*
X63068Y20797D01*
X63148Y20736D01*
X63226Y20672D01*
X63301Y20605D01*
X63374Y20536D01*
X63443Y20463D01*
X63510Y20388D01*
X63574Y20310D01*
X63635Y20230D01*
X63693Y20147D01*
X63747Y20063D01*
X63799Y19976D01*
X63846Y19888D01*
X63891Y19797D01*
X63932Y19705D01*
X63969Y19611D01*
X64002Y19517D01*
X64032Y19420D01*
X64058Y19323D01*
X64080Y19225D01*
X64099Y19126D01*
X64113Y19026D01*
X64124Y18926D01*
X64131Y18826D01*
X64134Y18725D01*
X64133Y18625D01*
X64128Y18524D01*
X64119Y18424D01*
X64107Y18324D01*
X64090Y18224D01*
X64070Y18126D01*
X64046Y18028D01*
X64018Y17931D01*
X63986Y17836D01*
X63951Y17742D01*
X63912Y17649D01*
X63869Y17557D01*
X63823Y17468D01*
X63774Y17380D01*
X63721Y17295D01*
X63665Y17211D01*
X63605Y17130D01*
X63543Y17051D01*
X63477Y16974D01*
X63409Y16900D01*
X63338Y16829D01*
X63264Y16761D01*
X63187Y16695D01*
X63108Y16633D01*
X63027Y16573D01*
X63028Y16573D02*
X60901Y15084D01*
X65690Y24777D02*
X75582Y17439D01*
X72071Y29244D01*
X82286Y22134D02*
X84945Y23995D01*
X85036Y24062D01*
X85126Y24131D01*
X85213Y24204D01*
X85297Y24280D01*
X85378Y24359D01*
X85457Y24440D01*
X85533Y24524D01*
X85606Y24611D01*
X85675Y24701D01*
X85742Y24792D01*
X85805Y24886D01*
X85865Y24982D01*
X85922Y25080D01*
X85975Y25180D01*
X86025Y25282D01*
X86071Y25386D01*
X86113Y25491D01*
X86152Y25597D01*
X86187Y25705D01*
X86218Y25814D01*
X86246Y25924D01*
X86269Y26035D01*
X86289Y26146D01*
X86305Y26258D01*
X86317Y26371D01*
X86325Y26484D01*
X86329Y26597D01*
X86329Y26711D01*
X86325Y26824D01*
X86317Y26937D01*
X86305Y27050D01*
X86289Y27162D01*
X86269Y27273D01*
X86246Y27384D01*
X86218Y27494D01*
X86187Y27603D01*
X86152Y27711D01*
X86113Y27817D01*
X86071Y27922D01*
X86025Y28026D01*
X85975Y28128D01*
X85922Y28228D01*
X85865Y28326D01*
X85805Y28422D01*
X85742Y28516D01*
X85675Y28607D01*
X85606Y28697D01*
X85533Y28784D01*
X85457Y28868D01*
X85378Y28949D01*
X85297Y29028D01*
X85213Y29104D01*
X85126Y29177D01*
X85037Y29246D01*
X84945Y29313D01*
X84851Y29376D01*
X84755Y29436D01*
X84657Y29493D01*
X84557Y29546D01*
X84455Y29596D01*
X84351Y29642D01*
X84246Y29684D01*
X84140Y29723D01*
X84032Y29758D01*
X83923Y29789D01*
X83813Y29817D01*
X83702Y29840D01*
X83591Y29860D01*
X83479Y29876D01*
X83366Y29888D01*
X83253Y29896D01*
X83140Y29900D01*
X83026Y29900D01*
X82913Y29896D01*
X82800Y29888D01*
X82687Y29876D01*
X82575Y29860D01*
X82464Y29840D01*
X82353Y29817D01*
X82243Y29789D01*
X82134Y29758D01*
X82026Y29723D01*
X81920Y29684D01*
X81815Y29642D01*
X81711Y29596D01*
X81609Y29546D01*
X81509Y29493D01*
X81411Y29436D01*
X81315Y29376D01*
X81221Y29313D01*
X78775Y33939D02*
X75585Y31705D01*
X78775Y33939D02*
X78859Y33995D01*
X78944Y34048D01*
X79032Y34097D01*
X79121Y34143D01*
X79213Y34186D01*
X79306Y34225D01*
X79400Y34260D01*
X79495Y34292D01*
X79592Y34320D01*
X79690Y34344D01*
X79788Y34364D01*
X79888Y34381D01*
X79988Y34393D01*
X80088Y34402D01*
X80189Y34407D01*
X80289Y34408D01*
X80390Y34405D01*
X80490Y34398D01*
X80590Y34387D01*
X80690Y34373D01*
X80789Y34354D01*
X80887Y34332D01*
X80984Y34306D01*
X81081Y34276D01*
X81176Y34243D01*
X81269Y34206D01*
X81361Y34165D01*
X81452Y34120D01*
X81540Y34073D01*
X81627Y34021D01*
X81711Y33967D01*
X81794Y33909D01*
X81874Y33848D01*
X81952Y33784D01*
X82027Y33717D01*
X82100Y33648D01*
X82169Y33575D01*
X82236Y33500D01*
X82300Y33422D01*
X82361Y33342D01*
X82419Y33259D01*
X82473Y33175D01*
X82525Y33088D01*
X82572Y33000D01*
X82617Y32909D01*
X82658Y32817D01*
X82695Y32723D01*
X82728Y32629D01*
X82758Y32532D01*
X82784Y32435D01*
X82806Y32337D01*
X82825Y32238D01*
X82839Y32138D01*
X82850Y32038D01*
X82857Y31938D01*
X82860Y31837D01*
X82859Y31737D01*
X82854Y31636D01*
X82845Y31536D01*
X82833Y31436D01*
X82816Y31336D01*
X82796Y31238D01*
X82772Y31140D01*
X82744Y31043D01*
X82712Y30948D01*
X82677Y30854D01*
X82638Y30761D01*
X82595Y30669D01*
X82549Y30580D01*
X82500Y30492D01*
X82447Y30407D01*
X82391Y30323D01*
X82331Y30242D01*
X82269Y30163D01*
X82203Y30086D01*
X82135Y30012D01*
X82064Y29941D01*
X81990Y29873D01*
X81913Y29807D01*
X81834Y29745D01*
X81753Y29685D01*
X79627Y28196D01*
X-82564Y23995D02*
X-85222Y25857D01*
X-82564Y23995D02*
X-82470Y23932D01*
X-82374Y23872D01*
X-82276Y23815D01*
X-82176Y23762D01*
X-82074Y23712D01*
X-81970Y23666D01*
X-81865Y23624D01*
X-81759Y23585D01*
X-81651Y23550D01*
X-81542Y23519D01*
X-81432Y23491D01*
X-81321Y23468D01*
X-81210Y23448D01*
X-81098Y23432D01*
X-80985Y23420D01*
X-80872Y23412D01*
X-80759Y23408D01*
X-80645Y23408D01*
X-80532Y23412D01*
X-80419Y23420D01*
X-80306Y23432D01*
X-80194Y23448D01*
X-80083Y23468D01*
X-79972Y23491D01*
X-79862Y23519D01*
X-79753Y23550D01*
X-79645Y23585D01*
X-79539Y23624D01*
X-79434Y23666D01*
X-79330Y23712D01*
X-79228Y23762D01*
X-79128Y23815D01*
X-79030Y23872D01*
X-78934Y23932D01*
X-78840Y23995D01*
X-78749Y24062D01*
X-78659Y24131D01*
X-78572Y24204D01*
X-78488Y24280D01*
X-78407Y24359D01*
X-78328Y24440D01*
X-78252Y24524D01*
X-78179Y24611D01*
X-78110Y24701D01*
X-78043Y24792D01*
X-77980Y24886D01*
X-77920Y24982D01*
X-77863Y25080D01*
X-77810Y25180D01*
X-77760Y25282D01*
X-77714Y25386D01*
X-77672Y25491D01*
X-77633Y25597D01*
X-77598Y25705D01*
X-77567Y25814D01*
X-77539Y25924D01*
X-77516Y26035D01*
X-77496Y26146D01*
X-77480Y26258D01*
X-77468Y26371D01*
X-77460Y26484D01*
X-77456Y26597D01*
X-77456Y26711D01*
X-77460Y26824D01*
X-77468Y26937D01*
X-77480Y27050D01*
X-77496Y27162D01*
X-77516Y27273D01*
X-77539Y27384D01*
X-77567Y27494D01*
X-77598Y27603D01*
X-77633Y27711D01*
X-77672Y27817D01*
X-77714Y27922D01*
X-77760Y28026D01*
X-77810Y28128D01*
X-77863Y28228D01*
X-77920Y28326D01*
X-77980Y28422D01*
X-78043Y28516D01*
X-78110Y28607D01*
X-78179Y28697D01*
X-78252Y28784D01*
X-78328Y28868D01*
X-78407Y28949D01*
X-78488Y29028D01*
X-78572Y29104D01*
X-78659Y29177D01*
X-78748Y29246D01*
X-78840Y29313D01*
X-75330Y33194D02*
X-78521Y35428D01*
X-75331Y33194D02*
X-75250Y33134D01*
X-75171Y33072D01*
X-75094Y33006D01*
X-75020Y32938D01*
X-74949Y32867D01*
X-74881Y32793D01*
X-74815Y32716D01*
X-74753Y32637D01*
X-74693Y32556D01*
X-74637Y32472D01*
X-74584Y32387D01*
X-74535Y32299D01*
X-74489Y32210D01*
X-74446Y32118D01*
X-74407Y32025D01*
X-74372Y31931D01*
X-74340Y31836D01*
X-74312Y31739D01*
X-74288Y31641D01*
X-74268Y31543D01*
X-74251Y31443D01*
X-74239Y31343D01*
X-74230Y31243D01*
X-74225Y31142D01*
X-74224Y31042D01*
X-74227Y30941D01*
X-74234Y30841D01*
X-74245Y30741D01*
X-74259Y30641D01*
X-74278Y30542D01*
X-74300Y30444D01*
X-74326Y30347D01*
X-74356Y30250D01*
X-74389Y30156D01*
X-74426Y30062D01*
X-74467Y29970D01*
X-74512Y29879D01*
X-74559Y29791D01*
X-74611Y29704D01*
X-74665Y29620D01*
X-74723Y29537D01*
X-74784Y29457D01*
X-74848Y29379D01*
X-74915Y29304D01*
X-74984Y29231D01*
X-75057Y29162D01*
X-75132Y29095D01*
X-75210Y29031D01*
X-75290Y28970D01*
X-75373Y28912D01*
X-75457Y28858D01*
X-75544Y28806D01*
X-75632Y28759D01*
X-75723Y28714D01*
X-75815Y28673D01*
X-75908Y28636D01*
X-76003Y28603D01*
X-76100Y28573D01*
X-76197Y28547D01*
X-76295Y28525D01*
X-76394Y28506D01*
X-76494Y28492D01*
X-76594Y28481D01*
X-76694Y28474D01*
X-76795Y28471D01*
X-76895Y28472D01*
X-76996Y28477D01*
X-77096Y28486D01*
X-77196Y28498D01*
X-77296Y28515D01*
X-77394Y28535D01*
X-77492Y28559D01*
X-77589Y28587D01*
X-77684Y28619D01*
X-77778Y28654D01*
X-77871Y28693D01*
X-77963Y28736D01*
X-78052Y28782D01*
X-78140Y28831D01*
X-78225Y28884D01*
X-78309Y28940D01*
X-80436Y30430D01*
X-69689Y29244D02*
X-73201Y17439D01*
X-63309Y24777D01*
X-66496Y12745D02*
X-63838Y10883D01*
X-63744Y10820D01*
X-63648Y10760D01*
X-63550Y10703D01*
X-63450Y10650D01*
X-63348Y10600D01*
X-63244Y10554D01*
X-63139Y10512D01*
X-63033Y10473D01*
X-62925Y10438D01*
X-62816Y10407D01*
X-62706Y10379D01*
X-62595Y10356D01*
X-62484Y10336D01*
X-62372Y10320D01*
X-62259Y10308D01*
X-62146Y10300D01*
X-62033Y10296D01*
X-61919Y10296D01*
X-61806Y10300D01*
X-61693Y10308D01*
X-61580Y10320D01*
X-61468Y10336D01*
X-61357Y10356D01*
X-61246Y10379D01*
X-61136Y10407D01*
X-61027Y10438D01*
X-60919Y10473D01*
X-60813Y10512D01*
X-60708Y10554D01*
X-60604Y10600D01*
X-60502Y10650D01*
X-60402Y10703D01*
X-60304Y10760D01*
X-60208Y10820D01*
X-60114Y10883D01*
X-60023Y10950D01*
X-59933Y11019D01*
X-59846Y11092D01*
X-59762Y11168D01*
X-59681Y11247D01*
X-59602Y11328D01*
X-59526Y11412D01*
X-59453Y11499D01*
X-59384Y11589D01*
X-59317Y11680D01*
X-59254Y11774D01*
X-59194Y11870D01*
X-59137Y11968D01*
X-59084Y12068D01*
X-59034Y12170D01*
X-58988Y12274D01*
X-58946Y12379D01*
X-58907Y12485D01*
X-58872Y12593D01*
X-58841Y12702D01*
X-58813Y12812D01*
X-58790Y12923D01*
X-58770Y13034D01*
X-58754Y13146D01*
X-58742Y13259D01*
X-58734Y13372D01*
X-58730Y13485D01*
X-58730Y13599D01*
X-58734Y13712D01*
X-58742Y13825D01*
X-58754Y13938D01*
X-58770Y14050D01*
X-58790Y14161D01*
X-58813Y14272D01*
X-58841Y14382D01*
X-58872Y14491D01*
X-58907Y14599D01*
X-58946Y14705D01*
X-58988Y14810D01*
X-59034Y14914D01*
X-59084Y15016D01*
X-59137Y15116D01*
X-59194Y15214D01*
X-59254Y15310D01*
X-59317Y15404D01*
X-59384Y15495D01*
X-59453Y15585D01*
X-59526Y15672D01*
X-59602Y15756D01*
X-59681Y15837D01*
X-59762Y15916D01*
X-59846Y15992D01*
X-59933Y16065D01*
X-60022Y16134D01*
X-60114Y16201D01*
X-56604Y20082D02*
X-59795Y22316D01*
X-56605Y20082D02*
X-56524Y20022D01*
X-56445Y19960D01*
X-56368Y19894D01*
X-56294Y19826D01*
X-56223Y19755D01*
X-56155Y19681D01*
X-56089Y19604D01*
X-56027Y19525D01*
X-55967Y19444D01*
X-55911Y19360D01*
X-55858Y19275D01*
X-55809Y19187D01*
X-55763Y19098D01*
X-55720Y19006D01*
X-55681Y18913D01*
X-55646Y18819D01*
X-55614Y18724D01*
X-55586Y18627D01*
X-55562Y18529D01*
X-55542Y18431D01*
X-55525Y18331D01*
X-55513Y18231D01*
X-55504Y18131D01*
X-55499Y18030D01*
X-55498Y17930D01*
X-55501Y17829D01*
X-55508Y17729D01*
X-55519Y17629D01*
X-55533Y17529D01*
X-55552Y17430D01*
X-55574Y17332D01*
X-55600Y17235D01*
X-55630Y17138D01*
X-55663Y17044D01*
X-55700Y16950D01*
X-55741Y16858D01*
X-55786Y16767D01*
X-55833Y16679D01*
X-55885Y16592D01*
X-55939Y16508D01*
X-55997Y16425D01*
X-56058Y16345D01*
X-56122Y16267D01*
X-56189Y16192D01*
X-56258Y16119D01*
X-56331Y16050D01*
X-56406Y15983D01*
X-56484Y15919D01*
X-56564Y15858D01*
X-56647Y15800D01*
X-56731Y15746D01*
X-56818Y15694D01*
X-56906Y15647D01*
X-56997Y15602D01*
X-57089Y15561D01*
X-57182Y15524D01*
X-57277Y15491D01*
X-57374Y15461D01*
X-57471Y15435D01*
X-57569Y15413D01*
X-57668Y15394D01*
X-57768Y15380D01*
X-57868Y15369D01*
X-57968Y15362D01*
X-58069Y15359D01*
X-58169Y15360D01*
X-58270Y15365D01*
X-58370Y15374D01*
X-58470Y15386D01*
X-58570Y15403D01*
X-58668Y15423D01*
X-58766Y15447D01*
X-58863Y15475D01*
X-58958Y15507D01*
X-59052Y15542D01*
X-59145Y15581D01*
X-59237Y15624D01*
X-59326Y15670D01*
X-59414Y15719D01*
X-59499Y15772D01*
X-59583Y15828D01*
X-61710Y17318D01*
X-139414Y134549D02*
X-139414Y137795D01*
X-139416Y137908D01*
X-139422Y138021D01*
X-139432Y138134D01*
X-139446Y138247D01*
X-139463Y138359D01*
X-139485Y138470D01*
X-139510Y138580D01*
X-139540Y138690D01*
X-139573Y138798D01*
X-139610Y138905D01*
X-139650Y139011D01*
X-139695Y139115D01*
X-139743Y139218D01*
X-139794Y139319D01*
X-139849Y139418D01*
X-139907Y139515D01*
X-139969Y139610D01*
X-140034Y139703D01*
X-140102Y139793D01*
X-140173Y139881D01*
X-140248Y139967D01*
X-140325Y140050D01*
X-140405Y140130D01*
X-140488Y140207D01*
X-140574Y140282D01*
X-140662Y140353D01*
X-140752Y140421D01*
X-140845Y140486D01*
X-140940Y140548D01*
X-141037Y140606D01*
X-141136Y140661D01*
X-141237Y140712D01*
X-141340Y140760D01*
X-141444Y140805D01*
X-141550Y140845D01*
X-141657Y140882D01*
X-141765Y140915D01*
X-141875Y140945D01*
X-141985Y140970D01*
X-142096Y140992D01*
X-142208Y141009D01*
X-142321Y141023D01*
X-142434Y141033D01*
X-142547Y141039D01*
X-142660Y141041D01*
X-142773Y141039D01*
X-142886Y141033D01*
X-142999Y141023D01*
X-143112Y141009D01*
X-143224Y140992D01*
X-143335Y140970D01*
X-143445Y140945D01*
X-143555Y140915D01*
X-143663Y140882D01*
X-143770Y140845D01*
X-143876Y140805D01*
X-143980Y140760D01*
X-144083Y140712D01*
X-144184Y140661D01*
X-144283Y140606D01*
X-144380Y140548D01*
X-144475Y140486D01*
X-144568Y140421D01*
X-144658Y140353D01*
X-144746Y140282D01*
X-144832Y140207D01*
X-144915Y140130D01*
X-144995Y140050D01*
X-145072Y139967D01*
X-145147Y139881D01*
X-145218Y139793D01*
X-145286Y139703D01*
X-145351Y139610D01*
X-145413Y139515D01*
X-145471Y139418D01*
X-145526Y139319D01*
X-145577Y139218D01*
X-145625Y139115D01*
X-145670Y139011D01*
X-145710Y138905D01*
X-145747Y138798D01*
X-145780Y138690D01*
X-145810Y138580D01*
X-145835Y138470D01*
X-145857Y138359D01*
X-145874Y138247D01*
X-145888Y138134D01*
X-145898Y138021D01*
X-145904Y137908D01*
X-145906Y137795D01*
X-151098Y138444D02*
X-151098Y134549D01*
X-151098Y138444D02*
X-151096Y138545D01*
X-151090Y138645D01*
X-151080Y138745D01*
X-151067Y138845D01*
X-151049Y138944D01*
X-151028Y139043D01*
X-151003Y139140D01*
X-150974Y139237D01*
X-150941Y139332D01*
X-150905Y139426D01*
X-150865Y139518D01*
X-150822Y139609D01*
X-150775Y139698D01*
X-150725Y139785D01*
X-150671Y139871D01*
X-150614Y139954D01*
X-150554Y140034D01*
X-150491Y140113D01*
X-150424Y140189D01*
X-150355Y140262D01*
X-150283Y140332D01*
X-150209Y140400D01*
X-150132Y140465D01*
X-150052Y140526D01*
X-149970Y140585D01*
X-149886Y140640D01*
X-149800Y140692D01*
X-149712Y140741D01*
X-149622Y140786D01*
X-149530Y140828D01*
X-149437Y140866D01*
X-149342Y140900D01*
X-149247Y140931D01*
X-149150Y140958D01*
X-149052Y140981D01*
X-148953Y141001D01*
X-148853Y141016D01*
X-148753Y141028D01*
X-148653Y141036D01*
X-148552Y141040D01*
X-148452Y141040D01*
X-148351Y141036D01*
X-148251Y141028D01*
X-148151Y141016D01*
X-148051Y141001D01*
X-147952Y140981D01*
X-147854Y140958D01*
X-147757Y140931D01*
X-147662Y140900D01*
X-147567Y140866D01*
X-147474Y140828D01*
X-147382Y140786D01*
X-147292Y140741D01*
X-147204Y140692D01*
X-147118Y140640D01*
X-147034Y140585D01*
X-146952Y140526D01*
X-146872Y140465D01*
X-146795Y140400D01*
X-146721Y140332D01*
X-146649Y140262D01*
X-146580Y140189D01*
X-146513Y140113D01*
X-146450Y140034D01*
X-146390Y139954D01*
X-146333Y139871D01*
X-146279Y139785D01*
X-146229Y139698D01*
X-146182Y139609D01*
X-146139Y139518D01*
X-146099Y139426D01*
X-146063Y139332D01*
X-146030Y139237D01*
X-146001Y139140D01*
X-145976Y139043D01*
X-145955Y138944D01*
X-145937Y138845D01*
X-145924Y138745D01*
X-145914Y138645D01*
X-145908Y138545D01*
X-145906Y138444D01*
X-145905Y138444D02*
X-145905Y135848D01*
X-151098Y145330D02*
X-139414Y149225D01*
X-151098Y153120D01*
X-139414Y157409D02*
X-139414Y160655D01*
X-139416Y160768D01*
X-139422Y160881D01*
X-139432Y160994D01*
X-139446Y161107D01*
X-139463Y161219D01*
X-139485Y161330D01*
X-139510Y161440D01*
X-139540Y161550D01*
X-139573Y161658D01*
X-139610Y161765D01*
X-139650Y161871D01*
X-139695Y161975D01*
X-139743Y162078D01*
X-139794Y162179D01*
X-139849Y162278D01*
X-139907Y162375D01*
X-139969Y162470D01*
X-140034Y162563D01*
X-140102Y162653D01*
X-140173Y162741D01*
X-140248Y162827D01*
X-140325Y162910D01*
X-140405Y162990D01*
X-140488Y163067D01*
X-140574Y163142D01*
X-140662Y163213D01*
X-140752Y163281D01*
X-140845Y163346D01*
X-140940Y163408D01*
X-141037Y163466D01*
X-141136Y163521D01*
X-141237Y163572D01*
X-141340Y163620D01*
X-141444Y163665D01*
X-141550Y163705D01*
X-141657Y163742D01*
X-141765Y163775D01*
X-141875Y163805D01*
X-141985Y163830D01*
X-142096Y163852D01*
X-142208Y163869D01*
X-142321Y163883D01*
X-142434Y163893D01*
X-142547Y163899D01*
X-142660Y163901D01*
X-142773Y163899D01*
X-142886Y163893D01*
X-142999Y163883D01*
X-143112Y163869D01*
X-143224Y163852D01*
X-143335Y163830D01*
X-143445Y163805D01*
X-143555Y163775D01*
X-143663Y163742D01*
X-143770Y163705D01*
X-143876Y163665D01*
X-143980Y163620D01*
X-144083Y163572D01*
X-144184Y163521D01*
X-144283Y163466D01*
X-144380Y163408D01*
X-144475Y163346D01*
X-144568Y163281D01*
X-144658Y163213D01*
X-144746Y163142D01*
X-144832Y163067D01*
X-144915Y162990D01*
X-144995Y162910D01*
X-145072Y162827D01*
X-145147Y162741D01*
X-145218Y162653D01*
X-145286Y162563D01*
X-145351Y162470D01*
X-145413Y162375D01*
X-145471Y162278D01*
X-145526Y162179D01*
X-145577Y162078D01*
X-145625Y161975D01*
X-145670Y161871D01*
X-145710Y161765D01*
X-145747Y161658D01*
X-145780Y161550D01*
X-145810Y161440D01*
X-145835Y161330D01*
X-145857Y161219D01*
X-145874Y161107D01*
X-145888Y160994D01*
X-145898Y160881D01*
X-145904Y160768D01*
X-145906Y160655D01*
X-151098Y161304D02*
X-151098Y157409D01*
X-151098Y161304D02*
X-151096Y161405D01*
X-151090Y161505D01*
X-151080Y161605D01*
X-151067Y161705D01*
X-151049Y161804D01*
X-151028Y161903D01*
X-151003Y162000D01*
X-150974Y162097D01*
X-150941Y162192D01*
X-150905Y162286D01*
X-150865Y162378D01*
X-150822Y162469D01*
X-150775Y162558D01*
X-150725Y162645D01*
X-150671Y162731D01*
X-150614Y162814D01*
X-150554Y162894D01*
X-150491Y162973D01*
X-150424Y163049D01*
X-150355Y163122D01*
X-150283Y163192D01*
X-150209Y163260D01*
X-150132Y163325D01*
X-150052Y163386D01*
X-149970Y163445D01*
X-149886Y163500D01*
X-149800Y163552D01*
X-149712Y163601D01*
X-149622Y163646D01*
X-149530Y163688D01*
X-149437Y163726D01*
X-149342Y163760D01*
X-149247Y163791D01*
X-149150Y163818D01*
X-149052Y163841D01*
X-148953Y163861D01*
X-148853Y163876D01*
X-148753Y163888D01*
X-148653Y163896D01*
X-148552Y163900D01*
X-148452Y163900D01*
X-148351Y163896D01*
X-148251Y163888D01*
X-148151Y163876D01*
X-148051Y163861D01*
X-147952Y163841D01*
X-147854Y163818D01*
X-147757Y163791D01*
X-147662Y163760D01*
X-147567Y163726D01*
X-147474Y163688D01*
X-147382Y163646D01*
X-147292Y163601D01*
X-147204Y163552D01*
X-147118Y163500D01*
X-147034Y163445D01*
X-146952Y163386D01*
X-146872Y163325D01*
X-146795Y163260D01*
X-146721Y163192D01*
X-146649Y163122D01*
X-146580Y163049D01*
X-146513Y162973D01*
X-146450Y162894D01*
X-146390Y162814D01*
X-146333Y162731D01*
X-146279Y162645D01*
X-146229Y162558D01*
X-146182Y162469D01*
X-146139Y162378D01*
X-146099Y162286D01*
X-146063Y162192D01*
X-146030Y162097D01*
X-146001Y162000D01*
X-145976Y161903D01*
X-145955Y161804D01*
X-145937Y161705D01*
X-145924Y161605D01*
X-145914Y161505D01*
X-145908Y161405D01*
X-145906Y161304D01*
X-145905Y161304D02*
X-145905Y158708D01*
D11*
X85489Y214948D02*
X85489Y232728D01*
X90428Y232728D01*
X90568Y232726D01*
X90707Y232720D01*
X90847Y232710D01*
X90986Y232696D01*
X91125Y232679D01*
X91263Y232657D01*
X91400Y232631D01*
X91537Y232602D01*
X91673Y232569D01*
X91807Y232532D01*
X91941Y232491D01*
X92073Y232446D01*
X92205Y232397D01*
X92334Y232345D01*
X92462Y232290D01*
X92589Y232230D01*
X92714Y232167D01*
X92837Y232101D01*
X92958Y232031D01*
X93077Y231958D01*
X93194Y231881D01*
X93308Y231801D01*
X93421Y231718D01*
X93531Y231632D01*
X93638Y231542D01*
X93743Y231450D01*
X93845Y231355D01*
X93945Y231257D01*
X94042Y231156D01*
X94136Y231052D01*
X94226Y230946D01*
X94314Y230837D01*
X94399Y230726D01*
X94480Y230612D01*
X94559Y230497D01*
X94634Y230379D01*
X94705Y230259D01*
X94773Y230136D01*
X94838Y230013D01*
X94899Y229887D01*
X94957Y229759D01*
X95011Y229631D01*
X95061Y229500D01*
X95108Y229368D01*
X95151Y229235D01*
X95190Y229101D01*
X95225Y228966D01*
X95256Y228830D01*
X95284Y228692D01*
X95307Y228555D01*
X95327Y228416D01*
X95343Y228277D01*
X95355Y228138D01*
X95363Y227999D01*
X95367Y227859D01*
X95367Y227719D01*
X95363Y227579D01*
X95355Y227440D01*
X95343Y227301D01*
X95327Y227162D01*
X95307Y227023D01*
X95284Y226886D01*
X95256Y226748D01*
X95225Y226612D01*
X95190Y226477D01*
X95151Y226343D01*
X95108Y226210D01*
X95061Y226078D01*
X95011Y225947D01*
X94957Y225819D01*
X94899Y225691D01*
X94838Y225565D01*
X94773Y225442D01*
X94705Y225320D01*
X94634Y225199D01*
X94559Y225081D01*
X94480Y224966D01*
X94399Y224852D01*
X94314Y224741D01*
X94226Y224632D01*
X94136Y224526D01*
X94042Y224422D01*
X93945Y224321D01*
X93845Y224223D01*
X93743Y224128D01*
X93638Y224036D01*
X93531Y223946D01*
X93421Y223860D01*
X93308Y223777D01*
X93194Y223697D01*
X93077Y223620D01*
X92958Y223547D01*
X92837Y223477D01*
X92714Y223411D01*
X92589Y223348D01*
X92462Y223288D01*
X92334Y223233D01*
X92205Y223181D01*
X92073Y223132D01*
X91941Y223087D01*
X91807Y223046D01*
X91673Y223009D01*
X91537Y222976D01*
X91400Y222947D01*
X91263Y222921D01*
X91125Y222899D01*
X90986Y222882D01*
X90847Y222868D01*
X90707Y222858D01*
X90568Y222852D01*
X90428Y222850D01*
X85489Y222850D01*
X101484Y228776D02*
X106423Y232728D01*
X106423Y214948D01*
X111361Y214948D02*
X101484Y214948D01*
X-10555Y36671D02*
X-10555Y18891D01*
X-10555Y36671D02*
X-5616Y36671D01*
X-5476Y36669D01*
X-5337Y36663D01*
X-5197Y36653D01*
X-5058Y36639D01*
X-4919Y36622D01*
X-4781Y36600D01*
X-4644Y36574D01*
X-4507Y36545D01*
X-4371Y36512D01*
X-4237Y36475D01*
X-4103Y36434D01*
X-3971Y36389D01*
X-3839Y36340D01*
X-3710Y36288D01*
X-3582Y36233D01*
X-3455Y36173D01*
X-3330Y36110D01*
X-3207Y36044D01*
X-3086Y35974D01*
X-2967Y35901D01*
X-2850Y35824D01*
X-2736Y35744D01*
X-2623Y35661D01*
X-2513Y35575D01*
X-2406Y35485D01*
X-2301Y35393D01*
X-2199Y35298D01*
X-2099Y35200D01*
X-2002Y35099D01*
X-1908Y34995D01*
X-1818Y34889D01*
X-1730Y34780D01*
X-1645Y34669D01*
X-1564Y34555D01*
X-1485Y34440D01*
X-1410Y34322D01*
X-1339Y34202D01*
X-1271Y34079D01*
X-1206Y33956D01*
X-1145Y33830D01*
X-1087Y33702D01*
X-1033Y33574D01*
X-983Y33443D01*
X-936Y33311D01*
X-893Y33178D01*
X-854Y33044D01*
X-819Y32909D01*
X-788Y32773D01*
X-760Y32635D01*
X-737Y32498D01*
X-717Y32359D01*
X-701Y32220D01*
X-689Y32081D01*
X-681Y31942D01*
X-677Y31802D01*
X-677Y31662D01*
X-681Y31522D01*
X-689Y31383D01*
X-701Y31244D01*
X-717Y31105D01*
X-737Y30966D01*
X-760Y30829D01*
X-788Y30691D01*
X-819Y30555D01*
X-854Y30420D01*
X-893Y30286D01*
X-936Y30153D01*
X-983Y30021D01*
X-1033Y29890D01*
X-1087Y29762D01*
X-1145Y29634D01*
X-1206Y29508D01*
X-1271Y29385D01*
X-1339Y29263D01*
X-1410Y29142D01*
X-1485Y29024D01*
X-1564Y28909D01*
X-1645Y28795D01*
X-1730Y28684D01*
X-1818Y28575D01*
X-1908Y28469D01*
X-2002Y28365D01*
X-2099Y28264D01*
X-2199Y28166D01*
X-2301Y28071D01*
X-2406Y27979D01*
X-2513Y27889D01*
X-2623Y27803D01*
X-2736Y27720D01*
X-2850Y27640D01*
X-2967Y27563D01*
X-3086Y27490D01*
X-3207Y27420D01*
X-3330Y27354D01*
X-3455Y27291D01*
X-3582Y27231D01*
X-3710Y27176D01*
X-3839Y27124D01*
X-3971Y27075D01*
X-4103Y27030D01*
X-4237Y26989D01*
X-4371Y26952D01*
X-4507Y26919D01*
X-4644Y26890D01*
X-4781Y26864D01*
X-4919Y26842D01*
X-5058Y26825D01*
X-5197Y26811D01*
X-5337Y26801D01*
X-5476Y26795D01*
X-5616Y26793D01*
X-10555Y26793D01*
X5440Y18891D02*
X10379Y18891D01*
X10519Y18893D01*
X10658Y18899D01*
X10798Y18909D01*
X10937Y18923D01*
X11076Y18940D01*
X11214Y18962D01*
X11351Y18988D01*
X11488Y19017D01*
X11624Y19050D01*
X11758Y19087D01*
X11892Y19128D01*
X12024Y19173D01*
X12156Y19222D01*
X12285Y19274D01*
X12413Y19329D01*
X12540Y19389D01*
X12665Y19452D01*
X12788Y19518D01*
X12909Y19588D01*
X13028Y19661D01*
X13145Y19738D01*
X13259Y19818D01*
X13372Y19901D01*
X13482Y19987D01*
X13589Y20077D01*
X13694Y20169D01*
X13796Y20264D01*
X13896Y20362D01*
X13993Y20463D01*
X14087Y20567D01*
X14177Y20673D01*
X14265Y20782D01*
X14350Y20893D01*
X14431Y21007D01*
X14510Y21122D01*
X14585Y21240D01*
X14656Y21361D01*
X14724Y21483D01*
X14789Y21606D01*
X14850Y21732D01*
X14908Y21860D01*
X14962Y21988D01*
X15012Y22119D01*
X15059Y22251D01*
X15102Y22384D01*
X15141Y22518D01*
X15176Y22653D01*
X15207Y22789D01*
X15235Y22927D01*
X15258Y23064D01*
X15278Y23203D01*
X15294Y23342D01*
X15306Y23481D01*
X15314Y23620D01*
X15318Y23760D01*
X15318Y23900D01*
X15314Y24040D01*
X15306Y24179D01*
X15294Y24318D01*
X15278Y24457D01*
X15258Y24596D01*
X15235Y24733D01*
X15207Y24871D01*
X15176Y25007D01*
X15141Y25142D01*
X15102Y25276D01*
X15059Y25409D01*
X15012Y25541D01*
X14962Y25672D01*
X14908Y25800D01*
X14850Y25928D01*
X14789Y26054D01*
X14724Y26177D01*
X14656Y26300D01*
X14585Y26420D01*
X14510Y26538D01*
X14431Y26653D01*
X14350Y26767D01*
X14265Y26878D01*
X14177Y26987D01*
X14087Y27093D01*
X13993Y27197D01*
X13896Y27298D01*
X13796Y27396D01*
X13694Y27491D01*
X13589Y27583D01*
X13482Y27673D01*
X13372Y27759D01*
X13259Y27842D01*
X13145Y27922D01*
X13028Y27999D01*
X12909Y28072D01*
X12788Y28142D01*
X12665Y28208D01*
X12540Y28271D01*
X12413Y28331D01*
X12285Y28386D01*
X12156Y28438D01*
X12024Y28487D01*
X11892Y28532D01*
X11758Y28573D01*
X11624Y28610D01*
X11488Y28643D01*
X11351Y28672D01*
X11214Y28698D01*
X11076Y28720D01*
X10937Y28737D01*
X10798Y28751D01*
X10658Y28761D01*
X10519Y28767D01*
X10379Y28769D01*
X11367Y36671D02*
X5440Y36671D01*
X11367Y36671D02*
X11491Y36669D01*
X11615Y36663D01*
X11739Y36653D01*
X11862Y36640D01*
X11985Y36622D01*
X12107Y36601D01*
X12229Y36576D01*
X12350Y36547D01*
X12469Y36514D01*
X12588Y36478D01*
X12705Y36437D01*
X12821Y36394D01*
X12936Y36346D01*
X13049Y36295D01*
X13161Y36240D01*
X13270Y36182D01*
X13378Y36121D01*
X13484Y36056D01*
X13588Y35988D01*
X13689Y35916D01*
X13789Y35842D01*
X13885Y35764D01*
X13980Y35684D01*
X14072Y35600D01*
X14161Y35514D01*
X14247Y35425D01*
X14331Y35333D01*
X14411Y35238D01*
X14489Y35142D01*
X14563Y35042D01*
X14635Y34941D01*
X14703Y34837D01*
X14768Y34731D01*
X14829Y34623D01*
X14887Y34514D01*
X14942Y34402D01*
X14993Y34289D01*
X15041Y34174D01*
X15084Y34058D01*
X15125Y33941D01*
X15161Y33822D01*
X15194Y33703D01*
X15223Y33582D01*
X15248Y33460D01*
X15269Y33338D01*
X15287Y33215D01*
X15300Y33092D01*
X15310Y32968D01*
X15316Y32844D01*
X15318Y32720D01*
X15316Y32596D01*
X15310Y32472D01*
X15300Y32348D01*
X15287Y32225D01*
X15269Y32102D01*
X15248Y31980D01*
X15223Y31858D01*
X15194Y31737D01*
X15161Y31618D01*
X15125Y31499D01*
X15084Y31382D01*
X15041Y31266D01*
X14993Y31151D01*
X14942Y31038D01*
X14887Y30926D01*
X14829Y30817D01*
X14768Y30709D01*
X14703Y30603D01*
X14635Y30499D01*
X14563Y30398D01*
X14489Y30298D01*
X14411Y30202D01*
X14331Y30107D01*
X14247Y30015D01*
X14161Y29926D01*
X14072Y29840D01*
X13980Y29756D01*
X13885Y29676D01*
X13789Y29598D01*
X13689Y29524D01*
X13588Y29452D01*
X13484Y29384D01*
X13378Y29319D01*
X13270Y29258D01*
X13161Y29200D01*
X13049Y29145D01*
X12936Y29094D01*
X12821Y29046D01*
X12705Y29003D01*
X12588Y28962D01*
X12469Y28926D01*
X12350Y28893D01*
X12229Y28864D01*
X12107Y28839D01*
X11985Y28818D01*
X11862Y28800D01*
X11739Y28787D01*
X11615Y28777D01*
X11491Y28771D01*
X11367Y28769D01*
X7415Y28769D01*
X-109150Y70485D02*
X-109150Y88265D01*
X-104211Y88265D01*
X-104071Y88263D01*
X-103932Y88257D01*
X-103792Y88247D01*
X-103653Y88233D01*
X-103514Y88216D01*
X-103376Y88194D01*
X-103239Y88168D01*
X-103102Y88139D01*
X-102966Y88106D01*
X-102832Y88069D01*
X-102698Y88028D01*
X-102566Y87983D01*
X-102434Y87934D01*
X-102305Y87882D01*
X-102177Y87827D01*
X-102050Y87767D01*
X-101925Y87704D01*
X-101802Y87638D01*
X-101681Y87568D01*
X-101562Y87495D01*
X-101445Y87418D01*
X-101331Y87338D01*
X-101218Y87255D01*
X-101108Y87169D01*
X-101001Y87079D01*
X-100896Y86987D01*
X-100794Y86892D01*
X-100694Y86794D01*
X-100597Y86693D01*
X-100503Y86589D01*
X-100413Y86483D01*
X-100325Y86374D01*
X-100240Y86263D01*
X-100159Y86149D01*
X-100080Y86034D01*
X-100005Y85916D01*
X-99934Y85796D01*
X-99866Y85673D01*
X-99801Y85550D01*
X-99740Y85424D01*
X-99682Y85296D01*
X-99628Y85168D01*
X-99578Y85037D01*
X-99531Y84905D01*
X-99488Y84772D01*
X-99449Y84638D01*
X-99414Y84503D01*
X-99383Y84367D01*
X-99355Y84229D01*
X-99332Y84092D01*
X-99312Y83953D01*
X-99296Y83814D01*
X-99284Y83675D01*
X-99276Y83536D01*
X-99272Y83396D01*
X-99272Y83256D01*
X-99276Y83116D01*
X-99284Y82977D01*
X-99296Y82838D01*
X-99312Y82699D01*
X-99332Y82560D01*
X-99355Y82423D01*
X-99383Y82285D01*
X-99414Y82149D01*
X-99449Y82014D01*
X-99488Y81880D01*
X-99531Y81747D01*
X-99578Y81615D01*
X-99628Y81484D01*
X-99682Y81356D01*
X-99740Y81228D01*
X-99801Y81102D01*
X-99866Y80979D01*
X-99934Y80857D01*
X-100005Y80736D01*
X-100080Y80618D01*
X-100159Y80503D01*
X-100240Y80389D01*
X-100325Y80278D01*
X-100413Y80169D01*
X-100503Y80063D01*
X-100597Y79959D01*
X-100694Y79858D01*
X-100794Y79760D01*
X-100896Y79665D01*
X-101001Y79573D01*
X-101108Y79483D01*
X-101218Y79397D01*
X-101331Y79314D01*
X-101445Y79234D01*
X-101562Y79157D01*
X-101681Y79084D01*
X-101802Y79014D01*
X-101925Y78948D01*
X-102050Y78885D01*
X-102177Y78825D01*
X-102305Y78770D01*
X-102434Y78718D01*
X-102566Y78669D01*
X-102698Y78624D01*
X-102832Y78583D01*
X-102966Y78546D01*
X-103102Y78513D01*
X-103239Y78484D01*
X-103376Y78458D01*
X-103514Y78436D01*
X-103653Y78419D01*
X-103792Y78405D01*
X-103932Y78395D01*
X-104071Y78389D01*
X-104211Y78387D01*
X-109150Y78387D01*
X-93155Y74436D02*
X-89204Y88265D01*
X-93155Y74436D02*
X-83277Y74436D01*
X-86241Y78387D02*
X-86241Y70485D01*
X-70908Y77399D02*
X-70908Y83326D01*
X-70908Y77399D02*
X-67450Y72954D01*
X-70908Y77399D02*
X-74365Y72954D01*
X-70908Y77399D02*
X-65475Y79375D01*
X-70908Y77399D02*
X-76340Y79375D01*
X-106599Y216535D02*
X-106599Y234315D01*
X-101660Y234315D01*
X-101520Y234313D01*
X-101381Y234307D01*
X-101241Y234297D01*
X-101102Y234283D01*
X-100963Y234266D01*
X-100825Y234244D01*
X-100688Y234218D01*
X-100551Y234189D01*
X-100415Y234156D01*
X-100281Y234119D01*
X-100147Y234078D01*
X-100015Y234033D01*
X-99883Y233984D01*
X-99754Y233932D01*
X-99626Y233877D01*
X-99499Y233817D01*
X-99374Y233754D01*
X-99251Y233688D01*
X-99130Y233618D01*
X-99011Y233545D01*
X-98894Y233468D01*
X-98780Y233388D01*
X-98667Y233305D01*
X-98557Y233219D01*
X-98450Y233129D01*
X-98345Y233037D01*
X-98243Y232942D01*
X-98143Y232844D01*
X-98046Y232743D01*
X-97952Y232639D01*
X-97862Y232533D01*
X-97774Y232424D01*
X-97689Y232313D01*
X-97608Y232199D01*
X-97529Y232084D01*
X-97454Y231966D01*
X-97383Y231846D01*
X-97315Y231723D01*
X-97250Y231600D01*
X-97189Y231474D01*
X-97131Y231346D01*
X-97077Y231218D01*
X-97027Y231087D01*
X-96980Y230955D01*
X-96937Y230822D01*
X-96898Y230688D01*
X-96863Y230553D01*
X-96832Y230417D01*
X-96804Y230279D01*
X-96781Y230142D01*
X-96761Y230003D01*
X-96745Y229864D01*
X-96733Y229725D01*
X-96725Y229586D01*
X-96721Y229446D01*
X-96721Y229306D01*
X-96725Y229166D01*
X-96733Y229027D01*
X-96745Y228888D01*
X-96761Y228749D01*
X-96781Y228610D01*
X-96804Y228473D01*
X-96832Y228335D01*
X-96863Y228199D01*
X-96898Y228064D01*
X-96937Y227930D01*
X-96980Y227797D01*
X-97027Y227665D01*
X-97077Y227534D01*
X-97131Y227406D01*
X-97189Y227278D01*
X-97250Y227152D01*
X-97315Y227029D01*
X-97383Y226907D01*
X-97454Y226786D01*
X-97529Y226668D01*
X-97608Y226553D01*
X-97689Y226439D01*
X-97774Y226328D01*
X-97862Y226219D01*
X-97952Y226113D01*
X-98046Y226009D01*
X-98143Y225908D01*
X-98243Y225810D01*
X-98345Y225715D01*
X-98450Y225623D01*
X-98557Y225533D01*
X-98667Y225447D01*
X-98780Y225364D01*
X-98894Y225284D01*
X-99011Y225207D01*
X-99130Y225134D01*
X-99251Y225064D01*
X-99374Y224998D01*
X-99499Y224935D01*
X-99626Y224875D01*
X-99754Y224820D01*
X-99883Y224768D01*
X-100015Y224719D01*
X-100147Y224674D01*
X-100281Y224633D01*
X-100415Y224596D01*
X-100551Y224563D01*
X-100688Y224534D01*
X-100825Y224508D01*
X-100963Y224486D01*
X-101102Y224469D01*
X-101241Y224455D01*
X-101381Y224445D01*
X-101520Y224439D01*
X-101660Y224437D01*
X-106599Y224437D01*
X-90604Y216535D02*
X-84677Y216535D01*
X-84553Y216537D01*
X-84429Y216543D01*
X-84305Y216553D01*
X-84182Y216566D01*
X-84059Y216584D01*
X-83937Y216605D01*
X-83815Y216630D01*
X-83694Y216659D01*
X-83575Y216692D01*
X-83456Y216728D01*
X-83339Y216769D01*
X-83223Y216812D01*
X-83108Y216860D01*
X-82995Y216911D01*
X-82883Y216966D01*
X-82774Y217024D01*
X-82666Y217085D01*
X-82560Y217150D01*
X-82456Y217218D01*
X-82355Y217290D01*
X-82255Y217364D01*
X-82159Y217442D01*
X-82064Y217522D01*
X-81972Y217606D01*
X-81883Y217692D01*
X-81797Y217781D01*
X-81713Y217873D01*
X-81633Y217968D01*
X-81555Y218064D01*
X-81481Y218164D01*
X-81409Y218265D01*
X-81341Y218369D01*
X-81276Y218475D01*
X-81215Y218583D01*
X-81157Y218692D01*
X-81102Y218804D01*
X-81051Y218917D01*
X-81003Y219032D01*
X-80960Y219148D01*
X-80919Y219265D01*
X-80883Y219384D01*
X-80850Y219503D01*
X-80821Y219624D01*
X-80796Y219746D01*
X-80775Y219868D01*
X-80757Y219991D01*
X-80744Y220114D01*
X-80734Y220238D01*
X-80728Y220362D01*
X-80726Y220486D01*
X-80726Y222462D01*
X-80728Y222586D01*
X-80734Y222710D01*
X-80744Y222834D01*
X-80757Y222957D01*
X-80775Y223080D01*
X-80796Y223202D01*
X-80821Y223324D01*
X-80850Y223445D01*
X-80883Y223564D01*
X-80919Y223683D01*
X-80960Y223800D01*
X-81003Y223916D01*
X-81051Y224031D01*
X-81102Y224144D01*
X-81157Y224256D01*
X-81215Y224365D01*
X-81276Y224473D01*
X-81341Y224579D01*
X-81409Y224683D01*
X-81481Y224784D01*
X-81555Y224884D01*
X-81633Y224980D01*
X-81713Y225075D01*
X-81797Y225167D01*
X-81883Y225256D01*
X-81972Y225342D01*
X-82064Y225426D01*
X-82159Y225506D01*
X-82255Y225584D01*
X-82355Y225658D01*
X-82456Y225730D01*
X-82560Y225798D01*
X-82666Y225863D01*
X-82774Y225924D01*
X-82883Y225982D01*
X-82995Y226037D01*
X-83108Y226088D01*
X-83223Y226136D01*
X-83339Y226179D01*
X-83456Y226220D01*
X-83575Y226256D01*
X-83694Y226289D01*
X-83815Y226318D01*
X-83937Y226343D01*
X-84059Y226364D01*
X-84182Y226382D01*
X-84305Y226395D01*
X-84429Y226405D01*
X-84553Y226411D01*
X-84677Y226413D01*
X-90604Y226413D01*
X-90604Y234315D01*
X-80726Y234315D01*
X73498Y155607D02*
X73498Y137827D01*
X73498Y155607D02*
X78437Y155607D01*
X78577Y155605D01*
X78716Y155599D01*
X78856Y155589D01*
X78995Y155575D01*
X79134Y155558D01*
X79272Y155536D01*
X79409Y155510D01*
X79546Y155481D01*
X79682Y155448D01*
X79816Y155411D01*
X79950Y155370D01*
X80082Y155325D01*
X80214Y155276D01*
X80343Y155224D01*
X80471Y155169D01*
X80598Y155109D01*
X80723Y155046D01*
X80846Y154980D01*
X80967Y154910D01*
X81086Y154837D01*
X81203Y154760D01*
X81317Y154680D01*
X81430Y154597D01*
X81540Y154511D01*
X81647Y154421D01*
X81752Y154329D01*
X81854Y154234D01*
X81954Y154136D01*
X82051Y154035D01*
X82145Y153931D01*
X82235Y153825D01*
X82323Y153716D01*
X82408Y153605D01*
X82489Y153491D01*
X82568Y153376D01*
X82643Y153258D01*
X82714Y153138D01*
X82782Y153015D01*
X82847Y152892D01*
X82908Y152766D01*
X82966Y152638D01*
X83020Y152510D01*
X83070Y152379D01*
X83117Y152247D01*
X83160Y152114D01*
X83199Y151980D01*
X83234Y151845D01*
X83265Y151709D01*
X83293Y151571D01*
X83316Y151434D01*
X83336Y151295D01*
X83352Y151156D01*
X83364Y151017D01*
X83372Y150878D01*
X83376Y150738D01*
X83376Y150598D01*
X83372Y150458D01*
X83364Y150319D01*
X83352Y150180D01*
X83336Y150041D01*
X83316Y149902D01*
X83293Y149765D01*
X83265Y149627D01*
X83234Y149491D01*
X83199Y149356D01*
X83160Y149222D01*
X83117Y149089D01*
X83070Y148957D01*
X83020Y148826D01*
X82966Y148698D01*
X82908Y148570D01*
X82847Y148444D01*
X82782Y148321D01*
X82714Y148199D01*
X82643Y148078D01*
X82568Y147960D01*
X82489Y147845D01*
X82408Y147731D01*
X82323Y147620D01*
X82235Y147511D01*
X82145Y147405D01*
X82051Y147301D01*
X81954Y147200D01*
X81854Y147102D01*
X81752Y147007D01*
X81647Y146915D01*
X81540Y146825D01*
X81430Y146739D01*
X81317Y146656D01*
X81203Y146576D01*
X81086Y146499D01*
X80967Y146426D01*
X80846Y146356D01*
X80723Y146290D01*
X80598Y146227D01*
X80471Y146167D01*
X80343Y146112D01*
X80214Y146060D01*
X80082Y146011D01*
X79950Y145966D01*
X79816Y145925D01*
X79682Y145888D01*
X79546Y145855D01*
X79409Y145826D01*
X79272Y145800D01*
X79134Y145778D01*
X78995Y145761D01*
X78856Y145747D01*
X78716Y145737D01*
X78577Y145731D01*
X78437Y145729D01*
X73498Y145729D01*
X79424Y145729D02*
X83376Y137827D01*
X-74468Y174152D02*
X-79407Y174152D01*
X-74468Y174152D02*
X-74328Y174150D01*
X-74189Y174144D01*
X-74049Y174134D01*
X-73910Y174120D01*
X-73771Y174103D01*
X-73633Y174081D01*
X-73496Y174055D01*
X-73359Y174026D01*
X-73223Y173993D01*
X-73089Y173956D01*
X-72955Y173915D01*
X-72823Y173870D01*
X-72691Y173821D01*
X-72562Y173769D01*
X-72434Y173714D01*
X-72307Y173654D01*
X-72182Y173591D01*
X-72059Y173525D01*
X-71938Y173455D01*
X-71819Y173382D01*
X-71702Y173305D01*
X-71588Y173225D01*
X-71475Y173142D01*
X-71365Y173056D01*
X-71258Y172966D01*
X-71153Y172874D01*
X-71051Y172779D01*
X-70951Y172681D01*
X-70854Y172580D01*
X-70760Y172476D01*
X-70670Y172370D01*
X-70582Y172261D01*
X-70497Y172150D01*
X-70416Y172036D01*
X-70337Y171921D01*
X-70262Y171803D01*
X-70191Y171683D01*
X-70123Y171560D01*
X-70058Y171437D01*
X-69997Y171311D01*
X-69939Y171183D01*
X-69885Y171055D01*
X-69835Y170924D01*
X-69788Y170792D01*
X-69745Y170659D01*
X-69706Y170525D01*
X-69671Y170390D01*
X-69640Y170254D01*
X-69612Y170116D01*
X-69589Y169979D01*
X-69569Y169840D01*
X-69553Y169701D01*
X-69541Y169562D01*
X-69533Y169423D01*
X-69529Y169283D01*
X-69529Y169143D01*
X-69533Y169003D01*
X-69541Y168864D01*
X-69553Y168725D01*
X-69569Y168586D01*
X-69589Y168447D01*
X-69612Y168310D01*
X-69640Y168172D01*
X-69671Y168036D01*
X-69706Y167901D01*
X-69745Y167767D01*
X-69788Y167634D01*
X-69835Y167502D01*
X-69885Y167371D01*
X-69939Y167243D01*
X-69997Y167115D01*
X-70058Y166989D01*
X-70123Y166866D01*
X-70191Y166744D01*
X-70262Y166623D01*
X-70337Y166505D01*
X-70416Y166390D01*
X-70497Y166276D01*
X-70582Y166165D01*
X-70670Y166056D01*
X-70760Y165950D01*
X-70854Y165846D01*
X-70951Y165745D01*
X-71051Y165647D01*
X-71153Y165552D01*
X-71258Y165460D01*
X-71365Y165370D01*
X-71475Y165284D01*
X-71588Y165201D01*
X-71702Y165121D01*
X-71819Y165044D01*
X-71938Y164971D01*
X-72059Y164901D01*
X-72182Y164835D01*
X-72307Y164772D01*
X-72434Y164712D01*
X-72562Y164657D01*
X-72691Y164605D01*
X-72823Y164556D01*
X-72955Y164511D01*
X-73089Y164470D01*
X-73223Y164433D01*
X-73359Y164400D01*
X-73496Y164371D01*
X-73633Y164345D01*
X-73771Y164323D01*
X-73910Y164306D01*
X-74049Y164292D01*
X-74189Y164282D01*
X-74328Y164276D01*
X-74468Y164274D01*
X-74468Y164275D02*
X-79407Y164275D01*
X-79407Y182055D01*
X-74468Y182055D01*
X-74468Y182054D02*
X-74344Y182052D01*
X-74220Y182046D01*
X-74096Y182036D01*
X-73973Y182023D01*
X-73850Y182005D01*
X-73728Y181984D01*
X-73606Y181959D01*
X-73485Y181930D01*
X-73366Y181897D01*
X-73247Y181861D01*
X-73130Y181820D01*
X-73014Y181777D01*
X-72899Y181729D01*
X-72786Y181678D01*
X-72674Y181623D01*
X-72565Y181565D01*
X-72457Y181504D01*
X-72351Y181439D01*
X-72247Y181371D01*
X-72146Y181299D01*
X-72046Y181225D01*
X-71950Y181147D01*
X-71855Y181067D01*
X-71763Y180983D01*
X-71674Y180897D01*
X-71588Y180808D01*
X-71504Y180716D01*
X-71424Y180621D01*
X-71346Y180525D01*
X-71272Y180425D01*
X-71200Y180324D01*
X-71132Y180220D01*
X-71067Y180114D01*
X-71006Y180006D01*
X-70948Y179897D01*
X-70893Y179785D01*
X-70842Y179672D01*
X-70794Y179557D01*
X-70751Y179441D01*
X-70710Y179324D01*
X-70674Y179205D01*
X-70641Y179086D01*
X-70612Y178965D01*
X-70587Y178843D01*
X-70566Y178721D01*
X-70548Y178598D01*
X-70535Y178475D01*
X-70525Y178351D01*
X-70519Y178227D01*
X-70517Y178103D01*
X-70519Y177979D01*
X-70525Y177855D01*
X-70535Y177731D01*
X-70548Y177608D01*
X-70566Y177485D01*
X-70587Y177363D01*
X-70612Y177241D01*
X-70641Y177120D01*
X-70674Y177001D01*
X-70710Y176882D01*
X-70751Y176765D01*
X-70794Y176649D01*
X-70842Y176534D01*
X-70893Y176421D01*
X-70948Y176309D01*
X-71006Y176200D01*
X-71067Y176092D01*
X-71132Y175986D01*
X-71200Y175882D01*
X-71272Y175781D01*
X-71346Y175681D01*
X-71424Y175585D01*
X-71504Y175490D01*
X-71588Y175398D01*
X-71674Y175309D01*
X-71763Y175223D01*
X-71855Y175139D01*
X-71950Y175059D01*
X-72046Y174981D01*
X-72146Y174907D01*
X-72247Y174835D01*
X-72351Y174767D01*
X-72457Y174702D01*
X-72565Y174641D01*
X-72674Y174583D01*
X-72786Y174528D01*
X-72899Y174477D01*
X-73014Y174429D01*
X-73130Y174386D01*
X-73247Y174345D01*
X-73366Y174309D01*
X-73485Y174276D01*
X-73606Y174247D01*
X-73728Y174222D01*
X-73850Y174201D01*
X-73973Y174183D01*
X-74096Y174170D01*
X-74220Y174160D01*
X-74344Y174154D01*
X-74468Y174152D01*
X-79407Y129667D02*
X-79407Y111887D01*
X-79407Y129667D02*
X-74468Y129667D01*
X-74329Y129665D01*
X-74191Y129659D01*
X-74053Y129650D01*
X-73915Y129636D01*
X-73778Y129619D01*
X-73641Y129597D01*
X-73504Y129572D01*
X-73369Y129543D01*
X-73234Y129510D01*
X-73101Y129474D01*
X-72968Y129434D01*
X-72837Y129390D01*
X-72707Y129342D01*
X-72578Y129291D01*
X-72451Y129236D01*
X-72325Y129178D01*
X-72201Y129116D01*
X-72079Y129051D01*
X-71959Y128982D01*
X-71840Y128910D01*
X-71724Y128835D01*
X-71610Y128756D01*
X-71498Y128674D01*
X-71389Y128589D01*
X-71281Y128502D01*
X-71177Y128411D01*
X-71075Y128317D01*
X-70976Y128220D01*
X-70879Y128121D01*
X-70785Y128019D01*
X-70694Y127915D01*
X-70607Y127807D01*
X-70522Y127698D01*
X-70440Y127586D01*
X-70361Y127472D01*
X-70286Y127356D01*
X-70214Y127237D01*
X-70145Y127117D01*
X-70080Y126995D01*
X-70018Y126871D01*
X-69960Y126745D01*
X-69905Y126618D01*
X-69854Y126489D01*
X-69806Y126359D01*
X-69762Y126228D01*
X-69722Y126095D01*
X-69686Y125962D01*
X-69653Y125827D01*
X-69624Y125692D01*
X-69599Y125555D01*
X-69577Y125418D01*
X-69560Y125281D01*
X-69546Y125143D01*
X-69537Y125005D01*
X-69531Y124867D01*
X-69529Y124728D01*
X-69529Y116826D01*
X-69531Y116687D01*
X-69537Y116549D01*
X-69546Y116411D01*
X-69560Y116273D01*
X-69577Y116136D01*
X-69599Y115999D01*
X-69624Y115862D01*
X-69653Y115727D01*
X-69686Y115592D01*
X-69722Y115459D01*
X-69762Y115326D01*
X-69806Y115195D01*
X-69854Y115065D01*
X-69905Y114936D01*
X-69960Y114809D01*
X-70018Y114683D01*
X-70080Y114559D01*
X-70145Y114437D01*
X-70214Y114317D01*
X-70286Y114198D01*
X-70361Y114082D01*
X-70440Y113968D01*
X-70522Y113856D01*
X-70607Y113747D01*
X-70694Y113639D01*
X-70785Y113535D01*
X-70879Y113433D01*
X-70976Y113334D01*
X-71075Y113237D01*
X-71177Y113143D01*
X-71281Y113052D01*
X-71389Y112965D01*
X-71498Y112880D01*
X-71610Y112798D01*
X-71724Y112719D01*
X-71840Y112644D01*
X-71959Y112572D01*
X-72079Y112503D01*
X-72201Y112438D01*
X-72325Y112376D01*
X-72451Y112318D01*
X-72578Y112263D01*
X-72707Y112212D01*
X-72837Y112164D01*
X-72968Y112120D01*
X-73101Y112080D01*
X-73234Y112044D01*
X-73369Y112011D01*
X-73504Y111982D01*
X-73641Y111957D01*
X-73778Y111935D01*
X-73915Y111918D01*
X-74053Y111904D01*
X-74191Y111895D01*
X-74329Y111889D01*
X-74468Y111887D01*
X-79407Y111887D01*
X-75456Y137287D02*
X-71505Y137287D01*
X-75456Y137287D02*
X-75580Y137289D01*
X-75704Y137295D01*
X-75828Y137305D01*
X-75951Y137318D01*
X-76074Y137336D01*
X-76196Y137357D01*
X-76318Y137382D01*
X-76439Y137411D01*
X-76558Y137444D01*
X-76677Y137480D01*
X-76794Y137521D01*
X-76910Y137564D01*
X-77025Y137612D01*
X-77138Y137663D01*
X-77250Y137718D01*
X-77359Y137776D01*
X-77467Y137837D01*
X-77573Y137902D01*
X-77677Y137970D01*
X-77778Y138042D01*
X-77878Y138116D01*
X-77974Y138194D01*
X-78069Y138274D01*
X-78161Y138358D01*
X-78250Y138444D01*
X-78336Y138533D01*
X-78420Y138625D01*
X-78500Y138720D01*
X-78578Y138816D01*
X-78652Y138916D01*
X-78724Y139017D01*
X-78792Y139121D01*
X-78857Y139227D01*
X-78918Y139335D01*
X-78976Y139444D01*
X-79031Y139556D01*
X-79082Y139669D01*
X-79130Y139784D01*
X-79173Y139900D01*
X-79214Y140017D01*
X-79250Y140136D01*
X-79283Y140255D01*
X-79312Y140376D01*
X-79337Y140498D01*
X-79358Y140620D01*
X-79376Y140743D01*
X-79389Y140866D01*
X-79399Y140990D01*
X-79405Y141114D01*
X-79407Y141238D01*
X-79407Y151116D01*
X-79405Y151240D01*
X-79399Y151364D01*
X-79389Y151488D01*
X-79376Y151611D01*
X-79358Y151734D01*
X-79337Y151856D01*
X-79312Y151978D01*
X-79283Y152099D01*
X-79250Y152218D01*
X-79214Y152337D01*
X-79173Y152454D01*
X-79130Y152570D01*
X-79082Y152685D01*
X-79031Y152798D01*
X-78976Y152910D01*
X-78918Y153019D01*
X-78857Y153127D01*
X-78792Y153233D01*
X-78724Y153337D01*
X-78652Y153438D01*
X-78578Y153538D01*
X-78500Y153634D01*
X-78420Y153729D01*
X-78336Y153821D01*
X-78250Y153910D01*
X-78161Y153996D01*
X-78069Y154080D01*
X-77974Y154160D01*
X-77878Y154238D01*
X-77778Y154312D01*
X-77677Y154384D01*
X-77573Y154452D01*
X-77467Y154517D01*
X-77359Y154578D01*
X-77250Y154636D01*
X-77138Y154691D01*
X-77025Y154742D01*
X-76911Y154790D01*
X-76794Y154833D01*
X-76677Y154874D01*
X-76558Y154910D01*
X-76439Y154943D01*
X-76318Y154972D01*
X-76196Y154997D01*
X-76074Y155018D01*
X-75951Y155036D01*
X-75828Y155049D01*
X-75704Y155059D01*
X-75580Y155065D01*
X-75456Y155067D01*
X-71505Y155067D01*
X67062Y86678D02*
X67062Y68898D01*
X67062Y86678D02*
X72001Y86678D01*
X72141Y86676D01*
X72280Y86670D01*
X72420Y86660D01*
X72559Y86646D01*
X72698Y86629D01*
X72836Y86607D01*
X72973Y86581D01*
X73110Y86552D01*
X73246Y86519D01*
X73380Y86482D01*
X73514Y86441D01*
X73646Y86396D01*
X73778Y86347D01*
X73907Y86295D01*
X74035Y86240D01*
X74162Y86180D01*
X74287Y86117D01*
X74410Y86051D01*
X74531Y85981D01*
X74650Y85908D01*
X74767Y85831D01*
X74881Y85751D01*
X74994Y85668D01*
X75104Y85582D01*
X75211Y85492D01*
X75316Y85400D01*
X75418Y85305D01*
X75518Y85207D01*
X75615Y85106D01*
X75709Y85002D01*
X75799Y84896D01*
X75887Y84787D01*
X75972Y84676D01*
X76053Y84562D01*
X76132Y84447D01*
X76207Y84329D01*
X76278Y84209D01*
X76346Y84086D01*
X76411Y83963D01*
X76472Y83837D01*
X76530Y83709D01*
X76584Y83581D01*
X76634Y83450D01*
X76681Y83318D01*
X76724Y83185D01*
X76763Y83051D01*
X76798Y82916D01*
X76829Y82780D01*
X76857Y82642D01*
X76880Y82505D01*
X76900Y82366D01*
X76916Y82227D01*
X76928Y82088D01*
X76936Y81949D01*
X76940Y81809D01*
X76940Y81669D01*
X76936Y81529D01*
X76928Y81390D01*
X76916Y81251D01*
X76900Y81112D01*
X76880Y80973D01*
X76857Y80836D01*
X76829Y80698D01*
X76798Y80562D01*
X76763Y80427D01*
X76724Y80293D01*
X76681Y80160D01*
X76634Y80028D01*
X76584Y79897D01*
X76530Y79769D01*
X76472Y79641D01*
X76411Y79515D01*
X76346Y79392D01*
X76278Y79270D01*
X76207Y79149D01*
X76132Y79031D01*
X76053Y78916D01*
X75972Y78802D01*
X75887Y78691D01*
X75799Y78582D01*
X75709Y78476D01*
X75615Y78372D01*
X75518Y78271D01*
X75418Y78173D01*
X75316Y78078D01*
X75211Y77986D01*
X75104Y77896D01*
X74994Y77810D01*
X74881Y77727D01*
X74767Y77647D01*
X74650Y77570D01*
X74531Y77497D01*
X74410Y77427D01*
X74287Y77361D01*
X74162Y77298D01*
X74035Y77238D01*
X73907Y77183D01*
X73778Y77131D01*
X73646Y77082D01*
X73514Y77037D01*
X73380Y76996D01*
X73246Y76959D01*
X73110Y76926D01*
X72973Y76897D01*
X72836Y76871D01*
X72698Y76849D01*
X72559Y76832D01*
X72420Y76818D01*
X72280Y76808D01*
X72141Y76802D01*
X72001Y76800D01*
X67062Y76800D01*
X88490Y86678D02*
X88622Y86676D01*
X88753Y86670D01*
X88885Y86660D01*
X89016Y86647D01*
X89146Y86629D01*
X89276Y86608D01*
X89406Y86583D01*
X89534Y86554D01*
X89662Y86521D01*
X89788Y86484D01*
X89914Y86444D01*
X90038Y86400D01*
X90161Y86352D01*
X90282Y86301D01*
X90402Y86246D01*
X90520Y86188D01*
X90636Y86126D01*
X90750Y86060D01*
X90863Y85992D01*
X90973Y85920D01*
X91081Y85845D01*
X91187Y85766D01*
X91291Y85685D01*
X91392Y85600D01*
X91490Y85513D01*
X91586Y85422D01*
X91679Y85329D01*
X91770Y85233D01*
X91857Y85135D01*
X91942Y85034D01*
X92023Y84930D01*
X92102Y84824D01*
X92177Y84716D01*
X92249Y84606D01*
X92317Y84493D01*
X92383Y84379D01*
X92445Y84263D01*
X92503Y84145D01*
X92558Y84025D01*
X92609Y83904D01*
X92657Y83781D01*
X92701Y83657D01*
X92741Y83531D01*
X92778Y83405D01*
X92811Y83277D01*
X92840Y83149D01*
X92865Y83019D01*
X92886Y82889D01*
X92904Y82759D01*
X92917Y82628D01*
X92927Y82496D01*
X92933Y82365D01*
X92935Y82233D01*
X88490Y86678D02*
X88340Y86676D01*
X88191Y86670D01*
X88042Y86660D01*
X87893Y86647D01*
X87744Y86629D01*
X87596Y86608D01*
X87448Y86582D01*
X87302Y86553D01*
X87156Y86520D01*
X87011Y86483D01*
X86867Y86442D01*
X86724Y86398D01*
X86582Y86350D01*
X86442Y86298D01*
X86303Y86243D01*
X86165Y86184D01*
X86030Y86121D01*
X85895Y86055D01*
X85763Y85985D01*
X85633Y85912D01*
X85504Y85835D01*
X85377Y85755D01*
X85253Y85672D01*
X85131Y85586D01*
X85011Y85496D01*
X84894Y85403D01*
X84779Y85308D01*
X84666Y85209D01*
X84556Y85107D01*
X84449Y85003D01*
X84345Y84896D01*
X84243Y84786D01*
X84145Y84673D01*
X84049Y84558D01*
X83957Y84440D01*
X83867Y84320D01*
X83781Y84198D01*
X83698Y84074D01*
X83618Y83947D01*
X83542Y83819D01*
X83469Y83688D01*
X83399Y83555D01*
X83333Y83421D01*
X83271Y83285D01*
X83212Y83148D01*
X83156Y83009D01*
X83105Y82868D01*
X83057Y82727D01*
X91453Y78776D02*
X91549Y78869D01*
X91641Y78965D01*
X91731Y79064D01*
X91818Y79165D01*
X91903Y79268D01*
X91984Y79373D01*
X92062Y79481D01*
X92137Y79591D01*
X92210Y79703D01*
X92279Y79817D01*
X92345Y79933D01*
X92407Y80051D01*
X92466Y80170D01*
X92522Y80291D01*
X92575Y80414D01*
X92624Y80538D01*
X92669Y80663D01*
X92712Y80790D01*
X92750Y80917D01*
X92785Y81046D01*
X92816Y81175D01*
X92844Y81306D01*
X92868Y81437D01*
X92889Y81569D01*
X92905Y81701D01*
X92918Y81834D01*
X92928Y81967D01*
X92933Y82100D01*
X92935Y82233D01*
X91453Y78775D02*
X83057Y68898D01*
X92935Y68898D01*
X105305Y75812D02*
X105305Y81739D01*
X105305Y75812D02*
X108762Y71367D01*
X105305Y75812D02*
X101848Y71367D01*
X105305Y75812D02*
X110738Y77788D01*
X105305Y75812D02*
X99872Y77788D01*
D12*
X-50681Y57944D02*
X-50681Y55444D01*
X-50681Y57944D02*
X-50681Y60444D01*
X-50681Y57944D02*
X-55681Y55444D01*
X-55681Y60444D02*
X-50681Y57944D01*
X-55681Y60444D02*
X-55681Y55444D01*
D13*
X-58835Y48270D02*
X-58835Y40904D01*
X-58835Y48270D02*
X-56789Y48270D01*
X-56700Y48268D01*
X-56611Y48262D01*
X-56522Y48252D01*
X-56434Y48239D01*
X-56346Y48222D01*
X-56259Y48200D01*
X-56174Y48175D01*
X-56089Y48147D01*
X-56006Y48114D01*
X-55924Y48078D01*
X-55844Y48039D01*
X-55766Y47996D01*
X-55690Y47950D01*
X-55615Y47900D01*
X-55543Y47847D01*
X-55474Y47791D01*
X-55407Y47732D01*
X-55342Y47671D01*
X-55281Y47606D01*
X-55222Y47539D01*
X-55166Y47470D01*
X-55113Y47398D01*
X-55063Y47323D01*
X-55017Y47247D01*
X-54974Y47169D01*
X-54935Y47089D01*
X-54899Y47007D01*
X-54866Y46924D01*
X-54838Y46839D01*
X-54813Y46754D01*
X-54791Y46667D01*
X-54774Y46579D01*
X-54761Y46491D01*
X-54751Y46402D01*
X-54745Y46313D01*
X-54743Y46224D01*
X-54743Y42950D01*
X-54745Y42861D01*
X-54751Y42772D01*
X-54761Y42683D01*
X-54774Y42595D01*
X-54791Y42507D01*
X-54813Y42420D01*
X-54838Y42335D01*
X-54866Y42250D01*
X-54899Y42167D01*
X-54935Y42085D01*
X-54974Y42005D01*
X-55017Y41927D01*
X-55063Y41851D01*
X-55113Y41776D01*
X-55166Y41704D01*
X-55222Y41635D01*
X-55281Y41568D01*
X-55342Y41503D01*
X-55407Y41442D01*
X-55474Y41383D01*
X-55543Y41327D01*
X-55615Y41274D01*
X-55690Y41224D01*
X-55766Y41178D01*
X-55844Y41135D01*
X-55924Y41096D01*
X-56006Y41060D01*
X-56089Y41027D01*
X-56174Y40999D01*
X-56259Y40974D01*
X-56346Y40952D01*
X-56434Y40935D01*
X-56522Y40922D01*
X-56611Y40912D01*
X-56700Y40906D01*
X-56789Y40904D01*
X-58835Y40904D01*
X-51276Y46633D02*
X-49230Y48270D01*
X-49230Y40904D01*
X-51276Y40904D02*
X-47184Y40904D01*
D11*
X95250Y159544D02*
X107950Y159544D01*
X114300Y153194D01*
X114300Y140494D01*
X107950Y134144D01*
X88900Y140494D02*
X88900Y153194D01*
X95250Y159544D01*
X88900Y140494D02*
X95250Y134144D01*
X107950Y134144D01*
D14*
X33465Y65088D02*
X26861Y65088D01*
D13*
X27666Y73192D02*
X29303Y73192D01*
X27666Y73192D02*
X27588Y73194D01*
X27510Y73199D01*
X27433Y73209D01*
X27356Y73222D01*
X27280Y73238D01*
X27205Y73258D01*
X27131Y73282D01*
X27058Y73309D01*
X26986Y73340D01*
X26916Y73374D01*
X26847Y73411D01*
X26781Y73452D01*
X26716Y73496D01*
X26654Y73542D01*
X26594Y73592D01*
X26536Y73644D01*
X26481Y73699D01*
X26429Y73757D01*
X26379Y73817D01*
X26333Y73879D01*
X26289Y73944D01*
X26248Y74011D01*
X26211Y74079D01*
X26177Y74149D01*
X26146Y74221D01*
X26119Y74294D01*
X26095Y74368D01*
X26075Y74443D01*
X26059Y74519D01*
X26046Y74596D01*
X26036Y74673D01*
X26031Y74751D01*
X26029Y74829D01*
X26029Y78921D01*
X26031Y79001D01*
X26037Y79081D01*
X26047Y79161D01*
X26060Y79240D01*
X26078Y79319D01*
X26099Y79396D01*
X26125Y79472D01*
X26154Y79547D01*
X26186Y79621D01*
X26222Y79693D01*
X26262Y79763D01*
X26305Y79830D01*
X26351Y79896D01*
X26401Y79959D01*
X26453Y80020D01*
X26508Y80079D01*
X26567Y80134D01*
X26627Y80186D01*
X26691Y80236D01*
X26757Y80282D01*
X26824Y80325D01*
X26894Y80365D01*
X26966Y80401D01*
X27040Y80433D01*
X27114Y80462D01*
X27191Y80488D01*
X27268Y80509D01*
X27347Y80527D01*
X27426Y80540D01*
X27506Y80550D01*
X27586Y80556D01*
X27666Y80558D01*
X29303Y80558D01*
X32148Y77284D02*
X34604Y77284D01*
X34682Y77282D01*
X34760Y77277D01*
X34837Y77267D01*
X34914Y77254D01*
X34990Y77238D01*
X35065Y77218D01*
X35139Y77194D01*
X35212Y77167D01*
X35284Y77136D01*
X35354Y77102D01*
X35423Y77065D01*
X35489Y77024D01*
X35554Y76980D01*
X35616Y76934D01*
X35676Y76884D01*
X35734Y76832D01*
X35789Y76777D01*
X35841Y76719D01*
X35891Y76659D01*
X35937Y76597D01*
X35981Y76532D01*
X36022Y76466D01*
X36059Y76397D01*
X36093Y76327D01*
X36124Y76255D01*
X36151Y76182D01*
X36175Y76108D01*
X36195Y76033D01*
X36211Y75957D01*
X36224Y75880D01*
X36234Y75803D01*
X36239Y75725D01*
X36241Y75647D01*
X36240Y75647D02*
X36240Y75238D01*
X36238Y75149D01*
X36232Y75060D01*
X36222Y74971D01*
X36209Y74883D01*
X36192Y74795D01*
X36170Y74708D01*
X36145Y74623D01*
X36117Y74538D01*
X36084Y74455D01*
X36048Y74373D01*
X36009Y74293D01*
X35966Y74215D01*
X35920Y74139D01*
X35870Y74064D01*
X35817Y73992D01*
X35761Y73923D01*
X35702Y73856D01*
X35641Y73791D01*
X35576Y73730D01*
X35509Y73671D01*
X35440Y73615D01*
X35368Y73562D01*
X35293Y73512D01*
X35217Y73466D01*
X35139Y73423D01*
X35059Y73384D01*
X34977Y73348D01*
X34894Y73315D01*
X34809Y73287D01*
X34724Y73262D01*
X34637Y73240D01*
X34549Y73223D01*
X34461Y73210D01*
X34372Y73200D01*
X34283Y73194D01*
X34194Y73192D01*
X34105Y73194D01*
X34016Y73200D01*
X33927Y73210D01*
X33839Y73223D01*
X33751Y73240D01*
X33664Y73262D01*
X33579Y73287D01*
X33494Y73315D01*
X33411Y73348D01*
X33329Y73384D01*
X33249Y73423D01*
X33171Y73466D01*
X33095Y73512D01*
X33020Y73562D01*
X32948Y73615D01*
X32879Y73671D01*
X32812Y73730D01*
X32747Y73791D01*
X32686Y73856D01*
X32627Y73923D01*
X32571Y73992D01*
X32518Y74064D01*
X32468Y74139D01*
X32422Y74215D01*
X32379Y74293D01*
X32340Y74373D01*
X32304Y74455D01*
X32271Y74538D01*
X32243Y74623D01*
X32218Y74708D01*
X32196Y74795D01*
X32179Y74883D01*
X32166Y74971D01*
X32156Y75060D01*
X32150Y75149D01*
X32148Y75238D01*
X32148Y77284D01*
X32150Y77398D01*
X32156Y77512D01*
X32166Y77626D01*
X32180Y77740D01*
X32198Y77853D01*
X32220Y77965D01*
X32245Y78076D01*
X32275Y78186D01*
X32308Y78296D01*
X32345Y78404D01*
X32386Y78510D01*
X32431Y78616D01*
X32479Y78719D01*
X32531Y78821D01*
X32587Y78921D01*
X32645Y79019D01*
X32708Y79115D01*
X32773Y79208D01*
X32842Y79300D01*
X32914Y79388D01*
X32989Y79475D01*
X33067Y79558D01*
X33148Y79639D01*
X33231Y79717D01*
X33318Y79792D01*
X33406Y79864D01*
X33498Y79933D01*
X33591Y79998D01*
X33687Y80060D01*
X33785Y80119D01*
X33885Y80175D01*
X33987Y80227D01*
X34090Y80275D01*
X34196Y80320D01*
X34302Y80361D01*
X34410Y80398D01*
X34520Y80431D01*
X34630Y80461D01*
X34741Y80486D01*
X34853Y80508D01*
X34966Y80526D01*
X35080Y80540D01*
X35194Y80550D01*
X35308Y80556D01*
X35422Y80558D01*
D11*
X-84931Y165894D02*
X-84931Y178594D01*
X-84931Y165894D02*
X-91281Y159544D01*
X-103981Y159544D01*
X-110331Y165894D01*
X-91281Y159544D02*
X-84931Y153194D01*
X-84931Y140494D01*
X-91281Y134144D01*
X-103981Y134144D01*
X-110331Y140494D01*
X-110331Y153194D01*
X-103981Y159544D01*
X-103981Y184944D02*
X-91281Y184944D01*
X-84931Y178594D01*
X-103981Y184944D02*
X-110331Y178594D01*
X-110331Y165894D01*
X-91281Y134144D02*
X-84931Y127794D01*
X-84931Y115094D01*
X-91281Y108744D01*
X-103981Y108744D01*
X-110331Y115094D01*
X-110331Y127794D01*
X-103981Y134144D01*
D15*
X-25619Y261313D02*
X-25619Y294313D01*
X30381Y294313D02*
X30381Y261313D01*
X-24246Y255623D02*
X-24244Y255672D01*
X-24238Y255720D01*
X-24228Y255768D01*
X-24214Y255814D01*
X-24197Y255860D01*
X-24176Y255904D01*
X-24151Y255946D01*
X-24123Y255986D01*
X-24092Y256023D01*
X-24058Y256058D01*
X-24021Y256090D01*
X-23982Y256119D01*
X-23940Y256144D01*
X-23897Y256166D01*
X-23852Y256184D01*
X-23805Y256199D01*
X-23758Y256210D01*
X-23710Y256217D01*
X-23661Y256220D01*
X-23612Y256219D01*
X-23564Y256214D01*
X-23516Y256205D01*
X-23469Y256192D01*
X-23423Y256176D01*
X-23379Y256155D01*
X-23337Y256132D01*
X-23296Y256105D01*
X-23258Y256074D01*
X-23223Y256041D01*
X-23190Y256005D01*
X-23160Y255966D01*
X-23134Y255925D01*
X-23111Y255882D01*
X-23092Y255837D01*
X-23076Y255791D01*
X-23064Y255744D01*
X-23056Y255696D01*
X-23052Y255647D01*
X-23052Y255599D01*
X-23056Y255550D01*
X-23064Y255502D01*
X-23076Y255455D01*
X-23092Y255409D01*
X-23111Y255364D01*
X-23134Y255321D01*
X-23160Y255280D01*
X-23190Y255241D01*
X-23223Y255205D01*
X-23258Y255172D01*
X-23296Y255141D01*
X-23337Y255114D01*
X-23379Y255091D01*
X-23423Y255070D01*
X-23469Y255054D01*
X-23516Y255041D01*
X-23564Y255032D01*
X-23612Y255027D01*
X-23661Y255026D01*
X-23710Y255029D01*
X-23758Y255036D01*
X-23805Y255047D01*
X-23852Y255062D01*
X-23897Y255080D01*
X-23940Y255102D01*
X-23982Y255127D01*
X-24021Y255156D01*
X-24058Y255188D01*
X-24092Y255223D01*
X-24123Y255260D01*
X-24151Y255300D01*
X-24176Y255342D01*
X-24197Y255386D01*
X-24214Y255432D01*
X-24228Y255478D01*
X-24238Y255526D01*
X-24244Y255574D01*
X-24246Y255623D01*
D13*
X-32434Y273909D02*
X-37754Y273909D01*
X-32434Y273909D02*
X-32345Y273911D01*
X-32256Y273917D01*
X-32167Y273927D01*
X-32079Y273940D01*
X-31991Y273957D01*
X-31904Y273979D01*
X-31819Y274004D01*
X-31734Y274032D01*
X-31651Y274065D01*
X-31569Y274101D01*
X-31489Y274140D01*
X-31411Y274183D01*
X-31335Y274229D01*
X-31260Y274279D01*
X-31188Y274332D01*
X-31119Y274388D01*
X-31052Y274447D01*
X-30987Y274508D01*
X-30926Y274573D01*
X-30867Y274640D01*
X-30811Y274709D01*
X-30758Y274781D01*
X-30708Y274856D01*
X-30662Y274932D01*
X-30619Y275010D01*
X-30580Y275090D01*
X-30544Y275172D01*
X-30511Y275255D01*
X-30483Y275340D01*
X-30458Y275425D01*
X-30436Y275512D01*
X-30419Y275600D01*
X-30406Y275688D01*
X-30396Y275777D01*
X-30390Y275866D01*
X-30388Y275955D01*
X-30390Y276044D01*
X-30396Y276133D01*
X-30406Y276222D01*
X-30419Y276310D01*
X-30436Y276398D01*
X-30458Y276485D01*
X-30483Y276570D01*
X-30511Y276655D01*
X-30544Y276738D01*
X-30580Y276820D01*
X-30619Y276900D01*
X-30662Y276978D01*
X-30708Y277054D01*
X-30758Y277129D01*
X-30811Y277201D01*
X-30867Y277270D01*
X-30926Y277337D01*
X-30987Y277402D01*
X-31052Y277463D01*
X-31119Y277522D01*
X-31188Y277578D01*
X-31260Y277631D01*
X-31335Y277681D01*
X-31411Y277727D01*
X-31489Y277770D01*
X-31569Y277809D01*
X-31651Y277845D01*
X-31734Y277878D01*
X-31819Y277906D01*
X-31904Y277931D01*
X-31991Y277953D01*
X-32079Y277970D01*
X-32167Y277983D01*
X-32256Y277993D01*
X-32345Y277999D01*
X-32434Y278001D01*
X-32434Y278002D02*
X-37754Y278002D01*
X-30388Y281468D02*
X-30388Y283515D01*
X-30390Y283604D01*
X-30396Y283693D01*
X-30406Y283782D01*
X-30419Y283870D01*
X-30436Y283958D01*
X-30458Y284045D01*
X-30483Y284130D01*
X-30511Y284215D01*
X-30544Y284298D01*
X-30580Y284380D01*
X-30619Y284460D01*
X-30662Y284538D01*
X-30708Y284614D01*
X-30758Y284689D01*
X-30811Y284761D01*
X-30867Y284830D01*
X-30926Y284897D01*
X-30987Y284962D01*
X-31052Y285023D01*
X-31119Y285082D01*
X-31188Y285138D01*
X-31260Y285191D01*
X-31335Y285241D01*
X-31411Y285287D01*
X-31489Y285330D01*
X-31569Y285369D01*
X-31651Y285405D01*
X-31734Y285438D01*
X-31819Y285466D01*
X-31904Y285491D01*
X-31991Y285513D01*
X-32079Y285530D01*
X-32167Y285543D01*
X-32256Y285553D01*
X-32345Y285559D01*
X-32434Y285561D01*
X-32523Y285559D01*
X-32612Y285553D01*
X-32701Y285543D01*
X-32789Y285530D01*
X-32877Y285513D01*
X-32964Y285491D01*
X-33049Y285466D01*
X-33134Y285438D01*
X-33217Y285405D01*
X-33299Y285369D01*
X-33379Y285330D01*
X-33457Y285287D01*
X-33533Y285241D01*
X-33608Y285191D01*
X-33680Y285138D01*
X-33749Y285082D01*
X-33816Y285023D01*
X-33881Y284962D01*
X-33942Y284897D01*
X-34001Y284830D01*
X-34057Y284761D01*
X-34110Y284689D01*
X-34160Y284614D01*
X-34206Y284538D01*
X-34249Y284460D01*
X-34288Y284380D01*
X-34324Y284298D01*
X-34357Y284215D01*
X-34385Y284130D01*
X-34410Y284045D01*
X-34432Y283958D01*
X-34449Y283870D01*
X-34462Y283782D01*
X-34472Y283693D01*
X-34478Y283604D01*
X-34480Y283515D01*
X-37754Y283924D02*
X-37754Y281468D01*
X-37754Y283924D02*
X-37752Y284003D01*
X-37746Y284082D01*
X-37737Y284161D01*
X-37724Y284239D01*
X-37706Y284316D01*
X-37686Y284392D01*
X-37661Y284467D01*
X-37633Y284541D01*
X-37602Y284614D01*
X-37566Y284685D01*
X-37528Y284754D01*
X-37486Y284821D01*
X-37441Y284886D01*
X-37393Y284949D01*
X-37342Y285010D01*
X-37288Y285067D01*
X-37232Y285123D01*
X-37173Y285175D01*
X-37111Y285225D01*
X-37047Y285271D01*
X-36981Y285315D01*
X-36913Y285355D01*
X-36843Y285391D01*
X-36771Y285425D01*
X-36697Y285455D01*
X-36623Y285481D01*
X-36547Y285504D01*
X-36470Y285522D01*
X-36393Y285538D01*
X-36314Y285549D01*
X-36236Y285557D01*
X-36157Y285561D01*
X-36077Y285561D01*
X-35998Y285557D01*
X-35920Y285549D01*
X-35841Y285538D01*
X-35764Y285522D01*
X-35687Y285504D01*
X-35611Y285481D01*
X-35537Y285455D01*
X-35463Y285425D01*
X-35391Y285391D01*
X-35321Y285355D01*
X-35253Y285315D01*
X-35187Y285271D01*
X-35123Y285225D01*
X-35061Y285175D01*
X-35002Y285123D01*
X-34946Y285067D01*
X-34892Y285010D01*
X-34841Y284949D01*
X-34793Y284886D01*
X-34748Y284821D01*
X-34706Y284754D01*
X-34668Y284685D01*
X-34632Y284614D01*
X-34601Y284541D01*
X-34573Y284467D01*
X-34548Y284392D01*
X-34528Y284316D01*
X-34510Y284239D01*
X-34497Y284161D01*
X-34488Y284082D01*
X-34482Y284003D01*
X-34480Y283924D01*
X-34480Y282287D01*
D16*
X-6795Y131121D03*
D17*
X4559Y131121D03*
D18*
X-8623Y131274D03*
X-5423Y131274D03*
X11494Y131274D03*
D19*
X-7023Y131274D03*
D20*
X4636Y131274D03*
D18*
X-8928Y131426D03*
X-5423Y131426D03*
D21*
X-7176Y131426D03*
D22*
X4864Y131426D03*
D18*
X-5423Y131578D03*
X12103Y131578D03*
D23*
X-7328Y131578D03*
D24*
X4940Y131578D03*
D18*
X-5423Y131731D03*
D25*
X-7404Y131731D03*
D26*
X5093Y131731D03*
D18*
X-9538Y131883D03*
X-5423Y131883D03*
D27*
X-7480Y131883D03*
D28*
X5169Y131883D03*
D18*
X-5423Y132036D03*
D29*
X-7557Y132036D03*
D30*
X5245Y132036D03*
D18*
X-5423Y132188D03*
X12713Y132188D03*
D31*
X-7633Y132188D03*
D30*
X5245Y132188D03*
D18*
X-9843Y132340D03*
X-5423Y132340D03*
D31*
X-7633Y132340D03*
D32*
X5321Y132340D03*
D18*
X-5423Y132493D03*
D33*
X-7709Y132493D03*
D34*
X5398Y132493D03*
D18*
X-5423Y132645D03*
X13018Y132645D03*
D35*
X-7785Y132645D03*
D34*
X5398Y132645D03*
D18*
X-10147Y132798D03*
X-5423Y132798D03*
D35*
X-7785Y132798D03*
D36*
X5474Y132798D03*
D18*
X-5423Y132950D03*
X13170Y132950D03*
D37*
X-7861Y132950D03*
D36*
X5474Y132950D03*
D18*
X-10300Y133102D03*
X-5423Y133102D03*
D37*
X-7861Y133102D03*
D38*
X5550Y133102D03*
D18*
X-5423Y133255D03*
D39*
X-7938Y133255D03*
D40*
X5626Y133255D03*
D18*
X-5423Y133407D03*
X13475Y133407D03*
D41*
X-8014Y133407D03*
D40*
X5626Y133407D03*
D18*
X-5423Y133560D03*
D41*
X-8014Y133560D03*
D42*
X5702Y133560D03*
D18*
X-5423Y133712D03*
X13627Y133712D03*
D43*
X-8090Y133712D03*
D42*
X5702Y133712D03*
D18*
X-10757Y133864D03*
X-5423Y133864D03*
D43*
X-8090Y133864D03*
D44*
X5779Y133864D03*
D18*
X-5423Y134017D03*
X13780Y134017D03*
D45*
X-8166Y134017D03*
D44*
X5779Y134017D03*
D18*
X-10909Y134169D03*
X-5423Y134169D03*
D45*
X-8166Y134169D03*
D46*
X5855Y134169D03*
D18*
X-5423Y134322D03*
D47*
X-8242Y134322D03*
D48*
X5931Y134322D03*
D18*
X-5423Y134474D03*
X14084Y134474D03*
D49*
X-8319Y134474D03*
D48*
X5931Y134474D03*
D18*
X-11214Y134626D03*
X-5423Y134626D03*
D49*
X-8319Y134626D03*
D50*
X6007Y134626D03*
D18*
X-5423Y134779D03*
X14237Y134779D03*
D51*
X-8395Y134779D03*
D50*
X6007Y134779D03*
D18*
X-11367Y134931D03*
X-5423Y134931D03*
D51*
X-8395Y134931D03*
D52*
X6083Y134931D03*
D18*
X-5423Y135084D03*
D53*
X-8471Y135084D03*
D54*
X6160Y135084D03*
D18*
X-11519Y135236D03*
X-5423Y135236D03*
D53*
X-8471Y135236D03*
D54*
X6160Y135236D03*
D18*
X-5423Y135388D03*
D55*
X-8547Y135388D03*
D56*
X6236Y135388D03*
D18*
X-5423Y135541D03*
X14694Y135541D03*
D57*
X-8623Y135541D03*
D56*
X6236Y135541D03*
D18*
X-11824Y135693D03*
X-5423Y135693D03*
D57*
X-8623Y135693D03*
D58*
X6312Y135693D03*
D18*
X-5423Y135846D03*
X14846Y135846D03*
D59*
X-8700Y135846D03*
D58*
X6312Y135846D03*
D18*
X-11976Y135998D03*
X-5423Y135998D03*
D59*
X-8700Y135998D03*
D60*
X6388Y135998D03*
D18*
X-5423Y136150D03*
D61*
X-8776Y136150D03*
D62*
X6464Y136150D03*
D18*
X-12129Y136303D03*
X-5423Y136303D03*
D61*
X-8776Y136303D03*
D62*
X6464Y136303D03*
D18*
X-5423Y136455D03*
D63*
X-8852Y136455D03*
D64*
X6541Y136455D03*
D18*
X-5423Y136608D03*
X15304Y136608D03*
D65*
X-8928Y136608D03*
D64*
X6541Y136608D03*
D18*
X-12433Y136760D03*
X-5423Y136760D03*
D65*
X-8928Y136760D03*
D66*
X6617Y136760D03*
D18*
X-5423Y136912D03*
X-2070Y136912D03*
X15456Y136912D03*
D67*
X-9004Y136912D03*
D64*
X6693Y136912D03*
D18*
X-12586Y137065D03*
X-5423Y137065D03*
X-2070Y137065D03*
D67*
X-9004Y137065D03*
D66*
X6769Y137065D03*
D18*
X-5423Y137217D03*
X-2070Y137217D03*
X15608Y137217D03*
D68*
X-9081Y137217D03*
D66*
X6769Y137217D03*
D18*
X-5423Y137370D03*
X-2070Y137370D03*
D69*
X-9157Y137370D03*
D70*
X6845Y137370D03*
D18*
X-5423Y137522D03*
X-2070Y137522D03*
D69*
X-9157Y137522D03*
D71*
X6922Y137522D03*
D18*
X-5423Y137674D03*
X-2070Y137674D03*
X15913Y137674D03*
D72*
X-9233Y137674D03*
D71*
X6922Y137674D03*
D18*
X-13043Y137827D03*
X-5423Y137827D03*
X-2070Y137827D03*
D72*
X-9233Y137827D03*
D73*
X6998Y137827D03*
D18*
X-5423Y137979D03*
X-2070Y137979D03*
D74*
X6236Y137979D03*
D18*
X7226Y137979D03*
X16066Y137979D03*
D75*
X-9309Y137979D03*
D76*
X2045Y137979D03*
D77*
X11646Y137979D03*
D18*
X-13195Y138132D03*
X-5423Y138132D03*
X-2070Y138132D03*
X5855Y138132D03*
X7531Y138132D03*
D75*
X-9309Y138132D03*
D78*
X1892Y138132D03*
D79*
X11875Y138132D03*
D18*
X-5423Y138284D03*
X-2070Y138284D03*
X5702Y138284D03*
X16218Y138284D03*
D78*
X-9385Y138284D03*
D75*
X1816Y138284D03*
D80*
X11951Y138284D03*
D18*
X-5423Y138436D03*
X-2070Y138436D03*
X7988Y138436D03*
X16370Y138436D03*
D81*
X-9462Y138436D03*
D72*
X1740Y138436D03*
D82*
X12179Y138436D03*
D18*
X-13500Y138589D03*
X-5423Y138589D03*
X-2070Y138589D03*
X5398Y138589D03*
D81*
X-9462Y138589D03*
D69*
X1664Y138589D03*
D80*
X12256Y138589D03*
D18*
X-5423Y138741D03*
X-2070Y138741D03*
X16523Y138741D03*
D76*
X-9538Y138741D03*
D69*
X1664Y138741D03*
D83*
X12332Y138741D03*
D18*
X-13653Y138894D03*
X-5423Y138894D03*
X-2070Y138894D03*
D76*
X-9538Y138894D03*
D68*
X1588Y138894D03*
D80*
X12408Y138894D03*
D18*
X-5423Y139046D03*
X-2070Y139046D03*
X8293Y139046D03*
X16675Y139046D03*
D83*
X-9614Y139046D03*
D68*
X1588Y139046D03*
D83*
X12484Y139046D03*
D18*
X-13805Y139198D03*
X-5423Y139198D03*
X-2070Y139198D03*
X5093Y139198D03*
D83*
X-9614Y139198D03*
D67*
X1511Y139198D03*
D80*
X12560Y139198D03*
D18*
X-5423Y139351D03*
X-2070Y139351D03*
X5093Y139351D03*
X16828Y139351D03*
D80*
X-9690Y139351D03*
D67*
X1511Y139351D03*
D80*
X12560Y139351D03*
D18*
X-5423Y139503D03*
X-2070Y139503D03*
X5093Y139503D03*
D79*
X-9766Y139503D03*
D67*
X1511Y139503D03*
D79*
X12637Y139503D03*
D18*
X-14110Y139656D03*
X-5423Y139656D03*
X-2070Y139656D03*
X5093Y139656D03*
X16980Y139656D03*
D79*
X-9766Y139656D03*
D67*
X1511Y139656D03*
D79*
X12637Y139656D03*
D18*
X-5423Y139808D03*
X-2070Y139808D03*
X5093Y139808D03*
D84*
X-9843Y139808D03*
D67*
X1511Y139808D03*
D77*
X12713Y139808D03*
D18*
X-14262Y139960D03*
X-5423Y139960D03*
X-2070Y139960D03*
X5093Y139960D03*
D84*
X-9843Y139960D03*
D67*
X1511Y139960D03*
D85*
X12789Y139960D03*
D18*
X-5423Y140113D03*
X-2070Y140113D03*
X5093Y140113D03*
X17285Y140113D03*
D85*
X-9919Y140113D03*
D67*
X1511Y140113D03*
D85*
X12789Y140113D03*
D18*
X-14415Y140265D03*
X-5423Y140265D03*
X-2070Y140265D03*
X5093Y140265D03*
D85*
X-9919Y140265D03*
D67*
X1511Y140265D03*
D86*
X12865Y140265D03*
D18*
X-5423Y140418D03*
X-2070Y140418D03*
X5093Y140418D03*
X17437Y140418D03*
D86*
X-9995Y140418D03*
D67*
X1511Y140418D03*
D86*
X12865Y140418D03*
D18*
X-5423Y140570D03*
X-2070Y140570D03*
X5093Y140570D03*
D87*
X-10071Y140570D03*
D67*
X1511Y140570D03*
D87*
X12941Y140570D03*
D18*
X-14719Y140722D03*
X-5423Y140722D03*
X-2070Y140722D03*
X5093Y140722D03*
X8446Y140722D03*
X17590Y140722D03*
D87*
X-10071Y140722D03*
D67*
X1511Y140722D03*
D86*
X13018Y140722D03*
D18*
X-5423Y140875D03*
X-2070Y140875D03*
X5093Y140875D03*
X8446Y140875D03*
D88*
X-10147Y140875D03*
D67*
X1511Y140875D03*
D87*
X13094Y140875D03*
D18*
X-14872Y141027D03*
X-5423Y141027D03*
X-2070Y141027D03*
X5093Y141027D03*
X8446Y141027D03*
D88*
X-10147Y141027D03*
D67*
X1511Y141027D03*
D88*
X13170Y141027D03*
D18*
X-5423Y141180D03*
X-2070Y141180D03*
X5093Y141180D03*
X8446Y141180D03*
X17894Y141180D03*
D89*
X-10224Y141180D03*
D67*
X1511Y141180D03*
D88*
X13170Y141180D03*
D18*
X-15024Y141332D03*
X-5423Y141332D03*
X-2070Y141332D03*
X5093Y141332D03*
X8446Y141332D03*
D89*
X-10224Y141332D03*
D67*
X1511Y141332D03*
D89*
X13246Y141332D03*
D18*
X-5423Y141484D03*
X-2070Y141484D03*
X5093Y141484D03*
X8446Y141484D03*
X18047Y141484D03*
D90*
X-10300Y141484D03*
D67*
X1511Y141484D03*
D89*
X13246Y141484D03*
D18*
X-5423Y141637D03*
X-2070Y141637D03*
X5093Y141637D03*
X8446Y141637D03*
D91*
X-10376Y141637D03*
D67*
X1511Y141637D03*
D90*
X13322Y141637D03*
D18*
X-15329Y141789D03*
X-5423Y141789D03*
X-2070Y141789D03*
X8446Y141789D03*
D91*
X-10376Y141789D03*
D67*
X1511Y141789D03*
D91*
X13399Y141789D03*
D18*
X-5423Y141942D03*
X-2070Y141942D03*
X8446Y141942D03*
X18352Y141942D03*
D92*
X-10452Y141942D03*
D67*
X1511Y141942D03*
D91*
X13399Y141942D03*
D18*
X-15481Y142094D03*
X-5423Y142094D03*
X-2070Y142094D03*
X8446Y142094D03*
D92*
X-10452Y142094D03*
D67*
X1511Y142094D03*
D92*
X13475Y142094D03*
D18*
X-5423Y142246D03*
X-2070Y142246D03*
X8446Y142246D03*
X18504Y142246D03*
D93*
X-10528Y142246D03*
D67*
X1511Y142246D03*
D92*
X13475Y142246D03*
D18*
X-15634Y142399D03*
X-5423Y142399D03*
X-2070Y142399D03*
X8446Y142399D03*
D93*
X-10528Y142399D03*
D67*
X1511Y142399D03*
D93*
X13551Y142399D03*
D18*
X-5423Y142551D03*
X-2070Y142551D03*
X8446Y142551D03*
X18656Y142551D03*
D94*
X-10605Y142551D03*
D67*
X1511Y142551D03*
D93*
X13551Y142551D03*
D18*
X-5423Y142704D03*
X-2070Y142704D03*
X8446Y142704D03*
D95*
X-10681Y142704D03*
D67*
X1511Y142704D03*
D94*
X13627Y142704D03*
D18*
X-15939Y142856D03*
X-5423Y142856D03*
X-2070Y142856D03*
X8446Y142856D03*
D95*
X-10681Y142856D03*
D67*
X1511Y142856D03*
D95*
X13703Y142856D03*
D18*
X-5423Y143008D03*
X-2070Y143008D03*
X8446Y143008D03*
X18961Y143008D03*
D96*
X-10757Y143008D03*
D67*
X1511Y143008D03*
D95*
X13703Y143008D03*
D18*
X-16091Y143161D03*
X-5423Y143161D03*
X-2070Y143161D03*
X8446Y143161D03*
D96*
X-10757Y143161D03*
D67*
X1511Y143161D03*
D96*
X13780Y143161D03*
D18*
X-5423Y143313D03*
X-2070Y143313D03*
X8446Y143313D03*
X19114Y143313D03*
D97*
X-10833Y143313D03*
D67*
X1511Y143313D03*
D96*
X13780Y143313D03*
D18*
X-16243Y143466D03*
X-5423Y143466D03*
X-2070Y143466D03*
X8446Y143466D03*
D97*
X-10833Y143466D03*
D67*
X1511Y143466D03*
D97*
X13856Y143466D03*
D18*
X-5423Y143618D03*
X-2070Y143618D03*
X8446Y143618D03*
X19266Y143618D03*
D98*
X-10909Y143618D03*
D67*
X1511Y143618D03*
D97*
X13856Y143618D03*
D18*
X-5423Y143770D03*
X-2070Y143770D03*
X8446Y143770D03*
D99*
X-10986Y143770D03*
D67*
X1511Y143770D03*
D98*
X13932Y143770D03*
D18*
X-16548Y143923D03*
X-5423Y143923D03*
X-2070Y143923D03*
X8446Y143923D03*
D99*
X-10986Y143923D03*
D67*
X1511Y143923D03*
D99*
X14008Y143923D03*
D18*
X-5423Y144075D03*
X-2070Y144075D03*
X8446Y144075D03*
X19571Y144075D03*
D100*
X-11062Y144075D03*
D67*
X1511Y144075D03*
D99*
X14008Y144075D03*
D18*
X-16701Y144228D03*
X-5423Y144228D03*
X-2070Y144228D03*
X8446Y144228D03*
D100*
X-11062Y144228D03*
D67*
X1511Y144228D03*
D100*
X14084Y144228D03*
D18*
X-5423Y144380D03*
X-2070Y144380D03*
X8446Y144380D03*
X19723Y144380D03*
D101*
X-11138Y144380D03*
D67*
X1511Y144380D03*
D100*
X14084Y144380D03*
D18*
X-5423Y144532D03*
X-2070Y144532D03*
X8446Y144532D03*
D102*
X-11214Y144532D03*
D67*
X1511Y144532D03*
D101*
X14161Y144532D03*
D18*
X-17005Y144685D03*
X-5423Y144685D03*
X-2070Y144685D03*
X8446Y144685D03*
X19876Y144685D03*
D102*
X-11214Y144685D03*
D67*
X1511Y144685D03*
D101*
X14161Y144685D03*
D18*
X-5423Y144837D03*
X-2070Y144837D03*
X8446Y144837D03*
X20028Y144837D03*
D103*
X-11290Y144837D03*
D67*
X1511Y144837D03*
D102*
X14237Y144837D03*
D18*
X-17158Y144990D03*
X-5423Y144990D03*
X-2070Y144990D03*
X8446Y144990D03*
D103*
X-11290Y144990D03*
D67*
X1511Y144990D03*
D103*
X14313Y144990D03*
D18*
X-5423Y145142D03*
X-2070Y145142D03*
X8446Y145142D03*
X20180Y145142D03*
D104*
X-11367Y145142D03*
D67*
X1511Y145142D03*
D103*
X14313Y145142D03*
D18*
X-17310Y145294D03*
X-5423Y145294D03*
X-2070Y145294D03*
X8446Y145294D03*
D104*
X-11367Y145294D03*
D67*
X1511Y145294D03*
D104*
X14389Y145294D03*
D18*
X-5423Y145447D03*
X-2070Y145447D03*
X8446Y145447D03*
X20333Y145447D03*
D105*
X-11443Y145447D03*
D67*
X1511Y145447D03*
D104*
X14389Y145447D03*
D18*
X-5423Y145599D03*
X-2070Y145599D03*
X8446Y145599D03*
D106*
X-11519Y145599D03*
D67*
X1511Y145599D03*
D105*
X14465Y145599D03*
D18*
X-17615Y145752D03*
X-5423Y145752D03*
X-2070Y145752D03*
X8446Y145752D03*
D106*
X-11519Y145752D03*
D67*
X1511Y145752D03*
D106*
X14542Y145752D03*
D18*
X-5423Y145904D03*
X-2070Y145904D03*
X8446Y145904D03*
X20638Y145904D03*
D107*
X-11595Y145904D03*
D67*
X1511Y145904D03*
D106*
X14542Y145904D03*
D18*
X-17767Y146056D03*
X-5423Y146056D03*
X-2070Y146056D03*
X8446Y146056D03*
D107*
X-11595Y146056D03*
D67*
X1511Y146056D03*
D107*
X14618Y146056D03*
D18*
X-5423Y146209D03*
X-2070Y146209D03*
X8446Y146209D03*
X20790Y146209D03*
D108*
X-11671Y146209D03*
D67*
X1511Y146209D03*
D107*
X14618Y146209D03*
D18*
X-17920Y146361D03*
X-5423Y146361D03*
X-2070Y146361D03*
X8446Y146361D03*
D108*
X-11671Y146361D03*
D67*
X1511Y146361D03*
D108*
X14694Y146361D03*
D18*
X-5423Y146514D03*
X-2070Y146514D03*
X8446Y146514D03*
X20942Y146514D03*
D109*
X-11748Y146514D03*
D67*
X1511Y146514D03*
D108*
X14694Y146514D03*
D18*
X-5423Y146666D03*
X-2070Y146666D03*
X8446Y146666D03*
D110*
X-11824Y146666D03*
D67*
X1511Y146666D03*
D109*
X14770Y146666D03*
D18*
X-18225Y146818D03*
X-5423Y146818D03*
X-2070Y146818D03*
X8446Y146818D03*
D110*
X-11824Y146818D03*
D67*
X1511Y146818D03*
D110*
X14846Y146818D03*
D18*
X-2070Y146971D03*
X8446Y146971D03*
X21247Y146971D03*
D111*
X-11900Y146971D03*
D67*
X1511Y146971D03*
D110*
X14846Y146971D03*
D18*
X-18377Y147123D03*
X-2070Y147123D03*
X8446Y147123D03*
D111*
X-11900Y147123D03*
D67*
X1511Y147123D03*
D111*
X14923Y147123D03*
D18*
X-2070Y147276D03*
X8446Y147276D03*
X21400Y147276D03*
D112*
X-11976Y147276D03*
D67*
X1511Y147276D03*
D111*
X14923Y147276D03*
D18*
X-18529Y147428D03*
X-2070Y147428D03*
X8446Y147428D03*
D112*
X-11976Y147428D03*
D67*
X1511Y147428D03*
D112*
X14999Y147428D03*
D18*
X-2070Y147580D03*
X8446Y147580D03*
X21552Y147580D03*
D17*
X-12052Y147580D03*
D67*
X1511Y147580D03*
D112*
X14999Y147580D03*
D18*
X-1918Y147733D03*
X4940Y147733D03*
X8446Y147733D03*
X21704Y147733D03*
D113*
X-12129Y147733D03*
D114*
X1511Y147733D03*
D17*
X15075Y147733D03*
D18*
X-18834Y147885D03*
X8446Y147885D03*
D113*
X-12129Y147885D03*
X15151Y147885D03*
D18*
X8446Y148038D03*
X21857Y148038D03*
D115*
X-12205Y148038D03*
D113*
X15151Y148038D03*
D18*
X-18987Y148190D03*
X8446Y148190D03*
D115*
X-12205Y148190D03*
X15227Y148190D03*
D18*
X8446Y148342D03*
X22009Y148342D03*
D20*
X-12281Y148342D03*
D115*
X15227Y148342D03*
D18*
X-19139Y148495D03*
X8446Y148495D03*
D20*
X-12281Y148495D03*
X15304Y148495D03*
D18*
X8446Y148647D03*
X22162Y148647D03*
D116*
X-12357Y148647D03*
D20*
X15304Y148647D03*
D18*
X-19291Y148800D03*
X8446Y148800D03*
D116*
X-12357Y148800D03*
X15380Y148800D03*
D18*
X-19291Y148952D03*
X8446Y148952D03*
D116*
X-12357Y148952D03*
X15380Y148952D03*
D18*
X8446Y149104D03*
D117*
X-12433Y149104D03*
D116*
X15380Y149104D03*
D18*
X8446Y149257D03*
X22314Y149257D03*
D117*
X-12433Y149257D03*
D116*
X15380Y149257D03*
D18*
X8446Y149409D03*
X22314Y149409D03*
D117*
X-12433Y149409D03*
D116*
X15380Y149409D03*
D18*
X8446Y149562D03*
X22314Y149562D03*
D117*
X-12433Y149562D03*
D116*
X15380Y149562D03*
D18*
X8446Y149714D03*
X22314Y149714D03*
D117*
X-12433Y149714D03*
D116*
X15380Y149714D03*
D18*
X8446Y149866D03*
X22314Y149866D03*
D117*
X-12433Y149866D03*
D116*
X15380Y149866D03*
D18*
X8446Y150019D03*
D117*
X-12433Y150019D03*
D116*
X15380Y150019D03*
D18*
X-19291Y150171D03*
X8446Y150171D03*
D116*
X-12357Y150171D03*
X15380Y150171D03*
D18*
X8446Y150324D03*
X22162Y150324D03*
D116*
X-12357Y150324D03*
D20*
X15304Y150324D03*
D18*
X8446Y150476D03*
X22162Y150476D03*
D116*
X-12357Y150476D03*
D20*
X15304Y150476D03*
D18*
X-19139Y150628D03*
X8446Y150628D03*
D20*
X-12281Y150628D03*
X15304Y150628D03*
D18*
X8446Y150781D03*
X22009Y150781D03*
D20*
X-12281Y150781D03*
D115*
X15227Y150781D03*
D18*
X-18987Y150933D03*
X8446Y150933D03*
D115*
X-12205Y150933D03*
X15227Y150933D03*
D18*
X8446Y151086D03*
D115*
X-12205Y151086D03*
D113*
X15151Y151086D03*
D18*
X8446Y151238D03*
X21704Y151238D03*
D113*
X-12129Y151238D03*
D17*
X15075Y151238D03*
D18*
X-18682Y151390D03*
X8446Y151390D03*
D17*
X-12052Y151390D03*
D67*
X1511Y151390D03*
D17*
X15075Y151390D03*
D18*
X-2070Y151543D03*
X8446Y151543D03*
X21552Y151543D03*
D17*
X-12052Y151543D03*
D67*
X1511Y151543D03*
D112*
X14999Y151543D03*
D18*
X-18529Y151695D03*
X-2070Y151695D03*
X8446Y151695D03*
D112*
X-11976Y151695D03*
D67*
X1511Y151695D03*
D112*
X14999Y151695D03*
D18*
X-2070Y151848D03*
X8446Y151848D03*
X21400Y151848D03*
D112*
X-11976Y151848D03*
D67*
X1511Y151848D03*
D111*
X14923Y151848D03*
D18*
X-18377Y152000D03*
X-2070Y152000D03*
X8446Y152000D03*
X21247Y152000D03*
D111*
X-11900Y152000D03*
D67*
X1511Y152000D03*
D110*
X14846Y152000D03*
D18*
X-18225Y152152D03*
X-2070Y152152D03*
X8446Y152152D03*
D110*
X-11824Y152152D03*
D67*
X1511Y152152D03*
D110*
X14846Y152152D03*
D18*
X-2070Y152305D03*
X8446Y152305D03*
X21095Y152305D03*
D110*
X-11824Y152305D03*
D67*
X1511Y152305D03*
D109*
X14770Y152305D03*
D18*
X-18072Y152457D03*
X-2070Y152457D03*
X8446Y152457D03*
D109*
X-11748Y152457D03*
D67*
X1511Y152457D03*
D109*
X14770Y152457D03*
D18*
X-2070Y152610D03*
X8446Y152610D03*
X20942Y152610D03*
D109*
X-11748Y152610D03*
D67*
X1511Y152610D03*
D108*
X14694Y152610D03*
D18*
X-17920Y152762D03*
X-2070Y152762D03*
X8446Y152762D03*
D108*
X-11671Y152762D03*
D67*
X1511Y152762D03*
D108*
X14694Y152762D03*
D18*
X-2070Y152914D03*
X8446Y152914D03*
X20790Y152914D03*
D108*
X-11671Y152914D03*
D67*
X1511Y152914D03*
D107*
X14618Y152914D03*
D18*
X-2070Y153067D03*
X8446Y153067D03*
X20638Y153067D03*
D107*
X-11595Y153067D03*
D67*
X1511Y153067D03*
D106*
X14542Y153067D03*
D18*
X-17615Y153219D03*
X-2070Y153219D03*
X8446Y153219D03*
D106*
X-11519Y153219D03*
D67*
X1511Y153219D03*
D106*
X14542Y153219D03*
D18*
X-2070Y153372D03*
X8446Y153372D03*
X20485Y153372D03*
D106*
X-11519Y153372D03*
D67*
X1511Y153372D03*
D105*
X14465Y153372D03*
D18*
X-17463Y153524D03*
X-2070Y153524D03*
X8446Y153524D03*
D105*
X-11443Y153524D03*
D67*
X1511Y153524D03*
D105*
X14465Y153524D03*
D18*
X-2070Y153676D03*
X8446Y153676D03*
X20333Y153676D03*
D105*
X-11443Y153676D03*
D67*
X1511Y153676D03*
D104*
X14389Y153676D03*
D18*
X-17310Y153829D03*
X-2070Y153829D03*
X8446Y153829D03*
D104*
X-11367Y153829D03*
D67*
X1511Y153829D03*
D104*
X14389Y153829D03*
D18*
X-2070Y153981D03*
X8446Y153981D03*
D104*
X-11367Y153981D03*
D67*
X1511Y153981D03*
D103*
X14313Y153981D03*
D18*
X-2070Y154134D03*
X8446Y154134D03*
X20028Y154134D03*
D103*
X-11290Y154134D03*
D67*
X1511Y154134D03*
D102*
X14237Y154134D03*
D18*
X-17005Y154286D03*
X-2070Y154286D03*
X8446Y154286D03*
D102*
X-11214Y154286D03*
D67*
X1511Y154286D03*
D102*
X14237Y154286D03*
D18*
X-2070Y154438D03*
X8446Y154438D03*
X19876Y154438D03*
D102*
X-11214Y154438D03*
D67*
X1511Y154438D03*
D101*
X14161Y154438D03*
D18*
X-16853Y154591D03*
X-2070Y154591D03*
X8446Y154591D03*
D101*
X-11138Y154591D03*
D67*
X1511Y154591D03*
D101*
X14161Y154591D03*
D18*
X-2070Y154743D03*
X8446Y154743D03*
X19723Y154743D03*
D101*
X-11138Y154743D03*
D67*
X1511Y154743D03*
D100*
X14084Y154743D03*
D18*
X-16701Y154896D03*
X-2070Y154896D03*
X8446Y154896D03*
D100*
X-11062Y154896D03*
D67*
X1511Y154896D03*
D100*
X14084Y154896D03*
D18*
X-2070Y155048D03*
X8446Y155048D03*
D100*
X-11062Y155048D03*
D67*
X1511Y155048D03*
D99*
X14008Y155048D03*
D18*
X-2070Y155200D03*
X8446Y155200D03*
X19418Y155200D03*
D99*
X-10986Y155200D03*
D67*
X1511Y155200D03*
D98*
X13932Y155200D03*
D18*
X-16396Y155353D03*
X-2070Y155353D03*
X8446Y155353D03*
D98*
X-10909Y155353D03*
D67*
X1511Y155353D03*
D98*
X13932Y155353D03*
D18*
X-2070Y155505D03*
X8446Y155505D03*
X19266Y155505D03*
D98*
X-10909Y155505D03*
D67*
X1511Y155505D03*
D97*
X13856Y155505D03*
D18*
X-2070Y155658D03*
X8446Y155658D03*
D97*
X-10833Y155658D03*
D67*
X1511Y155658D03*
D97*
X13856Y155658D03*
D18*
X-16091Y155810D03*
X-2070Y155810D03*
X8446Y155810D03*
X19114Y155810D03*
D96*
X-10757Y155810D03*
D67*
X1511Y155810D03*
D96*
X13780Y155810D03*
D18*
X-2070Y155962D03*
X8446Y155962D03*
X18961Y155962D03*
D96*
X-10757Y155962D03*
D67*
X1511Y155962D03*
D95*
X13703Y155962D03*
D18*
X-15939Y156115D03*
X-2070Y156115D03*
X8446Y156115D03*
D95*
X-10681Y156115D03*
D67*
X1511Y156115D03*
D95*
X13703Y156115D03*
D18*
X-2070Y156267D03*
X8446Y156267D03*
X18809Y156267D03*
D95*
X-10681Y156267D03*
D67*
X1511Y156267D03*
D94*
X13627Y156267D03*
D18*
X-15786Y156420D03*
X-5423Y156420D03*
X-2070Y156420D03*
X8446Y156420D03*
D94*
X-10605Y156420D03*
D67*
X1511Y156420D03*
D94*
X13627Y156420D03*
D18*
X-15634Y156572D03*
X-5423Y156572D03*
X-2070Y156572D03*
X8446Y156572D03*
X18656Y156572D03*
D93*
X-10528Y156572D03*
D67*
X1511Y156572D03*
D93*
X13551Y156572D03*
D18*
X-5423Y156724D03*
X-2070Y156724D03*
X8446Y156724D03*
D93*
X-10528Y156724D03*
D67*
X1511Y156724D03*
D93*
X13551Y156724D03*
D18*
X-15481Y156877D03*
X-5423Y156877D03*
X-2070Y156877D03*
X8446Y156877D03*
X18504Y156877D03*
D92*
X-10452Y156877D03*
D67*
X1511Y156877D03*
D92*
X13475Y156877D03*
D18*
X-5423Y157029D03*
X-2070Y157029D03*
X8446Y157029D03*
X18352Y157029D03*
D92*
X-10452Y157029D03*
D67*
X1511Y157029D03*
D91*
X13399Y157029D03*
D18*
X-15329Y157182D03*
X-5423Y157182D03*
X-2070Y157182D03*
X8446Y157182D03*
D91*
X-10376Y157182D03*
D67*
X1511Y157182D03*
D91*
X13399Y157182D03*
D18*
X-5423Y157334D03*
X-2070Y157334D03*
X8446Y157334D03*
X18199Y157334D03*
D91*
X-10376Y157334D03*
D67*
X1511Y157334D03*
D90*
X13322Y157334D03*
D18*
X-15177Y157486D03*
X-5423Y157486D03*
X-2070Y157486D03*
X8446Y157486D03*
D90*
X-10300Y157486D03*
D67*
X1511Y157486D03*
D90*
X13322Y157486D03*
D18*
X-15024Y157639D03*
X-5423Y157639D03*
X-2070Y157639D03*
X8446Y157639D03*
X18047Y157639D03*
D89*
X-10224Y157639D03*
D67*
X1511Y157639D03*
D89*
X13246Y157639D03*
D18*
X-5423Y157791D03*
X-2070Y157791D03*
X8446Y157791D03*
D89*
X-10224Y157791D03*
D67*
X1511Y157791D03*
D89*
X13246Y157791D03*
D18*
X-14872Y157944D03*
X-5423Y157944D03*
X-2070Y157944D03*
X8446Y157944D03*
D88*
X-10147Y157944D03*
D67*
X1511Y157944D03*
D88*
X13170Y157944D03*
D18*
X-5423Y158096D03*
X-2070Y158096D03*
X8446Y158096D03*
X17742Y158096D03*
D88*
X-10147Y158096D03*
D67*
X1511Y158096D03*
D87*
X13094Y158096D03*
D18*
X-14719Y158248D03*
X-5423Y158248D03*
X-2070Y158248D03*
X8446Y158248D03*
D87*
X-10071Y158248D03*
D67*
X1511Y158248D03*
D87*
X13094Y158248D03*
D18*
X-5423Y158401D03*
X-2070Y158401D03*
X8446Y158401D03*
X17590Y158401D03*
D87*
X-10071Y158401D03*
D67*
X1511Y158401D03*
D86*
X13018Y158401D03*
D18*
X-14567Y158553D03*
X-5423Y158553D03*
X-2070Y158553D03*
X8446Y158553D03*
D86*
X-9995Y158553D03*
D67*
X1511Y158553D03*
D86*
X13018Y158553D03*
D18*
X-14415Y158706D03*
X-5423Y158706D03*
X-2070Y158706D03*
X8446Y158706D03*
X17437Y158706D03*
D85*
X-9919Y158706D03*
D67*
X1511Y158706D03*
D85*
X12941Y158706D03*
D18*
X-5423Y158858D03*
X-2070Y158858D03*
X8446Y158858D03*
X17285Y158858D03*
D85*
X-9919Y158858D03*
D67*
X1511Y158858D03*
D84*
X12865Y158858D03*
D18*
X-14262Y159010D03*
X-5423Y159010D03*
X-2070Y159010D03*
X8446Y159010D03*
D84*
X-9843Y159010D03*
D67*
X1511Y159010D03*
D84*
X12865Y159010D03*
D18*
X-5423Y159163D03*
X-2070Y159163D03*
X8446Y159163D03*
X17132Y159163D03*
D84*
X-9843Y159163D03*
D67*
X1511Y159163D03*
D79*
X12789Y159163D03*
D18*
X-14110Y159315D03*
X-5423Y159315D03*
X-2070Y159315D03*
X8446Y159315D03*
D79*
X-9766Y159315D03*
D67*
X1511Y159315D03*
D79*
X12789Y159315D03*
D18*
X-5423Y159468D03*
X-2070Y159468D03*
X8446Y159468D03*
X16980Y159468D03*
D79*
X-9766Y159468D03*
D67*
X1511Y159468D03*
D80*
X12713Y159468D03*
D18*
X-5423Y159620D03*
X-2070Y159620D03*
X8446Y159620D03*
D80*
X-9690Y159620D03*
D67*
X1511Y159620D03*
D80*
X12713Y159620D03*
D18*
X-13805Y159772D03*
X-5423Y159772D03*
X-2070Y159772D03*
X8446Y159772D03*
X16828Y159772D03*
D83*
X-9614Y159772D03*
D67*
X1511Y159772D03*
D83*
X12637Y159772D03*
D18*
X-5423Y159925D03*
X8446Y159925D03*
X16675Y159925D03*
D83*
X-9614Y159925D03*
D68*
X1435Y159925D03*
D76*
X12560Y159925D03*
D18*
X-13653Y160077D03*
X8446Y160077D03*
D83*
X-9462Y160077D03*
D68*
X1435Y160077D03*
D76*
X12560Y160077D03*
D18*
X-5271Y160230D03*
X-2223Y160230D03*
X8446Y160230D03*
X16523Y160230D03*
D83*
X-9462Y160230D03*
D68*
X1435Y160230D03*
D81*
X12484Y160230D03*
D18*
X-13500Y160382D03*
X8446Y160382D03*
D83*
X-9309Y160382D03*
D69*
X1359Y160382D03*
D81*
X12484Y160382D03*
D18*
X-13348Y160534D03*
X-5118Y160534D03*
X8446Y160534D03*
X16370Y160534D03*
D76*
X-9233Y160534D03*
D72*
X1283Y160534D03*
D78*
X12408Y160534D03*
D18*
X-4966Y160687D03*
X-2527Y160687D03*
X8446Y160687D03*
D82*
X-9157Y160687D03*
D72*
X1283Y160687D03*
D78*
X12408Y160687D03*
D18*
X-13195Y160839D03*
X-4813Y160839D03*
X-2680Y160839D03*
X8446Y160839D03*
X16218Y160839D03*
D83*
X-9004Y160839D03*
D75*
X1207Y160839D03*
X12332Y160839D03*
D18*
X-4509Y160992D03*
X-2985Y160992D03*
X8446Y160992D03*
X16066Y160992D03*
D79*
X-8852Y160992D03*
D81*
X1054Y160992D03*
D72*
X12256Y160992D03*
D18*
X-13043Y161144D03*
D118*
X-4051Y161144D03*
X-3442Y161144D03*
D18*
X8446Y161144D03*
D77*
X-8623Y161144D03*
D83*
X902Y161144D03*
D72*
X12256Y161144D03*
D18*
X8446Y161296D03*
X15913Y161296D03*
D73*
X-3975Y161296D03*
D69*
X12179Y161296D03*
D18*
X-12891Y161449D03*
X8446Y161449D03*
D71*
X-3899Y161449D03*
D69*
X12179Y161449D03*
D18*
X-12738Y161601D03*
X8446Y161601D03*
X15761Y161601D03*
D70*
X-3823Y161601D03*
D68*
X12103Y161601D03*
D18*
X8446Y161754D03*
D70*
X-3823Y161754D03*
D68*
X12103Y161754D03*
D18*
X-12586Y161906D03*
X8446Y161906D03*
D66*
X-3747Y161906D03*
D67*
X12027Y161906D03*
D18*
X8446Y162058D03*
X15456Y162058D03*
D66*
X-3747Y162058D03*
D65*
X11951Y162058D03*
D18*
X-12433Y162211D03*
X8446Y162211D03*
D64*
X-3670Y162211D03*
D65*
X11951Y162211D03*
D18*
X8446Y162363D03*
X15304Y162363D03*
D64*
X-3670Y162363D03*
D63*
X11875Y162363D03*
D18*
X-12281Y162516D03*
X8446Y162516D03*
D62*
X-3594Y162516D03*
D63*
X11875Y162516D03*
D18*
X-12129Y162668D03*
X8446Y162668D03*
X15151Y162668D03*
D60*
X-3518Y162668D03*
D61*
X11798Y162668D03*
D18*
X8446Y162820D03*
X14999Y162820D03*
D60*
X-3518Y162820D03*
D59*
X11722Y162820D03*
D18*
X-11976Y162973D03*
X8446Y162973D03*
D58*
X-3442Y162973D03*
D59*
X11722Y162973D03*
D18*
X8446Y163125D03*
X14846Y163125D03*
D58*
X-3442Y163125D03*
D57*
X11646Y163125D03*
D18*
X-11824Y163278D03*
X8446Y163278D03*
D56*
X-3366Y163278D03*
D57*
X11646Y163278D03*
D18*
X-11671Y163430D03*
X8446Y163430D03*
X14694Y163430D03*
D54*
X-3289Y163430D03*
D55*
X11570Y163430D03*
D18*
X8446Y163582D03*
D54*
X-3289Y163582D03*
D55*
X11570Y163582D03*
D18*
X-11519Y163735D03*
X8446Y163735D03*
X14542Y163735D03*
D52*
X-3213Y163735D03*
D53*
X11494Y163735D03*
D18*
X8446Y163887D03*
X14389Y163887D03*
D52*
X-3213Y163887D03*
D51*
X11417Y163887D03*
D18*
X-11367Y164040D03*
X8446Y164040D03*
D50*
X-3137Y164040D03*
D51*
X11417Y164040D03*
D18*
X8446Y164192D03*
X14237Y164192D03*
D50*
X-3137Y164192D03*
D49*
X11341Y164192D03*
D18*
X-11214Y164344D03*
X8446Y164344D03*
D48*
X-3061Y164344D03*
D49*
X11341Y164344D03*
D18*
X-11062Y164497D03*
X8446Y164497D03*
X14084Y164497D03*
D46*
X-2985Y164497D03*
D47*
X11265Y164497D03*
D18*
X8446Y164649D03*
D46*
X-2985Y164649D03*
D47*
X11265Y164649D03*
D18*
X-10909Y164802D03*
X8446Y164802D03*
X13932Y164802D03*
D44*
X-2908Y164802D03*
D45*
X11189Y164802D03*
D18*
X8446Y164954D03*
X13780Y164954D03*
D44*
X-2908Y164954D03*
D43*
X11113Y164954D03*
D18*
X-10757Y165106D03*
X8446Y165106D03*
D42*
X-2832Y165106D03*
D43*
X11113Y165106D03*
D18*
X8446Y165259D03*
X13627Y165259D03*
D42*
X-2832Y165259D03*
D41*
X11036Y165259D03*
D18*
X-10605Y165411D03*
X8446Y165411D03*
D40*
X-2756Y165411D03*
D41*
X11036Y165411D03*
D18*
X-10452Y165564D03*
X8446Y165564D03*
X13475Y165564D03*
D38*
X-2680Y165564D03*
D39*
X10960Y165564D03*
D18*
X8446Y165716D03*
X13322Y165716D03*
D38*
X-2680Y165716D03*
D37*
X10884Y165716D03*
D18*
X-10300Y165868D03*
X8446Y165868D03*
D36*
X-2604Y165868D03*
D37*
X10884Y165868D03*
D18*
X8446Y166021D03*
X13170Y166021D03*
D36*
X-2604Y166021D03*
D35*
X10808Y166021D03*
D74*
X-9919Y166173D03*
D18*
X-10147Y166173D03*
X8446Y166173D03*
D30*
X-2375Y166173D03*
D35*
X10808Y166173D03*
D119*
X-9614Y166326D03*
D18*
X8446Y166326D03*
X13018Y166326D03*
X-9995Y166326D03*
D120*
X-2146Y166326D03*
D33*
X10732Y166326D03*
D121*
X-9385Y166478D03*
D18*
X-9995Y166478D03*
X8446Y166478D03*
D117*
X-1918Y166478D03*
D33*
X10732Y166478D03*
D122*
X-9157Y166630D03*
D18*
X-9843Y166630D03*
X8446Y166630D03*
X12865Y166630D03*
D20*
X-1765Y166630D03*
D31*
X10655Y166630D03*
D123*
X-8852Y166783D03*
D18*
X8446Y166783D03*
X12713Y166783D03*
X-9690Y166783D03*
D17*
X-1537Y166783D03*
D29*
X10579Y166783D03*
D124*
X-8700Y166935D03*
D125*
X8674Y166935D03*
D18*
X-9690Y166935D03*
X8446Y166935D03*
D111*
X-1384Y166935D03*
D25*
X10732Y166935D03*
D126*
X-8395Y167088D03*
D127*
X8903Y167088D03*
D18*
X-9538Y167088D03*
X8446Y167088D03*
D108*
X-1156Y167088D03*
D128*
X10884Y167088D03*
D129*
X-8090Y167240D03*
D130*
X9055Y167240D03*
D18*
X-9385Y167240D03*
X8446Y167240D03*
D105*
X-927Y167240D03*
D131*
X10960Y167240D03*
D132*
X-7861Y167392D03*
D123*
X9284Y167392D03*
D18*
X-9233Y167392D03*
X8446Y167392D03*
X12103Y167392D03*
D103*
X-775Y167392D03*
D133*
X11036Y167392D03*
D131*
X-7480Y167545D03*
D124*
X9436Y167545D03*
D18*
X-8928Y167545D03*
X8446Y167545D03*
X11951Y167545D03*
D100*
X-546Y167545D03*
D123*
X11113Y167545D03*
D131*
X-7176Y167697D03*
D134*
X9665Y167697D03*
D18*
X-8623Y167697D03*
X8446Y167697D03*
X11646Y167697D03*
D98*
X-394Y167697D03*
D127*
X11189Y167697D03*
D129*
X-6566Y167850D03*
D134*
X9665Y167850D03*
D118*
X-8166Y167850D03*
D18*
X8446Y167850D03*
D125*
X11113Y167850D03*
D18*
X-7861Y167850D03*
D95*
X-165Y167850D03*
D18*
X10884Y167850D03*
M02*
