G04 EAGLE Gerber RS-274X export*
G75*
%MOMM*%
%FSLAX34Y34*%
%LPD*%
%INSilkscreen Bottom*%
%IPPOS*%
%AMOC8*
5,1,8,0,0,1.08239X$1,22.5*%
G01*
%ADD10C,0.101600*%
%ADD11C,0.152400*%
%ADD12C,0.177800*%
%ADD13C,0.254000*%
%ADD14C,0.076200*%
%ADD15C,0.150000*%
%ADD16C,0.304800*%
%ADD17C,0.100000*%
%ADD18C,0.100000*%
%ADD19C,0.127000*%
%ADD20C,0.250000*%

G36*
X-8215Y124938D02*
X-8215Y124938D01*
X-8213Y124937D01*
X-8170Y124957D01*
X-8126Y124975D01*
X-8125Y124977D01*
X-8123Y124978D01*
X-8091Y125063D01*
X-8091Y127603D01*
X-8091Y127605D01*
X-8091Y127607D01*
X-8110Y127650D01*
X-8129Y127694D01*
X-8131Y127695D01*
X-8132Y127697D01*
X-8217Y127730D01*
X-12027Y127730D01*
X-12029Y127729D01*
X-12031Y127729D01*
X-12074Y127710D01*
X-12117Y127691D01*
X-12118Y127689D01*
X-12120Y127688D01*
X-12153Y127603D01*
X-12153Y125063D01*
X-12152Y125061D01*
X-12153Y125059D01*
X-12133Y125016D01*
X-12115Y124973D01*
X-12113Y124972D01*
X-12112Y124970D01*
X-12027Y124937D01*
X-8217Y124937D01*
X-8215Y124938D01*
G37*
G36*
X-37749Y80400D02*
X-37749Y80400D01*
X-37747Y80399D01*
X-37704Y80419D01*
X-37660Y80437D01*
X-37659Y80439D01*
X-37657Y80440D01*
X-37625Y80525D01*
X-37625Y84335D01*
X-37625Y84337D01*
X-37625Y84339D01*
X-37644Y84382D01*
X-37663Y84426D01*
X-37665Y84427D01*
X-37666Y84429D01*
X-37751Y84462D01*
X-40291Y84462D01*
X-40293Y84461D01*
X-40295Y84461D01*
X-40338Y84442D01*
X-40381Y84423D01*
X-40382Y84421D01*
X-40384Y84420D01*
X-40417Y84335D01*
X-40417Y80525D01*
X-40416Y80523D01*
X-40417Y80521D01*
X-40397Y80478D01*
X-40379Y80435D01*
X-40377Y80434D01*
X-40376Y80432D01*
X-40291Y80399D01*
X-37751Y80399D01*
X-37749Y80400D01*
G37*
G36*
X45055Y65397D02*
X45055Y65397D01*
X45057Y65396D01*
X45100Y65416D01*
X45144Y65434D01*
X45145Y65436D01*
X45147Y65437D01*
X45180Y65522D01*
X45180Y69332D01*
X45179Y69334D01*
X45179Y69336D01*
X45160Y69379D01*
X45141Y69423D01*
X45139Y69424D01*
X45138Y69426D01*
X45053Y69459D01*
X42513Y69459D01*
X42511Y69458D01*
X42509Y69458D01*
X42466Y69439D01*
X42423Y69420D01*
X42422Y69418D01*
X42420Y69417D01*
X42387Y69332D01*
X42387Y65522D01*
X42388Y65520D01*
X42387Y65518D01*
X42407Y65475D01*
X42425Y65432D01*
X42427Y65431D01*
X42428Y65429D01*
X42513Y65396D01*
X45053Y65396D01*
X45055Y65397D01*
G37*
G36*
X-3214Y42134D02*
X-3214Y42134D01*
X-3212Y42133D01*
X-3169Y42153D01*
X-3125Y42171D01*
X-3124Y42173D01*
X-3122Y42174D01*
X-3090Y42259D01*
X-3090Y44799D01*
X-3090Y44801D01*
X-3090Y44803D01*
X-3109Y44846D01*
X-3128Y44890D01*
X-3130Y44891D01*
X-3131Y44893D01*
X-3216Y44926D01*
X-7026Y44926D01*
X-7028Y44925D01*
X-7030Y44925D01*
X-7073Y44906D01*
X-7116Y44887D01*
X-7117Y44885D01*
X-7119Y44884D01*
X-7152Y44799D01*
X-7152Y42259D01*
X-7151Y42257D01*
X-7152Y42255D01*
X-7132Y42212D01*
X-7114Y42169D01*
X-7112Y42168D01*
X-7111Y42166D01*
X-7026Y42133D01*
X-3216Y42133D01*
X-3214Y42134D01*
G37*
D10*
X147493Y138331D02*
X147493Y140279D01*
X141002Y140279D01*
X141002Y136384D01*
X141004Y136285D01*
X141010Y136185D01*
X141019Y136086D01*
X141032Y135988D01*
X141049Y135890D01*
X141070Y135792D01*
X141095Y135696D01*
X141123Y135601D01*
X141155Y135507D01*
X141190Y135414D01*
X141229Y135322D01*
X141272Y135232D01*
X141317Y135144D01*
X141367Y135057D01*
X141419Y134973D01*
X141475Y134890D01*
X141533Y134810D01*
X141595Y134732D01*
X141660Y134657D01*
X141728Y134584D01*
X141798Y134514D01*
X141871Y134446D01*
X141946Y134381D01*
X142024Y134319D01*
X142104Y134261D01*
X142187Y134205D01*
X142271Y134153D01*
X142358Y134103D01*
X142446Y134058D01*
X142536Y134015D01*
X142628Y133976D01*
X142721Y133941D01*
X142815Y133909D01*
X142910Y133881D01*
X143006Y133856D01*
X143104Y133835D01*
X143202Y133818D01*
X143300Y133805D01*
X143399Y133796D01*
X143499Y133790D01*
X143598Y133788D01*
X150089Y133788D01*
X150188Y133790D01*
X150288Y133796D01*
X150387Y133805D01*
X150485Y133818D01*
X150583Y133835D01*
X150681Y133856D01*
X150777Y133881D01*
X150872Y133909D01*
X150966Y133941D01*
X151059Y133976D01*
X151151Y134015D01*
X151241Y134058D01*
X151329Y134103D01*
X151416Y134153D01*
X151500Y134205D01*
X151583Y134261D01*
X151663Y134319D01*
X151741Y134381D01*
X151816Y134446D01*
X151889Y134514D01*
X151959Y134584D01*
X152027Y134657D01*
X152092Y134732D01*
X152154Y134810D01*
X152212Y134890D01*
X152268Y134973D01*
X152320Y135057D01*
X152370Y135144D01*
X152415Y135232D01*
X152458Y135322D01*
X152497Y135414D01*
X152532Y135506D01*
X152564Y135601D01*
X152592Y135696D01*
X152617Y135792D01*
X152638Y135890D01*
X152655Y135988D01*
X152668Y136086D01*
X152677Y136185D01*
X152683Y136285D01*
X152685Y136384D01*
X152686Y136384D02*
X152686Y140279D01*
X152686Y145979D02*
X141002Y145979D01*
X141002Y152471D02*
X152686Y145979D01*
X152686Y152471D02*
X141002Y152471D01*
X141002Y158171D02*
X152686Y158171D01*
X152686Y161417D01*
X152684Y161530D01*
X152678Y161643D01*
X152668Y161756D01*
X152654Y161869D01*
X152637Y161981D01*
X152615Y162092D01*
X152590Y162202D01*
X152560Y162312D01*
X152527Y162420D01*
X152490Y162527D01*
X152450Y162633D01*
X152405Y162737D01*
X152357Y162840D01*
X152306Y162941D01*
X152251Y163040D01*
X152193Y163137D01*
X152131Y163232D01*
X152066Y163325D01*
X151998Y163415D01*
X151927Y163503D01*
X151852Y163589D01*
X151775Y163672D01*
X151695Y163752D01*
X151612Y163829D01*
X151526Y163904D01*
X151438Y163975D01*
X151348Y164043D01*
X151255Y164108D01*
X151160Y164170D01*
X151063Y164228D01*
X150964Y164283D01*
X150863Y164334D01*
X150760Y164382D01*
X150656Y164427D01*
X150550Y164467D01*
X150443Y164504D01*
X150335Y164537D01*
X150225Y164567D01*
X150115Y164592D01*
X150004Y164614D01*
X149892Y164631D01*
X149779Y164645D01*
X149666Y164655D01*
X149553Y164661D01*
X149440Y164663D01*
X144247Y164663D01*
X144134Y164661D01*
X144021Y164655D01*
X143908Y164645D01*
X143795Y164631D01*
X143683Y164614D01*
X143572Y164592D01*
X143462Y164567D01*
X143352Y164537D01*
X143244Y164504D01*
X143137Y164467D01*
X143031Y164427D01*
X142927Y164382D01*
X142824Y164334D01*
X142723Y164283D01*
X142624Y164228D01*
X142527Y164170D01*
X142432Y164108D01*
X142339Y164043D01*
X142249Y163975D01*
X142161Y163904D01*
X142075Y163829D01*
X141992Y163752D01*
X141912Y163672D01*
X141835Y163589D01*
X141760Y163503D01*
X141689Y163415D01*
X141621Y163325D01*
X141556Y163232D01*
X141494Y163137D01*
X141436Y163040D01*
X141381Y162941D01*
X141330Y162840D01*
X141282Y162737D01*
X141237Y162633D01*
X141197Y162527D01*
X141160Y162420D01*
X141127Y162312D01*
X141097Y162202D01*
X141072Y162092D01*
X141050Y161981D01*
X141033Y161869D01*
X141019Y161756D01*
X141009Y161643D01*
X141003Y161530D01*
X141001Y161417D01*
X141002Y161417D02*
X141002Y158171D01*
X81576Y27418D02*
X79981Y26301D01*
X83704Y20983D01*
X86895Y23217D01*
X86894Y23217D02*
X86974Y23276D01*
X87052Y23338D01*
X87128Y23402D01*
X87201Y23470D01*
X87272Y23540D01*
X87339Y23613D01*
X87404Y23688D01*
X87466Y23766D01*
X87525Y23846D01*
X87581Y23928D01*
X87634Y24013D01*
X87683Y24099D01*
X87729Y24187D01*
X87772Y24277D01*
X87811Y24368D01*
X87846Y24461D01*
X87878Y24555D01*
X87907Y24651D01*
X87931Y24747D01*
X87952Y24844D01*
X87970Y24942D01*
X87983Y25041D01*
X87993Y25140D01*
X87999Y25239D01*
X88001Y25338D01*
X87999Y25438D01*
X87994Y25537D01*
X87984Y25636D01*
X87971Y25735D01*
X87955Y25833D01*
X87934Y25930D01*
X87910Y26027D01*
X87882Y26122D01*
X87850Y26216D01*
X87815Y26309D01*
X87776Y26401D01*
X87734Y26491D01*
X87688Y26579D01*
X87639Y26666D01*
X87587Y26750D01*
X87532Y26833D01*
X83809Y32151D01*
X83809Y32150D02*
X83750Y32230D01*
X83688Y32308D01*
X83624Y32384D01*
X83556Y32457D01*
X83486Y32528D01*
X83413Y32595D01*
X83338Y32660D01*
X83260Y32722D01*
X83180Y32781D01*
X83098Y32837D01*
X83013Y32890D01*
X82927Y32939D01*
X82839Y32985D01*
X82749Y33028D01*
X82658Y33067D01*
X82565Y33102D01*
X82471Y33134D01*
X82375Y33163D01*
X82279Y33187D01*
X82182Y33208D01*
X82084Y33226D01*
X81985Y33239D01*
X81886Y33249D01*
X81787Y33255D01*
X81688Y33257D01*
X81588Y33255D01*
X81489Y33250D01*
X81390Y33241D01*
X81291Y33227D01*
X81193Y33211D01*
X81096Y33190D01*
X80999Y33166D01*
X80904Y33138D01*
X80810Y33106D01*
X80717Y33071D01*
X80625Y33032D01*
X80535Y32990D01*
X80447Y32944D01*
X80360Y32895D01*
X80276Y32843D01*
X80193Y32788D01*
X77003Y30554D01*
X72333Y27284D02*
X79034Y17714D01*
X73717Y13990D02*
X72333Y27284D01*
X67016Y23561D02*
X73717Y13990D01*
X69047Y10720D02*
X62346Y20291D01*
X59687Y18430D01*
X59596Y18363D01*
X59506Y18294D01*
X59419Y18221D01*
X59335Y18145D01*
X59254Y18066D01*
X59175Y17985D01*
X59099Y17901D01*
X59026Y17814D01*
X58957Y17725D01*
X58890Y17633D01*
X58827Y17539D01*
X58767Y17443D01*
X58710Y17345D01*
X58657Y17245D01*
X58607Y17143D01*
X58561Y17039D01*
X58519Y16934D01*
X58480Y16828D01*
X58445Y16720D01*
X58414Y16611D01*
X58386Y16501D01*
X58363Y16390D01*
X58343Y16279D01*
X58327Y16167D01*
X58315Y16054D01*
X58307Y15941D01*
X58303Y15828D01*
X58303Y15714D01*
X58307Y15601D01*
X58315Y15488D01*
X58327Y15375D01*
X58343Y15263D01*
X58363Y15152D01*
X58386Y15041D01*
X58414Y14931D01*
X58445Y14822D01*
X58480Y14714D01*
X58519Y14608D01*
X58561Y14503D01*
X58607Y14399D01*
X58657Y14297D01*
X58710Y14197D01*
X58767Y14099D01*
X58827Y14003D01*
X58890Y13909D01*
X58890Y13910D02*
X61869Y9656D01*
X61868Y9655D02*
X61935Y9564D01*
X62004Y9474D01*
X62077Y9387D01*
X62153Y9303D01*
X62232Y9222D01*
X62313Y9143D01*
X62397Y9067D01*
X62484Y8994D01*
X62574Y8925D01*
X62665Y8858D01*
X62759Y8795D01*
X62855Y8735D01*
X62953Y8678D01*
X63053Y8625D01*
X63155Y8575D01*
X63259Y8529D01*
X63364Y8487D01*
X63470Y8448D01*
X63578Y8413D01*
X63687Y8382D01*
X63797Y8354D01*
X63908Y8331D01*
X64019Y8311D01*
X64131Y8295D01*
X64244Y8283D01*
X64357Y8275D01*
X64470Y8271D01*
X64584Y8271D01*
X64697Y8275D01*
X64810Y8283D01*
X64923Y8295D01*
X65035Y8311D01*
X65146Y8331D01*
X65257Y8354D01*
X65367Y8382D01*
X65476Y8413D01*
X65584Y8448D01*
X65690Y8487D01*
X65795Y8529D01*
X65899Y8575D01*
X66001Y8625D01*
X66101Y8678D01*
X66199Y8735D01*
X66295Y8795D01*
X66389Y8858D01*
X66389Y8859D02*
X69047Y10720D01*
X-60554Y14921D02*
X-62149Y16038D01*
X-65872Y10721D01*
X-62682Y8487D01*
X-62599Y8432D01*
X-62515Y8380D01*
X-62428Y8331D01*
X-62340Y8285D01*
X-62250Y8243D01*
X-62158Y8204D01*
X-62065Y8169D01*
X-61971Y8137D01*
X-61876Y8109D01*
X-61779Y8085D01*
X-61682Y8064D01*
X-61584Y8048D01*
X-61485Y8035D01*
X-61386Y8025D01*
X-61287Y8020D01*
X-61187Y8018D01*
X-61088Y8020D01*
X-60989Y8026D01*
X-60890Y8036D01*
X-60791Y8049D01*
X-60693Y8067D01*
X-60596Y8088D01*
X-60500Y8112D01*
X-60404Y8141D01*
X-60310Y8173D01*
X-60217Y8208D01*
X-60126Y8247D01*
X-60036Y8290D01*
X-59948Y8336D01*
X-59862Y8385D01*
X-59777Y8438D01*
X-59695Y8494D01*
X-59615Y8553D01*
X-59537Y8615D01*
X-59462Y8680D01*
X-59389Y8747D01*
X-59319Y8818D01*
X-59251Y8891D01*
X-59187Y8967D01*
X-59125Y9045D01*
X-59066Y9125D01*
X-59066Y9124D02*
X-55343Y14441D01*
X-55343Y14442D02*
X-55288Y14525D01*
X-55236Y14609D01*
X-55187Y14696D01*
X-55141Y14784D01*
X-55099Y14874D01*
X-55060Y14966D01*
X-55025Y15059D01*
X-54993Y15153D01*
X-54965Y15248D01*
X-54941Y15345D01*
X-54920Y15442D01*
X-54904Y15540D01*
X-54891Y15639D01*
X-54881Y15738D01*
X-54876Y15837D01*
X-54874Y15937D01*
X-54876Y16036D01*
X-54882Y16135D01*
X-54892Y16234D01*
X-54905Y16333D01*
X-54923Y16431D01*
X-54944Y16528D01*
X-54968Y16624D01*
X-54997Y16720D01*
X-55029Y16814D01*
X-55064Y16907D01*
X-55103Y16998D01*
X-55146Y17088D01*
X-55192Y17176D01*
X-55241Y17262D01*
X-55294Y17347D01*
X-55350Y17429D01*
X-55409Y17509D01*
X-55471Y17587D01*
X-55536Y17662D01*
X-55603Y17735D01*
X-55674Y17805D01*
X-55747Y17873D01*
X-55823Y17937D01*
X-55901Y17999D01*
X-55981Y18058D01*
X-55980Y18058D02*
X-59171Y20292D01*
X-63841Y23561D02*
X-70542Y13990D01*
X-75860Y17714D02*
X-63841Y23561D01*
X-69158Y27285D02*
X-75860Y17714D01*
X-80529Y20983D02*
X-73828Y30554D01*
X-76486Y32416D01*
X-76580Y32479D01*
X-76676Y32539D01*
X-76774Y32596D01*
X-76874Y32649D01*
X-76976Y32699D01*
X-77080Y32745D01*
X-77185Y32787D01*
X-77291Y32826D01*
X-77399Y32861D01*
X-77508Y32892D01*
X-77618Y32920D01*
X-77729Y32943D01*
X-77840Y32963D01*
X-77952Y32979D01*
X-78065Y32991D01*
X-78178Y32999D01*
X-78291Y33003D01*
X-78405Y33003D01*
X-78518Y32999D01*
X-78631Y32991D01*
X-78744Y32979D01*
X-78856Y32963D01*
X-78967Y32943D01*
X-79078Y32920D01*
X-79188Y32892D01*
X-79297Y32861D01*
X-79405Y32826D01*
X-79511Y32787D01*
X-79616Y32745D01*
X-79720Y32699D01*
X-79822Y32649D01*
X-79922Y32596D01*
X-80020Y32539D01*
X-80116Y32479D01*
X-80210Y32416D01*
X-80301Y32349D01*
X-80391Y32280D01*
X-80478Y32207D01*
X-80562Y32131D01*
X-80643Y32052D01*
X-80722Y31971D01*
X-80798Y31887D01*
X-80871Y31800D01*
X-80940Y31711D01*
X-81007Y31619D01*
X-83985Y27365D01*
X-83986Y27366D02*
X-84049Y27272D01*
X-84109Y27176D01*
X-84166Y27078D01*
X-84219Y26978D01*
X-84269Y26876D01*
X-84315Y26772D01*
X-84357Y26667D01*
X-84396Y26561D01*
X-84431Y26453D01*
X-84462Y26344D01*
X-84490Y26234D01*
X-84513Y26123D01*
X-84533Y26012D01*
X-84549Y25900D01*
X-84561Y25787D01*
X-84569Y25674D01*
X-84573Y25561D01*
X-84573Y25447D01*
X-84569Y25334D01*
X-84561Y25221D01*
X-84549Y25108D01*
X-84533Y24996D01*
X-84513Y24885D01*
X-84490Y24774D01*
X-84462Y24664D01*
X-84431Y24555D01*
X-84396Y24447D01*
X-84357Y24341D01*
X-84315Y24236D01*
X-84269Y24132D01*
X-84219Y24030D01*
X-84166Y23930D01*
X-84109Y23832D01*
X-84049Y23736D01*
X-83986Y23642D01*
X-83919Y23550D01*
X-83850Y23461D01*
X-83777Y23374D01*
X-83701Y23290D01*
X-83622Y23209D01*
X-83541Y23130D01*
X-83457Y23054D01*
X-83370Y22981D01*
X-83280Y22912D01*
X-83189Y22845D01*
X-83188Y22845D02*
X-80529Y20983D01*
X-143020Y138331D02*
X-143020Y140279D01*
X-149511Y140279D01*
X-149511Y136384D01*
X-149510Y136384D02*
X-149508Y136285D01*
X-149502Y136185D01*
X-149493Y136086D01*
X-149480Y135988D01*
X-149463Y135890D01*
X-149442Y135792D01*
X-149417Y135696D01*
X-149389Y135601D01*
X-149357Y135507D01*
X-149322Y135414D01*
X-149283Y135322D01*
X-149240Y135232D01*
X-149195Y135144D01*
X-149145Y135057D01*
X-149093Y134973D01*
X-149037Y134890D01*
X-148979Y134810D01*
X-148917Y134732D01*
X-148852Y134657D01*
X-148784Y134584D01*
X-148714Y134514D01*
X-148641Y134446D01*
X-148566Y134381D01*
X-148488Y134319D01*
X-148408Y134261D01*
X-148325Y134205D01*
X-148241Y134153D01*
X-148154Y134103D01*
X-148066Y134058D01*
X-147976Y134015D01*
X-147884Y133976D01*
X-147791Y133941D01*
X-147697Y133909D01*
X-147602Y133881D01*
X-147506Y133856D01*
X-147408Y133835D01*
X-147310Y133818D01*
X-147212Y133805D01*
X-147113Y133796D01*
X-147013Y133790D01*
X-146914Y133788D01*
X-140423Y133788D01*
X-140423Y133787D02*
X-140324Y133789D01*
X-140224Y133795D01*
X-140125Y133804D01*
X-140027Y133817D01*
X-139929Y133835D01*
X-139831Y133855D01*
X-139735Y133880D01*
X-139639Y133908D01*
X-139545Y133940D01*
X-139452Y133975D01*
X-139361Y134014D01*
X-139271Y134057D01*
X-139182Y134102D01*
X-139096Y134152D01*
X-139011Y134204D01*
X-138929Y134260D01*
X-138849Y134319D01*
X-138771Y134380D01*
X-138695Y134445D01*
X-138622Y134513D01*
X-138552Y134583D01*
X-138484Y134656D01*
X-138419Y134732D01*
X-138358Y134810D01*
X-138299Y134890D01*
X-138243Y134972D01*
X-138191Y135057D01*
X-138142Y135143D01*
X-138096Y135232D01*
X-138053Y135322D01*
X-138014Y135413D01*
X-137979Y135506D01*
X-137947Y135600D01*
X-137919Y135696D01*
X-137894Y135792D01*
X-137874Y135890D01*
X-137856Y135988D01*
X-137843Y136086D01*
X-137834Y136185D01*
X-137828Y136284D01*
X-137826Y136384D01*
X-137827Y136384D02*
X-137827Y140279D01*
X-137827Y145979D02*
X-149511Y145979D01*
X-149511Y152471D02*
X-137827Y145979D01*
X-137827Y152471D02*
X-149511Y152471D01*
X-149511Y158171D02*
X-137827Y158171D01*
X-137827Y161417D01*
X-137826Y161417D02*
X-137828Y161530D01*
X-137834Y161643D01*
X-137844Y161756D01*
X-137858Y161869D01*
X-137875Y161981D01*
X-137897Y162092D01*
X-137922Y162202D01*
X-137952Y162312D01*
X-137985Y162420D01*
X-138022Y162527D01*
X-138062Y162633D01*
X-138107Y162737D01*
X-138155Y162840D01*
X-138206Y162941D01*
X-138261Y163040D01*
X-138319Y163137D01*
X-138381Y163232D01*
X-138446Y163325D01*
X-138514Y163415D01*
X-138585Y163503D01*
X-138660Y163589D01*
X-138737Y163672D01*
X-138817Y163752D01*
X-138900Y163829D01*
X-138986Y163904D01*
X-139074Y163975D01*
X-139164Y164043D01*
X-139257Y164108D01*
X-139352Y164170D01*
X-139449Y164228D01*
X-139548Y164283D01*
X-139649Y164334D01*
X-139752Y164382D01*
X-139856Y164427D01*
X-139962Y164467D01*
X-140069Y164504D01*
X-140177Y164537D01*
X-140287Y164567D01*
X-140397Y164592D01*
X-140508Y164614D01*
X-140620Y164631D01*
X-140733Y164645D01*
X-140846Y164655D01*
X-140959Y164661D01*
X-141072Y164663D01*
X-146265Y164663D01*
X-146378Y164661D01*
X-146491Y164655D01*
X-146604Y164645D01*
X-146717Y164631D01*
X-146829Y164614D01*
X-146940Y164592D01*
X-147050Y164567D01*
X-147160Y164537D01*
X-147268Y164504D01*
X-147375Y164467D01*
X-147481Y164427D01*
X-147585Y164382D01*
X-147688Y164334D01*
X-147789Y164283D01*
X-147888Y164228D01*
X-147985Y164170D01*
X-148080Y164108D01*
X-148173Y164043D01*
X-148263Y163975D01*
X-148351Y163904D01*
X-148437Y163829D01*
X-148520Y163752D01*
X-148600Y163672D01*
X-148677Y163589D01*
X-148752Y163503D01*
X-148823Y163415D01*
X-148891Y163325D01*
X-148956Y163232D01*
X-149018Y163137D01*
X-149076Y163040D01*
X-149131Y162941D01*
X-149182Y162840D01*
X-149230Y162737D01*
X-149275Y162633D01*
X-149315Y162527D01*
X-149352Y162420D01*
X-149385Y162312D01*
X-149415Y162202D01*
X-149440Y162092D01*
X-149462Y161981D01*
X-149479Y161869D01*
X-149493Y161756D01*
X-149503Y161643D01*
X-149509Y161530D01*
X-149511Y161417D01*
X-149511Y158171D01*
D11*
X128824Y187166D02*
X128824Y204946D01*
X123885Y204946D01*
X123745Y204944D01*
X123606Y204938D01*
X123466Y204928D01*
X123327Y204914D01*
X123188Y204897D01*
X123050Y204875D01*
X122913Y204849D01*
X122776Y204820D01*
X122640Y204787D01*
X122506Y204750D01*
X122372Y204709D01*
X122240Y204664D01*
X122108Y204615D01*
X121979Y204563D01*
X121851Y204508D01*
X121724Y204448D01*
X121599Y204385D01*
X121476Y204319D01*
X121355Y204249D01*
X121236Y204176D01*
X121119Y204099D01*
X121005Y204019D01*
X120892Y203936D01*
X120782Y203850D01*
X120675Y203760D01*
X120570Y203668D01*
X120468Y203573D01*
X120368Y203475D01*
X120271Y203374D01*
X120177Y203270D01*
X120087Y203164D01*
X119999Y203055D01*
X119914Y202944D01*
X119833Y202830D01*
X119754Y202715D01*
X119679Y202597D01*
X119608Y202477D01*
X119540Y202354D01*
X119475Y202231D01*
X119414Y202105D01*
X119356Y201977D01*
X119302Y201849D01*
X119252Y201718D01*
X119205Y201586D01*
X119162Y201453D01*
X119123Y201319D01*
X119088Y201184D01*
X119057Y201048D01*
X119029Y200910D01*
X119006Y200773D01*
X118986Y200634D01*
X118970Y200495D01*
X118958Y200356D01*
X118950Y200217D01*
X118946Y200077D01*
X118946Y199937D01*
X118950Y199797D01*
X118958Y199658D01*
X118970Y199519D01*
X118986Y199380D01*
X119006Y199241D01*
X119029Y199104D01*
X119057Y198966D01*
X119088Y198830D01*
X119123Y198695D01*
X119162Y198561D01*
X119205Y198428D01*
X119252Y198296D01*
X119302Y198165D01*
X119356Y198037D01*
X119414Y197909D01*
X119475Y197783D01*
X119540Y197660D01*
X119608Y197537D01*
X119679Y197417D01*
X119754Y197299D01*
X119833Y197184D01*
X119914Y197070D01*
X119999Y196959D01*
X120087Y196850D01*
X120177Y196744D01*
X120271Y196640D01*
X120368Y196539D01*
X120468Y196441D01*
X120570Y196346D01*
X120675Y196254D01*
X120782Y196164D01*
X120892Y196078D01*
X121005Y195995D01*
X121119Y195915D01*
X121236Y195838D01*
X121355Y195765D01*
X121476Y195695D01*
X121599Y195629D01*
X121724Y195566D01*
X121851Y195506D01*
X121979Y195451D01*
X122108Y195399D01*
X122240Y195350D01*
X122372Y195305D01*
X122506Y195264D01*
X122640Y195227D01*
X122776Y195194D01*
X122913Y195165D01*
X123050Y195139D01*
X123188Y195117D01*
X123327Y195100D01*
X123466Y195086D01*
X123606Y195076D01*
X123745Y195070D01*
X123885Y195068D01*
X128824Y195068D01*
X112829Y200995D02*
X107890Y204946D01*
X107890Y187166D01*
X112829Y187166D02*
X102951Y187166D01*
X12936Y37465D02*
X12936Y19685D01*
X12936Y37465D02*
X7998Y37465D01*
X7858Y37463D01*
X7719Y37457D01*
X7579Y37447D01*
X7440Y37433D01*
X7301Y37416D01*
X7163Y37394D01*
X7026Y37368D01*
X6889Y37339D01*
X6753Y37306D01*
X6619Y37269D01*
X6485Y37228D01*
X6353Y37183D01*
X6221Y37134D01*
X6092Y37082D01*
X5964Y37027D01*
X5837Y36967D01*
X5712Y36904D01*
X5589Y36838D01*
X5468Y36768D01*
X5349Y36695D01*
X5232Y36618D01*
X5118Y36538D01*
X5005Y36455D01*
X4895Y36369D01*
X4788Y36279D01*
X4683Y36187D01*
X4581Y36092D01*
X4481Y35994D01*
X4384Y35893D01*
X4290Y35789D01*
X4200Y35683D01*
X4112Y35574D01*
X4027Y35463D01*
X3946Y35349D01*
X3867Y35234D01*
X3792Y35116D01*
X3721Y34995D01*
X3653Y34873D01*
X3588Y34750D01*
X3527Y34624D01*
X3469Y34496D01*
X3415Y34368D01*
X3365Y34237D01*
X3318Y34105D01*
X3275Y33972D01*
X3236Y33838D01*
X3201Y33703D01*
X3170Y33567D01*
X3142Y33429D01*
X3119Y33292D01*
X3099Y33153D01*
X3083Y33014D01*
X3071Y32875D01*
X3063Y32736D01*
X3059Y32596D01*
X3059Y32456D01*
X3063Y32316D01*
X3071Y32177D01*
X3083Y32038D01*
X3099Y31899D01*
X3119Y31760D01*
X3142Y31623D01*
X3170Y31485D01*
X3201Y31349D01*
X3236Y31214D01*
X3275Y31080D01*
X3318Y30947D01*
X3365Y30815D01*
X3415Y30684D01*
X3469Y30556D01*
X3527Y30428D01*
X3588Y30302D01*
X3653Y30179D01*
X3721Y30056D01*
X3792Y29936D01*
X3867Y29818D01*
X3946Y29703D01*
X4027Y29589D01*
X4112Y29478D01*
X4200Y29369D01*
X4290Y29263D01*
X4384Y29159D01*
X4481Y29058D01*
X4581Y28960D01*
X4683Y28865D01*
X4788Y28773D01*
X4895Y28683D01*
X5005Y28597D01*
X5118Y28514D01*
X5232Y28434D01*
X5349Y28357D01*
X5468Y28284D01*
X5589Y28214D01*
X5712Y28148D01*
X5837Y28085D01*
X5964Y28025D01*
X6092Y27970D01*
X6221Y27918D01*
X6353Y27869D01*
X6485Y27824D01*
X6619Y27783D01*
X6753Y27746D01*
X6889Y27713D01*
X7026Y27684D01*
X7163Y27658D01*
X7301Y27636D01*
X7440Y27619D01*
X7579Y27605D01*
X7719Y27595D01*
X7858Y27589D01*
X7998Y27587D01*
X12936Y27587D01*
X-3059Y19685D02*
X-7998Y19685D01*
X-8138Y19687D01*
X-8277Y19693D01*
X-8417Y19703D01*
X-8556Y19717D01*
X-8695Y19734D01*
X-8833Y19756D01*
X-8970Y19782D01*
X-9107Y19811D01*
X-9243Y19844D01*
X-9377Y19881D01*
X-9511Y19922D01*
X-9643Y19967D01*
X-9775Y20016D01*
X-9904Y20068D01*
X-10032Y20123D01*
X-10159Y20183D01*
X-10284Y20246D01*
X-10407Y20312D01*
X-10528Y20382D01*
X-10647Y20455D01*
X-10764Y20532D01*
X-10878Y20612D01*
X-10991Y20695D01*
X-11101Y20781D01*
X-11208Y20871D01*
X-11313Y20963D01*
X-11415Y21058D01*
X-11515Y21156D01*
X-11612Y21257D01*
X-11706Y21361D01*
X-11796Y21467D01*
X-11884Y21576D01*
X-11969Y21687D01*
X-12050Y21801D01*
X-12129Y21916D01*
X-12204Y22034D01*
X-12275Y22154D01*
X-12343Y22277D01*
X-12408Y22400D01*
X-12469Y22526D01*
X-12527Y22654D01*
X-12581Y22782D01*
X-12631Y22913D01*
X-12678Y23045D01*
X-12721Y23178D01*
X-12760Y23312D01*
X-12795Y23447D01*
X-12826Y23583D01*
X-12854Y23721D01*
X-12877Y23858D01*
X-12897Y23997D01*
X-12913Y24136D01*
X-12925Y24275D01*
X-12933Y24414D01*
X-12937Y24554D01*
X-12937Y24694D01*
X-12933Y24834D01*
X-12925Y24973D01*
X-12913Y25112D01*
X-12897Y25251D01*
X-12877Y25390D01*
X-12854Y25527D01*
X-12826Y25665D01*
X-12795Y25801D01*
X-12760Y25936D01*
X-12721Y26070D01*
X-12678Y26203D01*
X-12631Y26335D01*
X-12581Y26466D01*
X-12527Y26594D01*
X-12469Y26722D01*
X-12408Y26848D01*
X-12343Y26971D01*
X-12275Y27093D01*
X-12204Y27214D01*
X-12129Y27332D01*
X-12050Y27447D01*
X-11969Y27561D01*
X-11884Y27672D01*
X-11796Y27781D01*
X-11706Y27887D01*
X-11612Y27991D01*
X-11515Y28092D01*
X-11415Y28190D01*
X-11313Y28285D01*
X-11208Y28377D01*
X-11101Y28467D01*
X-10991Y28553D01*
X-10878Y28636D01*
X-10764Y28716D01*
X-10647Y28793D01*
X-10528Y28866D01*
X-10407Y28936D01*
X-10284Y29002D01*
X-10159Y29065D01*
X-10032Y29125D01*
X-9904Y29180D01*
X-9775Y29232D01*
X-9643Y29281D01*
X-9511Y29326D01*
X-9377Y29367D01*
X-9243Y29404D01*
X-9107Y29437D01*
X-8970Y29466D01*
X-8833Y29492D01*
X-8695Y29514D01*
X-8556Y29531D01*
X-8417Y29545D01*
X-8277Y29555D01*
X-8138Y29561D01*
X-7998Y29563D01*
X-8985Y37465D02*
X-3059Y37465D01*
X-8985Y37465D02*
X-9109Y37463D01*
X-9233Y37457D01*
X-9357Y37447D01*
X-9480Y37434D01*
X-9603Y37416D01*
X-9725Y37395D01*
X-9847Y37370D01*
X-9968Y37341D01*
X-10087Y37308D01*
X-10206Y37272D01*
X-10323Y37231D01*
X-10439Y37188D01*
X-10554Y37140D01*
X-10667Y37089D01*
X-10779Y37034D01*
X-10888Y36976D01*
X-10996Y36915D01*
X-11102Y36850D01*
X-11206Y36782D01*
X-11307Y36710D01*
X-11407Y36636D01*
X-11503Y36558D01*
X-11598Y36478D01*
X-11690Y36394D01*
X-11779Y36308D01*
X-11865Y36219D01*
X-11949Y36127D01*
X-12029Y36032D01*
X-12107Y35936D01*
X-12181Y35836D01*
X-12253Y35735D01*
X-12321Y35631D01*
X-12386Y35525D01*
X-12447Y35417D01*
X-12505Y35308D01*
X-12560Y35196D01*
X-12611Y35083D01*
X-12659Y34968D01*
X-12702Y34852D01*
X-12743Y34735D01*
X-12779Y34616D01*
X-12812Y34497D01*
X-12841Y34376D01*
X-12866Y34254D01*
X-12887Y34132D01*
X-12905Y34009D01*
X-12918Y33886D01*
X-12928Y33762D01*
X-12934Y33638D01*
X-12936Y33514D01*
X-12934Y33390D01*
X-12928Y33266D01*
X-12918Y33142D01*
X-12905Y33019D01*
X-12887Y32896D01*
X-12866Y32774D01*
X-12841Y32652D01*
X-12812Y32531D01*
X-12779Y32412D01*
X-12743Y32293D01*
X-12702Y32176D01*
X-12659Y32060D01*
X-12611Y31945D01*
X-12560Y31832D01*
X-12505Y31720D01*
X-12447Y31611D01*
X-12386Y31503D01*
X-12321Y31397D01*
X-12253Y31293D01*
X-12181Y31192D01*
X-12107Y31092D01*
X-12029Y30996D01*
X-11949Y30901D01*
X-11865Y30809D01*
X-11779Y30720D01*
X-11690Y30634D01*
X-11598Y30550D01*
X-11503Y30470D01*
X-11407Y30392D01*
X-11307Y30318D01*
X-11206Y30246D01*
X-11102Y30178D01*
X-10996Y30113D01*
X-10888Y30052D01*
X-10779Y29994D01*
X-10667Y29939D01*
X-10554Y29888D01*
X-10439Y29840D01*
X-10323Y29797D01*
X-10206Y29756D01*
X-10087Y29720D01*
X-9968Y29687D01*
X-9847Y29658D01*
X-9725Y29633D01*
X-9603Y29612D01*
X-9480Y29594D01*
X-9357Y29581D01*
X-9233Y29571D01*
X-9109Y29565D01*
X-8985Y29563D01*
X-5034Y29563D01*
X-91916Y59125D02*
X-109696Y59125D01*
X-91916Y59125D02*
X-91916Y64064D01*
X-91918Y64204D01*
X-91924Y64343D01*
X-91934Y64483D01*
X-91948Y64622D01*
X-91965Y64761D01*
X-91987Y64899D01*
X-92013Y65036D01*
X-92042Y65173D01*
X-92075Y65309D01*
X-92112Y65443D01*
X-92153Y65577D01*
X-92198Y65709D01*
X-92247Y65841D01*
X-92299Y65970D01*
X-92354Y66098D01*
X-92414Y66225D01*
X-92477Y66350D01*
X-92543Y66473D01*
X-92613Y66594D01*
X-92686Y66713D01*
X-92763Y66830D01*
X-92843Y66944D01*
X-92926Y67057D01*
X-93012Y67167D01*
X-93102Y67274D01*
X-93194Y67379D01*
X-93289Y67481D01*
X-93387Y67581D01*
X-93488Y67678D01*
X-93592Y67772D01*
X-93698Y67862D01*
X-93807Y67950D01*
X-93918Y68035D01*
X-94032Y68116D01*
X-94147Y68195D01*
X-94265Y68270D01*
X-94386Y68341D01*
X-94508Y68409D01*
X-94631Y68474D01*
X-94757Y68535D01*
X-94885Y68593D01*
X-95013Y68647D01*
X-95144Y68697D01*
X-95276Y68744D01*
X-95409Y68787D01*
X-95543Y68826D01*
X-95678Y68861D01*
X-95814Y68892D01*
X-95952Y68920D01*
X-96089Y68943D01*
X-96228Y68963D01*
X-96367Y68979D01*
X-96506Y68991D01*
X-96645Y68999D01*
X-96785Y69003D01*
X-96925Y69003D01*
X-97065Y68999D01*
X-97204Y68991D01*
X-97343Y68979D01*
X-97482Y68963D01*
X-97621Y68943D01*
X-97758Y68920D01*
X-97896Y68892D01*
X-98032Y68861D01*
X-98167Y68826D01*
X-98301Y68787D01*
X-98434Y68744D01*
X-98566Y68697D01*
X-98697Y68647D01*
X-98825Y68593D01*
X-98953Y68535D01*
X-99079Y68474D01*
X-99202Y68409D01*
X-99325Y68341D01*
X-99445Y68270D01*
X-99563Y68195D01*
X-99678Y68116D01*
X-99792Y68035D01*
X-99903Y67950D01*
X-100012Y67862D01*
X-100118Y67772D01*
X-100222Y67678D01*
X-100323Y67581D01*
X-100421Y67481D01*
X-100516Y67379D01*
X-100608Y67274D01*
X-100698Y67167D01*
X-100784Y67057D01*
X-100867Y66944D01*
X-100947Y66830D01*
X-101024Y66713D01*
X-101097Y66594D01*
X-101167Y66473D01*
X-101233Y66350D01*
X-101296Y66225D01*
X-101356Y66098D01*
X-101411Y65970D01*
X-101463Y65841D01*
X-101512Y65709D01*
X-101557Y65577D01*
X-101598Y65443D01*
X-101635Y65309D01*
X-101668Y65173D01*
X-101697Y65036D01*
X-101723Y64899D01*
X-101745Y64761D01*
X-101762Y64622D01*
X-101776Y64483D01*
X-101786Y64343D01*
X-101792Y64204D01*
X-101794Y64064D01*
X-101794Y59125D01*
X-105745Y75120D02*
X-91916Y79071D01*
X-105745Y75120D02*
X-105745Y84998D01*
X-101794Y82034D02*
X-109696Y82034D01*
X-102782Y97367D02*
X-96855Y97367D01*
X-102782Y97367D02*
X-107227Y100825D01*
X-102782Y97367D02*
X-107227Y93910D01*
X-102782Y97367D02*
X-100806Y102800D01*
X-102782Y97367D02*
X-100806Y91935D01*
X-104539Y185579D02*
X-104539Y203359D01*
X-109477Y203359D01*
X-109617Y203357D01*
X-109756Y203351D01*
X-109896Y203341D01*
X-110035Y203327D01*
X-110174Y203310D01*
X-110312Y203288D01*
X-110449Y203262D01*
X-110586Y203233D01*
X-110722Y203200D01*
X-110856Y203163D01*
X-110990Y203122D01*
X-111122Y203077D01*
X-111254Y203028D01*
X-111383Y202976D01*
X-111511Y202921D01*
X-111638Y202861D01*
X-111763Y202798D01*
X-111886Y202732D01*
X-112007Y202662D01*
X-112126Y202589D01*
X-112243Y202512D01*
X-112357Y202432D01*
X-112470Y202349D01*
X-112580Y202263D01*
X-112687Y202173D01*
X-112792Y202081D01*
X-112894Y201986D01*
X-112994Y201888D01*
X-113091Y201787D01*
X-113185Y201683D01*
X-113275Y201577D01*
X-113363Y201468D01*
X-113448Y201357D01*
X-113529Y201243D01*
X-113608Y201128D01*
X-113683Y201010D01*
X-113754Y200890D01*
X-113822Y200767D01*
X-113887Y200644D01*
X-113948Y200518D01*
X-114006Y200390D01*
X-114060Y200262D01*
X-114110Y200131D01*
X-114157Y199999D01*
X-114200Y199866D01*
X-114239Y199732D01*
X-114274Y199597D01*
X-114305Y199461D01*
X-114333Y199323D01*
X-114356Y199186D01*
X-114376Y199047D01*
X-114392Y198908D01*
X-114404Y198769D01*
X-114412Y198630D01*
X-114416Y198490D01*
X-114416Y198350D01*
X-114412Y198210D01*
X-114404Y198071D01*
X-114392Y197932D01*
X-114376Y197793D01*
X-114356Y197654D01*
X-114333Y197517D01*
X-114305Y197379D01*
X-114274Y197243D01*
X-114239Y197108D01*
X-114200Y196974D01*
X-114157Y196841D01*
X-114110Y196709D01*
X-114060Y196578D01*
X-114006Y196450D01*
X-113948Y196322D01*
X-113887Y196196D01*
X-113822Y196073D01*
X-113754Y195950D01*
X-113683Y195830D01*
X-113608Y195712D01*
X-113529Y195597D01*
X-113448Y195483D01*
X-113363Y195372D01*
X-113275Y195263D01*
X-113185Y195157D01*
X-113091Y195053D01*
X-112994Y194952D01*
X-112894Y194854D01*
X-112792Y194759D01*
X-112687Y194667D01*
X-112580Y194577D01*
X-112470Y194491D01*
X-112357Y194408D01*
X-112243Y194328D01*
X-112126Y194251D01*
X-112007Y194178D01*
X-111886Y194108D01*
X-111763Y194042D01*
X-111638Y193979D01*
X-111511Y193919D01*
X-111383Y193864D01*
X-111254Y193812D01*
X-111122Y193763D01*
X-110990Y193718D01*
X-110856Y193677D01*
X-110722Y193640D01*
X-110586Y193607D01*
X-110449Y193578D01*
X-110312Y193552D01*
X-110174Y193530D01*
X-110035Y193513D01*
X-109896Y193499D01*
X-109756Y193489D01*
X-109617Y193483D01*
X-109477Y193481D01*
X-104539Y193481D01*
X-120534Y185579D02*
X-126460Y185579D01*
X-126584Y185581D01*
X-126708Y185587D01*
X-126832Y185597D01*
X-126955Y185610D01*
X-127078Y185628D01*
X-127200Y185649D01*
X-127322Y185674D01*
X-127443Y185703D01*
X-127562Y185736D01*
X-127681Y185772D01*
X-127798Y185813D01*
X-127914Y185856D01*
X-128029Y185904D01*
X-128142Y185955D01*
X-128254Y186010D01*
X-128363Y186068D01*
X-128471Y186129D01*
X-128577Y186194D01*
X-128681Y186262D01*
X-128782Y186334D01*
X-128882Y186408D01*
X-128978Y186486D01*
X-129073Y186566D01*
X-129165Y186650D01*
X-129254Y186736D01*
X-129340Y186825D01*
X-129424Y186917D01*
X-129504Y187012D01*
X-129582Y187108D01*
X-129656Y187208D01*
X-129728Y187309D01*
X-129796Y187413D01*
X-129861Y187519D01*
X-129922Y187627D01*
X-129980Y187736D01*
X-130035Y187848D01*
X-130086Y187961D01*
X-130134Y188076D01*
X-130177Y188192D01*
X-130218Y188309D01*
X-130254Y188428D01*
X-130287Y188547D01*
X-130316Y188668D01*
X-130341Y188790D01*
X-130362Y188912D01*
X-130380Y189035D01*
X-130393Y189158D01*
X-130403Y189282D01*
X-130409Y189406D01*
X-130411Y189530D01*
X-130411Y191505D01*
X-130409Y191629D01*
X-130403Y191753D01*
X-130393Y191877D01*
X-130380Y192000D01*
X-130362Y192123D01*
X-130341Y192245D01*
X-130316Y192367D01*
X-130287Y192488D01*
X-130254Y192607D01*
X-130218Y192726D01*
X-130177Y192843D01*
X-130134Y192959D01*
X-130086Y193074D01*
X-130035Y193187D01*
X-129980Y193299D01*
X-129922Y193408D01*
X-129861Y193516D01*
X-129796Y193622D01*
X-129728Y193726D01*
X-129656Y193827D01*
X-129582Y193927D01*
X-129504Y194023D01*
X-129424Y194118D01*
X-129340Y194210D01*
X-129254Y194299D01*
X-129165Y194385D01*
X-129073Y194469D01*
X-128978Y194549D01*
X-128882Y194627D01*
X-128782Y194701D01*
X-128681Y194773D01*
X-128577Y194841D01*
X-128471Y194906D01*
X-128363Y194967D01*
X-128254Y195025D01*
X-128142Y195080D01*
X-128029Y195131D01*
X-127914Y195179D01*
X-127798Y195222D01*
X-127681Y195263D01*
X-127562Y195299D01*
X-127443Y195332D01*
X-127322Y195361D01*
X-127200Y195386D01*
X-127078Y195407D01*
X-126955Y195425D01*
X-126832Y195438D01*
X-126708Y195448D01*
X-126584Y195454D01*
X-126460Y195456D01*
X-126460Y195457D02*
X-120534Y195457D01*
X-120534Y203359D01*
X-130411Y203359D01*
X-84296Y93914D02*
X-66516Y93914D01*
X-74419Y93914D02*
X-74419Y103792D01*
X-66516Y103792D02*
X-84296Y103792D01*
X-70961Y121101D02*
X-70829Y121099D01*
X-70698Y121093D01*
X-70566Y121083D01*
X-70435Y121070D01*
X-70305Y121052D01*
X-70175Y121031D01*
X-70045Y121006D01*
X-69917Y120977D01*
X-69789Y120944D01*
X-69663Y120907D01*
X-69537Y120867D01*
X-69413Y120823D01*
X-69290Y120775D01*
X-69169Y120724D01*
X-69049Y120669D01*
X-68931Y120611D01*
X-68815Y120549D01*
X-68701Y120483D01*
X-68588Y120415D01*
X-68478Y120343D01*
X-68370Y120268D01*
X-68264Y120189D01*
X-68160Y120108D01*
X-68059Y120023D01*
X-67961Y119936D01*
X-67865Y119845D01*
X-67772Y119752D01*
X-67681Y119656D01*
X-67594Y119558D01*
X-67509Y119457D01*
X-67428Y119353D01*
X-67349Y119247D01*
X-67274Y119139D01*
X-67202Y119029D01*
X-67134Y118916D01*
X-67068Y118802D01*
X-67006Y118686D01*
X-66948Y118568D01*
X-66893Y118448D01*
X-66842Y118327D01*
X-66794Y118204D01*
X-66750Y118080D01*
X-66710Y117954D01*
X-66673Y117828D01*
X-66640Y117700D01*
X-66611Y117572D01*
X-66586Y117442D01*
X-66565Y117312D01*
X-66547Y117182D01*
X-66534Y117051D01*
X-66524Y116919D01*
X-66518Y116788D01*
X-66516Y116656D01*
X-66518Y116506D01*
X-66524Y116357D01*
X-66534Y116208D01*
X-66547Y116059D01*
X-66565Y115910D01*
X-66586Y115762D01*
X-66612Y115614D01*
X-66641Y115468D01*
X-66674Y115322D01*
X-66711Y115177D01*
X-66752Y115033D01*
X-66796Y114890D01*
X-66844Y114748D01*
X-66896Y114608D01*
X-66951Y114469D01*
X-67010Y114331D01*
X-67073Y114196D01*
X-67139Y114061D01*
X-67209Y113929D01*
X-67282Y113799D01*
X-67359Y113670D01*
X-67439Y113543D01*
X-67522Y113419D01*
X-67608Y113297D01*
X-67698Y113177D01*
X-67791Y113060D01*
X-67886Y112945D01*
X-67985Y112832D01*
X-68087Y112722D01*
X-68191Y112615D01*
X-68298Y112511D01*
X-68408Y112409D01*
X-68521Y112311D01*
X-68636Y112215D01*
X-68754Y112123D01*
X-68874Y112033D01*
X-68996Y111947D01*
X-69120Y111864D01*
X-69247Y111784D01*
X-69375Y111708D01*
X-69506Y111635D01*
X-69639Y111565D01*
X-69773Y111499D01*
X-69909Y111437D01*
X-70046Y111378D01*
X-70185Y111322D01*
X-70326Y111271D01*
X-70467Y111223D01*
X-74418Y119618D02*
X-74325Y119714D01*
X-74229Y119806D01*
X-74130Y119896D01*
X-74029Y119983D01*
X-73926Y120068D01*
X-73821Y120149D01*
X-73713Y120227D01*
X-73603Y120302D01*
X-73491Y120375D01*
X-73377Y120444D01*
X-73261Y120510D01*
X-73143Y120572D01*
X-73024Y120631D01*
X-72903Y120687D01*
X-72780Y120740D01*
X-72656Y120789D01*
X-72531Y120834D01*
X-72404Y120877D01*
X-72277Y120915D01*
X-72148Y120950D01*
X-72019Y120981D01*
X-71888Y121009D01*
X-71757Y121033D01*
X-71625Y121054D01*
X-71493Y121070D01*
X-71360Y121083D01*
X-71227Y121093D01*
X-71094Y121098D01*
X-70961Y121100D01*
X-74419Y119619D02*
X-84296Y111223D01*
X-84296Y121101D01*
X-74419Y128729D02*
X-74419Y133668D01*
X-74418Y133668D02*
X-74420Y133808D01*
X-74426Y133947D01*
X-74436Y134087D01*
X-74450Y134226D01*
X-74467Y134365D01*
X-74489Y134503D01*
X-74515Y134640D01*
X-74544Y134777D01*
X-74577Y134913D01*
X-74614Y135047D01*
X-74655Y135181D01*
X-74700Y135313D01*
X-74749Y135445D01*
X-74801Y135574D01*
X-74856Y135702D01*
X-74916Y135829D01*
X-74979Y135954D01*
X-75045Y136077D01*
X-75115Y136198D01*
X-75188Y136317D01*
X-75265Y136434D01*
X-75345Y136548D01*
X-75428Y136661D01*
X-75514Y136771D01*
X-75604Y136878D01*
X-75696Y136983D01*
X-75791Y137085D01*
X-75889Y137185D01*
X-75990Y137282D01*
X-76094Y137376D01*
X-76200Y137466D01*
X-76309Y137554D01*
X-76420Y137639D01*
X-76534Y137720D01*
X-76649Y137799D01*
X-76767Y137874D01*
X-76888Y137945D01*
X-77010Y138013D01*
X-77133Y138078D01*
X-77259Y138139D01*
X-77387Y138197D01*
X-77515Y138251D01*
X-77646Y138301D01*
X-77778Y138348D01*
X-77911Y138391D01*
X-78045Y138430D01*
X-78180Y138465D01*
X-78316Y138496D01*
X-78454Y138524D01*
X-78591Y138547D01*
X-78730Y138567D01*
X-78869Y138583D01*
X-79008Y138595D01*
X-79147Y138603D01*
X-79287Y138607D01*
X-79427Y138607D01*
X-79567Y138603D01*
X-79706Y138595D01*
X-79845Y138583D01*
X-79984Y138567D01*
X-80123Y138547D01*
X-80260Y138524D01*
X-80398Y138496D01*
X-80534Y138465D01*
X-80669Y138430D01*
X-80803Y138391D01*
X-80936Y138348D01*
X-81068Y138301D01*
X-81199Y138251D01*
X-81327Y138197D01*
X-81455Y138139D01*
X-81581Y138078D01*
X-81704Y138013D01*
X-81827Y137945D01*
X-81947Y137874D01*
X-82065Y137799D01*
X-82180Y137720D01*
X-82294Y137639D01*
X-82405Y137554D01*
X-82514Y137466D01*
X-82620Y137376D01*
X-82724Y137282D01*
X-82825Y137185D01*
X-82923Y137085D01*
X-83018Y136983D01*
X-83110Y136878D01*
X-83200Y136771D01*
X-83286Y136661D01*
X-83369Y136548D01*
X-83449Y136434D01*
X-83526Y136317D01*
X-83599Y136198D01*
X-83669Y136077D01*
X-83735Y135954D01*
X-83798Y135829D01*
X-83858Y135702D01*
X-83913Y135574D01*
X-83965Y135445D01*
X-84014Y135313D01*
X-84059Y135181D01*
X-84100Y135047D01*
X-84137Y134913D01*
X-84170Y134777D01*
X-84199Y134640D01*
X-84225Y134503D01*
X-84247Y134365D01*
X-84264Y134226D01*
X-84278Y134087D01*
X-84288Y133947D01*
X-84294Y133808D01*
X-84296Y133668D01*
X-84296Y128729D01*
X-66516Y128729D01*
X-66516Y133668D01*
X-66518Y133792D01*
X-66524Y133916D01*
X-66534Y134040D01*
X-66547Y134163D01*
X-66565Y134286D01*
X-66586Y134408D01*
X-66611Y134530D01*
X-66640Y134651D01*
X-66673Y134770D01*
X-66709Y134889D01*
X-66750Y135006D01*
X-66793Y135122D01*
X-66841Y135237D01*
X-66892Y135350D01*
X-66947Y135462D01*
X-67005Y135571D01*
X-67066Y135679D01*
X-67131Y135785D01*
X-67199Y135889D01*
X-67271Y135990D01*
X-67345Y136090D01*
X-67423Y136186D01*
X-67503Y136281D01*
X-67587Y136373D01*
X-67673Y136462D01*
X-67762Y136548D01*
X-67854Y136632D01*
X-67949Y136712D01*
X-68045Y136790D01*
X-68145Y136864D01*
X-68246Y136936D01*
X-68350Y137004D01*
X-68456Y137069D01*
X-68564Y137130D01*
X-68673Y137188D01*
X-68785Y137243D01*
X-68898Y137294D01*
X-69013Y137342D01*
X-69129Y137385D01*
X-69246Y137426D01*
X-69365Y137462D01*
X-69484Y137495D01*
X-69605Y137524D01*
X-69727Y137549D01*
X-69849Y137570D01*
X-69972Y137588D01*
X-70095Y137601D01*
X-70219Y137611D01*
X-70343Y137617D01*
X-70467Y137619D01*
X-70591Y137617D01*
X-70715Y137611D01*
X-70839Y137601D01*
X-70962Y137588D01*
X-71085Y137570D01*
X-71207Y137549D01*
X-71329Y137524D01*
X-71450Y137495D01*
X-71569Y137462D01*
X-71688Y137426D01*
X-71805Y137385D01*
X-71921Y137342D01*
X-72036Y137294D01*
X-72149Y137243D01*
X-72261Y137188D01*
X-72370Y137130D01*
X-72478Y137069D01*
X-72584Y137004D01*
X-72688Y136936D01*
X-72789Y136864D01*
X-72889Y136790D01*
X-72985Y136712D01*
X-73080Y136632D01*
X-73172Y136548D01*
X-73261Y136462D01*
X-73347Y136373D01*
X-73431Y136281D01*
X-73511Y136186D01*
X-73589Y136090D01*
X-73663Y135990D01*
X-73735Y135889D01*
X-73803Y135785D01*
X-73868Y135679D01*
X-73929Y135571D01*
X-73987Y135462D01*
X-74042Y135350D01*
X-74093Y135237D01*
X-74141Y135122D01*
X-74184Y135006D01*
X-74225Y134889D01*
X-74261Y134770D01*
X-74294Y134651D01*
X-74323Y134530D01*
X-74348Y134408D01*
X-74369Y134286D01*
X-74387Y134163D01*
X-74400Y134040D01*
X-74410Y133916D01*
X-74416Y133792D01*
X-74418Y133668D01*
X-66516Y145368D02*
X-84296Y145368D01*
X-66516Y145368D02*
X-66516Y150307D01*
X-66518Y150447D01*
X-66524Y150586D01*
X-66534Y150726D01*
X-66548Y150865D01*
X-66565Y151004D01*
X-66587Y151142D01*
X-66613Y151279D01*
X-66642Y151416D01*
X-66675Y151552D01*
X-66712Y151686D01*
X-66753Y151820D01*
X-66798Y151952D01*
X-66847Y152084D01*
X-66899Y152213D01*
X-66954Y152341D01*
X-67014Y152468D01*
X-67077Y152593D01*
X-67143Y152716D01*
X-67213Y152837D01*
X-67286Y152956D01*
X-67363Y153073D01*
X-67443Y153187D01*
X-67526Y153300D01*
X-67612Y153410D01*
X-67702Y153517D01*
X-67794Y153622D01*
X-67889Y153724D01*
X-67987Y153824D01*
X-68088Y153921D01*
X-68192Y154015D01*
X-68298Y154105D01*
X-68407Y154193D01*
X-68518Y154278D01*
X-68632Y154359D01*
X-68747Y154438D01*
X-68865Y154513D01*
X-68986Y154584D01*
X-69108Y154652D01*
X-69231Y154717D01*
X-69357Y154778D01*
X-69485Y154836D01*
X-69613Y154890D01*
X-69744Y154940D01*
X-69876Y154987D01*
X-70009Y155030D01*
X-70143Y155069D01*
X-70278Y155104D01*
X-70414Y155135D01*
X-70552Y155163D01*
X-70689Y155186D01*
X-70828Y155206D01*
X-70967Y155222D01*
X-71106Y155234D01*
X-71245Y155242D01*
X-71385Y155246D01*
X-71525Y155246D01*
X-71665Y155242D01*
X-71804Y155234D01*
X-71943Y155222D01*
X-72082Y155206D01*
X-72221Y155186D01*
X-72358Y155163D01*
X-72496Y155135D01*
X-72632Y155104D01*
X-72767Y155069D01*
X-72901Y155030D01*
X-73034Y154987D01*
X-73166Y154940D01*
X-73297Y154890D01*
X-73425Y154836D01*
X-73553Y154778D01*
X-73679Y154717D01*
X-73802Y154652D01*
X-73925Y154584D01*
X-74045Y154513D01*
X-74163Y154438D01*
X-74278Y154359D01*
X-74392Y154278D01*
X-74503Y154193D01*
X-74612Y154105D01*
X-74718Y154015D01*
X-74822Y153921D01*
X-74923Y153824D01*
X-75021Y153724D01*
X-75116Y153622D01*
X-75208Y153517D01*
X-75298Y153410D01*
X-75384Y153300D01*
X-75467Y153187D01*
X-75547Y153073D01*
X-75624Y152956D01*
X-75697Y152837D01*
X-75767Y152716D01*
X-75833Y152593D01*
X-75896Y152468D01*
X-75956Y152341D01*
X-76011Y152213D01*
X-76063Y152084D01*
X-76112Y151952D01*
X-76157Y151820D01*
X-76198Y151686D01*
X-76235Y151552D01*
X-76268Y151416D01*
X-76297Y151279D01*
X-76323Y151142D01*
X-76345Y151004D01*
X-76362Y150865D01*
X-76376Y150726D01*
X-76386Y150586D01*
X-76392Y150447D01*
X-76394Y150307D01*
X-76394Y145368D01*
X-76394Y151294D02*
X-84296Y155245D01*
X-70467Y162033D02*
X-66516Y166972D01*
X-84296Y166972D01*
X-84296Y171910D02*
X-84296Y162033D01*
X-70467Y178783D02*
X-66516Y183722D01*
X-84296Y183722D01*
X-84296Y178783D02*
X-84296Y188661D01*
X109826Y109505D02*
X122398Y96933D01*
X109826Y109505D02*
X106333Y106013D01*
X106334Y106013D02*
X106236Y105913D01*
X106142Y105810D01*
X106050Y105705D01*
X105961Y105597D01*
X105876Y105486D01*
X105794Y105373D01*
X105715Y105258D01*
X105639Y105140D01*
X105566Y105021D01*
X105497Y104899D01*
X105432Y104776D01*
X105370Y104650D01*
X105311Y104523D01*
X105256Y104395D01*
X105205Y104265D01*
X105158Y104133D01*
X105114Y104001D01*
X105074Y103867D01*
X105038Y103732D01*
X105005Y103596D01*
X104977Y103459D01*
X104952Y103321D01*
X104932Y103183D01*
X104915Y103044D01*
X104902Y102905D01*
X104893Y102766D01*
X104888Y102626D01*
X104887Y102486D01*
X104890Y102346D01*
X104897Y102207D01*
X104908Y102067D01*
X104923Y101928D01*
X104941Y101790D01*
X104964Y101652D01*
X104991Y101515D01*
X105021Y101378D01*
X105055Y101243D01*
X105093Y101108D01*
X105135Y100975D01*
X105181Y100843D01*
X105230Y100712D01*
X105283Y100583D01*
X105340Y100455D01*
X105400Y100329D01*
X105464Y100204D01*
X105531Y100082D01*
X105602Y99961D01*
X105676Y99843D01*
X105754Y99726D01*
X105834Y99612D01*
X105918Y99500D01*
X106005Y99391D01*
X106095Y99284D01*
X106189Y99180D01*
X106285Y99078D01*
X106383Y98980D01*
X106485Y98884D01*
X106589Y98790D01*
X106696Y98700D01*
X106805Y98613D01*
X106917Y98529D01*
X107031Y98449D01*
X107148Y98371D01*
X107266Y98297D01*
X107387Y98226D01*
X107509Y98159D01*
X107634Y98095D01*
X107760Y98035D01*
X107888Y97978D01*
X108017Y97925D01*
X108148Y97876D01*
X108280Y97830D01*
X108413Y97788D01*
X108548Y97750D01*
X108683Y97716D01*
X108820Y97686D01*
X108957Y97659D01*
X109095Y97636D01*
X109233Y97618D01*
X109372Y97603D01*
X109512Y97592D01*
X109651Y97585D01*
X109791Y97582D01*
X109931Y97583D01*
X110071Y97588D01*
X110210Y97597D01*
X110349Y97610D01*
X110488Y97627D01*
X110626Y97647D01*
X110764Y97672D01*
X110901Y97700D01*
X111037Y97733D01*
X111172Y97769D01*
X111306Y97809D01*
X111438Y97853D01*
X111570Y97900D01*
X111700Y97951D01*
X111828Y98006D01*
X111955Y98065D01*
X112081Y98127D01*
X112204Y98192D01*
X112326Y98261D01*
X112445Y98334D01*
X112563Y98410D01*
X112678Y98489D01*
X112791Y98571D01*
X112902Y98656D01*
X113010Y98745D01*
X113115Y98837D01*
X113218Y98931D01*
X113318Y99029D01*
X113318Y99028D02*
X116810Y102521D01*
X94674Y94353D02*
X94582Y94259D01*
X94493Y94161D01*
X94407Y94062D01*
X94324Y93959D01*
X94244Y93855D01*
X94167Y93748D01*
X94094Y93638D01*
X94024Y93527D01*
X93957Y93413D01*
X93893Y93298D01*
X93833Y93181D01*
X93776Y93062D01*
X93723Y92941D01*
X93674Y92819D01*
X93628Y92696D01*
X93586Y92571D01*
X93547Y92445D01*
X93512Y92318D01*
X93481Y92190D01*
X93454Y92061D01*
X93431Y91931D01*
X93411Y91801D01*
X93396Y91670D01*
X93384Y91539D01*
X93376Y91408D01*
X93372Y91276D01*
X93372Y91144D01*
X93376Y91012D01*
X93384Y90881D01*
X93396Y90750D01*
X93411Y90619D01*
X93431Y90489D01*
X93454Y90359D01*
X93481Y90230D01*
X93512Y90102D01*
X93547Y89975D01*
X93586Y89849D01*
X93628Y89724D01*
X93674Y89601D01*
X93723Y89479D01*
X93776Y89358D01*
X93833Y89239D01*
X93893Y89122D01*
X93957Y89007D01*
X94024Y88893D01*
X94094Y88782D01*
X94167Y88672D01*
X94244Y88565D01*
X94324Y88461D01*
X94407Y88358D01*
X94493Y88259D01*
X94582Y88161D01*
X94674Y88067D01*
X94674Y94353D02*
X94781Y94458D01*
X94891Y94559D01*
X95003Y94658D01*
X95118Y94754D01*
X95236Y94846D01*
X95356Y94936D01*
X95478Y95022D01*
X95602Y95105D01*
X95729Y95185D01*
X95858Y95261D01*
X95988Y95335D01*
X96120Y95404D01*
X96255Y95470D01*
X96391Y95533D01*
X96528Y95592D01*
X96667Y95647D01*
X96807Y95699D01*
X96949Y95747D01*
X97092Y95791D01*
X97236Y95832D01*
X97381Y95869D01*
X97527Y95902D01*
X97674Y95931D01*
X97821Y95956D01*
X97969Y95978D01*
X98118Y95995D01*
X98267Y96009D01*
X98416Y96018D01*
X98566Y96024D01*
X98715Y96026D01*
X98865Y96024D01*
X99015Y96018D01*
X99164Y96008D01*
X99313Y95994D01*
X99461Y95977D01*
X99610Y95955D01*
X99757Y95930D01*
X99904Y95900D01*
X100050Y95867D01*
X100195Y95830D01*
X100339Y95789D01*
X100481Y95745D01*
X100623Y95697D01*
X100763Y95645D01*
X100902Y95589D01*
X101040Y95530D01*
X101176Y95467D01*
X101310Y95401D01*
X98166Y86670D02*
X98033Y86669D01*
X97900Y86671D01*
X97767Y86677D01*
X97634Y86687D01*
X97501Y86701D01*
X97369Y86718D01*
X97237Y86739D01*
X97106Y86763D01*
X96976Y86791D01*
X96846Y86823D01*
X96718Y86859D01*
X96590Y86898D01*
X96464Y86940D01*
X96339Y86986D01*
X96215Y87036D01*
X96093Y87089D01*
X95972Y87145D01*
X95853Y87205D01*
X95735Y87268D01*
X95620Y87334D01*
X95506Y87403D01*
X95394Y87476D01*
X95284Y87552D01*
X95177Y87630D01*
X95072Y87712D01*
X94969Y87797D01*
X94868Y87884D01*
X94770Y87974D01*
X94674Y88067D01*
X98166Y86670D02*
X111088Y85623D01*
X104103Y78638D01*
X90467Y74780D02*
X86276Y78971D01*
X90467Y74780D02*
X91166Y69193D01*
X90467Y74780D02*
X96055Y74082D01*
X90467Y74780D02*
X85229Y72336D01*
X90467Y74780D02*
X92912Y80019D01*
D12*
X-46415Y243364D02*
X-46415Y244479D01*
X-47530Y244479D01*
X-47530Y243364D01*
X-46415Y243364D01*
D10*
X35609Y123246D02*
X35609Y119352D01*
X33338Y116431D01*
X35609Y119352D02*
X37881Y116431D01*
X35609Y119352D02*
X32039Y120650D01*
X35609Y119352D02*
X39180Y120650D01*
D11*
X42863Y160338D02*
X47625Y160338D01*
X42863Y160338D02*
X41275Y161925D01*
D13*
X48165Y163386D02*
X48165Y156528D01*
D14*
X38211Y159178D02*
X30845Y159178D01*
X38211Y159178D02*
X38211Y162451D01*
X34937Y162451D02*
X34937Y159178D01*
X34937Y165619D02*
X34937Y167666D01*
X34935Y167755D01*
X34929Y167844D01*
X34919Y167933D01*
X34906Y168021D01*
X34889Y168109D01*
X34867Y168196D01*
X34842Y168281D01*
X34814Y168366D01*
X34781Y168449D01*
X34745Y168531D01*
X34706Y168611D01*
X34663Y168689D01*
X34617Y168765D01*
X34567Y168840D01*
X34514Y168912D01*
X34458Y168981D01*
X34399Y169048D01*
X34338Y169113D01*
X34273Y169174D01*
X34206Y169233D01*
X34137Y169289D01*
X34065Y169342D01*
X33990Y169392D01*
X33914Y169438D01*
X33836Y169481D01*
X33756Y169520D01*
X33674Y169556D01*
X33591Y169589D01*
X33506Y169617D01*
X33421Y169642D01*
X33334Y169664D01*
X33246Y169681D01*
X33158Y169694D01*
X33069Y169704D01*
X32980Y169710D01*
X32891Y169712D01*
X32802Y169710D01*
X32713Y169704D01*
X32624Y169694D01*
X32536Y169681D01*
X32448Y169664D01*
X32361Y169642D01*
X32276Y169617D01*
X32191Y169589D01*
X32108Y169556D01*
X32026Y169520D01*
X31946Y169481D01*
X31868Y169438D01*
X31792Y169392D01*
X31717Y169342D01*
X31645Y169289D01*
X31576Y169233D01*
X31509Y169174D01*
X31444Y169113D01*
X31383Y169048D01*
X31324Y168981D01*
X31268Y168912D01*
X31215Y168840D01*
X31165Y168765D01*
X31119Y168689D01*
X31076Y168611D01*
X31037Y168531D01*
X31001Y168449D01*
X30968Y168366D01*
X30940Y168281D01*
X30915Y168196D01*
X30893Y168109D01*
X30876Y168021D01*
X30863Y167933D01*
X30853Y167844D01*
X30847Y167755D01*
X30845Y167666D01*
X30845Y165619D01*
X38211Y165619D01*
X38211Y167666D01*
X38209Y167745D01*
X38203Y167824D01*
X38194Y167903D01*
X38181Y167981D01*
X38163Y168058D01*
X38143Y168134D01*
X38118Y168209D01*
X38090Y168283D01*
X38059Y168356D01*
X38023Y168427D01*
X37985Y168496D01*
X37943Y168563D01*
X37898Y168628D01*
X37850Y168691D01*
X37799Y168752D01*
X37745Y168809D01*
X37689Y168865D01*
X37630Y168917D01*
X37568Y168967D01*
X37504Y169013D01*
X37438Y169057D01*
X37370Y169097D01*
X37300Y169133D01*
X37228Y169167D01*
X37154Y169197D01*
X37080Y169223D01*
X37004Y169246D01*
X36927Y169264D01*
X36850Y169280D01*
X36771Y169291D01*
X36693Y169299D01*
X36614Y169303D01*
X36534Y169303D01*
X36455Y169299D01*
X36377Y169291D01*
X36298Y169280D01*
X36221Y169264D01*
X36144Y169246D01*
X36068Y169223D01*
X35994Y169197D01*
X35920Y169167D01*
X35848Y169133D01*
X35778Y169097D01*
X35710Y169057D01*
X35644Y169013D01*
X35580Y168967D01*
X35518Y168917D01*
X35459Y168865D01*
X35403Y168809D01*
X35349Y168752D01*
X35298Y168691D01*
X35250Y168628D01*
X35205Y168563D01*
X35163Y168496D01*
X35125Y168427D01*
X35089Y168356D01*
X35058Y168283D01*
X35030Y168209D01*
X35005Y168134D01*
X34985Y168058D01*
X34967Y167981D01*
X34954Y167903D01*
X34945Y167824D01*
X34939Y167745D01*
X34937Y167666D01*
X36574Y172573D02*
X38211Y174619D01*
X30845Y174619D01*
X30845Y172573D02*
X30845Y176665D01*
D13*
X68263Y163386D02*
X68263Y157036D01*
D14*
X77353Y154561D02*
X84719Y154561D01*
X84719Y156607D01*
X84718Y156607D02*
X84716Y156696D01*
X84710Y156785D01*
X84700Y156874D01*
X84687Y156962D01*
X84670Y157050D01*
X84648Y157137D01*
X84623Y157222D01*
X84595Y157307D01*
X84562Y157390D01*
X84526Y157472D01*
X84487Y157552D01*
X84444Y157630D01*
X84398Y157706D01*
X84348Y157781D01*
X84295Y157853D01*
X84239Y157922D01*
X84180Y157989D01*
X84119Y158054D01*
X84054Y158115D01*
X83987Y158174D01*
X83918Y158230D01*
X83846Y158283D01*
X83771Y158333D01*
X83695Y158379D01*
X83617Y158422D01*
X83537Y158461D01*
X83455Y158497D01*
X83372Y158530D01*
X83287Y158558D01*
X83202Y158583D01*
X83115Y158605D01*
X83027Y158622D01*
X82939Y158635D01*
X82850Y158645D01*
X82761Y158651D01*
X82672Y158653D01*
X82583Y158651D01*
X82494Y158645D01*
X82405Y158635D01*
X82317Y158622D01*
X82229Y158605D01*
X82142Y158583D01*
X82057Y158558D01*
X81972Y158530D01*
X81889Y158497D01*
X81807Y158461D01*
X81727Y158422D01*
X81649Y158379D01*
X81573Y158333D01*
X81498Y158283D01*
X81426Y158230D01*
X81357Y158174D01*
X81290Y158115D01*
X81225Y158054D01*
X81164Y157989D01*
X81105Y157922D01*
X81049Y157853D01*
X80996Y157781D01*
X80946Y157706D01*
X80900Y157630D01*
X80857Y157552D01*
X80818Y157472D01*
X80782Y157390D01*
X80749Y157307D01*
X80721Y157222D01*
X80696Y157137D01*
X80674Y157050D01*
X80657Y156962D01*
X80644Y156874D01*
X80634Y156785D01*
X80628Y156696D01*
X80626Y156607D01*
X80626Y154561D01*
X80626Y157016D02*
X77353Y158653D01*
X82877Y165918D02*
X82962Y165916D01*
X83047Y165910D01*
X83131Y165900D01*
X83215Y165887D01*
X83299Y165869D01*
X83381Y165848D01*
X83462Y165823D01*
X83542Y165794D01*
X83621Y165761D01*
X83698Y165725D01*
X83773Y165685D01*
X83847Y165642D01*
X83918Y165596D01*
X83987Y165546D01*
X84054Y165493D01*
X84118Y165437D01*
X84179Y165378D01*
X84238Y165317D01*
X84294Y165253D01*
X84347Y165186D01*
X84397Y165117D01*
X84443Y165046D01*
X84486Y164972D01*
X84526Y164897D01*
X84562Y164820D01*
X84595Y164741D01*
X84624Y164661D01*
X84649Y164580D01*
X84670Y164498D01*
X84688Y164414D01*
X84701Y164330D01*
X84711Y164246D01*
X84717Y164161D01*
X84719Y164076D01*
X84717Y163980D01*
X84711Y163884D01*
X84701Y163789D01*
X84688Y163694D01*
X84670Y163599D01*
X84649Y163506D01*
X84624Y163413D01*
X84595Y163322D01*
X84563Y163231D01*
X84527Y163142D01*
X84487Y163055D01*
X84444Y162969D01*
X84398Y162885D01*
X84348Y162803D01*
X84294Y162723D01*
X84238Y162646D01*
X84178Y162571D01*
X84116Y162498D01*
X84050Y162428D01*
X83982Y162360D01*
X83911Y162295D01*
X83838Y162234D01*
X83762Y162175D01*
X83683Y162119D01*
X83603Y162067D01*
X83520Y162018D01*
X83436Y161972D01*
X83350Y161930D01*
X83262Y161892D01*
X83173Y161857D01*
X83082Y161825D01*
X81445Y165303D02*
X81504Y165363D01*
X81566Y165420D01*
X81630Y165475D01*
X81697Y165526D01*
X81766Y165575D01*
X81836Y165621D01*
X81909Y165664D01*
X81983Y165704D01*
X82059Y165740D01*
X82137Y165773D01*
X82216Y165803D01*
X82296Y165830D01*
X82377Y165853D01*
X82459Y165872D01*
X82541Y165888D01*
X82625Y165901D01*
X82709Y165910D01*
X82793Y165915D01*
X82877Y165917D01*
X81445Y165304D02*
X77353Y161825D01*
X77353Y165917D01*
X58721Y54141D02*
X63631Y46775D01*
X58721Y46775D02*
X63631Y54141D01*
X55907Y52504D02*
X53861Y54141D01*
X53861Y46775D01*
X55907Y46775D02*
X51815Y46775D01*
X36374Y114375D02*
X36374Y118354D01*
X36374Y114375D02*
X34052Y111390D01*
X36374Y114375D02*
X38695Y111390D01*
X36374Y114375D02*
X32726Y115701D01*
X36374Y114375D02*
X40021Y115701D01*
D13*
X-48419Y125286D02*
X-48419Y131636D01*
D14*
X-45617Y100709D02*
X-52983Y100709D01*
X-45617Y100709D02*
X-45617Y102755D01*
X-45619Y102844D01*
X-45625Y102933D01*
X-45635Y103022D01*
X-45648Y103110D01*
X-45665Y103198D01*
X-45687Y103285D01*
X-45712Y103370D01*
X-45740Y103455D01*
X-45773Y103538D01*
X-45809Y103620D01*
X-45848Y103700D01*
X-45891Y103778D01*
X-45937Y103854D01*
X-45987Y103929D01*
X-46040Y104001D01*
X-46096Y104070D01*
X-46155Y104137D01*
X-46216Y104202D01*
X-46281Y104263D01*
X-46348Y104322D01*
X-46417Y104378D01*
X-46489Y104431D01*
X-46564Y104481D01*
X-46640Y104527D01*
X-46718Y104570D01*
X-46798Y104609D01*
X-46880Y104645D01*
X-46963Y104678D01*
X-47048Y104706D01*
X-47133Y104731D01*
X-47220Y104753D01*
X-47308Y104770D01*
X-47396Y104783D01*
X-47485Y104793D01*
X-47574Y104799D01*
X-47663Y104801D01*
X-47752Y104799D01*
X-47841Y104793D01*
X-47930Y104783D01*
X-48018Y104770D01*
X-48106Y104753D01*
X-48193Y104731D01*
X-48278Y104706D01*
X-48363Y104678D01*
X-48446Y104645D01*
X-48528Y104609D01*
X-48608Y104570D01*
X-48686Y104527D01*
X-48762Y104481D01*
X-48837Y104431D01*
X-48909Y104378D01*
X-48978Y104322D01*
X-49045Y104263D01*
X-49110Y104202D01*
X-49171Y104137D01*
X-49230Y104070D01*
X-49286Y104001D01*
X-49339Y103929D01*
X-49389Y103854D01*
X-49435Y103778D01*
X-49478Y103700D01*
X-49517Y103620D01*
X-49553Y103538D01*
X-49586Y103455D01*
X-49614Y103370D01*
X-49639Y103285D01*
X-49661Y103198D01*
X-49678Y103110D01*
X-49691Y103022D01*
X-49701Y102933D01*
X-49707Y102844D01*
X-49709Y102755D01*
X-49709Y100709D01*
X-49709Y103164D02*
X-52983Y104801D01*
X-52983Y107973D02*
X-52983Y110019D01*
X-52981Y110108D01*
X-52975Y110197D01*
X-52965Y110286D01*
X-52952Y110374D01*
X-52935Y110462D01*
X-52913Y110549D01*
X-52888Y110634D01*
X-52860Y110719D01*
X-52827Y110802D01*
X-52791Y110884D01*
X-52752Y110964D01*
X-52709Y111042D01*
X-52663Y111118D01*
X-52613Y111193D01*
X-52560Y111265D01*
X-52504Y111334D01*
X-52445Y111401D01*
X-52384Y111466D01*
X-52319Y111527D01*
X-52252Y111586D01*
X-52183Y111642D01*
X-52111Y111695D01*
X-52036Y111745D01*
X-51960Y111791D01*
X-51882Y111834D01*
X-51802Y111873D01*
X-51720Y111909D01*
X-51637Y111942D01*
X-51552Y111970D01*
X-51467Y111995D01*
X-51380Y112017D01*
X-51292Y112034D01*
X-51204Y112047D01*
X-51115Y112057D01*
X-51026Y112063D01*
X-50937Y112065D01*
X-50848Y112063D01*
X-50759Y112057D01*
X-50670Y112047D01*
X-50582Y112034D01*
X-50494Y112017D01*
X-50407Y111995D01*
X-50322Y111970D01*
X-50237Y111942D01*
X-50154Y111909D01*
X-50072Y111873D01*
X-49992Y111834D01*
X-49914Y111791D01*
X-49838Y111745D01*
X-49763Y111695D01*
X-49691Y111642D01*
X-49622Y111586D01*
X-49555Y111527D01*
X-49490Y111466D01*
X-49429Y111401D01*
X-49370Y111334D01*
X-49314Y111265D01*
X-49261Y111193D01*
X-49211Y111118D01*
X-49165Y111042D01*
X-49122Y110964D01*
X-49083Y110884D01*
X-49047Y110802D01*
X-49014Y110719D01*
X-48986Y110634D01*
X-48961Y110549D01*
X-48939Y110462D01*
X-48922Y110374D01*
X-48909Y110286D01*
X-48899Y110197D01*
X-48893Y110108D01*
X-48891Y110019D01*
X-45617Y110428D02*
X-45617Y107973D01*
X-45617Y110428D02*
X-45619Y110507D01*
X-45625Y110586D01*
X-45634Y110665D01*
X-45647Y110743D01*
X-45665Y110820D01*
X-45685Y110896D01*
X-45710Y110971D01*
X-45738Y111045D01*
X-45769Y111118D01*
X-45805Y111189D01*
X-45843Y111258D01*
X-45885Y111325D01*
X-45930Y111390D01*
X-45978Y111453D01*
X-46029Y111514D01*
X-46083Y111571D01*
X-46139Y111627D01*
X-46198Y111679D01*
X-46260Y111729D01*
X-46324Y111775D01*
X-46390Y111819D01*
X-46458Y111859D01*
X-46528Y111895D01*
X-46600Y111929D01*
X-46674Y111959D01*
X-46748Y111985D01*
X-46824Y112008D01*
X-46901Y112026D01*
X-46978Y112042D01*
X-47057Y112053D01*
X-47135Y112061D01*
X-47214Y112065D01*
X-47294Y112065D01*
X-47373Y112061D01*
X-47451Y112053D01*
X-47530Y112042D01*
X-47607Y112026D01*
X-47684Y112008D01*
X-47760Y111985D01*
X-47834Y111959D01*
X-47908Y111929D01*
X-47980Y111895D01*
X-48050Y111859D01*
X-48118Y111819D01*
X-48184Y111775D01*
X-48248Y111729D01*
X-48310Y111679D01*
X-48369Y111627D01*
X-48425Y111571D01*
X-48479Y111514D01*
X-48530Y111453D01*
X-48578Y111390D01*
X-48623Y111325D01*
X-48665Y111258D01*
X-48703Y111189D01*
X-48739Y111118D01*
X-48770Y111045D01*
X-48798Y110971D01*
X-48823Y110896D01*
X-48843Y110820D01*
X-48861Y110743D01*
X-48874Y110665D01*
X-48883Y110586D01*
X-48889Y110507D01*
X-48891Y110428D01*
X-48891Y108791D01*
D13*
X-49340Y58738D02*
X-55690Y58738D01*
D14*
X-49169Y49870D02*
X-49169Y42504D01*
X-49169Y49870D02*
X-51215Y49870D01*
X-51304Y49868D01*
X-51393Y49862D01*
X-51482Y49852D01*
X-51570Y49839D01*
X-51658Y49822D01*
X-51745Y49800D01*
X-51830Y49775D01*
X-51915Y49747D01*
X-51998Y49714D01*
X-52080Y49678D01*
X-52160Y49639D01*
X-52238Y49596D01*
X-52314Y49550D01*
X-52389Y49500D01*
X-52461Y49447D01*
X-52530Y49391D01*
X-52597Y49332D01*
X-52662Y49271D01*
X-52723Y49206D01*
X-52782Y49139D01*
X-52838Y49070D01*
X-52891Y48998D01*
X-52941Y48923D01*
X-52987Y48847D01*
X-53030Y48769D01*
X-53069Y48689D01*
X-53105Y48607D01*
X-53138Y48524D01*
X-53166Y48439D01*
X-53191Y48354D01*
X-53213Y48267D01*
X-53230Y48179D01*
X-53243Y48091D01*
X-53253Y48002D01*
X-53259Y47913D01*
X-53261Y47824D01*
X-53259Y47735D01*
X-53253Y47646D01*
X-53243Y47557D01*
X-53230Y47469D01*
X-53213Y47381D01*
X-53191Y47294D01*
X-53166Y47209D01*
X-53138Y47124D01*
X-53105Y47041D01*
X-53069Y46959D01*
X-53030Y46879D01*
X-52987Y46801D01*
X-52941Y46725D01*
X-52891Y46650D01*
X-52838Y46578D01*
X-52782Y46509D01*
X-52723Y46442D01*
X-52662Y46377D01*
X-52597Y46316D01*
X-52530Y46257D01*
X-52461Y46201D01*
X-52389Y46148D01*
X-52314Y46098D01*
X-52238Y46052D01*
X-52160Y46009D01*
X-52080Y45970D01*
X-51998Y45934D01*
X-51915Y45901D01*
X-51830Y45873D01*
X-51745Y45848D01*
X-51658Y45826D01*
X-51570Y45809D01*
X-51482Y45796D01*
X-51393Y45786D01*
X-51304Y45780D01*
X-51215Y45778D01*
X-49169Y45778D01*
X-51625Y45778D02*
X-53262Y42504D01*
X-56433Y48233D02*
X-58479Y49870D01*
X-58479Y42504D01*
X-56433Y42504D02*
X-60526Y42504D01*
D13*
X54642Y113506D02*
X61246Y113506D01*
D14*
X84586Y108172D02*
X86222Y108172D01*
X86300Y108174D01*
X86378Y108179D01*
X86455Y108189D01*
X86532Y108202D01*
X86608Y108218D01*
X86683Y108238D01*
X86757Y108262D01*
X86830Y108289D01*
X86902Y108320D01*
X86972Y108354D01*
X87041Y108391D01*
X87107Y108432D01*
X87172Y108476D01*
X87234Y108522D01*
X87294Y108572D01*
X87352Y108624D01*
X87407Y108679D01*
X87459Y108737D01*
X87509Y108797D01*
X87555Y108859D01*
X87599Y108924D01*
X87640Y108991D01*
X87677Y109059D01*
X87711Y109129D01*
X87742Y109201D01*
X87769Y109274D01*
X87793Y109348D01*
X87813Y109423D01*
X87829Y109499D01*
X87842Y109576D01*
X87852Y109653D01*
X87857Y109731D01*
X87859Y109809D01*
X87859Y113901D01*
X87857Y113979D01*
X87852Y114057D01*
X87842Y114134D01*
X87829Y114211D01*
X87813Y114287D01*
X87793Y114362D01*
X87769Y114436D01*
X87742Y114509D01*
X87711Y114581D01*
X87677Y114651D01*
X87640Y114720D01*
X87599Y114786D01*
X87555Y114851D01*
X87509Y114913D01*
X87459Y114973D01*
X87407Y115031D01*
X87352Y115086D01*
X87294Y115138D01*
X87234Y115188D01*
X87172Y115234D01*
X87107Y115278D01*
X87041Y115319D01*
X86972Y115356D01*
X86902Y115390D01*
X86830Y115421D01*
X86757Y115448D01*
X86683Y115472D01*
X86608Y115492D01*
X86532Y115508D01*
X86455Y115521D01*
X86378Y115531D01*
X86300Y115536D01*
X86222Y115538D01*
X84586Y115538D01*
X81740Y113901D02*
X79694Y115538D01*
X79694Y108172D01*
X81740Y108172D02*
X77648Y108172D01*
D13*
X61246Y103981D02*
X54642Y103981D01*
D14*
X83563Y96613D02*
X85199Y96613D01*
X85277Y96615D01*
X85355Y96620D01*
X85432Y96630D01*
X85509Y96643D01*
X85585Y96659D01*
X85660Y96679D01*
X85734Y96703D01*
X85807Y96730D01*
X85879Y96761D01*
X85949Y96795D01*
X86018Y96832D01*
X86084Y96873D01*
X86149Y96917D01*
X86211Y96963D01*
X86271Y97013D01*
X86329Y97065D01*
X86384Y97120D01*
X86436Y97178D01*
X86486Y97238D01*
X86532Y97300D01*
X86576Y97365D01*
X86617Y97432D01*
X86654Y97500D01*
X86688Y97570D01*
X86719Y97642D01*
X86746Y97715D01*
X86770Y97789D01*
X86790Y97864D01*
X86806Y97940D01*
X86819Y98017D01*
X86829Y98094D01*
X86834Y98172D01*
X86836Y98250D01*
X86836Y102342D01*
X86834Y102420D01*
X86829Y102498D01*
X86819Y102575D01*
X86806Y102652D01*
X86790Y102728D01*
X86770Y102803D01*
X86746Y102877D01*
X86719Y102950D01*
X86688Y103022D01*
X86654Y103092D01*
X86617Y103161D01*
X86576Y103227D01*
X86532Y103292D01*
X86486Y103354D01*
X86436Y103414D01*
X86384Y103472D01*
X86329Y103527D01*
X86271Y103579D01*
X86211Y103629D01*
X86149Y103675D01*
X86084Y103719D01*
X86018Y103760D01*
X85949Y103797D01*
X85879Y103831D01*
X85807Y103862D01*
X85734Y103889D01*
X85660Y103913D01*
X85585Y103933D01*
X85509Y103949D01*
X85432Y103962D01*
X85355Y103972D01*
X85277Y103977D01*
X85199Y103979D01*
X83563Y103979D01*
X80717Y96613D02*
X78671Y96613D01*
X78582Y96615D01*
X78493Y96621D01*
X78404Y96631D01*
X78316Y96644D01*
X78228Y96661D01*
X78141Y96683D01*
X78056Y96708D01*
X77971Y96736D01*
X77888Y96769D01*
X77806Y96805D01*
X77726Y96844D01*
X77648Y96887D01*
X77572Y96933D01*
X77497Y96983D01*
X77425Y97036D01*
X77356Y97092D01*
X77289Y97151D01*
X77224Y97212D01*
X77163Y97277D01*
X77104Y97344D01*
X77048Y97413D01*
X76995Y97485D01*
X76945Y97560D01*
X76899Y97636D01*
X76856Y97714D01*
X76817Y97794D01*
X76781Y97876D01*
X76748Y97959D01*
X76720Y98044D01*
X76695Y98129D01*
X76673Y98216D01*
X76656Y98304D01*
X76643Y98392D01*
X76633Y98481D01*
X76627Y98570D01*
X76625Y98659D01*
X76627Y98748D01*
X76633Y98837D01*
X76643Y98926D01*
X76656Y99014D01*
X76673Y99102D01*
X76695Y99189D01*
X76720Y99274D01*
X76748Y99359D01*
X76781Y99442D01*
X76817Y99524D01*
X76856Y99604D01*
X76899Y99682D01*
X76945Y99758D01*
X76995Y99833D01*
X77048Y99905D01*
X77104Y99974D01*
X77163Y100041D01*
X77224Y100106D01*
X77289Y100167D01*
X77356Y100226D01*
X77425Y100282D01*
X77497Y100335D01*
X77572Y100385D01*
X77648Y100431D01*
X77726Y100474D01*
X77806Y100513D01*
X77888Y100549D01*
X77971Y100582D01*
X78056Y100610D01*
X78141Y100635D01*
X78228Y100657D01*
X78316Y100674D01*
X78404Y100687D01*
X78493Y100697D01*
X78582Y100703D01*
X78671Y100705D01*
X78262Y103979D02*
X80717Y103979D01*
X78262Y103979D02*
X78183Y103977D01*
X78104Y103971D01*
X78025Y103962D01*
X77947Y103949D01*
X77870Y103931D01*
X77794Y103911D01*
X77719Y103886D01*
X77645Y103858D01*
X77572Y103827D01*
X77501Y103791D01*
X77432Y103753D01*
X77365Y103711D01*
X77300Y103666D01*
X77237Y103618D01*
X77176Y103567D01*
X77119Y103513D01*
X77063Y103457D01*
X77011Y103398D01*
X76961Y103336D01*
X76915Y103272D01*
X76871Y103206D01*
X76831Y103138D01*
X76795Y103068D01*
X76761Y102996D01*
X76731Y102922D01*
X76705Y102848D01*
X76682Y102772D01*
X76664Y102695D01*
X76648Y102618D01*
X76637Y102539D01*
X76629Y102461D01*
X76625Y102382D01*
X76625Y102302D01*
X76629Y102223D01*
X76637Y102145D01*
X76648Y102066D01*
X76664Y101989D01*
X76682Y101912D01*
X76705Y101836D01*
X76731Y101762D01*
X76761Y101688D01*
X76795Y101616D01*
X76831Y101546D01*
X76871Y101478D01*
X76915Y101412D01*
X76961Y101348D01*
X77011Y101286D01*
X77063Y101227D01*
X77119Y101171D01*
X77176Y101117D01*
X77237Y101066D01*
X77300Y101018D01*
X77365Y100973D01*
X77432Y100931D01*
X77501Y100893D01*
X77572Y100857D01*
X77645Y100826D01*
X77719Y100798D01*
X77794Y100773D01*
X77870Y100753D01*
X77947Y100735D01*
X78025Y100722D01*
X78104Y100713D01*
X78183Y100707D01*
X78262Y100705D01*
X78262Y100706D02*
X79899Y100706D01*
D13*
X-794Y138240D02*
X-794Y144590D01*
D14*
X-31147Y136906D02*
X-38513Y136906D01*
X-31147Y136906D02*
X-31147Y138952D01*
X-31149Y139041D01*
X-31155Y139130D01*
X-31165Y139219D01*
X-31178Y139307D01*
X-31195Y139395D01*
X-31217Y139482D01*
X-31242Y139567D01*
X-31270Y139652D01*
X-31303Y139735D01*
X-31339Y139817D01*
X-31378Y139897D01*
X-31421Y139975D01*
X-31467Y140051D01*
X-31517Y140126D01*
X-31570Y140198D01*
X-31626Y140267D01*
X-31685Y140334D01*
X-31746Y140399D01*
X-31811Y140460D01*
X-31878Y140519D01*
X-31947Y140575D01*
X-32019Y140628D01*
X-32094Y140678D01*
X-32170Y140724D01*
X-32248Y140767D01*
X-32328Y140806D01*
X-32410Y140842D01*
X-32493Y140875D01*
X-32578Y140903D01*
X-32663Y140928D01*
X-32750Y140950D01*
X-32838Y140967D01*
X-32926Y140980D01*
X-33015Y140990D01*
X-33104Y140996D01*
X-33193Y140998D01*
X-33282Y140996D01*
X-33371Y140990D01*
X-33460Y140980D01*
X-33548Y140967D01*
X-33636Y140950D01*
X-33723Y140928D01*
X-33808Y140903D01*
X-33893Y140875D01*
X-33976Y140842D01*
X-34058Y140806D01*
X-34138Y140767D01*
X-34216Y140724D01*
X-34292Y140678D01*
X-34367Y140628D01*
X-34439Y140575D01*
X-34508Y140519D01*
X-34575Y140460D01*
X-34640Y140399D01*
X-34701Y140334D01*
X-34760Y140267D01*
X-34816Y140198D01*
X-34869Y140126D01*
X-34919Y140051D01*
X-34965Y139975D01*
X-35008Y139897D01*
X-35047Y139817D01*
X-35083Y139735D01*
X-35116Y139652D01*
X-35144Y139567D01*
X-35169Y139482D01*
X-35191Y139395D01*
X-35208Y139307D01*
X-35221Y139219D01*
X-35231Y139130D01*
X-35237Y139041D01*
X-35239Y138952D01*
X-35239Y136906D01*
X-35239Y139361D02*
X-38513Y140998D01*
X-36876Y144170D02*
X-31147Y145807D01*
X-36876Y144170D02*
X-36876Y148262D01*
X-35239Y147035D02*
X-38513Y147035D01*
D13*
X14288Y144590D02*
X14288Y138240D01*
D14*
X-20034Y136906D02*
X-27400Y136906D01*
X-20034Y136906D02*
X-20034Y138952D01*
X-20036Y139041D01*
X-20042Y139130D01*
X-20052Y139219D01*
X-20065Y139307D01*
X-20082Y139395D01*
X-20104Y139482D01*
X-20129Y139567D01*
X-20157Y139652D01*
X-20190Y139735D01*
X-20226Y139817D01*
X-20265Y139897D01*
X-20308Y139975D01*
X-20354Y140051D01*
X-20404Y140126D01*
X-20457Y140198D01*
X-20513Y140267D01*
X-20572Y140334D01*
X-20633Y140399D01*
X-20698Y140460D01*
X-20765Y140519D01*
X-20834Y140575D01*
X-20906Y140628D01*
X-20981Y140678D01*
X-21057Y140724D01*
X-21135Y140767D01*
X-21215Y140806D01*
X-21297Y140842D01*
X-21380Y140875D01*
X-21465Y140903D01*
X-21550Y140928D01*
X-21637Y140950D01*
X-21725Y140967D01*
X-21813Y140980D01*
X-21902Y140990D01*
X-21991Y140996D01*
X-22080Y140998D01*
X-22169Y140996D01*
X-22258Y140990D01*
X-22347Y140980D01*
X-22435Y140967D01*
X-22523Y140950D01*
X-22610Y140928D01*
X-22695Y140903D01*
X-22780Y140875D01*
X-22863Y140842D01*
X-22945Y140806D01*
X-23025Y140767D01*
X-23103Y140724D01*
X-23179Y140678D01*
X-23254Y140628D01*
X-23326Y140575D01*
X-23395Y140519D01*
X-23462Y140460D01*
X-23527Y140399D01*
X-23588Y140334D01*
X-23647Y140267D01*
X-23703Y140198D01*
X-23756Y140126D01*
X-23806Y140051D01*
X-23852Y139975D01*
X-23895Y139897D01*
X-23934Y139817D01*
X-23970Y139735D01*
X-24003Y139652D01*
X-24031Y139567D01*
X-24056Y139482D01*
X-24078Y139395D01*
X-24095Y139307D01*
X-24108Y139219D01*
X-24118Y139130D01*
X-24124Y139041D01*
X-24126Y138952D01*
X-24127Y138952D02*
X-24127Y136906D01*
X-24127Y139361D02*
X-27400Y140998D01*
X-27400Y144170D02*
X-27400Y146625D01*
X-27398Y146703D01*
X-27393Y146781D01*
X-27383Y146858D01*
X-27370Y146935D01*
X-27354Y147011D01*
X-27334Y147086D01*
X-27310Y147160D01*
X-27283Y147233D01*
X-27252Y147305D01*
X-27218Y147375D01*
X-27181Y147444D01*
X-27140Y147510D01*
X-27096Y147575D01*
X-27050Y147637D01*
X-27000Y147697D01*
X-26948Y147755D01*
X-26893Y147810D01*
X-26835Y147862D01*
X-26775Y147912D01*
X-26713Y147958D01*
X-26648Y148002D01*
X-26582Y148043D01*
X-26513Y148080D01*
X-26443Y148114D01*
X-26371Y148145D01*
X-26298Y148172D01*
X-26224Y148196D01*
X-26149Y148216D01*
X-26073Y148232D01*
X-25996Y148245D01*
X-25919Y148255D01*
X-25841Y148260D01*
X-25763Y148262D01*
X-24945Y148262D01*
X-24865Y148260D01*
X-24785Y148254D01*
X-24705Y148244D01*
X-24626Y148231D01*
X-24547Y148213D01*
X-24470Y148192D01*
X-24394Y148166D01*
X-24319Y148137D01*
X-24245Y148105D01*
X-24173Y148069D01*
X-24103Y148029D01*
X-24036Y147986D01*
X-23970Y147940D01*
X-23907Y147890D01*
X-23846Y147838D01*
X-23787Y147783D01*
X-23732Y147724D01*
X-23680Y147664D01*
X-23630Y147600D01*
X-23584Y147534D01*
X-23541Y147467D01*
X-23501Y147397D01*
X-23465Y147325D01*
X-23433Y147251D01*
X-23404Y147177D01*
X-23378Y147100D01*
X-23357Y147023D01*
X-23339Y146944D01*
X-23326Y146865D01*
X-23316Y146785D01*
X-23310Y146705D01*
X-23308Y146625D01*
X-23308Y144170D01*
X-20034Y144170D01*
X-20034Y148262D01*
D13*
X29369Y144590D02*
X29369Y138240D01*
D14*
X-8922Y136906D02*
X-16288Y136906D01*
X-8922Y136906D02*
X-8922Y138952D01*
X-8924Y139041D01*
X-8930Y139130D01*
X-8940Y139219D01*
X-8953Y139307D01*
X-8970Y139395D01*
X-8992Y139482D01*
X-9017Y139567D01*
X-9045Y139652D01*
X-9078Y139735D01*
X-9114Y139817D01*
X-9153Y139897D01*
X-9196Y139975D01*
X-9242Y140051D01*
X-9292Y140126D01*
X-9345Y140198D01*
X-9401Y140267D01*
X-9460Y140334D01*
X-9521Y140399D01*
X-9586Y140460D01*
X-9653Y140519D01*
X-9722Y140575D01*
X-9794Y140628D01*
X-9869Y140678D01*
X-9945Y140724D01*
X-10023Y140767D01*
X-10103Y140806D01*
X-10185Y140842D01*
X-10268Y140875D01*
X-10353Y140903D01*
X-10438Y140928D01*
X-10525Y140950D01*
X-10613Y140967D01*
X-10701Y140980D01*
X-10790Y140990D01*
X-10879Y140996D01*
X-10968Y140998D01*
X-11057Y140996D01*
X-11146Y140990D01*
X-11235Y140980D01*
X-11323Y140967D01*
X-11411Y140950D01*
X-11498Y140928D01*
X-11583Y140903D01*
X-11668Y140875D01*
X-11751Y140842D01*
X-11833Y140806D01*
X-11913Y140767D01*
X-11991Y140724D01*
X-12067Y140678D01*
X-12142Y140628D01*
X-12214Y140575D01*
X-12283Y140519D01*
X-12350Y140460D01*
X-12415Y140399D01*
X-12476Y140334D01*
X-12535Y140267D01*
X-12591Y140198D01*
X-12644Y140126D01*
X-12694Y140051D01*
X-12740Y139975D01*
X-12783Y139897D01*
X-12822Y139817D01*
X-12858Y139735D01*
X-12891Y139652D01*
X-12919Y139567D01*
X-12944Y139482D01*
X-12966Y139395D01*
X-12983Y139307D01*
X-12996Y139219D01*
X-13006Y139130D01*
X-13012Y139041D01*
X-13014Y138952D01*
X-13014Y136906D01*
X-13014Y139361D02*
X-16288Y140998D01*
X-12196Y144170D02*
X-12196Y146625D01*
X-12195Y146625D02*
X-12197Y146703D01*
X-12202Y146781D01*
X-12212Y146858D01*
X-12225Y146935D01*
X-12241Y147011D01*
X-12261Y147086D01*
X-12285Y147160D01*
X-12312Y147233D01*
X-12343Y147305D01*
X-12377Y147375D01*
X-12414Y147444D01*
X-12455Y147510D01*
X-12499Y147575D01*
X-12545Y147637D01*
X-12595Y147697D01*
X-12647Y147755D01*
X-12702Y147810D01*
X-12760Y147862D01*
X-12820Y147912D01*
X-12882Y147958D01*
X-12947Y148002D01*
X-13014Y148043D01*
X-13082Y148080D01*
X-13152Y148114D01*
X-13224Y148145D01*
X-13297Y148172D01*
X-13371Y148196D01*
X-13446Y148216D01*
X-13522Y148232D01*
X-13599Y148245D01*
X-13676Y148255D01*
X-13754Y148260D01*
X-13832Y148262D01*
X-14242Y148262D01*
X-14331Y148260D01*
X-14420Y148254D01*
X-14509Y148244D01*
X-14597Y148231D01*
X-14685Y148214D01*
X-14772Y148192D01*
X-14857Y148167D01*
X-14942Y148139D01*
X-15025Y148106D01*
X-15107Y148070D01*
X-15187Y148031D01*
X-15265Y147988D01*
X-15341Y147942D01*
X-15416Y147892D01*
X-15488Y147839D01*
X-15557Y147783D01*
X-15624Y147724D01*
X-15689Y147663D01*
X-15750Y147598D01*
X-15809Y147531D01*
X-15865Y147462D01*
X-15918Y147390D01*
X-15968Y147315D01*
X-16014Y147239D01*
X-16057Y147161D01*
X-16096Y147081D01*
X-16132Y146999D01*
X-16165Y146916D01*
X-16193Y146831D01*
X-16218Y146746D01*
X-16240Y146659D01*
X-16257Y146571D01*
X-16270Y146483D01*
X-16280Y146394D01*
X-16286Y146305D01*
X-16288Y146216D01*
X-16286Y146127D01*
X-16280Y146038D01*
X-16270Y145949D01*
X-16257Y145861D01*
X-16240Y145773D01*
X-16218Y145686D01*
X-16193Y145601D01*
X-16165Y145516D01*
X-16132Y145433D01*
X-16096Y145351D01*
X-16057Y145271D01*
X-16014Y145193D01*
X-15968Y145117D01*
X-15918Y145042D01*
X-15865Y144970D01*
X-15809Y144901D01*
X-15750Y144834D01*
X-15689Y144769D01*
X-15624Y144708D01*
X-15557Y144649D01*
X-15488Y144593D01*
X-15416Y144540D01*
X-15341Y144490D01*
X-15265Y144444D01*
X-15187Y144401D01*
X-15107Y144362D01*
X-15025Y144326D01*
X-14942Y144293D01*
X-14857Y144265D01*
X-14772Y144240D01*
X-14685Y144218D01*
X-14597Y144201D01*
X-14509Y144188D01*
X-14420Y144178D01*
X-14331Y144172D01*
X-14242Y144170D01*
X-12196Y144170D01*
X-12082Y144172D01*
X-11968Y144178D01*
X-11854Y144188D01*
X-11740Y144202D01*
X-11627Y144220D01*
X-11515Y144242D01*
X-11404Y144267D01*
X-11294Y144297D01*
X-11184Y144330D01*
X-11076Y144367D01*
X-10970Y144408D01*
X-10864Y144453D01*
X-10761Y144501D01*
X-10659Y144553D01*
X-10559Y144609D01*
X-10461Y144667D01*
X-10365Y144730D01*
X-10272Y144795D01*
X-10180Y144864D01*
X-10092Y144936D01*
X-10005Y145011D01*
X-9922Y145089D01*
X-9841Y145170D01*
X-9763Y145253D01*
X-9688Y145339D01*
X-9616Y145428D01*
X-9547Y145520D01*
X-9482Y145613D01*
X-9420Y145709D01*
X-9361Y145807D01*
X-9305Y145907D01*
X-9253Y146009D01*
X-9205Y146112D01*
X-9160Y146217D01*
X-9119Y146324D01*
X-9082Y146432D01*
X-9049Y146542D01*
X-9019Y146652D01*
X-8994Y146763D01*
X-8972Y146875D01*
X-8954Y146988D01*
X-8940Y147102D01*
X-8930Y147216D01*
X-8924Y147330D01*
X-8922Y147444D01*
D15*
X49988Y189063D02*
X67488Y189063D01*
X67488Y176063D02*
X49988Y176063D01*
D14*
X88557Y179744D02*
X88557Y187110D01*
X86510Y187110D01*
X86510Y187109D02*
X86421Y187107D01*
X86332Y187101D01*
X86243Y187091D01*
X86155Y187078D01*
X86067Y187061D01*
X85980Y187039D01*
X85895Y187014D01*
X85810Y186986D01*
X85727Y186953D01*
X85645Y186917D01*
X85565Y186878D01*
X85487Y186835D01*
X85411Y186789D01*
X85336Y186739D01*
X85264Y186686D01*
X85195Y186630D01*
X85128Y186571D01*
X85063Y186510D01*
X85002Y186445D01*
X84943Y186378D01*
X84887Y186309D01*
X84834Y186237D01*
X84784Y186162D01*
X84738Y186086D01*
X84695Y186008D01*
X84656Y185928D01*
X84620Y185846D01*
X84587Y185763D01*
X84559Y185678D01*
X84534Y185593D01*
X84512Y185506D01*
X84495Y185418D01*
X84482Y185330D01*
X84472Y185241D01*
X84466Y185152D01*
X84464Y185063D01*
X84464Y181790D01*
X84466Y181701D01*
X84472Y181612D01*
X84482Y181523D01*
X84495Y181435D01*
X84512Y181347D01*
X84534Y181260D01*
X84559Y181175D01*
X84587Y181090D01*
X84620Y181007D01*
X84656Y180925D01*
X84695Y180845D01*
X84738Y180767D01*
X84784Y180691D01*
X84834Y180616D01*
X84887Y180544D01*
X84943Y180475D01*
X85002Y180408D01*
X85063Y180343D01*
X85128Y180282D01*
X85195Y180223D01*
X85264Y180167D01*
X85336Y180114D01*
X85411Y180064D01*
X85487Y180018D01*
X85565Y179975D01*
X85645Y179936D01*
X85727Y179900D01*
X85810Y179867D01*
X85895Y179839D01*
X85980Y179814D01*
X86067Y179792D01*
X86155Y179775D01*
X86243Y179762D01*
X86332Y179752D01*
X86421Y179746D01*
X86510Y179744D01*
X88557Y179744D01*
X78747Y187110D02*
X78662Y187108D01*
X78577Y187102D01*
X78493Y187092D01*
X78409Y187079D01*
X78325Y187061D01*
X78243Y187040D01*
X78162Y187015D01*
X78082Y186986D01*
X78003Y186953D01*
X77926Y186917D01*
X77851Y186877D01*
X77777Y186834D01*
X77706Y186788D01*
X77637Y186738D01*
X77570Y186685D01*
X77506Y186629D01*
X77445Y186570D01*
X77386Y186509D01*
X77330Y186445D01*
X77277Y186378D01*
X77227Y186309D01*
X77181Y186238D01*
X77138Y186164D01*
X77098Y186089D01*
X77062Y186012D01*
X77029Y185933D01*
X77000Y185853D01*
X76975Y185772D01*
X76954Y185690D01*
X76936Y185606D01*
X76923Y185522D01*
X76913Y185438D01*
X76907Y185353D01*
X76905Y185268D01*
X78747Y187110D02*
X78843Y187108D01*
X78939Y187102D01*
X79034Y187092D01*
X79129Y187079D01*
X79224Y187061D01*
X79317Y187040D01*
X79410Y187015D01*
X79501Y186986D01*
X79592Y186954D01*
X79681Y186918D01*
X79768Y186878D01*
X79854Y186835D01*
X79938Y186789D01*
X80020Y186739D01*
X80100Y186685D01*
X80177Y186629D01*
X80252Y186569D01*
X80325Y186507D01*
X80395Y186441D01*
X80463Y186373D01*
X80528Y186302D01*
X80589Y186229D01*
X80648Y186153D01*
X80704Y186074D01*
X80756Y185994D01*
X80805Y185911D01*
X80851Y185827D01*
X80893Y185741D01*
X80931Y185653D01*
X80966Y185564D01*
X80998Y185473D01*
X77519Y183836D02*
X77459Y183895D01*
X77402Y183957D01*
X77347Y184021D01*
X77296Y184088D01*
X77247Y184157D01*
X77201Y184227D01*
X77158Y184300D01*
X77118Y184374D01*
X77082Y184450D01*
X77049Y184528D01*
X77019Y184607D01*
X76992Y184687D01*
X76969Y184768D01*
X76950Y184850D01*
X76934Y184932D01*
X76921Y185016D01*
X76912Y185100D01*
X76907Y185184D01*
X76905Y185268D01*
X77519Y183836D02*
X80997Y179744D01*
X76905Y179744D01*
D16*
X-35465Y226536D02*
X-35465Y240252D01*
D14*
X-40291Y200473D02*
X-40291Y198836D01*
X-40289Y198758D01*
X-40284Y198680D01*
X-40274Y198603D01*
X-40261Y198526D01*
X-40245Y198450D01*
X-40225Y198375D01*
X-40201Y198301D01*
X-40174Y198228D01*
X-40143Y198156D01*
X-40109Y198086D01*
X-40072Y198018D01*
X-40031Y197951D01*
X-39987Y197886D01*
X-39941Y197824D01*
X-39891Y197764D01*
X-39839Y197706D01*
X-39784Y197651D01*
X-39726Y197599D01*
X-39666Y197549D01*
X-39604Y197503D01*
X-39539Y197459D01*
X-39473Y197418D01*
X-39404Y197381D01*
X-39334Y197347D01*
X-39262Y197316D01*
X-39189Y197289D01*
X-39115Y197265D01*
X-39040Y197245D01*
X-38964Y197229D01*
X-38887Y197216D01*
X-38810Y197206D01*
X-38732Y197201D01*
X-38654Y197199D01*
X-34562Y197199D01*
X-34482Y197201D01*
X-34402Y197207D01*
X-34322Y197217D01*
X-34243Y197230D01*
X-34164Y197248D01*
X-34087Y197269D01*
X-34011Y197295D01*
X-33936Y197324D01*
X-33862Y197356D01*
X-33790Y197392D01*
X-33720Y197432D01*
X-33653Y197475D01*
X-33587Y197521D01*
X-33524Y197571D01*
X-33463Y197623D01*
X-33404Y197678D01*
X-33349Y197737D01*
X-33297Y197797D01*
X-33247Y197861D01*
X-33201Y197926D01*
X-33158Y197994D01*
X-33118Y198064D01*
X-33082Y198136D01*
X-33050Y198210D01*
X-33021Y198284D01*
X-32996Y198361D01*
X-32974Y198438D01*
X-32956Y198517D01*
X-32943Y198596D01*
X-32933Y198675D01*
X-32927Y198756D01*
X-32925Y198836D01*
X-32925Y200473D01*
X-34562Y203318D02*
X-32925Y205364D01*
X-40291Y205364D01*
X-40291Y203318D02*
X-40291Y207410D01*
X-34766Y214726D02*
X-34681Y214724D01*
X-34596Y214718D01*
X-34512Y214708D01*
X-34428Y214695D01*
X-34344Y214677D01*
X-34262Y214656D01*
X-34181Y214631D01*
X-34101Y214602D01*
X-34022Y214569D01*
X-33945Y214533D01*
X-33870Y214493D01*
X-33796Y214450D01*
X-33725Y214404D01*
X-33656Y214354D01*
X-33589Y214301D01*
X-33525Y214245D01*
X-33464Y214186D01*
X-33405Y214125D01*
X-33349Y214061D01*
X-33296Y213994D01*
X-33246Y213925D01*
X-33200Y213854D01*
X-33157Y213780D01*
X-33117Y213705D01*
X-33081Y213628D01*
X-33048Y213549D01*
X-33019Y213469D01*
X-32994Y213388D01*
X-32973Y213306D01*
X-32955Y213222D01*
X-32942Y213138D01*
X-32932Y213054D01*
X-32926Y212969D01*
X-32924Y212884D01*
X-32925Y212884D02*
X-32927Y212788D01*
X-32933Y212692D01*
X-32943Y212597D01*
X-32956Y212502D01*
X-32974Y212407D01*
X-32995Y212314D01*
X-33020Y212221D01*
X-33049Y212130D01*
X-33081Y212039D01*
X-33117Y211950D01*
X-33157Y211863D01*
X-33200Y211777D01*
X-33246Y211693D01*
X-33296Y211611D01*
X-33350Y211531D01*
X-33406Y211454D01*
X-33466Y211379D01*
X-33528Y211306D01*
X-33594Y211236D01*
X-33662Y211168D01*
X-33733Y211103D01*
X-33806Y211042D01*
X-33882Y210983D01*
X-33961Y210927D01*
X-34041Y210875D01*
X-34124Y210826D01*
X-34208Y210780D01*
X-34294Y210738D01*
X-34382Y210700D01*
X-34471Y210665D01*
X-34562Y210633D01*
X-36198Y214111D02*
X-36139Y214171D01*
X-36077Y214228D01*
X-36013Y214283D01*
X-35946Y214334D01*
X-35877Y214383D01*
X-35807Y214429D01*
X-35734Y214472D01*
X-35660Y214512D01*
X-35584Y214548D01*
X-35506Y214581D01*
X-35427Y214611D01*
X-35347Y214638D01*
X-35266Y214661D01*
X-35184Y214680D01*
X-35102Y214696D01*
X-35018Y214709D01*
X-34934Y214718D01*
X-34850Y214723D01*
X-34766Y214725D01*
X-36199Y214111D02*
X-40291Y210633D01*
X-40291Y214725D01*
D16*
X-68802Y226536D02*
X-68802Y240252D01*
D14*
X-73628Y200473D02*
X-73628Y198836D01*
X-73626Y198758D01*
X-73621Y198680D01*
X-73611Y198603D01*
X-73598Y198526D01*
X-73582Y198450D01*
X-73562Y198375D01*
X-73538Y198301D01*
X-73511Y198228D01*
X-73480Y198156D01*
X-73446Y198086D01*
X-73409Y198018D01*
X-73368Y197951D01*
X-73324Y197886D01*
X-73278Y197824D01*
X-73228Y197764D01*
X-73176Y197706D01*
X-73121Y197651D01*
X-73063Y197599D01*
X-73003Y197549D01*
X-72941Y197503D01*
X-72876Y197459D01*
X-72810Y197418D01*
X-72741Y197381D01*
X-72671Y197347D01*
X-72599Y197316D01*
X-72526Y197289D01*
X-72452Y197265D01*
X-72377Y197245D01*
X-72301Y197229D01*
X-72224Y197216D01*
X-72147Y197206D01*
X-72069Y197201D01*
X-71991Y197199D01*
X-67899Y197199D01*
X-67819Y197201D01*
X-67739Y197207D01*
X-67659Y197217D01*
X-67580Y197230D01*
X-67501Y197248D01*
X-67424Y197269D01*
X-67348Y197295D01*
X-67273Y197324D01*
X-67199Y197356D01*
X-67127Y197392D01*
X-67057Y197432D01*
X-66990Y197475D01*
X-66924Y197521D01*
X-66861Y197571D01*
X-66800Y197623D01*
X-66741Y197678D01*
X-66686Y197737D01*
X-66634Y197797D01*
X-66584Y197861D01*
X-66538Y197926D01*
X-66495Y197994D01*
X-66455Y198064D01*
X-66419Y198136D01*
X-66387Y198210D01*
X-66358Y198284D01*
X-66333Y198361D01*
X-66311Y198438D01*
X-66293Y198517D01*
X-66280Y198596D01*
X-66270Y198675D01*
X-66264Y198756D01*
X-66262Y198836D01*
X-66262Y200473D01*
X-67899Y203318D02*
X-66262Y205364D01*
X-73628Y205364D01*
X-73628Y203318D02*
X-73628Y207410D01*
X-73628Y210633D02*
X-73628Y212679D01*
X-73626Y212768D01*
X-73620Y212857D01*
X-73610Y212946D01*
X-73597Y213034D01*
X-73580Y213122D01*
X-73558Y213209D01*
X-73533Y213294D01*
X-73505Y213379D01*
X-73472Y213462D01*
X-73436Y213544D01*
X-73397Y213624D01*
X-73354Y213702D01*
X-73308Y213778D01*
X-73258Y213853D01*
X-73205Y213925D01*
X-73149Y213994D01*
X-73090Y214061D01*
X-73029Y214126D01*
X-72964Y214187D01*
X-72897Y214246D01*
X-72828Y214302D01*
X-72756Y214355D01*
X-72681Y214405D01*
X-72605Y214451D01*
X-72527Y214494D01*
X-72447Y214533D01*
X-72365Y214569D01*
X-72282Y214602D01*
X-72197Y214630D01*
X-72112Y214655D01*
X-72025Y214677D01*
X-71937Y214694D01*
X-71849Y214707D01*
X-71760Y214717D01*
X-71671Y214723D01*
X-71582Y214725D01*
X-71493Y214723D01*
X-71404Y214717D01*
X-71315Y214707D01*
X-71227Y214694D01*
X-71139Y214677D01*
X-71052Y214655D01*
X-70967Y214630D01*
X-70882Y214602D01*
X-70799Y214569D01*
X-70717Y214533D01*
X-70637Y214494D01*
X-70559Y214451D01*
X-70483Y214405D01*
X-70408Y214355D01*
X-70336Y214302D01*
X-70267Y214246D01*
X-70200Y214187D01*
X-70135Y214126D01*
X-70074Y214061D01*
X-70015Y213994D01*
X-69959Y213925D01*
X-69906Y213853D01*
X-69856Y213778D01*
X-69810Y213702D01*
X-69767Y213624D01*
X-69728Y213544D01*
X-69692Y213462D01*
X-69659Y213379D01*
X-69631Y213294D01*
X-69606Y213209D01*
X-69584Y213122D01*
X-69567Y213034D01*
X-69554Y212946D01*
X-69544Y212857D01*
X-69538Y212768D01*
X-69536Y212679D01*
X-66262Y213088D02*
X-66262Y210633D01*
X-66262Y213088D02*
X-66264Y213167D01*
X-66270Y213246D01*
X-66279Y213325D01*
X-66292Y213403D01*
X-66310Y213480D01*
X-66330Y213556D01*
X-66355Y213631D01*
X-66383Y213705D01*
X-66414Y213778D01*
X-66450Y213849D01*
X-66488Y213918D01*
X-66530Y213985D01*
X-66575Y214050D01*
X-66623Y214113D01*
X-66674Y214174D01*
X-66728Y214231D01*
X-66784Y214287D01*
X-66843Y214339D01*
X-66905Y214389D01*
X-66969Y214435D01*
X-67035Y214479D01*
X-67103Y214519D01*
X-67173Y214555D01*
X-67245Y214589D01*
X-67319Y214619D01*
X-67393Y214645D01*
X-67469Y214668D01*
X-67546Y214686D01*
X-67623Y214702D01*
X-67702Y214713D01*
X-67780Y214721D01*
X-67859Y214725D01*
X-67939Y214725D01*
X-68018Y214721D01*
X-68096Y214713D01*
X-68175Y214702D01*
X-68252Y214686D01*
X-68329Y214668D01*
X-68405Y214645D01*
X-68479Y214619D01*
X-68553Y214589D01*
X-68625Y214555D01*
X-68695Y214519D01*
X-68763Y214479D01*
X-68829Y214435D01*
X-68893Y214389D01*
X-68955Y214339D01*
X-69014Y214287D01*
X-69070Y214231D01*
X-69124Y214174D01*
X-69175Y214113D01*
X-69223Y214050D01*
X-69268Y213985D01*
X-69310Y213918D01*
X-69348Y213849D01*
X-69384Y213778D01*
X-69415Y213705D01*
X-69443Y213631D01*
X-69468Y213556D01*
X-69488Y213480D01*
X-69506Y213403D01*
X-69519Y213325D01*
X-69528Y213246D01*
X-69534Y213167D01*
X-69536Y213088D01*
X-69536Y211451D01*
D17*
X-42388Y238156D03*
D18*
X-42344Y238154D01*
X-42301Y238148D01*
X-42259Y238139D01*
X-42217Y238126D01*
X-42177Y238109D01*
X-42138Y238089D01*
X-42101Y238066D01*
X-42067Y238039D01*
X-42034Y238010D01*
X-42005Y237977D01*
X-41978Y237943D01*
X-41955Y237906D01*
X-41935Y237867D01*
X-41918Y237827D01*
X-41905Y237785D01*
X-41896Y237743D01*
X-41890Y237700D01*
X-41888Y237656D01*
X-41890Y237612D01*
X-41896Y237569D01*
X-41905Y237527D01*
X-41918Y237485D01*
X-41935Y237445D01*
X-41955Y237406D01*
X-41978Y237369D01*
X-42005Y237335D01*
X-42034Y237302D01*
X-42067Y237273D01*
X-42101Y237246D01*
X-42138Y237223D01*
X-42177Y237203D01*
X-42217Y237186D01*
X-42259Y237173D01*
X-42301Y237164D01*
X-42344Y237158D01*
X-42388Y237156D01*
D17*
X-42388Y237156D03*
D18*
X-42432Y237158D01*
X-42475Y237164D01*
X-42517Y237173D01*
X-42559Y237186D01*
X-42599Y237203D01*
X-42638Y237223D01*
X-42675Y237246D01*
X-42709Y237273D01*
X-42742Y237302D01*
X-42771Y237335D01*
X-42798Y237369D01*
X-42821Y237406D01*
X-42841Y237445D01*
X-42858Y237485D01*
X-42871Y237527D01*
X-42880Y237569D01*
X-42886Y237612D01*
X-42888Y237656D01*
X-42886Y237700D01*
X-42880Y237743D01*
X-42871Y237785D01*
X-42858Y237827D01*
X-42841Y237867D01*
X-42821Y237906D01*
X-42798Y237943D01*
X-42771Y237977D01*
X-42742Y238010D01*
X-42709Y238039D01*
X-42675Y238066D01*
X-42638Y238089D01*
X-42599Y238109D01*
X-42559Y238126D01*
X-42517Y238139D01*
X-42475Y238148D01*
X-42432Y238154D01*
X-42388Y238156D01*
D14*
X-49117Y212456D02*
X-54437Y212456D01*
X-54526Y212458D01*
X-54615Y212464D01*
X-54704Y212474D01*
X-54792Y212487D01*
X-54880Y212504D01*
X-54967Y212526D01*
X-55052Y212551D01*
X-55137Y212579D01*
X-55220Y212612D01*
X-55302Y212648D01*
X-55382Y212687D01*
X-55460Y212730D01*
X-55536Y212776D01*
X-55611Y212826D01*
X-55683Y212879D01*
X-55752Y212935D01*
X-55819Y212994D01*
X-55884Y213055D01*
X-55945Y213120D01*
X-56004Y213187D01*
X-56060Y213256D01*
X-56113Y213328D01*
X-56163Y213403D01*
X-56209Y213479D01*
X-56252Y213557D01*
X-56291Y213637D01*
X-56327Y213719D01*
X-56360Y213802D01*
X-56388Y213887D01*
X-56413Y213972D01*
X-56435Y214059D01*
X-56452Y214147D01*
X-56465Y214235D01*
X-56475Y214324D01*
X-56481Y214413D01*
X-56483Y214502D01*
X-56481Y214591D01*
X-56475Y214680D01*
X-56465Y214769D01*
X-56452Y214857D01*
X-56435Y214945D01*
X-56413Y215032D01*
X-56388Y215117D01*
X-56360Y215202D01*
X-56327Y215285D01*
X-56291Y215367D01*
X-56252Y215447D01*
X-56209Y215525D01*
X-56163Y215601D01*
X-56113Y215676D01*
X-56060Y215748D01*
X-56004Y215817D01*
X-55945Y215884D01*
X-55884Y215949D01*
X-55819Y216010D01*
X-55752Y216069D01*
X-55683Y216125D01*
X-55611Y216178D01*
X-55536Y216228D01*
X-55460Y216274D01*
X-55382Y216317D01*
X-55302Y216356D01*
X-55220Y216392D01*
X-55137Y216425D01*
X-55052Y216453D01*
X-54967Y216478D01*
X-54880Y216500D01*
X-54792Y216517D01*
X-54704Y216530D01*
X-54615Y216540D01*
X-54526Y216546D01*
X-54437Y216548D01*
X-49117Y216548D01*
X-49117Y222265D02*
X-49119Y222350D01*
X-49125Y222435D01*
X-49135Y222519D01*
X-49148Y222603D01*
X-49166Y222687D01*
X-49187Y222769D01*
X-49212Y222850D01*
X-49241Y222930D01*
X-49274Y223009D01*
X-49310Y223086D01*
X-49350Y223161D01*
X-49393Y223235D01*
X-49439Y223306D01*
X-49489Y223375D01*
X-49542Y223442D01*
X-49598Y223506D01*
X-49657Y223567D01*
X-49718Y223626D01*
X-49782Y223682D01*
X-49849Y223735D01*
X-49918Y223785D01*
X-49989Y223831D01*
X-50063Y223874D01*
X-50138Y223914D01*
X-50215Y223950D01*
X-50294Y223983D01*
X-50374Y224012D01*
X-50455Y224037D01*
X-50537Y224058D01*
X-50621Y224076D01*
X-50705Y224089D01*
X-50789Y224099D01*
X-50874Y224105D01*
X-50959Y224107D01*
X-49117Y222265D02*
X-49119Y222169D01*
X-49125Y222073D01*
X-49135Y221978D01*
X-49148Y221883D01*
X-49166Y221788D01*
X-49187Y221695D01*
X-49212Y221602D01*
X-49241Y221511D01*
X-49273Y221420D01*
X-49309Y221331D01*
X-49349Y221244D01*
X-49392Y221158D01*
X-49438Y221074D01*
X-49488Y220992D01*
X-49542Y220912D01*
X-49598Y220835D01*
X-49658Y220760D01*
X-49720Y220687D01*
X-49786Y220617D01*
X-49854Y220549D01*
X-49925Y220484D01*
X-49998Y220423D01*
X-50074Y220364D01*
X-50153Y220308D01*
X-50233Y220256D01*
X-50316Y220207D01*
X-50400Y220161D01*
X-50486Y220119D01*
X-50574Y220081D01*
X-50663Y220046D01*
X-50754Y220014D01*
X-52391Y223493D02*
X-52332Y223553D01*
X-52270Y223610D01*
X-52206Y223665D01*
X-52139Y223716D01*
X-52070Y223765D01*
X-52000Y223811D01*
X-51927Y223854D01*
X-51853Y223894D01*
X-51777Y223930D01*
X-51699Y223963D01*
X-51620Y223993D01*
X-51540Y224020D01*
X-51459Y224043D01*
X-51377Y224062D01*
X-51295Y224078D01*
X-51211Y224091D01*
X-51127Y224100D01*
X-51043Y224105D01*
X-50959Y224107D01*
X-52391Y223493D02*
X-56483Y220015D01*
X-56483Y224107D01*
D13*
X22892Y289719D02*
X29496Y289719D01*
D14*
X50975Y283559D02*
X52612Y283559D01*
X52690Y283561D01*
X52768Y283566D01*
X52845Y283576D01*
X52922Y283589D01*
X52998Y283605D01*
X53073Y283625D01*
X53147Y283649D01*
X53220Y283676D01*
X53292Y283707D01*
X53362Y283741D01*
X53431Y283778D01*
X53497Y283819D01*
X53562Y283863D01*
X53624Y283909D01*
X53684Y283959D01*
X53742Y284011D01*
X53797Y284066D01*
X53849Y284124D01*
X53899Y284184D01*
X53945Y284246D01*
X53989Y284311D01*
X54030Y284378D01*
X54067Y284446D01*
X54101Y284516D01*
X54132Y284588D01*
X54159Y284661D01*
X54183Y284735D01*
X54203Y284810D01*
X54219Y284886D01*
X54232Y284963D01*
X54242Y285040D01*
X54247Y285118D01*
X54249Y285196D01*
X54249Y289288D01*
X54247Y289366D01*
X54242Y289444D01*
X54232Y289521D01*
X54219Y289598D01*
X54203Y289674D01*
X54183Y289749D01*
X54159Y289823D01*
X54132Y289896D01*
X54101Y289968D01*
X54067Y290038D01*
X54030Y290107D01*
X53989Y290173D01*
X53945Y290238D01*
X53899Y290300D01*
X53849Y290360D01*
X53797Y290418D01*
X53742Y290473D01*
X53684Y290525D01*
X53624Y290575D01*
X53562Y290621D01*
X53497Y290665D01*
X53431Y290706D01*
X53362Y290743D01*
X53292Y290777D01*
X53220Y290808D01*
X53147Y290835D01*
X53073Y290859D01*
X52998Y290879D01*
X52922Y290895D01*
X52845Y290908D01*
X52768Y290918D01*
X52690Y290923D01*
X52612Y290925D01*
X50975Y290925D01*
X48129Y283559D02*
X45674Y283559D01*
X45594Y283561D01*
X45514Y283567D01*
X45434Y283577D01*
X45355Y283590D01*
X45276Y283608D01*
X45199Y283629D01*
X45123Y283655D01*
X45048Y283684D01*
X44974Y283716D01*
X44902Y283752D01*
X44832Y283792D01*
X44765Y283835D01*
X44699Y283881D01*
X44636Y283931D01*
X44575Y283983D01*
X44516Y284038D01*
X44461Y284097D01*
X44409Y284157D01*
X44359Y284221D01*
X44313Y284286D01*
X44270Y284354D01*
X44230Y284424D01*
X44194Y284496D01*
X44162Y284570D01*
X44133Y284644D01*
X44108Y284721D01*
X44086Y284798D01*
X44068Y284877D01*
X44055Y284956D01*
X44045Y285035D01*
X44039Y285116D01*
X44037Y285196D01*
X44037Y286015D01*
X44039Y286093D01*
X44044Y286171D01*
X44054Y286248D01*
X44067Y286325D01*
X44083Y286401D01*
X44103Y286476D01*
X44127Y286550D01*
X44154Y286623D01*
X44185Y286695D01*
X44219Y286765D01*
X44256Y286834D01*
X44297Y286900D01*
X44341Y286965D01*
X44387Y287027D01*
X44437Y287087D01*
X44489Y287145D01*
X44544Y287200D01*
X44602Y287252D01*
X44662Y287302D01*
X44724Y287348D01*
X44789Y287392D01*
X44856Y287433D01*
X44924Y287470D01*
X44994Y287504D01*
X45066Y287535D01*
X45139Y287562D01*
X45213Y287586D01*
X45288Y287606D01*
X45364Y287622D01*
X45441Y287635D01*
X45518Y287645D01*
X45596Y287650D01*
X45674Y287652D01*
X45674Y287651D02*
X48129Y287651D01*
X48129Y290925D01*
X44037Y290925D01*
D16*
X33814Y278067D02*
X20098Y278067D01*
D14*
X52562Y270066D02*
X54199Y270066D01*
X54199Y270065D02*
X54277Y270067D01*
X54355Y270072D01*
X54432Y270082D01*
X54509Y270095D01*
X54585Y270111D01*
X54660Y270131D01*
X54734Y270155D01*
X54807Y270182D01*
X54879Y270213D01*
X54949Y270247D01*
X55018Y270284D01*
X55084Y270325D01*
X55149Y270369D01*
X55211Y270415D01*
X55271Y270465D01*
X55329Y270517D01*
X55384Y270572D01*
X55436Y270630D01*
X55486Y270690D01*
X55532Y270752D01*
X55576Y270817D01*
X55617Y270884D01*
X55654Y270952D01*
X55688Y271022D01*
X55719Y271094D01*
X55746Y271167D01*
X55770Y271241D01*
X55790Y271316D01*
X55806Y271392D01*
X55819Y271469D01*
X55829Y271546D01*
X55834Y271624D01*
X55836Y271702D01*
X55836Y275795D01*
X55834Y275873D01*
X55829Y275951D01*
X55819Y276028D01*
X55806Y276105D01*
X55790Y276181D01*
X55770Y276256D01*
X55746Y276330D01*
X55719Y276403D01*
X55688Y276475D01*
X55654Y276545D01*
X55617Y276614D01*
X55576Y276680D01*
X55532Y276745D01*
X55486Y276807D01*
X55436Y276867D01*
X55384Y276925D01*
X55329Y276980D01*
X55271Y277032D01*
X55211Y277082D01*
X55149Y277128D01*
X55084Y277172D01*
X55018Y277213D01*
X54949Y277250D01*
X54879Y277284D01*
X54807Y277315D01*
X54734Y277342D01*
X54660Y277366D01*
X54585Y277386D01*
X54509Y277402D01*
X54432Y277415D01*
X54355Y277425D01*
X54277Y277430D01*
X54199Y277432D01*
X52562Y277432D01*
X49717Y277432D02*
X49717Y276613D01*
X49717Y277432D02*
X45625Y277432D01*
X47671Y270066D01*
D16*
X-4223Y277559D02*
X-17939Y277559D01*
D14*
X-32974Y275019D02*
X-34611Y275019D01*
X-32974Y275018D02*
X-32896Y275020D01*
X-32818Y275025D01*
X-32741Y275035D01*
X-32664Y275048D01*
X-32588Y275064D01*
X-32513Y275084D01*
X-32439Y275108D01*
X-32366Y275135D01*
X-32294Y275166D01*
X-32224Y275200D01*
X-32155Y275237D01*
X-32089Y275278D01*
X-32024Y275322D01*
X-31962Y275368D01*
X-31902Y275418D01*
X-31844Y275470D01*
X-31789Y275525D01*
X-31737Y275583D01*
X-31687Y275643D01*
X-31641Y275705D01*
X-31597Y275770D01*
X-31556Y275837D01*
X-31519Y275905D01*
X-31485Y275975D01*
X-31454Y276047D01*
X-31427Y276120D01*
X-31403Y276194D01*
X-31383Y276269D01*
X-31367Y276345D01*
X-31354Y276422D01*
X-31344Y276499D01*
X-31339Y276577D01*
X-31337Y276655D01*
X-31337Y280748D01*
X-31339Y280828D01*
X-31345Y280908D01*
X-31355Y280988D01*
X-31368Y281067D01*
X-31386Y281146D01*
X-31407Y281223D01*
X-31433Y281299D01*
X-31462Y281374D01*
X-31494Y281448D01*
X-31530Y281520D01*
X-31570Y281590D01*
X-31613Y281657D01*
X-31659Y281723D01*
X-31709Y281786D01*
X-31761Y281847D01*
X-31816Y281906D01*
X-31875Y281961D01*
X-31935Y282013D01*
X-31999Y282063D01*
X-32065Y282109D01*
X-32132Y282152D01*
X-32202Y282192D01*
X-32274Y282228D01*
X-32348Y282260D01*
X-32422Y282289D01*
X-32499Y282315D01*
X-32576Y282336D01*
X-32655Y282354D01*
X-32734Y282367D01*
X-32814Y282377D01*
X-32894Y282383D01*
X-32974Y282385D01*
X-34611Y282385D01*
X-37456Y277065D02*
X-37458Y277154D01*
X-37464Y277243D01*
X-37474Y277332D01*
X-37487Y277420D01*
X-37504Y277508D01*
X-37526Y277595D01*
X-37551Y277680D01*
X-37579Y277765D01*
X-37612Y277848D01*
X-37648Y277930D01*
X-37687Y278010D01*
X-37730Y278088D01*
X-37776Y278164D01*
X-37826Y278239D01*
X-37879Y278311D01*
X-37935Y278380D01*
X-37994Y278447D01*
X-38055Y278512D01*
X-38120Y278573D01*
X-38187Y278632D01*
X-38256Y278688D01*
X-38328Y278741D01*
X-38403Y278791D01*
X-38479Y278837D01*
X-38557Y278880D01*
X-38637Y278919D01*
X-38719Y278955D01*
X-38802Y278988D01*
X-38887Y279016D01*
X-38972Y279041D01*
X-39059Y279063D01*
X-39147Y279080D01*
X-39235Y279093D01*
X-39324Y279103D01*
X-39413Y279109D01*
X-39502Y279111D01*
X-39591Y279109D01*
X-39680Y279103D01*
X-39769Y279093D01*
X-39857Y279080D01*
X-39945Y279063D01*
X-40032Y279041D01*
X-40117Y279016D01*
X-40202Y278988D01*
X-40285Y278955D01*
X-40367Y278919D01*
X-40447Y278880D01*
X-40525Y278837D01*
X-40601Y278791D01*
X-40676Y278741D01*
X-40748Y278688D01*
X-40817Y278632D01*
X-40884Y278573D01*
X-40949Y278512D01*
X-41010Y278447D01*
X-41069Y278380D01*
X-41125Y278311D01*
X-41178Y278239D01*
X-41228Y278164D01*
X-41274Y278088D01*
X-41317Y278010D01*
X-41356Y277930D01*
X-41392Y277848D01*
X-41425Y277765D01*
X-41453Y277680D01*
X-41478Y277595D01*
X-41500Y277508D01*
X-41517Y277420D01*
X-41530Y277332D01*
X-41540Y277243D01*
X-41546Y277154D01*
X-41548Y277065D01*
X-41546Y276976D01*
X-41540Y276887D01*
X-41530Y276798D01*
X-41517Y276710D01*
X-41500Y276622D01*
X-41478Y276535D01*
X-41453Y276450D01*
X-41425Y276365D01*
X-41392Y276282D01*
X-41356Y276200D01*
X-41317Y276120D01*
X-41274Y276042D01*
X-41228Y275966D01*
X-41178Y275891D01*
X-41125Y275819D01*
X-41069Y275750D01*
X-41010Y275683D01*
X-40949Y275618D01*
X-40884Y275557D01*
X-40817Y275498D01*
X-40748Y275442D01*
X-40676Y275389D01*
X-40601Y275339D01*
X-40525Y275293D01*
X-40447Y275250D01*
X-40367Y275211D01*
X-40285Y275175D01*
X-40202Y275142D01*
X-40117Y275114D01*
X-40032Y275089D01*
X-39945Y275067D01*
X-39857Y275050D01*
X-39769Y275037D01*
X-39680Y275027D01*
X-39591Y275021D01*
X-39502Y275019D01*
X-39413Y275021D01*
X-39324Y275027D01*
X-39235Y275037D01*
X-39147Y275050D01*
X-39059Y275067D01*
X-38972Y275089D01*
X-38887Y275114D01*
X-38802Y275142D01*
X-38719Y275175D01*
X-38637Y275211D01*
X-38557Y275250D01*
X-38479Y275293D01*
X-38403Y275339D01*
X-38328Y275389D01*
X-38256Y275442D01*
X-38187Y275498D01*
X-38120Y275557D01*
X-38055Y275618D01*
X-37994Y275683D01*
X-37935Y275750D01*
X-37879Y275819D01*
X-37826Y275891D01*
X-37776Y275966D01*
X-37730Y276042D01*
X-37687Y276120D01*
X-37648Y276200D01*
X-37612Y276282D01*
X-37579Y276365D01*
X-37551Y276450D01*
X-37526Y276535D01*
X-37504Y276622D01*
X-37487Y276710D01*
X-37474Y276798D01*
X-37464Y276887D01*
X-37458Y276976D01*
X-37456Y277065D01*
X-37865Y280748D02*
X-37867Y280827D01*
X-37873Y280906D01*
X-37882Y280985D01*
X-37895Y281063D01*
X-37913Y281140D01*
X-37933Y281216D01*
X-37958Y281291D01*
X-37986Y281365D01*
X-38017Y281438D01*
X-38053Y281509D01*
X-38091Y281578D01*
X-38133Y281645D01*
X-38178Y281710D01*
X-38226Y281773D01*
X-38277Y281834D01*
X-38331Y281891D01*
X-38387Y281947D01*
X-38446Y281999D01*
X-38508Y282049D01*
X-38572Y282095D01*
X-38638Y282139D01*
X-38706Y282179D01*
X-38776Y282215D01*
X-38848Y282249D01*
X-38922Y282279D01*
X-38996Y282305D01*
X-39072Y282328D01*
X-39149Y282346D01*
X-39226Y282362D01*
X-39305Y282373D01*
X-39383Y282381D01*
X-39462Y282385D01*
X-39542Y282385D01*
X-39621Y282381D01*
X-39699Y282373D01*
X-39778Y282362D01*
X-39855Y282346D01*
X-39932Y282328D01*
X-40008Y282305D01*
X-40082Y282279D01*
X-40156Y282249D01*
X-40228Y282215D01*
X-40298Y282179D01*
X-40366Y282139D01*
X-40432Y282095D01*
X-40496Y282049D01*
X-40558Y281999D01*
X-40617Y281947D01*
X-40673Y281891D01*
X-40727Y281834D01*
X-40778Y281773D01*
X-40826Y281710D01*
X-40871Y281645D01*
X-40913Y281578D01*
X-40951Y281509D01*
X-40987Y281438D01*
X-41018Y281365D01*
X-41046Y281291D01*
X-41071Y281216D01*
X-41091Y281140D01*
X-41109Y281063D01*
X-41122Y280985D01*
X-41131Y280906D01*
X-41137Y280827D01*
X-41139Y280748D01*
X-41137Y280669D01*
X-41131Y280590D01*
X-41122Y280511D01*
X-41109Y280433D01*
X-41091Y280356D01*
X-41071Y280280D01*
X-41046Y280205D01*
X-41018Y280131D01*
X-40987Y280058D01*
X-40951Y279987D01*
X-40913Y279918D01*
X-40871Y279851D01*
X-40826Y279786D01*
X-40778Y279723D01*
X-40727Y279662D01*
X-40673Y279605D01*
X-40617Y279549D01*
X-40558Y279497D01*
X-40496Y279447D01*
X-40432Y279401D01*
X-40366Y279357D01*
X-40298Y279317D01*
X-40228Y279281D01*
X-40156Y279247D01*
X-40082Y279217D01*
X-40008Y279191D01*
X-39932Y279168D01*
X-39855Y279150D01*
X-39778Y279134D01*
X-39699Y279123D01*
X-39621Y279115D01*
X-39542Y279111D01*
X-39462Y279111D01*
X-39383Y279115D01*
X-39305Y279123D01*
X-39226Y279134D01*
X-39149Y279150D01*
X-39072Y279168D01*
X-38996Y279191D01*
X-38922Y279217D01*
X-38848Y279247D01*
X-38776Y279281D01*
X-38706Y279317D01*
X-38638Y279357D01*
X-38572Y279401D01*
X-38508Y279447D01*
X-38446Y279497D01*
X-38387Y279549D01*
X-38331Y279605D01*
X-38277Y279662D01*
X-38226Y279723D01*
X-38178Y279786D01*
X-38133Y279851D01*
X-38091Y279918D01*
X-38053Y279987D01*
X-38017Y280058D01*
X-37986Y280131D01*
X-37958Y280205D01*
X-37933Y280280D01*
X-37913Y280356D01*
X-37895Y280433D01*
X-37882Y280511D01*
X-37873Y280590D01*
X-37867Y280669D01*
X-37865Y280748D01*
D13*
X-13621Y290513D02*
X-7017Y290513D01*
D14*
X-31387Y287719D02*
X-33024Y287719D01*
X-31387Y287718D02*
X-31309Y287720D01*
X-31231Y287725D01*
X-31154Y287735D01*
X-31077Y287748D01*
X-31001Y287764D01*
X-30926Y287784D01*
X-30852Y287808D01*
X-30779Y287835D01*
X-30707Y287866D01*
X-30637Y287900D01*
X-30568Y287937D01*
X-30502Y287978D01*
X-30437Y288022D01*
X-30375Y288068D01*
X-30315Y288118D01*
X-30257Y288170D01*
X-30202Y288225D01*
X-30150Y288283D01*
X-30100Y288343D01*
X-30054Y288405D01*
X-30010Y288470D01*
X-29969Y288537D01*
X-29932Y288605D01*
X-29898Y288675D01*
X-29867Y288747D01*
X-29840Y288820D01*
X-29816Y288894D01*
X-29796Y288969D01*
X-29780Y289045D01*
X-29767Y289122D01*
X-29757Y289199D01*
X-29752Y289277D01*
X-29750Y289355D01*
X-29750Y293448D01*
X-29752Y293528D01*
X-29758Y293608D01*
X-29768Y293688D01*
X-29781Y293767D01*
X-29799Y293846D01*
X-29820Y293923D01*
X-29846Y293999D01*
X-29875Y294074D01*
X-29907Y294148D01*
X-29943Y294220D01*
X-29983Y294290D01*
X-30026Y294357D01*
X-30072Y294423D01*
X-30122Y294486D01*
X-30174Y294547D01*
X-30229Y294606D01*
X-30288Y294661D01*
X-30348Y294713D01*
X-30412Y294763D01*
X-30478Y294809D01*
X-30545Y294852D01*
X-30615Y294892D01*
X-30687Y294928D01*
X-30761Y294960D01*
X-30835Y294989D01*
X-30912Y295015D01*
X-30989Y295036D01*
X-31068Y295054D01*
X-31147Y295067D01*
X-31227Y295077D01*
X-31307Y295083D01*
X-31387Y295085D01*
X-33024Y295085D01*
X-37506Y290992D02*
X-39961Y290992D01*
X-37506Y290992D02*
X-37428Y290994D01*
X-37350Y290999D01*
X-37273Y291009D01*
X-37196Y291022D01*
X-37120Y291038D01*
X-37045Y291058D01*
X-36971Y291082D01*
X-36898Y291109D01*
X-36826Y291140D01*
X-36756Y291174D01*
X-36687Y291211D01*
X-36621Y291252D01*
X-36556Y291296D01*
X-36494Y291342D01*
X-36434Y291392D01*
X-36376Y291444D01*
X-36321Y291499D01*
X-36269Y291557D01*
X-36219Y291617D01*
X-36173Y291679D01*
X-36129Y291744D01*
X-36088Y291811D01*
X-36051Y291879D01*
X-36017Y291949D01*
X-35986Y292021D01*
X-35959Y292094D01*
X-35935Y292168D01*
X-35915Y292243D01*
X-35899Y292319D01*
X-35886Y292396D01*
X-35876Y292473D01*
X-35871Y292551D01*
X-35869Y292629D01*
X-35869Y293038D01*
X-35871Y293127D01*
X-35877Y293216D01*
X-35887Y293305D01*
X-35900Y293393D01*
X-35917Y293481D01*
X-35939Y293568D01*
X-35964Y293653D01*
X-35992Y293738D01*
X-36025Y293821D01*
X-36061Y293903D01*
X-36100Y293983D01*
X-36143Y294061D01*
X-36189Y294137D01*
X-36239Y294212D01*
X-36292Y294284D01*
X-36348Y294353D01*
X-36407Y294420D01*
X-36468Y294485D01*
X-36533Y294546D01*
X-36600Y294605D01*
X-36669Y294661D01*
X-36741Y294714D01*
X-36816Y294764D01*
X-36892Y294810D01*
X-36970Y294853D01*
X-37050Y294892D01*
X-37132Y294928D01*
X-37215Y294961D01*
X-37300Y294989D01*
X-37385Y295014D01*
X-37472Y295036D01*
X-37560Y295053D01*
X-37648Y295066D01*
X-37737Y295076D01*
X-37826Y295082D01*
X-37915Y295084D01*
X-38004Y295082D01*
X-38093Y295076D01*
X-38182Y295066D01*
X-38270Y295053D01*
X-38358Y295036D01*
X-38445Y295014D01*
X-38530Y294989D01*
X-38615Y294961D01*
X-38698Y294928D01*
X-38780Y294892D01*
X-38860Y294853D01*
X-38938Y294810D01*
X-39014Y294764D01*
X-39089Y294714D01*
X-39161Y294661D01*
X-39230Y294605D01*
X-39297Y294546D01*
X-39362Y294485D01*
X-39423Y294420D01*
X-39482Y294353D01*
X-39538Y294284D01*
X-39591Y294212D01*
X-39641Y294137D01*
X-39687Y294061D01*
X-39730Y293983D01*
X-39769Y293903D01*
X-39805Y293821D01*
X-39838Y293738D01*
X-39866Y293653D01*
X-39891Y293568D01*
X-39913Y293481D01*
X-39930Y293393D01*
X-39943Y293305D01*
X-39953Y293216D01*
X-39959Y293127D01*
X-39961Y293038D01*
X-39961Y290992D01*
X-39959Y290880D01*
X-39953Y290769D01*
X-39944Y290657D01*
X-39931Y290546D01*
X-39913Y290436D01*
X-39893Y290326D01*
X-39868Y290217D01*
X-39840Y290109D01*
X-39808Y290002D01*
X-39772Y289896D01*
X-39733Y289791D01*
X-39690Y289688D01*
X-39644Y289586D01*
X-39594Y289486D01*
X-39541Y289387D01*
X-39484Y289291D01*
X-39425Y289196D01*
X-39362Y289104D01*
X-39296Y289014D01*
X-39227Y288926D01*
X-39155Y288840D01*
X-39080Y288757D01*
X-39002Y288677D01*
X-38922Y288599D01*
X-38839Y288524D01*
X-38753Y288452D01*
X-38665Y288383D01*
X-38575Y288317D01*
X-38483Y288254D01*
X-38388Y288195D01*
X-38292Y288138D01*
X-38193Y288085D01*
X-38093Y288035D01*
X-37991Y287989D01*
X-37888Y287946D01*
X-37783Y287907D01*
X-37677Y287871D01*
X-37570Y287839D01*
X-37462Y287811D01*
X-37353Y287786D01*
X-37243Y287766D01*
X-37133Y287748D01*
X-37022Y287735D01*
X-36910Y287726D01*
X-36799Y287720D01*
X-36687Y287718D01*
D19*
X83344Y247682D02*
X83344Y237522D01*
D14*
X91925Y240275D02*
X99291Y240275D01*
X91925Y240275D02*
X91925Y243549D01*
X97654Y246355D02*
X99291Y248401D01*
X91925Y248401D01*
X91925Y246355D02*
X91925Y250447D01*
D20*
X70431Y249275D02*
X70433Y249345D01*
X70439Y249415D01*
X70449Y249484D01*
X70462Y249553D01*
X70480Y249621D01*
X70501Y249688D01*
X70526Y249753D01*
X70555Y249817D01*
X70587Y249880D01*
X70623Y249940D01*
X70662Y249998D01*
X70704Y250054D01*
X70749Y250108D01*
X70797Y250159D01*
X70848Y250207D01*
X70902Y250252D01*
X70958Y250294D01*
X71016Y250333D01*
X71076Y250369D01*
X71139Y250401D01*
X71203Y250430D01*
X71268Y250455D01*
X71335Y250476D01*
X71403Y250494D01*
X71472Y250507D01*
X71541Y250517D01*
X71611Y250523D01*
X71681Y250525D01*
X71751Y250523D01*
X71821Y250517D01*
X71890Y250507D01*
X71959Y250494D01*
X72027Y250476D01*
X72094Y250455D01*
X72159Y250430D01*
X72223Y250401D01*
X72286Y250369D01*
X72346Y250333D01*
X72404Y250294D01*
X72460Y250252D01*
X72514Y250207D01*
X72565Y250159D01*
X72613Y250108D01*
X72658Y250054D01*
X72700Y249998D01*
X72739Y249940D01*
X72775Y249880D01*
X72807Y249817D01*
X72836Y249753D01*
X72861Y249688D01*
X72882Y249621D01*
X72900Y249553D01*
X72913Y249484D01*
X72923Y249415D01*
X72929Y249345D01*
X72931Y249275D01*
X72929Y249205D01*
X72923Y249135D01*
X72913Y249066D01*
X72900Y248997D01*
X72882Y248929D01*
X72861Y248862D01*
X72836Y248797D01*
X72807Y248733D01*
X72775Y248670D01*
X72739Y248610D01*
X72700Y248552D01*
X72658Y248496D01*
X72613Y248442D01*
X72565Y248391D01*
X72514Y248343D01*
X72460Y248298D01*
X72404Y248256D01*
X72346Y248217D01*
X72286Y248181D01*
X72223Y248149D01*
X72159Y248120D01*
X72094Y248095D01*
X72027Y248074D01*
X71959Y248056D01*
X71890Y248043D01*
X71821Y248033D01*
X71751Y248027D01*
X71681Y248025D01*
X71611Y248027D01*
X71541Y248033D01*
X71472Y248043D01*
X71403Y248056D01*
X71335Y248074D01*
X71268Y248095D01*
X71203Y248120D01*
X71139Y248149D01*
X71076Y248181D01*
X71016Y248217D01*
X70958Y248256D01*
X70902Y248298D01*
X70848Y248343D01*
X70797Y248391D01*
X70749Y248442D01*
X70704Y248496D01*
X70662Y248552D01*
X70623Y248610D01*
X70587Y248670D01*
X70555Y248733D01*
X70526Y248797D01*
X70501Y248862D01*
X70480Y248929D01*
X70462Y248997D01*
X70449Y249066D01*
X70439Y249135D01*
X70433Y249205D01*
X70431Y249275D01*
D14*
X74882Y257126D02*
X74882Y262446D01*
X74882Y257126D02*
X74880Y257037D01*
X74874Y256948D01*
X74864Y256859D01*
X74851Y256771D01*
X74834Y256683D01*
X74812Y256596D01*
X74787Y256511D01*
X74759Y256426D01*
X74726Y256343D01*
X74690Y256261D01*
X74651Y256181D01*
X74608Y256103D01*
X74562Y256027D01*
X74512Y255952D01*
X74459Y255880D01*
X74403Y255811D01*
X74344Y255744D01*
X74283Y255679D01*
X74218Y255618D01*
X74151Y255559D01*
X74082Y255503D01*
X74010Y255450D01*
X73935Y255400D01*
X73859Y255354D01*
X73781Y255311D01*
X73701Y255272D01*
X73619Y255236D01*
X73536Y255203D01*
X73451Y255175D01*
X73366Y255150D01*
X73279Y255128D01*
X73191Y255111D01*
X73103Y255098D01*
X73014Y255088D01*
X72925Y255082D01*
X72836Y255080D01*
X72747Y255082D01*
X72658Y255088D01*
X72569Y255098D01*
X72481Y255111D01*
X72393Y255128D01*
X72306Y255150D01*
X72221Y255175D01*
X72136Y255203D01*
X72053Y255236D01*
X71971Y255272D01*
X71891Y255311D01*
X71813Y255354D01*
X71737Y255400D01*
X71662Y255450D01*
X71590Y255503D01*
X71521Y255559D01*
X71454Y255618D01*
X71389Y255679D01*
X71328Y255744D01*
X71269Y255811D01*
X71213Y255880D01*
X71160Y255952D01*
X71110Y256027D01*
X71064Y256103D01*
X71021Y256181D01*
X70982Y256261D01*
X70946Y256343D01*
X70913Y256426D01*
X70885Y256511D01*
X70860Y256596D01*
X70838Y256683D01*
X70821Y256771D01*
X70808Y256859D01*
X70798Y256948D01*
X70792Y257037D01*
X70790Y257126D01*
X70790Y262446D01*
X65686Y262446D02*
X67323Y256716D01*
X63231Y256716D01*
X64458Y258353D02*
X64458Y255080D01*
D13*
X24606Y245396D02*
X24606Y238792D01*
D14*
X10509Y236985D02*
X10509Y235348D01*
X10511Y235270D01*
X10516Y235192D01*
X10526Y235115D01*
X10539Y235038D01*
X10555Y234962D01*
X10575Y234887D01*
X10599Y234813D01*
X10626Y234740D01*
X10657Y234668D01*
X10691Y234598D01*
X10728Y234530D01*
X10769Y234463D01*
X10813Y234398D01*
X10859Y234336D01*
X10909Y234276D01*
X10961Y234218D01*
X11016Y234163D01*
X11074Y234111D01*
X11134Y234061D01*
X11196Y234015D01*
X11261Y233971D01*
X11327Y233930D01*
X11396Y233893D01*
X11466Y233859D01*
X11538Y233828D01*
X11611Y233801D01*
X11685Y233777D01*
X11760Y233757D01*
X11836Y233741D01*
X11913Y233728D01*
X11990Y233718D01*
X12068Y233713D01*
X12146Y233711D01*
X16238Y233711D01*
X16316Y233713D01*
X16394Y233718D01*
X16471Y233728D01*
X16548Y233741D01*
X16624Y233757D01*
X16699Y233777D01*
X16773Y233801D01*
X16846Y233828D01*
X16918Y233859D01*
X16988Y233893D01*
X17057Y233930D01*
X17123Y233971D01*
X17188Y234015D01*
X17250Y234061D01*
X17310Y234111D01*
X17368Y234163D01*
X17423Y234218D01*
X17475Y234276D01*
X17525Y234336D01*
X17571Y234398D01*
X17615Y234463D01*
X17656Y234530D01*
X17693Y234598D01*
X17727Y234668D01*
X17758Y234740D01*
X17785Y234813D01*
X17809Y234887D01*
X17829Y234962D01*
X17845Y235038D01*
X17858Y235115D01*
X17868Y235192D01*
X17873Y235270D01*
X17875Y235348D01*
X17875Y236985D01*
X16238Y239830D02*
X17875Y241876D01*
X10509Y241876D01*
X10509Y239830D02*
X10509Y243923D01*
X14192Y247146D02*
X14345Y247148D01*
X14498Y247154D01*
X14650Y247163D01*
X14803Y247177D01*
X14955Y247194D01*
X15106Y247215D01*
X15257Y247240D01*
X15407Y247269D01*
X15557Y247301D01*
X15705Y247338D01*
X15853Y247378D01*
X16000Y247421D01*
X16145Y247469D01*
X16289Y247520D01*
X16432Y247574D01*
X16574Y247633D01*
X16713Y247694D01*
X16852Y247760D01*
X16922Y247786D01*
X16992Y247816D01*
X17059Y247849D01*
X17125Y247885D01*
X17189Y247924D01*
X17251Y247967D01*
X17310Y248013D01*
X17368Y248061D01*
X17422Y248112D01*
X17475Y248166D01*
X17524Y248223D01*
X17571Y248282D01*
X17614Y248343D01*
X17655Y248406D01*
X17692Y248471D01*
X17727Y248538D01*
X17757Y248607D01*
X17785Y248677D01*
X17808Y248748D01*
X17829Y248820D01*
X17845Y248893D01*
X17858Y248967D01*
X17868Y249042D01*
X17873Y249117D01*
X17875Y249192D01*
X17873Y249267D01*
X17868Y249342D01*
X17858Y249417D01*
X17845Y249491D01*
X17829Y249564D01*
X17808Y249636D01*
X17785Y249707D01*
X17757Y249777D01*
X17727Y249846D01*
X17692Y249913D01*
X17655Y249978D01*
X17614Y250041D01*
X17571Y250102D01*
X17524Y250161D01*
X17475Y250218D01*
X17422Y250272D01*
X17368Y250323D01*
X17310Y250372D01*
X17251Y250417D01*
X17189Y250460D01*
X17125Y250499D01*
X17059Y250536D01*
X16991Y250568D01*
X16922Y250598D01*
X16852Y250624D01*
X16714Y250689D01*
X16574Y250751D01*
X16432Y250809D01*
X16289Y250864D01*
X16145Y250915D01*
X16000Y250963D01*
X15853Y251006D01*
X15706Y251046D01*
X15557Y251083D01*
X15407Y251115D01*
X15257Y251144D01*
X15106Y251169D01*
X14955Y251190D01*
X14803Y251207D01*
X14650Y251221D01*
X14498Y251230D01*
X14345Y251236D01*
X14192Y251238D01*
X14192Y247145D02*
X14039Y247147D01*
X13886Y247153D01*
X13733Y247162D01*
X13581Y247176D01*
X13429Y247193D01*
X13278Y247214D01*
X13127Y247239D01*
X12976Y247268D01*
X12827Y247300D01*
X12678Y247337D01*
X12531Y247377D01*
X12384Y247420D01*
X12239Y247468D01*
X12094Y247519D01*
X11952Y247574D01*
X11810Y247632D01*
X11670Y247694D01*
X11532Y247759D01*
X11532Y247760D02*
X11461Y247786D01*
X11392Y247816D01*
X11325Y247849D01*
X11259Y247885D01*
X11195Y247924D01*
X11133Y247967D01*
X11074Y248013D01*
X11016Y248061D01*
X10962Y248112D01*
X10909Y248166D01*
X10860Y248223D01*
X10813Y248282D01*
X10770Y248343D01*
X10729Y248406D01*
X10692Y248471D01*
X10657Y248538D01*
X10627Y248607D01*
X10599Y248677D01*
X10576Y248748D01*
X10555Y248820D01*
X10539Y248893D01*
X10526Y248967D01*
X10516Y249042D01*
X10511Y249117D01*
X10509Y249192D01*
X11532Y250624D02*
X11670Y250689D01*
X11810Y250751D01*
X11952Y250809D01*
X12095Y250864D01*
X12239Y250915D01*
X12384Y250963D01*
X12531Y251006D01*
X12679Y251046D01*
X12827Y251083D01*
X12977Y251115D01*
X13127Y251144D01*
X13278Y251169D01*
X13429Y251190D01*
X13581Y251207D01*
X13734Y251221D01*
X13886Y251230D01*
X14039Y251236D01*
X14192Y251238D01*
X11532Y250624D02*
X11462Y250598D01*
X11392Y250568D01*
X11325Y250536D01*
X11259Y250499D01*
X11195Y250460D01*
X11133Y250417D01*
X11074Y250371D01*
X11016Y250323D01*
X10962Y250272D01*
X10909Y250218D01*
X10860Y250161D01*
X10813Y250102D01*
X10770Y250041D01*
X10729Y249978D01*
X10692Y249913D01*
X10657Y249846D01*
X10627Y249777D01*
X10599Y249707D01*
X10576Y249636D01*
X10555Y249564D01*
X10539Y249491D01*
X10526Y249417D01*
X10516Y249342D01*
X10511Y249267D01*
X10509Y249192D01*
X12146Y247555D02*
X16238Y250829D01*
D13*
X14288Y217615D02*
X14288Y211265D01*
D14*
X15494Y185113D02*
X8128Y185113D01*
X15494Y185113D02*
X15494Y187159D01*
X15492Y187248D01*
X15486Y187337D01*
X15476Y187426D01*
X15463Y187514D01*
X15446Y187602D01*
X15424Y187689D01*
X15399Y187774D01*
X15371Y187859D01*
X15338Y187942D01*
X15302Y188024D01*
X15263Y188104D01*
X15220Y188182D01*
X15174Y188258D01*
X15124Y188333D01*
X15071Y188405D01*
X15015Y188474D01*
X14956Y188541D01*
X14895Y188606D01*
X14830Y188667D01*
X14763Y188726D01*
X14694Y188782D01*
X14622Y188835D01*
X14547Y188885D01*
X14471Y188931D01*
X14393Y188974D01*
X14313Y189013D01*
X14231Y189049D01*
X14148Y189082D01*
X14063Y189110D01*
X13978Y189135D01*
X13891Y189157D01*
X13803Y189174D01*
X13715Y189187D01*
X13626Y189197D01*
X13537Y189203D01*
X13448Y189205D01*
X13359Y189203D01*
X13270Y189197D01*
X13181Y189187D01*
X13093Y189174D01*
X13005Y189157D01*
X12918Y189135D01*
X12833Y189110D01*
X12748Y189082D01*
X12665Y189049D01*
X12583Y189013D01*
X12503Y188974D01*
X12425Y188931D01*
X12349Y188885D01*
X12274Y188835D01*
X12202Y188782D01*
X12133Y188726D01*
X12066Y188667D01*
X12001Y188606D01*
X11940Y188541D01*
X11881Y188474D01*
X11825Y188405D01*
X11772Y188333D01*
X11722Y188258D01*
X11676Y188182D01*
X11633Y188104D01*
X11594Y188024D01*
X11558Y187942D01*
X11525Y187859D01*
X11497Y187774D01*
X11472Y187689D01*
X11450Y187602D01*
X11433Y187514D01*
X11420Y187426D01*
X11410Y187337D01*
X11404Y187248D01*
X11402Y187159D01*
X11402Y185113D01*
X11402Y187568D02*
X8128Y189205D01*
X14676Y192377D02*
X15494Y192377D01*
X15494Y196469D01*
X8128Y194423D01*
D13*
X39561Y206375D02*
X45911Y206375D01*
D14*
X69469Y209360D02*
X69469Y201994D01*
X69469Y209360D02*
X67423Y209360D01*
X67423Y209359D02*
X67334Y209357D01*
X67245Y209351D01*
X67156Y209341D01*
X67068Y209328D01*
X66980Y209311D01*
X66893Y209289D01*
X66808Y209264D01*
X66723Y209236D01*
X66640Y209203D01*
X66558Y209167D01*
X66478Y209128D01*
X66400Y209085D01*
X66324Y209039D01*
X66249Y208989D01*
X66177Y208936D01*
X66108Y208880D01*
X66041Y208821D01*
X65976Y208760D01*
X65915Y208695D01*
X65856Y208628D01*
X65800Y208559D01*
X65747Y208487D01*
X65697Y208412D01*
X65651Y208336D01*
X65608Y208258D01*
X65569Y208178D01*
X65533Y208096D01*
X65500Y208013D01*
X65472Y207928D01*
X65447Y207843D01*
X65425Y207756D01*
X65408Y207668D01*
X65395Y207580D01*
X65385Y207491D01*
X65379Y207402D01*
X65377Y207313D01*
X65379Y207224D01*
X65385Y207135D01*
X65395Y207046D01*
X65408Y206958D01*
X65425Y206870D01*
X65447Y206783D01*
X65472Y206698D01*
X65500Y206613D01*
X65533Y206530D01*
X65569Y206448D01*
X65608Y206368D01*
X65651Y206290D01*
X65697Y206214D01*
X65747Y206139D01*
X65800Y206067D01*
X65856Y205998D01*
X65915Y205931D01*
X65976Y205866D01*
X66041Y205805D01*
X66108Y205746D01*
X66177Y205690D01*
X66249Y205637D01*
X66324Y205587D01*
X66400Y205541D01*
X66478Y205498D01*
X66558Y205459D01*
X66640Y205423D01*
X66723Y205390D01*
X66808Y205362D01*
X66893Y205337D01*
X66980Y205315D01*
X67068Y205298D01*
X67156Y205285D01*
X67245Y205275D01*
X67334Y205269D01*
X67423Y205267D01*
X69469Y205267D01*
X67014Y205267D02*
X65377Y201994D01*
X62205Y204040D02*
X62203Y204129D01*
X62197Y204218D01*
X62187Y204307D01*
X62174Y204395D01*
X62157Y204483D01*
X62135Y204570D01*
X62110Y204655D01*
X62082Y204740D01*
X62049Y204823D01*
X62013Y204905D01*
X61974Y204985D01*
X61931Y205063D01*
X61885Y205139D01*
X61835Y205214D01*
X61782Y205286D01*
X61726Y205355D01*
X61667Y205422D01*
X61606Y205487D01*
X61541Y205548D01*
X61474Y205607D01*
X61405Y205663D01*
X61333Y205716D01*
X61258Y205766D01*
X61182Y205812D01*
X61104Y205855D01*
X61024Y205894D01*
X60942Y205930D01*
X60859Y205963D01*
X60774Y205991D01*
X60689Y206016D01*
X60602Y206038D01*
X60514Y206055D01*
X60426Y206068D01*
X60337Y206078D01*
X60248Y206084D01*
X60159Y206086D01*
X60070Y206084D01*
X59981Y206078D01*
X59892Y206068D01*
X59804Y206055D01*
X59716Y206038D01*
X59629Y206016D01*
X59544Y205991D01*
X59459Y205963D01*
X59376Y205930D01*
X59294Y205894D01*
X59214Y205855D01*
X59136Y205812D01*
X59060Y205766D01*
X58985Y205716D01*
X58913Y205663D01*
X58844Y205607D01*
X58777Y205548D01*
X58712Y205487D01*
X58651Y205422D01*
X58592Y205355D01*
X58536Y205286D01*
X58483Y205214D01*
X58433Y205139D01*
X58387Y205063D01*
X58344Y204985D01*
X58305Y204905D01*
X58269Y204823D01*
X58236Y204740D01*
X58208Y204655D01*
X58183Y204570D01*
X58161Y204483D01*
X58144Y204395D01*
X58131Y204307D01*
X58121Y204218D01*
X58115Y204129D01*
X58113Y204040D01*
X58115Y203951D01*
X58121Y203862D01*
X58131Y203773D01*
X58144Y203685D01*
X58161Y203597D01*
X58183Y203510D01*
X58208Y203425D01*
X58236Y203340D01*
X58269Y203257D01*
X58305Y203175D01*
X58344Y203095D01*
X58387Y203017D01*
X58433Y202941D01*
X58483Y202866D01*
X58536Y202794D01*
X58592Y202725D01*
X58651Y202658D01*
X58712Y202593D01*
X58777Y202532D01*
X58844Y202473D01*
X58913Y202417D01*
X58985Y202364D01*
X59060Y202314D01*
X59136Y202268D01*
X59214Y202225D01*
X59294Y202186D01*
X59376Y202150D01*
X59459Y202117D01*
X59544Y202089D01*
X59629Y202064D01*
X59716Y202042D01*
X59804Y202025D01*
X59892Y202012D01*
X59981Y202002D01*
X60070Y201996D01*
X60159Y201994D01*
X60248Y201996D01*
X60337Y202002D01*
X60426Y202012D01*
X60514Y202025D01*
X60602Y202042D01*
X60689Y202064D01*
X60774Y202089D01*
X60859Y202117D01*
X60942Y202150D01*
X61024Y202186D01*
X61104Y202225D01*
X61182Y202268D01*
X61258Y202314D01*
X61333Y202364D01*
X61405Y202417D01*
X61474Y202473D01*
X61541Y202532D01*
X61606Y202593D01*
X61667Y202658D01*
X61726Y202725D01*
X61782Y202794D01*
X61835Y202866D01*
X61885Y202941D01*
X61931Y203017D01*
X61974Y203095D01*
X62013Y203175D01*
X62049Y203257D01*
X62082Y203340D01*
X62110Y203425D01*
X62135Y203510D01*
X62157Y203597D01*
X62174Y203685D01*
X62187Y203773D01*
X62197Y203862D01*
X62203Y203951D01*
X62205Y204040D01*
X61796Y207723D02*
X61794Y207802D01*
X61788Y207881D01*
X61779Y207960D01*
X61766Y208038D01*
X61748Y208115D01*
X61728Y208191D01*
X61703Y208266D01*
X61675Y208340D01*
X61644Y208413D01*
X61608Y208484D01*
X61570Y208553D01*
X61528Y208620D01*
X61483Y208685D01*
X61435Y208748D01*
X61384Y208809D01*
X61330Y208866D01*
X61274Y208922D01*
X61215Y208974D01*
X61153Y209024D01*
X61089Y209070D01*
X61023Y209114D01*
X60955Y209154D01*
X60885Y209190D01*
X60813Y209224D01*
X60739Y209254D01*
X60665Y209280D01*
X60589Y209303D01*
X60512Y209321D01*
X60435Y209337D01*
X60356Y209348D01*
X60278Y209356D01*
X60199Y209360D01*
X60119Y209360D01*
X60040Y209356D01*
X59962Y209348D01*
X59883Y209337D01*
X59806Y209321D01*
X59729Y209303D01*
X59653Y209280D01*
X59579Y209254D01*
X59505Y209224D01*
X59433Y209190D01*
X59363Y209154D01*
X59295Y209114D01*
X59229Y209070D01*
X59165Y209024D01*
X59103Y208974D01*
X59044Y208922D01*
X58988Y208866D01*
X58934Y208809D01*
X58883Y208748D01*
X58835Y208685D01*
X58790Y208620D01*
X58748Y208553D01*
X58710Y208484D01*
X58674Y208413D01*
X58643Y208340D01*
X58615Y208266D01*
X58590Y208191D01*
X58570Y208115D01*
X58552Y208038D01*
X58539Y207960D01*
X58530Y207881D01*
X58524Y207802D01*
X58522Y207723D01*
X58524Y207644D01*
X58530Y207565D01*
X58539Y207486D01*
X58552Y207408D01*
X58570Y207331D01*
X58590Y207255D01*
X58615Y207180D01*
X58643Y207106D01*
X58674Y207033D01*
X58710Y206962D01*
X58748Y206893D01*
X58790Y206826D01*
X58835Y206761D01*
X58883Y206698D01*
X58934Y206637D01*
X58988Y206580D01*
X59044Y206524D01*
X59103Y206472D01*
X59165Y206422D01*
X59229Y206376D01*
X59295Y206332D01*
X59363Y206292D01*
X59433Y206256D01*
X59505Y206222D01*
X59579Y206192D01*
X59653Y206166D01*
X59729Y206143D01*
X59806Y206125D01*
X59883Y206109D01*
X59962Y206098D01*
X60040Y206090D01*
X60119Y206086D01*
X60199Y206086D01*
X60278Y206090D01*
X60356Y206098D01*
X60435Y206109D01*
X60512Y206125D01*
X60589Y206143D01*
X60665Y206166D01*
X60739Y206192D01*
X60813Y206222D01*
X60885Y206256D01*
X60955Y206292D01*
X61023Y206332D01*
X61089Y206376D01*
X61153Y206422D01*
X61215Y206472D01*
X61274Y206524D01*
X61330Y206580D01*
X61384Y206637D01*
X61435Y206698D01*
X61483Y206761D01*
X61528Y206826D01*
X61570Y206893D01*
X61608Y206962D01*
X61644Y207033D01*
X61675Y207106D01*
X61703Y207180D01*
X61728Y207255D01*
X61748Y207331D01*
X61766Y207408D01*
X61779Y207486D01*
X61788Y207565D01*
X61794Y207644D01*
X61796Y207723D01*
D13*
X24606Y211011D02*
X24606Y217615D01*
D14*
X20034Y183804D02*
X20034Y182167D01*
X20036Y182089D01*
X20041Y182011D01*
X20051Y181934D01*
X20064Y181857D01*
X20080Y181781D01*
X20100Y181706D01*
X20124Y181632D01*
X20151Y181559D01*
X20182Y181487D01*
X20216Y181417D01*
X20253Y181349D01*
X20294Y181282D01*
X20338Y181217D01*
X20384Y181155D01*
X20434Y181095D01*
X20486Y181037D01*
X20541Y180982D01*
X20599Y180930D01*
X20659Y180880D01*
X20721Y180834D01*
X20786Y180790D01*
X20852Y180749D01*
X20921Y180712D01*
X20991Y180678D01*
X21063Y180647D01*
X21136Y180620D01*
X21210Y180596D01*
X21285Y180576D01*
X21361Y180560D01*
X21438Y180547D01*
X21515Y180537D01*
X21593Y180532D01*
X21671Y180530D01*
X25763Y180530D01*
X25841Y180532D01*
X25919Y180537D01*
X25996Y180547D01*
X26073Y180560D01*
X26149Y180576D01*
X26224Y180596D01*
X26298Y180620D01*
X26371Y180647D01*
X26443Y180678D01*
X26513Y180712D01*
X26582Y180749D01*
X26648Y180790D01*
X26713Y180834D01*
X26775Y180880D01*
X26835Y180930D01*
X26893Y180982D01*
X26948Y181037D01*
X27000Y181095D01*
X27050Y181155D01*
X27096Y181217D01*
X27140Y181282D01*
X27181Y181349D01*
X27218Y181417D01*
X27252Y181487D01*
X27283Y181559D01*
X27310Y181632D01*
X27334Y181706D01*
X27354Y181781D01*
X27370Y181857D01*
X27383Y181934D01*
X27393Y182011D01*
X27398Y182089D01*
X27400Y182167D01*
X27400Y183804D01*
X25763Y186649D02*
X27400Y188695D01*
X20034Y188695D01*
X20034Y186649D02*
X20034Y190741D01*
X25763Y193964D02*
X27400Y196010D01*
X20034Y196010D01*
X20034Y193964D02*
X20034Y198057D01*
D16*
X84392Y206693D02*
X84392Y220409D01*
D14*
X93853Y207616D02*
X93853Y205979D01*
X93855Y205901D01*
X93860Y205823D01*
X93870Y205746D01*
X93883Y205669D01*
X93899Y205593D01*
X93919Y205518D01*
X93943Y205444D01*
X93970Y205371D01*
X94001Y205299D01*
X94035Y205229D01*
X94072Y205161D01*
X94113Y205094D01*
X94157Y205029D01*
X94203Y204967D01*
X94253Y204907D01*
X94305Y204849D01*
X94360Y204794D01*
X94418Y204742D01*
X94478Y204692D01*
X94540Y204646D01*
X94605Y204602D01*
X94672Y204561D01*
X94740Y204524D01*
X94810Y204490D01*
X94882Y204459D01*
X94955Y204432D01*
X95029Y204408D01*
X95104Y204388D01*
X95180Y204372D01*
X95257Y204359D01*
X95334Y204349D01*
X95412Y204344D01*
X95490Y204342D01*
X95490Y204343D02*
X99582Y204343D01*
X99582Y204342D02*
X99660Y204344D01*
X99738Y204349D01*
X99815Y204359D01*
X99892Y204372D01*
X99968Y204388D01*
X100043Y204408D01*
X100117Y204432D01*
X100190Y204459D01*
X100262Y204490D01*
X100332Y204524D01*
X100401Y204561D01*
X100467Y204602D01*
X100532Y204646D01*
X100594Y204692D01*
X100654Y204742D01*
X100712Y204794D01*
X100767Y204849D01*
X100819Y204907D01*
X100869Y204967D01*
X100915Y205029D01*
X100959Y205094D01*
X101000Y205161D01*
X101037Y205229D01*
X101071Y205299D01*
X101102Y205371D01*
X101129Y205444D01*
X101153Y205518D01*
X101173Y205593D01*
X101189Y205669D01*
X101202Y205746D01*
X101212Y205823D01*
X101217Y205901D01*
X101219Y205979D01*
X101219Y207616D01*
X99582Y210462D02*
X101219Y212508D01*
X93853Y212508D01*
X93853Y210462D02*
X93853Y214554D01*
X95490Y217777D02*
X101219Y219414D01*
X95490Y217777D02*
X95490Y221869D01*
X97127Y220641D02*
X93853Y220641D01*
D16*
X65564Y125667D02*
X51848Y125667D01*
D14*
X85900Y120841D02*
X87537Y120841D01*
X87537Y120840D02*
X87615Y120842D01*
X87693Y120847D01*
X87770Y120857D01*
X87847Y120870D01*
X87923Y120886D01*
X87998Y120906D01*
X88072Y120930D01*
X88145Y120957D01*
X88217Y120988D01*
X88287Y121022D01*
X88356Y121059D01*
X88422Y121100D01*
X88487Y121144D01*
X88549Y121190D01*
X88609Y121240D01*
X88667Y121292D01*
X88722Y121347D01*
X88774Y121405D01*
X88824Y121465D01*
X88870Y121527D01*
X88914Y121592D01*
X88955Y121659D01*
X88992Y121727D01*
X89026Y121797D01*
X89057Y121869D01*
X89084Y121942D01*
X89108Y122016D01*
X89128Y122091D01*
X89144Y122167D01*
X89157Y122244D01*
X89167Y122321D01*
X89172Y122399D01*
X89174Y122477D01*
X89174Y126570D01*
X89172Y126648D01*
X89167Y126726D01*
X89157Y126803D01*
X89144Y126880D01*
X89128Y126956D01*
X89108Y127031D01*
X89084Y127105D01*
X89057Y127178D01*
X89026Y127250D01*
X88992Y127320D01*
X88955Y127389D01*
X88914Y127455D01*
X88870Y127520D01*
X88824Y127582D01*
X88774Y127642D01*
X88722Y127700D01*
X88667Y127755D01*
X88609Y127807D01*
X88549Y127857D01*
X88487Y127903D01*
X88422Y127947D01*
X88356Y127988D01*
X88287Y128025D01*
X88217Y128059D01*
X88145Y128090D01*
X88072Y128117D01*
X87998Y128141D01*
X87923Y128161D01*
X87847Y128177D01*
X87770Y128190D01*
X87693Y128200D01*
X87615Y128205D01*
X87537Y128207D01*
X85900Y128207D01*
X80804Y128207D02*
X80719Y128205D01*
X80634Y128199D01*
X80550Y128189D01*
X80466Y128176D01*
X80382Y128158D01*
X80300Y128137D01*
X80219Y128112D01*
X80139Y128083D01*
X80060Y128050D01*
X79983Y128014D01*
X79908Y127974D01*
X79834Y127931D01*
X79763Y127885D01*
X79694Y127835D01*
X79627Y127782D01*
X79563Y127726D01*
X79502Y127667D01*
X79443Y127606D01*
X79387Y127542D01*
X79334Y127475D01*
X79284Y127406D01*
X79238Y127335D01*
X79195Y127261D01*
X79155Y127186D01*
X79119Y127109D01*
X79086Y127030D01*
X79057Y126950D01*
X79032Y126869D01*
X79011Y126787D01*
X78993Y126703D01*
X78980Y126619D01*
X78970Y126535D01*
X78964Y126450D01*
X78962Y126365D01*
X80804Y128207D02*
X80900Y128205D01*
X80996Y128199D01*
X81091Y128189D01*
X81186Y128176D01*
X81281Y128158D01*
X81374Y128137D01*
X81467Y128112D01*
X81558Y128083D01*
X81649Y128051D01*
X81738Y128015D01*
X81825Y127975D01*
X81911Y127932D01*
X81995Y127886D01*
X82077Y127836D01*
X82157Y127782D01*
X82234Y127726D01*
X82309Y127666D01*
X82382Y127604D01*
X82452Y127538D01*
X82520Y127470D01*
X82585Y127399D01*
X82646Y127326D01*
X82705Y127250D01*
X82761Y127171D01*
X82813Y127091D01*
X82862Y127008D01*
X82908Y126924D01*
X82950Y126838D01*
X82988Y126750D01*
X83023Y126661D01*
X83055Y126570D01*
X79576Y124933D02*
X79516Y124992D01*
X79459Y125054D01*
X79404Y125118D01*
X79353Y125185D01*
X79304Y125254D01*
X79258Y125324D01*
X79215Y125397D01*
X79175Y125471D01*
X79139Y125547D01*
X79106Y125625D01*
X79076Y125704D01*
X79049Y125784D01*
X79026Y125865D01*
X79007Y125947D01*
X78991Y126029D01*
X78978Y126113D01*
X78969Y126197D01*
X78964Y126281D01*
X78962Y126365D01*
X79576Y124933D02*
X83054Y120841D01*
X78962Y120841D01*
D16*
X65564Y139954D02*
X51848Y139954D01*
D14*
X84312Y135128D02*
X85949Y135128D01*
X86027Y135130D01*
X86105Y135135D01*
X86182Y135145D01*
X86259Y135158D01*
X86335Y135174D01*
X86410Y135194D01*
X86484Y135218D01*
X86557Y135245D01*
X86629Y135276D01*
X86699Y135310D01*
X86768Y135347D01*
X86834Y135388D01*
X86899Y135432D01*
X86961Y135478D01*
X87021Y135528D01*
X87079Y135580D01*
X87134Y135635D01*
X87186Y135693D01*
X87236Y135753D01*
X87282Y135815D01*
X87326Y135880D01*
X87367Y135947D01*
X87404Y136015D01*
X87438Y136085D01*
X87469Y136157D01*
X87496Y136230D01*
X87520Y136304D01*
X87540Y136379D01*
X87556Y136455D01*
X87569Y136532D01*
X87579Y136609D01*
X87584Y136687D01*
X87586Y136765D01*
X87586Y140857D01*
X87584Y140935D01*
X87579Y141013D01*
X87569Y141090D01*
X87556Y141167D01*
X87540Y141243D01*
X87520Y141318D01*
X87496Y141392D01*
X87469Y141465D01*
X87438Y141537D01*
X87404Y141607D01*
X87367Y141676D01*
X87326Y141742D01*
X87282Y141807D01*
X87236Y141869D01*
X87186Y141929D01*
X87134Y141987D01*
X87079Y142042D01*
X87021Y142094D01*
X86961Y142144D01*
X86899Y142190D01*
X86834Y142234D01*
X86768Y142275D01*
X86699Y142312D01*
X86629Y142346D01*
X86557Y142377D01*
X86484Y142404D01*
X86410Y142428D01*
X86335Y142448D01*
X86259Y142464D01*
X86182Y142477D01*
X86105Y142487D01*
X86027Y142492D01*
X85949Y142494D01*
X84312Y142494D01*
X79830Y142494D02*
X81467Y136765D01*
X77375Y136765D01*
X78602Y138402D02*
X78602Y135128D01*
D13*
X-14288Y228473D02*
X-14288Y234823D01*
D14*
X-17082Y197231D02*
X-9716Y197231D01*
X-9716Y199277D01*
X-9718Y199366D01*
X-9724Y199455D01*
X-9734Y199544D01*
X-9747Y199632D01*
X-9764Y199720D01*
X-9786Y199807D01*
X-9811Y199892D01*
X-9839Y199977D01*
X-9872Y200060D01*
X-9908Y200142D01*
X-9947Y200222D01*
X-9990Y200300D01*
X-10036Y200376D01*
X-10086Y200451D01*
X-10139Y200523D01*
X-10195Y200592D01*
X-10254Y200659D01*
X-10315Y200724D01*
X-10380Y200785D01*
X-10447Y200844D01*
X-10516Y200900D01*
X-10588Y200953D01*
X-10663Y201003D01*
X-10739Y201049D01*
X-10817Y201092D01*
X-10897Y201131D01*
X-10979Y201167D01*
X-11062Y201200D01*
X-11147Y201228D01*
X-11232Y201253D01*
X-11319Y201275D01*
X-11407Y201292D01*
X-11495Y201305D01*
X-11584Y201315D01*
X-11673Y201321D01*
X-11762Y201323D01*
X-11851Y201321D01*
X-11940Y201315D01*
X-12029Y201305D01*
X-12117Y201292D01*
X-12205Y201275D01*
X-12292Y201253D01*
X-12377Y201228D01*
X-12462Y201200D01*
X-12545Y201167D01*
X-12627Y201131D01*
X-12707Y201092D01*
X-12785Y201049D01*
X-12861Y201003D01*
X-12936Y200953D01*
X-13008Y200900D01*
X-13077Y200844D01*
X-13144Y200785D01*
X-13209Y200724D01*
X-13270Y200659D01*
X-13329Y200592D01*
X-13385Y200523D01*
X-13438Y200451D01*
X-13488Y200376D01*
X-13534Y200300D01*
X-13577Y200222D01*
X-13616Y200142D01*
X-13652Y200060D01*
X-13685Y199977D01*
X-13713Y199892D01*
X-13738Y199807D01*
X-13760Y199720D01*
X-13777Y199632D01*
X-13790Y199544D01*
X-13800Y199455D01*
X-13806Y199366D01*
X-13808Y199277D01*
X-13808Y197231D01*
X-13808Y199686D02*
X-17082Y201323D01*
X-13808Y206132D02*
X-13808Y208587D01*
X-13808Y206132D02*
X-13806Y206054D01*
X-13801Y205976D01*
X-13791Y205899D01*
X-13778Y205822D01*
X-13762Y205746D01*
X-13742Y205671D01*
X-13718Y205597D01*
X-13691Y205524D01*
X-13660Y205452D01*
X-13626Y205382D01*
X-13589Y205314D01*
X-13548Y205247D01*
X-13504Y205182D01*
X-13458Y205120D01*
X-13408Y205060D01*
X-13356Y205002D01*
X-13301Y204947D01*
X-13243Y204895D01*
X-13183Y204845D01*
X-13121Y204799D01*
X-13056Y204755D01*
X-12990Y204714D01*
X-12921Y204677D01*
X-12851Y204643D01*
X-12779Y204612D01*
X-12706Y204585D01*
X-12632Y204561D01*
X-12557Y204541D01*
X-12481Y204525D01*
X-12404Y204512D01*
X-12327Y204502D01*
X-12249Y204497D01*
X-12171Y204495D01*
X-11762Y204495D01*
X-11673Y204497D01*
X-11584Y204503D01*
X-11495Y204513D01*
X-11407Y204526D01*
X-11319Y204543D01*
X-11232Y204565D01*
X-11147Y204590D01*
X-11062Y204618D01*
X-10979Y204651D01*
X-10897Y204687D01*
X-10817Y204726D01*
X-10739Y204769D01*
X-10663Y204815D01*
X-10588Y204865D01*
X-10516Y204918D01*
X-10447Y204974D01*
X-10380Y205033D01*
X-10315Y205094D01*
X-10254Y205159D01*
X-10195Y205226D01*
X-10139Y205295D01*
X-10086Y205367D01*
X-10036Y205442D01*
X-9990Y205518D01*
X-9947Y205596D01*
X-9908Y205676D01*
X-9872Y205758D01*
X-9839Y205841D01*
X-9811Y205926D01*
X-9786Y206011D01*
X-9764Y206098D01*
X-9747Y206186D01*
X-9734Y206274D01*
X-9724Y206363D01*
X-9718Y206452D01*
X-9716Y206541D01*
X-9718Y206630D01*
X-9724Y206719D01*
X-9734Y206808D01*
X-9747Y206896D01*
X-9764Y206984D01*
X-9786Y207071D01*
X-9811Y207156D01*
X-9839Y207241D01*
X-9872Y207324D01*
X-9908Y207406D01*
X-9947Y207486D01*
X-9990Y207564D01*
X-10036Y207640D01*
X-10086Y207715D01*
X-10139Y207787D01*
X-10195Y207856D01*
X-10254Y207923D01*
X-10315Y207988D01*
X-10380Y208049D01*
X-10447Y208108D01*
X-10516Y208164D01*
X-10588Y208217D01*
X-10663Y208267D01*
X-10739Y208313D01*
X-10817Y208356D01*
X-10897Y208395D01*
X-10979Y208431D01*
X-11062Y208464D01*
X-11147Y208492D01*
X-11232Y208517D01*
X-11319Y208539D01*
X-11407Y208556D01*
X-11495Y208569D01*
X-11584Y208579D01*
X-11673Y208585D01*
X-11762Y208587D01*
X-13808Y208587D01*
X-13920Y208585D01*
X-14031Y208579D01*
X-14143Y208570D01*
X-14254Y208557D01*
X-14364Y208539D01*
X-14474Y208519D01*
X-14583Y208494D01*
X-14691Y208466D01*
X-14798Y208434D01*
X-14904Y208398D01*
X-15009Y208359D01*
X-15112Y208316D01*
X-15214Y208270D01*
X-15314Y208220D01*
X-15413Y208167D01*
X-15509Y208110D01*
X-15604Y208051D01*
X-15696Y207988D01*
X-15786Y207922D01*
X-15874Y207853D01*
X-15960Y207781D01*
X-16043Y207706D01*
X-16123Y207628D01*
X-16201Y207548D01*
X-16276Y207465D01*
X-16348Y207379D01*
X-16417Y207291D01*
X-16483Y207201D01*
X-16546Y207109D01*
X-16605Y207014D01*
X-16662Y206918D01*
X-16715Y206819D01*
X-16765Y206719D01*
X-16811Y206617D01*
X-16854Y206514D01*
X-16893Y206409D01*
X-16929Y206303D01*
X-16961Y206196D01*
X-16989Y206088D01*
X-17014Y205979D01*
X-17034Y205869D01*
X-17052Y205759D01*
X-17065Y205648D01*
X-17074Y205536D01*
X-17080Y205425D01*
X-17082Y205313D01*
D13*
X1588Y228473D02*
X1588Y234823D01*
D14*
X4572Y195644D02*
X-2794Y195644D01*
X4572Y195644D02*
X4572Y197690D01*
X4570Y197779D01*
X4564Y197868D01*
X4554Y197957D01*
X4541Y198045D01*
X4524Y198133D01*
X4502Y198220D01*
X4477Y198305D01*
X4449Y198390D01*
X4416Y198473D01*
X4380Y198555D01*
X4341Y198635D01*
X4298Y198713D01*
X4252Y198789D01*
X4202Y198864D01*
X4149Y198936D01*
X4093Y199005D01*
X4034Y199072D01*
X3973Y199137D01*
X3908Y199198D01*
X3841Y199257D01*
X3772Y199313D01*
X3700Y199366D01*
X3625Y199416D01*
X3549Y199462D01*
X3471Y199505D01*
X3391Y199544D01*
X3309Y199580D01*
X3226Y199613D01*
X3141Y199641D01*
X3056Y199666D01*
X2969Y199688D01*
X2881Y199705D01*
X2793Y199718D01*
X2704Y199728D01*
X2615Y199734D01*
X2526Y199736D01*
X2437Y199734D01*
X2348Y199728D01*
X2259Y199718D01*
X2171Y199705D01*
X2083Y199688D01*
X1996Y199666D01*
X1911Y199641D01*
X1826Y199613D01*
X1743Y199580D01*
X1661Y199544D01*
X1581Y199505D01*
X1503Y199462D01*
X1427Y199416D01*
X1352Y199366D01*
X1280Y199313D01*
X1211Y199257D01*
X1144Y199198D01*
X1079Y199137D01*
X1018Y199072D01*
X959Y199005D01*
X903Y198936D01*
X850Y198864D01*
X800Y198789D01*
X754Y198713D01*
X711Y198635D01*
X672Y198555D01*
X636Y198473D01*
X603Y198390D01*
X575Y198305D01*
X550Y198220D01*
X528Y198133D01*
X511Y198045D01*
X498Y197957D01*
X488Y197868D01*
X482Y197779D01*
X480Y197690D01*
X480Y195644D01*
X480Y198099D02*
X-2794Y199736D01*
X2935Y202908D02*
X4572Y204954D01*
X-2794Y204954D01*
X-2794Y202908D02*
X-2794Y207000D01*
X889Y210223D02*
X1042Y210225D01*
X1195Y210231D01*
X1347Y210240D01*
X1500Y210254D01*
X1652Y210271D01*
X1803Y210292D01*
X1954Y210317D01*
X2104Y210346D01*
X2254Y210378D01*
X2402Y210415D01*
X2550Y210455D01*
X2697Y210498D01*
X2842Y210546D01*
X2986Y210597D01*
X3129Y210651D01*
X3271Y210710D01*
X3410Y210771D01*
X3549Y210837D01*
X3619Y210863D01*
X3689Y210893D01*
X3756Y210926D01*
X3822Y210962D01*
X3886Y211001D01*
X3948Y211044D01*
X4007Y211090D01*
X4065Y211138D01*
X4119Y211189D01*
X4172Y211243D01*
X4221Y211300D01*
X4268Y211359D01*
X4311Y211420D01*
X4352Y211483D01*
X4389Y211548D01*
X4424Y211615D01*
X4454Y211684D01*
X4482Y211754D01*
X4505Y211825D01*
X4526Y211897D01*
X4542Y211970D01*
X4555Y212044D01*
X4565Y212119D01*
X4570Y212194D01*
X4572Y212269D01*
X4570Y212344D01*
X4565Y212419D01*
X4555Y212494D01*
X4542Y212568D01*
X4526Y212641D01*
X4505Y212713D01*
X4482Y212784D01*
X4454Y212854D01*
X4424Y212923D01*
X4389Y212990D01*
X4352Y213055D01*
X4311Y213118D01*
X4268Y213179D01*
X4221Y213238D01*
X4172Y213295D01*
X4119Y213349D01*
X4065Y213400D01*
X4007Y213449D01*
X3948Y213494D01*
X3886Y213537D01*
X3822Y213576D01*
X3756Y213613D01*
X3688Y213645D01*
X3619Y213675D01*
X3549Y213701D01*
X3411Y213766D01*
X3271Y213828D01*
X3129Y213886D01*
X2986Y213941D01*
X2842Y213992D01*
X2697Y214040D01*
X2550Y214083D01*
X2403Y214123D01*
X2254Y214160D01*
X2104Y214192D01*
X1954Y214221D01*
X1803Y214246D01*
X1652Y214267D01*
X1500Y214284D01*
X1347Y214298D01*
X1195Y214307D01*
X1042Y214313D01*
X889Y214315D01*
X889Y210223D02*
X736Y210225D01*
X583Y210231D01*
X431Y210240D01*
X278Y210254D01*
X126Y210271D01*
X-25Y210292D01*
X-176Y210317D01*
X-326Y210346D01*
X-476Y210378D01*
X-624Y210415D01*
X-772Y210455D01*
X-919Y210498D01*
X-1064Y210546D01*
X-1208Y210597D01*
X-1351Y210651D01*
X-1493Y210710D01*
X-1632Y210771D01*
X-1771Y210837D01*
X-1842Y210863D01*
X-1911Y210893D01*
X-1978Y210926D01*
X-2044Y210962D01*
X-2108Y211001D01*
X-2170Y211044D01*
X-2229Y211090D01*
X-2287Y211138D01*
X-2341Y211189D01*
X-2394Y211243D01*
X-2443Y211300D01*
X-2490Y211359D01*
X-2533Y211420D01*
X-2574Y211483D01*
X-2611Y211548D01*
X-2646Y211615D01*
X-2676Y211684D01*
X-2704Y211754D01*
X-2727Y211825D01*
X-2748Y211897D01*
X-2764Y211970D01*
X-2777Y212044D01*
X-2787Y212119D01*
X-2792Y212194D01*
X-2794Y212269D01*
X-1771Y213701D02*
X-1633Y213766D01*
X-1493Y213828D01*
X-1351Y213886D01*
X-1208Y213941D01*
X-1064Y213992D01*
X-919Y214040D01*
X-772Y214083D01*
X-625Y214123D01*
X-476Y214160D01*
X-326Y214192D01*
X-176Y214221D01*
X-25Y214246D01*
X126Y214267D01*
X278Y214284D01*
X431Y214298D01*
X583Y214307D01*
X736Y214313D01*
X889Y214315D01*
X-1771Y213701D02*
X-1841Y213675D01*
X-1911Y213645D01*
X-1978Y213612D01*
X-2044Y213576D01*
X-2108Y213537D01*
X-2170Y213494D01*
X-2229Y213448D01*
X-2287Y213400D01*
X-2341Y213349D01*
X-2394Y213295D01*
X-2443Y213238D01*
X-2490Y213179D01*
X-2533Y213118D01*
X-2574Y213055D01*
X-2611Y212990D01*
X-2646Y212923D01*
X-2676Y212854D01*
X-2704Y212784D01*
X-2727Y212713D01*
X-2748Y212641D01*
X-2764Y212568D01*
X-2777Y212494D01*
X-2787Y212419D01*
X-2792Y212344D01*
X-2794Y212269D01*
X-1157Y210632D02*
X2935Y213906D01*
M02*
