G04 EAGLE Gerber RS-274X export*
G75*
%MOMM*%
%FSLAX34Y34*%
%LPD*%
%INSolderpaste Bottom*%
%IPPOS*%
%AMOC8*
5,1,8,0,0,1.08239X$1,22.5*%
G01*
%ADD10R,1.100000X1.000000*%
%ADD11R,1.399997X0.400000*%
%ADD12R,0.550000X0.254000*%
%ADD13R,0.254000X0.550000*%
%ADD14R,1.000000X1.100000*%
%ADD15R,0.800000X0.500000*%
%ADD16R,1.500000X1.300000*%
%ADD17R,0.460000X0.180000*%
%ADD18R,1.300000X1.500000*%
%ADD19R,0.970000X0.900000*%
%ADD20R,0.800000X0.230000*%
%ADD21R,1.630000X2.600000*%

G36*
X-12841Y100030D02*
X-12841Y100030D01*
X-12839Y100029D01*
X-12796Y100049D01*
X-12752Y100067D01*
X-12751Y100069D01*
X-12749Y100070D01*
X-12717Y100155D01*
X-12717Y112379D01*
X-12717Y112381D01*
X-12717Y112383D01*
X-12736Y112426D01*
X-12755Y112470D01*
X-12757Y112471D01*
X-12758Y112473D01*
X-12843Y112506D01*
X-25067Y112506D01*
X-25069Y112505D01*
X-25071Y112505D01*
X-25114Y112486D01*
X-25157Y112467D01*
X-25158Y112465D01*
X-25160Y112464D01*
X-25193Y112379D01*
X-25193Y100155D01*
X-25192Y100153D01*
X-25193Y100151D01*
X-25173Y100108D01*
X-25155Y100065D01*
X-25153Y100064D01*
X-25152Y100062D01*
X-25067Y100029D01*
X-12843Y100029D01*
X-12841Y100030D01*
G37*
G36*
X15607Y100030D02*
X15607Y100030D01*
X15609Y100029D01*
X15652Y100049D01*
X15696Y100067D01*
X15697Y100069D01*
X15699Y100070D01*
X15732Y100155D01*
X15732Y112379D01*
X15731Y112381D01*
X15731Y112383D01*
X15712Y112426D01*
X15693Y112470D01*
X15691Y112471D01*
X15690Y112473D01*
X15605Y112506D01*
X3381Y112506D01*
X3379Y112505D01*
X3377Y112505D01*
X3334Y112486D01*
X3291Y112467D01*
X3290Y112465D01*
X3288Y112464D01*
X3255Y112379D01*
X3255Y100155D01*
X3256Y100153D01*
X3255Y100151D01*
X3275Y100108D01*
X3293Y100065D01*
X3295Y100064D01*
X3296Y100062D01*
X3381Y100029D01*
X15605Y100029D01*
X15607Y100030D01*
G37*
G36*
X1383Y100030D02*
X1383Y100030D01*
X1385Y100029D01*
X1428Y100049D01*
X1472Y100067D01*
X1473Y100069D01*
X1475Y100070D01*
X1508Y100155D01*
X1508Y112379D01*
X1507Y112381D01*
X1507Y112383D01*
X1488Y112426D01*
X1469Y112470D01*
X1467Y112471D01*
X1466Y112473D01*
X1381Y112506D01*
X-10843Y112506D01*
X-10845Y112505D01*
X-10847Y112505D01*
X-10890Y112486D01*
X-10933Y112467D01*
X-10934Y112465D01*
X-10936Y112464D01*
X-10969Y112379D01*
X-10969Y100155D01*
X-10968Y100153D01*
X-10969Y100151D01*
X-10949Y100108D01*
X-10931Y100065D01*
X-10929Y100064D01*
X-10928Y100062D01*
X-10843Y100029D01*
X1381Y100029D01*
X1383Y100030D01*
G37*
G36*
X29831Y100030D02*
X29831Y100030D01*
X29833Y100029D01*
X29876Y100049D01*
X29920Y100067D01*
X29921Y100069D01*
X29923Y100070D01*
X29956Y100155D01*
X29956Y112379D01*
X29955Y112381D01*
X29955Y112383D01*
X29936Y112426D01*
X29917Y112470D01*
X29915Y112471D01*
X29914Y112473D01*
X29829Y112506D01*
X17605Y112506D01*
X17603Y112505D01*
X17601Y112505D01*
X17558Y112486D01*
X17515Y112467D01*
X17514Y112465D01*
X17512Y112464D01*
X17479Y112379D01*
X17479Y100155D01*
X17480Y100153D01*
X17479Y100151D01*
X17499Y100108D01*
X17517Y100065D01*
X17519Y100064D01*
X17520Y100062D01*
X17605Y100029D01*
X29829Y100029D01*
X29831Y100030D01*
G37*
G36*
X15607Y85806D02*
X15607Y85806D01*
X15609Y85805D01*
X15652Y85825D01*
X15696Y85843D01*
X15697Y85845D01*
X15699Y85846D01*
X15732Y85931D01*
X15732Y98155D01*
X15731Y98157D01*
X15731Y98159D01*
X15712Y98202D01*
X15693Y98246D01*
X15691Y98247D01*
X15690Y98249D01*
X15605Y98282D01*
X3381Y98282D01*
X3379Y98281D01*
X3377Y98281D01*
X3334Y98262D01*
X3291Y98243D01*
X3290Y98241D01*
X3288Y98240D01*
X3255Y98155D01*
X3255Y85931D01*
X3256Y85929D01*
X3255Y85927D01*
X3275Y85884D01*
X3293Y85841D01*
X3295Y85840D01*
X3296Y85838D01*
X3381Y85805D01*
X15605Y85805D01*
X15607Y85806D01*
G37*
G36*
X-12841Y85806D02*
X-12841Y85806D01*
X-12839Y85805D01*
X-12796Y85825D01*
X-12752Y85843D01*
X-12751Y85845D01*
X-12749Y85846D01*
X-12717Y85931D01*
X-12717Y98155D01*
X-12717Y98157D01*
X-12717Y98159D01*
X-12736Y98202D01*
X-12755Y98246D01*
X-12757Y98247D01*
X-12758Y98249D01*
X-12843Y98282D01*
X-25067Y98282D01*
X-25069Y98281D01*
X-25071Y98281D01*
X-25114Y98262D01*
X-25157Y98243D01*
X-25158Y98241D01*
X-25160Y98240D01*
X-25193Y98155D01*
X-25193Y85931D01*
X-25192Y85929D01*
X-25193Y85927D01*
X-25173Y85884D01*
X-25155Y85841D01*
X-25153Y85840D01*
X-25152Y85838D01*
X-25067Y85805D01*
X-12843Y85805D01*
X-12841Y85806D01*
G37*
G36*
X1383Y85806D02*
X1383Y85806D01*
X1385Y85805D01*
X1428Y85825D01*
X1472Y85843D01*
X1473Y85845D01*
X1475Y85846D01*
X1508Y85931D01*
X1508Y98155D01*
X1507Y98157D01*
X1507Y98159D01*
X1488Y98202D01*
X1469Y98246D01*
X1467Y98247D01*
X1466Y98249D01*
X1381Y98282D01*
X-10843Y98282D01*
X-10845Y98281D01*
X-10847Y98281D01*
X-10890Y98262D01*
X-10933Y98243D01*
X-10934Y98241D01*
X-10936Y98240D01*
X-10969Y98155D01*
X-10969Y85931D01*
X-10968Y85929D01*
X-10969Y85927D01*
X-10949Y85884D01*
X-10931Y85841D01*
X-10929Y85840D01*
X-10928Y85838D01*
X-10843Y85805D01*
X1381Y85805D01*
X1383Y85806D01*
G37*
G36*
X29831Y85806D02*
X29831Y85806D01*
X29833Y85805D01*
X29876Y85825D01*
X29920Y85843D01*
X29921Y85845D01*
X29923Y85846D01*
X29956Y85931D01*
X29956Y98155D01*
X29955Y98157D01*
X29955Y98159D01*
X29936Y98202D01*
X29917Y98246D01*
X29915Y98247D01*
X29914Y98249D01*
X29829Y98282D01*
X17605Y98282D01*
X17603Y98281D01*
X17601Y98281D01*
X17558Y98262D01*
X17515Y98243D01*
X17514Y98241D01*
X17512Y98240D01*
X17479Y98155D01*
X17479Y85931D01*
X17480Y85929D01*
X17479Y85927D01*
X17499Y85884D01*
X17517Y85841D01*
X17519Y85840D01*
X17520Y85838D01*
X17605Y85805D01*
X29829Y85805D01*
X29831Y85806D01*
G37*
G36*
X-12841Y71582D02*
X-12841Y71582D01*
X-12839Y71581D01*
X-12796Y71601D01*
X-12752Y71619D01*
X-12751Y71621D01*
X-12749Y71622D01*
X-12717Y71707D01*
X-12717Y83931D01*
X-12717Y83933D01*
X-12717Y83935D01*
X-12736Y83978D01*
X-12755Y84022D01*
X-12757Y84023D01*
X-12758Y84025D01*
X-12843Y84058D01*
X-25067Y84058D01*
X-25069Y84057D01*
X-25071Y84057D01*
X-25114Y84038D01*
X-25157Y84019D01*
X-25158Y84017D01*
X-25160Y84016D01*
X-25193Y83931D01*
X-25193Y71707D01*
X-25192Y71705D01*
X-25193Y71703D01*
X-25173Y71660D01*
X-25155Y71617D01*
X-25153Y71616D01*
X-25152Y71614D01*
X-25067Y71581D01*
X-12843Y71581D01*
X-12841Y71582D01*
G37*
G36*
X15607Y71582D02*
X15607Y71582D01*
X15609Y71581D01*
X15652Y71601D01*
X15696Y71619D01*
X15697Y71621D01*
X15699Y71622D01*
X15732Y71707D01*
X15732Y83931D01*
X15731Y83933D01*
X15731Y83935D01*
X15712Y83978D01*
X15693Y84022D01*
X15691Y84023D01*
X15690Y84025D01*
X15605Y84058D01*
X3381Y84058D01*
X3379Y84057D01*
X3377Y84057D01*
X3334Y84038D01*
X3291Y84019D01*
X3290Y84017D01*
X3288Y84016D01*
X3255Y83931D01*
X3255Y71707D01*
X3256Y71705D01*
X3255Y71703D01*
X3275Y71660D01*
X3293Y71617D01*
X3295Y71616D01*
X3296Y71614D01*
X3381Y71581D01*
X15605Y71581D01*
X15607Y71582D01*
G37*
G36*
X1383Y71582D02*
X1383Y71582D01*
X1385Y71581D01*
X1428Y71601D01*
X1472Y71619D01*
X1473Y71621D01*
X1475Y71622D01*
X1508Y71707D01*
X1508Y83931D01*
X1507Y83933D01*
X1507Y83935D01*
X1488Y83978D01*
X1469Y84022D01*
X1467Y84023D01*
X1466Y84025D01*
X1381Y84058D01*
X-10843Y84058D01*
X-10845Y84057D01*
X-10847Y84057D01*
X-10890Y84038D01*
X-10933Y84019D01*
X-10934Y84017D01*
X-10936Y84016D01*
X-10969Y83931D01*
X-10969Y71707D01*
X-10968Y71705D01*
X-10969Y71703D01*
X-10949Y71660D01*
X-10931Y71617D01*
X-10929Y71616D01*
X-10928Y71614D01*
X-10843Y71581D01*
X1381Y71581D01*
X1383Y71582D01*
G37*
G36*
X29831Y71582D02*
X29831Y71582D01*
X29833Y71581D01*
X29876Y71601D01*
X29920Y71619D01*
X29921Y71621D01*
X29923Y71622D01*
X29956Y71707D01*
X29956Y83931D01*
X29955Y83933D01*
X29955Y83935D01*
X29936Y83978D01*
X29917Y84022D01*
X29915Y84023D01*
X29914Y84025D01*
X29829Y84058D01*
X17605Y84058D01*
X17603Y84057D01*
X17601Y84057D01*
X17558Y84038D01*
X17515Y84019D01*
X17514Y84017D01*
X17512Y84016D01*
X17479Y83931D01*
X17479Y71707D01*
X17480Y71705D01*
X17479Y71703D01*
X17499Y71660D01*
X17517Y71617D01*
X17519Y71616D01*
X17520Y71614D01*
X17605Y71581D01*
X29829Y71581D01*
X29831Y71582D01*
G37*
G36*
X1383Y57358D02*
X1383Y57358D01*
X1385Y57357D01*
X1428Y57377D01*
X1472Y57395D01*
X1473Y57397D01*
X1475Y57398D01*
X1508Y57483D01*
X1508Y69707D01*
X1507Y69709D01*
X1507Y69711D01*
X1488Y69754D01*
X1469Y69798D01*
X1467Y69799D01*
X1466Y69801D01*
X1381Y69834D01*
X-10843Y69834D01*
X-10845Y69833D01*
X-10847Y69833D01*
X-10890Y69814D01*
X-10933Y69795D01*
X-10934Y69793D01*
X-10936Y69792D01*
X-10969Y69707D01*
X-10969Y57483D01*
X-10968Y57481D01*
X-10969Y57479D01*
X-10949Y57436D01*
X-10931Y57393D01*
X-10929Y57392D01*
X-10928Y57390D01*
X-10843Y57357D01*
X1381Y57357D01*
X1383Y57358D01*
G37*
G36*
X15607Y57358D02*
X15607Y57358D01*
X15609Y57357D01*
X15652Y57377D01*
X15696Y57395D01*
X15697Y57397D01*
X15699Y57398D01*
X15732Y57483D01*
X15732Y69707D01*
X15731Y69709D01*
X15731Y69711D01*
X15712Y69754D01*
X15693Y69798D01*
X15691Y69799D01*
X15690Y69801D01*
X15605Y69834D01*
X3381Y69834D01*
X3379Y69833D01*
X3377Y69833D01*
X3334Y69814D01*
X3291Y69795D01*
X3290Y69793D01*
X3288Y69792D01*
X3255Y69707D01*
X3255Y57483D01*
X3256Y57481D01*
X3255Y57479D01*
X3275Y57436D01*
X3293Y57393D01*
X3295Y57392D01*
X3296Y57390D01*
X3381Y57357D01*
X15605Y57357D01*
X15607Y57358D01*
G37*
G36*
X29831Y57358D02*
X29831Y57358D01*
X29833Y57357D01*
X29876Y57377D01*
X29920Y57395D01*
X29921Y57397D01*
X29923Y57398D01*
X29956Y57483D01*
X29956Y69707D01*
X29955Y69709D01*
X29955Y69711D01*
X29936Y69754D01*
X29917Y69798D01*
X29915Y69799D01*
X29914Y69801D01*
X29829Y69834D01*
X17605Y69834D01*
X17603Y69833D01*
X17601Y69833D01*
X17558Y69814D01*
X17515Y69795D01*
X17514Y69793D01*
X17512Y69792D01*
X17479Y69707D01*
X17479Y57483D01*
X17480Y57481D01*
X17479Y57479D01*
X17499Y57436D01*
X17517Y57393D01*
X17519Y57392D01*
X17520Y57390D01*
X17605Y57357D01*
X29829Y57357D01*
X29831Y57358D01*
G37*
G36*
X-12841Y57358D02*
X-12841Y57358D01*
X-12839Y57357D01*
X-12796Y57377D01*
X-12752Y57395D01*
X-12751Y57397D01*
X-12749Y57398D01*
X-12717Y57483D01*
X-12717Y69707D01*
X-12717Y69709D01*
X-12717Y69711D01*
X-12736Y69754D01*
X-12755Y69798D01*
X-12757Y69799D01*
X-12758Y69801D01*
X-12843Y69834D01*
X-25067Y69834D01*
X-25069Y69833D01*
X-25071Y69833D01*
X-25114Y69814D01*
X-25157Y69795D01*
X-25158Y69793D01*
X-25160Y69792D01*
X-25193Y69707D01*
X-25193Y57483D01*
X-25192Y57481D01*
X-25193Y57479D01*
X-25173Y57436D01*
X-25155Y57393D01*
X-25153Y57392D01*
X-25152Y57390D01*
X-25067Y57357D01*
X-12843Y57357D01*
X-12841Y57358D01*
G37*
D10*
X48419Y151838D03*
X48419Y168838D03*
X68263Y168838D03*
X68263Y151838D03*
D11*
X58738Y63406D03*
X58738Y75406D03*
X58738Y87406D03*
D12*
X36181Y112438D03*
X36181Y107437D03*
X36181Y102435D03*
X36181Y97434D03*
X36181Y92433D03*
X36181Y87432D03*
X36181Y82430D03*
X36181Y77429D03*
X36181Y72428D03*
X36181Y67427D03*
X36181Y62425D03*
X36181Y57424D03*
D13*
X29888Y51131D03*
X24887Y51131D03*
X19885Y51131D03*
X14884Y51131D03*
X9883Y51131D03*
X4882Y51131D03*
X-120Y51131D03*
X-5121Y51131D03*
X-10122Y51131D03*
X-15123Y51131D03*
X-20125Y51131D03*
X-25126Y51131D03*
D12*
X-31419Y57424D03*
X-31419Y62425D03*
X-31419Y67427D03*
X-31419Y72428D03*
X-31419Y77429D03*
X-31419Y82430D03*
X-31419Y87432D03*
X-31419Y92433D03*
X-31419Y97434D03*
X-31419Y102435D03*
X-31419Y107437D03*
X-31419Y112438D03*
D13*
X-25126Y118731D03*
X-20125Y118731D03*
X-15123Y118731D03*
X-10122Y118731D03*
X-5121Y118731D03*
X-120Y118731D03*
X4882Y118731D03*
X9883Y118731D03*
X14884Y118731D03*
X19885Y118731D03*
X24887Y118731D03*
X29888Y118731D03*
D10*
X-48419Y137088D03*
X-48419Y120088D03*
D14*
X-43888Y58738D03*
X-60888Y58738D03*
D10*
X49444Y113506D03*
X66444Y113506D03*
X49444Y103981D03*
X66444Y103981D03*
X-794Y132788D03*
X-794Y149788D03*
X14288Y132788D03*
X14288Y149788D03*
X29369Y132788D03*
X29369Y149788D03*
D15*
X69738Y182563D03*
X47738Y182563D03*
D16*
X-35719Y243656D03*
X-35719Y224656D03*
X-69056Y243656D03*
X-69056Y224656D03*
D17*
X-48988Y238156D03*
X-48988Y234156D03*
X-48988Y230156D03*
X-55788Y230156D03*
X-55788Y234156D03*
X-55788Y238156D03*
D10*
X17694Y289719D03*
X34694Y289719D03*
D18*
X16694Y277813D03*
X35694Y277813D03*
X-819Y277813D03*
X-19819Y277813D03*
D10*
X-1819Y290513D03*
X-18819Y290513D03*
D19*
X83344Y234244D03*
X83344Y249944D03*
D20*
X67681Y243025D03*
X67681Y238525D03*
X67681Y234025D03*
X67681Y229525D03*
X67681Y225025D03*
X67681Y220525D03*
X38681Y220525D03*
X38681Y225025D03*
X38681Y229525D03*
X38681Y234025D03*
X38681Y238525D03*
X38681Y243025D03*
D21*
X53181Y231775D03*
D14*
X24606Y233594D03*
X24606Y250594D03*
D10*
X14288Y205813D03*
X14288Y222813D03*
D14*
X51363Y206375D03*
X34363Y206375D03*
X24606Y222813D03*
X24606Y205813D03*
D16*
X84138Y223813D03*
X84138Y204813D03*
D18*
X48444Y125413D03*
X67444Y125413D03*
X48444Y139700D03*
X67444Y139700D03*
D10*
X-14288Y240275D03*
X-14288Y223275D03*
X1588Y240275D03*
X1588Y223275D03*
M02*
