G04 EAGLE Gerber RS-274X export*
G75*
%MOMM*%
%FSLAX34Y34*%
%LPD*%
%INSoldermask Top*%
%IPPOS*%
%AMOC8*
5,1,8,0,0,1.08239X$1,22.5*%
G01*
%ADD10R,1.003200X1.003200*%
%ADD11P,1.869504X8X22.500000*%
%ADD12R,1.303200X1.203200*%
%ADD13C,1.727200*%
%ADD14C,1.203200*%
%ADD15R,0.703200X1.203200*%

G36*
X17822Y-475D02*
X17822Y-475D01*
X17851Y-477D01*
X17919Y-455D01*
X17989Y-441D01*
X18013Y-424D01*
X18040Y-415D01*
X18094Y-369D01*
X18153Y-328D01*
X18168Y-304D01*
X18190Y-285D01*
X18221Y-221D01*
X18260Y-161D01*
X18264Y-132D01*
X18277Y-106D01*
X18286Y-7D01*
X18293Y35D01*
X18290Y46D01*
X18291Y60D01*
X18059Y2858D01*
X18050Y2891D01*
X18046Y2939D01*
X17357Y5661D01*
X17342Y5692D01*
X17330Y5739D01*
X16202Y8310D01*
X16182Y8339D01*
X16163Y8383D01*
X14627Y10733D01*
X14603Y10758D01*
X14576Y10799D01*
X12675Y12864D01*
X12647Y12885D01*
X12614Y12920D01*
X10399Y14645D01*
X10368Y14660D01*
X10330Y14690D01*
X7860Y16026D01*
X7827Y16036D01*
X7785Y16059D01*
X6599Y16466D01*
X5144Y16966D01*
X5129Y16971D01*
X5095Y16975D01*
X5049Y16991D01*
X2280Y17453D01*
X2245Y17452D01*
X2198Y17460D01*
X-610Y17460D01*
X-644Y17453D01*
X-692Y17453D01*
X-3462Y16991D01*
X-3494Y16979D01*
X-3542Y16971D01*
X-6197Y16059D01*
X-6227Y16042D01*
X-6273Y16026D01*
X-8742Y14690D01*
X-8769Y14667D01*
X-8811Y14645D01*
X-11027Y12920D01*
X-11049Y12894D01*
X-11087Y12864D01*
X-12989Y10799D01*
X-13007Y10769D01*
X-13040Y10733D01*
X-14575Y8383D01*
X-14588Y8351D01*
X-14615Y8310D01*
X-15742Y5739D01*
X-15750Y5705D01*
X-15753Y5699D01*
X-15758Y5690D01*
X-15759Y5684D01*
X-15769Y5661D01*
X-16458Y2939D01*
X-16460Y2905D01*
X-16472Y2858D01*
X-16704Y60D01*
X-16700Y31D01*
X-16705Y2D01*
X-16689Y-67D01*
X-16680Y-138D01*
X-16666Y-163D01*
X-16659Y-191D01*
X-16617Y-248D01*
X-16582Y-310D01*
X-16559Y-328D01*
X-16541Y-351D01*
X-16480Y-388D01*
X-16424Y-431D01*
X-16395Y-438D01*
X-16370Y-453D01*
X-16272Y-469D01*
X-16231Y-480D01*
X-16220Y-478D01*
X-16206Y-481D01*
X17794Y-481D01*
X17822Y-475D01*
G37*
G36*
X-120599Y59829D02*
X-120599Y59829D01*
X-120529Y59826D01*
X-120501Y59836D01*
X-120472Y59838D01*
X-120382Y59880D01*
X-120342Y59895D01*
X-120334Y59903D01*
X-120322Y59909D01*
X-118018Y61508D01*
X-117994Y61533D01*
X-117954Y61561D01*
X-115945Y63518D01*
X-115926Y63546D01*
X-115891Y63580D01*
X-114232Y65841D01*
X-114217Y65872D01*
X-114189Y65911D01*
X-112924Y68414D01*
X-112915Y68447D01*
X-112893Y68490D01*
X-112058Y71168D01*
X-112054Y71202D01*
X-112040Y71248D01*
X-111656Y74026D01*
X-111658Y74061D01*
X-111652Y74109D01*
X-111731Y76912D01*
X-111739Y76946D01*
X-111740Y76994D01*
X-112280Y79746D01*
X-112293Y79778D01*
X-112302Y79825D01*
X-113287Y82451D01*
X-113303Y82476D01*
X-113307Y82496D01*
X-113315Y82506D01*
X-113322Y82526D01*
X-114726Y84954D01*
X-114749Y84980D01*
X-114773Y85021D01*
X-116558Y87185D01*
X-116584Y87207D01*
X-116615Y87244D01*
X-118731Y89084D01*
X-118761Y89102D01*
X-118798Y89133D01*
X-121188Y90600D01*
X-121220Y90612D01*
X-121261Y90638D01*
X-123860Y91691D01*
X-123895Y91698D01*
X-123939Y91716D01*
X-126676Y92327D01*
X-126711Y92328D01*
X-126758Y92338D01*
X-129558Y92491D01*
X-129592Y92486D01*
X-129641Y92489D01*
X-132428Y92178D01*
X-132461Y92168D01*
X-132509Y92163D01*
X-135207Y91398D01*
X-135238Y91382D01*
X-135284Y91369D01*
X-137820Y90170D01*
X-137843Y90153D01*
X-137870Y90142D01*
X-137922Y90094D01*
X-137979Y90051D01*
X-137994Y90026D01*
X-138015Y90006D01*
X-138043Y89941D01*
X-138079Y89879D01*
X-138083Y89850D01*
X-138094Y89824D01*
X-138095Y89753D01*
X-138104Y89682D01*
X-138096Y89654D01*
X-138097Y89625D01*
X-138062Y89532D01*
X-138050Y89491D01*
X-138043Y89482D01*
X-138038Y89469D01*
X-121038Y60069D01*
X-121019Y60047D01*
X-121007Y60021D01*
X-120954Y59973D01*
X-120907Y59920D01*
X-120880Y59907D01*
X-120859Y59888D01*
X-120791Y59865D01*
X-120727Y59834D01*
X-120698Y59833D01*
X-120670Y59824D01*
X-120599Y59829D01*
G37*
G36*
X131180Y207551D02*
X131180Y207551D01*
X131228Y207549D01*
X134015Y207859D01*
X134048Y207870D01*
X134096Y207875D01*
X136794Y208640D01*
X136825Y208656D01*
X136872Y208669D01*
X139407Y209867D01*
X139431Y209885D01*
X139458Y209895D01*
X139509Y209944D01*
X139566Y209986D01*
X139581Y210012D01*
X139602Y210032D01*
X139631Y210097D01*
X139667Y210158D01*
X139670Y210187D01*
X139682Y210214D01*
X139683Y210285D01*
X139692Y210356D01*
X139684Y210384D01*
X139684Y210413D01*
X139649Y210506D01*
X139638Y210547D01*
X139631Y210556D01*
X139626Y210569D01*
X122626Y239969D01*
X122607Y239990D01*
X122594Y240017D01*
X122541Y240064D01*
X122494Y240118D01*
X122468Y240130D01*
X122446Y240150D01*
X122379Y240173D01*
X122315Y240203D01*
X122286Y240204D01*
X122258Y240214D01*
X122187Y240209D01*
X122116Y240212D01*
X122089Y240202D01*
X122060Y240200D01*
X121969Y240157D01*
X121930Y240142D01*
X121922Y240135D01*
X121909Y240129D01*
X119605Y238529D01*
X119581Y238504D01*
X119542Y238477D01*
X117533Y236520D01*
X117513Y236491D01*
X117479Y236458D01*
X115819Y234197D01*
X115805Y234165D01*
X115776Y234127D01*
X114512Y231623D01*
X114502Y231590D01*
X114481Y231547D01*
X113645Y228870D01*
X113642Y228835D01*
X113627Y228789D01*
X113244Y226011D01*
X113246Y225977D01*
X113239Y225929D01*
X113318Y223126D01*
X113326Y223092D01*
X113328Y223044D01*
X113867Y220291D01*
X113880Y220259D01*
X113890Y220212D01*
X114875Y217586D01*
X114893Y217557D01*
X114910Y217512D01*
X116314Y215084D01*
X116337Y215058D01*
X116361Y215016D01*
X118145Y212853D01*
X118172Y212831D01*
X118203Y212794D01*
X120319Y210953D01*
X120349Y210936D01*
X120385Y210904D01*
X122775Y209437D01*
X122808Y209425D01*
X122849Y209400D01*
X125448Y208346D01*
X125482Y208340D01*
X125527Y208322D01*
X128264Y207710D01*
X128298Y207710D01*
X128345Y207699D01*
X131146Y207546D01*
X131180Y207551D01*
G37*
G36*
X122220Y59829D02*
X122220Y59829D01*
X122291Y59829D01*
X122317Y59840D01*
X122346Y59843D01*
X122408Y59878D01*
X122474Y59906D01*
X122494Y59926D01*
X122520Y59941D01*
X122583Y60017D01*
X122613Y60048D01*
X122617Y60058D01*
X122626Y60069D01*
X139626Y89469D01*
X139635Y89497D01*
X139652Y89520D01*
X139667Y89590D01*
X139689Y89657D01*
X139687Y89686D01*
X139693Y89715D01*
X139679Y89785D01*
X139674Y89856D01*
X139660Y89882D01*
X139655Y89910D01*
X139615Y89969D01*
X139582Y90032D01*
X139560Y90051D01*
X139544Y90075D01*
X139462Y90132D01*
X139429Y90159D01*
X139419Y90162D01*
X139407Y90170D01*
X136872Y91369D01*
X136838Y91377D01*
X136794Y91398D01*
X134096Y92163D01*
X134062Y92165D01*
X134015Y92178D01*
X131228Y92489D01*
X131193Y92486D01*
X131146Y92491D01*
X128345Y92338D01*
X128312Y92330D01*
X128264Y92327D01*
X125527Y91716D01*
X125495Y91702D01*
X125448Y91691D01*
X122849Y90638D01*
X122820Y90618D01*
X122775Y90600D01*
X120385Y89133D01*
X120360Y89110D01*
X120319Y89084D01*
X118203Y87244D01*
X118181Y87216D01*
X118145Y87185D01*
X116361Y85021D01*
X116344Y84991D01*
X116314Y84954D01*
X114910Y82526D01*
X114899Y82493D01*
X114891Y82480D01*
X114882Y82465D01*
X114882Y82463D01*
X114875Y82451D01*
X113890Y79825D01*
X113884Y79791D01*
X113867Y79746D01*
X113328Y76994D01*
X113328Y76959D01*
X113318Y76912D01*
X113239Y74109D01*
X113245Y74074D01*
X113244Y74026D01*
X113627Y71248D01*
X113639Y71215D01*
X113645Y71168D01*
X114481Y68490D01*
X114497Y68460D01*
X114512Y68414D01*
X115776Y65911D01*
X115798Y65884D01*
X115819Y65841D01*
X117479Y63580D01*
X117504Y63557D01*
X117533Y63518D01*
X119542Y61561D01*
X119571Y61542D01*
X119605Y61508D01*
X121909Y59909D01*
X121936Y59897D01*
X121958Y59879D01*
X122026Y59858D01*
X122092Y59830D01*
X122121Y59830D01*
X122149Y59822D01*
X122220Y59829D01*
G37*
G36*
X-126758Y207699D02*
X-126758Y207699D01*
X-126724Y207708D01*
X-126676Y207710D01*
X-123939Y208322D01*
X-123908Y208336D01*
X-123860Y208346D01*
X-121261Y209400D01*
X-121232Y209419D01*
X-121188Y209437D01*
X-118798Y210904D01*
X-118772Y210928D01*
X-118731Y210953D01*
X-116615Y212794D01*
X-116594Y212821D01*
X-116558Y212853D01*
X-114773Y215016D01*
X-114757Y215047D01*
X-114726Y215084D01*
X-113322Y217512D01*
X-113311Y217545D01*
X-113287Y217586D01*
X-112302Y220212D01*
X-112297Y220246D01*
X-112280Y220291D01*
X-111740Y223044D01*
X-111740Y223078D01*
X-111731Y223126D01*
X-111652Y225929D01*
X-111658Y225963D01*
X-111656Y226011D01*
X-112040Y228789D01*
X-112051Y228822D01*
X-112058Y228870D01*
X-112893Y231547D01*
X-112910Y231578D01*
X-112924Y231623D01*
X-114189Y234127D01*
X-114210Y234154D01*
X-114232Y234197D01*
X-115891Y236458D01*
X-115917Y236481D01*
X-115945Y236520D01*
X-117954Y238477D01*
X-117983Y238496D01*
X-118018Y238529D01*
X-120322Y240129D01*
X-120348Y240140D01*
X-120371Y240159D01*
X-120439Y240179D01*
X-120504Y240207D01*
X-120533Y240208D01*
X-120561Y240216D01*
X-120632Y240208D01*
X-120703Y240209D01*
X-120730Y240197D01*
X-120759Y240194D01*
X-120821Y240159D01*
X-120887Y240132D01*
X-120907Y240111D01*
X-120932Y240097D01*
X-120996Y240020D01*
X-121026Y239990D01*
X-121030Y239979D01*
X-121038Y239969D01*
X-138038Y210569D01*
X-138048Y210541D01*
X-138064Y210517D01*
X-138079Y210448D01*
X-138102Y210380D01*
X-138099Y210351D01*
X-138106Y210323D01*
X-138092Y210253D01*
X-138086Y210182D01*
X-138073Y210156D01*
X-138067Y210127D01*
X-138028Y210069D01*
X-137995Y210005D01*
X-137972Y209987D01*
X-137956Y209963D01*
X-137874Y209906D01*
X-137842Y209879D01*
X-137831Y209875D01*
X-137820Y209867D01*
X-135284Y208669D01*
X-135250Y208661D01*
X-135207Y208640D01*
X-132509Y207875D01*
X-132474Y207872D01*
X-132428Y207859D01*
X-129641Y207549D01*
X-129606Y207552D01*
X-129558Y207546D01*
X-126758Y207699D01*
G37*
G36*
X164521Y133029D02*
X164521Y133029D01*
X164592Y133029D01*
X164618Y133040D01*
X164647Y133044D01*
X164710Y133079D01*
X164775Y133106D01*
X164795Y133127D01*
X164821Y133141D01*
X164884Y133218D01*
X164914Y133249D01*
X164918Y133259D01*
X164926Y133270D01*
X174426Y149770D01*
X174437Y149801D01*
X174445Y149814D01*
X174449Y149839D01*
X174451Y149842D01*
X174482Y149913D01*
X174482Y149936D01*
X174489Y149958D01*
X174483Y150035D01*
X174484Y150112D01*
X174475Y150136D01*
X174474Y150157D01*
X174453Y150196D01*
X174426Y150268D01*
X164926Y166768D01*
X164907Y166790D01*
X164895Y166816D01*
X164842Y166864D01*
X164795Y166917D01*
X164769Y166930D01*
X164747Y166949D01*
X164680Y166972D01*
X164616Y167003D01*
X164587Y167004D01*
X164559Y167014D01*
X164488Y167009D01*
X164417Y167012D01*
X164390Y167002D01*
X164361Y167000D01*
X164270Y166958D01*
X164230Y166943D01*
X164222Y166935D01*
X164210Y166930D01*
X161687Y165188D01*
X161663Y165163D01*
X161624Y165137D01*
X159413Y163013D01*
X159394Y162985D01*
X159360Y162953D01*
X157518Y160502D01*
X157503Y160471D01*
X157475Y160434D01*
X156050Y157719D01*
X156041Y157687D01*
X156025Y157662D01*
X156024Y157654D01*
X156019Y157645D01*
X155048Y154736D01*
X155043Y154703D01*
X155028Y154658D01*
X154536Y151632D01*
X154538Y151598D01*
X154530Y151552D01*
X154530Y148486D01*
X154531Y148482D01*
X154530Y148480D01*
X154537Y148453D01*
X154537Y148452D01*
X154536Y148406D01*
X155028Y145379D01*
X155040Y145347D01*
X155048Y145301D01*
X156019Y142393D01*
X156035Y142363D01*
X156050Y142319D01*
X157475Y139604D01*
X157496Y139578D01*
X157518Y139536D01*
X159360Y137085D01*
X159385Y137062D01*
X159413Y137025D01*
X161624Y134900D01*
X161653Y134882D01*
X161687Y134850D01*
X164210Y133108D01*
X164237Y133097D01*
X164259Y133078D01*
X164327Y133058D01*
X164393Y133030D01*
X164422Y133030D01*
X164450Y133021D01*
X164521Y133029D01*
G37*
G36*
X-162901Y133029D02*
X-162901Y133029D01*
X-162829Y133025D01*
X-162802Y133036D01*
X-162773Y133038D01*
X-162683Y133080D01*
X-162643Y133095D01*
X-162635Y133102D01*
X-162623Y133108D01*
X-160099Y134850D01*
X-160076Y134874D01*
X-160037Y134900D01*
X-157826Y137025D01*
X-157806Y137052D01*
X-157772Y137085D01*
X-155930Y139536D01*
X-155916Y139567D01*
X-155887Y139604D01*
X-154463Y142319D01*
X-154453Y142351D01*
X-154431Y142393D01*
X-153460Y145301D01*
X-153456Y145335D01*
X-153441Y145379D01*
X-152949Y148406D01*
X-152950Y148439D01*
X-152943Y148486D01*
X-152943Y151552D01*
X-152949Y151585D01*
X-152949Y151632D01*
X-153441Y154658D01*
X-153453Y154690D01*
X-153460Y154736D01*
X-154431Y157645D01*
X-154444Y157668D01*
X-154450Y157693D01*
X-154457Y157702D01*
X-154463Y157719D01*
X-155887Y160434D01*
X-155909Y160460D01*
X-155930Y160502D01*
X-157772Y162953D01*
X-157798Y162975D01*
X-157826Y163013D01*
X-160037Y165137D01*
X-160066Y165155D01*
X-160099Y165188D01*
X-162623Y166930D01*
X-162649Y166941D01*
X-162672Y166959D01*
X-162740Y166980D01*
X-162806Y167008D01*
X-162834Y167008D01*
X-162862Y167016D01*
X-162933Y167008D01*
X-163004Y167008D01*
X-163031Y166997D01*
X-163060Y166994D01*
X-163122Y166959D01*
X-163188Y166931D01*
X-163208Y166910D01*
X-163233Y166896D01*
X-163297Y166819D01*
X-163326Y166789D01*
X-163330Y166778D01*
X-163339Y166768D01*
X-172839Y150268D01*
X-172863Y150195D01*
X-172894Y150124D01*
X-172895Y150101D01*
X-172902Y150079D01*
X-172896Y150003D01*
X-172897Y149926D01*
X-172888Y149901D01*
X-172886Y149881D01*
X-172866Y149841D01*
X-172846Y149789D01*
X-172845Y149784D01*
X-172844Y149782D01*
X-172839Y149770D01*
X-163339Y133270D01*
X-163320Y133248D01*
X-163308Y133222D01*
X-163255Y133174D01*
X-163207Y133121D01*
X-163181Y133108D01*
X-163160Y133089D01*
X-163092Y133065D01*
X-163028Y133035D01*
X-162999Y133033D01*
X-162972Y133024D01*
X-162901Y133029D01*
G37*
G36*
X87470Y-465D02*
X87470Y-465D01*
X87547Y-456D01*
X87567Y-445D01*
X87589Y-441D01*
X87653Y-397D01*
X87721Y-359D01*
X87736Y-340D01*
X87753Y-328D01*
X87777Y-291D01*
X87826Y-230D01*
X97326Y16270D01*
X97335Y16297D01*
X97352Y16320D01*
X97367Y16391D01*
X97389Y16458D01*
X97387Y16487D01*
X97393Y16515D01*
X97379Y16585D01*
X97374Y16657D01*
X97360Y16682D01*
X97355Y16710D01*
X97315Y16769D01*
X97282Y16833D01*
X97260Y16851D01*
X97244Y16875D01*
X97161Y16933D01*
X97128Y16959D01*
X97118Y16962D01*
X97107Y16970D01*
X94341Y18279D01*
X94308Y18287D01*
X94266Y18307D01*
X91326Y19155D01*
X91292Y19157D01*
X91247Y19171D01*
X88209Y19536D01*
X88175Y19533D01*
X88129Y19539D01*
X85072Y19412D01*
X85039Y19404D01*
X84992Y19402D01*
X81995Y18787D01*
X81964Y18773D01*
X81918Y18764D01*
X79058Y17676D01*
X79029Y17658D01*
X78985Y17641D01*
X76337Y16108D01*
X76312Y16086D01*
X76271Y16062D01*
X73903Y14124D01*
X73882Y14098D01*
X73846Y14069D01*
X71819Y11776D01*
X71802Y11747D01*
X71771Y11712D01*
X70139Y9124D01*
X70127Y9092D01*
X70101Y9052D01*
X68906Y6236D01*
X68899Y6203D01*
X68896Y6196D01*
X68892Y6189D01*
X68891Y6184D01*
X68880Y6160D01*
X68151Y3188D01*
X68150Y3154D01*
X68139Y3109D01*
X67896Y58D01*
X67900Y30D01*
X67895Y2D01*
X67911Y-68D01*
X67920Y-139D01*
X67934Y-164D01*
X67941Y-191D01*
X67983Y-249D01*
X68019Y-311D01*
X68042Y-329D01*
X68059Y-351D01*
X68120Y-388D01*
X68178Y-431D01*
X68205Y-438D01*
X68230Y-453D01*
X68330Y-470D01*
X68371Y-480D01*
X68381Y-478D01*
X68394Y-481D01*
X87394Y-481D01*
X87470Y-465D01*
G37*
G36*
X-66778Y-475D02*
X-66778Y-475D01*
X-66750Y-477D01*
X-66682Y-455D01*
X-66611Y-441D01*
X-66588Y-425D01*
X-66561Y-416D01*
X-66507Y-369D01*
X-66447Y-328D01*
X-66432Y-305D01*
X-66411Y-286D01*
X-66379Y-221D01*
X-66340Y-161D01*
X-66336Y-133D01*
X-66323Y-107D01*
X-66314Y-6D01*
X-66307Y35D01*
X-66310Y45D01*
X-66309Y58D01*
X-66551Y3109D01*
X-66561Y3141D01*
X-66564Y3188D01*
X-67293Y6160D01*
X-67307Y6190D01*
X-67318Y6236D01*
X-68514Y9052D01*
X-68533Y9080D01*
X-68551Y9124D01*
X-70184Y11712D01*
X-70207Y11736D01*
X-70232Y11776D01*
X-72258Y14069D01*
X-72285Y14089D01*
X-72316Y14124D01*
X-74684Y16062D01*
X-74714Y16078D01*
X-74750Y16108D01*
X-77398Y17641D01*
X-77430Y17652D01*
X-77470Y17676D01*
X-80330Y18764D01*
X-80364Y18770D01*
X-80407Y18787D01*
X-83405Y19402D01*
X-83439Y19402D01*
X-83484Y19412D01*
X-86542Y19539D01*
X-86575Y19534D01*
X-86622Y19536D01*
X-89660Y19171D01*
X-89692Y19160D01*
X-89739Y19155D01*
X-92679Y18307D01*
X-92709Y18291D01*
X-92754Y18279D01*
X-95520Y16970D01*
X-95543Y16953D01*
X-95570Y16943D01*
X-95622Y16894D01*
X-95679Y16851D01*
X-95693Y16826D01*
X-95714Y16807D01*
X-95743Y16741D01*
X-95779Y16679D01*
X-95783Y16651D01*
X-95794Y16624D01*
X-95795Y16553D01*
X-95804Y16482D01*
X-95796Y16454D01*
X-95797Y16426D01*
X-95762Y16331D01*
X-95750Y16290D01*
X-95743Y16282D01*
X-95739Y16270D01*
X-86239Y-230D01*
X-86187Y-289D01*
X-86141Y-351D01*
X-86122Y-363D01*
X-86107Y-379D01*
X-86037Y-413D01*
X-85970Y-453D01*
X-85946Y-457D01*
X-85928Y-465D01*
X-85883Y-467D01*
X-85806Y-481D01*
X-66806Y-481D01*
X-66778Y-475D01*
G37*
D10*
X-60681Y57944D03*
X-45681Y57944D03*
D11*
X101600Y146844D03*
D12*
X38663Y65088D03*
X21663Y65088D03*
D13*
X-97631Y172244D03*
X-97631Y146844D03*
X-97631Y121444D03*
D14*
X165994Y150019D03*
X83394Y6919D03*
X-81806Y6919D03*
X-164406Y150019D03*
X124694Y221519D03*
X124694Y78519D03*
X794Y6919D03*
X-123106Y78519D03*
X-123106Y221519D03*
D15*
X-21619Y265813D03*
X-13619Y265813D03*
X-5619Y265813D03*
X2381Y265813D03*
X10381Y265813D03*
X18381Y265813D03*
X26381Y265813D03*
X26381Y289813D03*
X18381Y289813D03*
X10381Y289813D03*
X2381Y289813D03*
X-5619Y289813D03*
X-13619Y289813D03*
X-21619Y289813D03*
M02*
