G04 EAGLE Gerber RS-274X export*
G75*
%MOMM*%
%FSLAX34Y34*%
%LPD*%
%INTop Copper*%
%IPPOS*%
%AMOC8*
5,1,8,0,0,1.08239X$1,22.5*%
G01*
%ADD10R,1.000000X1.100000*%
%ADD11R,0.800000X0.800000*%
%ADD12P,1.649562X8X22.500000*%
%ADD13C,1.524000*%
%ADD14R,0.350000X0.500000*%
%ADD15R,1.016000X0.508000*%
%ADD16R,1.230000X1.800000*%
%ADD17R,1.100000X1.000000*%
%ADD18C,1.000000*%
%ADD19C,0.756400*%
%ADD20C,0.609600*%
%ADD21C,0.406400*%
%ADD22C,0.304800*%
%ADD23C,0.254000*%

G36*
X277709Y196375D02*
X277709Y196375D01*
X277737Y196373D01*
X277806Y196395D01*
X277876Y196409D01*
X277900Y196425D01*
X277926Y196434D01*
X277981Y196481D01*
X278040Y196522D01*
X278055Y196545D01*
X278077Y196564D01*
X278108Y196629D01*
X278147Y196689D01*
X278152Y196717D01*
X278164Y196743D01*
X278173Y196844D01*
X278180Y196885D01*
X278178Y196895D01*
X278179Y196908D01*
X278122Y197623D01*
X317558Y197623D01*
X317738Y197641D01*
X317920Y197656D01*
X317939Y197661D01*
X317959Y197663D01*
X318132Y197717D01*
X318307Y197766D01*
X318325Y197776D01*
X318344Y197782D01*
X318503Y197868D01*
X318665Y197951D01*
X318680Y197964D01*
X318698Y197973D01*
X318836Y198089D01*
X318979Y198203D01*
X318992Y198218D01*
X319007Y198231D01*
X319120Y198372D01*
X319237Y198512D01*
X319247Y198529D01*
X319259Y198545D01*
X319343Y198705D01*
X319430Y198865D01*
X319437Y198886D01*
X319445Y198902D01*
X319466Y198976D01*
X319533Y199181D01*
X319904Y200727D01*
X319910Y200769D01*
X319954Y201042D01*
X320022Y201900D01*
X320062Y201949D01*
X320126Y202065D01*
X320197Y202178D01*
X320222Y202242D01*
X320255Y202302D01*
X320311Y202472D01*
X320342Y202553D01*
X320347Y202582D01*
X320358Y202618D01*
X320465Y203061D01*
X320474Y203129D01*
X320492Y203196D01*
X320502Y203328D01*
X320520Y203460D01*
X320515Y203529D01*
X320520Y203598D01*
X320503Y203729D01*
X320495Y203862D01*
X320820Y204649D01*
X320833Y204690D01*
X320919Y204952D01*
X321120Y205790D01*
X321167Y205831D01*
X321249Y205937D01*
X321336Y206036D01*
X321371Y206096D01*
X321413Y206150D01*
X321495Y206310D01*
X321538Y206385D01*
X321548Y206413D01*
X321565Y206446D01*
X321739Y206867D01*
X321759Y206933D01*
X321787Y206996D01*
X321817Y207125D01*
X321856Y207252D01*
X321862Y207321D01*
X321878Y207388D01*
X321881Y207521D01*
X321894Y207653D01*
X321894Y207654D01*
X322339Y208380D01*
X322358Y208419D01*
X322483Y208664D01*
X322813Y209460D01*
X322867Y209493D01*
X322963Y209585D01*
X323065Y209669D01*
X323109Y209723D01*
X323159Y209770D01*
X323265Y209915D01*
X323319Y209982D01*
X323333Y210008D01*
X323355Y210038D01*
X323593Y210427D01*
X323623Y210489D01*
X323661Y210546D01*
X323711Y210670D01*
X323768Y210789D01*
X323786Y210856D01*
X323811Y210920D01*
X323836Y211051D01*
X323869Y211179D01*
X323869Y211180D01*
X324422Y211827D01*
X324446Y211862D01*
X324609Y212085D01*
X325059Y212819D01*
X325117Y212844D01*
X325227Y212919D01*
X325341Y212987D01*
X325393Y213033D01*
X325449Y213072D01*
X325577Y213198D01*
X325641Y213256D01*
X325658Y213279D01*
X325685Y213306D01*
X325981Y213653D01*
X326020Y213709D01*
X326067Y213760D01*
X326135Y213874D01*
X326211Y213983D01*
X326238Y214047D01*
X326274Y214106D01*
X326318Y214231D01*
X326371Y214353D01*
X327019Y214906D01*
X327049Y214937D01*
X327244Y215131D01*
X327804Y215786D01*
X327865Y215802D01*
X327985Y215859D01*
X328108Y215908D01*
X328166Y215945D01*
X328228Y215975D01*
X328373Y216080D01*
X328446Y216127D01*
X328467Y216147D01*
X328497Y216169D01*
X328844Y216465D01*
X328892Y216515D01*
X328946Y216558D01*
X329031Y216660D01*
X329123Y216756D01*
X329160Y216814D01*
X329204Y216867D01*
X329268Y216984D01*
X329339Y217096D01*
X329364Y217160D01*
X329397Y217221D01*
X329427Y217311D01*
X329433Y217324D01*
X329442Y217358D01*
X329453Y217390D01*
X329484Y217471D01*
X329489Y217500D01*
X329500Y217536D01*
X329508Y217569D01*
X329518Y217642D01*
X329537Y217712D01*
X329549Y217852D01*
X329551Y217868D01*
X329551Y217881D01*
X329551Y217882D01*
X329563Y217968D01*
X329561Y218001D01*
X329564Y218043D01*
X329564Y227749D01*
X329562Y227776D01*
X329564Y227803D01*
X329542Y227977D01*
X329524Y228150D01*
X329517Y228176D01*
X329513Y228202D01*
X329458Y228368D01*
X329406Y228535D01*
X329393Y228559D01*
X329385Y228584D01*
X329298Y228735D01*
X329214Y228889D01*
X329197Y228909D01*
X329184Y228933D01*
X328969Y229186D01*
X328230Y229925D01*
X327306Y232155D01*
X327306Y234570D01*
X327707Y235538D01*
X327711Y235551D01*
X327717Y235563D01*
X327769Y235743D01*
X327824Y235923D01*
X327825Y235937D01*
X327829Y235950D01*
X327844Y236138D01*
X327862Y236324D01*
X327861Y236337D01*
X327862Y236351D01*
X327840Y236537D01*
X327820Y236725D01*
X327816Y236737D01*
X327815Y236751D01*
X327757Y236929D01*
X327701Y237109D01*
X327694Y237121D01*
X327690Y237133D01*
X327598Y237297D01*
X327507Y237462D01*
X327499Y237472D01*
X327492Y237484D01*
X327369Y237627D01*
X327248Y237770D01*
X327238Y237779D01*
X327229Y237789D01*
X327080Y237904D01*
X326933Y238021D01*
X326921Y238027D01*
X326911Y238036D01*
X326743Y238119D01*
X326575Y238205D01*
X326562Y238209D01*
X326550Y238215D01*
X326368Y238264D01*
X326188Y238315D01*
X326174Y238316D01*
X326161Y238319D01*
X325831Y238347D01*
X319296Y238347D01*
X319265Y238343D01*
X319233Y238346D01*
X319064Y238323D01*
X318895Y238307D01*
X318865Y238297D01*
X318834Y238293D01*
X318518Y238192D01*
X317120Y237613D01*
X314705Y237613D01*
X312475Y238536D01*
X310768Y240244D01*
X309844Y242474D01*
X309844Y244888D01*
X310768Y247119D01*
X312475Y248826D01*
X314705Y249750D01*
X317120Y249750D01*
X318518Y249171D01*
X318548Y249162D01*
X318576Y249148D01*
X318741Y249103D01*
X318904Y249054D01*
X318935Y249051D01*
X318965Y249043D01*
X319296Y249016D01*
X328999Y249016D01*
X329008Y249017D01*
X329017Y249016D01*
X329207Y249037D01*
X329400Y249056D01*
X329408Y249059D01*
X329417Y249059D01*
X329601Y249118D01*
X329784Y249174D01*
X329792Y249178D01*
X329801Y249181D01*
X329970Y249275D01*
X330139Y249366D01*
X330145Y249371D01*
X330153Y249376D01*
X330301Y249501D01*
X330448Y249624D01*
X330453Y249630D01*
X330460Y249636D01*
X330580Y249788D01*
X330700Y249937D01*
X330704Y249945D01*
X330710Y249952D01*
X330798Y250125D01*
X330886Y250295D01*
X330888Y250303D01*
X330892Y250311D01*
X330944Y250497D01*
X330997Y250682D01*
X330998Y250690D01*
X331000Y250699D01*
X331014Y250891D01*
X331030Y251083D01*
X331029Y251092D01*
X331030Y251101D01*
X331005Y251293D01*
X330983Y251483D01*
X330980Y251491D01*
X330979Y251500D01*
X330918Y251681D01*
X330858Y251865D01*
X330854Y251873D01*
X330851Y251882D01*
X330755Y252048D01*
X330660Y252216D01*
X330654Y252223D01*
X330650Y252231D01*
X330625Y252260D01*
X330625Y262188D01*
X330982Y262545D01*
X330999Y262566D01*
X331019Y262583D01*
X331126Y262721D01*
X331237Y262857D01*
X331250Y262880D01*
X331266Y262901D01*
X331344Y263058D01*
X331426Y263212D01*
X331434Y263238D01*
X331445Y263262D01*
X331491Y263431D01*
X331541Y263598D01*
X331543Y263625D01*
X331550Y263651D01*
X331577Y263981D01*
X331577Y274568D01*
X331575Y274586D01*
X331577Y274603D01*
X331555Y274786D01*
X331537Y274969D01*
X331532Y274986D01*
X331530Y275003D01*
X331473Y275178D01*
X331419Y275353D01*
X331411Y275369D01*
X331405Y275386D01*
X331315Y275546D01*
X331227Y275707D01*
X331216Y275721D01*
X331207Y275737D01*
X331087Y275876D01*
X330970Y276017D01*
X330956Y276028D01*
X330944Y276041D01*
X330799Y276154D01*
X330656Y276269D01*
X330640Y276277D01*
X330626Y276288D01*
X330461Y276370D01*
X330299Y276455D01*
X330282Y276459D01*
X330265Y276467D01*
X330087Y276515D01*
X330033Y276531D01*
X328625Y277939D01*
X328625Y290833D01*
X329965Y292173D01*
X341859Y292173D01*
X342976Y291056D01*
X342989Y291045D01*
X343001Y291031D01*
X343145Y290917D01*
X343287Y290801D01*
X343303Y290793D01*
X343317Y290782D01*
X343481Y290698D01*
X343643Y290612D01*
X343660Y290607D01*
X343676Y290599D01*
X343853Y290550D01*
X344029Y290498D01*
X344046Y290496D01*
X344064Y290491D01*
X344247Y290478D01*
X344430Y290461D01*
X344447Y290463D01*
X344465Y290462D01*
X344647Y290485D01*
X344830Y290505D01*
X344847Y290510D01*
X344865Y290512D01*
X345038Y290571D01*
X345214Y290626D01*
X345229Y290635D01*
X345246Y290641D01*
X345406Y290732D01*
X345566Y290821D01*
X345580Y290832D01*
X345595Y290841D01*
X345848Y291056D01*
X346982Y292190D01*
X346999Y292211D01*
X347019Y292228D01*
X347126Y292366D01*
X347237Y292502D01*
X347250Y292525D01*
X347266Y292546D01*
X347344Y292703D01*
X347426Y292857D01*
X347434Y292883D01*
X347445Y292907D01*
X347491Y293076D01*
X347541Y293243D01*
X347543Y293270D01*
X347550Y293296D01*
X347577Y293626D01*
X347577Y294442D01*
X348389Y296403D01*
X350176Y298189D01*
X351023Y299036D01*
X351043Y299060D01*
X351066Y299081D01*
X351170Y299216D01*
X351278Y299348D01*
X351293Y299375D01*
X351312Y299400D01*
X351463Y299695D01*
X352043Y301094D01*
X353750Y302801D01*
X355980Y303725D01*
X358395Y303725D01*
X360625Y302801D01*
X362332Y301094D01*
X363256Y298863D01*
X363256Y296449D01*
X362332Y294219D01*
X360794Y292680D01*
X360777Y292659D01*
X360756Y292642D01*
X360649Y292504D01*
X360539Y292368D01*
X360526Y292345D01*
X360510Y292324D01*
X360432Y292167D01*
X360350Y292013D01*
X360342Y291987D01*
X360330Y291963D01*
X360285Y291794D01*
X360235Y291627D01*
X360233Y291600D01*
X360226Y291574D01*
X360199Y291244D01*
X360199Y277939D01*
X358859Y276599D01*
X346965Y276599D01*
X345848Y277716D01*
X345835Y277727D01*
X345823Y277740D01*
X345679Y277854D01*
X345537Y277971D01*
X345521Y277979D01*
X345507Y277990D01*
X345343Y278073D01*
X345181Y278159D01*
X345164Y278164D01*
X345148Y278172D01*
X344972Y278222D01*
X344795Y278274D01*
X344777Y278276D01*
X344760Y278280D01*
X344578Y278294D01*
X344394Y278311D01*
X344376Y278309D01*
X344359Y278310D01*
X344177Y278287D01*
X343994Y278267D01*
X343977Y278262D01*
X343959Y278260D01*
X343786Y278201D01*
X343610Y278146D01*
X343594Y278137D01*
X343578Y278131D01*
X343419Y278040D01*
X343258Y277951D01*
X343244Y277939D01*
X343229Y277930D01*
X342976Y277716D01*
X342842Y277582D01*
X342825Y277561D01*
X342804Y277543D01*
X342697Y277406D01*
X342587Y277270D01*
X342574Y277247D01*
X342558Y277225D01*
X342480Y277069D01*
X342398Y276915D01*
X342390Y276889D01*
X342378Y276865D01*
X342333Y276696D01*
X342283Y276529D01*
X342281Y276502D01*
X342274Y276476D01*
X342247Y276145D01*
X342247Y263981D01*
X342249Y263955D01*
X342247Y263928D01*
X342269Y263754D01*
X342287Y263581D01*
X342294Y263555D01*
X342298Y263529D01*
X342353Y263363D01*
X342405Y263196D01*
X342417Y263172D01*
X342426Y263147D01*
X342513Y262995D01*
X342596Y262842D01*
X342613Y262821D01*
X342627Y262798D01*
X342842Y262545D01*
X342976Y262411D01*
X342989Y262400D01*
X343001Y262386D01*
X343145Y262272D01*
X343287Y262156D01*
X343303Y262148D01*
X343317Y262137D01*
X343481Y262053D01*
X343643Y261967D01*
X343660Y261962D01*
X343676Y261954D01*
X343853Y261905D01*
X344029Y261853D01*
X344046Y261851D01*
X344064Y261846D01*
X344247Y261833D01*
X344430Y261816D01*
X344447Y261818D01*
X344465Y261817D01*
X344647Y261840D01*
X344830Y261860D01*
X344847Y261865D01*
X344865Y261867D01*
X345038Y261925D01*
X345214Y261981D01*
X345229Y261990D01*
X345246Y261995D01*
X345406Y262087D01*
X345566Y262176D01*
X345580Y262187D01*
X345595Y262196D01*
X345848Y262411D01*
X346965Y263528D01*
X356859Y263528D01*
X358199Y262188D01*
X358199Y252294D01*
X357327Y251422D01*
X357307Y251398D01*
X357284Y251377D01*
X357180Y251242D01*
X357072Y251110D01*
X357057Y251083D01*
X357038Y251058D01*
X356887Y250763D01*
X356434Y249671D01*
X349065Y242301D01*
X349045Y242277D01*
X349021Y242257D01*
X348918Y242122D01*
X348809Y241990D01*
X348795Y241962D01*
X348776Y241937D01*
X348624Y241642D01*
X348045Y240244D01*
X346338Y238536D01*
X344107Y237613D01*
X341561Y237613D01*
X341392Y237627D01*
X341202Y237645D01*
X341192Y237644D01*
X341183Y237645D01*
X340993Y237624D01*
X340801Y237604D01*
X340792Y237601D01*
X340783Y237600D01*
X340601Y237542D01*
X340417Y237484D01*
X340408Y237480D01*
X340400Y237477D01*
X340231Y237383D01*
X340063Y237291D01*
X340056Y237285D01*
X340048Y237280D01*
X339901Y237154D01*
X339755Y237032D01*
X339749Y237025D01*
X339742Y237019D01*
X339624Y236867D01*
X339504Y236717D01*
X339500Y236709D01*
X339494Y236702D01*
X339407Y236528D01*
X339320Y236359D01*
X339318Y236350D01*
X339313Y236342D01*
X339262Y236156D01*
X339210Y235972D01*
X339210Y235963D01*
X339207Y235953D01*
X339194Y235762D01*
X339179Y235570D01*
X339180Y235561D01*
X339179Y235552D01*
X339204Y235362D01*
X339227Y235171D01*
X339230Y235162D01*
X339232Y235153D01*
X339333Y234837D01*
X339444Y234570D01*
X339444Y232155D01*
X338520Y229925D01*
X337781Y229186D01*
X337764Y229165D01*
X337743Y229148D01*
X337636Y229010D01*
X337526Y228874D01*
X337513Y228851D01*
X337497Y228829D01*
X337419Y228672D01*
X337337Y228518D01*
X337329Y228493D01*
X337317Y228469D01*
X337272Y228299D01*
X337222Y228133D01*
X337220Y228106D01*
X337213Y228080D01*
X337186Y227749D01*
X337186Y223953D01*
X337195Y223864D01*
X337193Y223775D01*
X337214Y223664D01*
X337226Y223552D01*
X337252Y223467D01*
X337268Y223380D01*
X337311Y223275D01*
X337344Y223167D01*
X337386Y223089D01*
X337420Y223006D01*
X337482Y222912D01*
X337536Y222813D01*
X337592Y222745D01*
X337641Y222671D01*
X337721Y222590D01*
X337793Y222504D01*
X337863Y222448D01*
X337925Y222385D01*
X338019Y222322D01*
X338107Y222251D01*
X338186Y222210D01*
X338260Y222161D01*
X338364Y222118D01*
X338464Y222066D01*
X338550Y222041D01*
X338632Y222007D01*
X338743Y221986D01*
X338851Y221955D01*
X338940Y221947D01*
X339027Y221930D01*
X339140Y221931D01*
X339253Y221922D01*
X339341Y221932D01*
X339430Y221933D01*
X339540Y221955D01*
X339652Y221969D01*
X339737Y221996D01*
X339824Y222014D01*
X339928Y222058D01*
X340035Y222093D01*
X340072Y222114D01*
X341108Y222196D01*
X341151Y222203D01*
X341423Y222246D01*
X342261Y222447D01*
X342320Y222423D01*
X342450Y222399D01*
X342579Y222366D01*
X342647Y222362D01*
X342715Y222349D01*
X342894Y222349D01*
X342981Y222344D01*
X343010Y222348D01*
X343047Y222348D01*
X343502Y222384D01*
X343570Y222396D01*
X343639Y222399D01*
X343768Y222432D01*
X343898Y222455D01*
X343962Y222481D01*
X344029Y222497D01*
X344149Y222554D01*
X344273Y222603D01*
X345122Y222537D01*
X345166Y222538D01*
X345441Y222537D01*
X346299Y222604D01*
X346354Y222572D01*
X346479Y222527D01*
X346601Y222475D01*
X346668Y222460D01*
X346733Y222437D01*
X346910Y222408D01*
X346994Y222390D01*
X347024Y222390D01*
X347060Y222384D01*
X347515Y222348D01*
X347584Y222350D01*
X347653Y222342D01*
X347785Y222354D01*
X347918Y222357D01*
X347985Y222372D01*
X348054Y222378D01*
X348181Y222415D01*
X348311Y222444D01*
X349139Y222246D01*
X349181Y222240D01*
X349454Y222196D01*
X350313Y222128D01*
X350361Y222088D01*
X350478Y222024D01*
X350590Y221953D01*
X350654Y221928D01*
X350715Y221895D01*
X350885Y221839D01*
X350966Y221808D01*
X350995Y221803D01*
X351030Y221792D01*
X351474Y221685D01*
X351542Y221676D01*
X351608Y221658D01*
X351741Y221648D01*
X351873Y221630D01*
X351941Y221635D01*
X352010Y221630D01*
X352142Y221647D01*
X352274Y221655D01*
X352275Y221655D01*
X353061Y221330D01*
X353102Y221317D01*
X353365Y221231D01*
X354202Y221030D01*
X354244Y220982D01*
X354349Y220901D01*
X354449Y220814D01*
X354508Y220779D01*
X354563Y220737D01*
X354722Y220655D01*
X354797Y220612D01*
X354825Y220602D01*
X354858Y220585D01*
X355280Y220411D01*
X355346Y220391D01*
X355408Y220363D01*
X355538Y220333D01*
X355665Y220294D01*
X355734Y220288D01*
X355801Y220272D01*
X355934Y220269D01*
X356066Y220256D01*
X356792Y219811D01*
X356831Y219792D01*
X357076Y219667D01*
X357872Y219337D01*
X357906Y219283D01*
X357997Y219187D01*
X358082Y219085D01*
X358135Y219041D01*
X358183Y218991D01*
X358327Y218885D01*
X358394Y218831D01*
X358420Y218817D01*
X358450Y218795D01*
X358839Y218557D01*
X358901Y218527D01*
X358959Y218489D01*
X359082Y218439D01*
X359202Y218382D01*
X359268Y218364D01*
X359332Y218339D01*
X359463Y218314D01*
X359592Y218281D01*
X360239Y217728D01*
X360275Y217704D01*
X360497Y217541D01*
X361232Y217091D01*
X361257Y217033D01*
X361332Y216923D01*
X361399Y216809D01*
X361445Y216757D01*
X361484Y216701D01*
X361611Y216573D01*
X361668Y216509D01*
X361692Y216492D01*
X361718Y216465D01*
X362065Y216169D01*
X362122Y216130D01*
X362173Y216083D01*
X362287Y216015D01*
X362396Y215939D01*
X362459Y215912D01*
X362518Y215876D01*
X362643Y215832D01*
X362765Y215779D01*
X363318Y215131D01*
X363350Y215101D01*
X363544Y214906D01*
X364199Y214346D01*
X364214Y214285D01*
X364271Y214165D01*
X364320Y214042D01*
X364358Y213984D01*
X364387Y213922D01*
X364492Y213777D01*
X364539Y213704D01*
X364560Y213683D01*
X364581Y213653D01*
X364878Y213306D01*
X364927Y213258D01*
X364971Y213204D01*
X365072Y213119D01*
X365168Y213027D01*
X365226Y212990D01*
X365279Y212946D01*
X365396Y212882D01*
X365508Y212811D01*
X365953Y212085D01*
X365979Y212051D01*
X366141Y211827D01*
X366700Y211172D01*
X366706Y211109D01*
X366743Y210982D01*
X366772Y210852D01*
X366800Y210789D01*
X366820Y210723D01*
X366901Y210563D01*
X366936Y210484D01*
X366953Y210460D01*
X366969Y210427D01*
X367208Y210038D01*
X367249Y209983D01*
X367284Y209923D01*
X367371Y209823D01*
X367451Y209717D01*
X367503Y209671D01*
X367548Y209619D01*
X367653Y209538D01*
X367753Y209451D01*
X367753Y209450D01*
X368079Y208664D01*
X368099Y208627D01*
X368224Y208380D01*
X368674Y207645D01*
X368670Y207582D01*
X368687Y207450D01*
X368695Y207318D01*
X368713Y207251D01*
X368722Y207183D01*
X368777Y207013D01*
X368799Y206929D01*
X368812Y206903D01*
X368823Y206867D01*
X368998Y206446D01*
X369031Y206385D01*
X369055Y206320D01*
X369125Y206208D01*
X369188Y206091D01*
X369232Y206038D01*
X369269Y205979D01*
X369360Y205883D01*
X369445Y205780D01*
X369644Y204952D01*
X369657Y204912D01*
X369742Y204649D01*
X370072Y203853D01*
X370058Y203792D01*
X370054Y203659D01*
X370041Y203527D01*
X370049Y203458D01*
X370047Y203389D01*
X370074Y203212D01*
X370083Y203126D01*
X370092Y203098D01*
X370098Y203061D01*
X370204Y202618D01*
X370227Y202552D01*
X370241Y202485D01*
X370293Y202363D01*
X370336Y202237D01*
X370372Y202178D01*
X370399Y202114D01*
X370474Y202005D01*
X370541Y201891D01*
X370541Y201890D01*
X370608Y201042D01*
X370616Y200999D01*
X370658Y200727D01*
X371029Y199181D01*
X371089Y199009D01*
X371145Y198837D01*
X371155Y198819D01*
X371162Y198800D01*
X371254Y198644D01*
X371343Y198486D01*
X371356Y198471D01*
X371366Y198454D01*
X371488Y198319D01*
X371606Y198181D01*
X371622Y198169D01*
X371635Y198154D01*
X371781Y198046D01*
X371924Y197934D01*
X371942Y197926D01*
X371958Y197914D01*
X372122Y197836D01*
X372285Y197755D01*
X372304Y197750D01*
X372322Y197741D01*
X372498Y197698D01*
X372674Y197651D01*
X372696Y197649D01*
X372713Y197644D01*
X372790Y197641D01*
X373004Y197623D01*
X412440Y197623D01*
X412384Y196908D01*
X412387Y196880D01*
X412382Y196852D01*
X412399Y196782D01*
X412408Y196711D01*
X412422Y196686D01*
X412428Y196659D01*
X412471Y196601D01*
X412507Y196539D01*
X412529Y196521D01*
X412546Y196499D01*
X412608Y196462D01*
X412665Y196419D01*
X412693Y196412D01*
X412717Y196397D01*
X412817Y196380D01*
X412858Y196370D01*
X412869Y196372D01*
X412881Y196370D01*
X431881Y196370D01*
X431957Y196385D01*
X432035Y196394D01*
X432054Y196405D01*
X432076Y196409D01*
X432140Y196453D01*
X432208Y196491D01*
X432224Y196511D01*
X432240Y196522D01*
X432264Y196559D01*
X432314Y196620D01*
X441814Y213120D01*
X441823Y213147D01*
X441839Y213170D01*
X441854Y213241D01*
X441877Y213308D01*
X441875Y213337D01*
X441881Y213365D01*
X441867Y213435D01*
X441861Y213507D01*
X441848Y213532D01*
X441842Y213560D01*
X441802Y213619D01*
X441769Y213683D01*
X441747Y213701D01*
X441731Y213725D01*
X441648Y213783D01*
X441616Y213809D01*
X441606Y213812D01*
X441595Y213820D01*
X440968Y214117D01*
X459470Y246165D01*
X459548Y246338D01*
X459630Y246516D01*
X459632Y246524D01*
X459636Y246532D01*
X459679Y246719D01*
X459724Y246907D01*
X459724Y246916D01*
X459726Y246925D01*
X459731Y247117D01*
X459738Y247310D01*
X459737Y247318D01*
X459737Y247327D01*
X459704Y247515D01*
X459673Y247707D01*
X459670Y247715D01*
X459668Y247724D01*
X459600Y247900D01*
X459531Y248083D01*
X459526Y248091D01*
X459523Y248099D01*
X459419Y248262D01*
X459317Y248425D01*
X459311Y248432D01*
X459306Y248438D01*
X459270Y248476D01*
X459093Y248669D01*
X457903Y249774D01*
X457850Y249814D01*
X457666Y249963D01*
X456933Y250463D01*
X456914Y250512D01*
X456848Y250618D01*
X456790Y250729D01*
X456741Y250789D01*
X456701Y250853D01*
X456591Y250974D01*
X456535Y251041D01*
X456508Y251064D01*
X456477Y251098D01*
X456192Y251363D01*
X456131Y251409D01*
X456076Y251462D01*
X455971Y251530D01*
X455871Y251606D01*
X455802Y251639D01*
X455738Y251681D01*
X455622Y251727D01*
X455521Y251775D01*
X454972Y252464D01*
X454925Y252512D01*
X454765Y252687D01*
X454115Y253291D01*
X454104Y253342D01*
X454054Y253457D01*
X454013Y253575D01*
X453974Y253641D01*
X453943Y253711D01*
X453853Y253846D01*
X453808Y253922D01*
X453784Y253948D01*
X453758Y253987D01*
X453516Y254290D01*
X453463Y254345D01*
X453417Y254406D01*
X453323Y254489D01*
X453235Y254579D01*
X453172Y254622D01*
X453115Y254673D01*
X453007Y254735D01*
X452914Y254798D01*
X452474Y255562D01*
X452435Y255616D01*
X452420Y255639D01*
X452404Y255667D01*
X452390Y255683D01*
X452303Y255812D01*
X451750Y256506D01*
X451747Y256559D01*
X451714Y256679D01*
X451691Y256803D01*
X451663Y256874D01*
X451643Y256948D01*
X451573Y257095D01*
X451541Y257176D01*
X451521Y257206D01*
X451501Y257248D01*
X451307Y257584D01*
X451262Y257646D01*
X451226Y257713D01*
X451145Y257809D01*
X451072Y257911D01*
X451016Y257963D01*
X450967Y258022D01*
X450869Y258100D01*
X450787Y258176D01*
X450466Y258997D01*
X450435Y259056D01*
X450334Y259270D01*
X449891Y260039D01*
X449895Y260091D01*
X449881Y260215D01*
X449877Y260340D01*
X449859Y260415D01*
X449851Y260491D01*
X449804Y260647D01*
X449783Y260732D01*
X449768Y260764D01*
X449755Y260808D01*
X449613Y261170D01*
X449578Y261238D01*
X449552Y261310D01*
X449487Y261417D01*
X449430Y261529D01*
X449382Y261589D01*
X449342Y261654D01*
X449257Y261746D01*
X449188Y261833D01*
X448992Y262692D01*
X448970Y262756D01*
X448902Y262982D01*
X448578Y263809D01*
X448591Y263859D01*
X448596Y263984D01*
X448610Y264109D01*
X448603Y264185D01*
X448606Y264262D01*
X448583Y264423D01*
X448576Y264510D01*
X448566Y264545D01*
X448559Y264590D01*
X448473Y264969D01*
X448448Y265042D01*
X448433Y265117D01*
X448385Y265232D01*
X448345Y265351D01*
X448307Y265417D01*
X448277Y265488D01*
X448206Y265591D01*
X448151Y265688D01*
X448085Y266566D01*
X448074Y266632D01*
X448040Y266867D01*
X447772Y268042D01*
X447712Y268222D01*
X447654Y268400D01*
X447648Y268411D01*
X447644Y268424D01*
X447550Y268587D01*
X447458Y268752D01*
X447450Y268762D01*
X447443Y268773D01*
X447319Y268914D01*
X447196Y269058D01*
X447186Y269066D01*
X447178Y269075D01*
X447027Y269190D01*
X446879Y269306D01*
X446868Y269312D01*
X446858Y269319D01*
X446688Y269402D01*
X446519Y269487D01*
X446507Y269490D01*
X446496Y269496D01*
X446313Y269543D01*
X446131Y269593D01*
X446118Y269594D01*
X446106Y269597D01*
X445916Y269608D01*
X445729Y269621D01*
X445717Y269619D01*
X445704Y269620D01*
X445517Y269593D01*
X445330Y269569D01*
X445317Y269564D01*
X445306Y269563D01*
X445246Y269541D01*
X445014Y269467D01*
X442883Y268584D01*
X440468Y268584D01*
X438238Y269508D01*
X436531Y271215D01*
X435607Y273446D01*
X435607Y275860D01*
X436531Y278090D01*
X438238Y279798D01*
X440468Y280721D01*
X442883Y280721D01*
X445113Y279798D01*
X445884Y279027D01*
X446027Y278910D01*
X446166Y278791D01*
X446182Y278783D01*
X446195Y278772D01*
X446358Y278686D01*
X446519Y278597D01*
X446536Y278591D01*
X446551Y278583D01*
X446727Y278531D01*
X446903Y278475D01*
X446920Y278473D01*
X446937Y278468D01*
X447120Y278452D01*
X447303Y278432D01*
X447320Y278433D01*
X447338Y278432D01*
X447521Y278452D01*
X447704Y278468D01*
X447721Y278473D01*
X447738Y278475D01*
X447913Y278531D01*
X448090Y278583D01*
X448105Y278591D01*
X448122Y278597D01*
X448283Y278686D01*
X448445Y278772D01*
X448459Y278783D01*
X448475Y278792D01*
X448615Y278911D01*
X448757Y279027D01*
X448768Y279041D01*
X448782Y279052D01*
X448896Y279196D01*
X449012Y279338D01*
X449020Y279354D01*
X449031Y279368D01*
X449053Y279411D01*
X449125Y279467D01*
X449175Y279525D01*
X449232Y279576D01*
X449306Y279677D01*
X449388Y279772D01*
X449426Y279838D01*
X449471Y279900D01*
X449543Y280046D01*
X449586Y280122D01*
X449597Y280156D01*
X449618Y280198D01*
X449760Y280559D01*
X449780Y280633D01*
X449810Y280703D01*
X449835Y280826D01*
X449869Y280947D01*
X449875Y281023D01*
X449890Y281098D01*
X449890Y281223D01*
X449899Y281335D01*
X450339Y282098D01*
X450367Y282160D01*
X450471Y282371D01*
X450796Y283197D01*
X450839Y283226D01*
X450928Y283314D01*
X451023Y283396D01*
X451070Y283456D01*
X451124Y283510D01*
X451217Y283644D01*
X451271Y283713D01*
X451287Y283745D01*
X451313Y283783D01*
X451507Y284120D01*
X451539Y284189D01*
X451579Y284254D01*
X451622Y284372D01*
X451673Y284486D01*
X451690Y284561D01*
X451717Y284633D01*
X451735Y284757D01*
X451760Y284865D01*
X452310Y285554D01*
X452346Y285610D01*
X452481Y285805D01*
X452925Y286573D01*
X452972Y286595D01*
X453073Y286670D01*
X453179Y286736D01*
X453235Y286789D01*
X453296Y286834D01*
X453408Y286953D01*
X453472Y287013D01*
X453492Y287042D01*
X453524Y287076D01*
X453766Y287379D01*
X453808Y287444D01*
X453857Y287502D01*
X453917Y287612D01*
X453985Y287718D01*
X454013Y287789D01*
X454050Y287856D01*
X454087Y287975D01*
X454128Y288079D01*
X454774Y288678D01*
X454818Y288729D01*
X454980Y288901D01*
X455534Y289595D01*
X455584Y289609D01*
X455694Y289668D01*
X455810Y289718D01*
X455872Y289761D01*
X455940Y289797D01*
X456068Y289898D01*
X456140Y289948D01*
X456165Y289974D01*
X456201Y290002D01*
X456486Y290266D01*
X456536Y290324D01*
X456594Y290374D01*
X456670Y290474D01*
X456752Y290568D01*
X456791Y290634D01*
X456837Y290695D01*
X456892Y290808D01*
X456947Y290905D01*
X457676Y291401D01*
X457728Y291444D01*
X457913Y291590D01*
X458564Y292193D01*
X458615Y292200D01*
X458734Y292242D01*
X458855Y292274D01*
X458923Y292308D01*
X458996Y292333D01*
X459138Y292414D01*
X459216Y292452D01*
X459244Y292474D01*
X459284Y292497D01*
X459605Y292716D01*
X459664Y292765D01*
X459728Y292806D01*
X459818Y292894D01*
X459914Y292974D01*
X459961Y293034D01*
X460016Y293087D01*
X460087Y293191D01*
X460157Y293278D01*
X460951Y293660D01*
X461008Y293695D01*
X461214Y293812D01*
X461947Y294311D01*
X461999Y294311D01*
X462123Y294334D01*
X462247Y294348D01*
X462320Y294371D01*
X462395Y294385D01*
X462547Y294444D01*
X462631Y294470D01*
X462662Y294488D01*
X462705Y294504D01*
X463055Y294673D01*
X463120Y294713D01*
X463190Y294744D01*
X463291Y294817D01*
X463399Y294882D01*
X463455Y294934D01*
X463517Y294979D01*
X463602Y295071D01*
X463684Y295146D01*
X464526Y295406D01*
X464588Y295432D01*
X464809Y295517D01*
X465608Y295902D01*
X465660Y295893D01*
X465785Y295898D01*
X465910Y295893D01*
X465986Y295905D01*
X466062Y295908D01*
X466222Y295943D01*
X466308Y295957D01*
X466341Y295969D01*
X466386Y295979D01*
X466758Y296094D01*
X466828Y296123D01*
X466902Y296144D01*
X467013Y296201D01*
X467129Y296250D01*
X467192Y296293D01*
X467260Y296328D01*
X467358Y296406D01*
X467450Y296468D01*
X468322Y296600D01*
X468386Y296616D01*
X468618Y296667D01*
X469466Y296928D01*
X469516Y296912D01*
X469640Y296898D01*
X469763Y296875D01*
X469840Y296875D01*
X469916Y296867D01*
X470078Y296878D01*
X470166Y296879D01*
X470201Y296886D01*
X470247Y296889D01*
X470631Y296947D01*
X470705Y296966D01*
X470781Y296975D01*
X470900Y297015D01*
X471021Y297046D01*
X471090Y297079D01*
X471163Y297104D01*
X471271Y297166D01*
X471372Y297214D01*
X472253Y297214D01*
X472320Y297221D01*
X472556Y297237D01*
X473433Y297369D01*
X473480Y297346D01*
X473601Y297313D01*
X473719Y297271D01*
X473795Y297261D01*
X473869Y297241D01*
X474031Y297227D01*
X474118Y297215D01*
X474154Y297217D01*
X474199Y297214D01*
X474588Y297214D01*
X474664Y297221D01*
X474741Y297219D01*
X474864Y297241D01*
X474989Y297253D01*
X475062Y297276D01*
X475137Y297289D01*
X475254Y297335D01*
X475360Y297367D01*
X476232Y297236D01*
X476300Y297232D01*
X476535Y297213D01*
X477422Y297213D01*
X477465Y297183D01*
X477579Y297133D01*
X477690Y297074D01*
X477763Y297052D01*
X477834Y297021D01*
X477992Y296984D01*
X478076Y296959D01*
X478112Y296956D01*
X478156Y296945D01*
X478541Y296887D01*
X478617Y296883D01*
X478692Y296870D01*
X478818Y296873D01*
X478943Y296867D01*
X479018Y296878D01*
X479095Y296880D01*
X479217Y296908D01*
X479327Y296924D01*
X480169Y296664D01*
X480236Y296651D01*
X480465Y296597D01*
X481343Y296464D01*
X481381Y296428D01*
X481487Y296361D01*
X481587Y296287D01*
X481657Y296254D01*
X481721Y296214D01*
X481873Y296153D01*
X481952Y296116D01*
X481987Y296107D01*
X482029Y296090D01*
X482401Y295976D01*
X482475Y295960D01*
X482548Y295936D01*
X482673Y295920D01*
X482795Y295895D01*
X482872Y295895D01*
X482948Y295886D01*
X483073Y295895D01*
X483184Y295895D01*
X483978Y295512D01*
X484040Y295489D01*
X484260Y295401D01*
X485798Y294927D01*
X485987Y294888D01*
X486176Y294848D01*
X486184Y294848D01*
X486192Y294847D01*
X486384Y294846D01*
X486579Y294844D01*
X486587Y294846D01*
X486595Y294846D01*
X486783Y294884D01*
X486974Y294920D01*
X486982Y294923D01*
X486990Y294925D01*
X487170Y295000D01*
X487347Y295072D01*
X487354Y295077D01*
X487361Y295080D01*
X487522Y295188D01*
X487682Y295295D01*
X487688Y295301D01*
X487695Y295305D01*
X487830Y295442D01*
X487967Y295579D01*
X487972Y295587D01*
X487978Y295592D01*
X488005Y295634D01*
X488156Y295852D01*
X508089Y330378D01*
X508698Y329958D01*
X508724Y329947D01*
X508747Y329928D01*
X508815Y329908D01*
X508881Y329880D01*
X508909Y329880D01*
X508937Y329871D01*
X509008Y329879D01*
X509079Y329879D01*
X509106Y329890D01*
X509135Y329894D01*
X509197Y329929D01*
X509263Y329956D01*
X509283Y329977D01*
X509308Y329991D01*
X509372Y330068D01*
X509401Y330099D01*
X509405Y330109D01*
X509414Y330120D01*
X518914Y346620D01*
X518924Y346651D01*
X518933Y346664D01*
X518937Y346689D01*
X518938Y346692D01*
X518969Y346763D01*
X518970Y346786D01*
X518977Y346808D01*
X518971Y346885D01*
X518972Y346962D01*
X518963Y346986D01*
X518961Y347007D01*
X518941Y347046D01*
X518914Y347118D01*
X509414Y363618D01*
X509395Y363640D01*
X509383Y363666D01*
X509330Y363714D01*
X509282Y363767D01*
X509256Y363780D01*
X509235Y363799D01*
X509167Y363822D01*
X509103Y363853D01*
X509074Y363854D01*
X509047Y363864D01*
X508976Y363859D01*
X508904Y363862D01*
X508877Y363852D01*
X508848Y363850D01*
X508758Y363808D01*
X508718Y363793D01*
X508710Y363785D01*
X508698Y363780D01*
X508089Y363360D01*
X488393Y397475D01*
X488310Y397590D01*
X488234Y397711D01*
X488193Y397754D01*
X488158Y397802D01*
X488054Y397899D01*
X487956Y398002D01*
X487907Y398036D01*
X487863Y398076D01*
X487742Y398151D01*
X487626Y398232D01*
X487571Y398256D01*
X487520Y398287D01*
X487387Y398336D01*
X487257Y398393D01*
X487198Y398406D01*
X487142Y398426D01*
X487002Y398448D01*
X486863Y398478D01*
X486803Y398479D01*
X486745Y398488D01*
X486602Y398481D01*
X486460Y398483D01*
X486402Y398472D01*
X486342Y398470D01*
X486204Y398436D01*
X486065Y398409D01*
X486001Y398385D01*
X485952Y398373D01*
X485877Y398338D01*
X485755Y398291D01*
X485674Y398252D01*
X485615Y398216D01*
X485552Y398188D01*
X485443Y398112D01*
X485330Y398042D01*
X485279Y397996D01*
X485223Y397956D01*
X485132Y397860D01*
X485034Y397769D01*
X484218Y397525D01*
X484178Y397509D01*
X483921Y397410D01*
X483144Y397037D01*
X483082Y397048D01*
X482949Y397044D01*
X482816Y397050D01*
X482748Y397039D01*
X482680Y397037D01*
X482504Y397000D01*
X482419Y396986D01*
X482391Y396976D01*
X482355Y396968D01*
X481907Y396834D01*
X481844Y396808D01*
X481777Y396790D01*
X481658Y396732D01*
X481535Y396681D01*
X481478Y396643D01*
X481416Y396612D01*
X481310Y396531D01*
X481200Y396458D01*
X480356Y396344D01*
X480314Y396334D01*
X480044Y396277D01*
X479219Y396030D01*
X479159Y396051D01*
X479027Y396068D01*
X478897Y396094D01*
X478828Y396094D01*
X478760Y396103D01*
X478581Y396093D01*
X478495Y396093D01*
X478466Y396087D01*
X478428Y396085D01*
X477965Y396023D01*
X477898Y396007D01*
X477830Y396000D01*
X477703Y395961D01*
X477574Y395930D01*
X477511Y395902D01*
X477445Y395881D01*
X477329Y395818D01*
X477208Y395762D01*
X476356Y395782D01*
X476314Y395779D01*
X476038Y395765D01*
X475184Y395650D01*
X475128Y395679D01*
X475001Y395717D01*
X474876Y395763D01*
X474808Y395774D01*
X474742Y395793D01*
X474564Y395812D01*
X474479Y395825D01*
X474449Y395824D01*
X474412Y395828D01*
X473945Y395839D01*
X473877Y395834D01*
X473808Y395838D01*
X473676Y395819D01*
X473544Y395809D01*
X473477Y395790D01*
X473409Y395780D01*
X473284Y395736D01*
X473156Y395700D01*
X473156Y395699D01*
X472318Y395852D01*
X472275Y395856D01*
X472001Y395885D01*
X471140Y395905D01*
X471089Y395943D01*
X470970Y396000D01*
X470854Y396065D01*
X470788Y396086D01*
X470726Y396116D01*
X470553Y396162D01*
X470471Y396189D01*
X470441Y396192D01*
X470405Y396202D01*
X469946Y396286D01*
X469877Y396291D01*
X469810Y396306D01*
X469677Y396308D01*
X469544Y396319D01*
X469476Y396311D01*
X469407Y396311D01*
X469277Y396287D01*
X469145Y396272D01*
X469144Y396271D01*
X468341Y396554D01*
X468299Y396564D01*
X468033Y396635D01*
X467185Y396790D01*
X467141Y396835D01*
X467032Y396910D01*
X466928Y396993D01*
X466866Y397024D01*
X466809Y397063D01*
X466646Y397136D01*
X466569Y397175D01*
X466540Y397183D01*
X466506Y397198D01*
X466065Y397353D01*
X465998Y397369D01*
X465934Y397394D01*
X465803Y397417D01*
X465674Y397448D01*
X465605Y397451D01*
X465537Y397462D01*
X465404Y397459D01*
X465272Y397464D01*
X465271Y397464D01*
X464522Y397868D01*
X464483Y397885D01*
X464231Y397997D01*
X463418Y398283D01*
X463381Y398334D01*
X463285Y398425D01*
X463195Y398523D01*
X463139Y398564D01*
X463089Y398611D01*
X462939Y398708D01*
X462869Y398759D01*
X462842Y398772D01*
X462811Y398792D01*
X462400Y399014D01*
X462336Y399040D01*
X462276Y399075D01*
X462151Y399118D01*
X462028Y399169D01*
X461961Y399182D01*
X461895Y399205D01*
X461764Y399222D01*
X461633Y399248D01*
X460956Y399764D01*
X460920Y399787D01*
X460688Y399937D01*
X459930Y400346D01*
X459902Y400403D01*
X459821Y400508D01*
X459748Y400619D01*
X459699Y400667D01*
X459657Y400722D01*
X459524Y400842D01*
X459462Y400903D01*
X459438Y400919D01*
X459410Y400944D01*
X459039Y401228D01*
X458980Y401264D01*
X458927Y401307D01*
X458810Y401369D01*
X458696Y401439D01*
X458631Y401463D01*
X458571Y401495D01*
X458443Y401532D01*
X458318Y401579D01*
X457730Y402195D01*
X457707Y402215D01*
X457701Y402222D01*
X457685Y402235D01*
X457493Y402407D01*
X456808Y402930D01*
X456790Y402990D01*
X456726Y403107D01*
X456670Y403228D01*
X456630Y403283D01*
X456597Y403344D01*
X456484Y403483D01*
X456433Y403553D01*
X456412Y403573D01*
X456388Y403602D01*
X456066Y403940D01*
X456014Y403985D01*
X455968Y404036D01*
X455861Y404116D01*
X455760Y404202D01*
X455700Y404236D01*
X455645Y404277D01*
X455525Y404334D01*
X455409Y404399D01*
X454925Y405100D01*
X454897Y405132D01*
X454724Y405347D01*
X454129Y405971D01*
X454120Y406033D01*
X454075Y406158D01*
X454039Y406286D01*
X454008Y406347D01*
X453985Y406412D01*
X453895Y406568D01*
X453856Y406645D01*
X453838Y406668D01*
X453819Y406700D01*
X453554Y407084D01*
X453509Y407137D01*
X453472Y407195D01*
X453379Y407290D01*
X453293Y407391D01*
X453239Y407434D01*
X453191Y407483D01*
X453081Y407558D01*
X452977Y407641D01*
X452608Y408408D01*
X452586Y408445D01*
X452448Y408684D01*
X451958Y409393D01*
X451959Y409456D01*
X451935Y409586D01*
X451919Y409718D01*
X451898Y409784D01*
X451885Y409852D01*
X451821Y410019D01*
X451794Y410101D01*
X451780Y410126D01*
X451767Y410161D01*
X451564Y410582D01*
X451528Y410641D01*
X451501Y410704D01*
X451424Y410813D01*
X451355Y410926D01*
X451308Y410977D01*
X451268Y411033D01*
X451172Y411124D01*
X451082Y411222D01*
X450838Y412038D01*
X450821Y412078D01*
X450723Y412336D01*
X450350Y413112D01*
X450360Y413174D01*
X450357Y413307D01*
X450362Y413440D01*
X450351Y413508D01*
X450349Y413577D01*
X450312Y413752D01*
X450299Y413837D01*
X450288Y413865D01*
X450281Y413901D01*
X450147Y414349D01*
X450121Y414413D01*
X450103Y414479D01*
X450044Y414598D01*
X449994Y414721D01*
X449955Y414779D01*
X449925Y414841D01*
X449844Y414946D01*
X449770Y415056D01*
X449770Y415057D01*
X449657Y415900D01*
X449647Y415942D01*
X449590Y416212D01*
X449343Y417037D01*
X449363Y417097D01*
X449380Y417229D01*
X449406Y417359D01*
X449406Y417428D01*
X449415Y417496D01*
X449406Y417676D01*
X449406Y417762D01*
X449400Y417791D01*
X449398Y417828D01*
X449336Y418291D01*
X449320Y418358D01*
X449313Y418426D01*
X449274Y418553D01*
X449243Y418683D01*
X449214Y418745D01*
X449194Y418811D01*
X449130Y418928D01*
X449075Y419048D01*
X449034Y419104D01*
X449001Y419165D01*
X448982Y419189D01*
X448980Y419192D01*
X448967Y419207D01*
X448889Y419304D01*
X448837Y419374D01*
X448816Y419394D01*
X448792Y419423D01*
X448783Y419432D01*
X448748Y419462D01*
X448718Y419497D01*
X448613Y419580D01*
X448541Y419646D01*
X448519Y419659D01*
X448478Y419694D01*
X448437Y419717D01*
X448401Y419746D01*
X448262Y419815D01*
X448240Y419828D01*
X448196Y419854D01*
X448187Y419858D01*
X448127Y419891D01*
X448083Y419906D01*
X448041Y419926D01*
X447892Y419967D01*
X447744Y420015D01*
X447698Y420020D01*
X447653Y420033D01*
X447498Y420043D01*
X447344Y420061D01*
X447297Y420057D01*
X447251Y420060D01*
X447097Y420040D01*
X446942Y420027D01*
X446898Y420014D01*
X446852Y420008D01*
X446612Y419931D01*
X446556Y419915D01*
X446547Y419910D01*
X446536Y419907D01*
X446501Y419892D01*
X444087Y419892D01*
X441856Y420816D01*
X441112Y421560D01*
X441102Y421569D01*
X441093Y421579D01*
X440946Y421696D01*
X440800Y421815D01*
X440789Y421821D01*
X440778Y421830D01*
X440611Y421916D01*
X440445Y422004D01*
X440432Y422008D01*
X440420Y422014D01*
X440239Y422065D01*
X440059Y422119D01*
X440045Y422120D01*
X440033Y422123D01*
X439847Y422138D01*
X439658Y422155D01*
X439644Y422154D01*
X439631Y422155D01*
X439447Y422132D01*
X439258Y422112D01*
X439245Y422108D01*
X439231Y422106D01*
X439054Y422047D01*
X438874Y421990D01*
X438862Y421984D01*
X438849Y421979D01*
X438685Y421886D01*
X438521Y421795D01*
X438511Y421787D01*
X438499Y421780D01*
X438357Y421656D01*
X438214Y421535D01*
X438206Y421524D01*
X438196Y421515D01*
X438082Y421367D01*
X437965Y421219D01*
X437959Y421207D01*
X437951Y421196D01*
X437799Y420901D01*
X437116Y419253D01*
X435616Y417752D01*
X433536Y416891D01*
X433509Y416876D01*
X433479Y416866D01*
X433331Y416781D01*
X433181Y416701D01*
X433157Y416681D01*
X433130Y416665D01*
X432877Y416451D01*
X429770Y413343D01*
X429302Y413150D01*
X429275Y413135D01*
X429245Y413125D01*
X429098Y413040D01*
X428947Y412960D01*
X428923Y412940D01*
X428896Y412924D01*
X428643Y412709D01*
X428112Y412178D01*
X416057Y412178D01*
X414885Y413350D01*
X414878Y413356D01*
X414872Y413363D01*
X414723Y413483D01*
X414573Y413605D01*
X414565Y413610D01*
X414558Y413615D01*
X414388Y413704D01*
X414218Y413794D01*
X414209Y413797D01*
X414201Y413801D01*
X414017Y413854D01*
X413832Y413909D01*
X413823Y413910D01*
X413814Y413912D01*
X413623Y413928D01*
X413431Y413945D01*
X413422Y413944D01*
X413413Y413945D01*
X413224Y413923D01*
X413030Y413902D01*
X413022Y413899D01*
X413013Y413898D01*
X412831Y413839D01*
X412647Y413780D01*
X412639Y413776D01*
X412630Y413773D01*
X412463Y413679D01*
X412294Y413585D01*
X412287Y413580D01*
X412280Y413575D01*
X412135Y413450D01*
X411987Y413325D01*
X411982Y413318D01*
X411975Y413312D01*
X411858Y413162D01*
X411738Y413009D01*
X411734Y413001D01*
X411728Y412994D01*
X411643Y412823D01*
X411555Y412650D01*
X411553Y412642D01*
X411549Y412633D01*
X411499Y412448D01*
X411447Y412262D01*
X411447Y412253D01*
X411444Y412245D01*
X411417Y411914D01*
X411417Y404793D01*
X411418Y404784D01*
X411418Y404775D01*
X411419Y404764D01*
X411418Y404749D01*
X411440Y404570D01*
X411457Y404393D01*
X411464Y404371D01*
X411466Y404349D01*
X411523Y404178D01*
X411575Y404008D01*
X411586Y403988D01*
X411593Y403967D01*
X411682Y403811D01*
X411767Y403654D01*
X411781Y403637D01*
X411792Y403617D01*
X411910Y403482D01*
X412025Y403344D01*
X412042Y403331D01*
X412057Y403314D01*
X412199Y403204D01*
X412339Y403092D01*
X412358Y403082D01*
X412376Y403068D01*
X412671Y402917D01*
X414200Y402283D01*
X414230Y402274D01*
X414258Y402260D01*
X414423Y402216D01*
X414586Y402167D01*
X414617Y402164D01*
X414647Y402156D01*
X414977Y402129D01*
X416485Y402129D01*
X416622Y402142D01*
X416760Y402147D01*
X416832Y402163D01*
X416886Y402169D01*
X416962Y402192D01*
X417024Y402206D01*
X417750Y402138D01*
X417826Y402138D01*
X417940Y402129D01*
X418673Y402129D01*
X418743Y402108D01*
X418872Y402059D01*
X418945Y402047D01*
X418997Y402031D01*
X419076Y402023D01*
X419139Y402012D01*
X419783Y401671D01*
X419854Y401643D01*
X419955Y401591D01*
X420631Y401311D01*
X420635Y401306D01*
X420676Y401274D01*
X420689Y401264D01*
X420790Y401170D01*
X420852Y401130D01*
X420894Y401096D01*
X420932Y401076D01*
X420953Y401059D01*
X420999Y401037D01*
X421018Y401024D01*
X421483Y400463D01*
X421537Y400409D01*
X421611Y400322D01*
X422130Y399804D01*
X422164Y399740D01*
X422221Y399614D01*
X422263Y399554D01*
X422289Y399506D01*
X422340Y399445D01*
X422411Y399342D01*
X427581Y393102D01*
X427668Y393016D01*
X427747Y392924D01*
X427810Y392875D01*
X427867Y392819D01*
X427969Y392752D01*
X428065Y392678D01*
X428137Y392642D01*
X428204Y392598D01*
X428317Y392553D01*
X428426Y392498D01*
X428503Y392478D01*
X428577Y392448D01*
X428697Y392425D01*
X428814Y392394D01*
X428908Y392386D01*
X428973Y392374D01*
X429044Y392375D01*
X429145Y392367D01*
X434318Y392367D01*
X435657Y391027D01*
X435657Y378133D01*
X434318Y376793D01*
X422424Y376793D01*
X420496Y378721D01*
X420482Y378732D01*
X420471Y378746D01*
X420327Y378860D01*
X420185Y378976D01*
X420169Y378984D01*
X420155Y378995D01*
X419991Y379079D01*
X419829Y379164D01*
X419812Y379169D01*
X419796Y379178D01*
X419619Y379227D01*
X419443Y379279D01*
X419425Y379281D01*
X419408Y379286D01*
X419225Y379299D01*
X419042Y379316D01*
X419024Y379314D01*
X419006Y379315D01*
X418824Y379292D01*
X418642Y379272D01*
X418625Y379267D01*
X418607Y379265D01*
X418433Y379206D01*
X418258Y379151D01*
X418242Y379142D01*
X418225Y379136D01*
X418066Y379044D01*
X417906Y378956D01*
X417892Y378944D01*
X417876Y378935D01*
X417623Y378721D01*
X416585Y377682D01*
X403690Y377682D01*
X403074Y378298D01*
X403060Y378310D01*
X403048Y378323D01*
X402904Y378437D01*
X402762Y378554D01*
X402747Y378562D01*
X402733Y378573D01*
X402568Y378656D01*
X402407Y378742D01*
X402390Y378747D01*
X402374Y378755D01*
X402197Y378805D01*
X402021Y378857D01*
X402003Y378859D01*
X401986Y378863D01*
X401803Y378877D01*
X401620Y378893D01*
X401602Y378891D01*
X401584Y378893D01*
X401402Y378870D01*
X401219Y378850D01*
X401202Y378845D01*
X401185Y378842D01*
X401011Y378784D01*
X400836Y378728D01*
X400820Y378720D01*
X400803Y378714D01*
X400644Y378623D01*
X400483Y378534D01*
X400470Y378522D01*
X400454Y378513D01*
X400201Y378299D01*
X399585Y377682D01*
X386690Y377682D01*
X385351Y379022D01*
X385351Y379127D01*
X385349Y379145D01*
X385350Y379162D01*
X385329Y379345D01*
X385311Y379527D01*
X385306Y379544D01*
X385304Y379562D01*
X385247Y379737D01*
X385193Y379912D01*
X385184Y379928D01*
X385179Y379945D01*
X385088Y380105D01*
X385001Y380266D01*
X384990Y380280D01*
X384981Y380296D01*
X384861Y380435D01*
X384743Y380576D01*
X384729Y380587D01*
X384718Y380600D01*
X384573Y380713D01*
X384429Y380828D01*
X384414Y380836D01*
X384400Y380847D01*
X384235Y380929D01*
X384072Y381013D01*
X384055Y381018D01*
X384039Y381026D01*
X383861Y381074D01*
X383685Y381125D01*
X383667Y381126D01*
X383650Y381131D01*
X383320Y381158D01*
X381451Y381158D01*
X378624Y383985D01*
X377173Y385436D01*
X377166Y385442D01*
X377160Y385448D01*
X377010Y385570D01*
X376862Y385691D01*
X376854Y385695D01*
X376847Y385701D01*
X376676Y385789D01*
X376506Y385880D01*
X376497Y385882D01*
X376489Y385886D01*
X376305Y385939D01*
X376120Y385994D01*
X376111Y385995D01*
X376102Y385998D01*
X375912Y386013D01*
X375719Y386031D01*
X375710Y386030D01*
X375701Y386031D01*
X375512Y386008D01*
X375319Y385987D01*
X375310Y385985D01*
X375301Y385984D01*
X375119Y385924D01*
X374935Y385866D01*
X374927Y385862D01*
X374919Y385859D01*
X374752Y385765D01*
X374583Y385671D01*
X374576Y385665D01*
X374568Y385661D01*
X374423Y385536D01*
X374276Y385411D01*
X374270Y385404D01*
X374263Y385398D01*
X374146Y385247D01*
X374026Y385095D01*
X374022Y385087D01*
X374016Y385080D01*
X373932Y384909D01*
X373844Y384736D01*
X373841Y384727D01*
X373837Y384719D01*
X373787Y384534D01*
X373736Y384348D01*
X373735Y384339D01*
X373733Y384330D01*
X373705Y384000D01*
X373705Y372440D01*
X372366Y371101D01*
X359472Y371101D01*
X358132Y372440D01*
X358132Y379944D01*
X358129Y379970D01*
X358131Y379997D01*
X358109Y380171D01*
X358092Y380344D01*
X358084Y380370D01*
X358081Y380397D01*
X358025Y380562D01*
X357974Y380729D01*
X357961Y380753D01*
X357953Y380778D01*
X357866Y380930D01*
X357782Y381083D01*
X357765Y381104D01*
X357752Y381127D01*
X357537Y381380D01*
X357216Y381701D01*
X355742Y383175D01*
X355735Y383181D01*
X355729Y383188D01*
X355579Y383309D01*
X355430Y383430D01*
X355422Y383435D01*
X355415Y383440D01*
X355245Y383529D01*
X355075Y383619D01*
X355066Y383622D01*
X355058Y383626D01*
X354874Y383679D01*
X354689Y383734D01*
X354680Y383735D01*
X354671Y383737D01*
X354480Y383753D01*
X354288Y383770D01*
X354279Y383769D01*
X354270Y383770D01*
X354081Y383748D01*
X353887Y383727D01*
X353879Y383724D01*
X353870Y383723D01*
X353688Y383664D01*
X353504Y383605D01*
X353496Y383601D01*
X353487Y383598D01*
X353320Y383504D01*
X353151Y383410D01*
X353144Y383405D01*
X353137Y383400D01*
X352992Y383275D01*
X352844Y383150D01*
X352839Y383143D01*
X352832Y383137D01*
X352715Y382987D01*
X352595Y382834D01*
X352591Y382826D01*
X352585Y382819D01*
X352500Y382648D01*
X352412Y382475D01*
X352410Y382466D01*
X352406Y382458D01*
X352356Y382273D01*
X352304Y382087D01*
X352304Y382078D01*
X352301Y382070D01*
X352274Y381739D01*
X352274Y372440D01*
X350935Y371101D01*
X338040Y371101D01*
X336701Y372440D01*
X336701Y384335D01*
X337910Y385544D01*
X337927Y385564D01*
X337947Y385582D01*
X338054Y385720D01*
X338165Y385855D01*
X338177Y385879D01*
X338194Y385900D01*
X338272Y386057D01*
X338353Y386211D01*
X338361Y386236D01*
X338373Y386260D01*
X338418Y386430D01*
X338468Y386597D01*
X338470Y386623D01*
X338477Y386649D01*
X338505Y386980D01*
X338505Y397027D01*
X338502Y397054D01*
X338504Y397080D01*
X338482Y397254D01*
X338465Y397428D01*
X338457Y397453D01*
X338453Y397480D01*
X338398Y397646D01*
X338346Y397813D01*
X338334Y397836D01*
X338325Y397862D01*
X338238Y398013D01*
X338155Y398167D01*
X338138Y398187D01*
X338124Y398210D01*
X337910Y398463D01*
X337567Y398806D01*
X336643Y401036D01*
X336643Y402082D01*
X336641Y402108D01*
X336643Y402135D01*
X336621Y402309D01*
X336603Y402482D01*
X336596Y402508D01*
X336592Y402534D01*
X336537Y402700D01*
X336485Y402867D01*
X336473Y402891D01*
X336464Y402916D01*
X336377Y403068D01*
X336294Y403221D01*
X336277Y403242D01*
X336263Y403265D01*
X336048Y403518D01*
X325598Y413969D01*
X325598Y426202D01*
X325596Y426220D01*
X325597Y426237D01*
X325576Y426420D01*
X325558Y426602D01*
X325552Y426619D01*
X325550Y426637D01*
X325493Y426811D01*
X325439Y426987D01*
X325431Y427003D01*
X325425Y427020D01*
X325335Y427180D01*
X325248Y427341D01*
X325236Y427355D01*
X325228Y427371D01*
X325107Y427510D01*
X324990Y427651D01*
X324976Y427662D01*
X324964Y427675D01*
X324819Y427788D01*
X324676Y427903D01*
X324660Y427911D01*
X324646Y427922D01*
X324481Y428004D01*
X324319Y428088D01*
X324302Y428093D01*
X324286Y428101D01*
X324108Y428149D01*
X323932Y428200D01*
X323914Y428201D01*
X323897Y428206D01*
X323566Y428233D01*
X319523Y428233D01*
X319505Y428231D01*
X319487Y428233D01*
X319305Y428211D01*
X319122Y428193D01*
X319105Y428188D01*
X319088Y428186D01*
X318913Y428129D01*
X318737Y428075D01*
X318722Y428066D01*
X318705Y428061D01*
X318544Y427970D01*
X318383Y427883D01*
X318370Y427872D01*
X318354Y427863D01*
X318215Y427743D01*
X318074Y427625D01*
X318063Y427612D01*
X318049Y427600D01*
X317937Y427455D01*
X317822Y427312D01*
X317814Y427296D01*
X317803Y427282D01*
X317721Y427117D01*
X317636Y426954D01*
X317631Y426937D01*
X317623Y426921D01*
X317576Y426743D01*
X317525Y426567D01*
X317523Y426550D01*
X317519Y426532D01*
X317492Y426202D01*
X317492Y404302D01*
X317494Y404275D01*
X317492Y404248D01*
X317514Y404075D01*
X317532Y403901D01*
X317540Y403875D01*
X317543Y403849D01*
X317598Y403683D01*
X317650Y403516D01*
X317663Y403492D01*
X317671Y403467D01*
X317758Y403315D01*
X317842Y403162D01*
X317859Y403142D01*
X317872Y403118D01*
X318087Y402865D01*
X318826Y402126D01*
X319750Y399896D01*
X319750Y397481D01*
X318826Y395251D01*
X318087Y394512D01*
X318070Y394491D01*
X318049Y394474D01*
X317942Y394336D01*
X317832Y394200D01*
X317819Y394177D01*
X317803Y394155D01*
X317725Y393998D01*
X317643Y393844D01*
X317635Y393819D01*
X317623Y393795D01*
X317578Y393625D01*
X317528Y393459D01*
X317526Y393432D01*
X317519Y393406D01*
X317492Y393075D01*
X317492Y390183D01*
X317494Y390156D01*
X317492Y390129D01*
X317514Y389955D01*
X317532Y389782D01*
X317539Y389756D01*
X317543Y389730D01*
X317599Y389564D01*
X317650Y389397D01*
X317662Y389374D01*
X317671Y389348D01*
X317758Y389197D01*
X317842Y389043D01*
X317859Y389022D01*
X317872Y388999D01*
X318087Y388746D01*
X320564Y386269D01*
X320584Y386252D01*
X320602Y386232D01*
X320740Y386125D01*
X320875Y386014D01*
X320899Y386002D01*
X320920Y385985D01*
X321077Y385907D01*
X321231Y385825D01*
X321257Y385818D01*
X321281Y385806D01*
X321450Y385760D01*
X321617Y385711D01*
X321643Y385708D01*
X321669Y385701D01*
X322000Y385674D01*
X329503Y385674D01*
X330843Y384335D01*
X330843Y372440D01*
X329503Y371101D01*
X316609Y371101D01*
X315270Y372440D01*
X315270Y379944D01*
X315267Y379970D01*
X315269Y379997D01*
X315247Y380171D01*
X315230Y380344D01*
X315222Y380370D01*
X315218Y380396D01*
X315163Y380562D01*
X315111Y380729D01*
X315099Y380753D01*
X315090Y380778D01*
X315003Y380929D01*
X314920Y381083D01*
X314903Y381104D01*
X314889Y381127D01*
X314675Y381380D01*
X312697Y383357D01*
X309870Y386184D01*
X309870Y393075D01*
X309868Y393102D01*
X309870Y393129D01*
X309848Y393302D01*
X309830Y393476D01*
X309823Y393502D01*
X309819Y393528D01*
X309764Y393694D01*
X309712Y393861D01*
X309699Y393885D01*
X309691Y393910D01*
X309604Y394061D01*
X309520Y394215D01*
X309503Y394235D01*
X309490Y394259D01*
X309275Y394512D01*
X308536Y395251D01*
X307612Y397481D01*
X307612Y399896D01*
X308536Y402126D01*
X309275Y402865D01*
X309292Y402886D01*
X309313Y402903D01*
X309419Y403041D01*
X309530Y403177D01*
X309543Y403200D01*
X309559Y403222D01*
X309637Y403378D01*
X309719Y403532D01*
X309727Y403558D01*
X309739Y403582D01*
X309784Y403751D01*
X309834Y403918D01*
X309836Y403945D01*
X309843Y403971D01*
X309870Y404302D01*
X309870Y426831D01*
X309868Y426857D01*
X309870Y426884D01*
X309848Y427058D01*
X309830Y427232D01*
X309823Y427257D01*
X309819Y427284D01*
X309764Y427449D01*
X309712Y427616D01*
X309699Y427640D01*
X309691Y427665D01*
X309604Y427817D01*
X309520Y427970D01*
X309503Y427991D01*
X309490Y428014D01*
X309275Y428267D01*
X308386Y429156D01*
X307463Y431387D01*
X307463Y433801D01*
X308386Y436031D01*
X309126Y436771D01*
X309143Y436791D01*
X309163Y436809D01*
X309270Y436947D01*
X309381Y437082D01*
X309393Y437106D01*
X309410Y437127D01*
X309488Y437284D01*
X309569Y437438D01*
X309577Y437463D01*
X309589Y437487D01*
X309634Y437657D01*
X309684Y437824D01*
X309686Y437850D01*
X309693Y437876D01*
X309715Y438135D01*
X318576Y446996D01*
X318587Y447010D01*
X318600Y447021D01*
X318714Y447166D01*
X318831Y447307D01*
X318839Y447323D01*
X318850Y447337D01*
X318933Y447501D01*
X319019Y447663D01*
X319024Y447680D01*
X319032Y447696D01*
X319082Y447873D01*
X319134Y448049D01*
X319136Y448067D01*
X319140Y448084D01*
X319154Y448267D01*
X319170Y448450D01*
X319168Y448468D01*
X319170Y448486D01*
X319147Y448668D01*
X319127Y448850D01*
X319122Y448867D01*
X319119Y448885D01*
X319061Y449059D01*
X319005Y449234D01*
X318997Y449250D01*
X318991Y449267D01*
X318900Y449426D01*
X318811Y449586D01*
X318799Y449600D01*
X318790Y449616D01*
X318576Y449869D01*
X317372Y451073D01*
X317372Y456184D01*
X317370Y456202D01*
X317371Y456220D01*
X317350Y456402D01*
X317332Y456585D01*
X317326Y456602D01*
X317324Y456619D01*
X317267Y456794D01*
X317213Y456970D01*
X317205Y456985D01*
X317199Y457002D01*
X317109Y457162D01*
X317022Y457324D01*
X317010Y457337D01*
X317002Y457353D01*
X316882Y457492D01*
X316764Y457633D01*
X316750Y457644D01*
X316738Y457658D01*
X316593Y457770D01*
X316450Y457885D01*
X316434Y457893D01*
X316420Y457904D01*
X316255Y457986D01*
X316093Y458071D01*
X316076Y458076D01*
X316060Y458084D01*
X315882Y458131D01*
X315706Y458182D01*
X315688Y458184D01*
X315671Y458188D01*
X315340Y458215D01*
X300815Y458215D01*
X300797Y458213D01*
X300779Y458215D01*
X300597Y458194D01*
X300414Y458175D01*
X300397Y458170D01*
X300379Y458168D01*
X300205Y458111D01*
X300029Y458057D01*
X300014Y458049D01*
X299997Y458043D01*
X299836Y457953D01*
X299675Y457865D01*
X299662Y457854D01*
X299646Y457845D01*
X299507Y457725D01*
X299366Y457608D01*
X299355Y457594D01*
X299341Y457582D01*
X299229Y457437D01*
X299114Y457294D01*
X299105Y457278D01*
X299094Y457264D01*
X299012Y457099D01*
X298928Y456937D01*
X298923Y456920D01*
X298915Y456904D01*
X298867Y456725D01*
X298817Y456550D01*
X298815Y456532D01*
X298811Y456515D01*
X298783Y456184D01*
X298783Y452127D01*
X297444Y450788D01*
X285550Y450788D01*
X283692Y452645D01*
X283672Y452662D01*
X283654Y452682D01*
X283516Y452789D01*
X283381Y452900D01*
X283357Y452912D01*
X283336Y452929D01*
X283179Y453007D01*
X283025Y453088D01*
X283000Y453096D01*
X282976Y453108D01*
X282806Y453153D01*
X282639Y453203D01*
X282613Y453205D01*
X282587Y453212D01*
X282256Y453240D01*
X282106Y453240D01*
X282097Y453239D01*
X282088Y453239D01*
X281896Y453219D01*
X281705Y453200D01*
X281696Y453197D01*
X281687Y453196D01*
X281505Y453138D01*
X281320Y453081D01*
X281312Y453077D01*
X281304Y453075D01*
X281135Y452981D01*
X280966Y452890D01*
X280959Y452884D01*
X280951Y452880D01*
X280804Y452755D01*
X280657Y452632D01*
X280651Y452625D01*
X280644Y452619D01*
X280525Y452469D01*
X280404Y452318D01*
X280400Y452310D01*
X280395Y452303D01*
X280307Y452131D01*
X280219Y451961D01*
X280216Y451952D01*
X280212Y451944D01*
X280160Y451758D01*
X280107Y451574D01*
X280107Y451565D01*
X280104Y451556D01*
X280090Y451364D01*
X280075Y451173D01*
X280076Y451164D01*
X280075Y451155D01*
X280099Y450962D01*
X280122Y450773D01*
X280124Y450764D01*
X280125Y450755D01*
X280187Y450573D01*
X280246Y450390D01*
X280251Y450382D01*
X280254Y450374D01*
X280350Y450207D01*
X280444Y450039D01*
X280450Y450033D01*
X280455Y450025D01*
X280669Y449772D01*
X283269Y447173D01*
X284081Y445212D01*
X284081Y426585D01*
X284084Y426554D01*
X284082Y426523D01*
X284104Y426354D01*
X284121Y426185D01*
X284130Y426155D01*
X284134Y426124D01*
X284235Y425808D01*
X284815Y424409D01*
X284815Y421995D01*
X284235Y420596D01*
X284226Y420566D01*
X284212Y420538D01*
X284168Y420374D01*
X284119Y420211D01*
X284116Y420180D01*
X284108Y420150D01*
X284081Y419819D01*
X284081Y403879D01*
X284084Y403848D01*
X284082Y403817D01*
X284104Y403648D01*
X284121Y403479D01*
X284130Y403449D01*
X284134Y403418D01*
X284235Y403102D01*
X284942Y401397D01*
X284942Y398983D01*
X284018Y396752D01*
X282311Y395045D01*
X280080Y394121D01*
X277666Y394121D01*
X275435Y395045D01*
X273728Y396752D01*
X272804Y398983D01*
X272804Y401397D01*
X273257Y402489D01*
X273266Y402519D01*
X273280Y402547D01*
X273324Y402711D01*
X273373Y402874D01*
X273376Y402906D01*
X273384Y402936D01*
X273411Y403266D01*
X273411Y419819D01*
X273408Y419850D01*
X273410Y419881D01*
X273388Y420051D01*
X273371Y420220D01*
X273362Y420249D01*
X273358Y420280D01*
X273257Y420596D01*
X272677Y421995D01*
X272677Y424409D01*
X273257Y425808D01*
X273266Y425838D01*
X273280Y425866D01*
X273324Y426031D01*
X273373Y426193D01*
X273376Y426224D01*
X273384Y426255D01*
X273411Y426585D01*
X273411Y439069D01*
X273409Y439087D01*
X273411Y439104D01*
X273390Y439287D01*
X273371Y439469D01*
X273366Y439486D01*
X273364Y439504D01*
X273307Y439679D01*
X273253Y439854D01*
X273245Y439870D01*
X273239Y439887D01*
X273149Y440047D01*
X273061Y440208D01*
X273050Y440222D01*
X273041Y440238D01*
X272921Y440377D01*
X272804Y440518D01*
X272790Y440529D01*
X272778Y440542D01*
X272634Y440654D01*
X272490Y440770D01*
X272474Y440778D01*
X272460Y440789D01*
X272295Y440871D01*
X272133Y440955D01*
X272116Y440960D01*
X272099Y440968D01*
X271921Y441016D01*
X271746Y441067D01*
X271728Y441068D01*
X271711Y441073D01*
X271380Y441100D01*
X263413Y441100D01*
X262073Y442440D01*
X262073Y462334D01*
X263790Y464050D01*
X263801Y464064D01*
X263815Y464076D01*
X263928Y464220D01*
X264045Y464362D01*
X264053Y464378D01*
X264064Y464392D01*
X264148Y464556D01*
X264233Y464718D01*
X264239Y464735D01*
X264247Y464751D01*
X264296Y464928D01*
X264348Y465104D01*
X264350Y465121D01*
X264355Y465139D01*
X264368Y465322D01*
X264385Y465505D01*
X264383Y465522D01*
X264384Y465540D01*
X264361Y465722D01*
X264341Y465905D01*
X264336Y465922D01*
X264334Y465940D01*
X264275Y466113D01*
X264220Y466289D01*
X264211Y466304D01*
X264205Y466321D01*
X264114Y466480D01*
X264025Y466641D01*
X264013Y466655D01*
X264004Y466670D01*
X263790Y466923D01*
X262073Y468640D01*
X262073Y488534D01*
X263413Y489873D01*
X277607Y489873D01*
X278947Y488534D01*
X278947Y485953D01*
X278949Y485935D01*
X278947Y485917D01*
X278968Y485735D01*
X278987Y485552D01*
X278992Y485535D01*
X278994Y485517D01*
X279051Y485343D01*
X279105Y485167D01*
X279113Y485152D01*
X279119Y485135D01*
X279209Y484974D01*
X279297Y484813D01*
X279308Y484800D01*
X279317Y484784D01*
X279437Y484645D01*
X279554Y484504D01*
X279568Y484493D01*
X279580Y484479D01*
X279725Y484367D01*
X279868Y484252D01*
X279884Y484243D01*
X279898Y484232D01*
X280063Y484150D01*
X280225Y484066D01*
X280242Y484061D01*
X280258Y484053D01*
X280437Y484005D01*
X280612Y483955D01*
X280630Y483953D01*
X280647Y483949D01*
X280978Y483921D01*
X289545Y483921D01*
X290525Y483516D01*
X290555Y483507D01*
X290583Y483493D01*
X290748Y483448D01*
X290911Y483399D01*
X290942Y483396D01*
X290972Y483388D01*
X291303Y483361D01*
X297444Y483361D01*
X299301Y481504D01*
X299322Y481487D01*
X299339Y481467D01*
X299477Y481360D01*
X299613Y481249D01*
X299636Y481236D01*
X299657Y481220D01*
X299814Y481142D01*
X299968Y481060D01*
X299994Y481053D01*
X300018Y481041D01*
X300187Y480995D01*
X300354Y480945D01*
X300381Y480943D01*
X300407Y480936D01*
X300737Y480909D01*
X335112Y480909D01*
X337073Y480097D01*
X349010Y468159D01*
X349822Y466199D01*
X349822Y464026D01*
X349814Y463997D01*
X349765Y463834D01*
X349762Y463803D01*
X349754Y463773D01*
X349727Y463442D01*
X349727Y452262D01*
X349730Y452235D01*
X349728Y452208D01*
X349750Y452034D01*
X349767Y451861D01*
X349775Y451835D01*
X349778Y451809D01*
X349834Y451643D01*
X349885Y451476D01*
X349898Y451452D01*
X349906Y451427D01*
X349994Y451275D01*
X350077Y451122D01*
X350094Y451102D01*
X350107Y451078D01*
X350322Y450825D01*
X352220Y448927D01*
X352241Y448910D01*
X352258Y448890D01*
X352396Y448783D01*
X352531Y448672D01*
X352555Y448660D01*
X352576Y448643D01*
X352733Y448565D01*
X352887Y448484D01*
X352913Y448476D01*
X352937Y448464D01*
X353106Y448419D01*
X353273Y448369D01*
X353300Y448366D01*
X353325Y448359D01*
X353656Y448332D01*
X363340Y448332D01*
X363358Y448334D01*
X363376Y448333D01*
X363558Y448354D01*
X363741Y448372D01*
X363758Y448378D01*
X363776Y448380D01*
X363950Y448437D01*
X364126Y448490D01*
X364141Y448499D01*
X364158Y448504D01*
X364319Y448595D01*
X364480Y448682D01*
X364493Y448694D01*
X364509Y448702D01*
X364648Y448823D01*
X364789Y448940D01*
X364800Y448954D01*
X364814Y448966D01*
X364926Y449111D01*
X365041Y449254D01*
X365050Y449270D01*
X365061Y449284D01*
X365143Y449449D01*
X365227Y449611D01*
X365232Y449628D01*
X365240Y449644D01*
X365288Y449822D01*
X365338Y449998D01*
X365340Y450016D01*
X365344Y450033D01*
X365372Y450364D01*
X365372Y457967D01*
X366711Y459306D01*
X372105Y459306D01*
X373445Y457967D01*
X373445Y450364D01*
X373447Y450346D01*
X373445Y450328D01*
X373467Y450146D01*
X373485Y449963D01*
X373490Y449946D01*
X373492Y449928D01*
X373549Y449754D01*
X373603Y449578D01*
X373612Y449562D01*
X373617Y449545D01*
X373707Y449385D01*
X373795Y449224D01*
X373806Y449210D01*
X373815Y449195D01*
X373935Y449056D01*
X374053Y448915D01*
X374066Y448904D01*
X374078Y448890D01*
X374223Y448778D01*
X374366Y448662D01*
X374382Y448654D01*
X374396Y448643D01*
X374561Y448561D01*
X374724Y448477D01*
X374741Y448472D01*
X374757Y448464D01*
X374935Y448416D01*
X375111Y448366D01*
X375128Y448364D01*
X375146Y448359D01*
X375476Y448332D01*
X382770Y448332D01*
X384730Y447520D01*
X389491Y442759D01*
X390303Y440799D01*
X390303Y433341D01*
X390304Y433332D01*
X390304Y433322D01*
X390324Y433131D01*
X390343Y432941D01*
X390346Y432931D01*
X390347Y432922D01*
X390405Y432738D01*
X390462Y432556D01*
X390466Y432547D01*
X390469Y432538D01*
X390562Y432370D01*
X390653Y432202D01*
X390659Y432194D01*
X390664Y432186D01*
X390789Y432038D01*
X390911Y431892D01*
X390919Y431886D01*
X390925Y431879D01*
X391076Y431760D01*
X391225Y431640D01*
X391233Y431636D01*
X391241Y431630D01*
X391413Y431542D01*
X391582Y431455D01*
X391591Y431452D01*
X391600Y431448D01*
X391785Y431396D01*
X391969Y431343D01*
X391979Y431342D01*
X391988Y431340D01*
X392178Y431326D01*
X392370Y431310D01*
X392380Y431311D01*
X392390Y431311D01*
X392551Y431331D01*
X405252Y431331D01*
X406591Y429992D01*
X406591Y426368D01*
X406594Y426341D01*
X406592Y426314D01*
X406614Y426140D01*
X406631Y425967D01*
X406639Y425941D01*
X406642Y425915D01*
X406698Y425749D01*
X406749Y425582D01*
X406762Y425558D01*
X406771Y425533D01*
X406858Y425382D01*
X406941Y425228D01*
X406958Y425208D01*
X406971Y425184D01*
X407186Y424931D01*
X411735Y420382D01*
X411749Y420371D01*
X411761Y420357D01*
X411905Y420243D01*
X412047Y420127D01*
X412063Y420119D01*
X412077Y420108D01*
X412241Y420024D01*
X412403Y419938D01*
X412420Y419933D01*
X412436Y419925D01*
X412613Y419876D01*
X412789Y419824D01*
X412806Y419822D01*
X412824Y419817D01*
X413007Y419804D01*
X413190Y419787D01*
X413207Y419789D01*
X413225Y419788D01*
X413407Y419811D01*
X413590Y419831D01*
X413607Y419836D01*
X413625Y419838D01*
X413798Y419896D01*
X413974Y419952D01*
X413989Y419961D01*
X414006Y419966D01*
X414166Y420058D01*
X414326Y420147D01*
X414339Y420158D01*
X414355Y420167D01*
X414608Y420382D01*
X416057Y421831D01*
X425133Y421831D01*
X425150Y421833D01*
X425168Y421832D01*
X425350Y421853D01*
X425533Y421871D01*
X425550Y421876D01*
X425568Y421878D01*
X425742Y421935D01*
X425918Y421989D01*
X425934Y421998D01*
X425951Y422003D01*
X426111Y422094D01*
X426272Y422181D01*
X426286Y422192D01*
X426301Y422201D01*
X426441Y422321D01*
X426581Y422439D01*
X426593Y422453D01*
X426606Y422464D01*
X426719Y422609D01*
X426834Y422753D01*
X426842Y422768D01*
X426853Y422782D01*
X426935Y422947D01*
X427019Y423110D01*
X427024Y423127D01*
X427032Y423143D01*
X427080Y423320D01*
X427131Y423497D01*
X427132Y423515D01*
X427137Y423532D01*
X427164Y423862D01*
X427164Y460536D01*
X427161Y460562D01*
X427163Y460589D01*
X427141Y460763D01*
X427124Y460936D01*
X427116Y460962D01*
X427113Y460988D01*
X427057Y461154D01*
X427006Y461321D01*
X426993Y461345D01*
X426984Y461370D01*
X426897Y461522D01*
X426814Y461675D01*
X426797Y461696D01*
X426784Y461719D01*
X426569Y461972D01*
X420153Y468388D01*
X420132Y468405D01*
X420115Y468425D01*
X419977Y468532D01*
X419841Y468643D01*
X419818Y468655D01*
X419797Y468672D01*
X419640Y468750D01*
X419486Y468832D01*
X419460Y468839D01*
X419436Y468851D01*
X419267Y468897D01*
X419100Y468946D01*
X419073Y468949D01*
X419047Y468956D01*
X418717Y468983D01*
X412197Y468983D01*
X412181Y468995D01*
X412045Y469106D01*
X412022Y469118D01*
X412001Y469135D01*
X411844Y469213D01*
X411690Y469295D01*
X411664Y469302D01*
X411640Y469314D01*
X411471Y469360D01*
X411304Y469409D01*
X411277Y469412D01*
X411251Y469419D01*
X410921Y469446D01*
X407544Y469446D01*
X407518Y469443D01*
X407491Y469445D01*
X407317Y469423D01*
X407144Y469406D01*
X407118Y469398D01*
X407092Y469395D01*
X406926Y469339D01*
X406759Y469288D01*
X406735Y469275D01*
X406710Y469266D01*
X406558Y469179D01*
X406405Y469096D01*
X406384Y469079D01*
X406361Y469066D01*
X406108Y468851D01*
X404251Y466994D01*
X392357Y466994D01*
X391017Y468333D01*
X391017Y481228D01*
X392357Y482567D01*
X404251Y482567D01*
X406108Y480710D01*
X406129Y480693D01*
X406146Y480673D01*
X406284Y480566D01*
X406420Y480455D01*
X406443Y480443D01*
X406464Y480426D01*
X406621Y480348D01*
X406775Y480266D01*
X406801Y480259D01*
X406825Y480247D01*
X406994Y480201D01*
X407161Y480152D01*
X407188Y480149D01*
X407214Y480142D01*
X407544Y480115D01*
X408854Y480115D01*
X408872Y480117D01*
X408890Y480116D01*
X409072Y480137D01*
X409255Y480155D01*
X409272Y480160D01*
X409290Y480162D01*
X409464Y480219D01*
X409640Y480273D01*
X409655Y480282D01*
X409672Y480287D01*
X409833Y480378D01*
X409994Y480465D01*
X410007Y480476D01*
X410023Y480485D01*
X410162Y480605D01*
X410303Y480723D01*
X410314Y480737D01*
X410328Y480748D01*
X410440Y480893D01*
X410555Y481037D01*
X410564Y481052D01*
X410575Y481066D01*
X410657Y481231D01*
X410741Y481394D01*
X410746Y481411D01*
X410754Y481427D01*
X410802Y481605D01*
X410852Y481781D01*
X410854Y481799D01*
X410858Y481816D01*
X410886Y482146D01*
X410886Y490217D01*
X412225Y491556D01*
X426419Y491556D01*
X427759Y490217D01*
X427759Y476712D01*
X427762Y476685D01*
X427760Y476659D01*
X427782Y476485D01*
X427799Y476311D01*
X427807Y476286D01*
X427810Y476259D01*
X427866Y476094D01*
X427917Y475927D01*
X427930Y475903D01*
X427938Y475878D01*
X428026Y475726D01*
X428109Y475572D01*
X428126Y475552D01*
X428139Y475529D01*
X428354Y475276D01*
X437021Y466609D01*
X437833Y464648D01*
X437833Y444662D01*
X437835Y444645D01*
X437834Y444627D01*
X437855Y444445D01*
X437873Y444262D01*
X437878Y444245D01*
X437880Y444227D01*
X437937Y444053D01*
X437991Y443877D01*
X438000Y443861D01*
X438005Y443844D01*
X438096Y443684D01*
X438183Y443523D01*
X438194Y443509D01*
X438203Y443494D01*
X438323Y443354D01*
X438441Y443214D01*
X438455Y443202D01*
X438466Y443189D01*
X438611Y443076D01*
X438755Y442961D01*
X438770Y442953D01*
X438784Y442942D01*
X438949Y442860D01*
X439112Y442776D01*
X439129Y442771D01*
X439145Y442763D01*
X439323Y442715D01*
X439499Y442664D01*
X439517Y442663D01*
X439534Y442658D01*
X439864Y442631D01*
X440945Y442631D01*
X443175Y441707D01*
X444882Y440000D01*
X445806Y437770D01*
X445806Y435355D01*
X445509Y434639D01*
X445504Y434622D01*
X445496Y434606D01*
X445446Y434429D01*
X445393Y434253D01*
X445391Y434236D01*
X445386Y434218D01*
X445372Y434036D01*
X445355Y433853D01*
X445357Y433835D01*
X445355Y433817D01*
X445377Y433635D01*
X445396Y433452D01*
X445402Y433435D01*
X445404Y433417D01*
X445462Y433242D01*
X445516Y433068D01*
X445525Y433052D01*
X445530Y433035D01*
X445622Y432875D01*
X445710Y432715D01*
X445721Y432701D01*
X445730Y432685D01*
X445851Y432547D01*
X445969Y432406D01*
X445983Y432395D01*
X445994Y432382D01*
X446141Y432269D01*
X446283Y432155D01*
X446299Y432147D01*
X446314Y432136D01*
X446609Y431985D01*
X448718Y431111D01*
X448788Y431090D01*
X448855Y431060D01*
X448980Y431032D01*
X449103Y430995D01*
X449176Y430988D01*
X449248Y430972D01*
X449376Y430969D01*
X449504Y430957D01*
X449577Y430964D01*
X449651Y430963D01*
X449777Y430985D01*
X449904Y430998D01*
X449975Y431020D01*
X450047Y431033D01*
X450166Y431080D01*
X450289Y431118D01*
X450353Y431154D01*
X450422Y431181D01*
X450530Y431250D01*
X450642Y431311D01*
X450698Y431359D01*
X450760Y431399D01*
X450852Y431488D01*
X450950Y431571D01*
X450996Y431628D01*
X451049Y431680D01*
X451121Y431785D01*
X451201Y431885D01*
X451234Y431951D01*
X451276Y432012D01*
X451345Y432166D01*
X451385Y432244D01*
X451394Y432276D01*
X451411Y432315D01*
X451595Y432839D01*
X451647Y432875D01*
X451738Y432971D01*
X451836Y433061D01*
X451876Y433117D01*
X451923Y433167D01*
X452021Y433317D01*
X452072Y433388D01*
X452084Y433414D01*
X452104Y433446D01*
X452326Y433857D01*
X452353Y433920D01*
X452387Y433980D01*
X452430Y434106D01*
X452481Y434228D01*
X452495Y434296D01*
X452517Y434361D01*
X452534Y434493D01*
X452560Y434623D01*
X453077Y435300D01*
X453099Y435336D01*
X453250Y435568D01*
X453659Y436326D01*
X453716Y436354D01*
X453821Y436435D01*
X453931Y436509D01*
X453980Y436557D01*
X454035Y436600D01*
X454155Y436733D01*
X454215Y436794D01*
X454232Y436818D01*
X454257Y436846D01*
X454540Y437217D01*
X454576Y437276D01*
X454620Y437329D01*
X454682Y437447D01*
X454752Y437560D01*
X454775Y437625D01*
X454807Y437686D01*
X454845Y437813D01*
X454891Y437938D01*
X455507Y438526D01*
X455535Y438558D01*
X455720Y438763D01*
X456243Y439448D01*
X456303Y439467D01*
X456420Y439530D01*
X456540Y439586D01*
X456596Y439626D01*
X456656Y439659D01*
X456796Y439772D01*
X456866Y439823D01*
X456885Y439845D01*
X456914Y439868D01*
X457252Y440190D01*
X457297Y440243D01*
X457349Y440289D01*
X457428Y440395D01*
X457515Y440496D01*
X457548Y440556D01*
X457590Y440611D01*
X457647Y440731D01*
X457712Y440847D01*
X458412Y441331D01*
X458445Y441359D01*
X458660Y441533D01*
X459283Y442127D01*
X459346Y442136D01*
X459471Y442181D01*
X459599Y442217D01*
X459660Y442248D01*
X459725Y442271D01*
X459880Y442361D01*
X459957Y442400D01*
X459980Y442418D01*
X460012Y442437D01*
X460203Y442569D01*
X460308Y442658D01*
X460418Y442740D01*
X460461Y442788D01*
X460510Y442830D01*
X460595Y442937D01*
X460687Y443039D01*
X460720Y443095D01*
X460760Y443146D01*
X460822Y443268D01*
X460891Y443386D01*
X460913Y443447D01*
X460942Y443505D01*
X460979Y443637D01*
X461024Y443766D01*
X461033Y443830D01*
X461050Y443893D01*
X461060Y444029D01*
X461078Y444165D01*
X461074Y444229D01*
X461079Y444294D01*
X461062Y444430D01*
X461053Y444567D01*
X461037Y444629D01*
X461029Y444694D01*
X460985Y444824D01*
X460950Y444956D01*
X460918Y445023D01*
X460900Y445075D01*
X460860Y445144D01*
X460808Y445256D01*
X432032Y495098D01*
X431979Y495172D01*
X431934Y495252D01*
X431862Y495335D01*
X431797Y495425D01*
X431730Y495487D01*
X431671Y495556D01*
X431583Y495624D01*
X431502Y495700D01*
X431425Y495747D01*
X431353Y495803D01*
X431254Y495852D01*
X431159Y495910D01*
X431074Y495942D01*
X430992Y495982D01*
X430885Y496011D01*
X430781Y496049D01*
X430691Y496063D01*
X430603Y496087D01*
X430466Y496098D01*
X430383Y496111D01*
X430336Y496109D01*
X430273Y496114D01*
X260290Y496114D01*
X260199Y496105D01*
X260108Y496106D01*
X259999Y496085D01*
X259889Y496074D01*
X259802Y496047D01*
X259713Y496030D01*
X259610Y495988D01*
X259504Y495956D01*
X259424Y495913D01*
X259340Y495878D01*
X259247Y495817D01*
X259150Y495764D01*
X259080Y495706D01*
X259004Y495656D01*
X258926Y495577D01*
X258841Y495506D01*
X258784Y495436D01*
X258719Y495371D01*
X258641Y495258D01*
X258589Y495193D01*
X258567Y495150D01*
X258531Y495098D01*
X229221Y444332D01*
X229151Y444177D01*
X229076Y444024D01*
X229068Y443993D01*
X229055Y443965D01*
X229017Y443799D01*
X228974Y443634D01*
X228972Y443603D01*
X228965Y443572D01*
X228961Y443402D01*
X228951Y443232D01*
X228955Y443201D01*
X228954Y443170D01*
X228983Y443002D01*
X229007Y442834D01*
X229018Y442804D01*
X229023Y442773D01*
X229084Y442615D01*
X229141Y442454D01*
X229157Y442427D01*
X229169Y442398D01*
X229260Y442255D01*
X229347Y442108D01*
X229368Y442085D01*
X229385Y442058D01*
X229504Y441935D01*
X229617Y441810D01*
X229643Y441791D01*
X229665Y441768D01*
X229805Y441671D01*
X229941Y441571D01*
X229970Y441557D01*
X229996Y441539D01*
X230152Y441472D01*
X230306Y441400D01*
X230337Y441392D01*
X230365Y441380D01*
X230457Y441361D01*
X231109Y440739D01*
X231143Y440713D01*
X231356Y440538D01*
X232065Y440048D01*
X232087Y439989D01*
X232155Y439875D01*
X232217Y439757D01*
X232260Y439703D01*
X232296Y439644D01*
X232415Y439511D01*
X232469Y439443D01*
X232492Y439424D01*
X232516Y439397D01*
X232854Y439074D01*
X232909Y439032D01*
X232957Y438983D01*
X233067Y438909D01*
X233172Y438827D01*
X233233Y438796D01*
X233290Y438757D01*
X233413Y438706D01*
X233532Y438646D01*
X234049Y437969D01*
X234078Y437938D01*
X234261Y437732D01*
X234885Y437137D01*
X234897Y437076D01*
X234947Y436953D01*
X234989Y436827D01*
X235023Y436767D01*
X235049Y436703D01*
X235146Y436552D01*
X235189Y436477D01*
X235208Y436455D01*
X235229Y436424D01*
X235512Y436052D01*
X235559Y436002D01*
X235599Y435946D01*
X235681Y435869D01*
X235709Y435837D01*
X235723Y435826D01*
X235787Y435758D01*
X235843Y435718D01*
X235893Y435671D01*
X236006Y435601D01*
X236114Y435524D01*
X236115Y435524D01*
X236519Y434774D01*
X236543Y434739D01*
X236692Y434507D01*
X237215Y433822D01*
X237217Y433759D01*
X237247Y433629D01*
X237269Y433498D01*
X237293Y433434D01*
X237309Y433367D01*
X237381Y433203D01*
X237412Y433122D01*
X237428Y433097D01*
X237443Y433063D01*
X237664Y432652D01*
X237703Y432595D01*
X237734Y432533D01*
X237815Y432428D01*
X237890Y432318D01*
X237939Y432270D01*
X237981Y432215D01*
X238082Y432129D01*
X238177Y432036D01*
X238177Y432035D01*
X238459Y431232D01*
X238477Y431193D01*
X238588Y430940D01*
X238997Y430182D01*
X238989Y430120D01*
X238999Y429987D01*
X239000Y429854D01*
X239014Y429787D01*
X239019Y429718D01*
X239065Y429545D01*
X239082Y429460D01*
X239094Y429433D01*
X239103Y429397D01*
X239258Y428957D01*
X239287Y428894D01*
X239308Y428828D01*
X239372Y428712D01*
X239429Y428592D01*
X239470Y428536D01*
X239503Y428476D01*
X239589Y428375D01*
X239668Y428268D01*
X239668Y428267D01*
X239821Y427430D01*
X239833Y427389D01*
X239903Y427122D01*
X240188Y426309D01*
X240171Y426248D01*
X240160Y426116D01*
X240140Y425984D01*
X240143Y425916D01*
X240138Y425847D01*
X240155Y425669D01*
X240160Y425582D01*
X240167Y425554D01*
X240170Y425517D01*
X240254Y425057D01*
X240273Y424991D01*
X240284Y424923D01*
X240329Y424798D01*
X240366Y424670D01*
X240397Y424609D01*
X240421Y424544D01*
X240490Y424431D01*
X240551Y424313D01*
X240571Y423461D01*
X240577Y423418D01*
X240604Y423144D01*
X240705Y422590D01*
X240714Y422560D01*
X240717Y422529D01*
X240769Y422367D01*
X240816Y422203D01*
X240831Y422175D01*
X240841Y422145D01*
X240923Y421997D01*
X241002Y421846D01*
X241022Y421821D01*
X241037Y421794D01*
X241147Y421665D01*
X241254Y421532D01*
X241278Y421512D01*
X241299Y421488D01*
X241432Y421383D01*
X241563Y421274D01*
X241591Y421259D01*
X241616Y421240D01*
X241767Y421164D01*
X241917Y421082D01*
X241947Y421073D01*
X241975Y421059D01*
X242140Y421014D01*
X242302Y420964D01*
X242333Y420961D01*
X242364Y420953D01*
X242533Y420941D01*
X242703Y420924D01*
X242734Y420927D01*
X242765Y420925D01*
X242934Y420947D01*
X243103Y420964D01*
X243133Y420973D01*
X243165Y420977D01*
X243481Y421079D01*
X244855Y421648D01*
X247270Y421648D01*
X249500Y420724D01*
X251207Y419017D01*
X252131Y416787D01*
X252131Y414372D01*
X251207Y412142D01*
X249500Y410435D01*
X247270Y409511D01*
X244855Y409511D01*
X242625Y410435D01*
X242002Y411057D01*
X241912Y411132D01*
X241827Y411213D01*
X241756Y411259D01*
X241691Y411312D01*
X241587Y411367D01*
X241489Y411431D01*
X241410Y411461D01*
X241335Y411501D01*
X241223Y411534D01*
X241114Y411577D01*
X241030Y411592D01*
X240949Y411616D01*
X240832Y411626D01*
X240717Y411647D01*
X240632Y411645D01*
X240548Y411652D01*
X240431Y411640D01*
X240314Y411637D01*
X240232Y411618D01*
X240148Y411609D01*
X240036Y411573D01*
X239922Y411548D01*
X239845Y411513D01*
X239764Y411487D01*
X239661Y411431D01*
X239555Y411383D01*
X239486Y411333D01*
X239412Y411293D01*
X239322Y411217D01*
X239227Y411149D01*
X239169Y411087D01*
X239105Y411032D01*
X239032Y410940D01*
X238952Y410855D01*
X238908Y410783D01*
X238855Y410716D01*
X238802Y410612D01*
X238740Y410512D01*
X238716Y410451D01*
X238689Y410423D01*
X238635Y410380D01*
X238548Y410280D01*
X238455Y410185D01*
X238417Y410127D01*
X238372Y410075D01*
X238322Y409989D01*
X238317Y409983D01*
X238307Y409964D01*
X238281Y409920D01*
X238234Y409848D01*
X238223Y409821D01*
X238204Y409789D01*
X238002Y409368D01*
X237979Y409303D01*
X237947Y409242D01*
X237910Y409114D01*
X237865Y408989D01*
X237854Y408921D01*
X237835Y408855D01*
X237825Y408723D01*
X237805Y408591D01*
X237321Y407890D01*
X237300Y407853D01*
X237160Y407614D01*
X236788Y406838D01*
X236733Y406807D01*
X236631Y406722D01*
X236524Y406643D01*
X236478Y406592D01*
X236425Y406547D01*
X236312Y406408D01*
X236254Y406344D01*
X236239Y406319D01*
X236215Y406290D01*
X235950Y405906D01*
X235916Y405846D01*
X235875Y405790D01*
X235819Y405670D01*
X235755Y405554D01*
X235734Y405488D01*
X235705Y405426D01*
X235673Y405297D01*
X235633Y405170D01*
X235045Y404553D01*
X235019Y404520D01*
X234844Y404306D01*
X234354Y403597D01*
X234295Y403576D01*
X234181Y403507D01*
X234063Y403446D01*
X234010Y403403D01*
X233951Y403367D01*
X233817Y403248D01*
X233750Y403194D01*
X233731Y403171D01*
X233703Y403146D01*
X233380Y402808D01*
X233338Y402754D01*
X233289Y402706D01*
X233215Y402596D01*
X233133Y402491D01*
X233102Y402429D01*
X233063Y402372D01*
X233012Y402250D01*
X232953Y402131D01*
X232953Y402130D01*
X232276Y401614D01*
X232245Y401585D01*
X232038Y401401D01*
X231444Y400778D01*
X231382Y400766D01*
X231259Y400715D01*
X231133Y400673D01*
X231073Y400639D01*
X231009Y400613D01*
X230858Y400516D01*
X230783Y400473D01*
X230761Y400454D01*
X230730Y400434D01*
X230359Y400150D01*
X230308Y400103D01*
X230252Y400063D01*
X230161Y399966D01*
X230064Y399876D01*
X230024Y399820D01*
X229977Y399769D01*
X229907Y399656D01*
X229830Y399548D01*
X229081Y399144D01*
X229046Y399120D01*
X228813Y398971D01*
X228128Y398448D01*
X228065Y398446D01*
X227936Y398415D01*
X227804Y398393D01*
X227740Y398369D01*
X227673Y398353D01*
X227509Y398281D01*
X227428Y398251D01*
X227403Y398235D01*
X227369Y398220D01*
X226958Y397998D01*
X226901Y397960D01*
X226839Y397929D01*
X226734Y397847D01*
X226624Y397773D01*
X226576Y397724D01*
X226522Y397681D01*
X226435Y397581D01*
X226342Y397486D01*
X225538Y397203D01*
X225500Y397185D01*
X225247Y397075D01*
X224489Y396665D01*
X224426Y396673D01*
X224293Y396663D01*
X224161Y396662D01*
X224093Y396648D01*
X224025Y396643D01*
X223851Y396598D01*
X223766Y396580D01*
X223739Y396568D01*
X223704Y396559D01*
X223263Y396404D01*
X223200Y396375D01*
X223134Y396354D01*
X223018Y396290D01*
X222898Y396234D01*
X222842Y396193D01*
X222782Y396160D01*
X222681Y396074D01*
X222574Y395995D01*
X221736Y395842D01*
X221695Y395830D01*
X221428Y395760D01*
X220615Y395474D01*
X220555Y395492D01*
X220422Y395503D01*
X220291Y395523D01*
X220222Y395519D01*
X220153Y395525D01*
X219975Y395507D01*
X219889Y395503D01*
X219860Y395496D01*
X219823Y395492D01*
X219364Y395408D01*
X219297Y395389D01*
X219229Y395379D01*
X219104Y395334D01*
X218977Y395297D01*
X218915Y395265D01*
X218850Y395242D01*
X218737Y395173D01*
X218619Y395112D01*
X218619Y395111D01*
X217768Y395091D01*
X217725Y395086D01*
X217451Y395059D01*
X216603Y394904D01*
X216546Y394930D01*
X216417Y394962D01*
X216290Y395002D01*
X216222Y395010D01*
X216155Y395026D01*
X215976Y395036D01*
X215890Y395046D01*
X215861Y395043D01*
X215824Y395045D01*
X215357Y395034D01*
X215288Y395026D01*
X215219Y395026D01*
X215089Y395001D01*
X214957Y394985D01*
X214892Y394963D01*
X214824Y394950D01*
X214701Y394900D01*
X214575Y394858D01*
X214575Y394857D01*
X213731Y394971D01*
X213688Y394972D01*
X213412Y394988D01*
X212551Y394968D01*
X212499Y395003D01*
X212376Y395055D01*
X212258Y395114D01*
X212191Y395132D01*
X212128Y395159D01*
X211952Y395197D01*
X211869Y395220D01*
X211840Y395222D01*
X211803Y395230D01*
X211340Y395292D01*
X211271Y395294D01*
X211203Y395305D01*
X211071Y395301D01*
X210938Y395305D01*
X210870Y395294D01*
X210801Y395292D01*
X210672Y395261D01*
X210541Y395240D01*
X210540Y395239D01*
X209725Y395483D01*
X209682Y395492D01*
X209413Y395550D01*
X208559Y395665D01*
X208513Y395708D01*
X208400Y395778D01*
X208292Y395855D01*
X208229Y395884D01*
X208170Y395920D01*
X208004Y395985D01*
X207925Y396020D01*
X207896Y396027D01*
X207861Y396041D01*
X207414Y396174D01*
X207346Y396187D01*
X207281Y396209D01*
X207149Y396226D01*
X207018Y396251D01*
X206950Y396250D01*
X206881Y396259D01*
X206749Y396249D01*
X206616Y396248D01*
X205848Y396616D01*
X205808Y396631D01*
X205551Y396731D01*
X204562Y397027D01*
X204457Y397096D01*
X204313Y397196D01*
X204289Y397206D01*
X204267Y397220D01*
X204104Y397286D01*
X203943Y397355D01*
X203917Y397360D01*
X203893Y397370D01*
X203720Y397402D01*
X203549Y397438D01*
X203523Y397439D01*
X203497Y397443D01*
X203322Y397441D01*
X203146Y397442D01*
X203121Y397437D01*
X203094Y397437D01*
X202924Y397400D01*
X202751Y397367D01*
X202727Y397357D01*
X202701Y397351D01*
X202540Y397281D01*
X202378Y397215D01*
X202356Y397200D01*
X202332Y397190D01*
X202188Y397089D01*
X202043Y396992D01*
X202024Y396973D01*
X202003Y396959D01*
X201882Y396832D01*
X201758Y396708D01*
X201741Y396684D01*
X201725Y396667D01*
X201680Y396596D01*
X201569Y396435D01*
X182473Y363360D01*
X181865Y363780D01*
X181838Y363791D01*
X181816Y363809D01*
X181748Y363830D01*
X181682Y363858D01*
X181653Y363858D01*
X181625Y363866D01*
X181554Y363858D01*
X181483Y363858D01*
X181457Y363847D01*
X181428Y363844D01*
X181365Y363809D01*
X181300Y363781D01*
X181280Y363760D01*
X181254Y363746D01*
X181191Y363669D01*
X181161Y363639D01*
X181157Y363628D01*
X181149Y363618D01*
X171649Y347118D01*
X171624Y347045D01*
X171593Y346974D01*
X171593Y346951D01*
X171586Y346929D01*
X171592Y346853D01*
X171591Y346776D01*
X171600Y346751D01*
X171601Y346731D01*
X171622Y346691D01*
X171641Y346639D01*
X171643Y346634D01*
X171644Y346632D01*
X171649Y346620D01*
X181149Y330120D01*
X181168Y330098D01*
X181180Y330072D01*
X181233Y330024D01*
X181280Y329971D01*
X181306Y329958D01*
X181328Y329939D01*
X181395Y329915D01*
X181459Y329885D01*
X181488Y329883D01*
X181516Y329874D01*
X181587Y329879D01*
X181658Y329875D01*
X181685Y329886D01*
X181714Y329888D01*
X181805Y329930D01*
X181845Y329945D01*
X181853Y329952D01*
X181865Y329958D01*
X182473Y330378D01*
X202406Y295852D01*
X202520Y295694D01*
X202630Y295537D01*
X202636Y295532D01*
X202641Y295525D01*
X202783Y295393D01*
X202923Y295261D01*
X202930Y295256D01*
X202936Y295251D01*
X203100Y295150D01*
X203264Y295047D01*
X203272Y295044D01*
X203279Y295040D01*
X203460Y294974D01*
X203641Y294905D01*
X203649Y294904D01*
X203657Y294901D01*
X203846Y294872D01*
X204038Y294840D01*
X204047Y294841D01*
X204055Y294839D01*
X204245Y294848D01*
X204441Y294855D01*
X204450Y294857D01*
X204457Y294857D01*
X204505Y294869D01*
X204765Y294927D01*
X206302Y295401D01*
X206364Y295428D01*
X206585Y295512D01*
X207384Y295898D01*
X207436Y295889D01*
X207561Y295894D01*
X207686Y295889D01*
X207761Y295901D01*
X207838Y295904D01*
X207997Y295939D01*
X208083Y295953D01*
X208117Y295966D01*
X208162Y295976D01*
X208533Y296090D01*
X208604Y296120D01*
X208677Y296141D01*
X208789Y296198D01*
X208904Y296246D01*
X208968Y296290D01*
X209036Y296324D01*
X209134Y296402D01*
X209226Y296465D01*
X210097Y296597D01*
X210162Y296613D01*
X210393Y296664D01*
X211241Y296926D01*
X211291Y296910D01*
X211415Y296896D01*
X211538Y296873D01*
X211615Y296873D01*
X211691Y296865D01*
X211854Y296876D01*
X211941Y296877D01*
X211976Y296884D01*
X212022Y296887D01*
X212406Y296945D01*
X212480Y296964D01*
X212556Y296974D01*
X212675Y297014D01*
X212796Y297045D01*
X212865Y297078D01*
X212938Y297102D01*
X213046Y297164D01*
X213147Y297213D01*
X214028Y297213D01*
X214095Y297220D01*
X214331Y297236D01*
X215208Y297368D01*
X215255Y297345D01*
X215376Y297313D01*
X215494Y297271D01*
X215570Y297260D01*
X215644Y297241D01*
X215806Y297227D01*
X215893Y297215D01*
X215929Y297217D01*
X215974Y297214D01*
X216363Y297214D01*
X216439Y297221D01*
X216516Y297219D01*
X216639Y297241D01*
X216764Y297254D01*
X216837Y297276D01*
X216912Y297289D01*
X217029Y297335D01*
X217135Y297368D01*
X218007Y297237D01*
X218074Y297233D01*
X218310Y297214D01*
X219197Y297214D01*
X219240Y297184D01*
X219354Y297134D01*
X219465Y297076D01*
X219538Y297054D01*
X219609Y297023D01*
X219767Y296986D01*
X219851Y296961D01*
X219887Y296958D01*
X219932Y296947D01*
X220316Y296889D01*
X220392Y296885D01*
X220468Y296872D01*
X220593Y296875D01*
X220718Y296869D01*
X220794Y296880D01*
X220870Y296882D01*
X220992Y296910D01*
X221103Y296927D01*
X221945Y296667D01*
X222011Y296654D01*
X222241Y296600D01*
X223118Y296468D01*
X223156Y296431D01*
X223262Y296365D01*
X223363Y296290D01*
X223432Y296258D01*
X223497Y296217D01*
X223648Y296156D01*
X223727Y296119D01*
X223762Y296111D01*
X223805Y296094D01*
X224176Y295979D01*
X224251Y295964D01*
X224324Y295940D01*
X224448Y295924D01*
X224571Y295899D01*
X224647Y295899D01*
X224723Y295890D01*
X224848Y295899D01*
X224960Y295899D01*
X225754Y295517D01*
X225817Y295494D01*
X226036Y295406D01*
X226884Y295145D01*
X226916Y295103D01*
X227011Y295022D01*
X227100Y294933D01*
X227163Y294891D01*
X227221Y294841D01*
X227362Y294758D01*
X227435Y294710D01*
X227468Y294696D01*
X227508Y294673D01*
X227858Y294504D01*
X227930Y294478D01*
X227998Y294443D01*
X228118Y294409D01*
X228236Y294366D01*
X228312Y294355D01*
X228385Y294334D01*
X228510Y294325D01*
X228621Y294308D01*
X229349Y293812D01*
X229408Y293779D01*
X229612Y293660D01*
X230411Y293275D01*
X230437Y293230D01*
X230519Y293135D01*
X230593Y293034D01*
X230649Y292982D01*
X230699Y292924D01*
X230826Y292822D01*
X230891Y292763D01*
X230921Y292745D01*
X230957Y292716D01*
X231278Y292497D01*
X231346Y292460D01*
X231408Y292416D01*
X231522Y292364D01*
X231632Y292304D01*
X231705Y292282D01*
X231775Y292250D01*
X231897Y292222D01*
X232003Y292189D01*
X232649Y291590D01*
X232703Y291549D01*
X232887Y291401D01*
X233620Y290901D01*
X233639Y290852D01*
X233705Y290746D01*
X233764Y290635D01*
X233812Y290576D01*
X233853Y290511D01*
X233963Y290391D01*
X234018Y290323D01*
X234046Y290300D01*
X234077Y290266D01*
X234362Y290002D01*
X234423Y289956D01*
X234477Y289903D01*
X234583Y289835D01*
X234683Y289759D01*
X234751Y289726D01*
X234816Y289684D01*
X234932Y289638D01*
X235033Y289590D01*
X235582Y288901D01*
X235629Y288853D01*
X235789Y288678D01*
X236439Y288075D01*
X236450Y288024D01*
X236500Y287909D01*
X236542Y287791D01*
X236581Y287725D01*
X236611Y287655D01*
X236702Y287520D01*
X236746Y287444D01*
X236771Y287418D01*
X236796Y287379D01*
X237039Y287076D01*
X237092Y287021D01*
X237138Y286960D01*
X237232Y286877D01*
X237320Y286787D01*
X237383Y286744D01*
X237440Y286694D01*
X237549Y286631D01*
X237641Y286568D01*
X238077Y285813D01*
X238129Y285740D01*
X238174Y285661D01*
X238247Y285577D01*
X238311Y285487D01*
X238378Y285425D01*
X238437Y285356D01*
X238525Y285288D01*
X238606Y285212D01*
X238684Y285165D01*
X238755Y285109D01*
X238855Y285060D01*
X238949Y285002D01*
X239035Y284970D01*
X239116Y284930D01*
X239223Y284901D01*
X239327Y284863D01*
X239417Y284849D01*
X239505Y284825D01*
X239642Y284814D01*
X239725Y284801D01*
X239773Y284803D01*
X239835Y284798D01*
X253149Y284798D01*
X253176Y284801D01*
X253203Y284799D01*
X253377Y284821D01*
X253550Y284838D01*
X253576Y284846D01*
X253602Y284849D01*
X253768Y284905D01*
X253935Y284956D01*
X253959Y284969D01*
X253984Y284978D01*
X254135Y285065D01*
X254289Y285148D01*
X254309Y285165D01*
X254333Y285178D01*
X254586Y285393D01*
X255325Y286132D01*
X257555Y287056D01*
X259970Y287056D01*
X262200Y286132D01*
X263907Y284425D01*
X264831Y282195D01*
X264831Y279780D01*
X263907Y277550D01*
X262200Y275843D01*
X259970Y274919D01*
X257555Y274919D01*
X255325Y275843D01*
X254586Y276582D01*
X254565Y276599D01*
X254548Y276619D01*
X254410Y276726D01*
X254274Y276837D01*
X254251Y276849D01*
X254229Y276866D01*
X254072Y276944D01*
X253918Y277026D01*
X253893Y277033D01*
X253869Y277045D01*
X253699Y277091D01*
X253533Y277140D01*
X253506Y277143D01*
X253480Y277150D01*
X253149Y277177D01*
X244486Y277177D01*
X244393Y277167D01*
X244299Y277168D01*
X244193Y277148D01*
X244086Y277137D01*
X243996Y277109D01*
X243904Y277091D01*
X243804Y277050D01*
X243701Y277019D01*
X243618Y276974D01*
X243531Y276938D01*
X243442Y276878D01*
X243347Y276827D01*
X243275Y276767D01*
X243197Y276715D01*
X243120Y276638D01*
X243038Y276569D01*
X242979Y276496D01*
X242912Y276429D01*
X242853Y276339D01*
X242785Y276255D01*
X242742Y276172D01*
X242690Y276094D01*
X242649Y275994D01*
X242600Y275898D01*
X242574Y275808D01*
X242538Y275721D01*
X242518Y275615D01*
X242488Y275511D01*
X242481Y275417D01*
X242463Y275325D01*
X242462Y275192D01*
X242456Y275110D01*
X242461Y275060D01*
X242461Y274993D01*
X242475Y274802D01*
X242487Y274736D01*
X242521Y274502D01*
X242718Y273637D01*
X242699Y273588D01*
X242675Y273465D01*
X242643Y273345D01*
X242638Y273268D01*
X242623Y273193D01*
X242622Y273030D01*
X242617Y272943D01*
X242622Y272907D01*
X242621Y272861D01*
X242650Y272473D01*
X242664Y272398D01*
X242668Y272322D01*
X242698Y272200D01*
X242720Y272077D01*
X242748Y272006D01*
X242767Y271932D01*
X242821Y271819D01*
X242862Y271715D01*
X242796Y270836D01*
X242798Y270769D01*
X242798Y270738D01*
X242796Y270713D01*
X242797Y270698D01*
X242796Y270533D01*
X242863Y269648D01*
X242836Y269603D01*
X242795Y269485D01*
X242789Y269471D01*
X242788Y269470D01*
X242788Y269469D01*
X242744Y269370D01*
X242728Y269295D01*
X242703Y269223D01*
X242686Y269114D01*
X242677Y269083D01*
X242674Y269044D01*
X242659Y268976D01*
X242658Y268941D01*
X242651Y268895D01*
X242622Y268508D01*
X242624Y268431D01*
X242617Y268355D01*
X242629Y268230D01*
X242632Y268105D01*
X242649Y268031D01*
X242657Y267954D01*
X242694Y267835D01*
X242718Y267726D01*
X242522Y266867D01*
X242514Y266799D01*
X242477Y266566D01*
X242411Y265682D01*
X242378Y265641D01*
X242320Y265531D01*
X242253Y265425D01*
X242226Y265353D01*
X242190Y265285D01*
X242141Y265130D01*
X242110Y265048D01*
X242104Y265013D01*
X242090Y264969D01*
X242003Y264590D01*
X241994Y264514D01*
X241975Y264440D01*
X241969Y264315D01*
X241953Y264191D01*
X241959Y264114D01*
X241955Y264038D01*
X241974Y263914D01*
X241982Y263803D01*
X241660Y262982D01*
X241642Y262918D01*
X241571Y262692D01*
X241373Y261827D01*
X241335Y261792D01*
X241260Y261691D01*
X241178Y261597D01*
X241141Y261530D01*
X241095Y261468D01*
X241024Y261322D01*
X240981Y261246D01*
X240970Y261212D01*
X240949Y261170D01*
X240807Y260808D01*
X240787Y260735D01*
X240757Y260664D01*
X240732Y260542D01*
X240698Y260421D01*
X240693Y260345D01*
X240677Y260270D01*
X240677Y260144D01*
X240669Y260033D01*
X240228Y259270D01*
X240201Y259209D01*
X240097Y258997D01*
X239773Y258170D01*
X239729Y258141D01*
X239641Y258053D01*
X239546Y257971D01*
X239498Y257911D01*
X239444Y257857D01*
X239352Y257723D01*
X239298Y257654D01*
X239282Y257622D01*
X239256Y257584D01*
X239061Y257247D01*
X239030Y257178D01*
X238990Y257113D01*
X238947Y256995D01*
X238896Y256881D01*
X238879Y256806D01*
X238852Y256734D01*
X238834Y256610D01*
X238809Y256501D01*
X238259Y255812D01*
X238223Y255756D01*
X238133Y255625D01*
X238119Y255608D01*
X238113Y255598D01*
X238088Y255561D01*
X237645Y254793D01*
X237598Y254771D01*
X237497Y254697D01*
X237391Y254630D01*
X237335Y254577D01*
X237274Y254532D01*
X237162Y254413D01*
X237099Y254353D01*
X237078Y254324D01*
X237046Y254290D01*
X236804Y253987D01*
X236763Y253922D01*
X236713Y253864D01*
X236653Y253753D01*
X236586Y253648D01*
X236558Y253577D01*
X236521Y253510D01*
X236484Y253390D01*
X236443Y253286D01*
X235797Y252687D01*
X235752Y252636D01*
X235591Y252464D01*
X235038Y251770D01*
X234988Y251756D01*
X234877Y251697D01*
X234762Y251647D01*
X234699Y251603D01*
X234631Y251568D01*
X234503Y251467D01*
X234432Y251417D01*
X234407Y251391D01*
X234371Y251363D01*
X234086Y251098D01*
X234035Y251041D01*
X233978Y250990D01*
X233902Y250890D01*
X233819Y250796D01*
X233781Y250730D01*
X233735Y250669D01*
X233680Y250556D01*
X233625Y250460D01*
X232897Y249963D01*
X232845Y249920D01*
X232659Y249774D01*
X231469Y248669D01*
X231343Y248526D01*
X231213Y248382D01*
X231209Y248374D01*
X231203Y248368D01*
X231107Y248201D01*
X231009Y248035D01*
X231006Y248027D01*
X231001Y248019D01*
X230940Y247837D01*
X230876Y247655D01*
X230875Y247646D01*
X230872Y247638D01*
X230848Y247446D01*
X230822Y247256D01*
X230822Y247247D01*
X230821Y247238D01*
X230835Y247045D01*
X230847Y246854D01*
X230849Y246846D01*
X230849Y246837D01*
X230901Y246650D01*
X230950Y246465D01*
X230954Y246456D01*
X230957Y246449D01*
X230980Y246402D01*
X231092Y246165D01*
X249595Y214117D01*
X248968Y213820D01*
X248945Y213803D01*
X248918Y213793D01*
X248866Y213744D01*
X248809Y213701D01*
X248794Y213676D01*
X248773Y213657D01*
X248744Y213591D01*
X248708Y213529D01*
X248705Y213501D01*
X248693Y213474D01*
X248692Y213403D01*
X248683Y213332D01*
X248691Y213304D01*
X248691Y213276D01*
X248726Y213181D01*
X248737Y213140D01*
X248744Y213132D01*
X248749Y213120D01*
X258249Y196620D01*
X258300Y196561D01*
X258346Y196499D01*
X258365Y196487D01*
X258380Y196471D01*
X258450Y196437D01*
X258517Y196397D01*
X258542Y196393D01*
X258559Y196385D01*
X258604Y196383D01*
X258681Y196370D01*
X277681Y196370D01*
X277709Y196375D01*
G37*
G36*
X228092Y249566D02*
X228092Y249566D01*
X228165Y249563D01*
X228191Y249573D01*
X228218Y249574D01*
X228313Y249618D01*
X228351Y249632D01*
X228358Y249639D01*
X228369Y249644D01*
X231309Y251650D01*
X231332Y251672D01*
X231368Y251696D01*
X233976Y254118D01*
X233995Y254144D01*
X234027Y254173D01*
X236246Y256956D01*
X236260Y256984D01*
X236288Y257018D01*
X238067Y260101D01*
X238077Y260131D01*
X238099Y260168D01*
X239399Y263482D01*
X239404Y263513D01*
X239421Y263553D01*
X240212Y267023D01*
X240213Y267055D01*
X240223Y267097D01*
X240488Y270647D01*
X240484Y270678D01*
X240488Y270721D01*
X240221Y274271D01*
X240213Y274301D01*
X240210Y274344D01*
X239417Y277814D01*
X239404Y277843D01*
X239395Y277886D01*
X238094Y281199D01*
X238088Y281209D01*
X238085Y281220D01*
X238073Y281236D01*
X238062Y281266D01*
X236281Y284348D01*
X236260Y284372D01*
X236239Y284410D01*
X234019Y287192D01*
X233995Y287213D01*
X233969Y287247D01*
X231359Y289667D01*
X231331Y289684D01*
X231300Y289714D01*
X228359Y291718D01*
X228330Y291730D01*
X228294Y291755D01*
X225087Y293299D01*
X225056Y293307D01*
X225018Y293326D01*
X221616Y294375D01*
X221584Y294378D01*
X221543Y294391D01*
X218023Y294921D01*
X217992Y294919D01*
X217949Y294927D01*
X214390Y294926D01*
X214358Y294919D01*
X214315Y294920D01*
X210796Y294389D01*
X210766Y294378D01*
X210723Y294372D01*
X207322Y293322D01*
X207294Y293307D01*
X207252Y293295D01*
X204046Y291750D01*
X204024Y291733D01*
X203999Y291724D01*
X203945Y291674D01*
X203887Y291630D01*
X203874Y291606D01*
X203854Y291587D01*
X203825Y291520D01*
X203789Y291457D01*
X203785Y291430D01*
X203774Y291405D01*
X203774Y291332D01*
X203765Y291260D01*
X203772Y291233D01*
X203772Y291206D01*
X203809Y291108D01*
X203820Y291069D01*
X203826Y291061D01*
X203830Y291050D01*
X227655Y249807D01*
X227673Y249786D01*
X227685Y249761D01*
X227739Y249712D01*
X227787Y249658D01*
X227812Y249646D01*
X227832Y249628D01*
X227901Y249603D01*
X227966Y249572D01*
X227994Y249571D01*
X228019Y249562D01*
X228092Y249566D01*
G37*
G36*
X462503Y249567D02*
X462503Y249567D01*
X462576Y249567D01*
X462601Y249578D01*
X462628Y249581D01*
X462692Y249617D01*
X462759Y249645D01*
X462778Y249665D01*
X462801Y249678D01*
X462868Y249759D01*
X462897Y249789D01*
X462900Y249798D01*
X462907Y249807D01*
X486732Y291050D01*
X486741Y291076D01*
X486757Y291098D01*
X486772Y291170D01*
X486796Y291239D01*
X486793Y291266D01*
X486799Y291293D01*
X486786Y291364D01*
X486780Y291437D01*
X486768Y291461D01*
X486763Y291488D01*
X486722Y291549D01*
X486689Y291614D01*
X486668Y291631D01*
X486652Y291654D01*
X486567Y291714D01*
X486535Y291740D01*
X486526Y291743D01*
X486517Y291750D01*
X483310Y293295D01*
X483279Y293303D01*
X483241Y293322D01*
X479840Y294372D01*
X479808Y294375D01*
X479767Y294389D01*
X476247Y294920D01*
X476216Y294918D01*
X476173Y294926D01*
X472613Y294927D01*
X472582Y294920D01*
X472539Y294921D01*
X469019Y294391D01*
X468989Y294380D01*
X468947Y294375D01*
X465545Y293326D01*
X465517Y293311D01*
X465476Y293299D01*
X462268Y291755D01*
X462243Y291736D01*
X462204Y291718D01*
X459262Y289714D01*
X459240Y289691D01*
X459204Y289667D01*
X456594Y287247D01*
X456575Y287221D01*
X456543Y287192D01*
X454323Y284410D01*
X454309Y284381D01*
X454281Y284348D01*
X452501Y281266D01*
X452491Y281236D01*
X452468Y281199D01*
X451167Y277886D01*
X451162Y277854D01*
X451145Y277814D01*
X450352Y274344D01*
X450352Y274312D01*
X450341Y274271D01*
X450074Y270721D01*
X450078Y270690D01*
X450074Y270647D01*
X450339Y267097D01*
X450348Y267066D01*
X450351Y267023D01*
X451142Y263553D01*
X451155Y263524D01*
X451164Y263482D01*
X452463Y260168D01*
X452481Y260141D01*
X452496Y260101D01*
X454275Y257018D01*
X454296Y256994D01*
X454317Y256956D01*
X456535Y254173D01*
X456560Y254152D01*
X456586Y254118D01*
X459195Y251696D01*
X459209Y251687D01*
X459212Y251683D01*
X459228Y251674D01*
X459253Y251650D01*
X462194Y249644D01*
X462219Y249633D01*
X462240Y249616D01*
X462310Y249595D01*
X462377Y249567D01*
X462404Y249567D01*
X462430Y249559D01*
X462503Y249567D01*
G37*
G36*
X476064Y398084D02*
X476064Y398084D01*
X476110Y398082D01*
X479676Y398561D01*
X479707Y398572D01*
X479752Y398577D01*
X483199Y399608D01*
X483229Y399624D01*
X483273Y399636D01*
X486516Y401194D01*
X486539Y401211D01*
X486565Y401221D01*
X486617Y401270D01*
X486675Y401314D01*
X486689Y401338D01*
X486709Y401358D01*
X486738Y401424D01*
X486774Y401486D01*
X486777Y401514D01*
X486788Y401540D01*
X486789Y401612D01*
X486798Y401684D01*
X486790Y401711D01*
X486790Y401739D01*
X486754Y401835D01*
X486743Y401875D01*
X486736Y401883D01*
X486732Y401894D01*
X463700Y441551D01*
X463682Y441572D01*
X463670Y441597D01*
X463616Y441645D01*
X463568Y441699D01*
X463543Y441711D01*
X463522Y441730D01*
X463454Y441754D01*
X463389Y441785D01*
X463361Y441786D01*
X463334Y441795D01*
X463262Y441790D01*
X463190Y441793D01*
X463164Y441783D01*
X463136Y441781D01*
X463043Y441738D01*
X463004Y441723D01*
X462996Y441716D01*
X462985Y441711D01*
X460025Y439665D01*
X460002Y439641D01*
X459964Y439616D01*
X457361Y437132D01*
X457342Y437105D01*
X457308Y437074D01*
X455125Y434214D01*
X455111Y434184D01*
X455083Y434148D01*
X453374Y430982D01*
X453364Y430950D01*
X453342Y430910D01*
X452150Y427515D01*
X452145Y427482D01*
X452130Y427439D01*
X451483Y423900D01*
X451484Y423867D01*
X451475Y423822D01*
X451390Y420225D01*
X451396Y420192D01*
X451395Y420147D01*
X451873Y416581D01*
X451884Y416549D01*
X451890Y416504D01*
X452921Y413057D01*
X452936Y413028D01*
X452949Y412984D01*
X454506Y409740D01*
X454526Y409714D01*
X454546Y409672D01*
X456591Y406712D01*
X456615Y406689D01*
X456641Y406652D01*
X459124Y404048D01*
X459151Y404029D01*
X459182Y403996D01*
X462042Y401813D01*
X462072Y401798D01*
X462108Y401770D01*
X465275Y400062D01*
X465307Y400052D01*
X465346Y400030D01*
X468741Y398837D01*
X468774Y398833D01*
X468817Y398817D01*
X472356Y398171D01*
X472390Y398171D01*
X472434Y398163D01*
X476031Y398078D01*
X476064Y398084D01*
G37*
G36*
X217335Y397369D02*
X217335Y397369D01*
X217367Y397376D01*
X217412Y397377D01*
X220952Y398024D01*
X220983Y398036D01*
X221028Y398044D01*
X224422Y399236D01*
X224451Y399253D01*
X224494Y399268D01*
X227660Y400977D01*
X227686Y400998D01*
X227726Y401019D01*
X230586Y403202D01*
X230608Y403227D01*
X230645Y403254D01*
X233128Y405858D01*
X233146Y405886D01*
X233178Y405919D01*
X235223Y408879D01*
X235236Y408909D01*
X235263Y408946D01*
X236820Y412190D01*
X236828Y412222D01*
X236848Y412263D01*
X237879Y415710D01*
X237882Y415743D01*
X237895Y415787D01*
X238374Y419353D01*
X238372Y419386D01*
X238378Y419431D01*
X238294Y423028D01*
X238286Y423061D01*
X238286Y423106D01*
X237639Y426646D01*
X237627Y426677D01*
X237619Y426721D01*
X236426Y430116D01*
X236409Y430145D01*
X236395Y430188D01*
X234686Y433354D01*
X234665Y433380D01*
X234644Y433420D01*
X232461Y436280D01*
X232435Y436302D01*
X232408Y436339D01*
X229805Y438822D01*
X229777Y438840D01*
X229744Y438871D01*
X226784Y440917D01*
X226758Y440928D01*
X226736Y440946D01*
X226667Y440967D01*
X226601Y440995D01*
X226573Y440995D01*
X226546Y441003D01*
X226474Y440996D01*
X226402Y440996D01*
X226376Y440985D01*
X226348Y440982D01*
X226285Y440947D01*
X226219Y440919D01*
X226199Y440899D01*
X226175Y440885D01*
X226109Y440806D01*
X226080Y440776D01*
X226076Y440767D01*
X226068Y440757D01*
X203037Y401101D01*
X203028Y401074D01*
X203012Y401051D01*
X202996Y400981D01*
X202973Y400912D01*
X202976Y400884D01*
X202970Y400857D01*
X202983Y400786D01*
X202988Y400714D01*
X203001Y400689D01*
X203007Y400661D01*
X203047Y400601D01*
X203080Y400537D01*
X203101Y400519D01*
X203117Y400496D01*
X203200Y400437D01*
X203232Y400410D01*
X203242Y400407D01*
X203253Y400400D01*
X206496Y398843D01*
X206529Y398835D01*
X206569Y398814D01*
X210017Y397784D01*
X210050Y397781D01*
X210093Y397767D01*
X213659Y397288D01*
X213692Y397291D01*
X213737Y397284D01*
X217335Y397369D01*
G37*
G36*
X368169Y196375D02*
X368169Y196375D01*
X368197Y196373D01*
X368266Y196395D01*
X368336Y196409D01*
X368359Y196425D01*
X368386Y196434D01*
X368441Y196481D01*
X368500Y196522D01*
X368515Y196545D01*
X368537Y196564D01*
X368568Y196628D01*
X368607Y196689D01*
X368612Y196717D01*
X368624Y196742D01*
X368633Y196844D01*
X368640Y196885D01*
X368638Y196895D01*
X368639Y196908D01*
X368358Y200484D01*
X368348Y200516D01*
X368345Y200561D01*
X367508Y204049D01*
X367494Y204080D01*
X367484Y204124D01*
X366111Y207438D01*
X366092Y207466D01*
X366075Y207508D01*
X364201Y210566D01*
X364178Y210591D01*
X364155Y210630D01*
X361825Y213357D01*
X361799Y213378D01*
X361770Y213413D01*
X359042Y215743D01*
X359013Y215759D01*
X358979Y215789D01*
X355920Y217663D01*
X355889Y217674D01*
X355851Y217698D01*
X352536Y219071D01*
X352504Y219078D01*
X352462Y219095D01*
X348974Y219933D01*
X348941Y219934D01*
X348897Y219945D01*
X345320Y220226D01*
X345287Y220222D01*
X345242Y220226D01*
X341666Y219945D01*
X341634Y219936D01*
X341589Y219933D01*
X338101Y219095D01*
X338070Y219081D01*
X338026Y219071D01*
X334712Y217698D01*
X334684Y217680D01*
X334642Y217663D01*
X331584Y215789D01*
X331559Y215766D01*
X331520Y215743D01*
X328793Y213413D01*
X328772Y213387D01*
X328737Y213357D01*
X326408Y210630D01*
X326391Y210601D01*
X326361Y210566D01*
X324487Y207508D01*
X324476Y207477D01*
X324452Y207438D01*
X323079Y204124D01*
X323073Y204091D01*
X323055Y204049D01*
X322217Y200561D01*
X322216Y200528D01*
X322205Y200484D01*
X321924Y196908D01*
X321927Y196880D01*
X321922Y196852D01*
X321939Y196782D01*
X321948Y196711D01*
X321962Y196686D01*
X321968Y196659D01*
X322011Y196601D01*
X322047Y196538D01*
X322070Y196521D01*
X322086Y196499D01*
X322148Y196462D01*
X322206Y196418D01*
X322233Y196412D01*
X322257Y196397D01*
X322358Y196380D01*
X322399Y196370D01*
X322409Y196372D01*
X322421Y196370D01*
X368141Y196370D01*
X368169Y196375D01*
G37*
%LPC*%
G36*
X262032Y292445D02*
X262032Y292445D01*
X259802Y293369D01*
X258094Y295076D01*
X257515Y296475D01*
X257500Y296502D01*
X257490Y296532D01*
X257405Y296679D01*
X257325Y296829D01*
X257305Y296853D01*
X257289Y296881D01*
X257075Y297134D01*
X249373Y304836D01*
X249352Y304853D01*
X249335Y304873D01*
X249197Y304980D01*
X249061Y305091D01*
X249038Y305103D01*
X249016Y305120D01*
X248859Y305198D01*
X248705Y305279D01*
X248680Y305287D01*
X248656Y305299D01*
X248486Y305344D01*
X248320Y305394D01*
X248293Y305396D01*
X248267Y305403D01*
X247936Y305431D01*
X245363Y305431D01*
X243133Y306354D01*
X241426Y308062D01*
X240502Y310292D01*
X240502Y312706D01*
X241426Y314937D01*
X243133Y316644D01*
X245363Y317568D01*
X247778Y317568D01*
X249176Y316989D01*
X249206Y316980D01*
X249234Y316966D01*
X249399Y316921D01*
X249562Y316872D01*
X249593Y316869D01*
X249623Y316861D01*
X249954Y316834D01*
X251315Y316834D01*
X253275Y316022D01*
X255062Y314235D01*
X264619Y304678D01*
X264643Y304658D01*
X264664Y304635D01*
X264799Y304531D01*
X264931Y304423D01*
X264958Y304408D01*
X264983Y304389D01*
X265278Y304238D01*
X266677Y303658D01*
X268384Y301951D01*
X269308Y299721D01*
X269308Y297306D01*
X268384Y295076D01*
X266677Y293369D01*
X264446Y292445D01*
X262032Y292445D01*
G37*
%LPD*%
%LPC*%
G36*
X432292Y291762D02*
X432292Y291762D01*
X426488Y297566D01*
X426488Y305773D01*
X432292Y311576D01*
X440499Y311576D01*
X446302Y305773D01*
X446302Y297566D01*
X440499Y291762D01*
X432292Y291762D01*
G37*
%LPD*%
%LPC*%
G36*
X224969Y340271D02*
X224969Y340271D01*
X221328Y341779D01*
X218542Y344566D01*
X217033Y348207D01*
X217033Y352148D01*
X218542Y355789D01*
X221328Y358576D01*
X224969Y360084D01*
X228911Y360084D01*
X232552Y358576D01*
X235339Y355789D01*
X236847Y352148D01*
X236847Y348207D01*
X235339Y344566D01*
X232552Y341779D01*
X228911Y340271D01*
X224969Y340271D01*
G37*
%LPD*%
%LPC*%
G36*
X224969Y314871D02*
X224969Y314871D01*
X221328Y316379D01*
X218542Y319166D01*
X217033Y322807D01*
X217033Y326748D01*
X218542Y330389D01*
X221328Y333176D01*
X224969Y334684D01*
X228911Y334684D01*
X232552Y333176D01*
X235339Y330389D01*
X236847Y326748D01*
X236847Y322807D01*
X235339Y319166D01*
X232552Y316379D01*
X228911Y314871D01*
X224969Y314871D01*
G37*
%LPD*%
%LPC*%
G36*
X224969Y365671D02*
X224969Y365671D01*
X221328Y367179D01*
X218542Y369966D01*
X217033Y373607D01*
X217033Y377548D01*
X218542Y381189D01*
X221328Y383976D01*
X224969Y385484D01*
X228911Y385484D01*
X232552Y383976D01*
X235339Y381189D01*
X236847Y377548D01*
X236847Y373607D01*
X235339Y369966D01*
X232552Y367179D01*
X229849Y366059D01*
X228911Y365671D01*
X224969Y365671D01*
G37*
%LPD*%
D10*
X428371Y384580D03*
X445371Y384580D03*
D11*
X336912Y257241D03*
X351912Y257241D03*
D12*
X436395Y301669D03*
D10*
X352912Y284386D03*
X335912Y284386D03*
D13*
X226940Y375577D03*
X226940Y350177D03*
X226940Y324777D03*
D14*
X321408Y454520D03*
X329408Y454520D03*
X337408Y454520D03*
X345408Y454520D03*
X353408Y454520D03*
X361408Y454520D03*
X369408Y454520D03*
X321408Y433020D03*
X329408Y433020D03*
X337408Y433020D03*
X345408Y433020D03*
X353408Y433020D03*
X361408Y433020D03*
X369408Y433020D03*
D15*
X422085Y407505D03*
X422085Y417005D03*
X422085Y426505D03*
X399225Y426505D03*
X399225Y407505D03*
D10*
X398304Y457781D03*
X398304Y474781D03*
X291497Y475574D03*
X291497Y458574D03*
D16*
X270510Y478587D03*
X270510Y452387D03*
X419322Y454070D03*
X419322Y480270D03*
D17*
X323056Y378388D03*
X323056Y361388D03*
X344488Y378388D03*
X344488Y361388D03*
X365919Y378388D03*
X365919Y361388D03*
D18*
X510481Y346869D03*
X427881Y203769D03*
X262681Y203769D03*
X180081Y346869D03*
X469181Y418369D03*
X467594Y275369D03*
X345281Y203769D03*
X221381Y275369D03*
X221381Y418369D03*
D17*
X410138Y384969D03*
X393138Y384969D03*
D19*
X278873Y400190D03*
X278746Y423202D03*
D20*
X278746Y400317D01*
X278873Y400190D01*
D19*
X246571Y311499D03*
X263239Y298514D03*
D20*
X250254Y311499D01*
X246571Y311499D01*
D19*
X342900Y243681D03*
X315913Y243681D03*
D20*
X342900Y243681D01*
X270510Y452387D02*
X276698Y458574D01*
X291497Y458574D01*
X296473Y463550D01*
X332581Y463550D01*
D21*
X337408Y458723D01*
X337408Y454520D01*
D20*
X398304Y474781D02*
X413833Y474781D01*
X419322Y480270D01*
X432499Y422370D02*
X432594Y422275D01*
X419322Y476763D02*
X419322Y480270D01*
X419322Y476763D02*
X432499Y463587D01*
X432499Y429419D01*
X432499Y422370D01*
D21*
X432594Y422275D02*
X427323Y417005D01*
X422085Y417005D01*
D20*
X278746Y423202D02*
X278746Y444151D01*
X270510Y452387D01*
X432499Y429419D02*
X439642Y436563D01*
X439738Y436563D01*
D19*
X439738Y436563D03*
D22*
X345408Y433020D02*
X345408Y422590D01*
X383029Y384969D01*
X393138Y384969D01*
D20*
X351912Y257241D02*
X351912Y252693D01*
X342900Y243681D01*
D21*
X345408Y433020D02*
X344488Y433941D01*
X344488Y438698D01*
X337408Y445777D01*
X337408Y454520D01*
D19*
X269704Y309797D03*
D20*
X398304Y457781D02*
X415611Y457781D01*
X419322Y454070D01*
D19*
X333375Y233363D03*
D22*
X333375Y215675D01*
X345281Y203769D01*
D20*
X427713Y384580D02*
X428371Y384580D01*
X427713Y384580D02*
X417595Y396794D01*
X411594Y396794D01*
D19*
X411594Y396794D03*
X246063Y415580D03*
D22*
X224171Y415580D01*
X221381Y418369D01*
D19*
X441676Y274653D03*
D22*
X441753Y274575D01*
X466800Y274575D01*
X467594Y275369D01*
D19*
X445294Y425961D03*
D22*
X461589Y425961D01*
X469181Y418369D01*
D20*
X335912Y284386D02*
X336912Y283386D01*
X336912Y257241D01*
D22*
X329408Y415547D02*
X329408Y433020D01*
X329408Y415547D02*
X342315Y402640D01*
D19*
X342712Y402243D03*
D22*
X342315Y402640D01*
X342315Y380560D02*
X344488Y378388D01*
X342315Y380560D02*
X342315Y402640D01*
D19*
X358199Y397451D03*
D22*
X350304Y405346D01*
X350304Y405388D01*
X337408Y418284D02*
X337408Y433020D01*
X337408Y418284D02*
X350304Y405388D01*
X358199Y386107D02*
X365919Y378388D01*
X358199Y386107D02*
X358199Y397451D01*
X329408Y452440D02*
X329408Y454520D01*
X313531Y436563D02*
X313531Y432594D01*
D19*
X313681Y398689D03*
D22*
X313531Y436563D02*
X329408Y452440D01*
X313681Y387763D02*
X323056Y378388D01*
D19*
X313531Y432594D03*
D22*
X313681Y432444D01*
X313681Y398689D02*
X313681Y387763D01*
X313681Y398689D02*
X313681Y432444D01*
D21*
X345408Y454520D02*
X345408Y464217D01*
X344488Y465138D01*
D20*
X334051Y475574D01*
X291497Y475574D01*
X288484Y478587D01*
X270510Y478587D01*
D21*
X391802Y407505D02*
X399225Y407505D01*
X391802Y407505D02*
X388144Y411163D01*
D20*
X384969Y414338D01*
X384969Y439738D01*
X381709Y442998D01*
X350605Y442998D01*
X345408Y448194D01*
D21*
X345408Y454520D01*
D22*
X227000Y280988D02*
X221381Y275369D01*
X227000Y280988D02*
X258763Y280988D01*
D19*
X258763Y280988D03*
X357188Y297656D03*
D20*
X352912Y293381D02*
X352912Y284386D01*
X352912Y293381D02*
X357188Y297656D01*
D23*
X407861Y418973D02*
X407988Y419100D01*
X400583Y426505D01*
X399225Y426505D01*
X407861Y403438D02*
X404256Y399833D01*
X404256Y390850D01*
X410138Y384969D01*
X407861Y403438D02*
X407861Y418973D01*
M02*
