G04 EAGLE Gerber RS-274X export*
G75*
%MOMM*%
%FSLAX34Y34*%
%LPD*%
%INBottom Copper*%
%IPPOS*%
%AMOC8*
5,1,8,0,0,1.08239X$1,22.5*%
G01*
%ADD10R,1.000000X1.100000*%
%ADD11R,1.399997X0.400000*%
%ADD12R,0.812800X0.254000*%
%ADD13R,0.254000X0.812800*%
%ADD14R,5.384800X5.384800*%
%ADD15P,1.649562X8X22.500000*%
%ADD16R,1.100000X1.000000*%
%ADD17R,1.300000X1.500000*%
%ADD18R,1.500000X1.300000*%
%ADD19C,1.524000*%
%ADD20C,1.000000*%
%ADD21C,0.499997*%
%ADD22C,0.304800*%
%ADD23C,0.609600*%
%ADD24C,0.254000*%
%ADD25C,0.406400*%
%ADD26C,0.756400*%
%ADD27C,0.508000*%

G36*
X436011Y278388D02*
X436011Y278388D01*
X436037Y278386D01*
X436211Y278408D01*
X436385Y278425D01*
X436410Y278433D01*
X436437Y278436D01*
X436602Y278492D01*
X436769Y278543D01*
X436793Y278556D01*
X436818Y278564D01*
X436970Y278652D01*
X437124Y278735D01*
X437144Y278752D01*
X437167Y278765D01*
X437420Y278980D01*
X438238Y279798D01*
X440468Y280721D01*
X442883Y280721D01*
X445113Y279798D01*
X445884Y279027D01*
X446027Y278910D01*
X446166Y278791D01*
X446182Y278783D01*
X446195Y278772D01*
X446358Y278686D01*
X446519Y278597D01*
X446536Y278591D01*
X446551Y278583D01*
X446727Y278531D01*
X446903Y278475D01*
X446920Y278473D01*
X446937Y278468D01*
X447120Y278452D01*
X447303Y278432D01*
X447320Y278433D01*
X447338Y278432D01*
X447521Y278452D01*
X447704Y278468D01*
X447721Y278473D01*
X447738Y278475D01*
X447913Y278531D01*
X448090Y278583D01*
X448105Y278591D01*
X448122Y278597D01*
X448283Y278686D01*
X448445Y278772D01*
X448459Y278783D01*
X448475Y278792D01*
X448615Y278911D01*
X448757Y279027D01*
X448768Y279041D01*
X448782Y279052D01*
X448896Y279196D01*
X449012Y279338D01*
X449020Y279354D01*
X449031Y279368D01*
X449053Y279411D01*
X449125Y279467D01*
X449175Y279525D01*
X449232Y279576D01*
X449306Y279677D01*
X449388Y279772D01*
X449426Y279838D01*
X449471Y279900D01*
X449543Y280046D01*
X449586Y280122D01*
X449597Y280156D01*
X449618Y280198D01*
X449760Y280559D01*
X449780Y280633D01*
X449810Y280703D01*
X449835Y280826D01*
X449869Y280947D01*
X449875Y281023D01*
X449890Y281098D01*
X449890Y281223D01*
X449899Y281335D01*
X450339Y282098D01*
X450367Y282160D01*
X450471Y282371D01*
X450796Y283197D01*
X450839Y283226D01*
X450928Y283314D01*
X451023Y283396D01*
X451070Y283456D01*
X451124Y283510D01*
X451217Y283644D01*
X451271Y283713D01*
X451287Y283745D01*
X451313Y283783D01*
X451507Y284120D01*
X451539Y284189D01*
X451579Y284254D01*
X451622Y284372D01*
X451673Y284486D01*
X451690Y284561D01*
X451717Y284633D01*
X451735Y284757D01*
X451760Y284865D01*
X452310Y285554D01*
X452346Y285610D01*
X452481Y285805D01*
X452925Y286573D01*
X452972Y286595D01*
X453073Y286670D01*
X453179Y286736D01*
X453235Y286789D01*
X453296Y286834D01*
X453408Y286953D01*
X453472Y287013D01*
X453492Y287042D01*
X453524Y287076D01*
X453766Y287379D01*
X453808Y287444D01*
X453857Y287502D01*
X453917Y287612D01*
X453985Y287718D01*
X454013Y287789D01*
X454050Y287856D01*
X454087Y287975D01*
X454128Y288079D01*
X454774Y288678D01*
X454818Y288729D01*
X454980Y288901D01*
X455534Y289595D01*
X455584Y289609D01*
X455694Y289668D01*
X455810Y289718D01*
X455872Y289761D01*
X455940Y289797D01*
X456068Y289898D01*
X456140Y289948D01*
X456165Y289974D01*
X456201Y290002D01*
X456486Y290266D01*
X456536Y290324D01*
X456594Y290374D01*
X456670Y290474D01*
X456752Y290568D01*
X456791Y290634D01*
X456837Y290695D01*
X456892Y290808D01*
X456947Y290905D01*
X457676Y291401D01*
X457728Y291444D01*
X457913Y291590D01*
X458564Y292193D01*
X458615Y292200D01*
X458734Y292242D01*
X458855Y292274D01*
X458923Y292308D01*
X458996Y292333D01*
X459138Y292414D01*
X459216Y292452D01*
X459244Y292474D01*
X459284Y292497D01*
X459605Y292716D01*
X459664Y292765D01*
X459728Y292806D01*
X459818Y292894D01*
X459914Y292974D01*
X459961Y293034D01*
X460016Y293087D01*
X460087Y293191D01*
X460157Y293278D01*
X460951Y293660D01*
X461008Y293695D01*
X461214Y293812D01*
X461947Y294311D01*
X461999Y294311D01*
X462123Y294334D01*
X462247Y294348D01*
X462320Y294371D01*
X462395Y294385D01*
X462547Y294444D01*
X462631Y294470D01*
X462662Y294488D01*
X462705Y294504D01*
X463055Y294673D01*
X463120Y294713D01*
X463190Y294744D01*
X463292Y294817D01*
X463399Y294882D01*
X463455Y294934D01*
X463517Y294979D01*
X463602Y295071D01*
X463684Y295146D01*
X464526Y295406D01*
X464588Y295432D01*
X464809Y295517D01*
X465608Y295902D01*
X465660Y295893D01*
X465785Y295898D01*
X465910Y295893D01*
X465986Y295905D01*
X466062Y295908D01*
X466222Y295943D01*
X466308Y295957D01*
X466341Y295969D01*
X466386Y295979D01*
X466758Y296094D01*
X466828Y296123D01*
X466902Y296144D01*
X467013Y296201D01*
X467129Y296250D01*
X467192Y296293D01*
X467260Y296328D01*
X467358Y296406D01*
X467450Y296468D01*
X468322Y296600D01*
X468386Y296616D01*
X468618Y296667D01*
X469466Y296928D01*
X469516Y296912D01*
X469640Y296898D01*
X469763Y296875D01*
X469840Y296875D01*
X469916Y296867D01*
X470078Y296878D01*
X470166Y296879D01*
X470201Y296886D01*
X470247Y296889D01*
X470631Y296947D01*
X470705Y296966D01*
X470781Y296975D01*
X470900Y297015D01*
X471021Y297046D01*
X471090Y297079D01*
X471163Y297104D01*
X471271Y297166D01*
X471372Y297214D01*
X472253Y297214D01*
X472320Y297221D01*
X472556Y297237D01*
X473433Y297369D01*
X473480Y297346D01*
X473601Y297313D01*
X473719Y297271D01*
X473795Y297261D01*
X473869Y297241D01*
X474031Y297227D01*
X474118Y297215D01*
X474154Y297217D01*
X474199Y297214D01*
X474588Y297214D01*
X474664Y297221D01*
X474741Y297219D01*
X474864Y297241D01*
X474989Y297253D01*
X475062Y297276D01*
X475137Y297289D01*
X475254Y297335D01*
X475360Y297367D01*
X476232Y297236D01*
X476300Y297232D01*
X476535Y297213D01*
X477422Y297213D01*
X477465Y297183D01*
X477579Y297133D01*
X477690Y297074D01*
X477763Y297052D01*
X477834Y297021D01*
X477992Y296984D01*
X478076Y296959D01*
X478112Y296956D01*
X478156Y296945D01*
X478541Y296887D01*
X478617Y296883D01*
X478692Y296870D01*
X478818Y296873D01*
X478943Y296867D01*
X479018Y296878D01*
X479095Y296880D01*
X479217Y296908D01*
X479327Y296924D01*
X480169Y296664D01*
X480236Y296651D01*
X480465Y296597D01*
X481343Y296464D01*
X481381Y296428D01*
X481486Y296362D01*
X481587Y296287D01*
X481657Y296254D01*
X481721Y296214D01*
X481872Y296153D01*
X481952Y296116D01*
X481987Y296107D01*
X482029Y296090D01*
X482401Y295976D01*
X482475Y295960D01*
X482548Y295936D01*
X482673Y295920D01*
X482795Y295895D01*
X482872Y295895D01*
X482948Y295886D01*
X483073Y295895D01*
X483184Y295895D01*
X483978Y295512D01*
X484040Y295489D01*
X484260Y295401D01*
X485798Y294927D01*
X485987Y294888D01*
X486176Y294848D01*
X486184Y294848D01*
X486192Y294847D01*
X486384Y294846D01*
X486579Y294844D01*
X486587Y294846D01*
X486595Y294846D01*
X486783Y294884D01*
X486974Y294920D01*
X486982Y294923D01*
X486990Y294925D01*
X487170Y295000D01*
X487347Y295072D01*
X487354Y295077D01*
X487361Y295080D01*
X487522Y295188D01*
X487682Y295295D01*
X487688Y295301D01*
X487695Y295305D01*
X487830Y295442D01*
X487967Y295579D01*
X487972Y295587D01*
X487978Y295592D01*
X488005Y295634D01*
X488156Y295852D01*
X508089Y330378D01*
X508698Y329958D01*
X508724Y329947D01*
X508747Y329928D01*
X508815Y329908D01*
X508881Y329880D01*
X508909Y329880D01*
X508937Y329871D01*
X509008Y329879D01*
X509079Y329879D01*
X509106Y329890D01*
X509135Y329894D01*
X509197Y329929D01*
X509263Y329956D01*
X509283Y329977D01*
X509308Y329991D01*
X509372Y330068D01*
X509401Y330099D01*
X509405Y330109D01*
X509414Y330120D01*
X518914Y346620D01*
X518924Y346651D01*
X518933Y346664D01*
X518937Y346689D01*
X518938Y346692D01*
X518969Y346763D01*
X518970Y346786D01*
X518977Y346808D01*
X518971Y346885D01*
X518972Y346962D01*
X518963Y346986D01*
X518961Y347007D01*
X518941Y347046D01*
X518914Y347118D01*
X509414Y363618D01*
X509395Y363640D01*
X509383Y363666D01*
X509330Y363714D01*
X509282Y363767D01*
X509256Y363780D01*
X509235Y363799D01*
X509167Y363822D01*
X509103Y363853D01*
X509074Y363854D01*
X509047Y363864D01*
X508976Y363859D01*
X508904Y363862D01*
X508877Y363852D01*
X508848Y363850D01*
X508758Y363808D01*
X508718Y363793D01*
X508710Y363785D01*
X508698Y363780D01*
X508089Y363360D01*
X488393Y397475D01*
X488310Y397590D01*
X488234Y397711D01*
X488193Y397754D01*
X488158Y397802D01*
X488054Y397899D01*
X487956Y398002D01*
X487907Y398036D01*
X487863Y398076D01*
X487742Y398151D01*
X487626Y398232D01*
X487571Y398256D01*
X487520Y398287D01*
X487387Y398336D01*
X487257Y398393D01*
X487198Y398406D01*
X487142Y398426D01*
X487002Y398448D01*
X486863Y398478D01*
X486803Y398479D01*
X486745Y398488D01*
X486602Y398481D01*
X486460Y398483D01*
X486402Y398472D01*
X486342Y398470D01*
X486204Y398436D01*
X486065Y398409D01*
X486001Y398385D01*
X485952Y398373D01*
X485877Y398338D01*
X485755Y398291D01*
X485674Y398252D01*
X485615Y398216D01*
X485552Y398188D01*
X485443Y398112D01*
X485330Y398042D01*
X485279Y397996D01*
X485223Y397956D01*
X485132Y397860D01*
X485034Y397769D01*
X484218Y397525D01*
X484178Y397509D01*
X483921Y397410D01*
X483144Y397037D01*
X483082Y397048D01*
X482949Y397044D01*
X482816Y397050D01*
X482748Y397039D01*
X482679Y397037D01*
X482505Y397000D01*
X482419Y396986D01*
X482391Y396976D01*
X482355Y396968D01*
X481907Y396834D01*
X481844Y396808D01*
X481777Y396790D01*
X481658Y396732D01*
X481535Y396681D01*
X481478Y396643D01*
X481416Y396612D01*
X481311Y396532D01*
X481200Y396458D01*
X480356Y396344D01*
X480314Y396334D01*
X480044Y396277D01*
X479219Y396030D01*
X479159Y396051D01*
X479027Y396068D01*
X478897Y396094D01*
X478828Y396094D01*
X478760Y396103D01*
X478581Y396093D01*
X478494Y396093D01*
X478466Y396087D01*
X478428Y396085D01*
X477965Y396023D01*
X477898Y396007D01*
X477830Y396000D01*
X477703Y395961D01*
X477574Y395930D01*
X477511Y395902D01*
X477445Y395881D01*
X477329Y395818D01*
X477208Y395762D01*
X476356Y395782D01*
X476314Y395779D01*
X476038Y395765D01*
X475184Y395650D01*
X475128Y395679D01*
X475001Y395717D01*
X474876Y395763D01*
X474808Y395774D01*
X474742Y395793D01*
X474564Y395812D01*
X474479Y395825D01*
X474449Y395824D01*
X474412Y395828D01*
X473945Y395839D01*
X473877Y395834D01*
X473808Y395838D01*
X473676Y395819D01*
X473544Y395809D01*
X473477Y395790D01*
X473409Y395780D01*
X473284Y395736D01*
X473156Y395700D01*
X473156Y395699D01*
X472318Y395852D01*
X472275Y395856D01*
X472001Y395885D01*
X471140Y395905D01*
X471089Y395943D01*
X470969Y396000D01*
X470854Y396065D01*
X470788Y396086D01*
X470726Y396116D01*
X470553Y396162D01*
X470470Y396189D01*
X470441Y396192D01*
X470405Y396202D01*
X469946Y396286D01*
X469877Y396291D01*
X469810Y396306D01*
X469677Y396308D01*
X469544Y396319D01*
X469476Y396310D01*
X469407Y396311D01*
X469277Y396287D01*
X469145Y396271D01*
X469144Y396271D01*
X468341Y396554D01*
X468299Y396564D01*
X468033Y396635D01*
X467185Y396790D01*
X467141Y396835D01*
X467032Y396910D01*
X466928Y396993D01*
X466866Y397024D01*
X466809Y397063D01*
X466646Y397136D01*
X466569Y397175D01*
X466540Y397183D01*
X466506Y397198D01*
X466065Y397353D01*
X465998Y397369D01*
X465934Y397394D01*
X465803Y397417D01*
X465674Y397448D01*
X465605Y397451D01*
X465537Y397462D01*
X465404Y397459D01*
X465272Y397464D01*
X465271Y397464D01*
X464522Y397868D01*
X464483Y397885D01*
X464231Y397997D01*
X463418Y398283D01*
X463381Y398334D01*
X463285Y398426D01*
X463195Y398523D01*
X463139Y398564D01*
X463089Y398611D01*
X462939Y398708D01*
X462869Y398759D01*
X462842Y398772D01*
X462811Y398792D01*
X462400Y399014D01*
X462336Y399040D01*
X462276Y399075D01*
X462151Y399118D01*
X462028Y399169D01*
X461960Y399182D01*
X461895Y399205D01*
X461764Y399222D01*
X461633Y399248D01*
X460956Y399764D01*
X460920Y399787D01*
X460688Y399937D01*
X459930Y400346D01*
X459902Y400403D01*
X459821Y400508D01*
X459748Y400619D01*
X459699Y400667D01*
X459657Y400722D01*
X459524Y400842D01*
X459462Y400903D01*
X459438Y400919D01*
X459410Y400944D01*
X459039Y401228D01*
X458980Y401264D01*
X458927Y401307D01*
X458810Y401369D01*
X458696Y401439D01*
X458631Y401463D01*
X458571Y401495D01*
X458443Y401532D01*
X458318Y401579D01*
X457730Y402195D01*
X457707Y402215D01*
X457701Y402222D01*
X457685Y402235D01*
X457493Y402407D01*
X456808Y402930D01*
X456790Y402990D01*
X456726Y403107D01*
X456670Y403228D01*
X456630Y403283D01*
X456597Y403344D01*
X456484Y403483D01*
X456433Y403553D01*
X456412Y403573D01*
X456388Y403602D01*
X456066Y403940D01*
X456014Y403985D01*
X455968Y404036D01*
X455861Y404116D01*
X455760Y404202D01*
X455700Y404236D01*
X455645Y404277D01*
X455525Y404334D01*
X455409Y404399D01*
X454925Y405100D01*
X454897Y405133D01*
X454724Y405347D01*
X454129Y405971D01*
X454120Y406033D01*
X454075Y406158D01*
X454040Y406286D01*
X454008Y406347D01*
X453985Y406412D01*
X453896Y406567D01*
X453856Y406644D01*
X453838Y406668D01*
X453819Y406700D01*
X453554Y407084D01*
X453509Y407137D01*
X453472Y407195D01*
X453379Y407290D01*
X453293Y407391D01*
X453239Y407434D01*
X453191Y407483D01*
X453081Y407558D01*
X452977Y407641D01*
X452608Y408408D01*
X452586Y408445D01*
X452448Y408684D01*
X451958Y409393D01*
X451959Y409456D01*
X451935Y409586D01*
X451919Y409718D01*
X451898Y409784D01*
X451885Y409852D01*
X451821Y410019D01*
X451794Y410101D01*
X451780Y410126D01*
X451767Y410161D01*
X451564Y410582D01*
X451528Y410641D01*
X451501Y410704D01*
X451424Y410813D01*
X451355Y410926D01*
X451308Y410977D01*
X451268Y411033D01*
X451172Y411124D01*
X451082Y411222D01*
X450838Y412038D01*
X450821Y412078D01*
X450723Y412336D01*
X450209Y413406D01*
X450121Y413549D01*
X450039Y413696D01*
X450017Y413721D01*
X449999Y413750D01*
X449885Y413873D01*
X449776Y414000D01*
X449749Y414021D01*
X449726Y414046D01*
X449590Y414144D01*
X449458Y414247D01*
X449427Y414262D01*
X449400Y414282D01*
X449247Y414352D01*
X449097Y414426D01*
X449065Y414435D01*
X449034Y414449D01*
X448870Y414487D01*
X448708Y414531D01*
X448671Y414534D01*
X448642Y414541D01*
X448555Y414543D01*
X448378Y414558D01*
X404025Y414558D01*
X403998Y414555D01*
X403971Y414557D01*
X403797Y414535D01*
X403624Y414518D01*
X403598Y414510D01*
X403572Y414507D01*
X403406Y414451D01*
X403239Y414400D01*
X403215Y414387D01*
X403190Y414379D01*
X403038Y414291D01*
X402885Y414208D01*
X402865Y414191D01*
X402841Y414178D01*
X402588Y413963D01*
X383757Y395131D01*
X383712Y395117D01*
X383545Y395065D01*
X383522Y395052D01*
X383496Y395044D01*
X383345Y394957D01*
X383191Y394873D01*
X383171Y394856D01*
X383147Y394843D01*
X382894Y394628D01*
X376146Y387880D01*
X376129Y387859D01*
X376109Y387842D01*
X376002Y387704D01*
X375891Y387569D01*
X375879Y387545D01*
X375862Y387524D01*
X375784Y387367D01*
X375702Y387213D01*
X375695Y387187D01*
X375683Y387163D01*
X375637Y386994D01*
X375588Y386827D01*
X375585Y386800D01*
X375578Y386775D01*
X375551Y386444D01*
X375551Y376402D01*
X374212Y375062D01*
X364776Y375062D01*
X363437Y376402D01*
X363437Y390011D01*
X363435Y390025D01*
X363437Y390038D01*
X363416Y390223D01*
X363397Y390412D01*
X363393Y390425D01*
X363391Y390438D01*
X363334Y390616D01*
X363279Y390797D01*
X363272Y390809D01*
X363268Y390821D01*
X363177Y390986D01*
X363087Y391151D01*
X363078Y391161D01*
X363072Y391173D01*
X362949Y391317D01*
X362829Y391460D01*
X362819Y391468D01*
X362810Y391479D01*
X362661Y391595D01*
X362515Y391712D01*
X362504Y391719D01*
X362493Y391727D01*
X362324Y391812D01*
X362158Y391898D01*
X362145Y391902D01*
X362133Y391908D01*
X361951Y391957D01*
X361771Y392009D01*
X361758Y392010D01*
X361745Y392014D01*
X361558Y392027D01*
X361370Y392042D01*
X361357Y392041D01*
X361343Y392042D01*
X361157Y392017D01*
X360970Y391995D01*
X360957Y391991D01*
X360944Y391989D01*
X360628Y391888D01*
X359407Y391382D01*
X356992Y391382D01*
X354689Y392336D01*
X354668Y392342D01*
X354648Y392352D01*
X354475Y392401D01*
X354304Y392452D01*
X354282Y392454D01*
X354260Y392460D01*
X354080Y392474D01*
X353903Y392490D01*
X353881Y392488D01*
X353859Y392490D01*
X353680Y392467D01*
X353503Y392449D01*
X353481Y392442D01*
X353459Y392439D01*
X353289Y392382D01*
X353118Y392329D01*
X353099Y392318D01*
X353077Y392311D01*
X352922Y392221D01*
X352765Y392136D01*
X352748Y392121D01*
X352729Y392110D01*
X352476Y391896D01*
X351811Y391231D01*
X351805Y391224D01*
X351799Y391218D01*
X351677Y391068D01*
X351556Y390920D01*
X351552Y390912D01*
X351546Y390905D01*
X351457Y390733D01*
X351367Y390564D01*
X351365Y390555D01*
X351361Y390547D01*
X351307Y390362D01*
X351253Y390178D01*
X351252Y390169D01*
X351249Y390160D01*
X351234Y389969D01*
X351216Y389777D01*
X351217Y389768D01*
X351216Y389759D01*
X351239Y389570D01*
X351260Y389377D01*
X351262Y389368D01*
X351263Y389359D01*
X351323Y389177D01*
X351381Y388993D01*
X351385Y388985D01*
X351388Y388977D01*
X351483Y388808D01*
X351576Y388641D01*
X351582Y388634D01*
X351586Y388626D01*
X351712Y388480D01*
X351836Y388334D01*
X351843Y388328D01*
X351849Y388321D01*
X352001Y388204D01*
X352152Y388084D01*
X352160Y388080D01*
X352167Y388074D01*
X352339Y387989D01*
X352511Y387902D01*
X352520Y387899D01*
X352528Y387895D01*
X352714Y387845D01*
X352899Y387794D01*
X352908Y387793D01*
X352917Y387791D01*
X353247Y387763D01*
X354207Y387763D01*
X355546Y386424D01*
X355546Y376402D01*
X354207Y375062D01*
X324766Y375062D01*
X323427Y376402D01*
X323427Y386246D01*
X323424Y386273D01*
X323426Y386300D01*
X323404Y386474D01*
X323387Y386647D01*
X323379Y386672D01*
X323376Y386699D01*
X323320Y386865D01*
X323269Y387032D01*
X323256Y387055D01*
X323247Y387081D01*
X323160Y387232D01*
X323077Y387386D01*
X323060Y387406D01*
X323047Y387430D01*
X322832Y387683D01*
X317974Y392541D01*
X317957Y392555D01*
X317942Y392572D01*
X317801Y392682D01*
X317662Y392796D01*
X317643Y392806D01*
X317625Y392820D01*
X317464Y392901D01*
X317307Y392984D01*
X317285Y392991D01*
X317265Y393001D01*
X317092Y393048D01*
X316921Y393099D01*
X316898Y393101D01*
X316877Y393107D01*
X316699Y393119D01*
X316520Y393136D01*
X316497Y393133D01*
X316475Y393135D01*
X316298Y393112D01*
X316119Y393092D01*
X316098Y393085D01*
X316076Y393083D01*
X315760Y392981D01*
X314888Y392620D01*
X312474Y392620D01*
X310243Y393544D01*
X308536Y395251D01*
X307612Y397481D01*
X307612Y399896D01*
X308222Y401368D01*
X308226Y401381D01*
X308232Y401393D01*
X308284Y401573D01*
X308339Y401754D01*
X308340Y401767D01*
X308344Y401780D01*
X308359Y401968D01*
X308377Y402154D01*
X308375Y402168D01*
X308377Y402181D01*
X308355Y402368D01*
X308335Y402555D01*
X308331Y402568D01*
X308330Y402581D01*
X308272Y402758D01*
X308215Y402939D01*
X308209Y402951D01*
X308205Y402964D01*
X308113Y403127D01*
X308022Y403292D01*
X308013Y403303D01*
X308007Y403314D01*
X307884Y403457D01*
X307763Y403601D01*
X307752Y403609D01*
X307744Y403619D01*
X307596Y403734D01*
X307448Y403852D01*
X307436Y403858D01*
X307426Y403866D01*
X307258Y403949D01*
X307090Y404035D01*
X307077Y404039D01*
X307065Y404045D01*
X306883Y404094D01*
X306703Y404145D01*
X306689Y404146D01*
X306676Y404150D01*
X306346Y404177D01*
X235820Y404177D01*
X235811Y404176D01*
X235803Y404177D01*
X235609Y404156D01*
X235419Y404137D01*
X235411Y404134D01*
X235402Y404133D01*
X235219Y404075D01*
X235034Y404019D01*
X235027Y404015D01*
X235019Y404012D01*
X234851Y403920D01*
X234680Y403827D01*
X234674Y403821D01*
X234666Y403817D01*
X234519Y403693D01*
X234458Y403642D01*
X234421Y403631D01*
X234360Y403599D01*
X234295Y403576D01*
X234181Y403507D01*
X234063Y403446D01*
X234010Y403403D01*
X233951Y403367D01*
X233817Y403248D01*
X233750Y403194D01*
X233731Y403171D01*
X233703Y403146D01*
X233380Y402808D01*
X233338Y402754D01*
X233289Y402706D01*
X233215Y402596D01*
X233133Y402491D01*
X233102Y402429D01*
X233063Y402372D01*
X233012Y402250D01*
X232953Y402131D01*
X232953Y402130D01*
X232276Y401614D01*
X232245Y401585D01*
X232038Y401401D01*
X231444Y400778D01*
X231382Y400766D01*
X231259Y400715D01*
X231133Y400673D01*
X231073Y400639D01*
X231009Y400613D01*
X230858Y400516D01*
X230783Y400473D01*
X230761Y400454D01*
X230730Y400434D01*
X230359Y400150D01*
X230308Y400103D01*
X230252Y400063D01*
X230161Y399966D01*
X230064Y399876D01*
X230024Y399820D01*
X229977Y399769D01*
X229907Y399656D01*
X229830Y399548D01*
X229081Y399144D01*
X229046Y399120D01*
X228813Y398971D01*
X228128Y398448D01*
X228065Y398446D01*
X227936Y398415D01*
X227804Y398393D01*
X227740Y398369D01*
X227673Y398353D01*
X227509Y398281D01*
X227428Y398251D01*
X227403Y398235D01*
X227369Y398220D01*
X226958Y397998D01*
X226901Y397960D01*
X226839Y397929D01*
X226734Y397847D01*
X226624Y397773D01*
X226576Y397724D01*
X226522Y397681D01*
X226435Y397581D01*
X226342Y397486D01*
X225538Y397203D01*
X225500Y397185D01*
X225247Y397075D01*
X224489Y396665D01*
X224426Y396673D01*
X224293Y396663D01*
X224161Y396662D01*
X224093Y396648D01*
X224025Y396643D01*
X223851Y396598D01*
X223766Y396580D01*
X223739Y396568D01*
X223704Y396559D01*
X223263Y396404D01*
X223200Y396375D01*
X223134Y396354D01*
X223018Y396290D01*
X222898Y396234D01*
X222842Y396193D01*
X222782Y396160D01*
X222681Y396074D01*
X222574Y395995D01*
X221736Y395842D01*
X221695Y395830D01*
X221428Y395760D01*
X220615Y395474D01*
X220555Y395492D01*
X220422Y395503D01*
X220291Y395523D01*
X220222Y395519D01*
X220153Y395525D01*
X219975Y395507D01*
X219889Y395503D01*
X219860Y395496D01*
X219823Y395492D01*
X219364Y395408D01*
X219297Y395389D01*
X219229Y395379D01*
X219104Y395334D01*
X218977Y395297D01*
X218915Y395265D01*
X218851Y395242D01*
X218737Y395173D01*
X218619Y395111D01*
X217768Y395091D01*
X217725Y395086D01*
X217451Y395059D01*
X216603Y394904D01*
X216546Y394931D01*
X216417Y394962D01*
X216290Y395002D01*
X216222Y395010D01*
X216155Y395026D01*
X215976Y395036D01*
X215890Y395046D01*
X215861Y395043D01*
X215823Y395045D01*
X215356Y395034D01*
X215288Y395026D01*
X215219Y395026D01*
X215089Y395001D01*
X214957Y394985D01*
X214891Y394963D01*
X214824Y394950D01*
X214701Y394900D01*
X214575Y394858D01*
X214575Y394857D01*
X213731Y394971D01*
X213688Y394972D01*
X213412Y394988D01*
X212551Y394968D01*
X212499Y395003D01*
X212376Y395055D01*
X212258Y395114D01*
X212191Y395132D01*
X212127Y395159D01*
X211953Y395197D01*
X211869Y395220D01*
X211840Y395222D01*
X211803Y395230D01*
X211340Y395292D01*
X211272Y395294D01*
X211203Y395305D01*
X211070Y395301D01*
X210938Y395305D01*
X210870Y395294D01*
X210801Y395292D01*
X210671Y395261D01*
X210541Y395240D01*
X210540Y395239D01*
X209725Y395483D01*
X209682Y395492D01*
X209413Y395550D01*
X208559Y395665D01*
X208513Y395708D01*
X208400Y395778D01*
X208292Y395855D01*
X208229Y395883D01*
X208171Y395920D01*
X208004Y395985D01*
X207925Y396020D01*
X207896Y396027D01*
X207861Y396040D01*
X207414Y396174D01*
X207346Y396187D01*
X207281Y396209D01*
X207149Y396226D01*
X207019Y396251D01*
X206950Y396250D01*
X206881Y396259D01*
X206749Y396249D01*
X206616Y396248D01*
X205848Y396616D01*
X205808Y396631D01*
X205551Y396731D01*
X204562Y397027D01*
X204457Y397096D01*
X204313Y397196D01*
X204289Y397206D01*
X204267Y397220D01*
X204104Y397286D01*
X203943Y397355D01*
X203917Y397360D01*
X203893Y397370D01*
X203720Y397402D01*
X203549Y397438D01*
X203523Y397439D01*
X203497Y397443D01*
X203321Y397441D01*
X203146Y397442D01*
X203121Y397437D01*
X203094Y397437D01*
X202923Y397400D01*
X202751Y397367D01*
X202727Y397357D01*
X202701Y397351D01*
X202540Y397281D01*
X202378Y397215D01*
X202356Y397200D01*
X202332Y397190D01*
X202189Y397089D01*
X202043Y396992D01*
X202024Y396973D01*
X202003Y396958D01*
X201882Y396831D01*
X201758Y396708D01*
X201741Y396684D01*
X201725Y396667D01*
X201680Y396596D01*
X201569Y396435D01*
X182473Y363360D01*
X181865Y363780D01*
X181838Y363791D01*
X181816Y363809D01*
X181748Y363830D01*
X181682Y363858D01*
X181653Y363858D01*
X181625Y363866D01*
X181554Y363858D01*
X181483Y363858D01*
X181457Y363847D01*
X181428Y363844D01*
X181365Y363809D01*
X181300Y363781D01*
X181280Y363760D01*
X181254Y363746D01*
X181191Y363669D01*
X181161Y363639D01*
X181157Y363628D01*
X181149Y363618D01*
X171649Y347118D01*
X171624Y347045D01*
X171593Y346974D01*
X171593Y346951D01*
X171586Y346929D01*
X171592Y346853D01*
X171591Y346776D01*
X171600Y346751D01*
X171601Y346731D01*
X171622Y346691D01*
X171641Y346639D01*
X171643Y346634D01*
X171644Y346632D01*
X171649Y346620D01*
X181149Y330120D01*
X181168Y330098D01*
X181180Y330072D01*
X181233Y330024D01*
X181280Y329971D01*
X181306Y329958D01*
X181328Y329939D01*
X181395Y329915D01*
X181459Y329885D01*
X181488Y329883D01*
X181516Y329874D01*
X181587Y329879D01*
X181658Y329875D01*
X181685Y329886D01*
X181714Y329888D01*
X181805Y329930D01*
X181845Y329945D01*
X181853Y329952D01*
X181865Y329958D01*
X182473Y330378D01*
X202406Y295852D01*
X202520Y295694D01*
X202630Y295537D01*
X202636Y295532D01*
X202641Y295525D01*
X202783Y295393D01*
X202923Y295261D01*
X202930Y295256D01*
X202936Y295251D01*
X203100Y295150D01*
X203264Y295047D01*
X203272Y295044D01*
X203279Y295040D01*
X203460Y294974D01*
X203641Y294905D01*
X203649Y294904D01*
X203657Y294901D01*
X203846Y294872D01*
X204038Y294840D01*
X204047Y294841D01*
X204055Y294839D01*
X204245Y294848D01*
X204441Y294855D01*
X204450Y294857D01*
X204457Y294857D01*
X204505Y294869D01*
X204765Y294927D01*
X206302Y295401D01*
X206364Y295428D01*
X206585Y295512D01*
X207384Y295898D01*
X207435Y295889D01*
X207561Y295894D01*
X207686Y295889D01*
X207761Y295901D01*
X207838Y295904D01*
X207997Y295939D01*
X208083Y295953D01*
X208117Y295966D01*
X208162Y295975D01*
X208533Y296090D01*
X208604Y296120D01*
X208678Y296141D01*
X208789Y296198D01*
X208904Y296246D01*
X208968Y296289D01*
X209036Y296324D01*
X209134Y296402D01*
X209226Y296465D01*
X210097Y296597D01*
X210162Y296613D01*
X210393Y296664D01*
X211241Y296926D01*
X211291Y296910D01*
X211415Y296896D01*
X211538Y296873D01*
X211615Y296873D01*
X211691Y296865D01*
X211854Y296876D01*
X211941Y296877D01*
X211976Y296884D01*
X212022Y296887D01*
X212406Y296945D01*
X212480Y296964D01*
X212556Y296974D01*
X212675Y297014D01*
X212796Y297045D01*
X212865Y297078D01*
X212938Y297102D01*
X213046Y297165D01*
X213147Y297213D01*
X214028Y297213D01*
X214095Y297220D01*
X214331Y297236D01*
X215208Y297368D01*
X215255Y297345D01*
X215376Y297313D01*
X215494Y297271D01*
X215570Y297260D01*
X215644Y297241D01*
X215806Y297227D01*
X215893Y297215D01*
X215929Y297217D01*
X215974Y297214D01*
X216363Y297214D01*
X216439Y297221D01*
X216516Y297219D01*
X216639Y297241D01*
X216764Y297254D01*
X216837Y297276D01*
X216912Y297289D01*
X217029Y297335D01*
X217135Y297368D01*
X218007Y297237D01*
X218074Y297233D01*
X218310Y297214D01*
X219197Y297214D01*
X219240Y297184D01*
X219355Y297134D01*
X219465Y297076D01*
X219539Y297054D01*
X219609Y297023D01*
X219767Y296986D01*
X219851Y296961D01*
X219887Y296958D01*
X219932Y296947D01*
X220316Y296889D01*
X220392Y296885D01*
X220468Y296872D01*
X220593Y296875D01*
X220718Y296869D01*
X220794Y296880D01*
X220870Y296882D01*
X220992Y296910D01*
X221103Y296927D01*
X221945Y296667D01*
X222011Y296654D01*
X222241Y296600D01*
X223118Y296468D01*
X223156Y296431D01*
X223262Y296365D01*
X223363Y296290D01*
X223432Y296258D01*
X223497Y296217D01*
X223648Y296156D01*
X223727Y296119D01*
X223762Y296111D01*
X223805Y296094D01*
X224176Y295979D01*
X224251Y295964D01*
X224324Y295940D01*
X224448Y295924D01*
X224571Y295899D01*
X224647Y295899D01*
X224723Y295890D01*
X224848Y295899D01*
X224960Y295899D01*
X225754Y295517D01*
X225817Y295494D01*
X226036Y295406D01*
X226884Y295145D01*
X226916Y295103D01*
X227011Y295022D01*
X227100Y294933D01*
X227163Y294891D01*
X227221Y294841D01*
X227362Y294758D01*
X227435Y294710D01*
X227468Y294696D01*
X227508Y294673D01*
X227858Y294504D01*
X227930Y294478D01*
X227998Y294443D01*
X228118Y294409D01*
X228236Y294366D01*
X228312Y294355D01*
X228385Y294334D01*
X228510Y294325D01*
X228621Y294308D01*
X229349Y293812D01*
X229408Y293779D01*
X229612Y293660D01*
X230411Y293275D01*
X230436Y293231D01*
X230518Y293135D01*
X230593Y293034D01*
X230649Y292983D01*
X230698Y292925D01*
X230826Y292822D01*
X230891Y292763D01*
X230921Y292745D01*
X230956Y292717D01*
X230982Y292699D01*
X231008Y292684D01*
X231032Y292666D01*
X231174Y292594D01*
X231236Y292556D01*
X231255Y292550D01*
X231335Y292506D01*
X231364Y292497D01*
X231391Y292483D01*
X231556Y292437D01*
X231720Y292386D01*
X231750Y292383D01*
X231779Y292375D01*
X231950Y292363D01*
X232120Y292345D01*
X232150Y292348D01*
X232180Y292346D01*
X232351Y292367D01*
X232521Y292384D01*
X232550Y292393D01*
X232580Y292396D01*
X232743Y292451D01*
X232906Y292501D01*
X232933Y292515D01*
X232962Y292525D01*
X233110Y292610D01*
X233261Y292691D01*
X233284Y292710D01*
X233310Y292725D01*
X233563Y292940D01*
X254357Y313734D01*
X254374Y313754D01*
X254394Y313772D01*
X254501Y313910D01*
X254612Y314045D01*
X254624Y314069D01*
X254641Y314090D01*
X254719Y314247D01*
X254801Y314401D01*
X254808Y314426D01*
X254820Y314450D01*
X254866Y314620D01*
X254915Y314787D01*
X254918Y314813D01*
X254925Y314839D01*
X254952Y315170D01*
X254952Y341208D01*
X254951Y341213D01*
X254952Y341217D01*
X254932Y341411D01*
X254912Y341609D01*
X254911Y341613D01*
X254910Y341618D01*
X254852Y341802D01*
X254794Y341994D01*
X254792Y341998D01*
X254790Y342002D01*
X254695Y342177D01*
X254602Y342348D01*
X254599Y342351D01*
X254597Y342355D01*
X254468Y342508D01*
X254344Y342657D01*
X254341Y342660D01*
X254338Y342663D01*
X254183Y342787D01*
X254030Y342909D01*
X254027Y342911D01*
X254023Y342914D01*
X253844Y343006D01*
X253673Y343095D01*
X253669Y343096D01*
X253665Y343098D01*
X253472Y343153D01*
X253286Y343206D01*
X253282Y343207D01*
X253277Y343208D01*
X253082Y343223D01*
X252885Y343239D01*
X252880Y343239D01*
X252876Y343239D01*
X252682Y343215D01*
X252485Y343192D01*
X252481Y343191D01*
X252476Y343190D01*
X252291Y343129D01*
X252102Y343067D01*
X252098Y343065D01*
X252094Y343064D01*
X251925Y342967D01*
X251752Y342870D01*
X251748Y342867D01*
X251744Y342864D01*
X251598Y342736D01*
X251447Y342606D01*
X251444Y342603D01*
X251441Y342600D01*
X251320Y342443D01*
X251200Y342288D01*
X251198Y342284D01*
X251195Y342281D01*
X251044Y341986D01*
X250585Y340878D01*
X248799Y339091D01*
X237442Y327735D01*
X237425Y327714D01*
X237405Y327696D01*
X237298Y327558D01*
X237187Y327423D01*
X237174Y327399D01*
X237158Y327378D01*
X237080Y327222D01*
X236998Y327067D01*
X236990Y327042D01*
X236979Y327018D01*
X236933Y326848D01*
X236883Y326681D01*
X236881Y326655D01*
X236874Y326629D01*
X236847Y326298D01*
X236847Y322807D01*
X235339Y319166D01*
X232552Y316379D01*
X228911Y314871D01*
X224969Y314871D01*
X221328Y316379D01*
X218542Y319166D01*
X217033Y322807D01*
X217033Y326748D01*
X218542Y330389D01*
X221328Y333176D01*
X224969Y334684D01*
X228461Y334684D01*
X228488Y334687D01*
X228514Y334685D01*
X228688Y334707D01*
X228862Y334724D01*
X228887Y334732D01*
X228914Y334735D01*
X229079Y334791D01*
X229247Y334842D01*
X229270Y334855D01*
X229295Y334863D01*
X229447Y334951D01*
X229601Y335034D01*
X229621Y335051D01*
X229644Y335064D01*
X229897Y335279D01*
X231895Y337277D01*
X231898Y337280D01*
X231902Y337283D01*
X232026Y337437D01*
X232150Y337589D01*
X232152Y337592D01*
X232155Y337596D01*
X232249Y337775D01*
X232339Y337944D01*
X232340Y337948D01*
X232342Y337952D01*
X232397Y338139D01*
X232454Y338330D01*
X232454Y338335D01*
X232455Y338339D01*
X232472Y338531D01*
X232490Y338731D01*
X232490Y338736D01*
X232490Y338740D01*
X232469Y338930D01*
X232447Y339131D01*
X232445Y339136D01*
X232445Y339140D01*
X232386Y339323D01*
X232325Y339515D01*
X232323Y339519D01*
X232322Y339523D01*
X232226Y339694D01*
X232130Y339868D01*
X232128Y339871D01*
X232125Y339875D01*
X231997Y340025D01*
X231870Y340175D01*
X231866Y340177D01*
X231864Y340181D01*
X231708Y340303D01*
X231554Y340424D01*
X231550Y340426D01*
X231547Y340429D01*
X231370Y340518D01*
X231195Y340607D01*
X231191Y340608D01*
X231187Y340610D01*
X230996Y340662D01*
X230807Y340715D01*
X230803Y340715D01*
X230799Y340716D01*
X230602Y340730D01*
X230406Y340744D01*
X230401Y340743D01*
X230397Y340744D01*
X230201Y340718D01*
X230006Y340693D01*
X230002Y340692D01*
X229998Y340691D01*
X229682Y340590D01*
X228911Y340271D01*
X224969Y340271D01*
X221328Y341779D01*
X218542Y344566D01*
X217033Y348207D01*
X217033Y352148D01*
X218542Y355789D01*
X221010Y358258D01*
X221027Y358279D01*
X221048Y358296D01*
X221155Y358434D01*
X221265Y358569D01*
X221278Y358593D01*
X221294Y358614D01*
X221372Y358771D01*
X221454Y358925D01*
X221462Y358951D01*
X221474Y358975D01*
X221519Y359144D01*
X221569Y359311D01*
X221571Y359338D01*
X221578Y359363D01*
X221605Y359694D01*
X221605Y366060D01*
X221603Y366087D01*
X221605Y366114D01*
X221583Y366288D01*
X221565Y366461D01*
X221558Y366487D01*
X221554Y366513D01*
X221499Y366679D01*
X221447Y366846D01*
X221435Y366870D01*
X221426Y366895D01*
X221339Y367047D01*
X221256Y367200D01*
X221239Y367220D01*
X221225Y367244D01*
X221010Y367497D01*
X218542Y369966D01*
X217033Y373607D01*
X217033Y377548D01*
X218542Y381189D01*
X221328Y383976D01*
X224969Y385484D01*
X228461Y385484D01*
X228488Y385487D01*
X228514Y385485D01*
X228688Y385507D01*
X228862Y385524D01*
X228887Y385532D01*
X228914Y385535D01*
X229079Y385591D01*
X229247Y385642D01*
X229270Y385655D01*
X229295Y385663D01*
X229447Y385751D01*
X229601Y385834D01*
X229621Y385851D01*
X229644Y385864D01*
X229897Y386079D01*
X234865Y391047D01*
X234866Y391047D01*
X236652Y392834D01*
X238613Y393646D01*
X271842Y393646D01*
X271869Y393648D01*
X271896Y393646D01*
X272070Y393668D01*
X272243Y393686D01*
X272269Y393693D01*
X272295Y393697D01*
X272461Y393752D01*
X272628Y393804D01*
X272652Y393816D01*
X272677Y393825D01*
X272829Y393912D01*
X272982Y393995D01*
X273002Y394013D01*
X273026Y394026D01*
X273279Y394241D01*
X275136Y396098D01*
X287030Y396098D01*
X288370Y394758D01*
X288370Y385794D01*
X288372Y385767D01*
X288370Y385740D01*
X288392Y385566D01*
X288410Y385393D01*
X288417Y385368D01*
X288421Y385341D01*
X288476Y385175D01*
X288528Y385008D01*
X288541Y384985D01*
X288549Y384959D01*
X288636Y384808D01*
X288720Y384654D01*
X288737Y384634D01*
X288750Y384610D01*
X288965Y384357D01*
X292636Y380686D01*
X293257Y379186D01*
X293268Y379167D01*
X293275Y379146D01*
X293363Y378989D01*
X293447Y378832D01*
X293462Y378814D01*
X293472Y378795D01*
X293589Y378660D01*
X293704Y378521D01*
X293721Y378507D01*
X293736Y378490D01*
X293877Y378381D01*
X294016Y378267D01*
X294036Y378257D01*
X294054Y378243D01*
X294215Y378163D01*
X294373Y378080D01*
X294394Y378074D01*
X294414Y378064D01*
X294588Y378017D01*
X294759Y377967D01*
X294781Y377965D01*
X294803Y377960D01*
X295134Y377932D01*
X314955Y377932D01*
X316294Y376593D01*
X316294Y347153D01*
X314946Y345805D01*
X314935Y345791D01*
X314921Y345779D01*
X314807Y345635D01*
X314691Y345493D01*
X314683Y345477D01*
X314672Y345463D01*
X314588Y345299D01*
X314503Y345137D01*
X314497Y345120D01*
X314489Y345104D01*
X314440Y344927D01*
X314388Y344751D01*
X314386Y344734D01*
X314381Y344716D01*
X314368Y344533D01*
X314351Y344350D01*
X314353Y344333D01*
X314352Y344315D01*
X314375Y344133D01*
X314395Y343950D01*
X314400Y343933D01*
X314402Y343915D01*
X314461Y343742D01*
X314516Y343566D01*
X314525Y343551D01*
X314531Y343534D01*
X314622Y343375D01*
X314711Y343214D01*
X314723Y343200D01*
X314732Y343185D01*
X314946Y342932D01*
X316294Y341584D01*
X316294Y320707D01*
X316296Y320689D01*
X316295Y320671D01*
X316316Y320489D01*
X316334Y320306D01*
X316339Y320289D01*
X316341Y320271D01*
X316398Y320097D01*
X316452Y319921D01*
X316461Y319906D01*
X316466Y319889D01*
X316557Y319728D01*
X316644Y319567D01*
X316655Y319554D01*
X316664Y319538D01*
X316784Y319399D01*
X316902Y319258D01*
X316916Y319247D01*
X316927Y319233D01*
X317072Y319121D01*
X317216Y319006D01*
X317231Y318997D01*
X317245Y318986D01*
X317410Y318904D01*
X317573Y318820D01*
X317590Y318815D01*
X317606Y318807D01*
X317784Y318759D01*
X317960Y318709D01*
X317978Y318707D01*
X317995Y318703D01*
X318325Y318675D01*
X370650Y318675D01*
X370667Y318677D01*
X370685Y318676D01*
X370867Y318697D01*
X371050Y318715D01*
X371067Y318721D01*
X371085Y318723D01*
X371259Y318780D01*
X371435Y318834D01*
X371451Y318842D01*
X371468Y318848D01*
X371628Y318938D01*
X371789Y319025D01*
X371803Y319037D01*
X371818Y319045D01*
X371958Y319166D01*
X372098Y319283D01*
X372110Y319297D01*
X372123Y319309D01*
X372236Y319454D01*
X372351Y319597D01*
X372359Y319613D01*
X372370Y319627D01*
X372452Y319792D01*
X372536Y319954D01*
X372541Y319971D01*
X372549Y319987D01*
X372597Y320165D01*
X372648Y320341D01*
X372649Y320359D01*
X372654Y320376D01*
X372681Y320707D01*
X372681Y366590D01*
X374020Y367929D01*
X381719Y367929D01*
X381737Y367931D01*
X381754Y367930D01*
X381937Y367951D01*
X382119Y367969D01*
X382137Y367975D01*
X382154Y367977D01*
X382329Y368034D01*
X382504Y368088D01*
X382520Y368096D01*
X382537Y368102D01*
X382697Y368192D01*
X382858Y368279D01*
X382872Y368291D01*
X382888Y368299D01*
X383027Y368420D01*
X383168Y368537D01*
X383179Y368551D01*
X383192Y368563D01*
X383305Y368708D01*
X383420Y368851D01*
X383428Y368867D01*
X383439Y368881D01*
X383521Y369046D01*
X383605Y369208D01*
X383610Y369225D01*
X383618Y369241D01*
X383666Y369419D01*
X383717Y369595D01*
X383718Y369613D01*
X383723Y369630D01*
X383750Y369961D01*
X383750Y374993D01*
X384485Y376767D01*
X390515Y382797D01*
X390532Y382817D01*
X390552Y382835D01*
X390659Y382973D01*
X390770Y383108D01*
X390782Y383132D01*
X390799Y383153D01*
X390877Y383310D01*
X390958Y383464D01*
X390966Y383489D01*
X390978Y383513D01*
X391023Y383683D01*
X391073Y383850D01*
X391075Y383876D01*
X391082Y383902D01*
X391109Y384233D01*
X391109Y389802D01*
X392449Y391142D01*
X398242Y391142D01*
X398268Y391144D01*
X398295Y391142D01*
X398469Y391164D01*
X398642Y391181D01*
X398668Y391189D01*
X398694Y391193D01*
X398860Y391248D01*
X399027Y391300D01*
X399051Y391312D01*
X399076Y391321D01*
X399227Y391408D01*
X399381Y391491D01*
X399402Y391508D01*
X399425Y391522D01*
X399678Y391736D01*
X404945Y397003D01*
X404965Y397028D01*
X404988Y397048D01*
X405092Y397183D01*
X405200Y397315D01*
X405215Y397343D01*
X405234Y397367D01*
X405385Y397662D01*
X406449Y400232D01*
X408157Y401939D01*
X410387Y402863D01*
X412801Y402863D01*
X415032Y401939D01*
X416739Y400232D01*
X417663Y398001D01*
X417663Y395587D01*
X416986Y393953D01*
X416982Y393940D01*
X416976Y393928D01*
X416924Y393748D01*
X416870Y393568D01*
X416868Y393554D01*
X416865Y393541D01*
X416849Y393354D01*
X416832Y393167D01*
X416833Y393153D01*
X416832Y393140D01*
X416854Y392954D01*
X416873Y392766D01*
X416877Y392753D01*
X416879Y392740D01*
X416937Y392562D01*
X416993Y392382D01*
X417000Y392370D01*
X417004Y392357D01*
X417096Y392194D01*
X417186Y392029D01*
X417195Y392018D01*
X417202Y392007D01*
X417324Y391865D01*
X417446Y391721D01*
X417456Y391712D01*
X417465Y391702D01*
X417613Y391587D01*
X417760Y391470D01*
X417772Y391463D01*
X417783Y391455D01*
X417951Y391372D01*
X418118Y391286D01*
X418131Y391282D01*
X418143Y391276D01*
X418326Y391227D01*
X418506Y391176D01*
X418519Y391175D01*
X418532Y391171D01*
X418863Y391144D01*
X425189Y391144D01*
X426706Y389628D01*
X426713Y389622D01*
X426718Y389615D01*
X426869Y389494D01*
X427017Y389372D01*
X427025Y389368D01*
X427032Y389363D01*
X427202Y389274D01*
X427373Y389184D01*
X427381Y389181D01*
X427389Y389177D01*
X427574Y389124D01*
X427759Y389069D01*
X427768Y389068D01*
X427776Y389066D01*
X427967Y389050D01*
X428160Y389033D01*
X428169Y389034D01*
X428177Y389033D01*
X428367Y389055D01*
X428560Y389076D01*
X428569Y389079D01*
X428577Y389080D01*
X428759Y389139D01*
X428944Y389198D01*
X428952Y389202D01*
X428960Y389205D01*
X429127Y389299D01*
X429296Y389392D01*
X429303Y389398D01*
X429311Y389403D01*
X429456Y389528D01*
X429603Y389653D01*
X429609Y389660D01*
X429615Y389666D01*
X429733Y389817D01*
X429853Y389969D01*
X429857Y389977D01*
X429862Y389984D01*
X429948Y390156D01*
X430035Y390328D01*
X430037Y390336D01*
X430041Y390344D01*
X430092Y390530D01*
X430143Y390716D01*
X430144Y390725D01*
X430146Y390733D01*
X430173Y391064D01*
X430173Y394978D01*
X431513Y396318D01*
X448407Y396318D01*
X449747Y394978D01*
X449747Y393784D01*
X449749Y393761D01*
X449747Y393738D01*
X449769Y393561D01*
X449787Y393384D01*
X449793Y393361D01*
X449796Y393338D01*
X449852Y393169D01*
X449905Y392999D01*
X449916Y392978D01*
X449923Y392956D01*
X450012Y392801D01*
X450096Y392645D01*
X450111Y392627D01*
X450123Y392607D01*
X450241Y392472D01*
X450354Y392335D01*
X450372Y392321D01*
X450387Y392303D01*
X450434Y392268D01*
X452434Y390267D01*
X459275Y383427D01*
X461061Y381641D01*
X461873Y379680D01*
X461873Y357050D01*
X461061Y355090D01*
X455174Y349202D01*
X455157Y349182D01*
X455136Y349164D01*
X455029Y349026D01*
X454919Y348891D01*
X454906Y348867D01*
X454890Y348846D01*
X454812Y348689D01*
X454730Y348535D01*
X454722Y348510D01*
X454710Y348486D01*
X454665Y348316D01*
X454615Y348149D01*
X454613Y348123D01*
X454606Y348097D01*
X454579Y347766D01*
X454579Y338918D01*
X453239Y337578D01*
X438345Y337578D01*
X437728Y338195D01*
X437715Y338206D01*
X437703Y338220D01*
X437559Y338334D01*
X437417Y338450D01*
X437401Y338458D01*
X437387Y338469D01*
X437223Y338553D01*
X437061Y338639D01*
X437044Y338644D01*
X437028Y338652D01*
X436851Y338701D01*
X436675Y338753D01*
X436657Y338755D01*
X436640Y338760D01*
X436457Y338773D01*
X436274Y338790D01*
X436256Y338788D01*
X436239Y338789D01*
X436057Y338766D01*
X435874Y338746D01*
X435857Y338741D01*
X435839Y338739D01*
X435666Y338680D01*
X435490Y338625D01*
X435474Y338616D01*
X435458Y338610D01*
X435299Y338519D01*
X435138Y338430D01*
X435124Y338418D01*
X435109Y338410D01*
X434856Y338195D01*
X433858Y337198D01*
X433847Y337184D01*
X433833Y337172D01*
X433719Y337028D01*
X433603Y336886D01*
X433595Y336870D01*
X433584Y336856D01*
X433500Y336692D01*
X433415Y336530D01*
X433410Y336513D01*
X433401Y336497D01*
X433352Y336320D01*
X433300Y336144D01*
X433298Y336127D01*
X433293Y336109D01*
X433280Y335926D01*
X433263Y335743D01*
X433265Y335726D01*
X433264Y335708D01*
X433287Y335527D01*
X433307Y335343D01*
X433312Y335326D01*
X433315Y335308D01*
X433373Y335136D01*
X433428Y334959D01*
X433437Y334944D01*
X433443Y334927D01*
X433534Y334768D01*
X433623Y334607D01*
X433635Y334593D01*
X433644Y334578D01*
X433858Y334325D01*
X434305Y333878D01*
X434305Y320984D01*
X432966Y319644D01*
X421071Y319644D01*
X419732Y320984D01*
X419732Y333878D01*
X419964Y334111D01*
X419970Y334118D01*
X419977Y334123D01*
X420097Y334272D01*
X420220Y334422D01*
X420224Y334430D01*
X420229Y334437D01*
X420317Y334606D01*
X420408Y334778D01*
X420411Y334787D01*
X420415Y334794D01*
X420468Y334978D01*
X420523Y335164D01*
X420524Y335173D01*
X420526Y335181D01*
X420542Y335370D01*
X420559Y335565D01*
X420558Y335574D01*
X420559Y335583D01*
X420537Y335772D01*
X420516Y335965D01*
X420513Y335974D01*
X420512Y335983D01*
X420453Y336166D01*
X420394Y336349D01*
X420390Y336357D01*
X420387Y336365D01*
X420292Y336534D01*
X420200Y336701D01*
X420194Y336708D01*
X420189Y336716D01*
X420063Y336863D01*
X419939Y337008D01*
X419932Y337014D01*
X419926Y337021D01*
X419820Y337103D01*
X418005Y338918D01*
X418005Y356540D01*
X418003Y356557D01*
X418005Y356575D01*
X417984Y356758D01*
X417965Y356940D01*
X417960Y356957D01*
X417958Y356975D01*
X417901Y357150D01*
X417847Y357325D01*
X417839Y357341D01*
X417833Y357358D01*
X417743Y357518D01*
X417655Y357679D01*
X417644Y357693D01*
X417635Y357708D01*
X417515Y357848D01*
X417398Y357988D01*
X417384Y358000D01*
X417372Y358013D01*
X417227Y358126D01*
X417084Y358241D01*
X417068Y358249D01*
X417054Y358260D01*
X416889Y358342D01*
X416727Y358426D01*
X416710Y358431D01*
X416694Y358439D01*
X416515Y358487D01*
X416340Y358538D01*
X416322Y358539D01*
X416305Y358544D01*
X415974Y358571D01*
X413294Y358571D01*
X411440Y360425D01*
X411420Y360442D01*
X411402Y360462D01*
X411264Y360569D01*
X411129Y360680D01*
X411105Y360693D01*
X411084Y360709D01*
X410927Y360787D01*
X410773Y360869D01*
X410747Y360876D01*
X410723Y360888D01*
X410554Y360934D01*
X410387Y360984D01*
X410360Y360986D01*
X410335Y360993D01*
X410004Y361020D01*
X407637Y361020D01*
X407610Y361017D01*
X407583Y361019D01*
X407410Y360997D01*
X407236Y360980D01*
X407211Y360972D01*
X407184Y360969D01*
X407018Y360913D01*
X406851Y360862D01*
X406828Y360849D01*
X406802Y360841D01*
X406651Y360753D01*
X406497Y360670D01*
X406477Y360653D01*
X406453Y360640D01*
X406200Y360425D01*
X404120Y358344D01*
X404114Y358338D01*
X404107Y358332D01*
X403987Y358182D01*
X403865Y358033D01*
X403861Y358025D01*
X403855Y358018D01*
X403766Y357847D01*
X403676Y357677D01*
X403674Y357669D01*
X403669Y357661D01*
X403616Y357476D01*
X403561Y357291D01*
X403561Y357282D01*
X403558Y357274D01*
X403542Y357083D01*
X403525Y356890D01*
X403526Y356881D01*
X403525Y356873D01*
X403547Y356683D01*
X403568Y356490D01*
X403571Y356482D01*
X403572Y356473D01*
X403631Y356291D01*
X403690Y356106D01*
X403694Y356098D01*
X403697Y356090D01*
X403792Y355922D01*
X403885Y355754D01*
X403890Y355747D01*
X403895Y355739D01*
X404021Y355593D01*
X404145Y355447D01*
X404152Y355441D01*
X404158Y355435D01*
X404309Y355317D01*
X404461Y355197D01*
X404469Y355193D01*
X404476Y355188D01*
X404648Y355102D01*
X404820Y355015D01*
X404829Y355013D01*
X404837Y355009D01*
X405023Y354958D01*
X405208Y354907D01*
X405217Y354906D01*
X405225Y354904D01*
X405556Y354877D01*
X410196Y354877D01*
X411536Y353537D01*
X411536Y347643D01*
X410196Y346303D01*
X404539Y346303D01*
X404513Y346301D01*
X404486Y346303D01*
X404312Y346281D01*
X404139Y346264D01*
X404113Y346256D01*
X404087Y346252D01*
X403921Y346197D01*
X403754Y346145D01*
X403730Y346133D01*
X403705Y346124D01*
X403553Y346037D01*
X403400Y345954D01*
X403379Y345937D01*
X403356Y345923D01*
X403103Y345708D01*
X402424Y345029D01*
X400969Y345030D01*
X400218Y345030D01*
X400191Y345027D01*
X400164Y345029D01*
X399990Y345007D01*
X399817Y344990D01*
X399791Y344982D01*
X399765Y344978D01*
X399599Y344923D01*
X399432Y344872D01*
X399408Y344859D01*
X399383Y344850D01*
X399232Y344763D01*
X399078Y344680D01*
X399058Y344663D01*
X399034Y344649D01*
X398781Y344435D01*
X393232Y338885D01*
X393221Y338872D01*
X393207Y338860D01*
X393094Y338716D01*
X392977Y338574D01*
X392969Y338558D01*
X392958Y338544D01*
X392874Y338380D01*
X392788Y338218D01*
X392783Y338201D01*
X392775Y338185D01*
X392726Y338008D01*
X392674Y337832D01*
X392672Y337815D01*
X392667Y337797D01*
X392654Y337614D01*
X392637Y337431D01*
X392639Y337414D01*
X392638Y337396D01*
X392661Y337214D01*
X392681Y337031D01*
X392686Y337014D01*
X392688Y336996D01*
X392747Y336822D01*
X392802Y336647D01*
X392811Y336632D01*
X392816Y336615D01*
X392908Y336455D01*
X392997Y336295D01*
X393008Y336281D01*
X393017Y336266D01*
X393232Y336013D01*
X397773Y331472D01*
X397794Y331455D01*
X397811Y331435D01*
X397949Y331328D01*
X398085Y331217D01*
X398108Y331204D01*
X398129Y331188D01*
X398285Y331110D01*
X398440Y331028D01*
X398466Y331021D01*
X398490Y331009D01*
X398659Y330963D01*
X398826Y330913D01*
X398853Y330911D01*
X398879Y330904D01*
X399209Y330877D01*
X410196Y330877D01*
X411536Y329537D01*
X411536Y323643D01*
X410196Y322303D01*
X397256Y322303D01*
X397238Y322302D01*
X397220Y322303D01*
X397038Y322282D01*
X396855Y322264D01*
X396838Y322258D01*
X396821Y322256D01*
X396646Y322199D01*
X396470Y322145D01*
X396455Y322137D01*
X396438Y322131D01*
X396278Y322041D01*
X396116Y321954D01*
X396103Y321942D01*
X396087Y321934D01*
X395948Y321813D01*
X395807Y321696D01*
X395796Y321682D01*
X395782Y321670D01*
X395670Y321525D01*
X395555Y321382D01*
X395547Y321366D01*
X395536Y321352D01*
X395454Y321187D01*
X395369Y321025D01*
X395364Y321008D01*
X395356Y320992D01*
X395309Y320814D01*
X395258Y320638D01*
X395256Y320620D01*
X395252Y320603D01*
X395225Y320272D01*
X395225Y307733D01*
X395227Y307715D01*
X395225Y307697D01*
X395246Y307515D01*
X395265Y307332D01*
X395270Y307315D01*
X395272Y307297D01*
X395329Y307123D01*
X395383Y306947D01*
X395391Y306931D01*
X395397Y306914D01*
X395487Y306754D01*
X395575Y306593D01*
X395586Y306579D01*
X395595Y306564D01*
X395715Y306425D01*
X395832Y306284D01*
X395846Y306273D01*
X395858Y306259D01*
X396003Y306147D01*
X396146Y306031D01*
X396162Y306023D01*
X396176Y306012D01*
X396341Y305930D01*
X396503Y305846D01*
X396520Y305841D01*
X396536Y305833D01*
X396715Y305785D01*
X396890Y305735D01*
X396908Y305733D01*
X396925Y305728D01*
X397256Y305701D01*
X404621Y305701D01*
X405960Y304362D01*
X405960Y297177D01*
X405963Y297150D01*
X405961Y297123D01*
X405983Y296949D01*
X406000Y296776D01*
X406008Y296751D01*
X406011Y296724D01*
X406067Y296558D01*
X406118Y296391D01*
X406131Y296368D01*
X406140Y296342D01*
X406227Y296191D01*
X406310Y296037D01*
X406327Y296017D01*
X406341Y295993D01*
X406555Y295740D01*
X410127Y292169D01*
X410147Y292152D01*
X410165Y292132D01*
X410303Y292025D01*
X410438Y291914D01*
X410462Y291901D01*
X410483Y291885D01*
X410640Y291807D01*
X410794Y291725D01*
X410819Y291718D01*
X410844Y291706D01*
X411013Y291660D01*
X411180Y291610D01*
X411206Y291608D01*
X411232Y291601D01*
X411563Y291574D01*
X420069Y291574D01*
X420096Y291577D01*
X420123Y291575D01*
X420296Y291597D01*
X420470Y291614D01*
X420495Y291622D01*
X420522Y291625D01*
X420688Y291681D01*
X420855Y291732D01*
X420878Y291745D01*
X420904Y291753D01*
X421055Y291841D01*
X421209Y291924D01*
X421229Y291941D01*
X421253Y291954D01*
X421506Y292169D01*
X425893Y296557D01*
X425910Y296577D01*
X425931Y296595D01*
X426038Y296733D01*
X426148Y296868D01*
X426161Y296892D01*
X426177Y296913D01*
X426255Y297070D01*
X426337Y297224D01*
X426345Y297249D01*
X426357Y297273D01*
X426402Y297443D01*
X426452Y297610D01*
X426454Y297636D01*
X426461Y297662D01*
X426488Y297993D01*
X426488Y305773D01*
X432292Y311576D01*
X440499Y311576D01*
X446302Y305773D01*
X446302Y297566D01*
X440499Y291762D01*
X432719Y291762D01*
X432692Y291760D01*
X432666Y291762D01*
X432492Y291740D01*
X432318Y291723D01*
X432293Y291715D01*
X432266Y291711D01*
X432100Y291656D01*
X431933Y291604D01*
X431910Y291592D01*
X431884Y291583D01*
X431733Y291496D01*
X431579Y291413D01*
X431559Y291396D01*
X431536Y291382D01*
X431283Y291167D01*
X424068Y283952D01*
X407565Y283952D01*
X400984Y290533D01*
X400963Y290550D01*
X400946Y290570D01*
X400808Y290677D01*
X400673Y290788D01*
X400649Y290801D01*
X400628Y290817D01*
X400471Y290895D01*
X400317Y290977D01*
X400291Y290984D01*
X400267Y290996D01*
X400098Y291042D01*
X399931Y291091D01*
X399904Y291094D01*
X399879Y291101D01*
X399548Y291128D01*
X394356Y291128D01*
X394347Y291127D01*
X394338Y291128D01*
X394145Y291107D01*
X393956Y291088D01*
X393947Y291085D01*
X393938Y291084D01*
X393754Y291026D01*
X393571Y290970D01*
X393563Y290966D01*
X393554Y290963D01*
X393386Y290870D01*
X393217Y290778D01*
X393210Y290772D01*
X393202Y290768D01*
X393055Y290643D01*
X392907Y290520D01*
X392902Y290513D01*
X392895Y290508D01*
X392775Y290356D01*
X392655Y290207D01*
X392651Y290199D01*
X392645Y290192D01*
X392558Y290019D01*
X392470Y289849D01*
X392467Y289841D01*
X392463Y289833D01*
X392411Y289646D01*
X392358Y289462D01*
X392357Y289453D01*
X392355Y289445D01*
X392341Y289252D01*
X392325Y289061D01*
X392326Y289052D01*
X392326Y289043D01*
X392350Y288851D01*
X392372Y288661D01*
X392375Y288653D01*
X392376Y288644D01*
X392437Y288462D01*
X392497Y288278D01*
X392501Y288271D01*
X392504Y288262D01*
X392600Y288095D01*
X392695Y287928D01*
X392701Y287921D01*
X392705Y287913D01*
X392920Y287660D01*
X401600Y278980D01*
X401621Y278963D01*
X401639Y278943D01*
X401776Y278836D01*
X401912Y278725D01*
X401935Y278712D01*
X401957Y278696D01*
X402114Y278618D01*
X402268Y278536D01*
X402293Y278529D01*
X402317Y278517D01*
X402487Y278471D01*
X402653Y278421D01*
X402680Y278419D01*
X402706Y278412D01*
X403037Y278385D01*
X435984Y278385D01*
X436011Y278388D01*
G37*
G36*
X352359Y401010D02*
X352359Y401010D01*
X352386Y401008D01*
X352560Y401030D01*
X352733Y401047D01*
X352758Y401055D01*
X352785Y401058D01*
X352951Y401114D01*
X353118Y401165D01*
X353141Y401178D01*
X353167Y401187D01*
X353318Y401274D01*
X353472Y401357D01*
X353492Y401374D01*
X353516Y401388D01*
X353769Y401602D01*
X353794Y401627D01*
X353811Y401648D01*
X353831Y401666D01*
X353938Y401804D01*
X354049Y401939D01*
X354061Y401963D01*
X354078Y401984D01*
X354156Y402141D01*
X354237Y402295D01*
X354245Y402320D01*
X354257Y402344D01*
X354303Y402514D01*
X354352Y402681D01*
X354355Y402707D01*
X354362Y402733D01*
X354389Y403064D01*
X354389Y404228D01*
X368589Y418429D01*
X368604Y418446D01*
X368621Y418460D01*
X368731Y418601D01*
X368844Y418740D01*
X368855Y418760D01*
X368869Y418777D01*
X368949Y418938D01*
X369033Y419096D01*
X369039Y419117D01*
X369050Y419137D01*
X369097Y419311D01*
X369148Y419482D01*
X369150Y419504D01*
X369156Y419525D01*
X369168Y419703D01*
X369184Y419883D01*
X369182Y419905D01*
X369183Y419927D01*
X369160Y420104D01*
X369141Y420283D01*
X369134Y420304D01*
X369131Y420326D01*
X369126Y420343D01*
X369126Y427315D01*
X369855Y429074D01*
X371201Y430420D01*
X372960Y431149D01*
X385865Y431149D01*
X387624Y430420D01*
X388970Y429074D01*
X389699Y427315D01*
X389699Y425138D01*
X389700Y425129D01*
X389699Y425120D01*
X389720Y424929D01*
X389739Y424738D01*
X389742Y424729D01*
X389743Y424720D01*
X389800Y424538D01*
X389857Y424353D01*
X389862Y424345D01*
X389864Y424336D01*
X389957Y424168D01*
X390049Y423999D01*
X390055Y423992D01*
X390059Y423984D01*
X390184Y423837D01*
X390307Y423689D01*
X390314Y423684D01*
X390320Y423677D01*
X390470Y423558D01*
X390620Y423437D01*
X390628Y423433D01*
X390635Y423427D01*
X390808Y423340D01*
X390978Y423252D01*
X390986Y423249D01*
X390994Y423245D01*
X391181Y423193D01*
X391365Y423140D01*
X391374Y423139D01*
X391382Y423137D01*
X391575Y423123D01*
X391766Y423107D01*
X391775Y423108D01*
X391784Y423108D01*
X391976Y423132D01*
X392166Y423154D01*
X392174Y423157D01*
X392183Y423158D01*
X392366Y423219D01*
X392549Y423279D01*
X392556Y423283D01*
X392565Y423286D01*
X392732Y423382D01*
X392899Y423477D01*
X392906Y423483D01*
X392914Y423487D01*
X393167Y423702D01*
X396409Y426944D01*
X399236Y429771D01*
X439681Y429771D01*
X439707Y429774D01*
X439734Y429772D01*
X439908Y429794D01*
X440081Y429811D01*
X440107Y429819D01*
X440133Y429823D01*
X440299Y429878D01*
X440466Y429930D01*
X440490Y429942D01*
X440515Y429951D01*
X440667Y430038D01*
X440820Y430121D01*
X440841Y430138D01*
X440864Y430152D01*
X441117Y430366D01*
X441856Y431106D01*
X444087Y432029D01*
X446501Y432029D01*
X448717Y431111D01*
X448788Y431090D01*
X448855Y431060D01*
X448980Y431032D01*
X449103Y430995D01*
X449176Y430988D01*
X449248Y430972D01*
X449376Y430969D01*
X449504Y430957D01*
X449577Y430964D01*
X449651Y430963D01*
X449777Y430985D01*
X449904Y430998D01*
X449975Y431020D01*
X450047Y431033D01*
X450166Y431080D01*
X450289Y431118D01*
X450353Y431154D01*
X450422Y431181D01*
X450529Y431250D01*
X450642Y431311D01*
X450698Y431359D01*
X450760Y431399D01*
X450852Y431488D01*
X450950Y431571D01*
X450996Y431628D01*
X451049Y431680D01*
X451121Y431785D01*
X451201Y431885D01*
X451235Y431951D01*
X451276Y432012D01*
X451345Y432166D01*
X451385Y432244D01*
X451394Y432276D01*
X451411Y432315D01*
X451595Y432839D01*
X451647Y432875D01*
X451738Y432971D01*
X451836Y433061D01*
X451876Y433117D01*
X451923Y433167D01*
X452021Y433317D01*
X452072Y433388D01*
X452084Y433414D01*
X452104Y433446D01*
X452326Y433857D01*
X452353Y433920D01*
X452387Y433980D01*
X452430Y434106D01*
X452481Y434228D01*
X452495Y434296D01*
X452517Y434361D01*
X452534Y434493D01*
X452560Y434623D01*
X453077Y435300D01*
X453099Y435336D01*
X453250Y435568D01*
X453659Y436326D01*
X453716Y436354D01*
X453821Y436435D01*
X453931Y436509D01*
X453980Y436557D01*
X454035Y436600D01*
X454155Y436733D01*
X454215Y436794D01*
X454232Y436818D01*
X454257Y436846D01*
X454540Y437217D01*
X454576Y437276D01*
X454620Y437329D01*
X454682Y437447D01*
X454752Y437560D01*
X454775Y437625D01*
X454807Y437686D01*
X454845Y437813D01*
X454891Y437938D01*
X455507Y438526D01*
X455535Y438558D01*
X455720Y438763D01*
X456243Y439448D01*
X456303Y439467D01*
X456420Y439530D01*
X456540Y439586D01*
X456596Y439626D01*
X456656Y439659D01*
X456796Y439772D01*
X456866Y439823D01*
X456885Y439845D01*
X456914Y439868D01*
X457252Y440190D01*
X457297Y440243D01*
X457349Y440289D01*
X457428Y440395D01*
X457515Y440496D01*
X457548Y440556D01*
X457590Y440611D01*
X457647Y440731D01*
X457712Y440847D01*
X458412Y441331D01*
X458445Y441359D01*
X458660Y441533D01*
X459283Y442127D01*
X459346Y442136D01*
X459471Y442181D01*
X459599Y442217D01*
X459660Y442248D01*
X459725Y442271D01*
X459880Y442361D01*
X459957Y442400D01*
X459980Y442418D01*
X460012Y442437D01*
X460203Y442569D01*
X460308Y442658D01*
X460418Y442740D01*
X460461Y442788D01*
X460510Y442830D01*
X460595Y442937D01*
X460687Y443039D01*
X460720Y443095D01*
X460760Y443146D01*
X460822Y443268D01*
X460891Y443386D01*
X460913Y443447D01*
X460942Y443505D01*
X460979Y443637D01*
X461024Y443766D01*
X461033Y443830D01*
X461050Y443893D01*
X461060Y444029D01*
X461078Y444165D01*
X461074Y444229D01*
X461079Y444294D01*
X461062Y444430D01*
X461053Y444567D01*
X461037Y444629D01*
X461029Y444694D01*
X460985Y444824D01*
X460950Y444956D01*
X460918Y445023D01*
X460900Y445075D01*
X460860Y445144D01*
X460808Y445256D01*
X432032Y495098D01*
X431979Y495172D01*
X431934Y495252D01*
X431862Y495335D01*
X431797Y495425D01*
X431730Y495487D01*
X431671Y495556D01*
X431583Y495624D01*
X431502Y495700D01*
X431425Y495747D01*
X431353Y495803D01*
X431254Y495852D01*
X431159Y495910D01*
X431074Y495942D01*
X430992Y495982D01*
X430885Y496011D01*
X430781Y496049D01*
X430691Y496063D01*
X430603Y496087D01*
X430466Y496098D01*
X430383Y496111D01*
X430336Y496109D01*
X430273Y496114D01*
X260290Y496114D01*
X260199Y496105D01*
X260108Y496106D01*
X259999Y496085D01*
X259889Y496074D01*
X259802Y496047D01*
X259713Y496030D01*
X259610Y495988D01*
X259504Y495956D01*
X259424Y495913D01*
X259340Y495878D01*
X259248Y495817D01*
X259150Y495764D01*
X259080Y495706D01*
X259004Y495656D01*
X258926Y495577D01*
X258841Y495506D01*
X258784Y495436D01*
X258719Y495371D01*
X258641Y495258D01*
X258589Y495193D01*
X258567Y495150D01*
X258531Y495098D01*
X229221Y444332D01*
X229151Y444177D01*
X229076Y444024D01*
X229068Y443993D01*
X229055Y443965D01*
X229017Y443799D01*
X228974Y443634D01*
X228972Y443603D01*
X228965Y443572D01*
X228961Y443402D01*
X228951Y443232D01*
X228955Y443201D01*
X228954Y443170D01*
X228983Y443002D01*
X229007Y442834D01*
X229018Y442804D01*
X229023Y442773D01*
X229084Y442615D01*
X229141Y442454D01*
X229157Y442427D01*
X229169Y442398D01*
X229260Y442255D01*
X229347Y442108D01*
X229368Y442085D01*
X229385Y442058D01*
X229504Y441935D01*
X229617Y441810D01*
X229643Y441791D01*
X229665Y441768D01*
X229805Y441671D01*
X229941Y441571D01*
X229970Y441557D01*
X229996Y441539D01*
X230152Y441472D01*
X230306Y441400D01*
X230337Y441392D01*
X230365Y441380D01*
X230457Y441361D01*
X231109Y440739D01*
X231143Y440713D01*
X231356Y440538D01*
X232065Y440048D01*
X232087Y439989D01*
X232155Y439875D01*
X232217Y439757D01*
X232260Y439703D01*
X232296Y439644D01*
X232415Y439511D01*
X232469Y439443D01*
X232492Y439424D01*
X232516Y439397D01*
X232854Y439074D01*
X232909Y439032D01*
X232957Y438983D01*
X233067Y438909D01*
X233172Y438827D01*
X233233Y438796D01*
X233290Y438757D01*
X233413Y438706D01*
X233532Y438646D01*
X234049Y437969D01*
X234078Y437938D01*
X234261Y437732D01*
X234885Y437137D01*
X234897Y437076D01*
X234947Y436953D01*
X234989Y436827D01*
X235023Y436767D01*
X235049Y436703D01*
X235146Y436552D01*
X235189Y436477D01*
X235208Y436455D01*
X235229Y436424D01*
X235512Y436052D01*
X235559Y436002D01*
X235599Y435946D01*
X235681Y435869D01*
X235709Y435837D01*
X235723Y435826D01*
X235787Y435758D01*
X235843Y435718D01*
X235893Y435671D01*
X236006Y435601D01*
X236114Y435524D01*
X236115Y435524D01*
X236519Y434774D01*
X236543Y434739D01*
X236692Y434507D01*
X237215Y433822D01*
X237217Y433759D01*
X237247Y433629D01*
X237269Y433498D01*
X237293Y433434D01*
X237309Y433367D01*
X237381Y433203D01*
X237412Y433122D01*
X237428Y433097D01*
X237443Y433063D01*
X237664Y432652D01*
X237703Y432595D01*
X237734Y432533D01*
X237815Y432428D01*
X237890Y432318D01*
X237939Y432270D01*
X237981Y432215D01*
X238082Y432129D01*
X238177Y432036D01*
X238177Y432035D01*
X238459Y431232D01*
X238477Y431193D01*
X238588Y430940D01*
X238997Y430182D01*
X238989Y430120D01*
X238999Y429987D01*
X239000Y429854D01*
X239014Y429787D01*
X239019Y429718D01*
X239065Y429545D01*
X239082Y429460D01*
X239094Y429433D01*
X239103Y429397D01*
X239258Y428957D01*
X239287Y428894D01*
X239308Y428828D01*
X239372Y428712D01*
X239429Y428592D01*
X239470Y428536D01*
X239503Y428476D01*
X239589Y428375D01*
X239668Y428268D01*
X239668Y428267D01*
X239821Y427430D01*
X239833Y427389D01*
X239903Y427122D01*
X240188Y426309D01*
X240171Y426248D01*
X240160Y426116D01*
X240140Y425985D01*
X240143Y425916D01*
X240138Y425847D01*
X240155Y425669D01*
X240160Y425582D01*
X240167Y425554D01*
X240170Y425517D01*
X240254Y425057D01*
X240273Y424991D01*
X240284Y424923D01*
X240329Y424798D01*
X240366Y424670D01*
X240397Y424609D01*
X240421Y424544D01*
X240490Y424431D01*
X240551Y424313D01*
X240571Y423461D01*
X240577Y423418D01*
X240604Y423144D01*
X240705Y422590D01*
X240714Y422560D01*
X240717Y422529D01*
X240769Y422367D01*
X240816Y422203D01*
X240831Y422175D01*
X240841Y422145D01*
X240923Y421997D01*
X241002Y421846D01*
X241022Y421821D01*
X241037Y421794D01*
X241147Y421665D01*
X241254Y421532D01*
X241278Y421512D01*
X241299Y421488D01*
X241432Y421383D01*
X241563Y421274D01*
X241591Y421259D01*
X241616Y421240D01*
X241767Y421164D01*
X241917Y421082D01*
X241947Y421073D01*
X241975Y421059D01*
X242140Y421014D01*
X242302Y420964D01*
X242333Y420961D01*
X242364Y420953D01*
X242533Y420941D01*
X242703Y420924D01*
X242734Y420927D01*
X242765Y420925D01*
X242934Y420947D01*
X243103Y420964D01*
X243133Y420973D01*
X243165Y420977D01*
X243481Y421079D01*
X244855Y421648D01*
X247270Y421648D01*
X249500Y420724D01*
X251481Y418743D01*
X251502Y418726D01*
X251519Y418706D01*
X251657Y418599D01*
X251793Y418488D01*
X251816Y418476D01*
X251838Y418459D01*
X251995Y418381D01*
X252149Y418299D01*
X252174Y418292D01*
X252198Y418280D01*
X252368Y418234D01*
X252534Y418185D01*
X252561Y418182D01*
X252587Y418175D01*
X252918Y418148D01*
X298832Y418148D01*
X298850Y418150D01*
X298868Y418149D01*
X299050Y418170D01*
X299233Y418188D01*
X299250Y418193D01*
X299267Y418195D01*
X299442Y418252D01*
X299618Y418306D01*
X299633Y418315D01*
X299650Y418320D01*
X299810Y418411D01*
X299972Y418498D01*
X299985Y418509D01*
X300001Y418518D01*
X300140Y418638D01*
X300281Y418756D01*
X300292Y418770D01*
X300306Y418781D01*
X300418Y418926D01*
X300533Y419070D01*
X300541Y419085D01*
X300552Y419099D01*
X300634Y419264D01*
X300719Y419427D01*
X300724Y419444D01*
X300732Y419460D01*
X300779Y419637D01*
X300830Y419814D01*
X300832Y419832D01*
X300836Y419849D01*
X300863Y420179D01*
X300863Y427315D01*
X301592Y429074D01*
X302939Y430420D01*
X304698Y431149D01*
X305431Y431149D01*
X305449Y431151D01*
X305467Y431150D01*
X305649Y431171D01*
X305832Y431189D01*
X305849Y431194D01*
X305867Y431196D01*
X306041Y431253D01*
X306217Y431307D01*
X306232Y431316D01*
X306249Y431321D01*
X306410Y431412D01*
X306571Y431499D01*
X306584Y431510D01*
X306600Y431519D01*
X306739Y431639D01*
X306880Y431757D01*
X306891Y431771D01*
X306905Y431782D01*
X307017Y431927D01*
X307132Y432070D01*
X307141Y432086D01*
X307152Y432100D01*
X307234Y432265D01*
X307318Y432428D01*
X307323Y432445D01*
X307331Y432461D01*
X307379Y432639D01*
X307429Y432815D01*
X307431Y432832D01*
X307435Y432850D01*
X307463Y433180D01*
X307463Y433801D01*
X308386Y436031D01*
X310094Y437739D01*
X312324Y438662D01*
X314738Y438662D01*
X316969Y437739D01*
X318676Y436031D01*
X319600Y433801D01*
X319600Y431023D01*
X319603Y430997D01*
X319601Y430970D01*
X319623Y430796D01*
X319640Y430623D01*
X319648Y430597D01*
X319651Y430571D01*
X319707Y430405D01*
X319758Y430238D01*
X319771Y430214D01*
X319779Y430189D01*
X319867Y430037D01*
X319950Y429884D01*
X319967Y429863D01*
X319980Y429840D01*
X320195Y429587D01*
X320708Y429074D01*
X321437Y427315D01*
X321437Y420410D01*
X321300Y420081D01*
X321294Y420060D01*
X321284Y420040D01*
X321235Y419867D01*
X321184Y419696D01*
X321182Y419673D01*
X321176Y419652D01*
X321163Y419472D01*
X321146Y419295D01*
X321148Y419273D01*
X321146Y419250D01*
X321169Y419072D01*
X321187Y418894D01*
X321194Y418873D01*
X321197Y418851D01*
X321254Y418681D01*
X321307Y418510D01*
X321318Y418490D01*
X321325Y418469D01*
X321414Y418314D01*
X321500Y418157D01*
X321515Y418140D01*
X321526Y418120D01*
X321741Y417867D01*
X324287Y415321D01*
X334351Y405256D01*
X334362Y405248D01*
X334371Y405238D01*
X334517Y405121D01*
X334663Y405001D01*
X334675Y404995D01*
X334686Y404987D01*
X334853Y404900D01*
X335019Y404813D01*
X335032Y404809D01*
X335044Y404803D01*
X335225Y404751D01*
X335405Y404698D01*
X335418Y404697D01*
X335431Y404693D01*
X335618Y404679D01*
X335806Y404662D01*
X335819Y404663D01*
X335833Y404662D01*
X336017Y404685D01*
X336206Y404705D01*
X336219Y404709D01*
X336232Y404711D01*
X336410Y404769D01*
X336590Y404826D01*
X336602Y404833D01*
X336614Y404837D01*
X336778Y404931D01*
X336942Y405021D01*
X336952Y405030D01*
X336964Y405037D01*
X337106Y405160D01*
X337249Y405282D01*
X337257Y405292D01*
X337268Y405301D01*
X337381Y405449D01*
X337499Y405598D01*
X337505Y405610D01*
X337513Y405621D01*
X337519Y405633D01*
X338306Y406420D01*
X338323Y406441D01*
X338344Y406458D01*
X338451Y406596D01*
X338562Y406732D01*
X338574Y406755D01*
X338590Y406776D01*
X338668Y406933D01*
X338750Y407087D01*
X338758Y407113D01*
X338770Y407137D01*
X338815Y407306D01*
X338865Y407473D01*
X338867Y407500D01*
X338874Y407526D01*
X338901Y407856D01*
X338901Y415189D01*
X338899Y415211D01*
X338901Y415233D01*
X338879Y415411D01*
X338861Y415589D01*
X338855Y415610D01*
X338852Y415633D01*
X338796Y415803D01*
X338743Y415974D01*
X338733Y415994D01*
X338726Y416015D01*
X338637Y416171D01*
X338552Y416328D01*
X338537Y416345D01*
X338526Y416365D01*
X338408Y416500D01*
X338294Y416637D01*
X338276Y416651D01*
X338262Y416668D01*
X338119Y416778D01*
X337980Y416890D01*
X337960Y416900D01*
X337943Y416914D01*
X337647Y417065D01*
X337070Y417305D01*
X335723Y418651D01*
X334995Y420410D01*
X334995Y427315D01*
X335723Y429074D01*
X337070Y430420D01*
X338829Y431149D01*
X351733Y431149D01*
X353493Y430420D01*
X354839Y429074D01*
X355568Y427315D01*
X355568Y420410D01*
X354839Y418651D01*
X353493Y417305D01*
X351733Y416576D01*
X348554Y416576D01*
X348536Y416574D01*
X348519Y416575D01*
X348336Y416554D01*
X348153Y416536D01*
X348136Y416531D01*
X348119Y416529D01*
X347944Y416472D01*
X347769Y416418D01*
X347753Y416409D01*
X347736Y416404D01*
X347576Y416313D01*
X347415Y416226D01*
X347401Y416215D01*
X347385Y416206D01*
X347246Y416086D01*
X347105Y415968D01*
X347094Y415954D01*
X347081Y415943D01*
X346968Y415798D01*
X346853Y415655D01*
X346845Y415639D01*
X346834Y415625D01*
X346752Y415460D01*
X346667Y415297D01*
X346663Y415280D01*
X346655Y415264D01*
X346607Y415086D01*
X346556Y414910D01*
X346555Y414893D01*
X346550Y414875D01*
X346523Y414545D01*
X346523Y407856D01*
X346526Y407830D01*
X346524Y407803D01*
X346545Y407629D01*
X346563Y407456D01*
X346571Y407430D01*
X346574Y407404D01*
X346630Y407238D01*
X346681Y407071D01*
X346694Y407047D01*
X346702Y407022D01*
X346790Y406870D01*
X346873Y406717D01*
X346890Y406696D01*
X346903Y406673D01*
X347118Y406420D01*
X347857Y405681D01*
X348781Y403451D01*
X348781Y403039D01*
X348783Y403021D01*
X348781Y403003D01*
X348803Y402820D01*
X348821Y402638D01*
X348826Y402621D01*
X348828Y402603D01*
X348885Y402429D01*
X348939Y402253D01*
X348947Y402237D01*
X348953Y402220D01*
X349043Y402060D01*
X349131Y401899D01*
X349142Y401885D01*
X349151Y401870D01*
X349271Y401731D01*
X349388Y401590D01*
X349402Y401579D01*
X349414Y401565D01*
X349559Y401453D01*
X349702Y401337D01*
X349718Y401329D01*
X349732Y401318D01*
X349897Y401236D01*
X350059Y401152D01*
X350077Y401147D01*
X350093Y401139D01*
X350271Y401091D01*
X350446Y401041D01*
X350464Y401039D01*
X350481Y401034D01*
X350812Y401007D01*
X352332Y401007D01*
X352359Y401010D01*
G37*
G36*
X277709Y196375D02*
X277709Y196375D01*
X277737Y196373D01*
X277806Y196395D01*
X277876Y196409D01*
X277900Y196425D01*
X277926Y196434D01*
X277981Y196481D01*
X278040Y196522D01*
X278055Y196545D01*
X278077Y196564D01*
X278108Y196629D01*
X278147Y196689D01*
X278152Y196717D01*
X278164Y196743D01*
X278173Y196844D01*
X278180Y196885D01*
X278178Y196895D01*
X278179Y196908D01*
X278122Y197623D01*
X317558Y197623D01*
X317738Y197641D01*
X317920Y197656D01*
X317939Y197661D01*
X317959Y197663D01*
X318132Y197717D01*
X318307Y197766D01*
X318325Y197776D01*
X318344Y197782D01*
X318503Y197868D01*
X318665Y197951D01*
X318680Y197964D01*
X318698Y197973D01*
X318836Y198089D01*
X318979Y198203D01*
X318992Y198218D01*
X319007Y198231D01*
X319120Y198372D01*
X319237Y198512D01*
X319247Y198529D01*
X319259Y198545D01*
X319343Y198705D01*
X319430Y198865D01*
X319437Y198886D01*
X319445Y198902D01*
X319466Y198976D01*
X319533Y199181D01*
X319904Y200727D01*
X319910Y200769D01*
X319954Y201042D01*
X320022Y201900D01*
X320062Y201949D01*
X320126Y202065D01*
X320197Y202177D01*
X320222Y202242D01*
X320255Y202302D01*
X320311Y202472D01*
X320342Y202553D01*
X320347Y202582D01*
X320358Y202618D01*
X320465Y203061D01*
X320474Y203129D01*
X320492Y203196D01*
X320502Y203329D01*
X320520Y203460D01*
X320515Y203529D01*
X320520Y203598D01*
X320503Y203729D01*
X320495Y203862D01*
X320820Y204649D01*
X320833Y204690D01*
X320919Y204952D01*
X321120Y205790D01*
X321168Y205831D01*
X321249Y205937D01*
X321336Y206036D01*
X321371Y206096D01*
X321413Y206150D01*
X321495Y206310D01*
X321538Y206385D01*
X321548Y206412D01*
X321565Y206446D01*
X321739Y206867D01*
X321759Y206933D01*
X321787Y206996D01*
X321817Y207125D01*
X321856Y207253D01*
X321862Y207321D01*
X321878Y207388D01*
X321881Y207521D01*
X321894Y207653D01*
X321894Y207654D01*
X322339Y208380D01*
X322358Y208419D01*
X322483Y208664D01*
X322673Y209121D01*
X322679Y209142D01*
X322689Y209162D01*
X322737Y209335D01*
X322789Y209506D01*
X322791Y209529D01*
X322797Y209550D01*
X322810Y209730D01*
X322827Y209907D01*
X322825Y209929D01*
X322827Y209952D01*
X322804Y210130D01*
X322786Y210308D01*
X322779Y210329D01*
X322776Y210351D01*
X322719Y210521D01*
X322666Y210692D01*
X322655Y210712D01*
X322648Y210733D01*
X322559Y210888D01*
X322473Y211045D01*
X322458Y211062D01*
X322447Y211082D01*
X322232Y211335D01*
X321627Y211940D01*
X321627Y289280D01*
X321624Y289307D01*
X321626Y289334D01*
X321604Y289508D01*
X321587Y289681D01*
X321579Y289707D01*
X321576Y289733D01*
X321520Y289899D01*
X321469Y290066D01*
X321456Y290090D01*
X321447Y290115D01*
X321360Y290266D01*
X321277Y290420D01*
X321260Y290441D01*
X321247Y290464D01*
X321032Y290717D01*
X318171Y293578D01*
X318171Y296867D01*
X318192Y296910D01*
X318274Y297064D01*
X318281Y297089D01*
X318293Y297113D01*
X318339Y297283D01*
X318388Y297450D01*
X318391Y297476D01*
X318398Y297502D01*
X318425Y297833D01*
X318425Y303943D01*
X318423Y303961D01*
X318424Y303978D01*
X318403Y304161D01*
X318385Y304343D01*
X318380Y304360D01*
X318378Y304378D01*
X318321Y304553D01*
X318267Y304728D01*
X318258Y304744D01*
X318253Y304761D01*
X318162Y304921D01*
X318075Y305082D01*
X318064Y305096D01*
X318055Y305112D01*
X317935Y305251D01*
X317817Y305392D01*
X317803Y305403D01*
X317792Y305416D01*
X317647Y305529D01*
X317503Y305644D01*
X317488Y305652D01*
X317474Y305663D01*
X317309Y305745D01*
X317146Y305829D01*
X317129Y305834D01*
X317113Y305842D01*
X316935Y305890D01*
X316759Y305941D01*
X316741Y305942D01*
X316724Y305947D01*
X316394Y305974D01*
X314763Y305974D01*
X313424Y307314D01*
X313424Y313774D01*
X313422Y313792D01*
X313423Y313809D01*
X313402Y313991D01*
X313384Y314174D01*
X313379Y314191D01*
X313377Y314209D01*
X313320Y314384D01*
X313266Y314559D01*
X313257Y314575D01*
X313252Y314592D01*
X313161Y314752D01*
X313074Y314913D01*
X313063Y314927D01*
X313054Y314943D01*
X312934Y315082D01*
X312816Y315223D01*
X312802Y315234D01*
X312791Y315247D01*
X312646Y315360D01*
X312502Y315475D01*
X312487Y315483D01*
X312473Y315494D01*
X312308Y315576D01*
X312145Y315660D01*
X312128Y315665D01*
X312112Y315673D01*
X311934Y315721D01*
X311758Y315772D01*
X311740Y315773D01*
X311723Y315778D01*
X311393Y315805D01*
X307467Y315805D01*
X307449Y315803D01*
X307431Y315805D01*
X307249Y315783D01*
X307066Y315765D01*
X307049Y315760D01*
X307032Y315758D01*
X306857Y315701D01*
X306681Y315647D01*
X306666Y315638D01*
X306649Y315633D01*
X306489Y315543D01*
X306327Y315455D01*
X306314Y315444D01*
X306298Y315435D01*
X306159Y315315D01*
X306018Y315197D01*
X306007Y315184D01*
X305993Y315172D01*
X305881Y315027D01*
X305766Y314884D01*
X305758Y314868D01*
X305747Y314854D01*
X305665Y314689D01*
X305580Y314526D01*
X305575Y314509D01*
X305567Y314493D01*
X305520Y314315D01*
X305469Y314139D01*
X305467Y314122D01*
X305463Y314104D01*
X305436Y313774D01*
X305436Y296078D01*
X286535Y277177D01*
X264376Y277177D01*
X264349Y277174D01*
X264322Y277176D01*
X264148Y277154D01*
X263975Y277137D01*
X263949Y277129D01*
X263923Y277126D01*
X263757Y277070D01*
X263590Y277019D01*
X263566Y277006D01*
X263541Y276997D01*
X263390Y276910D01*
X263236Y276827D01*
X263216Y276810D01*
X263192Y276797D01*
X262939Y276582D01*
X262200Y275843D01*
X259970Y274919D01*
X257555Y274919D01*
X255325Y275843D01*
X253618Y277550D01*
X252694Y279780D01*
X252694Y282195D01*
X253618Y284425D01*
X255325Y286132D01*
X257555Y287056D01*
X259970Y287056D01*
X262200Y286132D01*
X262939Y285393D01*
X262960Y285376D01*
X262977Y285356D01*
X263115Y285249D01*
X263251Y285138D01*
X263274Y285126D01*
X263296Y285109D01*
X263453Y285031D01*
X263607Y284949D01*
X263632Y284942D01*
X263656Y284930D01*
X263826Y284884D01*
X263992Y284835D01*
X264019Y284832D01*
X264045Y284825D01*
X264376Y284798D01*
X282536Y284798D01*
X282563Y284801D01*
X282590Y284799D01*
X282764Y284821D01*
X282937Y284838D01*
X282963Y284846D01*
X282989Y284849D01*
X283155Y284905D01*
X283322Y284956D01*
X283346Y284969D01*
X283371Y284978D01*
X283523Y285065D01*
X283676Y285148D01*
X283696Y285165D01*
X283720Y285178D01*
X283973Y285393D01*
X297219Y298640D01*
X297236Y298660D01*
X297257Y298678D01*
X297364Y298816D01*
X297474Y298951D01*
X297487Y298975D01*
X297503Y298996D01*
X297581Y299153D01*
X297663Y299307D01*
X297671Y299332D01*
X297683Y299357D01*
X297728Y299526D01*
X297778Y299693D01*
X297780Y299719D01*
X297787Y299745D01*
X297814Y300076D01*
X297814Y338128D01*
X300138Y340453D01*
X300183Y340467D01*
X300350Y340519D01*
X300374Y340532D01*
X300399Y340540D01*
X300550Y340627D01*
X300704Y340711D01*
X300724Y340728D01*
X300748Y340741D01*
X301001Y340956D01*
X302390Y342345D01*
X302396Y342352D01*
X302403Y342358D01*
X302523Y342508D01*
X302646Y342657D01*
X302650Y342665D01*
X302655Y342672D01*
X302744Y342843D01*
X302834Y343013D01*
X302837Y343021D01*
X302841Y343029D01*
X302894Y343214D01*
X302949Y343399D01*
X302950Y343407D01*
X302952Y343416D01*
X302968Y343607D01*
X302985Y343800D01*
X302984Y343808D01*
X302985Y343817D01*
X302963Y344006D01*
X302942Y344200D01*
X302939Y344208D01*
X302938Y344217D01*
X302879Y344399D01*
X302820Y344584D01*
X302816Y344591D01*
X302813Y344600D01*
X302718Y344768D01*
X302626Y344936D01*
X302620Y344943D01*
X302615Y344951D01*
X302489Y345096D01*
X302365Y345243D01*
X302358Y345249D01*
X302352Y345255D01*
X302201Y345373D01*
X302049Y345493D01*
X302041Y345497D01*
X302034Y345502D01*
X301862Y345588D01*
X301690Y345675D01*
X301682Y345677D01*
X301674Y345681D01*
X301487Y345731D01*
X301302Y345783D01*
X301294Y345784D01*
X301285Y345786D01*
X300954Y345813D01*
X300351Y345813D01*
X293715Y352448D01*
X293695Y352465D01*
X293677Y352485D01*
X293539Y352592D01*
X293404Y352703D01*
X293380Y352716D01*
X293359Y352732D01*
X293202Y352810D01*
X293048Y352892D01*
X293023Y352900D01*
X292999Y352912D01*
X292829Y352957D01*
X292662Y353007D01*
X292636Y353009D01*
X292610Y353016D01*
X292279Y353043D01*
X282269Y353043D01*
X282243Y353041D01*
X282216Y353043D01*
X282042Y353021D01*
X281869Y353003D01*
X281843Y352995D01*
X281817Y352992D01*
X281651Y352936D01*
X281484Y352885D01*
X281460Y352872D01*
X281435Y352864D01*
X281283Y352777D01*
X281130Y352693D01*
X281109Y352676D01*
X281086Y352663D01*
X280833Y352448D01*
X278882Y350497D01*
X278865Y350476D01*
X278844Y350459D01*
X278737Y350321D01*
X278627Y350185D01*
X278614Y350162D01*
X278598Y350140D01*
X278520Y349984D01*
X278438Y349830D01*
X278430Y349804D01*
X278418Y349780D01*
X278373Y349611D01*
X278323Y349444D01*
X278321Y349417D01*
X278314Y349391D01*
X278287Y349060D01*
X278287Y341557D01*
X276430Y339700D01*
X276413Y339679D01*
X276392Y339662D01*
X276285Y339523D01*
X276175Y339388D01*
X276162Y339365D01*
X276146Y339344D01*
X276068Y339187D01*
X275986Y339033D01*
X275978Y339007D01*
X275966Y338983D01*
X275921Y338814D01*
X275871Y338647D01*
X275869Y338620D01*
X275862Y338594D01*
X275835Y338264D01*
X275835Y337243D01*
X275836Y337226D01*
X275835Y337208D01*
X275856Y337026D01*
X275875Y336843D01*
X275880Y336826D01*
X275882Y336808D01*
X275939Y336634D01*
X275993Y336458D01*
X276001Y336442D01*
X276007Y336425D01*
X276097Y336265D01*
X276184Y336104D01*
X276196Y336090D01*
X276205Y336075D01*
X276325Y335935D01*
X276442Y335795D01*
X276456Y335783D01*
X276468Y335770D01*
X276613Y335657D01*
X276756Y335542D01*
X276772Y335534D01*
X276786Y335523D01*
X276951Y335441D01*
X277113Y335357D01*
X277130Y335352D01*
X277146Y335344D01*
X277155Y335342D01*
X278624Y333873D01*
X278624Y316978D01*
X277284Y315639D01*
X277070Y315639D01*
X277052Y315637D01*
X277034Y315638D01*
X276852Y315617D01*
X276669Y315599D01*
X276652Y315594D01*
X276634Y315592D01*
X276460Y315535D01*
X276284Y315481D01*
X276268Y315472D01*
X276251Y315467D01*
X276091Y315376D01*
X275930Y315289D01*
X275916Y315278D01*
X275901Y315269D01*
X275761Y315149D01*
X275621Y315031D01*
X275610Y315017D01*
X275596Y315006D01*
X275484Y314861D01*
X275368Y314717D01*
X275360Y314702D01*
X275349Y314688D01*
X275267Y314523D01*
X275183Y314360D01*
X275178Y314343D01*
X275170Y314327D01*
X275122Y314149D01*
X275071Y313973D01*
X275070Y313955D01*
X275065Y313938D01*
X275038Y313608D01*
X275038Y313181D01*
X275041Y313150D01*
X275039Y313118D01*
X275061Y312949D01*
X275078Y312780D01*
X275087Y312750D01*
X275091Y312719D01*
X275193Y312403D01*
X275772Y311005D01*
X275772Y308590D01*
X274848Y306360D01*
X273141Y304653D01*
X270911Y303729D01*
X268496Y303729D01*
X266266Y304653D01*
X264559Y306360D01*
X263731Y308358D01*
X263725Y308369D01*
X263721Y308382D01*
X263629Y308548D01*
X263541Y308712D01*
X263532Y308723D01*
X263526Y308735D01*
X263404Y308878D01*
X263285Y309023D01*
X263274Y309031D01*
X263266Y309042D01*
X263118Y309158D01*
X262972Y309277D01*
X262960Y309283D01*
X262950Y309291D01*
X262782Y309376D01*
X262615Y309464D01*
X262603Y309467D01*
X262591Y309473D01*
X262410Y309524D01*
X262229Y309577D01*
X262216Y309578D01*
X262203Y309581D01*
X262014Y309595D01*
X261828Y309611D01*
X261815Y309610D01*
X261801Y309611D01*
X261613Y309587D01*
X261428Y309566D01*
X261415Y309562D01*
X261402Y309560D01*
X261223Y309501D01*
X261045Y309443D01*
X261033Y309436D01*
X261020Y309432D01*
X260857Y309338D01*
X260693Y309247D01*
X260683Y309238D01*
X260671Y309231D01*
X260418Y309017D01*
X238961Y287559D01*
X238894Y287477D01*
X238820Y287402D01*
X238767Y287322D01*
X238706Y287248D01*
X238656Y287154D01*
X238598Y287066D01*
X238562Y286977D01*
X238517Y286892D01*
X238487Y286791D01*
X238448Y286693D01*
X238430Y286598D01*
X238402Y286506D01*
X238393Y286401D01*
X238373Y286297D01*
X238375Y286201D01*
X238366Y286105D01*
X238377Y286000D01*
X238379Y285894D01*
X238399Y285800D01*
X238409Y285705D01*
X238441Y285604D01*
X238464Y285501D01*
X238502Y285413D01*
X238531Y285321D01*
X238582Y285228D01*
X238624Y285132D01*
X238689Y285036D01*
X238726Y284969D01*
X238764Y284924D01*
X238806Y284861D01*
X238809Y284808D01*
X238842Y284687D01*
X238865Y284564D01*
X238893Y284493D01*
X238913Y284419D01*
X238983Y284272D01*
X239016Y284191D01*
X239035Y284161D01*
X239055Y284120D01*
X239249Y283783D01*
X239294Y283721D01*
X239331Y283654D01*
X239411Y283558D01*
X239484Y283456D01*
X239540Y283404D01*
X239590Y283345D01*
X239688Y283267D01*
X239769Y283191D01*
X240091Y282371D01*
X240122Y282311D01*
X240223Y282098D01*
X240667Y281329D01*
X240662Y281277D01*
X240676Y281153D01*
X240681Y281027D01*
X240699Y280953D01*
X240707Y280877D01*
X240754Y280721D01*
X240775Y280636D01*
X240790Y280603D01*
X240803Y280559D01*
X240945Y280198D01*
X240980Y280130D01*
X241006Y280058D01*
X241071Y279951D01*
X241129Y279839D01*
X241176Y279779D01*
X241216Y279714D01*
X241301Y279622D01*
X241371Y279535D01*
X241567Y278676D01*
X241588Y278612D01*
X241656Y278386D01*
X241981Y277560D01*
X241969Y277509D01*
X241964Y277384D01*
X241950Y277260D01*
X241956Y277183D01*
X241953Y277107D01*
X241976Y276945D01*
X241984Y276858D01*
X241994Y276824D01*
X242000Y276778D01*
X242087Y276399D01*
X242111Y276327D01*
X242127Y276252D01*
X242175Y276137D01*
X242215Y276018D01*
X242253Y275951D01*
X242283Y275881D01*
X242354Y275777D01*
X242409Y275681D01*
X242475Y274802D01*
X242487Y274736D01*
X242521Y274502D01*
X242718Y273637D01*
X242699Y273588D01*
X242675Y273465D01*
X242643Y273344D01*
X242638Y273268D01*
X242623Y273193D01*
X242622Y273030D01*
X242617Y272943D01*
X242622Y272907D01*
X242621Y272861D01*
X242650Y272474D01*
X242664Y272398D01*
X242668Y272322D01*
X242698Y272200D01*
X242720Y272077D01*
X242748Y272006D01*
X242767Y271932D01*
X242821Y271819D01*
X242862Y271715D01*
X242796Y270836D01*
X242798Y270769D01*
X242798Y270738D01*
X242796Y270713D01*
X242797Y270698D01*
X242796Y270533D01*
X242863Y269648D01*
X242836Y269603D01*
X242795Y269484D01*
X242789Y269471D01*
X242788Y269470D01*
X242788Y269469D01*
X242744Y269370D01*
X242728Y269295D01*
X242703Y269223D01*
X242686Y269114D01*
X242677Y269083D01*
X242674Y269044D01*
X242659Y268976D01*
X242658Y268941D01*
X242651Y268895D01*
X242622Y268507D01*
X242624Y268431D01*
X242617Y268355D01*
X242629Y268230D01*
X242632Y268105D01*
X242649Y268030D01*
X242657Y267954D01*
X242694Y267834D01*
X242718Y267726D01*
X242522Y266867D01*
X242514Y266799D01*
X242477Y266566D01*
X242411Y265682D01*
X242378Y265641D01*
X242319Y265530D01*
X242253Y265424D01*
X242226Y265353D01*
X242190Y265285D01*
X242140Y265130D01*
X242109Y265048D01*
X242104Y265013D01*
X242090Y264969D01*
X242003Y264590D01*
X241994Y264514D01*
X241975Y264440D01*
X241969Y264315D01*
X241953Y264191D01*
X241959Y264114D01*
X241955Y264038D01*
X241974Y263914D01*
X241982Y263803D01*
X241660Y262982D01*
X241642Y262917D01*
X241571Y262692D01*
X241373Y261827D01*
X241335Y261792D01*
X241260Y261691D01*
X241178Y261596D01*
X241141Y261530D01*
X241095Y261468D01*
X241024Y261322D01*
X240981Y261246D01*
X240970Y261212D01*
X240949Y261170D01*
X240807Y260809D01*
X240787Y260735D01*
X240757Y260664D01*
X240732Y260542D01*
X240698Y260421D01*
X240693Y260345D01*
X240677Y260270D01*
X240677Y260144D01*
X240669Y260033D01*
X240228Y259270D01*
X240201Y259209D01*
X240097Y258997D01*
X239773Y258170D01*
X239729Y258141D01*
X239641Y258053D01*
X239546Y257971D01*
X239498Y257911D01*
X239444Y257857D01*
X239352Y257723D01*
X239298Y257654D01*
X239282Y257622D01*
X239256Y257584D01*
X239061Y257247D01*
X239030Y257178D01*
X238990Y257113D01*
X238947Y256995D01*
X238896Y256881D01*
X238879Y256806D01*
X238852Y256734D01*
X238834Y256610D01*
X238809Y256502D01*
X238259Y255812D01*
X238223Y255756D01*
X238132Y255625D01*
X238119Y255608D01*
X238113Y255598D01*
X238088Y255562D01*
X237645Y254793D01*
X237598Y254771D01*
X237497Y254697D01*
X237391Y254630D01*
X237335Y254577D01*
X237274Y254532D01*
X237162Y254413D01*
X237098Y254353D01*
X237078Y254324D01*
X237046Y254290D01*
X236804Y253986D01*
X236763Y253922D01*
X236713Y253864D01*
X236653Y253754D01*
X236586Y253648D01*
X236557Y253577D01*
X236521Y253510D01*
X236484Y253390D01*
X236443Y253286D01*
X235797Y252687D01*
X235752Y252636D01*
X235591Y252464D01*
X235038Y251770D01*
X234988Y251756D01*
X234877Y251697D01*
X234762Y251647D01*
X234699Y251604D01*
X234632Y251568D01*
X234503Y251467D01*
X234432Y251417D01*
X234407Y251391D01*
X234371Y251363D01*
X234086Y251098D01*
X234035Y251041D01*
X233978Y250990D01*
X233902Y250890D01*
X233819Y250796D01*
X233781Y250730D01*
X233735Y250669D01*
X233680Y250557D01*
X233624Y250460D01*
X232897Y249963D01*
X232845Y249920D01*
X232659Y249774D01*
X231469Y248669D01*
X231343Y248526D01*
X231213Y248382D01*
X231209Y248374D01*
X231203Y248368D01*
X231107Y248202D01*
X231009Y248035D01*
X231006Y248027D01*
X231001Y248019D01*
X230940Y247837D01*
X230876Y247655D01*
X230875Y247646D01*
X230872Y247638D01*
X230848Y247446D01*
X230822Y247256D01*
X230822Y247247D01*
X230821Y247239D01*
X230835Y247042D01*
X230847Y246854D01*
X230849Y246846D01*
X230849Y246837D01*
X230901Y246650D01*
X230950Y246465D01*
X230954Y246456D01*
X230957Y246449D01*
X230980Y246402D01*
X231092Y246165D01*
X249595Y214117D01*
X248968Y213820D01*
X248945Y213803D01*
X248918Y213793D01*
X248866Y213744D01*
X248809Y213701D01*
X248794Y213676D01*
X248773Y213657D01*
X248744Y213591D01*
X248708Y213529D01*
X248705Y213501D01*
X248693Y213474D01*
X248692Y213403D01*
X248683Y213332D01*
X248691Y213304D01*
X248691Y213276D01*
X248726Y213181D01*
X248737Y213140D01*
X248744Y213132D01*
X248749Y213120D01*
X258249Y196620D01*
X258300Y196561D01*
X258346Y196499D01*
X258365Y196487D01*
X258380Y196471D01*
X258450Y196437D01*
X258517Y196397D01*
X258542Y196393D01*
X258559Y196385D01*
X258604Y196383D01*
X258681Y196370D01*
X277681Y196370D01*
X277709Y196375D01*
G37*
G36*
X431957Y196385D02*
X431957Y196385D01*
X432035Y196394D01*
X432054Y196405D01*
X432076Y196409D01*
X432140Y196453D01*
X432208Y196491D01*
X432224Y196511D01*
X432240Y196522D01*
X432264Y196559D01*
X432314Y196620D01*
X441814Y213120D01*
X441823Y213147D01*
X441839Y213170D01*
X441854Y213241D01*
X441877Y213308D01*
X441875Y213337D01*
X441881Y213365D01*
X441867Y213435D01*
X441861Y213507D01*
X441848Y213532D01*
X441842Y213560D01*
X441802Y213619D01*
X441769Y213683D01*
X441747Y213701D01*
X441731Y213725D01*
X441648Y213783D01*
X441616Y213809D01*
X441606Y213812D01*
X441595Y213820D01*
X440968Y214117D01*
X459470Y246165D01*
X459548Y246338D01*
X459630Y246516D01*
X459632Y246524D01*
X459636Y246532D01*
X459679Y246719D01*
X459724Y246907D01*
X459724Y246916D01*
X459726Y246925D01*
X459731Y247117D01*
X459738Y247310D01*
X459737Y247318D01*
X459737Y247327D01*
X459704Y247515D01*
X459673Y247707D01*
X459670Y247715D01*
X459668Y247724D01*
X459600Y247900D01*
X459531Y248083D01*
X459526Y248091D01*
X459523Y248099D01*
X459419Y248262D01*
X459317Y248425D01*
X459311Y248432D01*
X459306Y248438D01*
X459270Y248476D01*
X459093Y248669D01*
X457903Y249774D01*
X457850Y249814D01*
X457666Y249963D01*
X456933Y250463D01*
X456914Y250512D01*
X456848Y250618D01*
X456789Y250729D01*
X456741Y250789D01*
X456701Y250853D01*
X456591Y250974D01*
X456535Y251042D01*
X456508Y251064D01*
X456477Y251098D01*
X456192Y251363D01*
X456131Y251409D01*
X456076Y251462D01*
X455971Y251530D01*
X455871Y251606D01*
X455802Y251639D01*
X455738Y251681D01*
X455622Y251727D01*
X455521Y251775D01*
X454972Y252464D01*
X454925Y252513D01*
X454765Y252687D01*
X454115Y253291D01*
X454104Y253342D01*
X454054Y253457D01*
X454013Y253575D01*
X453974Y253641D01*
X453943Y253711D01*
X453853Y253846D01*
X453808Y253922D01*
X453784Y253948D01*
X453758Y253986D01*
X453516Y254290D01*
X453463Y254345D01*
X453417Y254406D01*
X453323Y254489D01*
X453235Y254579D01*
X453172Y254622D01*
X453115Y254673D01*
X453006Y254735D01*
X452914Y254798D01*
X452474Y255562D01*
X452435Y255616D01*
X452420Y255639D01*
X452404Y255667D01*
X452390Y255683D01*
X452303Y255812D01*
X451750Y256506D01*
X451747Y256558D01*
X451714Y256680D01*
X451691Y256803D01*
X451663Y256873D01*
X451643Y256947D01*
X451573Y257095D01*
X451540Y257176D01*
X451521Y257206D01*
X451501Y257247D01*
X451307Y257584D01*
X451262Y257646D01*
X451226Y257713D01*
X451145Y257809D01*
X451072Y257911D01*
X451016Y257963D01*
X450967Y258022D01*
X450869Y258100D01*
X450787Y258176D01*
X450466Y258997D01*
X450435Y259057D01*
X450334Y259270D01*
X449891Y260039D01*
X449895Y260091D01*
X449881Y260215D01*
X449877Y260340D01*
X449859Y260415D01*
X449851Y260491D01*
X449804Y260647D01*
X449783Y260732D01*
X449768Y260764D01*
X449755Y260809D01*
X449613Y261170D01*
X449578Y261238D01*
X449552Y261310D01*
X449487Y261418D01*
X449430Y261529D01*
X449382Y261589D01*
X449342Y261654D01*
X449257Y261746D01*
X449179Y261844D01*
X449162Y261859D01*
X449104Y262037D01*
X449100Y262044D01*
X449097Y262052D01*
X449001Y262220D01*
X448906Y262388D01*
X448900Y262394D01*
X448896Y262401D01*
X448768Y262547D01*
X448643Y262692D01*
X448636Y262697D01*
X448631Y262704D01*
X448476Y262821D01*
X448324Y262939D01*
X448317Y262943D01*
X448310Y262948D01*
X448138Y263032D01*
X447964Y263118D01*
X447956Y263121D01*
X447949Y263124D01*
X447765Y263172D01*
X447575Y263223D01*
X447566Y263224D01*
X447559Y263226D01*
X447510Y263228D01*
X447244Y263250D01*
X398464Y263250D01*
X365994Y295720D01*
X365984Y295728D01*
X365975Y295738D01*
X365828Y295856D01*
X365683Y295975D01*
X365671Y295981D01*
X365660Y295989D01*
X365493Y296076D01*
X365327Y296163D01*
X365314Y296167D01*
X365302Y296173D01*
X365121Y296225D01*
X364941Y296278D01*
X364928Y296279D01*
X364915Y296283D01*
X364729Y296297D01*
X364540Y296315D01*
X364527Y296313D01*
X364513Y296314D01*
X364328Y296292D01*
X364140Y296271D01*
X364127Y296267D01*
X364114Y296266D01*
X363935Y296206D01*
X363756Y296150D01*
X363744Y296143D01*
X363731Y296139D01*
X363568Y296046D01*
X363404Y295955D01*
X363393Y295946D01*
X363382Y295940D01*
X363240Y295816D01*
X363097Y295694D01*
X363088Y295684D01*
X363078Y295675D01*
X362963Y295525D01*
X362847Y295378D01*
X362841Y295367D01*
X362833Y295356D01*
X362681Y295061D01*
X362332Y294219D01*
X360625Y292511D01*
X358395Y291588D01*
X355980Y291588D01*
X353750Y292511D01*
X352043Y294219D01*
X351119Y296449D01*
X351119Y298863D01*
X352043Y301094D01*
X352839Y301890D01*
X352856Y301911D01*
X352876Y301928D01*
X352983Y302066D01*
X353094Y302202D01*
X353106Y302225D01*
X353123Y302246D01*
X353201Y302403D01*
X353283Y302557D01*
X353290Y302583D01*
X353302Y302607D01*
X353348Y302776D01*
X353397Y302943D01*
X353400Y302970D01*
X353407Y302996D01*
X353434Y303326D01*
X353434Y303943D01*
X353432Y303961D01*
X353433Y303978D01*
X353412Y304161D01*
X353394Y304343D01*
X353389Y304360D01*
X353387Y304378D01*
X353330Y304553D01*
X353276Y304728D01*
X353267Y304744D01*
X353262Y304761D01*
X353171Y304921D01*
X353084Y305082D01*
X353073Y305096D01*
X353064Y305112D01*
X352944Y305251D01*
X352826Y305392D01*
X352812Y305403D01*
X352801Y305416D01*
X352656Y305529D01*
X352512Y305644D01*
X352497Y305652D01*
X352483Y305663D01*
X352318Y305745D01*
X352155Y305829D01*
X352138Y305834D01*
X352122Y305842D01*
X351944Y305890D01*
X351768Y305941D01*
X351750Y305942D01*
X351733Y305947D01*
X351403Y305974D01*
X332571Y305974D01*
X332554Y305972D01*
X332536Y305974D01*
X332354Y305952D01*
X332171Y305934D01*
X332154Y305929D01*
X332136Y305927D01*
X331962Y305870D01*
X331786Y305816D01*
X331770Y305807D01*
X331753Y305802D01*
X331593Y305712D01*
X331432Y305624D01*
X331418Y305613D01*
X331403Y305604D01*
X331263Y305484D01*
X331123Y305366D01*
X331111Y305353D01*
X331098Y305341D01*
X330985Y305196D01*
X330870Y305053D01*
X330862Y305037D01*
X330851Y305023D01*
X330769Y304858D01*
X330685Y304695D01*
X330680Y304678D01*
X330672Y304662D01*
X330624Y304484D01*
X330573Y304308D01*
X330572Y304291D01*
X330567Y304273D01*
X330540Y303943D01*
X330540Y300372D01*
X330543Y300345D01*
X330541Y300318D01*
X330563Y300144D01*
X330580Y299971D01*
X330588Y299945D01*
X330591Y299919D01*
X330647Y299753D01*
X330698Y299586D01*
X330711Y299562D01*
X330720Y299537D01*
X330807Y299385D01*
X330890Y299232D01*
X330907Y299212D01*
X330920Y299188D01*
X331135Y298935D01*
X337186Y292885D01*
X337186Y238976D01*
X337188Y238949D01*
X337186Y238922D01*
X337208Y238748D01*
X337226Y238575D01*
X337233Y238549D01*
X337237Y238523D01*
X337292Y238357D01*
X337344Y238190D01*
X337357Y238166D01*
X337365Y238141D01*
X337452Y237990D01*
X337536Y237836D01*
X337553Y237816D01*
X337566Y237792D01*
X337781Y237539D01*
X338520Y236800D01*
X339444Y234570D01*
X339444Y232155D01*
X338520Y229925D01*
X336813Y228218D01*
X334582Y227294D01*
X332168Y227294D01*
X332057Y227340D01*
X332044Y227344D01*
X332032Y227350D01*
X331851Y227402D01*
X331671Y227456D01*
X331658Y227457D01*
X331645Y227461D01*
X331457Y227477D01*
X331271Y227494D01*
X331257Y227493D01*
X331244Y227494D01*
X331057Y227472D01*
X330870Y227453D01*
X330857Y227449D01*
X330844Y227447D01*
X330665Y227389D01*
X330486Y227333D01*
X330474Y227327D01*
X330461Y227322D01*
X330297Y227229D01*
X330133Y227140D01*
X330122Y227131D01*
X330111Y227124D01*
X329968Y227001D01*
X329824Y226881D01*
X329816Y226870D01*
X329806Y226861D01*
X329691Y226713D01*
X329574Y226566D01*
X329567Y226554D01*
X329559Y226543D01*
X329476Y226375D01*
X329390Y226208D01*
X329386Y226195D01*
X329380Y226183D01*
X329331Y226001D01*
X329280Y225820D01*
X329279Y225807D01*
X329275Y225794D01*
X329248Y225463D01*
X329248Y220951D01*
X329250Y220938D01*
X329248Y220925D01*
X329270Y220737D01*
X329288Y220551D01*
X329292Y220538D01*
X329294Y220524D01*
X329351Y220345D01*
X329406Y220166D01*
X329413Y220154D01*
X329417Y220141D01*
X329509Y219976D01*
X329598Y219812D01*
X329607Y219801D01*
X329613Y219790D01*
X329735Y219647D01*
X329856Y219502D01*
X329866Y219494D01*
X329875Y219484D01*
X330023Y219368D01*
X330170Y219250D01*
X330181Y219244D01*
X330192Y219236D01*
X330360Y219151D01*
X330527Y219065D01*
X330540Y219061D01*
X330552Y219055D01*
X330733Y219005D01*
X330914Y218953D01*
X330927Y218952D01*
X330940Y218948D01*
X331128Y218936D01*
X331315Y218920D01*
X331328Y218922D01*
X331342Y218921D01*
X331529Y218945D01*
X331715Y218967D01*
X331728Y218971D01*
X331741Y218973D01*
X332057Y219075D01*
X333486Y219667D01*
X333524Y219687D01*
X333770Y219811D01*
X334505Y220261D01*
X334568Y220257D01*
X334700Y220274D01*
X334832Y220283D01*
X334899Y220300D01*
X334967Y220309D01*
X335137Y220364D01*
X335221Y220386D01*
X335247Y220399D01*
X335283Y220411D01*
X335704Y220585D01*
X335765Y220618D01*
X335830Y220642D01*
X335942Y220713D01*
X336059Y220776D01*
X336112Y220820D01*
X336171Y220856D01*
X336267Y220947D01*
X336370Y221032D01*
X337198Y221231D01*
X337238Y221245D01*
X337501Y221330D01*
X338297Y221659D01*
X338358Y221645D01*
X338491Y221642D01*
X338623Y221629D01*
X338692Y221636D01*
X338761Y221634D01*
X338938Y221662D01*
X339024Y221671D01*
X339052Y221679D01*
X339089Y221685D01*
X339532Y221792D01*
X339598Y221814D01*
X339665Y221828D01*
X339787Y221880D01*
X339913Y221924D01*
X339972Y221959D01*
X340036Y221986D01*
X340145Y222061D01*
X340259Y222129D01*
X340260Y222129D01*
X341108Y222196D01*
X341151Y222203D01*
X341423Y222246D01*
X342261Y222447D01*
X342320Y222423D01*
X342450Y222399D01*
X342579Y222366D01*
X342647Y222362D01*
X342715Y222349D01*
X342894Y222349D01*
X342981Y222344D01*
X343010Y222348D01*
X343047Y222348D01*
X343502Y222384D01*
X343570Y222396D01*
X343639Y222399D01*
X343768Y222432D01*
X343898Y222455D01*
X343962Y222481D01*
X344029Y222497D01*
X344149Y222554D01*
X344273Y222603D01*
X345122Y222537D01*
X345166Y222538D01*
X345441Y222537D01*
X346299Y222604D01*
X346354Y222572D01*
X346479Y222527D01*
X346601Y222475D01*
X346668Y222460D01*
X346733Y222437D01*
X346910Y222408D01*
X346994Y222390D01*
X347024Y222390D01*
X347060Y222384D01*
X347515Y222348D01*
X347584Y222350D01*
X347653Y222342D01*
X347785Y222354D01*
X347918Y222357D01*
X347985Y222372D01*
X348054Y222378D01*
X348181Y222415D01*
X348311Y222444D01*
X349139Y222246D01*
X349181Y222240D01*
X349454Y222196D01*
X350313Y222128D01*
X350361Y222088D01*
X350478Y222024D01*
X350590Y221953D01*
X350654Y221928D01*
X350715Y221895D01*
X350885Y221839D01*
X350966Y221808D01*
X350995Y221803D01*
X351030Y221792D01*
X351474Y221685D01*
X351542Y221676D01*
X351608Y221658D01*
X351741Y221648D01*
X351873Y221630D01*
X351941Y221635D01*
X352010Y221630D01*
X352142Y221647D01*
X352274Y221655D01*
X352275Y221655D01*
X353061Y221330D01*
X353102Y221317D01*
X353365Y221231D01*
X354202Y221030D01*
X354244Y220982D01*
X354349Y220901D01*
X354449Y220814D01*
X354508Y220779D01*
X354563Y220737D01*
X354722Y220655D01*
X354797Y220612D01*
X354825Y220602D01*
X354858Y220585D01*
X355280Y220411D01*
X355346Y220391D01*
X355408Y220363D01*
X355538Y220333D01*
X355665Y220294D01*
X355734Y220288D01*
X355801Y220272D01*
X355934Y220269D01*
X356066Y220256D01*
X356792Y219811D01*
X356831Y219792D01*
X357076Y219667D01*
X357872Y219337D01*
X357906Y219284D01*
X357997Y219187D01*
X358082Y219085D01*
X358135Y219041D01*
X358182Y218991D01*
X358327Y218885D01*
X358394Y218831D01*
X358420Y218817D01*
X358450Y218795D01*
X358839Y218557D01*
X358901Y218527D01*
X358959Y218489D01*
X359082Y218439D01*
X359202Y218382D01*
X359268Y218364D01*
X359333Y218339D01*
X359463Y218314D01*
X359592Y218281D01*
X360239Y217728D01*
X360275Y217704D01*
X360497Y217541D01*
X361232Y217091D01*
X361257Y217033D01*
X361332Y216923D01*
X361399Y216809D01*
X361445Y216757D01*
X361484Y216701D01*
X361611Y216573D01*
X361668Y216509D01*
X361692Y216492D01*
X361718Y216465D01*
X362065Y216169D01*
X362122Y216130D01*
X362173Y216083D01*
X362287Y216015D01*
X362396Y215939D01*
X362459Y215912D01*
X362518Y215876D01*
X362643Y215832D01*
X362765Y215779D01*
X363318Y215131D01*
X363350Y215101D01*
X363544Y214906D01*
X364199Y214346D01*
X364214Y214285D01*
X364271Y214165D01*
X364320Y214042D01*
X364358Y213984D01*
X364387Y213922D01*
X364492Y213777D01*
X364539Y213704D01*
X364560Y213683D01*
X364581Y213653D01*
X364878Y213306D01*
X364927Y213258D01*
X364971Y213204D01*
X365072Y213119D01*
X365168Y213027D01*
X365226Y212990D01*
X365279Y212946D01*
X365396Y212882D01*
X365508Y212811D01*
X365953Y212085D01*
X365979Y212051D01*
X366141Y211827D01*
X366700Y211172D01*
X366706Y211109D01*
X366743Y210981D01*
X366772Y210852D01*
X366800Y210789D01*
X366820Y210723D01*
X366900Y210563D01*
X366936Y210484D01*
X366953Y210460D01*
X366969Y210427D01*
X367208Y210038D01*
X367249Y209983D01*
X367284Y209923D01*
X367371Y209823D01*
X367451Y209717D01*
X367503Y209671D01*
X367548Y209619D01*
X367653Y209539D01*
X367753Y209451D01*
X367753Y209450D01*
X368079Y208664D01*
X368100Y208626D01*
X368224Y208380D01*
X368674Y207645D01*
X368670Y207582D01*
X368687Y207450D01*
X368695Y207318D01*
X368713Y207251D01*
X368722Y207183D01*
X368777Y207013D01*
X368799Y206929D01*
X368812Y206903D01*
X368823Y206867D01*
X368998Y206446D01*
X369031Y206385D01*
X369055Y206320D01*
X369125Y206208D01*
X369188Y206091D01*
X369232Y206038D01*
X369269Y205979D01*
X369360Y205883D01*
X369445Y205780D01*
X369644Y204952D01*
X369657Y204912D01*
X369742Y204649D01*
X370072Y203853D01*
X370058Y203792D01*
X370054Y203659D01*
X370041Y203527D01*
X370049Y203458D01*
X370047Y203389D01*
X370074Y203212D01*
X370083Y203126D01*
X370092Y203098D01*
X370098Y203061D01*
X370204Y202618D01*
X370227Y202552D01*
X370241Y202485D01*
X370293Y202363D01*
X370336Y202237D01*
X370372Y202178D01*
X370399Y202114D01*
X370474Y202005D01*
X370541Y201891D01*
X370541Y201890D01*
X370608Y201042D01*
X370616Y200999D01*
X370658Y200727D01*
X371029Y199181D01*
X371089Y199009D01*
X371145Y198837D01*
X371155Y198819D01*
X371162Y198800D01*
X371254Y198644D01*
X371343Y198486D01*
X371356Y198471D01*
X371366Y198454D01*
X371488Y198319D01*
X371606Y198181D01*
X371622Y198169D01*
X371635Y198154D01*
X371781Y198046D01*
X371924Y197934D01*
X371942Y197926D01*
X371958Y197914D01*
X372122Y197836D01*
X372285Y197755D01*
X372304Y197750D01*
X372322Y197741D01*
X372498Y197698D01*
X372674Y197651D01*
X372696Y197649D01*
X372713Y197644D01*
X372790Y197641D01*
X373004Y197623D01*
X412440Y197623D01*
X412384Y196908D01*
X412387Y196880D01*
X412382Y196852D01*
X412399Y196782D01*
X412408Y196711D01*
X412422Y196686D01*
X412428Y196659D01*
X412471Y196601D01*
X412507Y196539D01*
X412529Y196521D01*
X412546Y196499D01*
X412608Y196462D01*
X412665Y196419D01*
X412693Y196412D01*
X412717Y196397D01*
X412817Y196380D01*
X412858Y196370D01*
X412869Y196372D01*
X412881Y196370D01*
X431881Y196370D01*
X431957Y196385D01*
G37*
G36*
X228092Y249566D02*
X228092Y249566D01*
X228165Y249563D01*
X228191Y249573D01*
X228218Y249574D01*
X228313Y249618D01*
X228351Y249632D01*
X228358Y249639D01*
X228369Y249644D01*
X231309Y251650D01*
X231332Y251672D01*
X231368Y251696D01*
X233976Y254118D01*
X233995Y254144D01*
X234027Y254173D01*
X236246Y256956D01*
X236260Y256984D01*
X236288Y257018D01*
X238067Y260101D01*
X238077Y260131D01*
X238099Y260168D01*
X239399Y263482D01*
X239404Y263513D01*
X239421Y263553D01*
X240212Y267023D01*
X240213Y267055D01*
X240223Y267097D01*
X240488Y270647D01*
X240484Y270678D01*
X240488Y270721D01*
X240221Y274271D01*
X240213Y274301D01*
X240210Y274344D01*
X239417Y277814D01*
X239404Y277843D01*
X239395Y277886D01*
X238094Y281199D01*
X238088Y281209D01*
X238085Y281220D01*
X238073Y281236D01*
X238062Y281266D01*
X236281Y284348D01*
X236260Y284372D01*
X236239Y284410D01*
X234019Y287192D01*
X233995Y287213D01*
X233969Y287247D01*
X231359Y289667D01*
X231331Y289684D01*
X231300Y289714D01*
X228359Y291718D01*
X228330Y291730D01*
X228294Y291755D01*
X225087Y293299D01*
X225056Y293307D01*
X225018Y293326D01*
X221616Y294375D01*
X221584Y294378D01*
X221543Y294391D01*
X218023Y294921D01*
X217992Y294919D01*
X217949Y294927D01*
X214390Y294926D01*
X214358Y294919D01*
X214315Y294920D01*
X210796Y294389D01*
X210766Y294378D01*
X210723Y294372D01*
X207322Y293322D01*
X207294Y293307D01*
X207252Y293295D01*
X204046Y291750D01*
X204024Y291733D01*
X203999Y291724D01*
X203945Y291674D01*
X203887Y291630D01*
X203874Y291606D01*
X203854Y291587D01*
X203825Y291520D01*
X203789Y291457D01*
X203785Y291430D01*
X203774Y291405D01*
X203774Y291332D01*
X203765Y291260D01*
X203772Y291233D01*
X203772Y291206D01*
X203809Y291108D01*
X203820Y291069D01*
X203826Y291061D01*
X203830Y291050D01*
X227655Y249807D01*
X227673Y249786D01*
X227685Y249761D01*
X227739Y249712D01*
X227787Y249658D01*
X227812Y249646D01*
X227832Y249628D01*
X227901Y249603D01*
X227966Y249572D01*
X227994Y249571D01*
X228019Y249562D01*
X228092Y249566D01*
G37*
G36*
X462503Y249567D02*
X462503Y249567D01*
X462576Y249567D01*
X462601Y249578D01*
X462628Y249581D01*
X462692Y249617D01*
X462759Y249645D01*
X462778Y249665D01*
X462801Y249678D01*
X462868Y249759D01*
X462897Y249789D01*
X462900Y249798D01*
X462907Y249807D01*
X486732Y291050D01*
X486741Y291076D01*
X486757Y291098D01*
X486772Y291170D01*
X486796Y291239D01*
X486793Y291266D01*
X486799Y291293D01*
X486786Y291364D01*
X486780Y291437D01*
X486768Y291461D01*
X486763Y291488D01*
X486722Y291549D01*
X486689Y291614D01*
X486668Y291631D01*
X486652Y291654D01*
X486567Y291714D01*
X486535Y291740D01*
X486526Y291743D01*
X486517Y291750D01*
X483310Y293295D01*
X483279Y293303D01*
X483241Y293322D01*
X479840Y294372D01*
X479808Y294375D01*
X479767Y294389D01*
X476247Y294920D01*
X476216Y294918D01*
X476173Y294926D01*
X472613Y294927D01*
X472582Y294920D01*
X472539Y294921D01*
X469019Y294391D01*
X468989Y294380D01*
X468947Y294375D01*
X465545Y293326D01*
X465517Y293311D01*
X465476Y293299D01*
X462268Y291755D01*
X462243Y291736D01*
X462204Y291718D01*
X459262Y289714D01*
X459240Y289691D01*
X459204Y289667D01*
X456594Y287247D01*
X456575Y287221D01*
X456543Y287192D01*
X454323Y284410D01*
X454309Y284381D01*
X454281Y284348D01*
X452501Y281266D01*
X452491Y281236D01*
X452468Y281199D01*
X451167Y277886D01*
X451162Y277854D01*
X451145Y277814D01*
X450352Y274344D01*
X450352Y274312D01*
X450341Y274271D01*
X450074Y270721D01*
X450078Y270690D01*
X450074Y270647D01*
X450339Y267097D01*
X450348Y267066D01*
X450351Y267023D01*
X451142Y263553D01*
X451155Y263524D01*
X451164Y263482D01*
X452463Y260168D01*
X452481Y260141D01*
X452496Y260101D01*
X454275Y257018D01*
X454296Y256994D01*
X454317Y256956D01*
X456535Y254173D01*
X456560Y254152D01*
X456586Y254118D01*
X459195Y251696D01*
X459209Y251687D01*
X459212Y251683D01*
X459228Y251674D01*
X459253Y251650D01*
X462194Y249644D01*
X462219Y249633D01*
X462240Y249616D01*
X462310Y249595D01*
X462377Y249567D01*
X462404Y249567D01*
X462430Y249559D01*
X462503Y249567D01*
G37*
G36*
X476064Y398084D02*
X476064Y398084D01*
X476110Y398082D01*
X479676Y398561D01*
X479707Y398572D01*
X479752Y398577D01*
X483199Y399608D01*
X483229Y399624D01*
X483273Y399636D01*
X486516Y401194D01*
X486539Y401211D01*
X486565Y401221D01*
X486617Y401270D01*
X486675Y401314D01*
X486689Y401338D01*
X486709Y401358D01*
X486738Y401424D01*
X486774Y401486D01*
X486777Y401514D01*
X486788Y401540D01*
X486789Y401612D01*
X486798Y401684D01*
X486790Y401711D01*
X486790Y401739D01*
X486754Y401835D01*
X486743Y401875D01*
X486736Y401883D01*
X486732Y401894D01*
X463700Y441551D01*
X463682Y441572D01*
X463670Y441597D01*
X463616Y441645D01*
X463568Y441699D01*
X463543Y441711D01*
X463522Y441730D01*
X463454Y441754D01*
X463389Y441785D01*
X463361Y441786D01*
X463334Y441795D01*
X463262Y441790D01*
X463190Y441793D01*
X463164Y441783D01*
X463136Y441781D01*
X463043Y441738D01*
X463004Y441723D01*
X462996Y441716D01*
X462985Y441711D01*
X460025Y439665D01*
X460002Y439641D01*
X459964Y439616D01*
X457361Y437132D01*
X457342Y437105D01*
X457308Y437074D01*
X455125Y434214D01*
X455111Y434184D01*
X455083Y434148D01*
X453374Y430982D01*
X453364Y430950D01*
X453342Y430910D01*
X452150Y427515D01*
X452145Y427482D01*
X452130Y427439D01*
X451483Y423900D01*
X451484Y423867D01*
X451475Y423822D01*
X451390Y420225D01*
X451396Y420192D01*
X451395Y420147D01*
X451873Y416581D01*
X451884Y416549D01*
X451890Y416504D01*
X452921Y413057D01*
X452936Y413028D01*
X452949Y412984D01*
X454506Y409740D01*
X454526Y409714D01*
X454546Y409672D01*
X456591Y406712D01*
X456615Y406689D01*
X456641Y406652D01*
X459124Y404048D01*
X459151Y404029D01*
X459182Y403996D01*
X462042Y401813D01*
X462072Y401798D01*
X462108Y401770D01*
X465275Y400062D01*
X465307Y400052D01*
X465346Y400030D01*
X468741Y398837D01*
X468774Y398833D01*
X468817Y398817D01*
X472356Y398171D01*
X472390Y398171D01*
X472434Y398163D01*
X476031Y398078D01*
X476064Y398084D01*
G37*
G36*
X217335Y397369D02*
X217335Y397369D01*
X217367Y397376D01*
X217412Y397377D01*
X220952Y398024D01*
X220983Y398036D01*
X221028Y398044D01*
X224422Y399236D01*
X224451Y399253D01*
X224494Y399268D01*
X227660Y400977D01*
X227686Y400998D01*
X227726Y401019D01*
X230586Y403202D01*
X230608Y403227D01*
X230645Y403254D01*
X233128Y405858D01*
X233146Y405886D01*
X233178Y405919D01*
X235223Y408879D01*
X235236Y408909D01*
X235263Y408946D01*
X236820Y412190D01*
X236828Y412222D01*
X236848Y412263D01*
X237879Y415710D01*
X237882Y415743D01*
X237895Y415787D01*
X238374Y419353D01*
X238372Y419386D01*
X238378Y419431D01*
X238294Y423028D01*
X238286Y423061D01*
X238286Y423106D01*
X237639Y426646D01*
X237627Y426677D01*
X237619Y426721D01*
X236426Y430116D01*
X236409Y430145D01*
X236395Y430188D01*
X234686Y433354D01*
X234665Y433380D01*
X234644Y433420D01*
X232461Y436280D01*
X232435Y436302D01*
X232408Y436339D01*
X229805Y438822D01*
X229777Y438840D01*
X229744Y438871D01*
X226784Y440917D01*
X226758Y440928D01*
X226736Y440946D01*
X226667Y440967D01*
X226601Y440995D01*
X226573Y440995D01*
X226546Y441003D01*
X226474Y440996D01*
X226402Y440996D01*
X226376Y440985D01*
X226348Y440982D01*
X226285Y440947D01*
X226219Y440919D01*
X226199Y440899D01*
X226175Y440885D01*
X226109Y440806D01*
X226080Y440776D01*
X226076Y440767D01*
X226068Y440757D01*
X203037Y401101D01*
X203028Y401074D01*
X203012Y401051D01*
X202996Y400981D01*
X202973Y400912D01*
X202976Y400884D01*
X202970Y400857D01*
X202983Y400786D01*
X202988Y400714D01*
X203001Y400689D01*
X203007Y400661D01*
X203047Y400601D01*
X203080Y400537D01*
X203101Y400519D01*
X203117Y400496D01*
X203200Y400437D01*
X203232Y400410D01*
X203242Y400407D01*
X203253Y400400D01*
X206496Y398843D01*
X206529Y398835D01*
X206569Y398814D01*
X210017Y397784D01*
X210050Y397781D01*
X210093Y397767D01*
X213659Y397288D01*
X213692Y397291D01*
X213737Y397284D01*
X217335Y397369D01*
G37*
G36*
X368169Y196375D02*
X368169Y196375D01*
X368197Y196373D01*
X368266Y196395D01*
X368336Y196409D01*
X368359Y196425D01*
X368386Y196434D01*
X368441Y196481D01*
X368500Y196522D01*
X368515Y196545D01*
X368537Y196564D01*
X368568Y196628D01*
X368607Y196689D01*
X368612Y196717D01*
X368624Y196742D01*
X368633Y196844D01*
X368640Y196885D01*
X368638Y196895D01*
X368639Y196908D01*
X368358Y200484D01*
X368348Y200516D01*
X368345Y200561D01*
X367508Y204049D01*
X367494Y204080D01*
X367484Y204124D01*
X366111Y207438D01*
X366092Y207466D01*
X366075Y207508D01*
X364201Y210566D01*
X364178Y210591D01*
X364155Y210630D01*
X361825Y213357D01*
X361799Y213378D01*
X361770Y213413D01*
X359042Y215743D01*
X359013Y215759D01*
X358979Y215789D01*
X355920Y217663D01*
X355889Y217674D01*
X355851Y217698D01*
X352536Y219071D01*
X352504Y219078D01*
X352462Y219095D01*
X348974Y219933D01*
X348941Y219934D01*
X348897Y219945D01*
X345320Y220226D01*
X345287Y220222D01*
X345242Y220226D01*
X341666Y219945D01*
X341634Y219936D01*
X341589Y219933D01*
X338101Y219095D01*
X338070Y219081D01*
X338026Y219071D01*
X334712Y217698D01*
X334684Y217680D01*
X334642Y217663D01*
X331584Y215789D01*
X331559Y215766D01*
X331520Y215743D01*
X328793Y213413D01*
X328772Y213387D01*
X328737Y213357D01*
X326408Y210630D01*
X326391Y210601D01*
X326361Y210566D01*
X324487Y207508D01*
X324476Y207477D01*
X324452Y207438D01*
X323079Y204124D01*
X323073Y204091D01*
X323055Y204049D01*
X322217Y200561D01*
X322216Y200528D01*
X322205Y200484D01*
X321924Y196908D01*
X321927Y196880D01*
X321922Y196852D01*
X321939Y196782D01*
X321948Y196711D01*
X321962Y196686D01*
X321968Y196659D01*
X322011Y196601D01*
X322047Y196538D01*
X322070Y196521D01*
X322086Y196499D01*
X322148Y196462D01*
X322206Y196418D01*
X322233Y196412D01*
X322257Y196397D01*
X322358Y196380D01*
X322399Y196370D01*
X322409Y196372D01*
X322421Y196370D01*
X368141Y196370D01*
X368169Y196375D01*
G37*
D10*
X444018Y327431D03*
X427018Y327431D03*
D11*
X402249Y326590D03*
X402249Y338590D03*
X402249Y350590D03*
D12*
X379032Y374376D03*
X379032Y369375D03*
X379032Y364373D03*
X379032Y359372D03*
X379032Y354371D03*
X379032Y349370D03*
X379032Y344368D03*
X379032Y339367D03*
X379032Y334366D03*
X379032Y329365D03*
X379032Y324363D03*
X379032Y319362D03*
D13*
X371995Y312325D03*
X366994Y312325D03*
X361992Y312325D03*
X356991Y312325D03*
X351990Y312325D03*
X346989Y312325D03*
X341987Y312325D03*
X336986Y312325D03*
X331985Y312325D03*
X326984Y312325D03*
X321982Y312325D03*
X316981Y312325D03*
D12*
X309944Y319362D03*
X309944Y324363D03*
X309944Y329365D03*
X309944Y334366D03*
X309944Y339367D03*
X309944Y344368D03*
X309944Y349370D03*
X309944Y354371D03*
X309944Y359372D03*
X309944Y364373D03*
X309944Y369375D03*
X309944Y374376D03*
D13*
X316981Y381413D03*
X321982Y381413D03*
X326984Y381413D03*
X331985Y381413D03*
X336986Y381413D03*
X341987Y381413D03*
X346989Y381413D03*
X351990Y381413D03*
X356991Y381413D03*
X361992Y381413D03*
X366994Y381413D03*
X371995Y381413D03*
D14*
X344488Y346869D03*
D15*
X436395Y301669D03*
D10*
X298083Y388311D03*
X281083Y388311D03*
D16*
X398174Y298415D03*
X415174Y298415D03*
D10*
X419242Y383358D03*
X419242Y366358D03*
X398396Y383355D03*
X398396Y366355D03*
D16*
X270500Y347504D03*
X287500Y347504D03*
D17*
X445792Y347365D03*
X426792Y347365D03*
D18*
X439960Y387531D03*
X439960Y368531D03*
D17*
X269837Y325426D03*
X288837Y325426D03*
D19*
X226940Y375577D03*
X226940Y350177D03*
X226940Y324777D03*
D20*
X510481Y346869D03*
X427881Y203769D03*
X262681Y203769D03*
X180081Y346869D03*
X469181Y418369D03*
X467594Y275369D03*
X345281Y203769D03*
X221381Y275369D03*
X221381Y418369D03*
D21*
X305650Y426363D02*
X316650Y426363D01*
X316650Y421363D01*
X305650Y421363D01*
X305650Y426363D01*
X305650Y426113D02*
X316650Y426113D01*
X339781Y426363D02*
X350781Y426363D01*
X350781Y421363D01*
X339781Y421363D01*
X339781Y426363D01*
X339781Y426113D02*
X350781Y426113D01*
X373913Y426363D02*
X384913Y426363D01*
X384913Y421363D01*
X373913Y421363D01*
X373913Y426363D01*
X373913Y426113D02*
X384913Y426113D01*
D22*
X346202Y368671D02*
X346202Y368584D01*
X444018Y327723D02*
X444018Y327431D01*
D23*
X287500Y326763D02*
X287500Y347504D01*
D24*
X287500Y326763D02*
X288437Y325826D01*
X288837Y325426D01*
D25*
X288437Y325826D02*
X288437Y328137D01*
D24*
X291531Y344368D02*
X309944Y344368D01*
X291531Y344368D02*
X287500Y347504D01*
X321982Y372048D02*
X321982Y381413D01*
D25*
X321982Y372048D02*
X322250Y371780D01*
D24*
X318471Y344368D02*
X309944Y344368D01*
X318471Y344368D02*
X318897Y343941D01*
D26*
X278873Y400190D03*
X278746Y423202D03*
X246571Y311499D03*
X263239Y298514D03*
X342900Y243681D03*
X315913Y243681D03*
X439738Y436563D03*
D24*
X270549Y347553D02*
X270500Y347504D01*
D23*
X270500Y326088D01*
D24*
X269837Y325426D01*
D26*
X269704Y309797D03*
D23*
X269704Y325292D02*
X269837Y325426D01*
X269704Y325292D02*
X269704Y309797D01*
D24*
X301824Y349370D02*
X309944Y349370D01*
D22*
X294340Y356854D02*
X279850Y356854D01*
X270500Y347504D01*
D24*
X294340Y356854D02*
X301824Y349370D01*
X326984Y312325D02*
X326984Y297698D01*
X328613Y296069D01*
D22*
X333375Y291306D01*
D26*
X333375Y233363D03*
D22*
X333375Y291306D01*
D24*
X321982Y295159D02*
X321982Y312325D01*
D22*
X325438Y213519D02*
X331788Y207169D01*
X341881Y207169D02*
X345281Y203769D01*
X341881Y207169D02*
X331788Y207169D01*
X321982Y295156D02*
X321982Y295159D01*
X321982Y295156D02*
X325438Y291700D01*
X325438Y213519D01*
D23*
X435787Y383358D02*
X439960Y387531D01*
X435787Y383358D02*
X419242Y383358D01*
X398399Y383358D01*
X398396Y383355D01*
X398148Y383604D01*
D27*
X388577Y374033D01*
X388577Y369126D01*
D24*
X379032Y354371D02*
X379032Y349370D01*
X379032Y354371D02*
X379032Y359372D01*
D26*
X411594Y396794D03*
D23*
X411594Y396108D01*
X398841Y383355D01*
X398396Y383355D01*
X439960Y387531D02*
X447626Y387531D01*
X456538Y378619D01*
X456538Y358111D01*
X445792Y347365D01*
D24*
X386080Y359372D02*
X379032Y359372D01*
D22*
X386080Y359372D02*
X388577Y361869D01*
D25*
X388577Y369126D01*
D24*
X336986Y381413D02*
X336986Y397233D01*
X336550Y397669D01*
D22*
X319881Y414338D01*
X246063Y414338D01*
X246063Y415580D01*
D26*
X246063Y415580D03*
D24*
X331985Y394297D02*
X331985Y381413D01*
X331985Y394297D02*
X331788Y394494D01*
D22*
X330994Y394494D01*
X317500Y407988D01*
X231763Y407988D01*
X221381Y418369D01*
D23*
X426792Y347365D02*
X427618Y346540D01*
X427618Y328030D01*
X427018Y327431D01*
X419239Y366355D02*
X419242Y366358D01*
X419239Y366355D02*
X398396Y366355D01*
X437787Y366358D02*
X439960Y368531D01*
X437787Y366358D02*
X419242Y366358D01*
X426792Y358820D02*
X426792Y347365D01*
X419254Y366358D02*
X419242Y366358D01*
X419254Y366358D02*
X426792Y358820D01*
D27*
X398396Y362290D02*
X398396Y366355D01*
D24*
X385953Y344368D02*
X379032Y344368D01*
X387629Y346044D02*
X387629Y351523D01*
X387629Y346044D02*
X385953Y344368D01*
D25*
X387629Y351523D02*
X398396Y362290D01*
D26*
X441676Y274653D03*
D22*
X441597Y274574D01*
X400617Y274574D01*
D24*
X372096Y312223D02*
X371995Y312325D01*
X372096Y312223D02*
X372096Y303095D01*
D22*
X400617Y274574D01*
D24*
X366994Y381413D02*
X366994Y392140D01*
X376428Y401574D01*
D22*
X400815Y425961D01*
X445294Y425961D01*
D26*
X445294Y425961D03*
D24*
X366994Y312325D02*
X366994Y300110D01*
D22*
X400042Y267061D02*
X459286Y267061D01*
X467594Y275369D01*
X400042Y267061D02*
X366994Y300110D01*
D24*
X371995Y381413D02*
X371995Y388759D01*
X382270Y399034D01*
D22*
X401605Y418369D01*
X469181Y418369D01*
X398492Y298415D02*
X409143Y287763D01*
X398492Y298415D02*
X398174Y298415D01*
X422489Y287763D02*
X436395Y301669D01*
X422489Y287763D02*
X409143Y287763D01*
D24*
X379208Y329189D02*
X379032Y329365D01*
X379208Y329189D02*
X386392Y329189D01*
X391668Y323913D01*
X391668Y304920D01*
X398174Y298415D01*
X389849Y334366D02*
X379032Y334366D01*
X397625Y326590D02*
X402249Y326590D01*
X397625Y326590D02*
X389849Y334366D01*
X400951Y348586D02*
X402249Y349884D01*
X402249Y350590D01*
X388683Y339367D02*
X379032Y339367D01*
X397903Y348586D02*
X400951Y348586D01*
X397903Y348586D02*
X388683Y339367D01*
X309944Y374376D02*
X292120Y374376D01*
X288544Y377952D01*
D27*
X281083Y385413D01*
X281083Y388311D01*
D23*
X226940Y375577D02*
X226940Y350177D01*
X226940Y375577D02*
X239674Y388311D01*
X281083Y388311D01*
X246063Y343900D02*
X226940Y324777D01*
X246063Y343900D02*
X246063Y365125D01*
X252950Y372012D01*
X278606Y372012D01*
D24*
X287338Y369375D02*
X309944Y369375D01*
X284700Y372012D02*
X278606Y372012D01*
X284700Y372012D02*
X287338Y369375D01*
D26*
X342712Y402243D03*
D24*
X341987Y401518D01*
X341987Y381413D01*
D22*
X342712Y402243D02*
X342712Y421293D01*
X345281Y423863D01*
D26*
X358199Y397451D03*
D24*
X353001Y397451D01*
X346869Y391319D01*
X346869Y381533D01*
X346989Y381413D01*
D22*
X358199Y397451D02*
X358199Y402649D01*
X379413Y423863D01*
D26*
X313681Y398689D03*
D24*
X316856Y398689D01*
X326984Y388561D01*
X326984Y381413D01*
D26*
X313531Y432594D03*
D22*
X311150Y430213D02*
X311150Y423863D01*
X311150Y430213D02*
X313531Y432594D01*
D24*
X309944Y354371D02*
X304442Y354371D01*
X296040Y362773D01*
D22*
X258763Y354013D02*
X258763Y312750D01*
X221381Y275369D01*
X258763Y354013D02*
X267523Y362773D01*
X296040Y362773D01*
D24*
X304442Y339367D02*
X309944Y339367D01*
X304442Y339367D02*
X301625Y336550D01*
D26*
X258763Y280988D03*
D22*
X284956Y280988D01*
X301625Y297656D01*
X301625Y336550D01*
D24*
X356991Y312325D02*
X356991Y297853D01*
X357188Y297656D01*
D26*
X357188Y297656D03*
M02*
