G04 EAGLE Gerber RS-274X export*
G75*
%MOMM*%
%FSLAX34Y34*%
%LPD*%
%INSilkscreen Bottom*%
%IPPOS*%
%AMOC8*
5,1,8,0,0,1.08239X$1,22.5*%
G01*
%ADD10C,0.152400*%
%ADD11C,0.101600*%
%ADD12C,0.177800*%
%ADD13C,0.050800*%
%ADD14C,0.076200*%
%ADD15C,0.254000*%

G36*
X333892Y387891D02*
X333892Y387891D01*
X333894Y387891D01*
X333937Y387910D01*
X333980Y387929D01*
X333981Y387931D01*
X333983Y387932D01*
X334016Y388017D01*
X334016Y390557D01*
X334015Y390559D01*
X334016Y390561D01*
X333996Y390604D01*
X333977Y390647D01*
X333975Y390648D01*
X333974Y390650D01*
X333890Y390683D01*
X330080Y390683D01*
X330078Y390682D01*
X330075Y390683D01*
X330032Y390663D01*
X329989Y390645D01*
X329988Y390643D01*
X329986Y390642D01*
X329953Y390557D01*
X329953Y388017D01*
X329954Y388015D01*
X329953Y388013D01*
X329973Y387970D01*
X329992Y387926D01*
X329994Y387925D01*
X329995Y387923D01*
X330080Y387891D01*
X333890Y387891D01*
X333892Y387891D01*
G37*
G36*
X303342Y342337D02*
X303342Y342337D01*
X303344Y342337D01*
X303387Y342356D01*
X303430Y342375D01*
X303431Y342377D01*
X303433Y342378D01*
X303466Y342463D01*
X303466Y346273D01*
X303465Y346275D01*
X303466Y346277D01*
X303446Y346320D01*
X303427Y346363D01*
X303425Y346364D01*
X303424Y346366D01*
X303340Y346399D01*
X300800Y346399D01*
X300798Y346398D01*
X300795Y346399D01*
X300752Y346379D01*
X300709Y346361D01*
X300708Y346359D01*
X300706Y346358D01*
X300673Y346273D01*
X300673Y342463D01*
X300674Y342461D01*
X300673Y342459D01*
X300693Y342416D01*
X300712Y342372D01*
X300714Y342371D01*
X300715Y342369D01*
X300800Y342337D01*
X303340Y342337D01*
X303342Y342337D01*
G37*
G36*
X388178Y327334D02*
X388178Y327334D01*
X388180Y327334D01*
X388223Y327353D01*
X388266Y327372D01*
X388267Y327374D01*
X388269Y327375D01*
X388302Y327460D01*
X388302Y331270D01*
X388301Y331272D01*
X388302Y331274D01*
X388282Y331317D01*
X388263Y331360D01*
X388261Y331361D01*
X388260Y331363D01*
X388176Y331396D01*
X385636Y331396D01*
X385634Y331395D01*
X385631Y331396D01*
X385588Y331376D01*
X385545Y331358D01*
X385544Y331356D01*
X385542Y331355D01*
X385509Y331270D01*
X385509Y327460D01*
X385510Y327458D01*
X385509Y327456D01*
X385529Y327413D01*
X385548Y327369D01*
X385550Y327368D01*
X385551Y327366D01*
X385636Y327334D01*
X388176Y327334D01*
X388178Y327334D01*
G37*
G36*
X338893Y303055D02*
X338893Y303055D01*
X338895Y303055D01*
X338938Y303074D01*
X338981Y303093D01*
X338982Y303095D01*
X338984Y303096D01*
X339017Y303181D01*
X339017Y305721D01*
X339016Y305723D01*
X339017Y305725D01*
X338997Y305768D01*
X338978Y305811D01*
X338976Y305812D01*
X338975Y305814D01*
X338891Y305847D01*
X335081Y305847D01*
X335079Y305846D01*
X335076Y305847D01*
X335033Y305827D01*
X334990Y305809D01*
X334989Y305807D01*
X334987Y305806D01*
X334954Y305721D01*
X334954Y303181D01*
X334955Y303179D01*
X334954Y303177D01*
X334974Y303134D01*
X334993Y303090D01*
X334995Y303089D01*
X334996Y303087D01*
X335081Y303055D01*
X338891Y303055D01*
X338893Y303055D01*
G37*
D10*
X247824Y378231D02*
X242885Y378231D01*
X242745Y378229D01*
X242606Y378223D01*
X242466Y378213D01*
X242327Y378199D01*
X242188Y378182D01*
X242050Y378160D01*
X241913Y378134D01*
X241776Y378105D01*
X241640Y378072D01*
X241506Y378035D01*
X241372Y377994D01*
X241240Y377949D01*
X241108Y377900D01*
X240979Y377848D01*
X240851Y377793D01*
X240724Y377733D01*
X240599Y377670D01*
X240476Y377604D01*
X240355Y377534D01*
X240236Y377461D01*
X240119Y377384D01*
X240005Y377304D01*
X239892Y377221D01*
X239782Y377135D01*
X239675Y377045D01*
X239570Y376953D01*
X239468Y376858D01*
X239368Y376760D01*
X239271Y376659D01*
X239177Y376555D01*
X239087Y376449D01*
X238999Y376340D01*
X238914Y376229D01*
X238833Y376115D01*
X238754Y376000D01*
X238679Y375882D01*
X238608Y375762D01*
X238540Y375639D01*
X238475Y375516D01*
X238414Y375390D01*
X238356Y375262D01*
X238302Y375134D01*
X238252Y375003D01*
X238205Y374871D01*
X238162Y374738D01*
X238123Y374604D01*
X238088Y374469D01*
X238057Y374333D01*
X238029Y374195D01*
X238006Y374058D01*
X237986Y373919D01*
X237970Y373780D01*
X237958Y373641D01*
X237950Y373502D01*
X237946Y373362D01*
X237946Y373222D01*
X237950Y373082D01*
X237958Y372943D01*
X237970Y372804D01*
X237986Y372665D01*
X238006Y372526D01*
X238029Y372389D01*
X238057Y372251D01*
X238088Y372115D01*
X238123Y371980D01*
X238162Y371846D01*
X238205Y371713D01*
X238252Y371581D01*
X238302Y371450D01*
X238356Y371322D01*
X238414Y371194D01*
X238475Y371068D01*
X238540Y370945D01*
X238608Y370823D01*
X238679Y370702D01*
X238754Y370584D01*
X238833Y370469D01*
X238914Y370355D01*
X238999Y370244D01*
X239087Y370135D01*
X239177Y370029D01*
X239271Y369925D01*
X239368Y369824D01*
X239468Y369726D01*
X239570Y369631D01*
X239675Y369539D01*
X239782Y369449D01*
X239892Y369363D01*
X240005Y369280D01*
X240119Y369200D01*
X240236Y369123D01*
X240355Y369050D01*
X240476Y368980D01*
X240599Y368914D01*
X240724Y368851D01*
X240851Y368791D01*
X240979Y368736D01*
X241108Y368684D01*
X241240Y368635D01*
X241372Y368590D01*
X241506Y368549D01*
X241640Y368512D01*
X241776Y368479D01*
X241913Y368450D01*
X242050Y368424D01*
X242188Y368402D01*
X242327Y368385D01*
X242466Y368371D01*
X242606Y368361D01*
X242745Y368355D01*
X242885Y368353D01*
X247824Y368353D01*
X247824Y386133D01*
X242885Y386133D01*
X242761Y386131D01*
X242637Y386125D01*
X242513Y386115D01*
X242390Y386102D01*
X242267Y386084D01*
X242145Y386063D01*
X242023Y386038D01*
X241902Y386009D01*
X241783Y385976D01*
X241664Y385940D01*
X241547Y385899D01*
X241431Y385856D01*
X241316Y385808D01*
X241203Y385757D01*
X241091Y385702D01*
X240982Y385644D01*
X240874Y385583D01*
X240768Y385518D01*
X240664Y385450D01*
X240563Y385378D01*
X240463Y385304D01*
X240367Y385226D01*
X240272Y385146D01*
X240180Y385062D01*
X240091Y384976D01*
X240005Y384887D01*
X239921Y384795D01*
X239841Y384700D01*
X239763Y384604D01*
X239689Y384504D01*
X239617Y384403D01*
X239549Y384299D01*
X239484Y384193D01*
X239423Y384085D01*
X239365Y383976D01*
X239310Y383864D01*
X239259Y383751D01*
X239211Y383636D01*
X239168Y383520D01*
X239127Y383403D01*
X239091Y383284D01*
X239058Y383165D01*
X239029Y383044D01*
X239004Y382922D01*
X238983Y382800D01*
X238965Y382677D01*
X238952Y382554D01*
X238942Y382430D01*
X238936Y382306D01*
X238934Y382182D01*
X238936Y382058D01*
X238942Y381934D01*
X238952Y381810D01*
X238965Y381687D01*
X238983Y381564D01*
X239004Y381442D01*
X239029Y381320D01*
X239058Y381199D01*
X239091Y381080D01*
X239127Y380961D01*
X239168Y380844D01*
X239211Y380728D01*
X239259Y380613D01*
X239310Y380500D01*
X239365Y380388D01*
X239423Y380279D01*
X239484Y380171D01*
X239549Y380065D01*
X239617Y379961D01*
X239689Y379860D01*
X239763Y379760D01*
X239841Y379664D01*
X239921Y379569D01*
X240005Y379477D01*
X240091Y379388D01*
X240180Y379302D01*
X240272Y379218D01*
X240367Y379138D01*
X240463Y379060D01*
X240563Y378986D01*
X240664Y378914D01*
X240768Y378846D01*
X240874Y378781D01*
X240982Y378720D01*
X241091Y378662D01*
X241203Y378607D01*
X241316Y378556D01*
X241431Y378508D01*
X241547Y378465D01*
X241664Y378424D01*
X241783Y378388D01*
X241902Y378355D01*
X242023Y378326D01*
X242145Y378301D01*
X242267Y378280D01*
X242390Y378262D01*
X242513Y378249D01*
X242637Y378239D01*
X242761Y378233D01*
X242885Y378231D01*
X456723Y311419D02*
X456723Y293639D01*
X456723Y311419D02*
X451784Y311419D01*
X451644Y311417D01*
X451505Y311411D01*
X451365Y311401D01*
X451226Y311387D01*
X451087Y311370D01*
X450949Y311348D01*
X450812Y311322D01*
X450675Y311293D01*
X450539Y311260D01*
X450405Y311223D01*
X450271Y311182D01*
X450139Y311137D01*
X450007Y311088D01*
X449878Y311036D01*
X449750Y310981D01*
X449623Y310921D01*
X449498Y310858D01*
X449375Y310792D01*
X449254Y310722D01*
X449135Y310649D01*
X449018Y310572D01*
X448904Y310492D01*
X448791Y310409D01*
X448681Y310323D01*
X448574Y310233D01*
X448469Y310141D01*
X448367Y310046D01*
X448267Y309948D01*
X448170Y309847D01*
X448076Y309743D01*
X447986Y309637D01*
X447898Y309528D01*
X447813Y309417D01*
X447732Y309303D01*
X447653Y309188D01*
X447578Y309070D01*
X447507Y308950D01*
X447439Y308827D01*
X447374Y308704D01*
X447313Y308578D01*
X447255Y308450D01*
X447201Y308322D01*
X447151Y308191D01*
X447104Y308059D01*
X447061Y307926D01*
X447022Y307792D01*
X446987Y307657D01*
X446956Y307521D01*
X446928Y307383D01*
X446905Y307246D01*
X446885Y307107D01*
X446869Y306968D01*
X446857Y306829D01*
X446849Y306690D01*
X446845Y306550D01*
X446845Y306410D01*
X446849Y306270D01*
X446857Y306131D01*
X446869Y305992D01*
X446885Y305853D01*
X446905Y305714D01*
X446928Y305577D01*
X446956Y305439D01*
X446987Y305303D01*
X447022Y305168D01*
X447061Y305034D01*
X447104Y304901D01*
X447151Y304769D01*
X447201Y304638D01*
X447255Y304510D01*
X447313Y304382D01*
X447374Y304256D01*
X447439Y304133D01*
X447507Y304011D01*
X447578Y303890D01*
X447653Y303772D01*
X447732Y303657D01*
X447813Y303543D01*
X447898Y303432D01*
X447986Y303323D01*
X448076Y303217D01*
X448170Y303113D01*
X448267Y303012D01*
X448367Y302914D01*
X448469Y302819D01*
X448574Y302727D01*
X448681Y302637D01*
X448791Y302551D01*
X448904Y302468D01*
X449018Y302388D01*
X449135Y302311D01*
X449254Y302238D01*
X449375Y302168D01*
X449498Y302102D01*
X449623Y302039D01*
X449750Y301979D01*
X449878Y301924D01*
X450007Y301872D01*
X450139Y301823D01*
X450271Y301778D01*
X450405Y301737D01*
X450539Y301700D01*
X450675Y301667D01*
X450812Y301638D01*
X450949Y301612D01*
X451087Y301590D01*
X451226Y301573D01*
X451365Y301559D01*
X451505Y301549D01*
X451644Y301543D01*
X451784Y301541D01*
X456723Y301541D01*
X450797Y301541D02*
X446846Y293639D01*
X248168Y317388D02*
X248168Y335168D01*
X243229Y335168D01*
X243090Y335166D01*
X242952Y335160D01*
X242814Y335151D01*
X242676Y335137D01*
X242539Y335120D01*
X242402Y335098D01*
X242265Y335073D01*
X242130Y335044D01*
X241995Y335011D01*
X241862Y334975D01*
X241729Y334935D01*
X241598Y334891D01*
X241468Y334843D01*
X241339Y334792D01*
X241212Y334737D01*
X241086Y334679D01*
X240962Y334617D01*
X240840Y334552D01*
X240720Y334483D01*
X240601Y334411D01*
X240485Y334336D01*
X240371Y334257D01*
X240259Y334175D01*
X240150Y334090D01*
X240042Y334003D01*
X239938Y333912D01*
X239836Y333818D01*
X239737Y333721D01*
X239640Y333622D01*
X239546Y333520D01*
X239455Y333416D01*
X239368Y333308D01*
X239283Y333199D01*
X239201Y333087D01*
X239122Y332973D01*
X239047Y332857D01*
X238975Y332738D01*
X238906Y332618D01*
X238841Y332496D01*
X238779Y332372D01*
X238721Y332246D01*
X238666Y332119D01*
X238615Y331990D01*
X238567Y331860D01*
X238523Y331729D01*
X238483Y331596D01*
X238447Y331463D01*
X238414Y331328D01*
X238385Y331193D01*
X238360Y331056D01*
X238338Y330919D01*
X238321Y330782D01*
X238307Y330644D01*
X238298Y330506D01*
X238292Y330368D01*
X238290Y330229D01*
X238290Y322327D01*
X238292Y322188D01*
X238298Y322050D01*
X238307Y321912D01*
X238321Y321774D01*
X238338Y321637D01*
X238360Y321500D01*
X238385Y321363D01*
X238414Y321228D01*
X238447Y321093D01*
X238483Y320960D01*
X238523Y320827D01*
X238567Y320696D01*
X238615Y320566D01*
X238666Y320437D01*
X238721Y320310D01*
X238779Y320184D01*
X238841Y320060D01*
X238906Y319938D01*
X238975Y319818D01*
X239047Y319699D01*
X239122Y319583D01*
X239201Y319469D01*
X239283Y319357D01*
X239368Y319248D01*
X239455Y319140D01*
X239546Y319036D01*
X239640Y318934D01*
X239737Y318835D01*
X239836Y318738D01*
X239938Y318644D01*
X240042Y318553D01*
X240150Y318466D01*
X240259Y318381D01*
X240371Y318299D01*
X240485Y318220D01*
X240601Y318145D01*
X240720Y318073D01*
X240840Y318004D01*
X240962Y317939D01*
X241086Y317877D01*
X241212Y317819D01*
X241339Y317764D01*
X241468Y317713D01*
X241598Y317665D01*
X241729Y317621D01*
X241862Y317581D01*
X241995Y317545D01*
X242130Y317512D01*
X242265Y317483D01*
X242402Y317458D01*
X242539Y317436D01*
X242676Y317419D01*
X242814Y317405D01*
X242952Y317396D01*
X243090Y317390D01*
X243229Y317388D01*
X248168Y317388D01*
X244152Y342981D02*
X240201Y342981D01*
X244152Y342981D02*
X244276Y342983D01*
X244400Y342989D01*
X244524Y342999D01*
X244647Y343012D01*
X244770Y343030D01*
X244892Y343051D01*
X245014Y343076D01*
X245135Y343105D01*
X245254Y343138D01*
X245373Y343174D01*
X245490Y343215D01*
X245606Y343258D01*
X245721Y343306D01*
X245834Y343357D01*
X245946Y343412D01*
X246055Y343470D01*
X246163Y343531D01*
X246269Y343596D01*
X246373Y343664D01*
X246474Y343736D01*
X246574Y343810D01*
X246670Y343888D01*
X246765Y343968D01*
X246857Y344052D01*
X246946Y344138D01*
X247032Y344227D01*
X247116Y344319D01*
X247196Y344414D01*
X247274Y344510D01*
X247348Y344610D01*
X247420Y344711D01*
X247488Y344815D01*
X247553Y344921D01*
X247614Y345029D01*
X247672Y345138D01*
X247727Y345250D01*
X247778Y345363D01*
X247826Y345478D01*
X247869Y345594D01*
X247910Y345711D01*
X247946Y345830D01*
X247979Y345949D01*
X248008Y346070D01*
X248033Y346192D01*
X248054Y346314D01*
X248072Y346437D01*
X248085Y346560D01*
X248095Y346684D01*
X248101Y346808D01*
X248103Y346932D01*
X248103Y356810D01*
X248101Y356934D01*
X248095Y357058D01*
X248085Y357182D01*
X248072Y357305D01*
X248054Y357428D01*
X248033Y357550D01*
X248008Y357672D01*
X247979Y357793D01*
X247946Y357912D01*
X247910Y358031D01*
X247869Y358148D01*
X247826Y358264D01*
X247778Y358379D01*
X247727Y358492D01*
X247672Y358604D01*
X247614Y358713D01*
X247553Y358821D01*
X247488Y358927D01*
X247420Y359031D01*
X247348Y359132D01*
X247274Y359232D01*
X247196Y359328D01*
X247116Y359423D01*
X247032Y359515D01*
X246946Y359604D01*
X246857Y359690D01*
X246765Y359774D01*
X246670Y359854D01*
X246574Y359932D01*
X246474Y360006D01*
X246373Y360078D01*
X246269Y360146D01*
X246163Y360211D01*
X246055Y360272D01*
X245946Y360330D01*
X245834Y360385D01*
X245721Y360436D01*
X245607Y360484D01*
X245490Y360527D01*
X245373Y360568D01*
X245254Y360604D01*
X245135Y360637D01*
X245014Y360666D01*
X244892Y360691D01*
X244770Y360712D01*
X244647Y360730D01*
X244524Y360743D01*
X244400Y360753D01*
X244276Y360759D01*
X244152Y360761D01*
X240201Y360761D01*
D11*
X492049Y337254D02*
X492049Y335306D01*
X492049Y337254D02*
X485558Y337254D01*
X485558Y333359D01*
X485560Y333260D01*
X485566Y333160D01*
X485575Y333061D01*
X485588Y332963D01*
X485605Y332865D01*
X485626Y332767D01*
X485651Y332671D01*
X485679Y332576D01*
X485711Y332482D01*
X485746Y332389D01*
X485785Y332297D01*
X485828Y332207D01*
X485873Y332119D01*
X485923Y332032D01*
X485975Y331948D01*
X486031Y331865D01*
X486089Y331785D01*
X486151Y331707D01*
X486216Y331632D01*
X486284Y331559D01*
X486354Y331489D01*
X486427Y331421D01*
X486502Y331356D01*
X486580Y331294D01*
X486660Y331236D01*
X486743Y331180D01*
X486827Y331128D01*
X486914Y331078D01*
X487002Y331033D01*
X487092Y330990D01*
X487184Y330951D01*
X487277Y330916D01*
X487371Y330884D01*
X487466Y330856D01*
X487562Y330831D01*
X487660Y330810D01*
X487758Y330793D01*
X487856Y330780D01*
X487955Y330771D01*
X488055Y330765D01*
X488154Y330763D01*
X494646Y330763D01*
X494745Y330765D01*
X494845Y330771D01*
X494944Y330780D01*
X495042Y330793D01*
X495140Y330810D01*
X495238Y330831D01*
X495334Y330856D01*
X495429Y330884D01*
X495523Y330916D01*
X495616Y330951D01*
X495708Y330990D01*
X495798Y331033D01*
X495886Y331078D01*
X495973Y331128D01*
X496057Y331180D01*
X496140Y331236D01*
X496220Y331294D01*
X496298Y331356D01*
X496373Y331421D01*
X496446Y331489D01*
X496516Y331559D01*
X496584Y331632D01*
X496649Y331707D01*
X496711Y331785D01*
X496769Y331865D01*
X496825Y331948D01*
X496877Y332032D01*
X496927Y332119D01*
X496972Y332207D01*
X497015Y332297D01*
X497054Y332389D01*
X497089Y332481D01*
X497121Y332576D01*
X497149Y332671D01*
X497174Y332767D01*
X497195Y332865D01*
X497212Y332963D01*
X497225Y333061D01*
X497234Y333160D01*
X497240Y333260D01*
X497242Y333359D01*
X497242Y337254D01*
X497242Y342954D02*
X485558Y342954D01*
X485558Y349446D02*
X497242Y342954D01*
X497242Y349446D02*
X485558Y349446D01*
X485558Y355146D02*
X497242Y355146D01*
X497242Y358392D01*
X497240Y358505D01*
X497234Y358618D01*
X497224Y358731D01*
X497210Y358844D01*
X497193Y358956D01*
X497171Y359067D01*
X497146Y359177D01*
X497116Y359287D01*
X497083Y359395D01*
X497046Y359502D01*
X497006Y359608D01*
X496961Y359712D01*
X496913Y359815D01*
X496862Y359916D01*
X496807Y360015D01*
X496749Y360112D01*
X496687Y360207D01*
X496622Y360300D01*
X496554Y360390D01*
X496483Y360478D01*
X496408Y360564D01*
X496331Y360647D01*
X496251Y360727D01*
X496168Y360804D01*
X496082Y360879D01*
X495994Y360950D01*
X495904Y361018D01*
X495811Y361083D01*
X495716Y361145D01*
X495619Y361203D01*
X495520Y361258D01*
X495419Y361309D01*
X495316Y361357D01*
X495212Y361402D01*
X495106Y361442D01*
X494999Y361479D01*
X494891Y361512D01*
X494781Y361542D01*
X494671Y361567D01*
X494560Y361589D01*
X494448Y361606D01*
X494335Y361620D01*
X494222Y361630D01*
X494109Y361636D01*
X493996Y361638D01*
X488804Y361638D01*
X488691Y361636D01*
X488578Y361630D01*
X488465Y361620D01*
X488352Y361606D01*
X488240Y361589D01*
X488129Y361567D01*
X488019Y361542D01*
X487909Y361512D01*
X487801Y361479D01*
X487694Y361442D01*
X487588Y361402D01*
X487484Y361357D01*
X487381Y361309D01*
X487280Y361258D01*
X487181Y361203D01*
X487084Y361145D01*
X486989Y361083D01*
X486896Y361018D01*
X486806Y360950D01*
X486718Y360879D01*
X486632Y360804D01*
X486549Y360727D01*
X486469Y360647D01*
X486392Y360564D01*
X486317Y360478D01*
X486246Y360390D01*
X486178Y360300D01*
X486113Y360207D01*
X486051Y360112D01*
X485993Y360015D01*
X485938Y359916D01*
X485887Y359815D01*
X485839Y359712D01*
X485794Y359608D01*
X485754Y359502D01*
X485717Y359395D01*
X485684Y359287D01*
X485654Y359177D01*
X485629Y359067D01*
X485607Y358956D01*
X485590Y358844D01*
X485576Y358731D01*
X485566Y358618D01*
X485560Y358505D01*
X485558Y358392D01*
X485558Y355146D01*
X425667Y224415D02*
X424072Y223298D01*
X427795Y217981D01*
X430986Y220215D01*
X430985Y220215D02*
X431065Y220274D01*
X431143Y220336D01*
X431219Y220400D01*
X431292Y220468D01*
X431363Y220538D01*
X431430Y220611D01*
X431495Y220686D01*
X431557Y220764D01*
X431616Y220844D01*
X431672Y220926D01*
X431725Y221011D01*
X431774Y221097D01*
X431820Y221185D01*
X431863Y221275D01*
X431902Y221366D01*
X431937Y221459D01*
X431969Y221553D01*
X431998Y221649D01*
X432022Y221745D01*
X432043Y221842D01*
X432061Y221940D01*
X432074Y222039D01*
X432084Y222138D01*
X432090Y222237D01*
X432092Y222336D01*
X432090Y222436D01*
X432085Y222535D01*
X432075Y222634D01*
X432062Y222733D01*
X432046Y222831D01*
X432025Y222928D01*
X432001Y223025D01*
X431973Y223120D01*
X431941Y223214D01*
X431906Y223307D01*
X431867Y223399D01*
X431825Y223489D01*
X431779Y223577D01*
X431730Y223664D01*
X431678Y223748D01*
X431623Y223831D01*
X427900Y229148D01*
X427841Y229228D01*
X427779Y229306D01*
X427715Y229382D01*
X427647Y229455D01*
X427577Y229526D01*
X427504Y229593D01*
X427429Y229658D01*
X427351Y229720D01*
X427271Y229779D01*
X427189Y229835D01*
X427104Y229888D01*
X427018Y229937D01*
X426930Y229983D01*
X426840Y230026D01*
X426749Y230065D01*
X426656Y230100D01*
X426562Y230132D01*
X426466Y230161D01*
X426370Y230185D01*
X426273Y230206D01*
X426175Y230224D01*
X426076Y230237D01*
X425977Y230247D01*
X425878Y230253D01*
X425779Y230255D01*
X425679Y230253D01*
X425580Y230248D01*
X425481Y230239D01*
X425382Y230225D01*
X425284Y230209D01*
X425187Y230188D01*
X425090Y230164D01*
X424995Y230136D01*
X424901Y230104D01*
X424808Y230069D01*
X424716Y230030D01*
X424626Y229988D01*
X424538Y229942D01*
X424451Y229893D01*
X424367Y229841D01*
X424284Y229786D01*
X421094Y227552D01*
X416424Y224282D02*
X423125Y214711D01*
X417808Y210988D02*
X416424Y224282D01*
X411107Y220559D02*
X417808Y210988D01*
X413138Y207718D02*
X406437Y217289D01*
X403778Y215427D01*
X403778Y215428D02*
X403687Y215361D01*
X403597Y215292D01*
X403510Y215219D01*
X403426Y215143D01*
X403345Y215064D01*
X403266Y214983D01*
X403190Y214899D01*
X403117Y214812D01*
X403048Y214723D01*
X402981Y214631D01*
X402918Y214537D01*
X402858Y214441D01*
X402801Y214343D01*
X402748Y214243D01*
X402698Y214141D01*
X402652Y214037D01*
X402610Y213932D01*
X402571Y213826D01*
X402536Y213718D01*
X402505Y213609D01*
X402477Y213499D01*
X402454Y213388D01*
X402434Y213277D01*
X402418Y213165D01*
X402406Y213052D01*
X402398Y212939D01*
X402394Y212826D01*
X402394Y212712D01*
X402398Y212599D01*
X402406Y212486D01*
X402418Y212373D01*
X402434Y212261D01*
X402454Y212150D01*
X402477Y212039D01*
X402505Y211929D01*
X402536Y211820D01*
X402571Y211712D01*
X402610Y211606D01*
X402652Y211501D01*
X402698Y211397D01*
X402748Y211295D01*
X402801Y211195D01*
X402858Y211097D01*
X402918Y211001D01*
X402981Y210907D01*
X405960Y206653D01*
X405959Y206653D02*
X406026Y206562D01*
X406095Y206472D01*
X406168Y206385D01*
X406244Y206301D01*
X406323Y206220D01*
X406404Y206141D01*
X406488Y206065D01*
X406575Y205992D01*
X406665Y205923D01*
X406756Y205856D01*
X406850Y205793D01*
X406946Y205733D01*
X407044Y205676D01*
X407144Y205623D01*
X407246Y205573D01*
X407350Y205527D01*
X407455Y205485D01*
X407561Y205446D01*
X407669Y205411D01*
X407778Y205380D01*
X407888Y205352D01*
X407999Y205329D01*
X408110Y205309D01*
X408222Y205293D01*
X408335Y205281D01*
X408448Y205273D01*
X408561Y205269D01*
X408675Y205269D01*
X408788Y205273D01*
X408901Y205281D01*
X409014Y205293D01*
X409126Y205309D01*
X409237Y205329D01*
X409348Y205352D01*
X409458Y205380D01*
X409567Y205411D01*
X409675Y205446D01*
X409781Y205485D01*
X409886Y205527D01*
X409990Y205573D01*
X410092Y205623D01*
X410192Y205676D01*
X410290Y205733D01*
X410386Y205793D01*
X410480Y205856D01*
X413138Y207718D01*
X284057Y212027D02*
X282462Y213144D01*
X278738Y207827D01*
X281929Y205593D01*
X282012Y205538D01*
X282096Y205486D01*
X282183Y205437D01*
X282271Y205391D01*
X282361Y205349D01*
X282453Y205310D01*
X282546Y205275D01*
X282640Y205243D01*
X282735Y205215D01*
X282832Y205191D01*
X282929Y205170D01*
X283027Y205154D01*
X283126Y205140D01*
X283225Y205131D01*
X283324Y205126D01*
X283424Y205124D01*
X283523Y205126D01*
X283622Y205132D01*
X283721Y205142D01*
X283820Y205155D01*
X283918Y205173D01*
X284015Y205194D01*
X284111Y205218D01*
X284207Y205247D01*
X284301Y205279D01*
X284394Y205314D01*
X284485Y205353D01*
X284575Y205396D01*
X284663Y205442D01*
X284749Y205491D01*
X284834Y205544D01*
X284916Y205600D01*
X284996Y205659D01*
X285074Y205721D01*
X285149Y205786D01*
X285222Y205853D01*
X285292Y205924D01*
X285360Y205997D01*
X285424Y206073D01*
X285486Y206151D01*
X285545Y206231D01*
X289268Y211548D01*
X289323Y211631D01*
X289375Y211715D01*
X289424Y211802D01*
X289470Y211890D01*
X289512Y211980D01*
X289551Y212072D01*
X289586Y212165D01*
X289618Y212259D01*
X289646Y212354D01*
X289670Y212451D01*
X289691Y212548D01*
X289707Y212646D01*
X289721Y212745D01*
X289730Y212844D01*
X289735Y212943D01*
X289737Y213043D01*
X289735Y213142D01*
X289729Y213241D01*
X289719Y213340D01*
X289706Y213439D01*
X289688Y213537D01*
X289667Y213634D01*
X289643Y213730D01*
X289614Y213826D01*
X289582Y213920D01*
X289547Y214013D01*
X289508Y214104D01*
X289465Y214194D01*
X289419Y214282D01*
X289370Y214368D01*
X289317Y214453D01*
X289261Y214535D01*
X289202Y214615D01*
X289140Y214693D01*
X289075Y214768D01*
X289008Y214841D01*
X288937Y214911D01*
X288864Y214979D01*
X288788Y215043D01*
X288710Y215105D01*
X288630Y215164D01*
X285440Y217398D01*
X280770Y220668D02*
X274069Y211097D01*
X268751Y214820D02*
X280770Y220668D01*
X275453Y224391D02*
X268751Y214820D01*
X264082Y218090D02*
X270783Y227661D01*
X268125Y229523D01*
X268031Y229586D01*
X267935Y229646D01*
X267837Y229703D01*
X267737Y229756D01*
X267635Y229806D01*
X267531Y229852D01*
X267426Y229894D01*
X267320Y229933D01*
X267212Y229968D01*
X267103Y229999D01*
X266993Y230027D01*
X266882Y230050D01*
X266771Y230070D01*
X266659Y230086D01*
X266546Y230098D01*
X266433Y230106D01*
X266320Y230110D01*
X266206Y230110D01*
X266093Y230106D01*
X265980Y230098D01*
X265867Y230086D01*
X265755Y230070D01*
X265644Y230050D01*
X265533Y230027D01*
X265423Y229999D01*
X265314Y229968D01*
X265206Y229933D01*
X265100Y229894D01*
X264995Y229852D01*
X264891Y229806D01*
X264789Y229756D01*
X264689Y229703D01*
X264591Y229646D01*
X264495Y229586D01*
X264401Y229523D01*
X264310Y229456D01*
X264220Y229387D01*
X264133Y229314D01*
X264049Y229238D01*
X263968Y229159D01*
X263889Y229078D01*
X263813Y228994D01*
X263740Y228907D01*
X263671Y228818D01*
X263604Y228726D01*
X260626Y224472D01*
X260563Y224378D01*
X260503Y224282D01*
X260446Y224184D01*
X260393Y224084D01*
X260343Y223982D01*
X260297Y223878D01*
X260255Y223773D01*
X260216Y223667D01*
X260181Y223559D01*
X260150Y223450D01*
X260122Y223340D01*
X260099Y223229D01*
X260079Y223118D01*
X260063Y223006D01*
X260051Y222893D01*
X260043Y222780D01*
X260039Y222667D01*
X260039Y222553D01*
X260043Y222440D01*
X260051Y222327D01*
X260063Y222214D01*
X260079Y222102D01*
X260099Y221991D01*
X260122Y221880D01*
X260150Y221770D01*
X260181Y221661D01*
X260216Y221553D01*
X260255Y221447D01*
X260297Y221342D01*
X260343Y221238D01*
X260393Y221136D01*
X260446Y221036D01*
X260503Y220938D01*
X260563Y220842D01*
X260626Y220748D01*
X260693Y220656D01*
X260762Y220567D01*
X260835Y220480D01*
X260911Y220396D01*
X260990Y220315D01*
X261071Y220236D01*
X261155Y220160D01*
X261242Y220087D01*
X261332Y220018D01*
X261423Y219951D01*
X261423Y219952D02*
X264082Y218090D01*
X201649Y335306D02*
X201649Y337254D01*
X195158Y337254D01*
X195158Y333359D01*
X195160Y333260D01*
X195166Y333160D01*
X195175Y333061D01*
X195188Y332963D01*
X195205Y332865D01*
X195226Y332767D01*
X195251Y332671D01*
X195279Y332576D01*
X195311Y332482D01*
X195346Y332389D01*
X195385Y332297D01*
X195428Y332207D01*
X195473Y332119D01*
X195523Y332032D01*
X195575Y331948D01*
X195631Y331865D01*
X195689Y331785D01*
X195751Y331707D01*
X195816Y331632D01*
X195884Y331559D01*
X195954Y331489D01*
X196027Y331421D01*
X196102Y331356D01*
X196180Y331294D01*
X196260Y331236D01*
X196343Y331180D01*
X196427Y331128D01*
X196514Y331078D01*
X196602Y331033D01*
X196692Y330990D01*
X196784Y330951D01*
X196877Y330916D01*
X196971Y330884D01*
X197066Y330856D01*
X197162Y330831D01*
X197260Y330810D01*
X197358Y330793D01*
X197456Y330780D01*
X197555Y330771D01*
X197655Y330765D01*
X197754Y330763D01*
X204246Y330763D01*
X204345Y330765D01*
X204445Y330771D01*
X204544Y330780D01*
X204642Y330793D01*
X204740Y330810D01*
X204838Y330831D01*
X204934Y330856D01*
X205029Y330884D01*
X205123Y330916D01*
X205216Y330951D01*
X205308Y330990D01*
X205398Y331033D01*
X205486Y331078D01*
X205573Y331128D01*
X205657Y331180D01*
X205740Y331236D01*
X205820Y331294D01*
X205898Y331356D01*
X205973Y331421D01*
X206046Y331489D01*
X206116Y331559D01*
X206184Y331632D01*
X206249Y331707D01*
X206311Y331785D01*
X206369Y331865D01*
X206425Y331948D01*
X206477Y332032D01*
X206527Y332119D01*
X206572Y332207D01*
X206615Y332297D01*
X206654Y332389D01*
X206689Y332481D01*
X206721Y332576D01*
X206749Y332671D01*
X206774Y332767D01*
X206795Y332865D01*
X206812Y332963D01*
X206825Y333061D01*
X206834Y333160D01*
X206840Y333260D01*
X206842Y333359D01*
X206842Y337254D01*
X206842Y342954D02*
X195158Y342954D01*
X195158Y349446D02*
X206842Y342954D01*
X206842Y349446D02*
X195158Y349446D01*
X195158Y355146D02*
X206842Y355146D01*
X206842Y358392D01*
X206840Y358505D01*
X206834Y358618D01*
X206824Y358731D01*
X206810Y358844D01*
X206793Y358956D01*
X206771Y359067D01*
X206746Y359177D01*
X206716Y359287D01*
X206683Y359395D01*
X206646Y359502D01*
X206606Y359608D01*
X206561Y359712D01*
X206513Y359815D01*
X206462Y359916D01*
X206407Y360015D01*
X206349Y360112D01*
X206287Y360207D01*
X206222Y360300D01*
X206154Y360390D01*
X206083Y360478D01*
X206008Y360564D01*
X205931Y360647D01*
X205851Y360727D01*
X205768Y360804D01*
X205682Y360879D01*
X205594Y360950D01*
X205504Y361018D01*
X205411Y361083D01*
X205316Y361145D01*
X205219Y361203D01*
X205120Y361258D01*
X205019Y361309D01*
X204916Y361357D01*
X204812Y361402D01*
X204706Y361442D01*
X204599Y361479D01*
X204491Y361512D01*
X204381Y361542D01*
X204271Y361567D01*
X204160Y361589D01*
X204048Y361606D01*
X203935Y361620D01*
X203822Y361630D01*
X203709Y361636D01*
X203596Y361638D01*
X198404Y361638D01*
X198291Y361636D01*
X198178Y361630D01*
X198065Y361620D01*
X197952Y361606D01*
X197840Y361589D01*
X197729Y361567D01*
X197619Y361542D01*
X197509Y361512D01*
X197401Y361479D01*
X197294Y361442D01*
X197188Y361402D01*
X197084Y361357D01*
X196981Y361309D01*
X196880Y361258D01*
X196781Y361203D01*
X196684Y361145D01*
X196589Y361083D01*
X196496Y361018D01*
X196406Y360950D01*
X196318Y360879D01*
X196232Y360804D01*
X196149Y360727D01*
X196069Y360647D01*
X195992Y360564D01*
X195917Y360478D01*
X195846Y360390D01*
X195778Y360300D01*
X195713Y360207D01*
X195651Y360112D01*
X195593Y360015D01*
X195538Y359916D01*
X195487Y359815D01*
X195439Y359712D01*
X195394Y359608D01*
X195354Y359502D01*
X195317Y359395D01*
X195284Y359287D01*
X195254Y359177D01*
X195229Y359067D01*
X195207Y358956D01*
X195190Y358844D01*
X195176Y358731D01*
X195166Y358618D01*
X195160Y358505D01*
X195158Y358392D01*
X195158Y355146D01*
D10*
X452652Y414070D02*
X452652Y431850D01*
X447713Y431850D01*
X447573Y431848D01*
X447434Y431842D01*
X447294Y431832D01*
X447155Y431818D01*
X447016Y431801D01*
X446878Y431779D01*
X446741Y431753D01*
X446604Y431724D01*
X446468Y431691D01*
X446334Y431654D01*
X446200Y431613D01*
X446068Y431568D01*
X445936Y431519D01*
X445807Y431467D01*
X445679Y431412D01*
X445552Y431352D01*
X445427Y431289D01*
X445304Y431223D01*
X445183Y431153D01*
X445064Y431080D01*
X444947Y431003D01*
X444833Y430923D01*
X444720Y430840D01*
X444610Y430754D01*
X444503Y430664D01*
X444398Y430572D01*
X444296Y430477D01*
X444196Y430379D01*
X444099Y430278D01*
X444005Y430174D01*
X443915Y430068D01*
X443827Y429959D01*
X443742Y429848D01*
X443661Y429734D01*
X443582Y429619D01*
X443507Y429501D01*
X443436Y429381D01*
X443368Y429258D01*
X443303Y429135D01*
X443242Y429009D01*
X443184Y428881D01*
X443130Y428753D01*
X443080Y428622D01*
X443033Y428490D01*
X442990Y428357D01*
X442951Y428223D01*
X442916Y428088D01*
X442885Y427952D01*
X442857Y427814D01*
X442834Y427677D01*
X442814Y427538D01*
X442798Y427399D01*
X442786Y427260D01*
X442778Y427121D01*
X442774Y426981D01*
X442774Y426841D01*
X442778Y426701D01*
X442786Y426562D01*
X442798Y426423D01*
X442814Y426284D01*
X442834Y426145D01*
X442857Y426008D01*
X442885Y425870D01*
X442916Y425734D01*
X442951Y425599D01*
X442990Y425465D01*
X443033Y425332D01*
X443080Y425200D01*
X443130Y425069D01*
X443184Y424941D01*
X443242Y424813D01*
X443303Y424687D01*
X443368Y424564D01*
X443436Y424442D01*
X443507Y424321D01*
X443582Y424203D01*
X443661Y424088D01*
X443742Y423974D01*
X443827Y423863D01*
X443915Y423754D01*
X444005Y423648D01*
X444099Y423544D01*
X444196Y423443D01*
X444296Y423345D01*
X444398Y423250D01*
X444503Y423158D01*
X444610Y423068D01*
X444720Y422982D01*
X444833Y422899D01*
X444947Y422819D01*
X445064Y422742D01*
X445183Y422669D01*
X445304Y422599D01*
X445427Y422533D01*
X445552Y422470D01*
X445679Y422410D01*
X445807Y422355D01*
X445936Y422303D01*
X446068Y422254D01*
X446200Y422209D01*
X446334Y422168D01*
X446468Y422131D01*
X446604Y422098D01*
X446741Y422069D01*
X446878Y422043D01*
X447016Y422021D01*
X447155Y422004D01*
X447294Y421990D01*
X447434Y421980D01*
X447573Y421974D01*
X447713Y421972D01*
X447713Y421973D02*
X452652Y421973D01*
X436657Y427899D02*
X431718Y431850D01*
X431718Y414070D01*
X436657Y414070D02*
X426779Y414070D01*
X360459Y239347D02*
X360459Y221567D01*
X360459Y239347D02*
X355520Y239347D01*
X355380Y239345D01*
X355241Y239339D01*
X355101Y239329D01*
X354962Y239315D01*
X354823Y239298D01*
X354685Y239276D01*
X354548Y239250D01*
X354411Y239221D01*
X354275Y239188D01*
X354141Y239151D01*
X354007Y239110D01*
X353875Y239065D01*
X353743Y239016D01*
X353614Y238964D01*
X353486Y238909D01*
X353359Y238849D01*
X353234Y238786D01*
X353111Y238720D01*
X352990Y238650D01*
X352871Y238577D01*
X352754Y238500D01*
X352640Y238420D01*
X352527Y238337D01*
X352417Y238251D01*
X352310Y238161D01*
X352205Y238069D01*
X352103Y237974D01*
X352003Y237876D01*
X351906Y237775D01*
X351812Y237671D01*
X351722Y237565D01*
X351634Y237456D01*
X351549Y237345D01*
X351468Y237231D01*
X351389Y237116D01*
X351314Y236998D01*
X351243Y236878D01*
X351175Y236755D01*
X351110Y236632D01*
X351049Y236506D01*
X350991Y236378D01*
X350937Y236250D01*
X350887Y236119D01*
X350840Y235987D01*
X350797Y235854D01*
X350758Y235720D01*
X350723Y235585D01*
X350692Y235449D01*
X350664Y235311D01*
X350641Y235174D01*
X350621Y235035D01*
X350605Y234896D01*
X350593Y234757D01*
X350585Y234618D01*
X350581Y234478D01*
X350581Y234338D01*
X350585Y234198D01*
X350593Y234059D01*
X350605Y233920D01*
X350621Y233781D01*
X350641Y233642D01*
X350664Y233505D01*
X350692Y233367D01*
X350723Y233231D01*
X350758Y233096D01*
X350797Y232962D01*
X350840Y232829D01*
X350887Y232697D01*
X350937Y232566D01*
X350991Y232438D01*
X351049Y232310D01*
X351110Y232184D01*
X351175Y232061D01*
X351243Y231938D01*
X351314Y231818D01*
X351389Y231700D01*
X351468Y231585D01*
X351549Y231471D01*
X351634Y231360D01*
X351722Y231251D01*
X351812Y231145D01*
X351906Y231041D01*
X352003Y230940D01*
X352103Y230842D01*
X352205Y230747D01*
X352310Y230655D01*
X352417Y230565D01*
X352527Y230479D01*
X352640Y230396D01*
X352754Y230316D01*
X352871Y230239D01*
X352990Y230166D01*
X353111Y230096D01*
X353234Y230030D01*
X353359Y229967D01*
X353486Y229907D01*
X353614Y229852D01*
X353743Y229800D01*
X353875Y229751D01*
X354007Y229706D01*
X354141Y229665D01*
X354275Y229628D01*
X354411Y229595D01*
X354548Y229566D01*
X354685Y229540D01*
X354823Y229518D01*
X354962Y229501D01*
X355101Y229487D01*
X355241Y229477D01*
X355380Y229471D01*
X355520Y229469D01*
X360459Y229469D01*
X344464Y221567D02*
X339525Y221567D01*
X339525Y221566D02*
X339385Y221568D01*
X339246Y221574D01*
X339106Y221584D01*
X338967Y221598D01*
X338828Y221615D01*
X338690Y221637D01*
X338553Y221663D01*
X338416Y221692D01*
X338280Y221725D01*
X338146Y221762D01*
X338012Y221803D01*
X337880Y221848D01*
X337748Y221897D01*
X337619Y221949D01*
X337491Y222004D01*
X337364Y222064D01*
X337239Y222127D01*
X337116Y222193D01*
X336995Y222263D01*
X336876Y222336D01*
X336759Y222413D01*
X336645Y222493D01*
X336532Y222576D01*
X336422Y222662D01*
X336315Y222752D01*
X336210Y222844D01*
X336108Y222939D01*
X336008Y223037D01*
X335911Y223138D01*
X335817Y223242D01*
X335727Y223348D01*
X335639Y223457D01*
X335554Y223568D01*
X335473Y223682D01*
X335394Y223797D01*
X335319Y223915D01*
X335248Y224035D01*
X335180Y224158D01*
X335115Y224281D01*
X335054Y224407D01*
X334996Y224535D01*
X334942Y224663D01*
X334892Y224794D01*
X334845Y224926D01*
X334802Y225059D01*
X334763Y225193D01*
X334728Y225328D01*
X334697Y225464D01*
X334669Y225602D01*
X334646Y225739D01*
X334626Y225878D01*
X334610Y226017D01*
X334598Y226156D01*
X334590Y226295D01*
X334586Y226435D01*
X334586Y226575D01*
X334590Y226715D01*
X334598Y226854D01*
X334610Y226993D01*
X334626Y227132D01*
X334646Y227271D01*
X334669Y227408D01*
X334697Y227546D01*
X334728Y227682D01*
X334763Y227817D01*
X334802Y227951D01*
X334845Y228084D01*
X334892Y228216D01*
X334942Y228347D01*
X334996Y228475D01*
X335054Y228603D01*
X335115Y228729D01*
X335180Y228852D01*
X335248Y228975D01*
X335319Y229095D01*
X335394Y229213D01*
X335473Y229328D01*
X335554Y229442D01*
X335639Y229553D01*
X335727Y229662D01*
X335817Y229768D01*
X335911Y229872D01*
X336008Y229973D01*
X336108Y230071D01*
X336210Y230166D01*
X336315Y230258D01*
X336422Y230348D01*
X336532Y230434D01*
X336645Y230517D01*
X336759Y230597D01*
X336876Y230674D01*
X336995Y230747D01*
X337116Y230817D01*
X337239Y230883D01*
X337364Y230946D01*
X337491Y231006D01*
X337619Y231061D01*
X337748Y231113D01*
X337880Y231162D01*
X338012Y231207D01*
X338146Y231248D01*
X338280Y231285D01*
X338416Y231318D01*
X338553Y231347D01*
X338690Y231373D01*
X338828Y231395D01*
X338967Y231412D01*
X339106Y231426D01*
X339246Y231436D01*
X339385Y231442D01*
X339525Y231444D01*
X338537Y239347D02*
X344464Y239347D01*
X338537Y239346D02*
X338413Y239344D01*
X338289Y239338D01*
X338165Y239328D01*
X338042Y239315D01*
X337919Y239297D01*
X337797Y239276D01*
X337675Y239251D01*
X337554Y239222D01*
X337435Y239189D01*
X337316Y239153D01*
X337199Y239112D01*
X337083Y239069D01*
X336968Y239021D01*
X336855Y238970D01*
X336743Y238915D01*
X336634Y238857D01*
X336526Y238796D01*
X336420Y238731D01*
X336316Y238663D01*
X336215Y238591D01*
X336115Y238517D01*
X336019Y238439D01*
X335924Y238359D01*
X335832Y238275D01*
X335743Y238189D01*
X335657Y238100D01*
X335573Y238008D01*
X335493Y237913D01*
X335415Y237817D01*
X335341Y237717D01*
X335269Y237616D01*
X335201Y237512D01*
X335136Y237406D01*
X335075Y237298D01*
X335017Y237189D01*
X334962Y237077D01*
X334911Y236964D01*
X334863Y236849D01*
X334820Y236733D01*
X334779Y236616D01*
X334743Y236497D01*
X334710Y236378D01*
X334681Y236257D01*
X334656Y236135D01*
X334635Y236013D01*
X334617Y235890D01*
X334604Y235767D01*
X334594Y235643D01*
X334588Y235519D01*
X334586Y235395D01*
X334588Y235271D01*
X334594Y235147D01*
X334604Y235023D01*
X334617Y234900D01*
X334635Y234777D01*
X334656Y234655D01*
X334681Y234533D01*
X334710Y234412D01*
X334743Y234293D01*
X334779Y234174D01*
X334820Y234057D01*
X334863Y233941D01*
X334911Y233826D01*
X334962Y233713D01*
X335017Y233601D01*
X335075Y233492D01*
X335136Y233384D01*
X335201Y233278D01*
X335269Y233174D01*
X335341Y233073D01*
X335415Y232973D01*
X335493Y232877D01*
X335573Y232782D01*
X335657Y232690D01*
X335743Y232601D01*
X335832Y232515D01*
X335924Y232431D01*
X336019Y232351D01*
X336115Y232273D01*
X336215Y232199D01*
X336316Y232127D01*
X336420Y232059D01*
X336526Y231994D01*
X336634Y231933D01*
X336743Y231875D01*
X336855Y231820D01*
X336968Y231769D01*
X337083Y231721D01*
X337199Y231678D01*
X337316Y231637D01*
X337435Y231601D01*
X337554Y231568D01*
X337675Y231539D01*
X337797Y231514D01*
X337919Y231493D01*
X338042Y231475D01*
X338165Y231462D01*
X338289Y231452D01*
X338413Y231446D01*
X338537Y231444D01*
X342488Y231444D01*
X262321Y266913D02*
X262321Y284693D01*
X257382Y284693D01*
X257242Y284691D01*
X257103Y284685D01*
X256963Y284675D01*
X256824Y284661D01*
X256685Y284644D01*
X256547Y284622D01*
X256410Y284596D01*
X256273Y284567D01*
X256137Y284534D01*
X256003Y284497D01*
X255869Y284456D01*
X255737Y284411D01*
X255605Y284362D01*
X255476Y284310D01*
X255348Y284255D01*
X255221Y284195D01*
X255096Y284132D01*
X254973Y284066D01*
X254852Y283996D01*
X254733Y283923D01*
X254616Y283846D01*
X254502Y283766D01*
X254389Y283683D01*
X254279Y283597D01*
X254172Y283507D01*
X254067Y283415D01*
X253965Y283320D01*
X253865Y283222D01*
X253768Y283121D01*
X253674Y283017D01*
X253584Y282911D01*
X253496Y282802D01*
X253411Y282691D01*
X253330Y282577D01*
X253251Y282462D01*
X253176Y282344D01*
X253105Y282224D01*
X253037Y282101D01*
X252972Y281978D01*
X252911Y281852D01*
X252853Y281724D01*
X252799Y281596D01*
X252749Y281465D01*
X252702Y281333D01*
X252659Y281200D01*
X252620Y281066D01*
X252585Y280931D01*
X252554Y280795D01*
X252526Y280657D01*
X252503Y280520D01*
X252483Y280381D01*
X252467Y280242D01*
X252455Y280103D01*
X252447Y279964D01*
X252443Y279824D01*
X252443Y279684D01*
X252447Y279544D01*
X252455Y279405D01*
X252467Y279266D01*
X252483Y279127D01*
X252503Y278988D01*
X252526Y278851D01*
X252554Y278713D01*
X252585Y278577D01*
X252620Y278442D01*
X252659Y278308D01*
X252702Y278175D01*
X252749Y278043D01*
X252799Y277912D01*
X252853Y277784D01*
X252911Y277656D01*
X252972Y277530D01*
X253037Y277407D01*
X253105Y277285D01*
X253176Y277164D01*
X253251Y277046D01*
X253330Y276931D01*
X253411Y276817D01*
X253496Y276706D01*
X253584Y276597D01*
X253674Y276491D01*
X253768Y276387D01*
X253865Y276286D01*
X253965Y276188D01*
X254067Y276093D01*
X254172Y276001D01*
X254279Y275911D01*
X254389Y275825D01*
X254502Y275742D01*
X254616Y275662D01*
X254733Y275585D01*
X254852Y275512D01*
X254973Y275442D01*
X255096Y275376D01*
X255221Y275313D01*
X255348Y275253D01*
X255476Y275198D01*
X255605Y275146D01*
X255737Y275097D01*
X255869Y275052D01*
X256003Y275011D01*
X256137Y274974D01*
X256273Y274941D01*
X256410Y274912D01*
X256547Y274886D01*
X256685Y274864D01*
X256824Y274847D01*
X256963Y274833D01*
X257103Y274823D01*
X257242Y274817D01*
X257382Y274815D01*
X262321Y274815D01*
X246326Y270864D02*
X242375Y284693D01*
X246326Y270864D02*
X236449Y270864D01*
X239412Y274815D02*
X239412Y266913D01*
X261876Y412225D02*
X261876Y430005D01*
X256937Y430005D01*
X256797Y430003D01*
X256658Y429997D01*
X256518Y429987D01*
X256379Y429973D01*
X256240Y429956D01*
X256102Y429934D01*
X255965Y429908D01*
X255828Y429879D01*
X255692Y429846D01*
X255558Y429809D01*
X255424Y429768D01*
X255292Y429723D01*
X255160Y429674D01*
X255031Y429622D01*
X254903Y429567D01*
X254776Y429507D01*
X254651Y429444D01*
X254528Y429378D01*
X254407Y429308D01*
X254288Y429235D01*
X254171Y429158D01*
X254057Y429078D01*
X253944Y428995D01*
X253834Y428909D01*
X253727Y428819D01*
X253622Y428727D01*
X253520Y428632D01*
X253420Y428534D01*
X253323Y428433D01*
X253229Y428329D01*
X253139Y428223D01*
X253051Y428114D01*
X252966Y428003D01*
X252885Y427889D01*
X252806Y427774D01*
X252731Y427656D01*
X252660Y427536D01*
X252592Y427413D01*
X252527Y427290D01*
X252466Y427164D01*
X252408Y427036D01*
X252354Y426908D01*
X252304Y426777D01*
X252257Y426645D01*
X252214Y426512D01*
X252175Y426378D01*
X252140Y426243D01*
X252109Y426107D01*
X252081Y425969D01*
X252058Y425832D01*
X252038Y425693D01*
X252022Y425554D01*
X252010Y425415D01*
X252002Y425276D01*
X251998Y425136D01*
X251998Y424996D01*
X252002Y424856D01*
X252010Y424717D01*
X252022Y424578D01*
X252038Y424439D01*
X252058Y424300D01*
X252081Y424163D01*
X252109Y424025D01*
X252140Y423889D01*
X252175Y423754D01*
X252214Y423620D01*
X252257Y423487D01*
X252304Y423355D01*
X252354Y423224D01*
X252408Y423096D01*
X252466Y422968D01*
X252527Y422842D01*
X252592Y422719D01*
X252660Y422597D01*
X252731Y422476D01*
X252806Y422358D01*
X252885Y422243D01*
X252966Y422129D01*
X253051Y422018D01*
X253139Y421909D01*
X253229Y421803D01*
X253323Y421699D01*
X253420Y421598D01*
X253520Y421500D01*
X253622Y421405D01*
X253727Y421313D01*
X253834Y421223D01*
X253944Y421137D01*
X254057Y421054D01*
X254171Y420974D01*
X254288Y420897D01*
X254407Y420824D01*
X254528Y420754D01*
X254651Y420688D01*
X254776Y420625D01*
X254903Y420565D01*
X255031Y420510D01*
X255160Y420458D01*
X255292Y420409D01*
X255424Y420364D01*
X255558Y420323D01*
X255692Y420286D01*
X255828Y420253D01*
X255965Y420224D01*
X256102Y420198D01*
X256240Y420176D01*
X256379Y420159D01*
X256518Y420145D01*
X256658Y420135D01*
X256797Y420129D01*
X256937Y420127D01*
X261876Y420127D01*
X245881Y412225D02*
X239954Y412225D01*
X239830Y412227D01*
X239706Y412233D01*
X239582Y412243D01*
X239459Y412256D01*
X239336Y412274D01*
X239214Y412295D01*
X239092Y412320D01*
X238971Y412349D01*
X238852Y412382D01*
X238733Y412418D01*
X238616Y412459D01*
X238500Y412502D01*
X238385Y412550D01*
X238272Y412601D01*
X238160Y412656D01*
X238051Y412714D01*
X237943Y412775D01*
X237837Y412840D01*
X237733Y412908D01*
X237632Y412980D01*
X237532Y413054D01*
X237436Y413132D01*
X237341Y413212D01*
X237249Y413296D01*
X237160Y413382D01*
X237074Y413471D01*
X236990Y413563D01*
X236910Y413658D01*
X236832Y413754D01*
X236758Y413854D01*
X236686Y413955D01*
X236618Y414059D01*
X236553Y414165D01*
X236492Y414273D01*
X236434Y414382D01*
X236379Y414494D01*
X236328Y414607D01*
X236280Y414722D01*
X236237Y414838D01*
X236196Y414955D01*
X236160Y415074D01*
X236127Y415193D01*
X236098Y415314D01*
X236073Y415436D01*
X236052Y415558D01*
X236034Y415681D01*
X236021Y415804D01*
X236011Y415928D01*
X236005Y416052D01*
X236003Y416176D01*
X236003Y418151D01*
X236005Y418275D01*
X236011Y418399D01*
X236021Y418523D01*
X236034Y418646D01*
X236052Y418769D01*
X236073Y418891D01*
X236098Y419013D01*
X236127Y419134D01*
X236160Y419253D01*
X236196Y419372D01*
X236237Y419489D01*
X236280Y419605D01*
X236328Y419720D01*
X236379Y419833D01*
X236434Y419945D01*
X236492Y420054D01*
X236553Y420162D01*
X236618Y420268D01*
X236686Y420372D01*
X236758Y420473D01*
X236832Y420573D01*
X236910Y420669D01*
X236990Y420764D01*
X237074Y420856D01*
X237160Y420945D01*
X237249Y421031D01*
X237341Y421115D01*
X237436Y421195D01*
X237532Y421273D01*
X237632Y421347D01*
X237733Y421419D01*
X237837Y421487D01*
X237943Y421552D01*
X238051Y421613D01*
X238160Y421671D01*
X238272Y421726D01*
X238385Y421777D01*
X238500Y421825D01*
X238616Y421868D01*
X238733Y421909D01*
X238852Y421945D01*
X238971Y421978D01*
X239092Y422007D01*
X239214Y422032D01*
X239336Y422053D01*
X239459Y422071D01*
X239582Y422084D01*
X239706Y422094D01*
X239830Y422100D01*
X239954Y422102D01*
X239954Y422103D02*
X245881Y422103D01*
X245881Y430005D01*
X236003Y430005D01*
X395110Y464932D02*
X395110Y482712D01*
X395110Y474810D02*
X385232Y474810D01*
X385232Y482712D02*
X385232Y464932D01*
X377801Y473822D02*
X377797Y474172D01*
X377784Y474521D01*
X377763Y474870D01*
X377734Y475219D01*
X377697Y475567D01*
X377651Y475914D01*
X377597Y476259D01*
X377535Y476603D01*
X377464Y476946D01*
X377385Y477287D01*
X377299Y477626D01*
X377204Y477962D01*
X377101Y478297D01*
X376990Y478628D01*
X376872Y478958D01*
X376745Y479284D01*
X376611Y479607D01*
X376469Y479926D01*
X376319Y480243D01*
X376319Y480242D02*
X376279Y480355D01*
X376235Y480465D01*
X376187Y480575D01*
X376136Y480682D01*
X376081Y480788D01*
X376023Y480893D01*
X375961Y480995D01*
X375896Y481095D01*
X375828Y481193D01*
X375757Y481289D01*
X375682Y481382D01*
X375605Y481473D01*
X375525Y481561D01*
X375442Y481646D01*
X375356Y481729D01*
X375267Y481809D01*
X375176Y481886D01*
X375082Y481960D01*
X374986Y482031D01*
X374888Y482099D01*
X374788Y482163D01*
X374685Y482225D01*
X374581Y482282D01*
X374475Y482337D01*
X374367Y482388D01*
X374257Y482435D01*
X374146Y482479D01*
X374034Y482519D01*
X373920Y482555D01*
X373806Y482588D01*
X373690Y482617D01*
X373573Y482642D01*
X373456Y482663D01*
X373338Y482681D01*
X373219Y482694D01*
X373100Y482704D01*
X372981Y482710D01*
X372862Y482712D01*
X372743Y482710D01*
X372624Y482704D01*
X372505Y482694D01*
X372386Y482681D01*
X372268Y482663D01*
X372151Y482642D01*
X372034Y482617D01*
X371918Y482588D01*
X371804Y482555D01*
X371690Y482519D01*
X371578Y482479D01*
X371467Y482435D01*
X371357Y482388D01*
X371249Y482337D01*
X371143Y482282D01*
X371039Y482225D01*
X370936Y482163D01*
X370836Y482099D01*
X370738Y482031D01*
X370642Y481960D01*
X370548Y481886D01*
X370457Y481809D01*
X370368Y481729D01*
X370283Y481646D01*
X370199Y481561D01*
X370119Y481473D01*
X370042Y481382D01*
X369967Y481289D01*
X369896Y481193D01*
X369828Y481095D01*
X369763Y480995D01*
X369701Y480893D01*
X369643Y480788D01*
X369588Y480683D01*
X369537Y480575D01*
X369489Y480465D01*
X369445Y480355D01*
X369405Y480242D01*
X369405Y480243D02*
X369255Y479926D01*
X369113Y479607D01*
X368979Y479284D01*
X368852Y478958D01*
X368734Y478628D01*
X368623Y478297D01*
X368520Y477962D01*
X368425Y477626D01*
X368339Y477287D01*
X368260Y476946D01*
X368189Y476603D01*
X368127Y476259D01*
X368073Y475914D01*
X368027Y475567D01*
X367990Y475219D01*
X367961Y474870D01*
X367940Y474521D01*
X367927Y474172D01*
X367923Y473822D01*
X377801Y473822D02*
X377797Y473472D01*
X377784Y473123D01*
X377763Y472774D01*
X377734Y472425D01*
X377697Y472077D01*
X377651Y471730D01*
X377597Y471385D01*
X377535Y471041D01*
X377464Y470698D01*
X377385Y470357D01*
X377299Y470018D01*
X377204Y469682D01*
X377101Y469347D01*
X376990Y469016D01*
X376872Y468687D01*
X376745Y468360D01*
X376611Y468037D01*
X376469Y467718D01*
X376319Y467402D01*
X376279Y467289D01*
X376235Y467179D01*
X376187Y467069D01*
X376136Y466962D01*
X376081Y466856D01*
X376023Y466751D01*
X375961Y466649D01*
X375896Y466549D01*
X375828Y466451D01*
X375757Y466355D01*
X375682Y466262D01*
X375605Y466171D01*
X375525Y466083D01*
X375442Y465998D01*
X375356Y465915D01*
X375267Y465835D01*
X375176Y465758D01*
X375082Y465684D01*
X374986Y465613D01*
X374888Y465545D01*
X374788Y465481D01*
X374685Y465419D01*
X374581Y465362D01*
X374475Y465307D01*
X374367Y465256D01*
X374257Y465209D01*
X374146Y465165D01*
X374034Y465125D01*
X373920Y465089D01*
X373806Y465056D01*
X373690Y465027D01*
X373573Y465002D01*
X373456Y464981D01*
X373338Y464963D01*
X373219Y464950D01*
X373100Y464940D01*
X372981Y464934D01*
X372862Y464932D01*
X369405Y467402D02*
X369255Y467718D01*
X369113Y468037D01*
X368979Y468360D01*
X368852Y468687D01*
X368734Y469016D01*
X368623Y469347D01*
X368520Y469682D01*
X368425Y470018D01*
X368339Y470357D01*
X368260Y470698D01*
X368189Y471041D01*
X368127Y471385D01*
X368073Y471730D01*
X368027Y472077D01*
X367990Y472425D01*
X367961Y472774D01*
X367940Y473123D01*
X367927Y473472D01*
X367923Y473822D01*
X369405Y467402D02*
X369445Y467289D01*
X369489Y467179D01*
X369537Y467069D01*
X369588Y466961D01*
X369643Y466855D01*
X369701Y466751D01*
X369763Y466649D01*
X369828Y466549D01*
X369896Y466451D01*
X369967Y466355D01*
X370042Y466262D01*
X370119Y466171D01*
X370199Y466083D01*
X370283Y465998D01*
X370368Y465915D01*
X370457Y465835D01*
X370548Y465758D01*
X370642Y465684D01*
X370738Y465613D01*
X370836Y465545D01*
X370936Y465481D01*
X371039Y465419D01*
X371143Y465361D01*
X371249Y465307D01*
X371357Y465256D01*
X371467Y465209D01*
X371578Y465165D01*
X371690Y465125D01*
X371804Y465089D01*
X371918Y465056D01*
X372034Y465027D01*
X372151Y465002D01*
X372268Y464981D01*
X372386Y464963D01*
X372505Y464950D01*
X372624Y464940D01*
X372743Y464934D01*
X372862Y464932D01*
X376813Y468883D02*
X368911Y478761D01*
X361050Y478761D02*
X356111Y482712D01*
X356111Y464932D01*
X351173Y464932D02*
X361050Y464932D01*
X343656Y464932D02*
X343656Y482712D01*
X338717Y482712D01*
X338577Y482710D01*
X338438Y482704D01*
X338298Y482694D01*
X338159Y482680D01*
X338020Y482663D01*
X337882Y482641D01*
X337745Y482615D01*
X337608Y482586D01*
X337472Y482553D01*
X337338Y482516D01*
X337204Y482475D01*
X337072Y482430D01*
X336940Y482381D01*
X336811Y482329D01*
X336683Y482274D01*
X336556Y482214D01*
X336431Y482151D01*
X336308Y482085D01*
X336187Y482015D01*
X336068Y481942D01*
X335951Y481865D01*
X335837Y481785D01*
X335724Y481702D01*
X335614Y481616D01*
X335507Y481526D01*
X335402Y481434D01*
X335300Y481339D01*
X335200Y481241D01*
X335103Y481140D01*
X335009Y481036D01*
X334919Y480930D01*
X334831Y480821D01*
X334746Y480710D01*
X334665Y480596D01*
X334586Y480481D01*
X334511Y480363D01*
X334440Y480243D01*
X334372Y480120D01*
X334307Y479997D01*
X334246Y479871D01*
X334188Y479743D01*
X334134Y479615D01*
X334084Y479484D01*
X334037Y479352D01*
X333994Y479219D01*
X333955Y479085D01*
X333920Y478950D01*
X333889Y478814D01*
X333861Y478676D01*
X333838Y478539D01*
X333818Y478400D01*
X333802Y478261D01*
X333790Y478122D01*
X333782Y477983D01*
X333778Y477843D01*
X333778Y477703D01*
X333782Y477563D01*
X333790Y477424D01*
X333802Y477285D01*
X333818Y477146D01*
X333838Y477007D01*
X333861Y476870D01*
X333889Y476732D01*
X333920Y476596D01*
X333955Y476461D01*
X333994Y476327D01*
X334037Y476194D01*
X334084Y476062D01*
X334134Y475931D01*
X334188Y475803D01*
X334246Y475675D01*
X334307Y475549D01*
X334372Y475426D01*
X334440Y475304D01*
X334511Y475183D01*
X334586Y475065D01*
X334665Y474950D01*
X334746Y474836D01*
X334831Y474725D01*
X334919Y474616D01*
X335009Y474510D01*
X335103Y474406D01*
X335200Y474305D01*
X335300Y474207D01*
X335402Y474112D01*
X335507Y474020D01*
X335614Y473930D01*
X335724Y473844D01*
X335837Y473761D01*
X335951Y473681D01*
X336068Y473604D01*
X336187Y473531D01*
X336308Y473461D01*
X336431Y473395D01*
X336556Y473332D01*
X336683Y473272D01*
X336811Y473217D01*
X336940Y473165D01*
X337072Y473116D01*
X337204Y473071D01*
X337338Y473030D01*
X337472Y472993D01*
X337608Y472960D01*
X337745Y472931D01*
X337882Y472905D01*
X338020Y472883D01*
X338159Y472866D01*
X338298Y472852D01*
X338438Y472842D01*
X338577Y472836D01*
X338717Y472834D01*
X343656Y472834D01*
X337729Y472834D02*
X333778Y464932D01*
X326991Y473822D02*
X326987Y474172D01*
X326974Y474521D01*
X326953Y474870D01*
X326924Y475219D01*
X326887Y475567D01*
X326841Y475914D01*
X326787Y476259D01*
X326725Y476603D01*
X326654Y476946D01*
X326575Y477287D01*
X326489Y477626D01*
X326394Y477962D01*
X326291Y478297D01*
X326180Y478628D01*
X326062Y478958D01*
X325935Y479284D01*
X325801Y479607D01*
X325659Y479926D01*
X325509Y480243D01*
X325509Y480242D02*
X325469Y480355D01*
X325425Y480465D01*
X325377Y480575D01*
X325326Y480682D01*
X325271Y480788D01*
X325213Y480893D01*
X325151Y480995D01*
X325086Y481095D01*
X325018Y481193D01*
X324947Y481289D01*
X324872Y481382D01*
X324795Y481473D01*
X324715Y481561D01*
X324632Y481646D01*
X324546Y481729D01*
X324457Y481809D01*
X324366Y481886D01*
X324272Y481960D01*
X324176Y482031D01*
X324078Y482099D01*
X323978Y482163D01*
X323875Y482225D01*
X323771Y482282D01*
X323665Y482337D01*
X323557Y482388D01*
X323447Y482435D01*
X323336Y482479D01*
X323224Y482519D01*
X323110Y482555D01*
X322996Y482588D01*
X322880Y482617D01*
X322763Y482642D01*
X322646Y482663D01*
X322528Y482681D01*
X322409Y482694D01*
X322290Y482704D01*
X322171Y482710D01*
X322052Y482712D01*
X321933Y482710D01*
X321814Y482704D01*
X321695Y482694D01*
X321576Y482681D01*
X321458Y482663D01*
X321341Y482642D01*
X321224Y482617D01*
X321108Y482588D01*
X320994Y482555D01*
X320880Y482519D01*
X320768Y482479D01*
X320657Y482435D01*
X320547Y482388D01*
X320439Y482337D01*
X320333Y482282D01*
X320229Y482225D01*
X320126Y482163D01*
X320026Y482099D01*
X319928Y482031D01*
X319832Y481960D01*
X319738Y481886D01*
X319647Y481809D01*
X319558Y481729D01*
X319473Y481646D01*
X319389Y481561D01*
X319309Y481473D01*
X319232Y481382D01*
X319157Y481289D01*
X319086Y481193D01*
X319018Y481095D01*
X318953Y480995D01*
X318891Y480893D01*
X318833Y480788D01*
X318778Y480683D01*
X318727Y480575D01*
X318679Y480465D01*
X318635Y480355D01*
X318595Y480242D01*
X318595Y480243D02*
X318445Y479926D01*
X318303Y479607D01*
X318169Y479284D01*
X318042Y478958D01*
X317924Y478628D01*
X317813Y478297D01*
X317710Y477962D01*
X317615Y477626D01*
X317529Y477287D01*
X317450Y476946D01*
X317379Y476603D01*
X317317Y476259D01*
X317263Y475914D01*
X317217Y475567D01*
X317180Y475219D01*
X317151Y474870D01*
X317130Y474521D01*
X317117Y474172D01*
X317113Y473822D01*
X326991Y473822D02*
X326987Y473472D01*
X326974Y473123D01*
X326953Y472774D01*
X326924Y472425D01*
X326887Y472077D01*
X326841Y471730D01*
X326787Y471385D01*
X326725Y471041D01*
X326654Y470698D01*
X326575Y470357D01*
X326489Y470018D01*
X326394Y469682D01*
X326291Y469347D01*
X326180Y469016D01*
X326062Y468687D01*
X325935Y468360D01*
X325801Y468037D01*
X325659Y467718D01*
X325509Y467402D01*
X325469Y467289D01*
X325425Y467179D01*
X325377Y467069D01*
X325326Y466962D01*
X325271Y466856D01*
X325213Y466751D01*
X325151Y466649D01*
X325086Y466549D01*
X325018Y466451D01*
X324947Y466355D01*
X324872Y466262D01*
X324795Y466171D01*
X324715Y466083D01*
X324632Y465998D01*
X324546Y465915D01*
X324457Y465835D01*
X324366Y465758D01*
X324272Y465684D01*
X324176Y465613D01*
X324078Y465545D01*
X323978Y465481D01*
X323875Y465419D01*
X323771Y465362D01*
X323665Y465307D01*
X323557Y465256D01*
X323447Y465209D01*
X323336Y465165D01*
X323224Y465125D01*
X323110Y465089D01*
X322996Y465056D01*
X322880Y465027D01*
X322763Y465002D01*
X322646Y464981D01*
X322528Y464963D01*
X322409Y464950D01*
X322290Y464940D01*
X322171Y464934D01*
X322052Y464932D01*
X318596Y467402D02*
X318446Y467718D01*
X318304Y468037D01*
X318170Y468360D01*
X318043Y468687D01*
X317925Y469016D01*
X317814Y469347D01*
X317711Y469682D01*
X317616Y470018D01*
X317530Y470357D01*
X317451Y470698D01*
X317380Y471041D01*
X317318Y471385D01*
X317264Y471730D01*
X317218Y472077D01*
X317181Y472425D01*
X317152Y472774D01*
X317131Y473123D01*
X317118Y473472D01*
X317114Y473822D01*
X318595Y467402D02*
X318635Y467289D01*
X318679Y467179D01*
X318727Y467069D01*
X318778Y466961D01*
X318833Y466855D01*
X318891Y466751D01*
X318953Y466649D01*
X319018Y466549D01*
X319086Y466451D01*
X319157Y466355D01*
X319232Y466262D01*
X319309Y466171D01*
X319389Y466083D01*
X319473Y465998D01*
X319558Y465915D01*
X319647Y465835D01*
X319738Y465758D01*
X319832Y465684D01*
X319928Y465613D01*
X320026Y465545D01*
X320126Y465481D01*
X320229Y465419D01*
X320333Y465361D01*
X320439Y465307D01*
X320547Y465256D01*
X320657Y465209D01*
X320768Y465165D01*
X320880Y465125D01*
X320994Y465089D01*
X321108Y465056D01*
X321224Y465027D01*
X321341Y465002D01*
X321458Y464981D01*
X321576Y464963D01*
X321695Y464950D01*
X321814Y464940D01*
X321933Y464934D01*
X322052Y464932D01*
X326003Y468883D02*
X318101Y478761D01*
X304808Y482712D02*
X304676Y482710D01*
X304545Y482704D01*
X304413Y482694D01*
X304282Y482681D01*
X304152Y482663D01*
X304022Y482642D01*
X303892Y482617D01*
X303764Y482588D01*
X303636Y482555D01*
X303510Y482518D01*
X303384Y482478D01*
X303260Y482434D01*
X303137Y482386D01*
X303016Y482335D01*
X302896Y482280D01*
X302778Y482222D01*
X302662Y482160D01*
X302548Y482094D01*
X302435Y482026D01*
X302325Y481954D01*
X302217Y481879D01*
X302111Y481800D01*
X302007Y481719D01*
X301906Y481634D01*
X301808Y481547D01*
X301712Y481456D01*
X301619Y481363D01*
X301528Y481267D01*
X301441Y481169D01*
X301356Y481068D01*
X301275Y480964D01*
X301196Y480858D01*
X301121Y480750D01*
X301049Y480640D01*
X300981Y480527D01*
X300915Y480413D01*
X300853Y480297D01*
X300795Y480179D01*
X300740Y480059D01*
X300689Y479938D01*
X300641Y479815D01*
X300597Y479691D01*
X300557Y479565D01*
X300520Y479439D01*
X300487Y479311D01*
X300458Y479183D01*
X300433Y479053D01*
X300412Y478923D01*
X300394Y478793D01*
X300381Y478662D01*
X300371Y478530D01*
X300365Y478399D01*
X300363Y478267D01*
X304808Y482712D02*
X304958Y482710D01*
X305107Y482704D01*
X305256Y482694D01*
X305405Y482681D01*
X305554Y482663D01*
X305702Y482642D01*
X305850Y482616D01*
X305996Y482587D01*
X306142Y482554D01*
X306287Y482517D01*
X306431Y482476D01*
X306574Y482432D01*
X306716Y482384D01*
X306856Y482332D01*
X306995Y482277D01*
X307133Y482218D01*
X307268Y482155D01*
X307403Y482089D01*
X307535Y482019D01*
X307665Y481946D01*
X307794Y481869D01*
X307921Y481789D01*
X308045Y481706D01*
X308167Y481620D01*
X308287Y481530D01*
X308404Y481437D01*
X308519Y481342D01*
X308632Y481243D01*
X308742Y481141D01*
X308849Y481037D01*
X308953Y480930D01*
X309055Y480820D01*
X309153Y480707D01*
X309249Y480592D01*
X309341Y480474D01*
X309431Y480354D01*
X309517Y480232D01*
X309600Y480108D01*
X309680Y479981D01*
X309756Y479853D01*
X309829Y479722D01*
X309899Y479589D01*
X309965Y479455D01*
X310027Y479319D01*
X310086Y479182D01*
X310142Y479043D01*
X310193Y478902D01*
X310241Y478761D01*
X301845Y474810D02*
X301749Y474903D01*
X301657Y474999D01*
X301567Y475098D01*
X301480Y475199D01*
X301396Y475302D01*
X301314Y475407D01*
X301236Y475515D01*
X301161Y475625D01*
X301088Y475737D01*
X301019Y475851D01*
X300953Y475967D01*
X300891Y476085D01*
X300832Y476204D01*
X300776Y476325D01*
X300723Y476448D01*
X300674Y476572D01*
X300629Y476697D01*
X300586Y476824D01*
X300548Y476951D01*
X300513Y477080D01*
X300482Y477209D01*
X300454Y477340D01*
X300430Y477471D01*
X300409Y477603D01*
X300393Y477735D01*
X300380Y477868D01*
X300370Y478001D01*
X300365Y478134D01*
X300363Y478267D01*
X301845Y474810D02*
X310241Y464932D01*
X300363Y464932D01*
X453264Y282937D02*
X453264Y265157D01*
X453264Y282937D02*
X448325Y282937D01*
X448185Y282935D01*
X448046Y282929D01*
X447906Y282919D01*
X447767Y282905D01*
X447628Y282888D01*
X447490Y282866D01*
X447353Y282840D01*
X447216Y282811D01*
X447080Y282778D01*
X446946Y282741D01*
X446812Y282700D01*
X446680Y282655D01*
X446548Y282606D01*
X446419Y282554D01*
X446291Y282499D01*
X446164Y282439D01*
X446039Y282376D01*
X445916Y282310D01*
X445795Y282240D01*
X445676Y282167D01*
X445559Y282090D01*
X445445Y282010D01*
X445332Y281927D01*
X445222Y281841D01*
X445115Y281751D01*
X445010Y281659D01*
X444908Y281564D01*
X444808Y281466D01*
X444711Y281365D01*
X444617Y281261D01*
X444527Y281155D01*
X444439Y281046D01*
X444354Y280935D01*
X444273Y280821D01*
X444194Y280706D01*
X444119Y280588D01*
X444048Y280468D01*
X443980Y280345D01*
X443915Y280222D01*
X443854Y280096D01*
X443796Y279968D01*
X443742Y279840D01*
X443692Y279709D01*
X443645Y279577D01*
X443602Y279444D01*
X443563Y279310D01*
X443528Y279175D01*
X443497Y279039D01*
X443469Y278901D01*
X443446Y278764D01*
X443426Y278625D01*
X443410Y278486D01*
X443398Y278347D01*
X443390Y278208D01*
X443386Y278068D01*
X443386Y277928D01*
X443390Y277788D01*
X443398Y277649D01*
X443410Y277510D01*
X443426Y277371D01*
X443446Y277232D01*
X443469Y277095D01*
X443497Y276957D01*
X443528Y276821D01*
X443563Y276686D01*
X443602Y276552D01*
X443645Y276419D01*
X443692Y276287D01*
X443742Y276156D01*
X443796Y276028D01*
X443854Y275900D01*
X443915Y275774D01*
X443980Y275651D01*
X444048Y275529D01*
X444119Y275408D01*
X444194Y275290D01*
X444273Y275175D01*
X444354Y275061D01*
X444439Y274950D01*
X444527Y274841D01*
X444617Y274735D01*
X444711Y274631D01*
X444808Y274530D01*
X444908Y274432D01*
X445010Y274337D01*
X445115Y274245D01*
X445222Y274155D01*
X445332Y274069D01*
X445445Y273986D01*
X445559Y273906D01*
X445676Y273829D01*
X445795Y273756D01*
X445916Y273686D01*
X446039Y273620D01*
X446164Y273557D01*
X446291Y273497D01*
X446419Y273442D01*
X446548Y273390D01*
X446680Y273341D01*
X446812Y273296D01*
X446946Y273255D01*
X447080Y273218D01*
X447216Y273185D01*
X447353Y273156D01*
X447490Y273130D01*
X447628Y273108D01*
X447767Y273091D01*
X447906Y273077D01*
X448046Y273067D01*
X448185Y273061D01*
X448325Y273059D01*
X453264Y273059D01*
X431836Y282937D02*
X431704Y282935D01*
X431573Y282929D01*
X431441Y282919D01*
X431310Y282906D01*
X431180Y282888D01*
X431050Y282867D01*
X430920Y282842D01*
X430792Y282813D01*
X430664Y282780D01*
X430538Y282743D01*
X430412Y282703D01*
X430288Y282659D01*
X430165Y282611D01*
X430044Y282560D01*
X429924Y282505D01*
X429806Y282447D01*
X429690Y282385D01*
X429576Y282319D01*
X429463Y282251D01*
X429353Y282179D01*
X429245Y282104D01*
X429139Y282025D01*
X429035Y281944D01*
X428934Y281859D01*
X428836Y281772D01*
X428740Y281681D01*
X428647Y281588D01*
X428556Y281492D01*
X428469Y281394D01*
X428384Y281293D01*
X428303Y281189D01*
X428224Y281083D01*
X428149Y280975D01*
X428077Y280865D01*
X428009Y280752D01*
X427943Y280638D01*
X427881Y280522D01*
X427823Y280404D01*
X427768Y280284D01*
X427717Y280163D01*
X427669Y280040D01*
X427625Y279916D01*
X427585Y279790D01*
X427548Y279664D01*
X427515Y279536D01*
X427486Y279408D01*
X427461Y279278D01*
X427440Y279148D01*
X427422Y279018D01*
X427409Y278887D01*
X427399Y278755D01*
X427393Y278624D01*
X427391Y278492D01*
X431836Y282937D02*
X431986Y282935D01*
X432135Y282929D01*
X432284Y282919D01*
X432433Y282906D01*
X432582Y282888D01*
X432730Y282867D01*
X432878Y282841D01*
X433024Y282812D01*
X433170Y282779D01*
X433315Y282742D01*
X433459Y282701D01*
X433602Y282657D01*
X433744Y282609D01*
X433884Y282557D01*
X434023Y282502D01*
X434161Y282443D01*
X434296Y282380D01*
X434431Y282314D01*
X434563Y282244D01*
X434693Y282171D01*
X434822Y282094D01*
X434949Y282014D01*
X435073Y281931D01*
X435195Y281845D01*
X435315Y281755D01*
X435432Y281662D01*
X435547Y281567D01*
X435660Y281468D01*
X435770Y281366D01*
X435877Y281262D01*
X435981Y281155D01*
X436083Y281045D01*
X436181Y280932D01*
X436277Y280817D01*
X436369Y280699D01*
X436459Y280579D01*
X436545Y280457D01*
X436628Y280333D01*
X436708Y280206D01*
X436784Y280078D01*
X436857Y279947D01*
X436927Y279814D01*
X436993Y279680D01*
X437055Y279544D01*
X437114Y279407D01*
X437170Y279268D01*
X437221Y279127D01*
X437269Y278986D01*
X428874Y275035D02*
X428778Y275128D01*
X428686Y275224D01*
X428596Y275323D01*
X428509Y275424D01*
X428425Y275527D01*
X428343Y275632D01*
X428265Y275740D01*
X428190Y275850D01*
X428117Y275962D01*
X428048Y276076D01*
X427982Y276192D01*
X427920Y276310D01*
X427861Y276429D01*
X427805Y276550D01*
X427752Y276673D01*
X427703Y276797D01*
X427658Y276922D01*
X427615Y277049D01*
X427577Y277176D01*
X427542Y277305D01*
X427511Y277434D01*
X427483Y277565D01*
X427459Y277696D01*
X427438Y277828D01*
X427422Y277960D01*
X427409Y278093D01*
X427399Y278226D01*
X427394Y278359D01*
X427392Y278492D01*
X428873Y275034D02*
X437269Y265157D01*
X427391Y265157D01*
X419738Y275067D02*
X419738Y280994D01*
X419738Y275067D02*
X416281Y270622D01*
X419738Y275067D02*
X423196Y270622D01*
X419738Y275067D02*
X414306Y277042D01*
X419738Y275067D02*
X425171Y277042D01*
D12*
X386687Y373590D02*
X386687Y374705D01*
X385572Y374705D01*
X385572Y373590D01*
X386687Y373590D01*
D13*
X420788Y337261D02*
X450248Y337261D01*
X420788Y337261D02*
X420788Y317601D01*
X450248Y317601D01*
X450248Y337261D01*
D14*
X453543Y320487D02*
X462941Y320487D01*
X462941Y323097D01*
X462939Y323198D01*
X462933Y323299D01*
X462923Y323400D01*
X462910Y323500D01*
X462892Y323600D01*
X462871Y323699D01*
X462845Y323797D01*
X462816Y323894D01*
X462784Y323990D01*
X462747Y324084D01*
X462707Y324177D01*
X462663Y324269D01*
X462616Y324358D01*
X462565Y324446D01*
X462511Y324532D01*
X462454Y324615D01*
X462394Y324697D01*
X462330Y324775D01*
X462264Y324852D01*
X462194Y324925D01*
X462122Y324996D01*
X462047Y325064D01*
X461969Y325129D01*
X461889Y325191D01*
X461807Y325250D01*
X461722Y325306D01*
X461636Y325358D01*
X461547Y325407D01*
X461456Y325453D01*
X461364Y325494D01*
X461270Y325533D01*
X461175Y325567D01*
X461079Y325598D01*
X460981Y325625D01*
X460883Y325649D01*
X460783Y325668D01*
X460683Y325684D01*
X460583Y325696D01*
X460482Y325704D01*
X460381Y325708D01*
X460279Y325708D01*
X460178Y325704D01*
X460077Y325696D01*
X459977Y325684D01*
X459877Y325668D01*
X459777Y325649D01*
X459679Y325625D01*
X459581Y325598D01*
X459485Y325567D01*
X459390Y325533D01*
X459296Y325494D01*
X459204Y325453D01*
X459113Y325407D01*
X459025Y325358D01*
X458938Y325306D01*
X458853Y325250D01*
X458771Y325191D01*
X458691Y325129D01*
X458613Y325064D01*
X458538Y324996D01*
X458466Y324925D01*
X458396Y324852D01*
X458330Y324775D01*
X458266Y324697D01*
X458206Y324615D01*
X458149Y324532D01*
X458095Y324446D01*
X458044Y324358D01*
X457997Y324269D01*
X457953Y324177D01*
X457913Y324084D01*
X457876Y323990D01*
X457844Y323894D01*
X457815Y323797D01*
X457789Y323699D01*
X457768Y323600D01*
X457750Y323500D01*
X457737Y323400D01*
X457727Y323299D01*
X457721Y323198D01*
X457719Y323097D01*
X457720Y323097D02*
X457720Y320487D01*
X457720Y323619D02*
X453543Y325708D01*
X460591Y334795D02*
X460686Y334793D01*
X460780Y334787D01*
X460874Y334778D01*
X460968Y334765D01*
X461061Y334748D01*
X461153Y334727D01*
X461245Y334702D01*
X461335Y334674D01*
X461424Y334642D01*
X461512Y334607D01*
X461598Y334568D01*
X461683Y334526D01*
X461766Y334480D01*
X461847Y334431D01*
X461926Y334379D01*
X462003Y334324D01*
X462077Y334265D01*
X462149Y334204D01*
X462219Y334140D01*
X462286Y334073D01*
X462350Y334003D01*
X462411Y333931D01*
X462470Y333857D01*
X462525Y333780D01*
X462577Y333701D01*
X462626Y333620D01*
X462672Y333537D01*
X462714Y333452D01*
X462753Y333366D01*
X462788Y333278D01*
X462820Y333189D01*
X462848Y333099D01*
X462873Y333007D01*
X462894Y332915D01*
X462911Y332822D01*
X462924Y332728D01*
X462933Y332634D01*
X462939Y332540D01*
X462941Y332445D01*
X462940Y332445D02*
X462938Y332337D01*
X462932Y332228D01*
X462922Y332120D01*
X462909Y332013D01*
X462891Y331906D01*
X462870Y331799D01*
X462845Y331694D01*
X462816Y331589D01*
X462784Y331486D01*
X462747Y331384D01*
X462707Y331283D01*
X462664Y331184D01*
X462617Y331086D01*
X462566Y330990D01*
X462512Y330896D01*
X462455Y330804D01*
X462394Y330714D01*
X462330Y330626D01*
X462264Y330541D01*
X462194Y330458D01*
X462121Y330378D01*
X462045Y330300D01*
X461967Y330225D01*
X461886Y330153D01*
X461802Y330084D01*
X461716Y330018D01*
X461628Y329955D01*
X461537Y329896D01*
X461445Y329839D01*
X461350Y329786D01*
X461254Y329737D01*
X461155Y329691D01*
X461056Y329648D01*
X460954Y329609D01*
X460852Y329574D01*
X458763Y334012D02*
X458832Y334081D01*
X458903Y334147D01*
X458976Y334211D01*
X459052Y334272D01*
X459131Y334330D01*
X459211Y334384D01*
X459294Y334436D01*
X459378Y334484D01*
X459464Y334530D01*
X459552Y334571D01*
X459642Y334610D01*
X459733Y334645D01*
X459825Y334676D01*
X459918Y334704D01*
X460012Y334728D01*
X460107Y334748D01*
X460203Y334765D01*
X460300Y334778D01*
X460397Y334787D01*
X460494Y334793D01*
X460591Y334795D01*
X458764Y334012D02*
X453543Y329574D01*
X453543Y334795D01*
D15*
X412409Y320810D02*
X412409Y356370D01*
X392089Y356370D01*
X392089Y320810D01*
X412409Y320810D01*
D14*
X402361Y318912D02*
X408626Y309514D01*
X402361Y309514D02*
X408626Y318912D01*
X398960Y316824D02*
X396349Y318912D01*
X396349Y309514D01*
X393739Y309514D02*
X398960Y309514D01*
D10*
X381318Y310039D02*
X376592Y310039D01*
X307658Y310039D02*
X307658Y314765D01*
X307658Y383699D02*
X312384Y383699D01*
X381318Y383699D02*
X381318Y378973D01*
X381318Y314765D02*
X381318Y310039D01*
X312384Y310039D02*
X307658Y310039D01*
X307658Y378973D02*
X307658Y383699D01*
X376592Y383699D02*
X381318Y383699D01*
D15*
X381465Y388144D02*
X381467Y388211D01*
X381473Y388277D01*
X381483Y388343D01*
X381496Y388408D01*
X381514Y388472D01*
X381535Y388535D01*
X381560Y388597D01*
X381589Y388657D01*
X381621Y388715D01*
X381657Y388771D01*
X381695Y388825D01*
X381737Y388877D01*
X381782Y388926D01*
X381830Y388973D01*
X381880Y389016D01*
X381933Y389056D01*
X381989Y389094D01*
X382046Y389127D01*
X382105Y389158D01*
X382166Y389185D01*
X382228Y389208D01*
X382292Y389227D01*
X382357Y389243D01*
X382422Y389255D01*
X382488Y389263D01*
X382555Y389267D01*
X382621Y389267D01*
X382688Y389263D01*
X382754Y389255D01*
X382819Y389243D01*
X382884Y389227D01*
X382948Y389208D01*
X383010Y389185D01*
X383071Y389158D01*
X383130Y389127D01*
X383187Y389094D01*
X383243Y389056D01*
X383296Y389016D01*
X383346Y388973D01*
X383394Y388926D01*
X383439Y388877D01*
X383481Y388825D01*
X383519Y388771D01*
X383555Y388715D01*
X383587Y388657D01*
X383616Y388597D01*
X383641Y388535D01*
X383662Y388472D01*
X383680Y388408D01*
X383693Y388343D01*
X383703Y388277D01*
X383709Y388211D01*
X383711Y388144D01*
X383709Y388077D01*
X383703Y388011D01*
X383693Y387945D01*
X383680Y387880D01*
X383662Y387816D01*
X383641Y387753D01*
X383616Y387691D01*
X383587Y387631D01*
X383555Y387573D01*
X383519Y387517D01*
X383481Y387463D01*
X383439Y387411D01*
X383394Y387362D01*
X383346Y387315D01*
X383296Y387272D01*
X383243Y387232D01*
X383187Y387194D01*
X383130Y387161D01*
X383071Y387130D01*
X383010Y387103D01*
X382948Y387080D01*
X382884Y387061D01*
X382819Y387045D01*
X382754Y387033D01*
X382688Y387025D01*
X382621Y387021D01*
X382555Y387021D01*
X382488Y387025D01*
X382422Y387033D01*
X382357Y387045D01*
X382292Y387061D01*
X382228Y387080D01*
X382166Y387103D01*
X382105Y387130D01*
X382046Y387161D01*
X381989Y387194D01*
X381933Y387232D01*
X381880Y387272D01*
X381830Y387315D01*
X381782Y387362D01*
X381737Y387411D01*
X381695Y387463D01*
X381657Y387517D01*
X381621Y387573D01*
X381589Y387631D01*
X381560Y387691D01*
X381535Y387753D01*
X381514Y387816D01*
X381496Y387880D01*
X381483Y387945D01*
X381473Y388011D01*
X381467Y388077D01*
X381465Y388144D01*
D13*
X304313Y398141D02*
X274853Y398141D01*
X274853Y378481D01*
X304313Y378481D01*
X304313Y398141D01*
D14*
X298460Y399797D02*
X298460Y409195D01*
X295850Y409195D01*
X295749Y409193D01*
X295648Y409187D01*
X295547Y409177D01*
X295447Y409164D01*
X295347Y409146D01*
X295248Y409125D01*
X295150Y409099D01*
X295053Y409070D01*
X294957Y409038D01*
X294863Y409001D01*
X294770Y408961D01*
X294678Y408917D01*
X294589Y408870D01*
X294501Y408819D01*
X294415Y408765D01*
X294332Y408708D01*
X294250Y408648D01*
X294172Y408584D01*
X294095Y408518D01*
X294022Y408448D01*
X293951Y408376D01*
X293883Y408301D01*
X293818Y408223D01*
X293756Y408143D01*
X293697Y408061D01*
X293641Y407976D01*
X293589Y407890D01*
X293540Y407801D01*
X293494Y407710D01*
X293453Y407618D01*
X293414Y407524D01*
X293380Y407429D01*
X293349Y407333D01*
X293322Y407235D01*
X293298Y407137D01*
X293279Y407037D01*
X293263Y406937D01*
X293251Y406837D01*
X293243Y406736D01*
X293239Y406635D01*
X293239Y406533D01*
X293243Y406432D01*
X293251Y406331D01*
X293263Y406231D01*
X293279Y406131D01*
X293298Y406031D01*
X293322Y405933D01*
X293349Y405835D01*
X293380Y405739D01*
X293414Y405644D01*
X293453Y405550D01*
X293494Y405458D01*
X293540Y405367D01*
X293589Y405279D01*
X293641Y405192D01*
X293697Y405107D01*
X293756Y405025D01*
X293818Y404945D01*
X293883Y404867D01*
X293951Y404792D01*
X294022Y404720D01*
X294095Y404650D01*
X294172Y404584D01*
X294250Y404520D01*
X294332Y404460D01*
X294415Y404403D01*
X294501Y404349D01*
X294589Y404298D01*
X294678Y404251D01*
X294770Y404207D01*
X294863Y404167D01*
X294957Y404130D01*
X295053Y404098D01*
X295150Y404069D01*
X295248Y404043D01*
X295347Y404022D01*
X295447Y404004D01*
X295547Y403991D01*
X295648Y403981D01*
X295749Y403975D01*
X295850Y403973D01*
X295850Y403974D02*
X298460Y403974D01*
X295328Y403974D02*
X293239Y399797D01*
X289373Y399797D02*
X286763Y399797D01*
X286763Y399796D02*
X286662Y399798D01*
X286561Y399804D01*
X286460Y399814D01*
X286360Y399827D01*
X286260Y399845D01*
X286161Y399866D01*
X286063Y399892D01*
X285966Y399921D01*
X285870Y399953D01*
X285776Y399990D01*
X285683Y400030D01*
X285591Y400074D01*
X285502Y400121D01*
X285414Y400172D01*
X285328Y400226D01*
X285245Y400283D01*
X285163Y400343D01*
X285085Y400407D01*
X285008Y400473D01*
X284935Y400543D01*
X284864Y400615D01*
X284796Y400690D01*
X284731Y400768D01*
X284669Y400848D01*
X284610Y400930D01*
X284554Y401015D01*
X284502Y401102D01*
X284453Y401190D01*
X284407Y401281D01*
X284366Y401373D01*
X284327Y401467D01*
X284293Y401562D01*
X284262Y401658D01*
X284235Y401756D01*
X284211Y401854D01*
X284192Y401954D01*
X284176Y402054D01*
X284164Y402154D01*
X284156Y402255D01*
X284152Y402356D01*
X284152Y402458D01*
X284156Y402559D01*
X284164Y402660D01*
X284176Y402760D01*
X284192Y402860D01*
X284211Y402960D01*
X284235Y403058D01*
X284262Y403156D01*
X284293Y403252D01*
X284327Y403347D01*
X284366Y403441D01*
X284407Y403533D01*
X284453Y403624D01*
X284502Y403713D01*
X284554Y403799D01*
X284610Y403884D01*
X284669Y403966D01*
X284731Y404046D01*
X284796Y404124D01*
X284864Y404199D01*
X284935Y404271D01*
X285008Y404341D01*
X285085Y404407D01*
X285163Y404471D01*
X285245Y404531D01*
X285328Y404588D01*
X285414Y404642D01*
X285502Y404693D01*
X285591Y404740D01*
X285683Y404784D01*
X285776Y404824D01*
X285870Y404861D01*
X285966Y404893D01*
X286063Y404922D01*
X286161Y404948D01*
X286260Y404969D01*
X286360Y404987D01*
X286460Y405000D01*
X286561Y405010D01*
X286662Y405016D01*
X286763Y405018D01*
X286241Y409195D02*
X289373Y409195D01*
X286241Y409194D02*
X286151Y409192D01*
X286062Y409186D01*
X285972Y409177D01*
X285883Y409163D01*
X285795Y409146D01*
X285708Y409125D01*
X285621Y409100D01*
X285536Y409071D01*
X285452Y409039D01*
X285370Y409004D01*
X285289Y408964D01*
X285210Y408922D01*
X285133Y408876D01*
X285058Y408826D01*
X284985Y408774D01*
X284914Y408718D01*
X284846Y408660D01*
X284781Y408598D01*
X284718Y408534D01*
X284658Y408467D01*
X284601Y408398D01*
X284547Y408326D01*
X284496Y408252D01*
X284448Y408176D01*
X284404Y408098D01*
X284363Y408018D01*
X284325Y407936D01*
X284291Y407853D01*
X284261Y407768D01*
X284234Y407682D01*
X284211Y407596D01*
X284192Y407508D01*
X284177Y407419D01*
X284165Y407330D01*
X284157Y407241D01*
X284153Y407151D01*
X284153Y407061D01*
X284157Y406971D01*
X284165Y406882D01*
X284177Y406793D01*
X284192Y406704D01*
X284211Y406616D01*
X284234Y406530D01*
X284261Y406444D01*
X284291Y406359D01*
X284325Y406276D01*
X284363Y406194D01*
X284404Y406114D01*
X284448Y406036D01*
X284496Y405960D01*
X284547Y405886D01*
X284601Y405814D01*
X284658Y405745D01*
X284718Y405678D01*
X284781Y405614D01*
X284846Y405552D01*
X284914Y405494D01*
X284985Y405438D01*
X285058Y405386D01*
X285133Y405336D01*
X285210Y405290D01*
X285289Y405248D01*
X285370Y405208D01*
X285452Y405173D01*
X285536Y405141D01*
X285621Y405112D01*
X285708Y405087D01*
X285795Y405066D01*
X285883Y405049D01*
X285972Y405035D01*
X286062Y405026D01*
X286151Y405020D01*
X286241Y405018D01*
X288329Y405018D01*
D13*
X391944Y288585D02*
X421404Y288585D01*
X421404Y308245D01*
X391944Y308245D01*
X391944Y288585D01*
D14*
X381678Y292838D02*
X381678Y294926D01*
X381678Y292838D02*
X381680Y292749D01*
X381686Y292661D01*
X381695Y292573D01*
X381708Y292485D01*
X381725Y292398D01*
X381745Y292312D01*
X381770Y292227D01*
X381797Y292142D01*
X381829Y292059D01*
X381863Y291978D01*
X381902Y291898D01*
X381943Y291820D01*
X381988Y291743D01*
X382036Y291669D01*
X382087Y291596D01*
X382141Y291526D01*
X382199Y291459D01*
X382259Y291393D01*
X382321Y291331D01*
X382387Y291271D01*
X382454Y291213D01*
X382524Y291159D01*
X382597Y291108D01*
X382671Y291060D01*
X382748Y291015D01*
X382826Y290974D01*
X382906Y290935D01*
X382987Y290901D01*
X383070Y290869D01*
X383155Y290842D01*
X383240Y290817D01*
X383326Y290797D01*
X383413Y290780D01*
X383501Y290767D01*
X383589Y290758D01*
X383677Y290752D01*
X383766Y290750D01*
X383766Y290749D02*
X388988Y290749D01*
X388988Y290750D02*
X389079Y290752D01*
X389170Y290758D01*
X389261Y290768D01*
X389351Y290782D01*
X389440Y290799D01*
X389528Y290821D01*
X389616Y290847D01*
X389702Y290876D01*
X389787Y290909D01*
X389870Y290946D01*
X389952Y290986D01*
X390032Y291030D01*
X390110Y291077D01*
X390186Y291128D01*
X390259Y291181D01*
X390330Y291238D01*
X390399Y291299D01*
X390464Y291362D01*
X390527Y291427D01*
X390587Y291496D01*
X390645Y291567D01*
X390698Y291640D01*
X390749Y291716D01*
X390796Y291794D01*
X390840Y291874D01*
X390880Y291956D01*
X390917Y292039D01*
X390950Y292124D01*
X390979Y292210D01*
X391005Y292298D01*
X391027Y292386D01*
X391044Y292475D01*
X391058Y292565D01*
X391068Y292656D01*
X391074Y292747D01*
X391076Y292838D01*
X391076Y294926D01*
X386899Y298395D02*
X386899Y301528D01*
X386897Y301617D01*
X386891Y301705D01*
X386882Y301793D01*
X386869Y301881D01*
X386852Y301968D01*
X386832Y302054D01*
X386807Y302139D01*
X386780Y302224D01*
X386748Y302307D01*
X386714Y302388D01*
X386675Y302468D01*
X386634Y302546D01*
X386589Y302623D01*
X386541Y302697D01*
X386490Y302770D01*
X386436Y302840D01*
X386378Y302907D01*
X386318Y302973D01*
X386256Y303035D01*
X386190Y303095D01*
X386123Y303153D01*
X386053Y303207D01*
X385980Y303258D01*
X385906Y303306D01*
X385829Y303351D01*
X385751Y303392D01*
X385671Y303431D01*
X385590Y303465D01*
X385507Y303497D01*
X385422Y303524D01*
X385337Y303549D01*
X385251Y303569D01*
X385164Y303586D01*
X385076Y303599D01*
X384988Y303608D01*
X384900Y303614D01*
X384811Y303616D01*
X384289Y303616D01*
X384188Y303614D01*
X384087Y303608D01*
X383986Y303598D01*
X383886Y303585D01*
X383786Y303567D01*
X383687Y303546D01*
X383589Y303520D01*
X383492Y303491D01*
X383396Y303459D01*
X383302Y303422D01*
X383209Y303382D01*
X383117Y303338D01*
X383028Y303291D01*
X382940Y303240D01*
X382854Y303186D01*
X382771Y303129D01*
X382689Y303069D01*
X382611Y303005D01*
X382534Y302939D01*
X382461Y302869D01*
X382390Y302797D01*
X382322Y302722D01*
X382257Y302644D01*
X382195Y302564D01*
X382136Y302482D01*
X382080Y302397D01*
X382028Y302311D01*
X381979Y302222D01*
X381933Y302131D01*
X381892Y302039D01*
X381853Y301945D01*
X381819Y301850D01*
X381788Y301754D01*
X381761Y301656D01*
X381737Y301558D01*
X381718Y301458D01*
X381702Y301358D01*
X381690Y301258D01*
X381682Y301157D01*
X381678Y301056D01*
X381678Y300954D01*
X381682Y300853D01*
X381690Y300752D01*
X381702Y300652D01*
X381718Y300552D01*
X381737Y300452D01*
X381761Y300354D01*
X381788Y300256D01*
X381819Y300160D01*
X381853Y300065D01*
X381892Y299971D01*
X381933Y299879D01*
X381979Y299788D01*
X382028Y299700D01*
X382080Y299613D01*
X382136Y299528D01*
X382195Y299446D01*
X382257Y299366D01*
X382322Y299288D01*
X382390Y299213D01*
X382461Y299141D01*
X382534Y299071D01*
X382611Y299005D01*
X382689Y298941D01*
X382771Y298881D01*
X382854Y298824D01*
X382940Y298770D01*
X383028Y298719D01*
X383117Y298672D01*
X383209Y298628D01*
X383302Y298588D01*
X383396Y298551D01*
X383492Y298519D01*
X383589Y298490D01*
X383687Y298464D01*
X383786Y298443D01*
X383886Y298425D01*
X383986Y298412D01*
X384087Y298402D01*
X384188Y298396D01*
X384289Y298394D01*
X384289Y298395D02*
X386899Y298395D01*
X387028Y298397D01*
X387156Y298403D01*
X387284Y298413D01*
X387412Y298427D01*
X387540Y298444D01*
X387667Y298466D01*
X387793Y298492D01*
X387918Y298521D01*
X388042Y298554D01*
X388165Y298592D01*
X388287Y298632D01*
X388408Y298677D01*
X388527Y298725D01*
X388645Y298777D01*
X388761Y298833D01*
X388875Y298892D01*
X388987Y298955D01*
X389098Y299021D01*
X389206Y299090D01*
X389312Y299163D01*
X389416Y299239D01*
X389518Y299318D01*
X389617Y299400D01*
X389713Y299485D01*
X389807Y299573D01*
X389898Y299664D01*
X389986Y299758D01*
X390071Y299854D01*
X390153Y299953D01*
X390232Y300055D01*
X390308Y300159D01*
X390381Y300265D01*
X390450Y300373D01*
X390516Y300483D01*
X390579Y300596D01*
X390638Y300710D01*
X390694Y300826D01*
X390746Y300944D01*
X390794Y301063D01*
X390839Y301184D01*
X390879Y301306D01*
X390917Y301429D01*
X390950Y301553D01*
X390979Y301678D01*
X391005Y301804D01*
X391027Y301931D01*
X391044Y302059D01*
X391058Y302187D01*
X391068Y302315D01*
X391074Y302443D01*
X391076Y302572D01*
D13*
X409412Y360128D02*
X409412Y389588D01*
X409412Y360128D02*
X429072Y360128D01*
X429072Y389588D01*
X409412Y389588D01*
D14*
X420648Y391304D02*
X422737Y391304D01*
X422826Y391306D01*
X422914Y391312D01*
X423002Y391321D01*
X423090Y391334D01*
X423177Y391351D01*
X423263Y391371D01*
X423348Y391396D01*
X423433Y391423D01*
X423516Y391455D01*
X423597Y391489D01*
X423677Y391528D01*
X423755Y391569D01*
X423832Y391614D01*
X423906Y391662D01*
X423979Y391713D01*
X424049Y391767D01*
X424116Y391825D01*
X424182Y391885D01*
X424244Y391947D01*
X424304Y392013D01*
X424362Y392080D01*
X424416Y392150D01*
X424467Y392223D01*
X424515Y392297D01*
X424560Y392374D01*
X424601Y392452D01*
X424640Y392532D01*
X424674Y392613D01*
X424706Y392696D01*
X424733Y392781D01*
X424758Y392866D01*
X424778Y392952D01*
X424795Y393039D01*
X424808Y393127D01*
X424817Y393215D01*
X424823Y393303D01*
X424825Y393392D01*
X424825Y398614D01*
X424823Y398703D01*
X424817Y398791D01*
X424808Y398879D01*
X424795Y398967D01*
X424778Y399054D01*
X424758Y399140D01*
X424733Y399225D01*
X424706Y399310D01*
X424674Y399393D01*
X424640Y399474D01*
X424601Y399554D01*
X424560Y399632D01*
X424515Y399709D01*
X424467Y399783D01*
X424416Y399856D01*
X424362Y399926D01*
X424304Y399993D01*
X424244Y400059D01*
X424182Y400121D01*
X424116Y400181D01*
X424049Y400239D01*
X423979Y400293D01*
X423906Y400344D01*
X423832Y400392D01*
X423755Y400437D01*
X423677Y400478D01*
X423597Y400517D01*
X423516Y400551D01*
X423433Y400583D01*
X423348Y400610D01*
X423263Y400635D01*
X423177Y400655D01*
X423090Y400672D01*
X423002Y400685D01*
X422914Y400694D01*
X422826Y400700D01*
X422737Y400702D01*
X420648Y400702D01*
X417180Y398614D02*
X414569Y400702D01*
X414569Y391304D01*
X417180Y391304D02*
X411958Y391304D01*
D13*
X388566Y389585D02*
X388566Y360125D01*
X408226Y360125D01*
X408226Y389585D01*
X388566Y389585D01*
D14*
X402797Y391387D02*
X404885Y391387D01*
X404974Y391389D01*
X405062Y391395D01*
X405150Y391404D01*
X405238Y391417D01*
X405325Y391434D01*
X405411Y391454D01*
X405496Y391479D01*
X405581Y391506D01*
X405664Y391538D01*
X405745Y391572D01*
X405825Y391611D01*
X405903Y391652D01*
X405980Y391697D01*
X406054Y391745D01*
X406127Y391796D01*
X406197Y391850D01*
X406264Y391908D01*
X406330Y391968D01*
X406392Y392030D01*
X406452Y392096D01*
X406510Y392163D01*
X406564Y392233D01*
X406615Y392306D01*
X406663Y392380D01*
X406708Y392457D01*
X406749Y392535D01*
X406788Y392615D01*
X406822Y392696D01*
X406854Y392779D01*
X406881Y392864D01*
X406906Y392949D01*
X406926Y393035D01*
X406943Y393122D01*
X406956Y393210D01*
X406965Y393298D01*
X406971Y393386D01*
X406973Y393475D01*
X406973Y398696D01*
X406971Y398785D01*
X406965Y398873D01*
X406956Y398961D01*
X406943Y399049D01*
X406926Y399136D01*
X406906Y399222D01*
X406881Y399307D01*
X406854Y399392D01*
X406822Y399475D01*
X406788Y399556D01*
X406749Y399636D01*
X406708Y399714D01*
X406663Y399791D01*
X406615Y399865D01*
X406564Y399938D01*
X406510Y400008D01*
X406452Y400075D01*
X406392Y400141D01*
X406330Y400203D01*
X406264Y400263D01*
X406197Y400321D01*
X406127Y400375D01*
X406054Y400426D01*
X405980Y400474D01*
X405903Y400519D01*
X405825Y400560D01*
X405745Y400599D01*
X405664Y400633D01*
X405581Y400665D01*
X405496Y400692D01*
X405411Y400717D01*
X405325Y400737D01*
X405238Y400754D01*
X405150Y400767D01*
X405062Y400776D01*
X404974Y400782D01*
X404885Y400784D01*
X404885Y400785D02*
X402797Y400785D01*
X399328Y391387D02*
X396717Y391387D01*
X396717Y391386D02*
X396616Y391388D01*
X396515Y391394D01*
X396414Y391404D01*
X396314Y391417D01*
X396214Y391435D01*
X396115Y391456D01*
X396017Y391482D01*
X395920Y391511D01*
X395824Y391543D01*
X395730Y391580D01*
X395637Y391620D01*
X395545Y391664D01*
X395456Y391711D01*
X395368Y391762D01*
X395282Y391816D01*
X395199Y391873D01*
X395117Y391933D01*
X395039Y391997D01*
X394962Y392063D01*
X394889Y392133D01*
X394818Y392205D01*
X394750Y392280D01*
X394685Y392358D01*
X394623Y392438D01*
X394564Y392520D01*
X394508Y392605D01*
X394456Y392692D01*
X394407Y392780D01*
X394361Y392871D01*
X394320Y392963D01*
X394281Y393057D01*
X394247Y393152D01*
X394216Y393248D01*
X394189Y393346D01*
X394165Y393444D01*
X394146Y393544D01*
X394130Y393644D01*
X394118Y393744D01*
X394110Y393845D01*
X394106Y393946D01*
X394106Y394048D01*
X394110Y394149D01*
X394118Y394250D01*
X394130Y394350D01*
X394146Y394450D01*
X394165Y394550D01*
X394189Y394648D01*
X394216Y394746D01*
X394247Y394842D01*
X394281Y394937D01*
X394320Y395031D01*
X394361Y395123D01*
X394407Y395214D01*
X394456Y395303D01*
X394508Y395389D01*
X394564Y395474D01*
X394623Y395556D01*
X394685Y395636D01*
X394750Y395714D01*
X394818Y395789D01*
X394889Y395861D01*
X394962Y395931D01*
X395039Y395997D01*
X395117Y396061D01*
X395199Y396121D01*
X395282Y396178D01*
X395368Y396232D01*
X395456Y396283D01*
X395545Y396330D01*
X395637Y396374D01*
X395730Y396414D01*
X395824Y396451D01*
X395920Y396483D01*
X396017Y396512D01*
X396115Y396538D01*
X396214Y396559D01*
X396314Y396577D01*
X396414Y396590D01*
X396515Y396600D01*
X396616Y396606D01*
X396717Y396608D01*
X396195Y400785D02*
X399328Y400785D01*
X396195Y400784D02*
X396105Y400782D01*
X396016Y400776D01*
X395926Y400767D01*
X395837Y400753D01*
X395749Y400736D01*
X395662Y400715D01*
X395575Y400690D01*
X395490Y400661D01*
X395406Y400629D01*
X395324Y400594D01*
X395243Y400554D01*
X395164Y400512D01*
X395087Y400466D01*
X395012Y400416D01*
X394939Y400364D01*
X394868Y400308D01*
X394800Y400250D01*
X394735Y400188D01*
X394672Y400124D01*
X394612Y400057D01*
X394555Y399988D01*
X394501Y399916D01*
X394450Y399842D01*
X394402Y399766D01*
X394358Y399688D01*
X394317Y399608D01*
X394279Y399526D01*
X394245Y399443D01*
X394215Y399358D01*
X394188Y399272D01*
X394165Y399186D01*
X394146Y399098D01*
X394131Y399009D01*
X394119Y398920D01*
X394111Y398831D01*
X394107Y398741D01*
X394107Y398651D01*
X394111Y398561D01*
X394119Y398472D01*
X394131Y398383D01*
X394146Y398294D01*
X394165Y398206D01*
X394188Y398120D01*
X394215Y398034D01*
X394245Y397949D01*
X394279Y397866D01*
X394317Y397784D01*
X394358Y397704D01*
X394402Y397626D01*
X394450Y397550D01*
X394501Y397476D01*
X394555Y397404D01*
X394612Y397335D01*
X394672Y397268D01*
X394735Y397204D01*
X394800Y397142D01*
X394868Y397084D01*
X394939Y397028D01*
X395012Y396976D01*
X395087Y396926D01*
X395164Y396880D01*
X395243Y396838D01*
X395324Y396798D01*
X395406Y396763D01*
X395490Y396731D01*
X395575Y396702D01*
X395662Y396677D01*
X395749Y396656D01*
X395837Y396639D01*
X395926Y396625D01*
X396016Y396616D01*
X396105Y396610D01*
X396195Y396608D01*
X398284Y396608D01*
D13*
X293730Y337674D02*
X264270Y337674D01*
X293730Y337674D02*
X293730Y357334D01*
X264270Y357334D01*
X264270Y337674D01*
D14*
X283802Y359264D02*
X285890Y359264D01*
X285979Y359266D01*
X286067Y359272D01*
X286155Y359281D01*
X286243Y359294D01*
X286330Y359311D01*
X286416Y359331D01*
X286501Y359356D01*
X286586Y359383D01*
X286669Y359415D01*
X286750Y359449D01*
X286830Y359488D01*
X286908Y359529D01*
X286985Y359574D01*
X287059Y359622D01*
X287132Y359673D01*
X287202Y359727D01*
X287269Y359785D01*
X287335Y359845D01*
X287397Y359907D01*
X287457Y359973D01*
X287515Y360040D01*
X287569Y360110D01*
X287620Y360183D01*
X287668Y360257D01*
X287713Y360334D01*
X287754Y360412D01*
X287793Y360492D01*
X287827Y360573D01*
X287859Y360656D01*
X287886Y360741D01*
X287911Y360826D01*
X287931Y360912D01*
X287948Y360999D01*
X287961Y361087D01*
X287970Y361175D01*
X287976Y361263D01*
X287978Y361352D01*
X287979Y361352D02*
X287979Y366573D01*
X287978Y366573D02*
X287976Y366662D01*
X287970Y366750D01*
X287961Y366838D01*
X287948Y366926D01*
X287931Y367013D01*
X287911Y367099D01*
X287886Y367184D01*
X287859Y367269D01*
X287827Y367352D01*
X287793Y367433D01*
X287754Y367513D01*
X287713Y367591D01*
X287668Y367668D01*
X287620Y367742D01*
X287569Y367815D01*
X287515Y367885D01*
X287457Y367952D01*
X287397Y368018D01*
X287335Y368080D01*
X287269Y368140D01*
X287202Y368198D01*
X287132Y368252D01*
X287059Y368303D01*
X286985Y368351D01*
X286908Y368396D01*
X286830Y368437D01*
X286750Y368476D01*
X286669Y368510D01*
X286586Y368542D01*
X286501Y368569D01*
X286416Y368594D01*
X286330Y368614D01*
X286243Y368631D01*
X286155Y368644D01*
X286067Y368653D01*
X285979Y368659D01*
X285890Y368661D01*
X285890Y368662D02*
X283802Y368662D01*
X280333Y359264D02*
X277201Y359264D01*
X277112Y359266D01*
X277024Y359272D01*
X276936Y359281D01*
X276848Y359294D01*
X276761Y359311D01*
X276675Y359331D01*
X276590Y359356D01*
X276505Y359383D01*
X276422Y359415D01*
X276341Y359449D01*
X276261Y359488D01*
X276183Y359529D01*
X276106Y359574D01*
X276032Y359622D01*
X275959Y359673D01*
X275889Y359727D01*
X275822Y359785D01*
X275756Y359845D01*
X275694Y359907D01*
X275634Y359973D01*
X275576Y360040D01*
X275522Y360110D01*
X275471Y360183D01*
X275423Y360257D01*
X275378Y360334D01*
X275337Y360412D01*
X275298Y360492D01*
X275264Y360573D01*
X275232Y360656D01*
X275205Y360741D01*
X275180Y360826D01*
X275160Y360912D01*
X275143Y360999D01*
X275130Y361087D01*
X275121Y361175D01*
X275115Y361263D01*
X275113Y361352D01*
X275112Y361352D02*
X275112Y362396D01*
X275113Y362396D02*
X275115Y362485D01*
X275121Y362573D01*
X275130Y362661D01*
X275143Y362749D01*
X275160Y362836D01*
X275180Y362922D01*
X275205Y363007D01*
X275232Y363092D01*
X275264Y363175D01*
X275298Y363256D01*
X275337Y363336D01*
X275378Y363414D01*
X275423Y363491D01*
X275471Y363565D01*
X275522Y363638D01*
X275576Y363708D01*
X275634Y363775D01*
X275694Y363841D01*
X275756Y363903D01*
X275822Y363963D01*
X275889Y364021D01*
X275959Y364075D01*
X276032Y364126D01*
X276106Y364174D01*
X276183Y364219D01*
X276261Y364260D01*
X276341Y364299D01*
X276422Y364333D01*
X276505Y364365D01*
X276590Y364392D01*
X276675Y364417D01*
X276761Y364437D01*
X276848Y364454D01*
X276936Y364467D01*
X277024Y364476D01*
X277112Y364482D01*
X277201Y364484D01*
X277201Y364485D02*
X280333Y364485D01*
X280333Y368662D01*
X275112Y368662D01*
D13*
X416562Y357195D02*
X456022Y357195D01*
X456022Y337535D02*
X416562Y337535D01*
X456022Y337535D02*
X456022Y357195D01*
X416562Y357195D02*
X416562Y337535D01*
D10*
X459622Y337192D02*
X459622Y357322D01*
D14*
X463385Y346166D02*
X463385Y344078D01*
X463387Y343989D01*
X463393Y343901D01*
X463402Y343813D01*
X463415Y343725D01*
X463432Y343638D01*
X463452Y343552D01*
X463477Y343467D01*
X463504Y343382D01*
X463536Y343299D01*
X463570Y343218D01*
X463609Y343138D01*
X463650Y343060D01*
X463695Y342983D01*
X463743Y342909D01*
X463794Y342836D01*
X463848Y342766D01*
X463906Y342699D01*
X463966Y342633D01*
X464028Y342571D01*
X464094Y342511D01*
X464161Y342453D01*
X464231Y342399D01*
X464304Y342348D01*
X464378Y342300D01*
X464455Y342255D01*
X464533Y342214D01*
X464613Y342175D01*
X464694Y342141D01*
X464777Y342109D01*
X464862Y342082D01*
X464947Y342057D01*
X465033Y342037D01*
X465120Y342020D01*
X465208Y342007D01*
X465296Y341998D01*
X465384Y341992D01*
X465473Y341990D01*
X465473Y341989D02*
X470695Y341989D01*
X470695Y341990D02*
X470786Y341992D01*
X470877Y341998D01*
X470968Y342008D01*
X471058Y342022D01*
X471147Y342039D01*
X471235Y342061D01*
X471323Y342087D01*
X471409Y342116D01*
X471494Y342149D01*
X471577Y342186D01*
X471659Y342226D01*
X471739Y342270D01*
X471817Y342317D01*
X471893Y342368D01*
X471966Y342421D01*
X472037Y342478D01*
X472106Y342539D01*
X472171Y342602D01*
X472234Y342667D01*
X472294Y342736D01*
X472352Y342807D01*
X472405Y342880D01*
X472456Y342956D01*
X472503Y343034D01*
X472547Y343114D01*
X472587Y343196D01*
X472624Y343279D01*
X472657Y343364D01*
X472686Y343450D01*
X472712Y343538D01*
X472734Y343626D01*
X472751Y343715D01*
X472765Y343805D01*
X472775Y343896D01*
X472781Y343987D01*
X472783Y344078D01*
X472783Y346166D01*
X472784Y352507D02*
X472782Y352602D01*
X472776Y352696D01*
X472767Y352790D01*
X472754Y352884D01*
X472737Y352977D01*
X472716Y353069D01*
X472691Y353161D01*
X472663Y353251D01*
X472631Y353340D01*
X472596Y353428D01*
X472557Y353514D01*
X472515Y353599D01*
X472469Y353682D01*
X472420Y353763D01*
X472368Y353842D01*
X472313Y353919D01*
X472254Y353993D01*
X472193Y354065D01*
X472129Y354135D01*
X472062Y354202D01*
X471992Y354266D01*
X471920Y354327D01*
X471846Y354386D01*
X471769Y354441D01*
X471690Y354493D01*
X471609Y354542D01*
X471526Y354588D01*
X471441Y354630D01*
X471355Y354669D01*
X471267Y354704D01*
X471178Y354736D01*
X471088Y354764D01*
X470996Y354789D01*
X470904Y354810D01*
X470811Y354827D01*
X470717Y354840D01*
X470623Y354849D01*
X470529Y354855D01*
X470434Y354857D01*
X472783Y352507D02*
X472781Y352399D01*
X472775Y352290D01*
X472765Y352182D01*
X472752Y352075D01*
X472734Y351968D01*
X472713Y351861D01*
X472688Y351756D01*
X472659Y351651D01*
X472627Y351548D01*
X472590Y351446D01*
X472550Y351345D01*
X472507Y351246D01*
X472460Y351148D01*
X472409Y351052D01*
X472355Y350958D01*
X472298Y350866D01*
X472237Y350776D01*
X472173Y350688D01*
X472107Y350603D01*
X472037Y350520D01*
X471964Y350440D01*
X471888Y350362D01*
X471810Y350287D01*
X471729Y350215D01*
X471645Y350146D01*
X471559Y350080D01*
X471471Y350017D01*
X471380Y349958D01*
X471288Y349901D01*
X471193Y349848D01*
X471097Y349799D01*
X470998Y349753D01*
X470899Y349710D01*
X470797Y349671D01*
X470695Y349636D01*
X468606Y354073D02*
X468675Y354142D01*
X468746Y354208D01*
X468819Y354272D01*
X468895Y354333D01*
X468974Y354391D01*
X469054Y354445D01*
X469137Y354497D01*
X469221Y354545D01*
X469307Y354591D01*
X469395Y354632D01*
X469485Y354671D01*
X469576Y354706D01*
X469668Y354737D01*
X469761Y354765D01*
X469855Y354789D01*
X469950Y354809D01*
X470046Y354826D01*
X470143Y354839D01*
X470240Y354848D01*
X470337Y354854D01*
X470434Y354856D01*
X468606Y354073D02*
X463385Y349635D01*
X463385Y354856D01*
D13*
X430130Y358301D02*
X430130Y397761D01*
X449790Y397761D02*
X449790Y358301D01*
X449790Y397761D02*
X430130Y397761D01*
X430130Y358301D02*
X449790Y358301D01*
D10*
X450133Y401361D02*
X430003Y401361D01*
D14*
X451876Y377695D02*
X451876Y375606D01*
X451878Y375517D01*
X451884Y375429D01*
X451893Y375341D01*
X451906Y375253D01*
X451923Y375166D01*
X451943Y375080D01*
X451968Y374995D01*
X451995Y374910D01*
X452027Y374827D01*
X452061Y374746D01*
X452100Y374666D01*
X452141Y374588D01*
X452186Y374511D01*
X452234Y374437D01*
X452285Y374364D01*
X452339Y374294D01*
X452397Y374227D01*
X452457Y374161D01*
X452519Y374099D01*
X452585Y374039D01*
X452652Y373981D01*
X452722Y373927D01*
X452795Y373876D01*
X452869Y373828D01*
X452946Y373783D01*
X453024Y373742D01*
X453104Y373703D01*
X453185Y373669D01*
X453268Y373637D01*
X453353Y373610D01*
X453438Y373585D01*
X453524Y373565D01*
X453611Y373548D01*
X453699Y373535D01*
X453787Y373526D01*
X453875Y373520D01*
X453964Y373518D01*
X459185Y373518D01*
X459276Y373520D01*
X459367Y373526D01*
X459458Y373536D01*
X459548Y373550D01*
X459637Y373567D01*
X459725Y373589D01*
X459813Y373615D01*
X459899Y373644D01*
X459984Y373677D01*
X460067Y373714D01*
X460149Y373754D01*
X460229Y373798D01*
X460307Y373845D01*
X460383Y373896D01*
X460456Y373949D01*
X460527Y374006D01*
X460596Y374067D01*
X460661Y374130D01*
X460724Y374195D01*
X460784Y374264D01*
X460842Y374335D01*
X460895Y374408D01*
X460946Y374484D01*
X460993Y374562D01*
X461037Y374642D01*
X461077Y374724D01*
X461114Y374807D01*
X461147Y374892D01*
X461176Y374978D01*
X461202Y375066D01*
X461224Y375154D01*
X461241Y375243D01*
X461255Y375333D01*
X461265Y375424D01*
X461271Y375515D01*
X461273Y375606D01*
X461274Y375606D02*
X461274Y377695D01*
X461274Y383252D02*
X453964Y381164D01*
X453964Y386385D01*
X451876Y384818D02*
X456053Y384818D01*
D13*
X299067Y315596D02*
X259607Y315596D01*
X259607Y335256D02*
X299067Y335256D01*
X259607Y335256D02*
X259607Y315596D01*
X299067Y315596D02*
X299067Y335256D01*
D10*
X256007Y335598D02*
X256007Y315469D01*
D14*
X283236Y304920D02*
X285325Y304920D01*
X285414Y304922D01*
X285502Y304928D01*
X285590Y304937D01*
X285678Y304950D01*
X285765Y304967D01*
X285851Y304987D01*
X285936Y305012D01*
X286021Y305039D01*
X286104Y305071D01*
X286185Y305105D01*
X286265Y305144D01*
X286343Y305185D01*
X286420Y305230D01*
X286494Y305278D01*
X286567Y305329D01*
X286637Y305383D01*
X286704Y305441D01*
X286770Y305501D01*
X286832Y305563D01*
X286892Y305629D01*
X286950Y305696D01*
X287004Y305766D01*
X287055Y305839D01*
X287103Y305913D01*
X287148Y305990D01*
X287189Y306068D01*
X287228Y306148D01*
X287262Y306229D01*
X287294Y306312D01*
X287321Y306397D01*
X287346Y306482D01*
X287366Y306568D01*
X287383Y306655D01*
X287396Y306743D01*
X287405Y306831D01*
X287411Y306919D01*
X287413Y307008D01*
X287413Y312229D01*
X287411Y312318D01*
X287405Y312406D01*
X287396Y312494D01*
X287383Y312582D01*
X287366Y312669D01*
X287346Y312755D01*
X287321Y312840D01*
X287294Y312925D01*
X287262Y313008D01*
X287228Y313089D01*
X287189Y313169D01*
X287148Y313247D01*
X287103Y313324D01*
X287055Y313398D01*
X287004Y313471D01*
X286950Y313541D01*
X286892Y313608D01*
X286832Y313674D01*
X286770Y313736D01*
X286704Y313796D01*
X286637Y313854D01*
X286567Y313908D01*
X286494Y313959D01*
X286420Y314007D01*
X286343Y314052D01*
X286265Y314093D01*
X286185Y314132D01*
X286104Y314166D01*
X286021Y314198D01*
X285936Y314225D01*
X285851Y314250D01*
X285765Y314270D01*
X285678Y314287D01*
X285590Y314300D01*
X285502Y314309D01*
X285414Y314315D01*
X285325Y314317D01*
X285325Y314318D02*
X283236Y314318D01*
X279767Y314318D02*
X279767Y313274D01*
X279767Y314318D02*
X274546Y314318D01*
X277157Y304920D01*
D11*
X321391Y432308D02*
X321391Y442722D01*
X322548Y432308D02*
X320234Y432308D01*
X320234Y442722D02*
X322548Y442722D01*
X315711Y442722D02*
X315711Y432308D01*
X309926Y432308D02*
X315711Y442722D01*
X309926Y442722D02*
X309926Y432308D01*
X302875Y432308D02*
X302875Y442722D01*
X305767Y442722D02*
X299982Y442722D01*
X350019Y434305D02*
X350021Y434212D01*
X350027Y434119D01*
X350036Y434026D01*
X350049Y433934D01*
X350066Y433842D01*
X350086Y433751D01*
X350110Y433661D01*
X350138Y433572D01*
X350169Y433484D01*
X350204Y433398D01*
X350242Y433313D01*
X350284Y433230D01*
X350329Y433148D01*
X350377Y433068D01*
X350429Y432990D01*
X350483Y432915D01*
X350541Y432842D01*
X350601Y432771D01*
X350664Y432702D01*
X350730Y432636D01*
X350799Y432573D01*
X350870Y432513D01*
X350943Y432455D01*
X351018Y432401D01*
X351096Y432349D01*
X351176Y432301D01*
X351258Y432256D01*
X351341Y432214D01*
X351426Y432176D01*
X351512Y432141D01*
X351600Y432110D01*
X351689Y432082D01*
X351779Y432058D01*
X351870Y432038D01*
X351962Y432021D01*
X352054Y432008D01*
X352147Y431999D01*
X352240Y431993D01*
X352333Y431991D01*
X352333Y431990D02*
X352471Y431992D01*
X352609Y431998D01*
X352746Y432007D01*
X352883Y432021D01*
X353020Y432039D01*
X353156Y432060D01*
X353292Y432085D01*
X353427Y432114D01*
X353561Y432147D01*
X353693Y432183D01*
X353825Y432223D01*
X353956Y432267D01*
X354085Y432315D01*
X354213Y432366D01*
X354340Y432421D01*
X354465Y432479D01*
X354588Y432541D01*
X354709Y432606D01*
X354829Y432675D01*
X354946Y432747D01*
X355062Y432822D01*
X355175Y432901D01*
X355286Y432983D01*
X355395Y433068D01*
X355501Y433155D01*
X355605Y433246D01*
X355706Y433340D01*
X355804Y433436D01*
X355515Y440090D02*
X355513Y440183D01*
X355507Y440276D01*
X355498Y440369D01*
X355485Y440461D01*
X355468Y440553D01*
X355448Y440644D01*
X355424Y440734D01*
X355396Y440823D01*
X355365Y440911D01*
X355330Y440997D01*
X355292Y441082D01*
X355250Y441165D01*
X355205Y441247D01*
X355157Y441327D01*
X355105Y441405D01*
X355051Y441480D01*
X354993Y441553D01*
X354933Y441624D01*
X354870Y441693D01*
X354804Y441759D01*
X354735Y441822D01*
X354664Y441882D01*
X354591Y441940D01*
X354516Y441994D01*
X354438Y442046D01*
X354358Y442094D01*
X354276Y442139D01*
X354193Y442181D01*
X354108Y442219D01*
X354022Y442254D01*
X353934Y442285D01*
X353845Y442313D01*
X353755Y442337D01*
X353664Y442357D01*
X353572Y442374D01*
X353480Y442387D01*
X353387Y442396D01*
X353294Y442402D01*
X353201Y442404D01*
X353074Y442402D01*
X352947Y442397D01*
X352821Y442387D01*
X352694Y442374D01*
X352569Y442358D01*
X352443Y442337D01*
X352319Y442313D01*
X352195Y442286D01*
X352072Y442255D01*
X351950Y442220D01*
X351829Y442181D01*
X351709Y442139D01*
X351591Y442094D01*
X351473Y442045D01*
X351358Y441993D01*
X351244Y441937D01*
X351131Y441879D01*
X351021Y441816D01*
X350912Y441751D01*
X350805Y441682D01*
X350700Y441611D01*
X350598Y441536D01*
X354358Y438065D02*
X354438Y438115D01*
X354516Y438167D01*
X354591Y438222D01*
X354665Y438281D01*
X354736Y438342D01*
X354804Y438406D01*
X354870Y438473D01*
X354934Y438543D01*
X354994Y438614D01*
X355051Y438689D01*
X355106Y438765D01*
X355157Y438844D01*
X355205Y438924D01*
X355250Y439006D01*
X355292Y439091D01*
X355330Y439176D01*
X355365Y439263D01*
X355396Y439352D01*
X355424Y439442D01*
X355448Y439532D01*
X355468Y439624D01*
X355485Y439716D01*
X355498Y439809D01*
X355508Y439903D01*
X355513Y439996D01*
X355515Y440090D01*
X351177Y436330D02*
X351097Y436280D01*
X351019Y436228D01*
X350943Y436173D01*
X350870Y436114D01*
X350799Y436053D01*
X350731Y435989D01*
X350665Y435922D01*
X350601Y435852D01*
X350541Y435781D01*
X350484Y435706D01*
X350429Y435630D01*
X350378Y435551D01*
X350330Y435471D01*
X350285Y435389D01*
X350243Y435304D01*
X350205Y435219D01*
X350170Y435132D01*
X350139Y435043D01*
X350111Y434953D01*
X350087Y434863D01*
X350067Y434771D01*
X350050Y434679D01*
X350037Y434586D01*
X350027Y434492D01*
X350022Y434399D01*
X350020Y434305D01*
X351176Y436330D02*
X354358Y438065D01*
X343578Y431991D02*
X341264Y431991D01*
X343578Y431991D02*
X343671Y431993D01*
X343764Y431999D01*
X343857Y432008D01*
X343949Y432021D01*
X344041Y432038D01*
X344132Y432058D01*
X344222Y432082D01*
X344311Y432110D01*
X344399Y432141D01*
X344485Y432176D01*
X344570Y432214D01*
X344653Y432256D01*
X344735Y432301D01*
X344815Y432349D01*
X344893Y432401D01*
X344968Y432455D01*
X345041Y432513D01*
X345112Y432573D01*
X345181Y432636D01*
X345247Y432702D01*
X345310Y432771D01*
X345370Y432842D01*
X345428Y432915D01*
X345482Y432991D01*
X345534Y433068D01*
X345582Y433148D01*
X345627Y433230D01*
X345669Y433313D01*
X345707Y433398D01*
X345742Y433484D01*
X345773Y433572D01*
X345801Y433661D01*
X345825Y433751D01*
X345845Y433842D01*
X345862Y433934D01*
X345875Y434026D01*
X345884Y434119D01*
X345890Y434212D01*
X345892Y434305D01*
X345892Y440090D01*
X345890Y440186D01*
X345884Y440281D01*
X345874Y440376D01*
X345860Y440471D01*
X345843Y440565D01*
X345821Y440658D01*
X345796Y440750D01*
X345767Y440841D01*
X345734Y440931D01*
X345697Y441020D01*
X345657Y441106D01*
X345613Y441191D01*
X345566Y441274D01*
X345515Y441356D01*
X345461Y441435D01*
X345404Y441511D01*
X345344Y441586D01*
X345280Y441657D01*
X345214Y441726D01*
X345145Y441792D01*
X345074Y441856D01*
X344999Y441916D01*
X344923Y441973D01*
X344844Y442027D01*
X344763Y442078D01*
X344679Y442125D01*
X344594Y442169D01*
X344508Y442209D01*
X344419Y442246D01*
X344329Y442279D01*
X344238Y442308D01*
X344146Y442333D01*
X344053Y442355D01*
X343959Y442372D01*
X343864Y442386D01*
X343769Y442396D01*
X343674Y442402D01*
X343578Y442404D01*
X343578Y442405D02*
X341264Y442405D01*
X336924Y442405D02*
X336924Y431991D01*
X332296Y431991D01*
X388200Y433828D02*
X388202Y433735D01*
X388208Y433642D01*
X388217Y433549D01*
X388230Y433457D01*
X388247Y433365D01*
X388267Y433274D01*
X388291Y433184D01*
X388319Y433095D01*
X388350Y433007D01*
X388385Y432921D01*
X388423Y432836D01*
X388465Y432753D01*
X388510Y432671D01*
X388558Y432591D01*
X388610Y432513D01*
X388664Y432438D01*
X388722Y432365D01*
X388782Y432294D01*
X388845Y432225D01*
X388911Y432159D01*
X388980Y432096D01*
X389051Y432036D01*
X389124Y431978D01*
X389199Y431924D01*
X389277Y431872D01*
X389357Y431824D01*
X389439Y431779D01*
X389522Y431737D01*
X389607Y431699D01*
X389693Y431664D01*
X389781Y431633D01*
X389870Y431605D01*
X389960Y431581D01*
X390051Y431561D01*
X390143Y431544D01*
X390235Y431531D01*
X390328Y431522D01*
X390421Y431516D01*
X390514Y431514D01*
X390652Y431516D01*
X390790Y431522D01*
X390927Y431531D01*
X391064Y431545D01*
X391201Y431563D01*
X391337Y431584D01*
X391473Y431609D01*
X391608Y431638D01*
X391742Y431671D01*
X391874Y431707D01*
X392006Y431747D01*
X392137Y431791D01*
X392266Y431839D01*
X392394Y431890D01*
X392521Y431945D01*
X392646Y432003D01*
X392769Y432065D01*
X392890Y432130D01*
X393010Y432199D01*
X393127Y432271D01*
X393243Y432346D01*
X393356Y432425D01*
X393467Y432507D01*
X393576Y432592D01*
X393682Y432679D01*
X393786Y432770D01*
X393887Y432864D01*
X393985Y432960D01*
X393696Y439614D02*
X393694Y439707D01*
X393688Y439800D01*
X393679Y439893D01*
X393666Y439985D01*
X393649Y440077D01*
X393629Y440168D01*
X393605Y440258D01*
X393577Y440347D01*
X393546Y440435D01*
X393511Y440521D01*
X393473Y440606D01*
X393431Y440689D01*
X393386Y440771D01*
X393338Y440851D01*
X393286Y440929D01*
X393232Y441004D01*
X393174Y441077D01*
X393114Y441148D01*
X393051Y441217D01*
X392985Y441283D01*
X392916Y441346D01*
X392845Y441406D01*
X392772Y441464D01*
X392697Y441518D01*
X392619Y441570D01*
X392539Y441618D01*
X392457Y441663D01*
X392374Y441705D01*
X392289Y441743D01*
X392203Y441778D01*
X392115Y441809D01*
X392026Y441837D01*
X391936Y441861D01*
X391845Y441881D01*
X391753Y441898D01*
X391661Y441911D01*
X391568Y441920D01*
X391475Y441926D01*
X391382Y441928D01*
X391255Y441926D01*
X391128Y441921D01*
X391002Y441911D01*
X390875Y441898D01*
X390750Y441882D01*
X390624Y441861D01*
X390500Y441837D01*
X390376Y441810D01*
X390253Y441779D01*
X390131Y441744D01*
X390010Y441705D01*
X389890Y441663D01*
X389772Y441618D01*
X389654Y441569D01*
X389539Y441517D01*
X389425Y441461D01*
X389312Y441403D01*
X389202Y441340D01*
X389093Y441275D01*
X388986Y441206D01*
X388881Y441135D01*
X388779Y441060D01*
X392539Y437589D02*
X392619Y437639D01*
X392697Y437691D01*
X392772Y437746D01*
X392846Y437805D01*
X392917Y437866D01*
X392985Y437930D01*
X393051Y437997D01*
X393115Y438067D01*
X393175Y438138D01*
X393232Y438213D01*
X393287Y438289D01*
X393338Y438368D01*
X393386Y438448D01*
X393431Y438530D01*
X393473Y438615D01*
X393511Y438700D01*
X393546Y438787D01*
X393577Y438876D01*
X393605Y438966D01*
X393629Y439056D01*
X393649Y439148D01*
X393666Y439240D01*
X393679Y439333D01*
X393689Y439427D01*
X393694Y439520D01*
X393696Y439614D01*
X389358Y435853D02*
X389278Y435803D01*
X389200Y435751D01*
X389124Y435696D01*
X389051Y435637D01*
X388980Y435576D01*
X388912Y435512D01*
X388846Y435445D01*
X388782Y435375D01*
X388722Y435304D01*
X388665Y435229D01*
X388610Y435153D01*
X388559Y435074D01*
X388511Y434994D01*
X388466Y434912D01*
X388424Y434827D01*
X388386Y434742D01*
X388351Y434655D01*
X388320Y434566D01*
X388292Y434476D01*
X388268Y434386D01*
X388248Y434294D01*
X388231Y434202D01*
X388218Y434109D01*
X388208Y434015D01*
X388203Y433922D01*
X388201Y433828D01*
X389357Y435853D02*
X392539Y437589D01*
X383699Y441928D02*
X383699Y431514D01*
X383699Y441928D02*
X380806Y441928D01*
X380700Y441926D01*
X380595Y441920D01*
X380490Y441911D01*
X380385Y441897D01*
X380281Y441880D01*
X380177Y441859D01*
X380074Y441834D01*
X379973Y441805D01*
X379872Y441773D01*
X379773Y441737D01*
X379675Y441698D01*
X379578Y441654D01*
X379483Y441608D01*
X379390Y441558D01*
X379299Y441504D01*
X379210Y441448D01*
X379123Y441388D01*
X379038Y441325D01*
X378955Y441259D01*
X378875Y441190D01*
X378798Y441118D01*
X378723Y441043D01*
X378651Y440966D01*
X378582Y440886D01*
X378516Y440803D01*
X378453Y440718D01*
X378393Y440631D01*
X378337Y440542D01*
X378283Y440451D01*
X378233Y440358D01*
X378187Y440263D01*
X378143Y440166D01*
X378104Y440068D01*
X378068Y439969D01*
X378036Y439868D01*
X378007Y439767D01*
X377982Y439664D01*
X377961Y439561D01*
X377944Y439456D01*
X377930Y439351D01*
X377921Y439246D01*
X377915Y439141D01*
X377913Y439035D01*
X377913Y434407D01*
X377915Y434301D01*
X377921Y434196D01*
X377930Y434091D01*
X377944Y433986D01*
X377961Y433882D01*
X377982Y433778D01*
X378007Y433675D01*
X378036Y433574D01*
X378068Y433473D01*
X378104Y433374D01*
X378143Y433276D01*
X378187Y433179D01*
X378233Y433084D01*
X378283Y432991D01*
X378337Y432900D01*
X378393Y432811D01*
X378453Y432724D01*
X378516Y432639D01*
X378582Y432556D01*
X378651Y432476D01*
X378723Y432399D01*
X378798Y432324D01*
X378875Y432252D01*
X378955Y432183D01*
X379038Y432117D01*
X379123Y432054D01*
X379210Y431994D01*
X379299Y431938D01*
X379390Y431884D01*
X379483Y431834D01*
X379578Y431788D01*
X379675Y431744D01*
X379773Y431705D01*
X379872Y431669D01*
X379973Y431637D01*
X380074Y431608D01*
X380177Y431583D01*
X380281Y431562D01*
X380385Y431545D01*
X380490Y431531D01*
X380595Y431522D01*
X380700Y431516D01*
X380806Y431514D01*
X383699Y431514D01*
X373647Y431514D02*
X370176Y441928D01*
X366705Y431514D01*
X367573Y434118D02*
X372780Y434118D01*
M02*
