G04 EAGLE Gerber RS-274X export*
G75*
%MOMM*%
%FSLAX34Y34*%
%LPD*%
%INSilkscreen Top*%
%IPPOS*%
%AMOC8*
5,1,8,0,0,1.08239X$1,22.5*%
G01*
%ADD10C,0.101600*%
%ADD11C,0.152400*%
%ADD12R,0.014731X0.014731*%
%ADD13R,0.147319X0.014731*%
%ADD14R,0.265175X0.014731*%
%ADD15R,0.383031X0.014731*%
%ADD16R,0.515619X0.014731*%
%ADD17R,0.633475X0.014731*%
%ADD18R,0.751331X0.014731*%
%ADD19R,0.883919X0.014731*%
%ADD20R,1.001775X0.014731*%
%ADD21R,1.119631X0.014731*%
%ADD22R,1.134363X0.014731*%
%ADD23R,1.149094X0.014731*%
%ADD24R,1.163825X0.014731*%
%ADD25R,1.178556X0.014731*%
%ADD26R,1.193288X0.014731*%
%ADD27R,1.222756X0.014731*%
%ADD28R,1.237488X0.014731*%
%ADD29R,1.266950X0.014731*%
%ADD30R,1.281681X0.014731*%
%ADD31R,1.311144X0.014731*%
%ADD32R,1.325881X0.014731*%
%ADD33R,1.355344X0.014731*%
%ADD34R,1.370075X0.014731*%
%ADD35R,1.384806X0.014731*%
%ADD36R,1.399538X0.014731*%
%ADD37R,1.414275X0.014731*%
%ADD38R,1.443738X0.014731*%
%ADD39R,1.458469X0.014731*%
%ADD40R,1.487931X0.014731*%
%ADD41R,1.502663X0.014731*%
%ADD42R,1.517394X0.014731*%
%ADD43R,1.532125X0.014731*%
%ADD44R,1.546856X0.014731*%
%ADD45R,1.576319X0.014731*%
%ADD46R,1.605788X0.014731*%
%ADD47R,1.620519X0.014731*%
%ADD48R,1.649981X0.014731*%
%ADD49R,1.664713X0.014731*%
%ADD50R,1.694175X0.014731*%
%ADD51R,1.708913X0.014731*%
%ADD52R,1.738375X0.014731*%
%ADD53R,1.753106X0.014731*%
%ADD54R,1.767838X0.014731*%
%ADD55R,1.782569X0.014731*%
%ADD56R,1.797306X0.014731*%
%ADD57R,0.117856X0.014731*%
%ADD58R,1.826769X0.014731*%
%ADD59R,0.235713X0.014731*%
%ADD60R,0.353569X0.014731*%
%ADD61R,1.856231X0.014731*%
%ADD62R,0.486156X0.014731*%
%ADD63R,1.870963X0.014731*%
%ADD64R,0.604013X0.014731*%
%ADD65R,0.721869X0.014731*%
%ADD66R,1.885694X0.014731*%
%ADD67R,0.839719X0.014731*%
%ADD68R,0.972306X0.014731*%
%ADD69R,1.090169X0.014731*%
%ADD70R,1.208025X0.014731*%
%ADD71R,1.252219X0.014731*%
%ADD72R,1.296412X0.014731*%
%ADD73R,1.340612X0.014731*%
%ADD74R,1.826763X0.014731*%
%ADD75R,1.414269X0.014731*%
%ADD76R,1.812031X0.014731*%
%ADD77R,1.429000X0.014731*%
%ADD78R,1.458462X0.014731*%
%ADD79R,1.473200X0.014731*%
%ADD80R,1.723644X0.014731*%
%ADD81R,1.694181X0.014731*%
%ADD82R,1.679450X0.014731*%
%ADD83R,1.561594X0.014731*%
%ADD84R,1.576325X0.014731*%
%ADD85R,1.591056X0.014731*%
%ADD86R,1.635250X0.014731*%
%ADD87R,1.561588X0.014731*%
%ADD88R,1.443731X0.014731*%
%ADD89R,1.797300X0.014731*%
%ADD90R,1.841500X0.014731*%
%ADD91R,1.311150X0.014731*%
%ADD92R,1.296419X0.014731*%
%ADD93R,1.193294X0.014731*%
%ADD94R,0.957575X0.014731*%
%ADD95R,0.589281X0.014731*%
%ADD96R,0.471425X0.014731*%
%ADD97R,0.220975X0.014731*%
%ADD98R,1.812038X0.014731*%
%ADD99R,0.103119X0.014731*%
%ADD100R,0.029463X0.014731*%
%ADD101R,0.162050X0.014731*%
%ADD102R,0.397763X0.014731*%
%ADD103R,0.648206X0.014731*%
%ADD104R,1.679444X0.014731*%
%ADD105R,1.016506X0.014731*%
%ADD106R,1.104900X0.014731*%
%ADD107R,1.222750X0.014731*%
%ADD108R,1.429006X0.014731*%
%ADD109R,1.208019X0.014731*%
%ADD110R,0.987044X0.014731*%
%ADD111R,0.854456X0.014731*%
%ADD112R,0.618744X0.014731*%
%ADD113R,0.500888X0.014731*%
%ADD114R,0.368300X0.014731*%
%ADD115R,0.132587X0.014731*%
%ADD116R,1.664719X0.014731*%
%ADD117R,1.075438X0.014731*%
%ADD118R,0.942844X0.014731*%
%ADD119R,0.707131X0.014731*%
%ADD120R,0.456694X0.014731*%
%ADD121R,0.088388X0.014731*%
%ADD122C,0.050800*%
%ADD123C,0.076200*%
%ADD124C,0.127000*%
%ADD125C,0.254000*%
%ADD126C,0.950000*%
%ADD127C,0.508000*%


D10*
X497242Y331524D02*
X497242Y334770D01*
X497240Y334883D01*
X497234Y334996D01*
X497224Y335109D01*
X497210Y335222D01*
X497193Y335334D01*
X497171Y335445D01*
X497146Y335555D01*
X497116Y335665D01*
X497083Y335773D01*
X497046Y335880D01*
X497006Y335986D01*
X496961Y336090D01*
X496913Y336193D01*
X496862Y336294D01*
X496807Y336393D01*
X496749Y336490D01*
X496687Y336585D01*
X496622Y336678D01*
X496554Y336768D01*
X496483Y336856D01*
X496408Y336942D01*
X496331Y337025D01*
X496251Y337105D01*
X496168Y337182D01*
X496082Y337257D01*
X495994Y337328D01*
X495904Y337396D01*
X495811Y337461D01*
X495716Y337523D01*
X495619Y337581D01*
X495520Y337636D01*
X495419Y337687D01*
X495316Y337735D01*
X495212Y337780D01*
X495106Y337820D01*
X494999Y337857D01*
X494891Y337890D01*
X494781Y337920D01*
X494671Y337945D01*
X494560Y337967D01*
X494448Y337984D01*
X494335Y337998D01*
X494222Y338008D01*
X494109Y338014D01*
X493996Y338016D01*
X493883Y338014D01*
X493770Y338008D01*
X493657Y337998D01*
X493544Y337984D01*
X493432Y337967D01*
X493321Y337945D01*
X493211Y337920D01*
X493101Y337890D01*
X492993Y337857D01*
X492886Y337820D01*
X492780Y337780D01*
X492676Y337735D01*
X492573Y337687D01*
X492472Y337636D01*
X492373Y337581D01*
X492276Y337523D01*
X492181Y337461D01*
X492088Y337396D01*
X491998Y337328D01*
X491910Y337257D01*
X491824Y337182D01*
X491741Y337105D01*
X491661Y337025D01*
X491584Y336942D01*
X491509Y336856D01*
X491438Y336768D01*
X491370Y336678D01*
X491305Y336585D01*
X491243Y336490D01*
X491185Y336393D01*
X491130Y336294D01*
X491079Y336193D01*
X491031Y336090D01*
X490986Y335986D01*
X490946Y335880D01*
X490909Y335773D01*
X490876Y335665D01*
X490846Y335555D01*
X490821Y335445D01*
X490799Y335334D01*
X490782Y335222D01*
X490768Y335109D01*
X490758Y334996D01*
X490752Y334883D01*
X490750Y334770D01*
X485558Y335419D02*
X485558Y331524D01*
X485558Y335419D02*
X485560Y335520D01*
X485566Y335620D01*
X485576Y335720D01*
X485589Y335820D01*
X485607Y335919D01*
X485628Y336018D01*
X485653Y336115D01*
X485682Y336212D01*
X485715Y336307D01*
X485751Y336401D01*
X485791Y336493D01*
X485834Y336584D01*
X485881Y336673D01*
X485931Y336760D01*
X485985Y336846D01*
X486042Y336929D01*
X486102Y337009D01*
X486165Y337088D01*
X486232Y337164D01*
X486301Y337237D01*
X486373Y337307D01*
X486447Y337375D01*
X486524Y337440D01*
X486604Y337501D01*
X486686Y337560D01*
X486770Y337615D01*
X486856Y337667D01*
X486944Y337716D01*
X487034Y337761D01*
X487126Y337803D01*
X487219Y337841D01*
X487314Y337875D01*
X487409Y337906D01*
X487506Y337933D01*
X487604Y337956D01*
X487703Y337976D01*
X487803Y337991D01*
X487903Y338003D01*
X488003Y338011D01*
X488104Y338015D01*
X488204Y338015D01*
X488305Y338011D01*
X488405Y338003D01*
X488505Y337991D01*
X488605Y337976D01*
X488704Y337956D01*
X488802Y337933D01*
X488899Y337906D01*
X488994Y337875D01*
X489089Y337841D01*
X489182Y337803D01*
X489274Y337761D01*
X489364Y337716D01*
X489452Y337667D01*
X489538Y337615D01*
X489622Y337560D01*
X489704Y337501D01*
X489784Y337440D01*
X489861Y337375D01*
X489935Y337307D01*
X490007Y337237D01*
X490076Y337164D01*
X490143Y337088D01*
X490206Y337009D01*
X490266Y336929D01*
X490323Y336846D01*
X490377Y336760D01*
X490427Y336673D01*
X490474Y336584D01*
X490517Y336493D01*
X490557Y336401D01*
X490593Y336307D01*
X490626Y336212D01*
X490655Y336115D01*
X490680Y336018D01*
X490701Y335919D01*
X490719Y335820D01*
X490732Y335720D01*
X490742Y335620D01*
X490748Y335520D01*
X490750Y335419D01*
X490751Y335419D02*
X490751Y332823D01*
X485558Y342305D02*
X497242Y346200D01*
X485558Y350095D01*
X497242Y354384D02*
X497242Y357630D01*
X497240Y357743D01*
X497234Y357856D01*
X497224Y357969D01*
X497210Y358082D01*
X497193Y358194D01*
X497171Y358305D01*
X497146Y358415D01*
X497116Y358525D01*
X497083Y358633D01*
X497046Y358740D01*
X497006Y358846D01*
X496961Y358950D01*
X496913Y359053D01*
X496862Y359154D01*
X496807Y359253D01*
X496749Y359350D01*
X496687Y359445D01*
X496622Y359538D01*
X496554Y359628D01*
X496483Y359716D01*
X496408Y359802D01*
X496331Y359885D01*
X496251Y359965D01*
X496168Y360042D01*
X496082Y360117D01*
X495994Y360188D01*
X495904Y360256D01*
X495811Y360321D01*
X495716Y360383D01*
X495619Y360441D01*
X495520Y360496D01*
X495419Y360547D01*
X495316Y360595D01*
X495212Y360640D01*
X495106Y360680D01*
X494999Y360717D01*
X494891Y360750D01*
X494781Y360780D01*
X494671Y360805D01*
X494560Y360827D01*
X494448Y360844D01*
X494335Y360858D01*
X494222Y360868D01*
X494109Y360874D01*
X493996Y360876D01*
X493883Y360874D01*
X493770Y360868D01*
X493657Y360858D01*
X493544Y360844D01*
X493432Y360827D01*
X493321Y360805D01*
X493211Y360780D01*
X493101Y360750D01*
X492993Y360717D01*
X492886Y360680D01*
X492780Y360640D01*
X492676Y360595D01*
X492573Y360547D01*
X492472Y360496D01*
X492373Y360441D01*
X492276Y360383D01*
X492181Y360321D01*
X492088Y360256D01*
X491998Y360188D01*
X491910Y360117D01*
X491824Y360042D01*
X491741Y359965D01*
X491661Y359885D01*
X491584Y359802D01*
X491509Y359716D01*
X491438Y359628D01*
X491370Y359538D01*
X491305Y359445D01*
X491243Y359350D01*
X491185Y359253D01*
X491130Y359154D01*
X491079Y359053D01*
X491031Y358950D01*
X490986Y358846D01*
X490946Y358740D01*
X490909Y358633D01*
X490876Y358525D01*
X490846Y358415D01*
X490821Y358305D01*
X490799Y358194D01*
X490782Y358082D01*
X490768Y357969D01*
X490758Y357856D01*
X490752Y357743D01*
X490750Y357630D01*
X485558Y358279D02*
X485558Y354384D01*
X485558Y358279D02*
X485560Y358380D01*
X485566Y358480D01*
X485576Y358580D01*
X485589Y358680D01*
X485607Y358779D01*
X485628Y358878D01*
X485653Y358975D01*
X485682Y359072D01*
X485715Y359167D01*
X485751Y359261D01*
X485791Y359353D01*
X485834Y359444D01*
X485881Y359533D01*
X485931Y359620D01*
X485985Y359706D01*
X486042Y359789D01*
X486102Y359869D01*
X486165Y359948D01*
X486232Y360024D01*
X486301Y360097D01*
X486373Y360167D01*
X486447Y360235D01*
X486524Y360300D01*
X486604Y360361D01*
X486686Y360420D01*
X486770Y360475D01*
X486856Y360527D01*
X486944Y360576D01*
X487034Y360621D01*
X487126Y360663D01*
X487219Y360701D01*
X487314Y360735D01*
X487409Y360766D01*
X487506Y360793D01*
X487604Y360816D01*
X487703Y360836D01*
X487803Y360851D01*
X487903Y360863D01*
X488003Y360871D01*
X488104Y360875D01*
X488204Y360875D01*
X488305Y360871D01*
X488405Y360863D01*
X488505Y360851D01*
X488605Y360836D01*
X488704Y360816D01*
X488802Y360793D01*
X488899Y360766D01*
X488994Y360735D01*
X489089Y360701D01*
X489182Y360663D01*
X489274Y360621D01*
X489364Y360576D01*
X489452Y360527D01*
X489538Y360475D01*
X489622Y360420D01*
X489704Y360361D01*
X489784Y360300D01*
X489861Y360235D01*
X489935Y360167D01*
X490007Y360097D01*
X490076Y360024D01*
X490143Y359948D01*
X490206Y359869D01*
X490266Y359789D01*
X490323Y359706D01*
X490377Y359620D01*
X490427Y359533D01*
X490474Y359444D01*
X490517Y359353D01*
X490557Y359261D01*
X490593Y359167D01*
X490626Y359072D01*
X490655Y358975D01*
X490680Y358878D01*
X490701Y358779D01*
X490719Y358680D01*
X490732Y358580D01*
X490742Y358480D01*
X490748Y358380D01*
X490750Y358279D01*
X490751Y358279D02*
X490751Y355683D01*
X411078Y206288D02*
X408420Y204427D01*
X411079Y206288D02*
X411170Y206355D01*
X411260Y206424D01*
X411347Y206497D01*
X411431Y206573D01*
X411512Y206652D01*
X411591Y206733D01*
X411667Y206817D01*
X411740Y206904D01*
X411809Y206994D01*
X411876Y207085D01*
X411939Y207179D01*
X411999Y207275D01*
X412056Y207373D01*
X412109Y207473D01*
X412159Y207575D01*
X412205Y207679D01*
X412247Y207784D01*
X412286Y207890D01*
X412321Y207998D01*
X412352Y208107D01*
X412380Y208217D01*
X412403Y208328D01*
X412423Y208439D01*
X412439Y208551D01*
X412451Y208664D01*
X412459Y208777D01*
X412463Y208890D01*
X412463Y209004D01*
X412459Y209117D01*
X412451Y209230D01*
X412439Y209343D01*
X412423Y209455D01*
X412403Y209566D01*
X412380Y209677D01*
X412352Y209787D01*
X412321Y209896D01*
X412286Y210004D01*
X412247Y210110D01*
X412205Y210215D01*
X412159Y210319D01*
X412109Y210421D01*
X412056Y210521D01*
X411999Y210619D01*
X411939Y210715D01*
X411876Y210809D01*
X411809Y210900D01*
X411740Y210990D01*
X411667Y211077D01*
X411591Y211161D01*
X411512Y211242D01*
X411431Y211321D01*
X411347Y211397D01*
X411260Y211470D01*
X411171Y211539D01*
X411079Y211606D01*
X410985Y211669D01*
X410889Y211729D01*
X410791Y211786D01*
X410691Y211839D01*
X410589Y211889D01*
X410485Y211935D01*
X410380Y211977D01*
X410274Y212016D01*
X410166Y212051D01*
X410057Y212082D01*
X409947Y212110D01*
X409836Y212133D01*
X409725Y212153D01*
X409613Y212169D01*
X409500Y212181D01*
X409387Y212189D01*
X409274Y212193D01*
X409160Y212193D01*
X409047Y212189D01*
X408934Y212181D01*
X408821Y212169D01*
X408709Y212153D01*
X408598Y212133D01*
X408487Y212110D01*
X408377Y212082D01*
X408268Y212051D01*
X408160Y212016D01*
X408054Y211977D01*
X407949Y211935D01*
X407845Y211889D01*
X407743Y211839D01*
X407643Y211786D01*
X407545Y211729D01*
X407449Y211669D01*
X407355Y211606D01*
X404908Y216232D02*
X401718Y213998D01*
X404909Y216232D02*
X404993Y216288D01*
X405078Y216341D01*
X405166Y216390D01*
X405255Y216436D01*
X405347Y216479D01*
X405440Y216518D01*
X405534Y216553D01*
X405629Y216585D01*
X405726Y216613D01*
X405824Y216637D01*
X405922Y216657D01*
X406022Y216674D01*
X406122Y216686D01*
X406222Y216695D01*
X406323Y216700D01*
X406423Y216701D01*
X406524Y216698D01*
X406624Y216691D01*
X406724Y216680D01*
X406824Y216666D01*
X406923Y216647D01*
X407021Y216625D01*
X407118Y216599D01*
X407215Y216569D01*
X407310Y216536D01*
X407403Y216499D01*
X407495Y216458D01*
X407586Y216413D01*
X407674Y216366D01*
X407761Y216314D01*
X407845Y216260D01*
X407928Y216202D01*
X408008Y216141D01*
X408086Y216077D01*
X408161Y216010D01*
X408234Y215941D01*
X408303Y215868D01*
X408370Y215793D01*
X408434Y215715D01*
X408495Y215635D01*
X408553Y215552D01*
X408607Y215468D01*
X408659Y215381D01*
X408706Y215293D01*
X408751Y215202D01*
X408792Y215110D01*
X408829Y215016D01*
X408862Y214922D01*
X408892Y214825D01*
X408918Y214728D01*
X408940Y214630D01*
X408959Y214531D01*
X408973Y214431D01*
X408984Y214331D01*
X408991Y214231D01*
X408994Y214130D01*
X408993Y214030D01*
X408988Y213929D01*
X408979Y213829D01*
X408967Y213729D01*
X408950Y213629D01*
X408930Y213531D01*
X408906Y213433D01*
X408878Y213336D01*
X408846Y213241D01*
X408811Y213147D01*
X408772Y213054D01*
X408729Y212962D01*
X408683Y212873D01*
X408634Y212785D01*
X408581Y212700D01*
X408525Y212616D01*
X408465Y212535D01*
X408403Y212456D01*
X408337Y212379D01*
X408269Y212305D01*
X408198Y212234D01*
X408124Y212166D01*
X408047Y212100D01*
X407968Y212038D01*
X407887Y211978D01*
X405760Y210489D01*
X410549Y220181D02*
X420441Y212844D01*
X416930Y224649D01*
X427146Y217539D02*
X429804Y219400D01*
X429805Y219400D02*
X429896Y219467D01*
X429986Y219536D01*
X430073Y219609D01*
X430157Y219685D01*
X430238Y219764D01*
X430317Y219845D01*
X430393Y219929D01*
X430466Y220016D01*
X430535Y220106D01*
X430602Y220197D01*
X430665Y220291D01*
X430725Y220387D01*
X430782Y220485D01*
X430835Y220585D01*
X430885Y220687D01*
X430931Y220791D01*
X430973Y220896D01*
X431012Y221002D01*
X431047Y221110D01*
X431078Y221219D01*
X431106Y221329D01*
X431129Y221440D01*
X431149Y221551D01*
X431165Y221663D01*
X431177Y221776D01*
X431185Y221889D01*
X431189Y222002D01*
X431189Y222116D01*
X431185Y222229D01*
X431177Y222342D01*
X431165Y222455D01*
X431149Y222567D01*
X431129Y222678D01*
X431106Y222789D01*
X431078Y222899D01*
X431047Y223008D01*
X431012Y223116D01*
X430973Y223222D01*
X430931Y223327D01*
X430885Y223431D01*
X430835Y223533D01*
X430782Y223633D01*
X430725Y223731D01*
X430665Y223827D01*
X430602Y223921D01*
X430535Y224012D01*
X430466Y224102D01*
X430393Y224189D01*
X430317Y224273D01*
X430238Y224354D01*
X430157Y224433D01*
X430073Y224509D01*
X429986Y224582D01*
X429897Y224651D01*
X429805Y224718D01*
X429711Y224781D01*
X429615Y224841D01*
X429517Y224898D01*
X429417Y224951D01*
X429315Y225001D01*
X429211Y225047D01*
X429106Y225089D01*
X429000Y225128D01*
X428892Y225163D01*
X428783Y225194D01*
X428673Y225222D01*
X428562Y225245D01*
X428451Y225265D01*
X428339Y225281D01*
X428226Y225293D01*
X428113Y225301D01*
X428000Y225305D01*
X427886Y225305D01*
X427773Y225301D01*
X427660Y225293D01*
X427547Y225281D01*
X427435Y225265D01*
X427324Y225245D01*
X427213Y225222D01*
X427103Y225194D01*
X426994Y225163D01*
X426886Y225128D01*
X426780Y225089D01*
X426675Y225047D01*
X426571Y225001D01*
X426469Y224951D01*
X426369Y224898D01*
X426271Y224841D01*
X426175Y224781D01*
X426081Y224718D01*
X423634Y229344D02*
X420444Y227110D01*
X423634Y229344D02*
X423718Y229400D01*
X423803Y229453D01*
X423891Y229502D01*
X423980Y229548D01*
X424072Y229591D01*
X424165Y229630D01*
X424259Y229665D01*
X424354Y229697D01*
X424451Y229725D01*
X424549Y229749D01*
X424647Y229769D01*
X424747Y229786D01*
X424847Y229798D01*
X424947Y229807D01*
X425048Y229812D01*
X425148Y229813D01*
X425249Y229810D01*
X425349Y229803D01*
X425449Y229792D01*
X425549Y229778D01*
X425648Y229759D01*
X425746Y229737D01*
X425843Y229711D01*
X425940Y229681D01*
X426035Y229648D01*
X426128Y229611D01*
X426220Y229570D01*
X426311Y229525D01*
X426399Y229478D01*
X426486Y229426D01*
X426570Y229372D01*
X426653Y229314D01*
X426733Y229253D01*
X426811Y229189D01*
X426886Y229122D01*
X426959Y229053D01*
X427028Y228980D01*
X427095Y228905D01*
X427159Y228827D01*
X427220Y228747D01*
X427278Y228664D01*
X427332Y228580D01*
X427384Y228493D01*
X427431Y228405D01*
X427476Y228314D01*
X427517Y228222D01*
X427554Y228128D01*
X427587Y228034D01*
X427617Y227937D01*
X427643Y227840D01*
X427665Y227742D01*
X427684Y227643D01*
X427698Y227543D01*
X427709Y227443D01*
X427716Y227343D01*
X427719Y227242D01*
X427718Y227142D01*
X427713Y227041D01*
X427704Y226941D01*
X427692Y226841D01*
X427675Y226741D01*
X427655Y226643D01*
X427631Y226545D01*
X427603Y226448D01*
X427571Y226353D01*
X427536Y226259D01*
X427497Y226166D01*
X427454Y226074D01*
X427408Y225985D01*
X427359Y225897D01*
X427306Y225812D01*
X427250Y225728D01*
X427190Y225647D01*
X427128Y225568D01*
X427062Y225491D01*
X426994Y225417D01*
X426923Y225346D01*
X426849Y225278D01*
X426772Y225212D01*
X426693Y225150D01*
X426612Y225090D01*
X426613Y225090D02*
X424486Y223600D01*
X262032Y219527D02*
X259373Y221389D01*
X262031Y219527D02*
X262125Y219464D01*
X262221Y219404D01*
X262319Y219347D01*
X262419Y219294D01*
X262521Y219244D01*
X262625Y219198D01*
X262730Y219156D01*
X262836Y219117D01*
X262944Y219082D01*
X263053Y219051D01*
X263163Y219023D01*
X263274Y219000D01*
X263385Y218980D01*
X263497Y218964D01*
X263610Y218952D01*
X263723Y218944D01*
X263836Y218940D01*
X263950Y218940D01*
X264063Y218944D01*
X264176Y218952D01*
X264289Y218964D01*
X264401Y218980D01*
X264512Y219000D01*
X264623Y219023D01*
X264733Y219051D01*
X264842Y219082D01*
X264950Y219117D01*
X265056Y219156D01*
X265161Y219198D01*
X265265Y219244D01*
X265367Y219294D01*
X265467Y219347D01*
X265565Y219404D01*
X265661Y219464D01*
X265755Y219527D01*
X265846Y219594D01*
X265936Y219663D01*
X266023Y219736D01*
X266107Y219812D01*
X266188Y219891D01*
X266267Y219972D01*
X266343Y220056D01*
X266416Y220143D01*
X266485Y220233D01*
X266552Y220324D01*
X266615Y220418D01*
X266675Y220514D01*
X266732Y220612D01*
X266785Y220712D01*
X266835Y220814D01*
X266881Y220918D01*
X266923Y221023D01*
X266962Y221129D01*
X266997Y221237D01*
X267028Y221346D01*
X267056Y221456D01*
X267079Y221567D01*
X267099Y221678D01*
X267115Y221790D01*
X267127Y221903D01*
X267135Y222016D01*
X267139Y222129D01*
X267139Y222243D01*
X267135Y222356D01*
X267127Y222469D01*
X267115Y222582D01*
X267099Y222694D01*
X267079Y222805D01*
X267056Y222916D01*
X267028Y223026D01*
X266997Y223135D01*
X266962Y223243D01*
X266923Y223349D01*
X266881Y223454D01*
X266835Y223558D01*
X266785Y223660D01*
X266732Y223760D01*
X266675Y223858D01*
X266615Y223954D01*
X266552Y224048D01*
X266485Y224139D01*
X266416Y224229D01*
X266343Y224316D01*
X266267Y224400D01*
X266188Y224481D01*
X266107Y224560D01*
X266023Y224636D01*
X265936Y224709D01*
X265847Y224778D01*
X265755Y224845D01*
X269265Y228726D02*
X266075Y230960D01*
X269265Y228726D02*
X269346Y228666D01*
X269425Y228604D01*
X269502Y228538D01*
X269576Y228470D01*
X269647Y228399D01*
X269715Y228325D01*
X269781Y228248D01*
X269843Y228169D01*
X269903Y228088D01*
X269959Y228004D01*
X270012Y227919D01*
X270061Y227831D01*
X270107Y227742D01*
X270150Y227650D01*
X270189Y227557D01*
X270224Y227463D01*
X270256Y227368D01*
X270284Y227271D01*
X270308Y227173D01*
X270328Y227075D01*
X270345Y226975D01*
X270357Y226875D01*
X270366Y226775D01*
X270371Y226675D01*
X270372Y226574D01*
X270369Y226473D01*
X270362Y226373D01*
X270351Y226273D01*
X270337Y226173D01*
X270318Y226074D01*
X270296Y225976D01*
X270270Y225879D01*
X270240Y225782D01*
X270207Y225688D01*
X270170Y225594D01*
X270129Y225502D01*
X270084Y225411D01*
X270037Y225323D01*
X269985Y225236D01*
X269931Y225152D01*
X269873Y225069D01*
X269812Y224989D01*
X269748Y224911D01*
X269681Y224836D01*
X269612Y224763D01*
X269539Y224694D01*
X269464Y224627D01*
X269386Y224563D01*
X269306Y224502D01*
X269223Y224444D01*
X269139Y224390D01*
X269052Y224338D01*
X268964Y224291D01*
X268873Y224246D01*
X268781Y224205D01*
X268687Y224168D01*
X268593Y224135D01*
X268496Y224105D01*
X268399Y224079D01*
X268301Y224057D01*
X268202Y224038D01*
X268102Y224024D01*
X268002Y224013D01*
X267902Y224006D01*
X267801Y224003D01*
X267700Y224004D01*
X267600Y224009D01*
X267500Y224018D01*
X267400Y224030D01*
X267300Y224047D01*
X267202Y224067D01*
X267104Y224091D01*
X267007Y224119D01*
X266912Y224151D01*
X266818Y224186D01*
X266725Y224225D01*
X266633Y224268D01*
X266544Y224314D01*
X266456Y224363D01*
X266371Y224416D01*
X266287Y224472D01*
X264160Y225961D01*
X274906Y224776D02*
X271395Y212971D01*
X281287Y220308D01*
X278099Y208277D02*
X280758Y206415D01*
X280757Y206415D02*
X280851Y206352D01*
X280947Y206292D01*
X281045Y206235D01*
X281145Y206182D01*
X281247Y206132D01*
X281351Y206086D01*
X281456Y206044D01*
X281562Y206005D01*
X281670Y205970D01*
X281779Y205939D01*
X281889Y205911D01*
X282000Y205888D01*
X282111Y205868D01*
X282223Y205852D01*
X282336Y205840D01*
X282449Y205832D01*
X282562Y205828D01*
X282676Y205828D01*
X282789Y205832D01*
X282902Y205840D01*
X283015Y205852D01*
X283127Y205868D01*
X283238Y205888D01*
X283349Y205911D01*
X283459Y205939D01*
X283568Y205970D01*
X283676Y206005D01*
X283782Y206044D01*
X283887Y206086D01*
X283991Y206132D01*
X284093Y206182D01*
X284193Y206235D01*
X284291Y206292D01*
X284387Y206352D01*
X284481Y206415D01*
X284572Y206482D01*
X284662Y206551D01*
X284749Y206624D01*
X284833Y206700D01*
X284914Y206779D01*
X284993Y206860D01*
X285069Y206944D01*
X285142Y207031D01*
X285211Y207121D01*
X285278Y207212D01*
X285341Y207306D01*
X285401Y207402D01*
X285458Y207500D01*
X285511Y207600D01*
X285561Y207702D01*
X285607Y207806D01*
X285649Y207911D01*
X285688Y208017D01*
X285723Y208125D01*
X285754Y208234D01*
X285782Y208344D01*
X285805Y208455D01*
X285825Y208566D01*
X285841Y208678D01*
X285853Y208791D01*
X285861Y208904D01*
X285865Y209017D01*
X285865Y209131D01*
X285861Y209244D01*
X285853Y209357D01*
X285841Y209470D01*
X285825Y209582D01*
X285805Y209693D01*
X285782Y209804D01*
X285754Y209914D01*
X285723Y210023D01*
X285688Y210131D01*
X285649Y210237D01*
X285607Y210342D01*
X285561Y210446D01*
X285511Y210548D01*
X285458Y210648D01*
X285401Y210746D01*
X285341Y210842D01*
X285278Y210936D01*
X285211Y211027D01*
X285142Y211117D01*
X285069Y211204D01*
X284993Y211288D01*
X284914Y211369D01*
X284833Y211448D01*
X284749Y211524D01*
X284662Y211597D01*
X284573Y211666D01*
X284481Y211733D01*
X287991Y215614D02*
X284801Y217848D01*
X287991Y215614D02*
X288072Y215554D01*
X288151Y215492D01*
X288228Y215426D01*
X288302Y215358D01*
X288373Y215287D01*
X288441Y215213D01*
X288507Y215136D01*
X288569Y215057D01*
X288629Y214976D01*
X288685Y214892D01*
X288738Y214807D01*
X288787Y214719D01*
X288833Y214630D01*
X288876Y214538D01*
X288915Y214445D01*
X288950Y214351D01*
X288982Y214256D01*
X289010Y214159D01*
X289034Y214061D01*
X289054Y213963D01*
X289071Y213863D01*
X289083Y213763D01*
X289092Y213663D01*
X289097Y213563D01*
X289098Y213462D01*
X289095Y213361D01*
X289088Y213261D01*
X289077Y213161D01*
X289063Y213061D01*
X289044Y212962D01*
X289022Y212864D01*
X288996Y212767D01*
X288966Y212670D01*
X288933Y212576D01*
X288896Y212482D01*
X288855Y212390D01*
X288810Y212299D01*
X288763Y212211D01*
X288711Y212124D01*
X288657Y212040D01*
X288599Y211957D01*
X288538Y211877D01*
X288474Y211799D01*
X288407Y211724D01*
X288338Y211651D01*
X288265Y211582D01*
X288190Y211515D01*
X288112Y211451D01*
X288032Y211390D01*
X287949Y211332D01*
X287865Y211278D01*
X287778Y211226D01*
X287690Y211179D01*
X287599Y211134D01*
X287507Y211093D01*
X287413Y211056D01*
X287319Y211023D01*
X287222Y210993D01*
X287125Y210967D01*
X287027Y210945D01*
X286928Y210926D01*
X286828Y210912D01*
X286728Y210901D01*
X286628Y210894D01*
X286527Y210891D01*
X286426Y210892D01*
X286326Y210897D01*
X286226Y210906D01*
X286126Y210918D01*
X286026Y210935D01*
X285928Y210955D01*
X285830Y210979D01*
X285733Y211007D01*
X285638Y211039D01*
X285544Y211074D01*
X285451Y211113D01*
X285359Y211156D01*
X285270Y211202D01*
X285182Y211251D01*
X285097Y211304D01*
X285013Y211360D01*
X285012Y211360D02*
X282886Y212849D01*
X203667Y331524D02*
X203667Y334770D01*
X203665Y334883D01*
X203659Y334996D01*
X203649Y335109D01*
X203635Y335222D01*
X203618Y335334D01*
X203596Y335445D01*
X203571Y335555D01*
X203541Y335665D01*
X203508Y335773D01*
X203471Y335880D01*
X203431Y335986D01*
X203386Y336090D01*
X203338Y336193D01*
X203287Y336294D01*
X203232Y336393D01*
X203174Y336490D01*
X203112Y336585D01*
X203047Y336678D01*
X202979Y336768D01*
X202908Y336856D01*
X202833Y336942D01*
X202756Y337025D01*
X202676Y337105D01*
X202593Y337182D01*
X202507Y337257D01*
X202419Y337328D01*
X202329Y337396D01*
X202236Y337461D01*
X202141Y337523D01*
X202044Y337581D01*
X201945Y337636D01*
X201844Y337687D01*
X201741Y337735D01*
X201637Y337780D01*
X201531Y337820D01*
X201424Y337857D01*
X201316Y337890D01*
X201206Y337920D01*
X201096Y337945D01*
X200985Y337967D01*
X200873Y337984D01*
X200760Y337998D01*
X200647Y338008D01*
X200534Y338014D01*
X200421Y338016D01*
X200308Y338014D01*
X200195Y338008D01*
X200082Y337998D01*
X199969Y337984D01*
X199857Y337967D01*
X199746Y337945D01*
X199636Y337920D01*
X199526Y337890D01*
X199418Y337857D01*
X199311Y337820D01*
X199205Y337780D01*
X199101Y337735D01*
X198998Y337687D01*
X198897Y337636D01*
X198798Y337581D01*
X198701Y337523D01*
X198606Y337461D01*
X198513Y337396D01*
X198423Y337328D01*
X198335Y337257D01*
X198249Y337182D01*
X198166Y337105D01*
X198086Y337025D01*
X198009Y336942D01*
X197934Y336856D01*
X197863Y336768D01*
X197795Y336678D01*
X197730Y336585D01*
X197668Y336490D01*
X197610Y336393D01*
X197555Y336294D01*
X197504Y336193D01*
X197456Y336090D01*
X197411Y335986D01*
X197371Y335880D01*
X197334Y335773D01*
X197301Y335665D01*
X197271Y335555D01*
X197246Y335445D01*
X197224Y335334D01*
X197207Y335222D01*
X197193Y335109D01*
X197183Y334996D01*
X197177Y334883D01*
X197175Y334770D01*
X191983Y335419D02*
X191983Y331524D01*
X191983Y335419D02*
X191985Y335520D01*
X191991Y335620D01*
X192001Y335720D01*
X192014Y335820D01*
X192032Y335919D01*
X192053Y336018D01*
X192078Y336115D01*
X192107Y336212D01*
X192140Y336307D01*
X192176Y336401D01*
X192216Y336493D01*
X192259Y336584D01*
X192306Y336673D01*
X192356Y336760D01*
X192410Y336846D01*
X192467Y336929D01*
X192527Y337009D01*
X192590Y337088D01*
X192657Y337164D01*
X192726Y337237D01*
X192798Y337307D01*
X192872Y337375D01*
X192949Y337440D01*
X193029Y337501D01*
X193111Y337560D01*
X193195Y337615D01*
X193281Y337667D01*
X193369Y337716D01*
X193459Y337761D01*
X193551Y337803D01*
X193644Y337841D01*
X193739Y337875D01*
X193834Y337906D01*
X193931Y337933D01*
X194029Y337956D01*
X194128Y337976D01*
X194228Y337991D01*
X194328Y338003D01*
X194428Y338011D01*
X194529Y338015D01*
X194629Y338015D01*
X194730Y338011D01*
X194830Y338003D01*
X194930Y337991D01*
X195030Y337976D01*
X195129Y337956D01*
X195227Y337933D01*
X195324Y337906D01*
X195419Y337875D01*
X195514Y337841D01*
X195607Y337803D01*
X195699Y337761D01*
X195789Y337716D01*
X195877Y337667D01*
X195963Y337615D01*
X196047Y337560D01*
X196129Y337501D01*
X196209Y337440D01*
X196286Y337375D01*
X196360Y337307D01*
X196432Y337237D01*
X196501Y337164D01*
X196568Y337088D01*
X196631Y337009D01*
X196691Y336929D01*
X196748Y336846D01*
X196802Y336760D01*
X196852Y336673D01*
X196899Y336584D01*
X196942Y336493D01*
X196982Y336401D01*
X197018Y336307D01*
X197051Y336212D01*
X197080Y336115D01*
X197105Y336018D01*
X197126Y335919D01*
X197144Y335820D01*
X197157Y335720D01*
X197167Y335620D01*
X197173Y335520D01*
X197175Y335419D01*
X197176Y335419D02*
X197176Y332823D01*
X191983Y342305D02*
X203667Y346200D01*
X191983Y350095D01*
X203667Y354384D02*
X203667Y357630D01*
X203665Y357743D01*
X203659Y357856D01*
X203649Y357969D01*
X203635Y358082D01*
X203618Y358194D01*
X203596Y358305D01*
X203571Y358415D01*
X203541Y358525D01*
X203508Y358633D01*
X203471Y358740D01*
X203431Y358846D01*
X203386Y358950D01*
X203338Y359053D01*
X203287Y359154D01*
X203232Y359253D01*
X203174Y359350D01*
X203112Y359445D01*
X203047Y359538D01*
X202979Y359628D01*
X202908Y359716D01*
X202833Y359802D01*
X202756Y359885D01*
X202676Y359965D01*
X202593Y360042D01*
X202507Y360117D01*
X202419Y360188D01*
X202329Y360256D01*
X202236Y360321D01*
X202141Y360383D01*
X202044Y360441D01*
X201945Y360496D01*
X201844Y360547D01*
X201741Y360595D01*
X201637Y360640D01*
X201531Y360680D01*
X201424Y360717D01*
X201316Y360750D01*
X201206Y360780D01*
X201096Y360805D01*
X200985Y360827D01*
X200873Y360844D01*
X200760Y360858D01*
X200647Y360868D01*
X200534Y360874D01*
X200421Y360876D01*
X200308Y360874D01*
X200195Y360868D01*
X200082Y360858D01*
X199969Y360844D01*
X199857Y360827D01*
X199746Y360805D01*
X199636Y360780D01*
X199526Y360750D01*
X199418Y360717D01*
X199311Y360680D01*
X199205Y360640D01*
X199101Y360595D01*
X198998Y360547D01*
X198897Y360496D01*
X198798Y360441D01*
X198701Y360383D01*
X198606Y360321D01*
X198513Y360256D01*
X198423Y360188D01*
X198335Y360117D01*
X198249Y360042D01*
X198166Y359965D01*
X198086Y359885D01*
X198009Y359802D01*
X197934Y359716D01*
X197863Y359628D01*
X197795Y359538D01*
X197730Y359445D01*
X197668Y359350D01*
X197610Y359253D01*
X197555Y359154D01*
X197504Y359053D01*
X197456Y358950D01*
X197411Y358846D01*
X197371Y358740D01*
X197334Y358633D01*
X197301Y358525D01*
X197271Y358415D01*
X197246Y358305D01*
X197224Y358194D01*
X197207Y358082D01*
X197193Y357969D01*
X197183Y357856D01*
X197177Y357743D01*
X197175Y357630D01*
X191983Y358279D02*
X191983Y354384D01*
X191983Y358279D02*
X191985Y358380D01*
X191991Y358480D01*
X192001Y358580D01*
X192014Y358680D01*
X192032Y358779D01*
X192053Y358878D01*
X192078Y358975D01*
X192107Y359072D01*
X192140Y359167D01*
X192176Y359261D01*
X192216Y359353D01*
X192259Y359444D01*
X192306Y359533D01*
X192356Y359620D01*
X192410Y359706D01*
X192467Y359789D01*
X192527Y359869D01*
X192590Y359948D01*
X192657Y360024D01*
X192726Y360097D01*
X192798Y360167D01*
X192872Y360235D01*
X192949Y360300D01*
X193029Y360361D01*
X193111Y360420D01*
X193195Y360475D01*
X193281Y360527D01*
X193369Y360576D01*
X193459Y360621D01*
X193551Y360663D01*
X193644Y360701D01*
X193739Y360735D01*
X193834Y360766D01*
X193931Y360793D01*
X194029Y360816D01*
X194128Y360836D01*
X194228Y360851D01*
X194328Y360863D01*
X194428Y360871D01*
X194529Y360875D01*
X194629Y360875D01*
X194730Y360871D01*
X194830Y360863D01*
X194930Y360851D01*
X195030Y360836D01*
X195129Y360816D01*
X195227Y360793D01*
X195324Y360766D01*
X195419Y360735D01*
X195514Y360701D01*
X195607Y360663D01*
X195699Y360621D01*
X195789Y360576D01*
X195877Y360527D01*
X195963Y360475D01*
X196047Y360420D01*
X196129Y360361D01*
X196209Y360300D01*
X196286Y360235D01*
X196360Y360167D01*
X196432Y360097D01*
X196501Y360024D01*
X196568Y359948D01*
X196631Y359869D01*
X196691Y359789D01*
X196748Y359706D01*
X196802Y359620D01*
X196852Y359533D01*
X196899Y359444D01*
X196942Y359353D01*
X196982Y359261D01*
X197018Y359167D01*
X197051Y359072D01*
X197080Y358975D01*
X197105Y358878D01*
X197126Y358779D01*
X197144Y358680D01*
X197157Y358580D01*
X197167Y358480D01*
X197173Y358380D01*
X197175Y358279D01*
X197176Y358279D02*
X197176Y355683D01*
D11*
X435071Y401025D02*
X435071Y418805D01*
X440010Y418805D01*
X440150Y418803D01*
X440289Y418797D01*
X440429Y418787D01*
X440568Y418773D01*
X440707Y418756D01*
X440845Y418734D01*
X440982Y418708D01*
X441119Y418679D01*
X441255Y418646D01*
X441389Y418609D01*
X441523Y418568D01*
X441655Y418523D01*
X441787Y418474D01*
X441916Y418422D01*
X442044Y418367D01*
X442171Y418307D01*
X442296Y418244D01*
X442419Y418178D01*
X442540Y418108D01*
X442659Y418035D01*
X442776Y417958D01*
X442890Y417878D01*
X443003Y417795D01*
X443113Y417709D01*
X443220Y417619D01*
X443325Y417527D01*
X443427Y417432D01*
X443527Y417334D01*
X443624Y417233D01*
X443718Y417129D01*
X443808Y417023D01*
X443896Y416914D01*
X443981Y416803D01*
X444062Y416689D01*
X444141Y416574D01*
X444216Y416456D01*
X444287Y416336D01*
X444355Y416213D01*
X444420Y416090D01*
X444481Y415964D01*
X444539Y415836D01*
X444593Y415708D01*
X444643Y415577D01*
X444690Y415445D01*
X444733Y415312D01*
X444772Y415178D01*
X444807Y415043D01*
X444838Y414907D01*
X444866Y414769D01*
X444889Y414632D01*
X444909Y414493D01*
X444925Y414354D01*
X444937Y414215D01*
X444945Y414076D01*
X444949Y413936D01*
X444949Y413796D01*
X444945Y413656D01*
X444937Y413517D01*
X444925Y413378D01*
X444909Y413239D01*
X444889Y413100D01*
X444866Y412963D01*
X444838Y412825D01*
X444807Y412689D01*
X444772Y412554D01*
X444733Y412420D01*
X444690Y412287D01*
X444643Y412155D01*
X444593Y412024D01*
X444539Y411896D01*
X444481Y411768D01*
X444420Y411642D01*
X444355Y411519D01*
X444287Y411397D01*
X444216Y411276D01*
X444141Y411158D01*
X444062Y411043D01*
X443981Y410929D01*
X443896Y410818D01*
X443808Y410709D01*
X443718Y410603D01*
X443624Y410499D01*
X443527Y410398D01*
X443427Y410300D01*
X443325Y410205D01*
X443220Y410113D01*
X443113Y410023D01*
X443003Y409937D01*
X442890Y409854D01*
X442776Y409774D01*
X442659Y409697D01*
X442540Y409624D01*
X442419Y409554D01*
X442296Y409488D01*
X442171Y409425D01*
X442044Y409365D01*
X441916Y409310D01*
X441787Y409258D01*
X441655Y409209D01*
X441523Y409164D01*
X441389Y409123D01*
X441255Y409086D01*
X441119Y409053D01*
X440982Y409024D01*
X440845Y408998D01*
X440707Y408976D01*
X440568Y408959D01*
X440429Y408945D01*
X440289Y408935D01*
X440150Y408929D01*
X440010Y408927D01*
X435071Y408927D01*
X451066Y414854D02*
X456005Y418805D01*
X456005Y401025D01*
X451066Y401025D02*
X460944Y401025D01*
X335476Y238382D02*
X335476Y220602D01*
X335476Y238382D02*
X340414Y238382D01*
X340554Y238380D01*
X340693Y238374D01*
X340833Y238364D01*
X340972Y238350D01*
X341111Y238333D01*
X341249Y238311D01*
X341386Y238285D01*
X341523Y238256D01*
X341659Y238223D01*
X341793Y238186D01*
X341927Y238145D01*
X342059Y238100D01*
X342191Y238051D01*
X342320Y237999D01*
X342448Y237944D01*
X342575Y237884D01*
X342700Y237821D01*
X342823Y237755D01*
X342944Y237685D01*
X343063Y237612D01*
X343180Y237535D01*
X343294Y237455D01*
X343407Y237372D01*
X343517Y237286D01*
X343624Y237196D01*
X343729Y237104D01*
X343831Y237009D01*
X343931Y236911D01*
X344028Y236810D01*
X344122Y236706D01*
X344212Y236600D01*
X344300Y236491D01*
X344385Y236380D01*
X344466Y236266D01*
X344545Y236151D01*
X344620Y236033D01*
X344691Y235913D01*
X344759Y235790D01*
X344824Y235667D01*
X344885Y235541D01*
X344943Y235413D01*
X344997Y235285D01*
X345047Y235154D01*
X345094Y235022D01*
X345137Y234889D01*
X345176Y234755D01*
X345211Y234620D01*
X345242Y234484D01*
X345270Y234346D01*
X345293Y234209D01*
X345313Y234070D01*
X345329Y233931D01*
X345341Y233792D01*
X345349Y233653D01*
X345353Y233513D01*
X345353Y233373D01*
X345349Y233233D01*
X345341Y233094D01*
X345329Y232955D01*
X345313Y232816D01*
X345293Y232677D01*
X345270Y232540D01*
X345242Y232402D01*
X345211Y232266D01*
X345176Y232131D01*
X345137Y231997D01*
X345094Y231864D01*
X345047Y231732D01*
X344997Y231601D01*
X344943Y231473D01*
X344885Y231345D01*
X344824Y231219D01*
X344759Y231096D01*
X344691Y230974D01*
X344620Y230853D01*
X344545Y230735D01*
X344466Y230620D01*
X344385Y230506D01*
X344300Y230395D01*
X344212Y230286D01*
X344122Y230180D01*
X344028Y230076D01*
X343931Y229975D01*
X343831Y229877D01*
X343729Y229782D01*
X343624Y229690D01*
X343517Y229600D01*
X343407Y229514D01*
X343294Y229431D01*
X343180Y229351D01*
X343063Y229274D01*
X342944Y229201D01*
X342823Y229131D01*
X342700Y229065D01*
X342575Y229002D01*
X342448Y228942D01*
X342320Y228887D01*
X342191Y228835D01*
X342059Y228786D01*
X341927Y228741D01*
X341793Y228700D01*
X341659Y228663D01*
X341523Y228630D01*
X341386Y228601D01*
X341249Y228575D01*
X341111Y228553D01*
X340972Y228536D01*
X340833Y228522D01*
X340693Y228512D01*
X340554Y228506D01*
X340414Y228504D01*
X335476Y228504D01*
X351471Y220602D02*
X356409Y220602D01*
X356409Y220601D02*
X356549Y220603D01*
X356688Y220609D01*
X356828Y220619D01*
X356967Y220633D01*
X357106Y220650D01*
X357244Y220672D01*
X357381Y220698D01*
X357518Y220727D01*
X357654Y220760D01*
X357788Y220797D01*
X357922Y220838D01*
X358054Y220883D01*
X358186Y220932D01*
X358315Y220984D01*
X358443Y221039D01*
X358570Y221099D01*
X358695Y221162D01*
X358818Y221228D01*
X358939Y221298D01*
X359058Y221371D01*
X359175Y221448D01*
X359289Y221528D01*
X359402Y221611D01*
X359512Y221697D01*
X359619Y221787D01*
X359724Y221879D01*
X359826Y221974D01*
X359926Y222072D01*
X360023Y222173D01*
X360117Y222277D01*
X360207Y222383D01*
X360295Y222492D01*
X360380Y222603D01*
X360461Y222717D01*
X360540Y222832D01*
X360615Y222950D01*
X360686Y223071D01*
X360754Y223193D01*
X360819Y223316D01*
X360880Y223442D01*
X360938Y223570D01*
X360992Y223698D01*
X361042Y223829D01*
X361089Y223961D01*
X361132Y224094D01*
X361171Y224228D01*
X361206Y224363D01*
X361237Y224499D01*
X361265Y224637D01*
X361288Y224774D01*
X361308Y224913D01*
X361324Y225052D01*
X361336Y225191D01*
X361344Y225330D01*
X361348Y225470D01*
X361348Y225610D01*
X361344Y225750D01*
X361336Y225889D01*
X361324Y226028D01*
X361308Y226167D01*
X361288Y226306D01*
X361265Y226443D01*
X361237Y226581D01*
X361206Y226717D01*
X361171Y226852D01*
X361132Y226986D01*
X361089Y227119D01*
X361042Y227251D01*
X360992Y227382D01*
X360938Y227510D01*
X360880Y227638D01*
X360819Y227764D01*
X360754Y227887D01*
X360686Y228010D01*
X360615Y228130D01*
X360540Y228248D01*
X360461Y228363D01*
X360380Y228477D01*
X360295Y228588D01*
X360207Y228697D01*
X360117Y228803D01*
X360023Y228907D01*
X359926Y229008D01*
X359826Y229106D01*
X359724Y229201D01*
X359619Y229293D01*
X359512Y229383D01*
X359402Y229469D01*
X359289Y229552D01*
X359175Y229632D01*
X359058Y229709D01*
X358939Y229782D01*
X358818Y229852D01*
X358695Y229918D01*
X358570Y229981D01*
X358443Y230041D01*
X358315Y230096D01*
X358186Y230148D01*
X358054Y230197D01*
X357922Y230242D01*
X357788Y230283D01*
X357654Y230320D01*
X357518Y230353D01*
X357381Y230382D01*
X357244Y230408D01*
X357106Y230430D01*
X356967Y230447D01*
X356828Y230461D01*
X356688Y230471D01*
X356549Y230477D01*
X356409Y230479D01*
X357397Y238382D02*
X351471Y238382D01*
X357397Y238381D02*
X357521Y238379D01*
X357645Y238373D01*
X357769Y238363D01*
X357892Y238350D01*
X358015Y238332D01*
X358137Y238311D01*
X358259Y238286D01*
X358380Y238257D01*
X358499Y238224D01*
X358618Y238188D01*
X358735Y238147D01*
X358851Y238104D01*
X358966Y238056D01*
X359079Y238005D01*
X359191Y237950D01*
X359300Y237892D01*
X359408Y237831D01*
X359514Y237766D01*
X359618Y237698D01*
X359719Y237626D01*
X359819Y237552D01*
X359915Y237474D01*
X360010Y237394D01*
X360102Y237310D01*
X360191Y237224D01*
X360277Y237135D01*
X360361Y237043D01*
X360441Y236948D01*
X360519Y236852D01*
X360593Y236752D01*
X360665Y236651D01*
X360733Y236547D01*
X360798Y236441D01*
X360859Y236333D01*
X360917Y236224D01*
X360972Y236112D01*
X361023Y235999D01*
X361071Y235884D01*
X361114Y235768D01*
X361155Y235651D01*
X361191Y235532D01*
X361224Y235413D01*
X361253Y235292D01*
X361278Y235170D01*
X361299Y235048D01*
X361317Y234925D01*
X361330Y234802D01*
X361340Y234678D01*
X361346Y234554D01*
X361348Y234430D01*
X361346Y234306D01*
X361340Y234182D01*
X361330Y234058D01*
X361317Y233935D01*
X361299Y233812D01*
X361278Y233690D01*
X361253Y233568D01*
X361224Y233447D01*
X361191Y233328D01*
X361155Y233209D01*
X361114Y233092D01*
X361071Y232976D01*
X361023Y232861D01*
X360972Y232748D01*
X360917Y232636D01*
X360859Y232527D01*
X360798Y232419D01*
X360733Y232313D01*
X360665Y232209D01*
X360593Y232108D01*
X360519Y232008D01*
X360441Y231912D01*
X360361Y231817D01*
X360277Y231725D01*
X360191Y231636D01*
X360102Y231550D01*
X360010Y231466D01*
X359915Y231386D01*
X359819Y231308D01*
X359719Y231234D01*
X359618Y231162D01*
X359514Y231094D01*
X359408Y231029D01*
X359300Y230968D01*
X359191Y230910D01*
X359079Y230855D01*
X358966Y230804D01*
X358851Y230756D01*
X358735Y230713D01*
X358618Y230672D01*
X358499Y230636D01*
X358380Y230603D01*
X358259Y230574D01*
X358137Y230549D01*
X358015Y230528D01*
X357892Y230510D01*
X357769Y230497D01*
X357645Y230487D01*
X357521Y230481D01*
X357397Y230479D01*
X353446Y230479D01*
X239481Y250026D02*
X239481Y267806D01*
X244420Y267806D01*
X244560Y267804D01*
X244699Y267798D01*
X244839Y267788D01*
X244978Y267774D01*
X245117Y267757D01*
X245255Y267735D01*
X245392Y267709D01*
X245529Y267680D01*
X245665Y267647D01*
X245799Y267610D01*
X245933Y267569D01*
X246065Y267524D01*
X246197Y267475D01*
X246326Y267423D01*
X246454Y267368D01*
X246581Y267308D01*
X246706Y267245D01*
X246829Y267179D01*
X246950Y267109D01*
X247069Y267036D01*
X247186Y266959D01*
X247300Y266879D01*
X247413Y266796D01*
X247523Y266710D01*
X247630Y266620D01*
X247735Y266528D01*
X247837Y266433D01*
X247937Y266335D01*
X248034Y266234D01*
X248128Y266130D01*
X248218Y266024D01*
X248306Y265915D01*
X248391Y265804D01*
X248472Y265690D01*
X248551Y265575D01*
X248626Y265457D01*
X248697Y265337D01*
X248765Y265214D01*
X248830Y265091D01*
X248891Y264965D01*
X248949Y264837D01*
X249003Y264709D01*
X249053Y264578D01*
X249100Y264446D01*
X249143Y264313D01*
X249182Y264179D01*
X249217Y264044D01*
X249248Y263908D01*
X249276Y263770D01*
X249299Y263633D01*
X249319Y263494D01*
X249335Y263355D01*
X249347Y263216D01*
X249355Y263077D01*
X249359Y262937D01*
X249359Y262797D01*
X249355Y262657D01*
X249347Y262518D01*
X249335Y262379D01*
X249319Y262240D01*
X249299Y262101D01*
X249276Y261964D01*
X249248Y261826D01*
X249217Y261690D01*
X249182Y261555D01*
X249143Y261421D01*
X249100Y261288D01*
X249053Y261156D01*
X249003Y261025D01*
X248949Y260897D01*
X248891Y260769D01*
X248830Y260643D01*
X248765Y260520D01*
X248697Y260398D01*
X248626Y260277D01*
X248551Y260159D01*
X248472Y260044D01*
X248391Y259930D01*
X248306Y259819D01*
X248218Y259710D01*
X248128Y259604D01*
X248034Y259500D01*
X247937Y259399D01*
X247837Y259301D01*
X247735Y259206D01*
X247630Y259114D01*
X247523Y259024D01*
X247413Y258938D01*
X247300Y258855D01*
X247186Y258775D01*
X247069Y258698D01*
X246950Y258625D01*
X246829Y258555D01*
X246706Y258489D01*
X246581Y258426D01*
X246454Y258366D01*
X246326Y258311D01*
X246197Y258259D01*
X246065Y258210D01*
X245933Y258165D01*
X245799Y258124D01*
X245665Y258087D01*
X245529Y258054D01*
X245392Y258025D01*
X245255Y257999D01*
X245117Y257977D01*
X244978Y257960D01*
X244839Y257946D01*
X244699Y257936D01*
X244560Y257930D01*
X244420Y257928D01*
X239481Y257928D01*
X255476Y253977D02*
X259427Y267806D01*
X255476Y253977D02*
X265354Y253977D01*
X262391Y257928D02*
X262391Y250026D01*
X234639Y398868D02*
X234639Y416648D01*
X239578Y416648D01*
X239718Y416646D01*
X239857Y416640D01*
X239997Y416630D01*
X240136Y416616D01*
X240275Y416599D01*
X240413Y416577D01*
X240550Y416551D01*
X240687Y416522D01*
X240823Y416489D01*
X240957Y416452D01*
X241091Y416411D01*
X241223Y416366D01*
X241355Y416317D01*
X241484Y416265D01*
X241612Y416210D01*
X241739Y416150D01*
X241864Y416087D01*
X241987Y416021D01*
X242108Y415951D01*
X242227Y415878D01*
X242344Y415801D01*
X242458Y415721D01*
X242571Y415638D01*
X242681Y415552D01*
X242788Y415462D01*
X242893Y415370D01*
X242995Y415275D01*
X243095Y415177D01*
X243192Y415076D01*
X243286Y414972D01*
X243376Y414866D01*
X243464Y414757D01*
X243549Y414646D01*
X243630Y414532D01*
X243709Y414417D01*
X243784Y414299D01*
X243855Y414179D01*
X243923Y414056D01*
X243988Y413933D01*
X244049Y413807D01*
X244107Y413679D01*
X244161Y413551D01*
X244211Y413420D01*
X244258Y413288D01*
X244301Y413155D01*
X244340Y413021D01*
X244375Y412886D01*
X244406Y412750D01*
X244434Y412612D01*
X244457Y412475D01*
X244477Y412336D01*
X244493Y412197D01*
X244505Y412058D01*
X244513Y411919D01*
X244517Y411779D01*
X244517Y411639D01*
X244513Y411499D01*
X244505Y411360D01*
X244493Y411221D01*
X244477Y411082D01*
X244457Y410943D01*
X244434Y410806D01*
X244406Y410668D01*
X244375Y410532D01*
X244340Y410397D01*
X244301Y410263D01*
X244258Y410130D01*
X244211Y409998D01*
X244161Y409867D01*
X244107Y409739D01*
X244049Y409611D01*
X243988Y409485D01*
X243923Y409362D01*
X243855Y409240D01*
X243784Y409119D01*
X243709Y409001D01*
X243630Y408886D01*
X243549Y408772D01*
X243464Y408661D01*
X243376Y408552D01*
X243286Y408446D01*
X243192Y408342D01*
X243095Y408241D01*
X242995Y408143D01*
X242893Y408048D01*
X242788Y407956D01*
X242681Y407866D01*
X242571Y407780D01*
X242458Y407697D01*
X242344Y407617D01*
X242227Y407540D01*
X242108Y407467D01*
X241987Y407397D01*
X241864Y407331D01*
X241739Y407268D01*
X241612Y407208D01*
X241484Y407153D01*
X241355Y407101D01*
X241223Y407052D01*
X241091Y407007D01*
X240957Y406966D01*
X240823Y406929D01*
X240687Y406896D01*
X240550Y406867D01*
X240413Y406841D01*
X240275Y406819D01*
X240136Y406802D01*
X239997Y406788D01*
X239857Y406778D01*
X239718Y406772D01*
X239578Y406770D01*
X234639Y406770D01*
X250634Y398868D02*
X256561Y398868D01*
X256685Y398870D01*
X256809Y398876D01*
X256933Y398886D01*
X257056Y398899D01*
X257179Y398917D01*
X257301Y398938D01*
X257423Y398963D01*
X257544Y398992D01*
X257663Y399025D01*
X257782Y399061D01*
X257899Y399102D01*
X258015Y399145D01*
X258130Y399193D01*
X258243Y399244D01*
X258355Y399299D01*
X258464Y399357D01*
X258572Y399418D01*
X258678Y399483D01*
X258782Y399551D01*
X258883Y399623D01*
X258983Y399697D01*
X259079Y399775D01*
X259174Y399855D01*
X259266Y399939D01*
X259355Y400025D01*
X259441Y400114D01*
X259525Y400206D01*
X259605Y400301D01*
X259683Y400397D01*
X259757Y400497D01*
X259829Y400598D01*
X259897Y400702D01*
X259962Y400808D01*
X260023Y400916D01*
X260081Y401025D01*
X260136Y401137D01*
X260187Y401250D01*
X260235Y401365D01*
X260278Y401481D01*
X260319Y401598D01*
X260355Y401717D01*
X260388Y401836D01*
X260417Y401957D01*
X260442Y402079D01*
X260463Y402201D01*
X260481Y402324D01*
X260494Y402447D01*
X260504Y402571D01*
X260510Y402695D01*
X260512Y402819D01*
X260512Y404795D01*
X260510Y404919D01*
X260504Y405043D01*
X260494Y405167D01*
X260481Y405290D01*
X260463Y405413D01*
X260442Y405535D01*
X260417Y405657D01*
X260388Y405778D01*
X260355Y405897D01*
X260319Y406016D01*
X260278Y406133D01*
X260235Y406249D01*
X260187Y406364D01*
X260136Y406477D01*
X260081Y406589D01*
X260023Y406698D01*
X259962Y406806D01*
X259897Y406912D01*
X259829Y407016D01*
X259757Y407117D01*
X259683Y407217D01*
X259605Y407313D01*
X259525Y407408D01*
X259441Y407500D01*
X259355Y407589D01*
X259266Y407675D01*
X259174Y407759D01*
X259079Y407839D01*
X258983Y407917D01*
X258883Y407991D01*
X258782Y408063D01*
X258678Y408131D01*
X258572Y408196D01*
X258464Y408257D01*
X258355Y408315D01*
X258243Y408370D01*
X258130Y408421D01*
X258015Y408469D01*
X257899Y408512D01*
X257782Y408553D01*
X257663Y408589D01*
X257544Y408622D01*
X257423Y408651D01*
X257301Y408676D01*
X257179Y408697D01*
X257056Y408715D01*
X256933Y408728D01*
X256809Y408738D01*
X256685Y408744D01*
X256561Y408746D01*
X250634Y408746D01*
X250634Y416648D01*
X260512Y416648D01*
D12*
X339561Y311471D03*
D13*
X339046Y311619D03*
D14*
X338456Y311766D03*
D15*
X338014Y311913D03*
D16*
X337499Y312061D03*
D17*
X337057Y312208D03*
D18*
X336467Y312355D03*
D19*
X335952Y312503D03*
D20*
X335510Y312650D03*
D21*
X335068Y312797D03*
D22*
X334994Y312945D03*
D23*
X335068Y313092D03*
D24*
X335142Y313239D03*
D25*
X335068Y313386D03*
D26*
X335142Y313534D03*
D27*
X335142Y313681D03*
D28*
X335215Y313828D03*
X335215Y313976D03*
D29*
X335215Y314123D03*
D30*
X335289Y314270D03*
D31*
X335289Y314418D03*
X335289Y314565D03*
D32*
X335363Y314712D03*
D33*
X335363Y314860D03*
D34*
X335436Y315007D03*
D35*
X335363Y315154D03*
D36*
X335436Y315302D03*
D37*
X335510Y315449D03*
D38*
X335510Y315596D03*
X335510Y315744D03*
D39*
X335584Y315891D03*
D40*
X335584Y316038D03*
D41*
X335657Y316186D03*
D42*
X335584Y316333D03*
D43*
X335657Y316480D03*
D44*
X335731Y316628D03*
D45*
X335731Y316775D03*
X335731Y316922D03*
D46*
X335731Y317069D03*
D47*
X335805Y317217D03*
X335805Y317364D03*
D48*
X335805Y317511D03*
D49*
X335878Y317659D03*
D50*
X335878Y317806D03*
X335878Y317953D03*
D51*
X335952Y318101D03*
D52*
X335952Y318248D03*
D53*
X336026Y318395D03*
D54*
X335952Y318543D03*
D55*
X336025Y318690D03*
D56*
X336099Y318837D03*
D57*
X356577Y318837D03*
D58*
X336099Y318985D03*
D59*
X355987Y318985D03*
D58*
X336099Y319132D03*
D60*
X355545Y319132D03*
D61*
X336099Y319279D03*
D62*
X355030Y319279D03*
D63*
X336173Y319427D03*
D64*
X354588Y319427D03*
D63*
X336173Y319574D03*
D65*
X353999Y319574D03*
D66*
X336099Y319721D03*
D67*
X353557Y319721D03*
D66*
X336099Y319869D03*
D68*
X353041Y319869D03*
D63*
X336026Y320016D03*
D69*
X352599Y320016D03*
D66*
X335952Y320163D03*
D21*
X352452Y320163D03*
D66*
X335952Y320311D03*
D23*
X352452Y320311D03*
D66*
X335805Y320458D03*
D24*
X352525Y320458D03*
D66*
X335805Y320605D03*
D25*
X352599Y320605D03*
D63*
X335731Y320752D03*
D26*
X352525Y320752D03*
D66*
X335657Y320900D03*
D70*
X352599Y320900D03*
D66*
X335657Y321047D03*
D28*
X352599Y321047D03*
D66*
X335510Y321194D03*
D71*
X352673Y321194D03*
D66*
X335510Y321342D03*
D71*
X352673Y321342D03*
D63*
X335436Y321489D03*
D30*
X352673Y321489D03*
D66*
X335363Y321636D03*
D72*
X352746Y321636D03*
D66*
X335363Y321784D03*
D32*
X352746Y321784D03*
D66*
X335215Y321931D03*
D32*
X352746Y321931D03*
D66*
X335215Y322078D03*
D73*
X352820Y322078D03*
D63*
X335142Y322226D03*
D34*
X352820Y322226D03*
D61*
X335215Y322373D03*
D35*
X352894Y322373D03*
D61*
X335215Y322520D03*
D36*
X352820Y322520D03*
D74*
X335215Y322668D03*
D75*
X352894Y322668D03*
D76*
X335289Y322815D03*
D77*
X352967Y322815D03*
D55*
X335289Y322962D03*
D78*
X352967Y322962D03*
D55*
X335289Y323110D03*
D78*
X352967Y323110D03*
D54*
X335363Y323257D03*
D79*
X353041Y323257D03*
D52*
X335363Y323404D03*
D41*
X353041Y323404D03*
D80*
X335436Y323552D03*
D41*
X353041Y323552D03*
D51*
X335363Y323699D03*
D43*
X353041Y323699D03*
D81*
X335436Y323846D03*
D44*
X353115Y323846D03*
D82*
X335510Y323994D03*
D83*
X353188Y323994D03*
D48*
X335510Y324141D03*
D84*
X353115Y324141D03*
D48*
X335510Y324288D03*
D85*
X353188Y324288D03*
D86*
X335584Y324435D03*
D47*
X353188Y324435D03*
D46*
X335584Y324583D03*
D86*
X353262Y324583D03*
D46*
X335584Y324730D03*
D86*
X353262Y324730D03*
D84*
X335584Y324877D03*
D49*
X353262Y324877D03*
D87*
X335657Y325025D03*
D82*
X353336Y325025D03*
D44*
X335731Y325172D03*
D51*
X353336Y325172D03*
D43*
X335657Y325319D03*
D51*
X353336Y325319D03*
D42*
X335731Y325467D03*
D80*
X353409Y325467D03*
D40*
X335731Y325614D03*
D53*
X353409Y325614D03*
D79*
X335805Y325761D03*
D54*
X353483Y325761D03*
D79*
X335805Y325909D03*
D55*
X353409Y325909D03*
D88*
X335805Y326056D03*
D89*
X353483Y326056D03*
D77*
X335878Y326203D03*
D76*
X353557Y326203D03*
D36*
X335878Y326351D03*
D90*
X353557Y326351D03*
D36*
X335878Y326498D03*
D90*
X353557Y326498D03*
D35*
X335952Y326645D03*
D63*
X353557Y326645D03*
D33*
X335952Y326793D03*
D66*
X353630Y326793D03*
D73*
X336026Y326940D03*
D63*
X353557Y326940D03*
D32*
X335952Y327087D03*
D66*
X353483Y327087D03*
D91*
X336026Y327235D03*
D66*
X353483Y327235D03*
D92*
X336099Y327382D03*
D63*
X353409Y327382D03*
D29*
X336099Y327529D03*
D66*
X353336Y327529D03*
D29*
X336099Y327677D03*
D66*
X353336Y327677D03*
D71*
X336173Y327824D03*
D66*
X353188Y327824D03*
D27*
X336173Y327971D03*
D66*
X353188Y327971D03*
D70*
X336246Y328118D03*
D63*
X353115Y328118D03*
D93*
X336173Y328266D03*
D66*
X353041Y328266D03*
D25*
X336246Y328413D03*
D66*
X353041Y328413D03*
D24*
X336320Y328560D03*
D66*
X352894Y328560D03*
D23*
X336246Y328708D03*
D66*
X352894Y328708D03*
D22*
X336320Y328855D03*
D63*
X352820Y328855D03*
D69*
X336246Y329002D03*
D66*
X352746Y329002D03*
D94*
X335731Y329150D03*
D66*
X352746Y329150D03*
D67*
X335142Y329297D03*
D66*
X352599Y329297D03*
D65*
X334700Y329444D03*
D66*
X352599Y329444D03*
D95*
X334184Y329592D03*
D61*
X352599Y329592D03*
D96*
X333742Y329739D03*
D90*
X352673Y329739D03*
D60*
X333153Y329886D03*
D90*
X352673Y329886D03*
D97*
X332637Y330034D03*
D98*
X352673Y330034D03*
D99*
X332195Y330181D03*
D56*
X352746Y330181D03*
D100*
X341992Y330328D03*
D55*
X352673Y330328D03*
D101*
X341476Y330476D03*
D54*
X352746Y330476D03*
D14*
X340961Y330623D03*
D53*
X352820Y330623D03*
D102*
X340445Y330770D03*
D80*
X352820Y330770D03*
D16*
X340003Y330918D03*
D80*
X352820Y330918D03*
D103*
X339488Y331065D03*
D81*
X352820Y331065D03*
D18*
X338972Y331212D03*
D104*
X352894Y331212D03*
D19*
X338456Y331360D03*
D49*
X352967Y331360D03*
D105*
X337941Y331507D03*
D48*
X352894Y331507D03*
D106*
X337499Y331654D03*
D86*
X352967Y331654D03*
D22*
X337499Y331801D03*
D47*
X353041Y331801D03*
D23*
X337572Y331949D03*
D85*
X353041Y331949D03*
D24*
X337646Y332096D03*
D85*
X353041Y332096D03*
D25*
X337572Y332243D03*
D87*
X353041Y332243D03*
D26*
X337646Y332391D03*
D44*
X353115Y332391D03*
D107*
X337646Y332538D03*
D43*
X353188Y332538D03*
D28*
X337720Y332685D03*
D42*
X353115Y332685D03*
D28*
X337720Y332833D03*
D41*
X353188Y332833D03*
D29*
X337720Y332980D03*
D79*
X353188Y332980D03*
D30*
X337793Y333127D03*
D39*
X353262Y333127D03*
D31*
X337793Y333275D03*
D39*
X353262Y333275D03*
D31*
X337793Y333422D03*
D108*
X353262Y333422D03*
D32*
X337867Y333569D03*
D75*
X353336Y333569D03*
D33*
X337867Y333717D03*
D35*
X353336Y333717D03*
D34*
X337941Y333864D03*
D35*
X353336Y333864D03*
X337867Y334011D03*
D34*
X353409Y334011D03*
D36*
X337941Y334159D03*
D73*
X353409Y334159D03*
D75*
X338014Y334306D03*
D73*
X353409Y334306D03*
D38*
X338014Y334453D03*
D91*
X353409Y334453D03*
D38*
X338014Y334601D03*
D72*
X353483Y334601D03*
D79*
X338014Y334748D03*
D30*
X353557Y334748D03*
D40*
X338088Y334895D03*
D29*
X353483Y334895D03*
D41*
X338162Y335043D03*
D71*
X353557Y335043D03*
D42*
X338088Y335190D03*
D27*
X353557Y335190D03*
D43*
X338162Y335337D03*
D109*
X353630Y335337D03*
D87*
X338162Y335484D03*
D109*
X353630Y335484D03*
D45*
X338235Y335632D03*
D25*
X353630Y335632D03*
D45*
X338235Y335779D03*
D24*
X353704Y335779D03*
D46*
X338235Y335926D03*
D23*
X353778Y335926D03*
D47*
X338309Y336074D03*
D22*
X353704Y336074D03*
D47*
X338309Y336221D03*
D106*
X353704Y336221D03*
D48*
X338309Y336368D03*
D110*
X353262Y336368D03*
D49*
X338383Y336516D03*
D111*
X352746Y336516D03*
D50*
X338383Y336663D03*
D18*
X352231Y336663D03*
D50*
X338383Y336810D03*
D112*
X351715Y336810D03*
D51*
X338456Y336958D03*
D113*
X351273Y336958D03*
D52*
X338456Y337105D03*
D114*
X350758Y337105D03*
D53*
X338530Y337252D03*
D14*
X350242Y337252D03*
D54*
X338456Y337400D03*
D115*
X349726Y337400D03*
D55*
X338530Y337547D03*
D12*
X349284Y337547D03*
D56*
X338604Y337694D03*
D58*
X338604Y337842D03*
X338604Y337989D03*
D61*
X338604Y338136D03*
D63*
X338677Y338284D03*
X338677Y338431D03*
D66*
X338604Y338578D03*
X338604Y338726D03*
X338456Y338873D03*
X338456Y339020D03*
D63*
X338383Y339167D03*
D66*
X338309Y339315D03*
X338309Y339462D03*
X338162Y339609D03*
X338162Y339757D03*
D63*
X338088Y339904D03*
D66*
X338014Y340051D03*
X338014Y340199D03*
D63*
X337941Y340346D03*
D66*
X337867Y340493D03*
X337867Y340641D03*
X337720Y340788D03*
X337720Y340935D03*
D63*
X337646Y341083D03*
D61*
X337720Y341230D03*
X337720Y341377D03*
D74*
X337720Y341525D03*
D76*
X337793Y341672D03*
D55*
X337793Y341819D03*
X337793Y341967D03*
D54*
X337867Y342114D03*
D52*
X337867Y342261D03*
D80*
X337941Y342409D03*
D51*
X337867Y342556D03*
D81*
X337941Y342703D03*
D82*
X338014Y342850D03*
D116*
X337941Y342998D03*
D48*
X338014Y343145D03*
D47*
X338014Y343292D03*
D46*
X338088Y343440D03*
X338088Y343587D03*
D84*
X338088Y343734D03*
D87*
X338162Y343882D03*
D43*
X338162Y344029D03*
X338162Y344176D03*
D42*
X338235Y344324D03*
D40*
X338235Y344471D03*
D79*
X338309Y344618D03*
X338309Y344766D03*
D88*
X338309Y344913D03*
D77*
X338383Y345060D03*
D36*
X338383Y345208D03*
X338383Y345355D03*
D35*
X338456Y345502D03*
D33*
X338456Y345650D03*
D73*
X338530Y345797D03*
D32*
X338456Y345944D03*
D91*
X338530Y346092D03*
D92*
X338604Y346239D03*
D29*
X338604Y346386D03*
X338604Y346533D03*
D28*
X338604Y346681D03*
D27*
X338677Y346828D03*
D70*
X338751Y346975D03*
D93*
X338677Y347123D03*
D25*
X338751Y347270D03*
D23*
X338751Y347417D03*
X338751Y347565D03*
D22*
X338825Y347712D03*
D117*
X338677Y347859D03*
D118*
X338162Y348007D03*
D67*
X337646Y348154D03*
D119*
X337130Y348301D03*
D95*
X336688Y348449D03*
D120*
X336173Y348596D03*
D60*
X335657Y348743D03*
D97*
X335142Y348891D03*
D121*
X334626Y349038D03*
D11*
X456116Y312335D02*
X456116Y294555D01*
X456116Y312335D02*
X461055Y312335D01*
X461055Y312336D02*
X461195Y312334D01*
X461334Y312328D01*
X461474Y312318D01*
X461613Y312304D01*
X461752Y312287D01*
X461890Y312265D01*
X462027Y312239D01*
X462164Y312210D01*
X462300Y312177D01*
X462434Y312140D01*
X462568Y312099D01*
X462700Y312054D01*
X462832Y312005D01*
X462961Y311953D01*
X463089Y311898D01*
X463216Y311838D01*
X463341Y311775D01*
X463464Y311709D01*
X463585Y311639D01*
X463704Y311566D01*
X463821Y311489D01*
X463935Y311409D01*
X464048Y311326D01*
X464158Y311240D01*
X464265Y311150D01*
X464370Y311058D01*
X464472Y310963D01*
X464572Y310865D01*
X464669Y310764D01*
X464763Y310660D01*
X464853Y310554D01*
X464941Y310445D01*
X465026Y310334D01*
X465107Y310220D01*
X465186Y310105D01*
X465261Y309987D01*
X465332Y309867D01*
X465400Y309744D01*
X465465Y309621D01*
X465526Y309495D01*
X465584Y309367D01*
X465638Y309239D01*
X465688Y309108D01*
X465735Y308976D01*
X465778Y308843D01*
X465817Y308709D01*
X465852Y308574D01*
X465883Y308438D01*
X465911Y308300D01*
X465934Y308163D01*
X465954Y308024D01*
X465970Y307885D01*
X465982Y307746D01*
X465990Y307607D01*
X465994Y307467D01*
X465994Y307327D01*
X465990Y307187D01*
X465982Y307048D01*
X465970Y306909D01*
X465954Y306770D01*
X465934Y306631D01*
X465911Y306494D01*
X465883Y306356D01*
X465852Y306220D01*
X465817Y306085D01*
X465778Y305951D01*
X465735Y305818D01*
X465688Y305686D01*
X465638Y305555D01*
X465584Y305427D01*
X465526Y305299D01*
X465465Y305173D01*
X465400Y305050D01*
X465332Y304928D01*
X465261Y304807D01*
X465186Y304689D01*
X465107Y304574D01*
X465026Y304460D01*
X464941Y304349D01*
X464853Y304240D01*
X464763Y304134D01*
X464669Y304030D01*
X464572Y303929D01*
X464472Y303831D01*
X464370Y303736D01*
X464265Y303644D01*
X464158Y303554D01*
X464048Y303468D01*
X463935Y303385D01*
X463821Y303305D01*
X463704Y303228D01*
X463585Y303155D01*
X463464Y303085D01*
X463341Y303019D01*
X463216Y302956D01*
X463089Y302896D01*
X462961Y302841D01*
X462832Y302789D01*
X462700Y302740D01*
X462568Y302695D01*
X462434Y302654D01*
X462300Y302617D01*
X462164Y302584D01*
X462027Y302555D01*
X461890Y302529D01*
X461752Y302507D01*
X461613Y302490D01*
X461474Y302476D01*
X461334Y302466D01*
X461195Y302460D01*
X461055Y302458D01*
X456116Y302458D01*
X462043Y302458D02*
X465994Y294555D01*
X253387Y379494D02*
X248448Y379494D01*
X253387Y379494D02*
X253527Y379492D01*
X253666Y379486D01*
X253806Y379476D01*
X253945Y379462D01*
X254084Y379445D01*
X254222Y379423D01*
X254359Y379397D01*
X254496Y379368D01*
X254632Y379335D01*
X254766Y379298D01*
X254900Y379257D01*
X255032Y379212D01*
X255164Y379163D01*
X255293Y379111D01*
X255421Y379056D01*
X255548Y378996D01*
X255673Y378933D01*
X255796Y378867D01*
X255917Y378797D01*
X256036Y378724D01*
X256153Y378647D01*
X256267Y378567D01*
X256380Y378484D01*
X256490Y378398D01*
X256597Y378308D01*
X256702Y378216D01*
X256804Y378121D01*
X256904Y378023D01*
X257001Y377922D01*
X257095Y377818D01*
X257185Y377712D01*
X257273Y377603D01*
X257358Y377492D01*
X257439Y377378D01*
X257518Y377263D01*
X257593Y377145D01*
X257664Y377025D01*
X257732Y376902D01*
X257797Y376779D01*
X257858Y376653D01*
X257916Y376525D01*
X257970Y376397D01*
X258020Y376266D01*
X258067Y376134D01*
X258110Y376001D01*
X258149Y375867D01*
X258184Y375732D01*
X258215Y375596D01*
X258243Y375458D01*
X258266Y375321D01*
X258286Y375182D01*
X258302Y375043D01*
X258314Y374904D01*
X258322Y374765D01*
X258326Y374625D01*
X258326Y374485D01*
X258322Y374345D01*
X258314Y374206D01*
X258302Y374067D01*
X258286Y373928D01*
X258266Y373789D01*
X258243Y373652D01*
X258215Y373514D01*
X258184Y373378D01*
X258149Y373243D01*
X258110Y373109D01*
X258067Y372976D01*
X258020Y372844D01*
X257970Y372713D01*
X257916Y372585D01*
X257858Y372457D01*
X257797Y372331D01*
X257732Y372208D01*
X257664Y372086D01*
X257593Y371965D01*
X257518Y371847D01*
X257439Y371732D01*
X257358Y371618D01*
X257273Y371507D01*
X257185Y371398D01*
X257095Y371292D01*
X257001Y371188D01*
X256904Y371087D01*
X256804Y370989D01*
X256702Y370894D01*
X256597Y370802D01*
X256490Y370712D01*
X256380Y370626D01*
X256267Y370543D01*
X256153Y370463D01*
X256036Y370386D01*
X255917Y370313D01*
X255796Y370243D01*
X255673Y370177D01*
X255548Y370114D01*
X255421Y370054D01*
X255293Y369999D01*
X255164Y369947D01*
X255032Y369898D01*
X254900Y369853D01*
X254766Y369812D01*
X254632Y369775D01*
X254496Y369742D01*
X254359Y369713D01*
X254222Y369687D01*
X254084Y369665D01*
X253945Y369648D01*
X253806Y369634D01*
X253666Y369624D01*
X253527Y369618D01*
X253387Y369616D01*
X248448Y369616D01*
X248448Y387396D01*
X253387Y387396D01*
X253511Y387394D01*
X253635Y387388D01*
X253759Y387378D01*
X253882Y387365D01*
X254005Y387347D01*
X254127Y387326D01*
X254249Y387301D01*
X254370Y387272D01*
X254489Y387239D01*
X254608Y387203D01*
X254725Y387162D01*
X254841Y387119D01*
X254956Y387071D01*
X255069Y387020D01*
X255181Y386965D01*
X255290Y386907D01*
X255398Y386846D01*
X255504Y386781D01*
X255608Y386713D01*
X255709Y386641D01*
X255809Y386567D01*
X255905Y386489D01*
X256000Y386409D01*
X256092Y386325D01*
X256181Y386239D01*
X256267Y386150D01*
X256351Y386058D01*
X256431Y385963D01*
X256509Y385867D01*
X256583Y385767D01*
X256655Y385666D01*
X256723Y385562D01*
X256788Y385456D01*
X256849Y385348D01*
X256907Y385239D01*
X256962Y385127D01*
X257013Y385014D01*
X257061Y384899D01*
X257104Y384783D01*
X257145Y384666D01*
X257181Y384547D01*
X257214Y384428D01*
X257243Y384307D01*
X257268Y384185D01*
X257289Y384063D01*
X257307Y383940D01*
X257320Y383817D01*
X257330Y383693D01*
X257336Y383569D01*
X257338Y383445D01*
X257336Y383321D01*
X257330Y383197D01*
X257320Y383073D01*
X257307Y382950D01*
X257289Y382827D01*
X257268Y382705D01*
X257243Y382583D01*
X257214Y382462D01*
X257181Y382343D01*
X257145Y382224D01*
X257104Y382107D01*
X257061Y381991D01*
X257013Y381876D01*
X256962Y381763D01*
X256907Y381651D01*
X256849Y381542D01*
X256788Y381434D01*
X256723Y381328D01*
X256655Y381224D01*
X256583Y381123D01*
X256509Y381023D01*
X256431Y380927D01*
X256351Y380832D01*
X256267Y380740D01*
X256181Y380651D01*
X256092Y380565D01*
X256000Y380481D01*
X255905Y380401D01*
X255809Y380323D01*
X255709Y380249D01*
X255608Y380177D01*
X255504Y380109D01*
X255398Y380044D01*
X255290Y379983D01*
X255181Y379925D01*
X255069Y379870D01*
X254956Y379819D01*
X254841Y379771D01*
X254725Y379728D01*
X254608Y379687D01*
X254489Y379651D01*
X254370Y379618D01*
X254249Y379589D01*
X254127Y379564D01*
X254005Y379543D01*
X253882Y379525D01*
X253759Y379512D01*
X253635Y379502D01*
X253511Y379496D01*
X253387Y379494D01*
X248885Y334843D02*
X248885Y317063D01*
X248885Y334843D02*
X253824Y334843D01*
X253963Y334841D01*
X254101Y334835D01*
X254239Y334826D01*
X254377Y334812D01*
X254514Y334795D01*
X254651Y334773D01*
X254788Y334748D01*
X254923Y334719D01*
X255058Y334686D01*
X255191Y334650D01*
X255324Y334610D01*
X255455Y334566D01*
X255585Y334518D01*
X255714Y334467D01*
X255841Y334412D01*
X255967Y334354D01*
X256091Y334292D01*
X256213Y334227D01*
X256333Y334158D01*
X256452Y334086D01*
X256568Y334011D01*
X256682Y333932D01*
X256794Y333850D01*
X256903Y333765D01*
X257011Y333678D01*
X257115Y333587D01*
X257217Y333493D01*
X257316Y333396D01*
X257413Y333297D01*
X257507Y333195D01*
X257598Y333091D01*
X257685Y332983D01*
X257770Y332874D01*
X257852Y332762D01*
X257931Y332648D01*
X258006Y332532D01*
X258078Y332413D01*
X258147Y332293D01*
X258212Y332171D01*
X258274Y332047D01*
X258332Y331921D01*
X258387Y331794D01*
X258438Y331665D01*
X258486Y331535D01*
X258530Y331404D01*
X258570Y331271D01*
X258606Y331138D01*
X258639Y331003D01*
X258668Y330868D01*
X258693Y330731D01*
X258715Y330594D01*
X258732Y330457D01*
X258746Y330319D01*
X258755Y330181D01*
X258761Y330043D01*
X258763Y329904D01*
X258762Y329904D02*
X258762Y322002D01*
X258763Y322002D02*
X258761Y321863D01*
X258755Y321725D01*
X258746Y321587D01*
X258732Y321449D01*
X258715Y321312D01*
X258693Y321175D01*
X258668Y321038D01*
X258639Y320903D01*
X258606Y320768D01*
X258570Y320635D01*
X258530Y320502D01*
X258486Y320371D01*
X258438Y320241D01*
X258387Y320112D01*
X258332Y319985D01*
X258274Y319859D01*
X258212Y319735D01*
X258147Y319613D01*
X258078Y319493D01*
X258006Y319374D01*
X257931Y319258D01*
X257852Y319144D01*
X257770Y319032D01*
X257685Y318923D01*
X257598Y318815D01*
X257507Y318711D01*
X257413Y318609D01*
X257316Y318510D01*
X257217Y318413D01*
X257115Y318319D01*
X257011Y318228D01*
X256903Y318141D01*
X256794Y318056D01*
X256682Y317974D01*
X256568Y317895D01*
X256452Y317820D01*
X256333Y317748D01*
X256213Y317679D01*
X256091Y317614D01*
X255967Y317552D01*
X255841Y317494D01*
X255714Y317439D01*
X255585Y317388D01*
X255455Y317340D01*
X255324Y317296D01*
X255191Y317256D01*
X255058Y317220D01*
X254923Y317187D01*
X254788Y317158D01*
X254651Y317133D01*
X254514Y317111D01*
X254377Y317094D01*
X254239Y317080D01*
X254101Y317071D01*
X253963Y317065D01*
X253824Y317063D01*
X248885Y317063D01*
X252428Y343226D02*
X256379Y343226D01*
X252428Y343227D02*
X252304Y343229D01*
X252180Y343235D01*
X252056Y343245D01*
X251933Y343258D01*
X251810Y343276D01*
X251688Y343297D01*
X251566Y343322D01*
X251445Y343351D01*
X251326Y343384D01*
X251207Y343420D01*
X251090Y343461D01*
X250974Y343504D01*
X250859Y343552D01*
X250746Y343603D01*
X250634Y343658D01*
X250525Y343716D01*
X250417Y343777D01*
X250311Y343842D01*
X250207Y343910D01*
X250106Y343982D01*
X250006Y344056D01*
X249910Y344134D01*
X249815Y344214D01*
X249723Y344298D01*
X249634Y344384D01*
X249548Y344473D01*
X249464Y344565D01*
X249384Y344660D01*
X249306Y344756D01*
X249232Y344856D01*
X249160Y344957D01*
X249092Y345061D01*
X249027Y345167D01*
X248966Y345275D01*
X248908Y345384D01*
X248853Y345496D01*
X248802Y345609D01*
X248754Y345724D01*
X248711Y345840D01*
X248670Y345957D01*
X248634Y346076D01*
X248601Y346195D01*
X248572Y346316D01*
X248547Y346438D01*
X248526Y346560D01*
X248508Y346683D01*
X248495Y346806D01*
X248485Y346930D01*
X248479Y347054D01*
X248477Y347178D01*
X248477Y357055D01*
X248479Y357179D01*
X248485Y357303D01*
X248495Y357427D01*
X248508Y357550D01*
X248526Y357673D01*
X248547Y357795D01*
X248572Y357917D01*
X248601Y358038D01*
X248634Y358157D01*
X248670Y358276D01*
X248711Y358393D01*
X248754Y358509D01*
X248802Y358624D01*
X248853Y358737D01*
X248908Y358849D01*
X248966Y358958D01*
X249027Y359066D01*
X249092Y359172D01*
X249160Y359276D01*
X249232Y359377D01*
X249306Y359477D01*
X249384Y359573D01*
X249464Y359668D01*
X249548Y359760D01*
X249634Y359849D01*
X249723Y359935D01*
X249815Y360019D01*
X249910Y360099D01*
X250006Y360177D01*
X250106Y360251D01*
X250207Y360323D01*
X250311Y360391D01*
X250417Y360456D01*
X250525Y360517D01*
X250634Y360575D01*
X250746Y360630D01*
X250859Y360681D01*
X250974Y360729D01*
X251090Y360772D01*
X251207Y360813D01*
X251326Y360849D01*
X251445Y360882D01*
X251566Y360911D01*
X251688Y360936D01*
X251810Y360957D01*
X251933Y360975D01*
X252056Y360988D01*
X252180Y360998D01*
X252304Y361004D01*
X252428Y361006D01*
X256379Y361006D01*
X416964Y267624D02*
X416964Y249844D01*
X416964Y267624D02*
X421903Y267624D01*
X422043Y267622D01*
X422182Y267616D01*
X422322Y267606D01*
X422461Y267592D01*
X422600Y267575D01*
X422738Y267553D01*
X422875Y267527D01*
X423012Y267498D01*
X423148Y267465D01*
X423282Y267428D01*
X423416Y267387D01*
X423548Y267342D01*
X423680Y267293D01*
X423809Y267241D01*
X423937Y267186D01*
X424064Y267126D01*
X424189Y267063D01*
X424312Y266997D01*
X424433Y266927D01*
X424552Y266854D01*
X424669Y266777D01*
X424783Y266697D01*
X424896Y266614D01*
X425006Y266528D01*
X425113Y266438D01*
X425218Y266346D01*
X425320Y266251D01*
X425420Y266153D01*
X425517Y266052D01*
X425611Y265948D01*
X425701Y265842D01*
X425789Y265733D01*
X425874Y265622D01*
X425955Y265508D01*
X426034Y265393D01*
X426109Y265275D01*
X426180Y265155D01*
X426248Y265032D01*
X426313Y264909D01*
X426374Y264783D01*
X426432Y264655D01*
X426486Y264527D01*
X426536Y264396D01*
X426583Y264264D01*
X426626Y264131D01*
X426665Y263997D01*
X426700Y263862D01*
X426731Y263726D01*
X426759Y263588D01*
X426782Y263451D01*
X426802Y263312D01*
X426818Y263173D01*
X426830Y263034D01*
X426838Y262895D01*
X426842Y262755D01*
X426842Y262615D01*
X426838Y262475D01*
X426830Y262336D01*
X426818Y262197D01*
X426802Y262058D01*
X426782Y261919D01*
X426759Y261782D01*
X426731Y261644D01*
X426700Y261508D01*
X426665Y261373D01*
X426626Y261239D01*
X426583Y261106D01*
X426536Y260974D01*
X426486Y260843D01*
X426432Y260715D01*
X426374Y260587D01*
X426313Y260461D01*
X426248Y260338D01*
X426180Y260216D01*
X426109Y260095D01*
X426034Y259977D01*
X425955Y259862D01*
X425874Y259748D01*
X425789Y259637D01*
X425701Y259528D01*
X425611Y259422D01*
X425517Y259318D01*
X425420Y259217D01*
X425320Y259119D01*
X425218Y259024D01*
X425113Y258932D01*
X425006Y258842D01*
X424896Y258756D01*
X424783Y258673D01*
X424669Y258593D01*
X424552Y258516D01*
X424433Y258443D01*
X424312Y258373D01*
X424189Y258307D01*
X424064Y258244D01*
X423937Y258184D01*
X423809Y258129D01*
X423680Y258077D01*
X423548Y258028D01*
X423416Y257983D01*
X423282Y257942D01*
X423148Y257905D01*
X423012Y257872D01*
X422875Y257843D01*
X422738Y257817D01*
X422600Y257795D01*
X422461Y257778D01*
X422322Y257764D01*
X422182Y257754D01*
X422043Y257748D01*
X421903Y257746D01*
X416964Y257746D01*
X438392Y267624D02*
X438524Y267622D01*
X438655Y267616D01*
X438787Y267606D01*
X438918Y267593D01*
X439048Y267575D01*
X439178Y267554D01*
X439308Y267529D01*
X439436Y267500D01*
X439564Y267467D01*
X439690Y267430D01*
X439816Y267390D01*
X439940Y267346D01*
X440063Y267298D01*
X440184Y267247D01*
X440304Y267192D01*
X440422Y267134D01*
X440538Y267072D01*
X440652Y267006D01*
X440765Y266938D01*
X440875Y266866D01*
X440983Y266791D01*
X441089Y266712D01*
X441193Y266631D01*
X441294Y266546D01*
X441392Y266459D01*
X441488Y266368D01*
X441581Y266275D01*
X441672Y266179D01*
X441759Y266081D01*
X441844Y265980D01*
X441925Y265876D01*
X442004Y265770D01*
X442079Y265662D01*
X442151Y265552D01*
X442219Y265439D01*
X442285Y265325D01*
X442347Y265209D01*
X442405Y265091D01*
X442460Y264971D01*
X442511Y264850D01*
X442559Y264727D01*
X442603Y264603D01*
X442643Y264477D01*
X442680Y264351D01*
X442713Y264223D01*
X442742Y264095D01*
X442767Y263965D01*
X442788Y263835D01*
X442806Y263705D01*
X442819Y263574D01*
X442829Y263442D01*
X442835Y263311D01*
X442837Y263179D01*
X438392Y267625D02*
X438242Y267623D01*
X438093Y267617D01*
X437944Y267607D01*
X437795Y267594D01*
X437646Y267576D01*
X437498Y267555D01*
X437350Y267529D01*
X437204Y267500D01*
X437058Y267467D01*
X436913Y267430D01*
X436769Y267389D01*
X436626Y267345D01*
X436484Y267297D01*
X436344Y267245D01*
X436205Y267190D01*
X436067Y267131D01*
X435932Y267068D01*
X435797Y267002D01*
X435665Y266932D01*
X435535Y266859D01*
X435406Y266782D01*
X435279Y266702D01*
X435155Y266619D01*
X435033Y266533D01*
X434913Y266443D01*
X434796Y266350D01*
X434681Y266255D01*
X434568Y266156D01*
X434458Y266054D01*
X434351Y265950D01*
X434247Y265843D01*
X434145Y265733D01*
X434047Y265620D01*
X433951Y265505D01*
X433859Y265387D01*
X433769Y265267D01*
X433683Y265145D01*
X433600Y265021D01*
X433520Y264894D01*
X433444Y264766D01*
X433371Y264635D01*
X433301Y264502D01*
X433235Y264368D01*
X433173Y264232D01*
X433114Y264095D01*
X433058Y263956D01*
X433007Y263815D01*
X432959Y263674D01*
X441355Y259722D02*
X441451Y259815D01*
X441543Y259911D01*
X441633Y260010D01*
X441720Y260111D01*
X441805Y260214D01*
X441886Y260319D01*
X441964Y260427D01*
X442039Y260537D01*
X442112Y260649D01*
X442181Y260763D01*
X442247Y260879D01*
X442309Y260997D01*
X442368Y261116D01*
X442424Y261237D01*
X442477Y261360D01*
X442526Y261484D01*
X442571Y261609D01*
X442614Y261736D01*
X442652Y261863D01*
X442687Y261992D01*
X442718Y262121D01*
X442746Y262252D01*
X442770Y262383D01*
X442791Y262515D01*
X442807Y262647D01*
X442820Y262780D01*
X442830Y262913D01*
X442835Y263046D01*
X442837Y263179D01*
X441355Y259722D02*
X432959Y249844D01*
X442837Y249844D01*
X450934Y259970D02*
X450934Y265897D01*
X450934Y259970D02*
X454391Y255525D01*
X450934Y259970D02*
X447477Y255525D01*
X450934Y259970D02*
X456367Y261946D01*
X450934Y259970D02*
X445501Y261946D01*
D122*
X451601Y394410D02*
X422141Y394410D01*
X451601Y394410D02*
X451601Y374750D01*
X422141Y374750D01*
X422141Y394410D01*
D123*
X424598Y373229D02*
X424598Y363831D01*
X424598Y373229D02*
X428775Y373229D01*
X428775Y369052D02*
X424598Y369052D01*
X432637Y369052D02*
X435247Y369052D01*
X435348Y369050D01*
X435449Y369044D01*
X435550Y369034D01*
X435650Y369021D01*
X435750Y369003D01*
X435849Y368982D01*
X435947Y368956D01*
X436044Y368927D01*
X436140Y368895D01*
X436234Y368858D01*
X436327Y368818D01*
X436419Y368774D01*
X436508Y368727D01*
X436596Y368676D01*
X436682Y368622D01*
X436765Y368565D01*
X436847Y368505D01*
X436925Y368441D01*
X437002Y368375D01*
X437075Y368305D01*
X437146Y368233D01*
X437214Y368158D01*
X437279Y368080D01*
X437341Y368000D01*
X437400Y367918D01*
X437456Y367833D01*
X437508Y367746D01*
X437557Y367658D01*
X437603Y367567D01*
X437644Y367475D01*
X437683Y367381D01*
X437717Y367286D01*
X437748Y367190D01*
X437775Y367092D01*
X437799Y366994D01*
X437818Y366894D01*
X437834Y366794D01*
X437846Y366694D01*
X437854Y366593D01*
X437858Y366492D01*
X437858Y366390D01*
X437854Y366289D01*
X437846Y366188D01*
X437834Y366088D01*
X437818Y365988D01*
X437799Y365888D01*
X437775Y365790D01*
X437748Y365692D01*
X437717Y365596D01*
X437683Y365501D01*
X437644Y365407D01*
X437603Y365315D01*
X437557Y365224D01*
X437508Y365136D01*
X437456Y365049D01*
X437400Y364964D01*
X437341Y364882D01*
X437279Y364802D01*
X437214Y364724D01*
X437146Y364649D01*
X437075Y364577D01*
X437002Y364507D01*
X436925Y364441D01*
X436847Y364377D01*
X436765Y364317D01*
X436682Y364260D01*
X436596Y364206D01*
X436508Y364155D01*
X436419Y364108D01*
X436327Y364064D01*
X436234Y364024D01*
X436140Y363987D01*
X436044Y363955D01*
X435947Y363926D01*
X435849Y363900D01*
X435750Y363879D01*
X435650Y363861D01*
X435550Y363848D01*
X435449Y363838D01*
X435348Y363832D01*
X435247Y363830D01*
X435247Y363831D02*
X432637Y363831D01*
X432637Y373229D01*
X435247Y373229D01*
X435247Y373228D02*
X435337Y373226D01*
X435426Y373220D01*
X435516Y373211D01*
X435605Y373197D01*
X435693Y373180D01*
X435780Y373159D01*
X435867Y373134D01*
X435952Y373105D01*
X436036Y373073D01*
X436118Y373038D01*
X436199Y372998D01*
X436278Y372956D01*
X436355Y372910D01*
X436430Y372860D01*
X436503Y372808D01*
X436574Y372752D01*
X436642Y372694D01*
X436707Y372632D01*
X436770Y372568D01*
X436830Y372501D01*
X436887Y372432D01*
X436941Y372360D01*
X436992Y372286D01*
X437040Y372210D01*
X437084Y372132D01*
X437125Y372052D01*
X437163Y371970D01*
X437197Y371887D01*
X437227Y371802D01*
X437254Y371716D01*
X437277Y371630D01*
X437296Y371542D01*
X437311Y371453D01*
X437323Y371364D01*
X437331Y371275D01*
X437335Y371185D01*
X437335Y371095D01*
X437331Y371005D01*
X437323Y370916D01*
X437311Y370827D01*
X437296Y370738D01*
X437277Y370650D01*
X437254Y370564D01*
X437227Y370478D01*
X437197Y370393D01*
X437163Y370310D01*
X437125Y370228D01*
X437084Y370148D01*
X437040Y370070D01*
X436992Y369994D01*
X436941Y369920D01*
X436887Y369848D01*
X436830Y369779D01*
X436770Y369712D01*
X436707Y369648D01*
X436642Y369586D01*
X436574Y369528D01*
X436503Y369472D01*
X436430Y369420D01*
X436355Y369370D01*
X436278Y369324D01*
X436199Y369282D01*
X436118Y369242D01*
X436036Y369207D01*
X435952Y369175D01*
X435867Y369146D01*
X435780Y369121D01*
X435693Y369100D01*
X435605Y369083D01*
X435516Y369069D01*
X435426Y369060D01*
X435337Y369054D01*
X435247Y369052D01*
X441345Y371140D02*
X443955Y373229D01*
X443955Y363831D01*
X441345Y363831D02*
X446566Y363831D01*
D124*
X346912Y257241D02*
X346912Y254741D01*
X346912Y257241D02*
X346912Y259741D01*
X346912Y257241D02*
X341912Y254741D01*
X341912Y259741D02*
X346912Y257241D01*
X341912Y259741D02*
X341912Y254741D01*
X331912Y252241D02*
X331912Y262241D01*
X356912Y262241D01*
X356912Y252241D01*
X331912Y252241D01*
D123*
X337171Y264013D02*
X337171Y273411D01*
X339781Y273411D01*
X339781Y273412D02*
X339881Y273410D01*
X339981Y273404D01*
X340080Y273395D01*
X340180Y273381D01*
X340278Y273364D01*
X340376Y273343D01*
X340473Y273319D01*
X340569Y273290D01*
X340664Y273258D01*
X340757Y273223D01*
X340849Y273184D01*
X340940Y273141D01*
X341028Y273095D01*
X341115Y273045D01*
X341200Y272993D01*
X341283Y272937D01*
X341364Y272878D01*
X341442Y272815D01*
X341518Y272750D01*
X341592Y272682D01*
X341662Y272612D01*
X341730Y272538D01*
X341795Y272462D01*
X341858Y272384D01*
X341917Y272303D01*
X341973Y272220D01*
X342025Y272135D01*
X342075Y272048D01*
X342121Y271960D01*
X342164Y271869D01*
X342203Y271777D01*
X342238Y271684D01*
X342270Y271589D01*
X342299Y271493D01*
X342323Y271396D01*
X342344Y271298D01*
X342361Y271200D01*
X342375Y271100D01*
X342384Y271001D01*
X342390Y270901D01*
X342392Y270801D01*
X342392Y266624D01*
X342390Y266524D01*
X342384Y266424D01*
X342375Y266325D01*
X342361Y266225D01*
X342344Y266127D01*
X342323Y266029D01*
X342299Y265932D01*
X342270Y265836D01*
X342238Y265741D01*
X342203Y265648D01*
X342164Y265556D01*
X342121Y265465D01*
X342075Y265377D01*
X342025Y265290D01*
X341973Y265205D01*
X341917Y265122D01*
X341858Y265041D01*
X341795Y264963D01*
X341730Y264887D01*
X341662Y264813D01*
X341592Y264743D01*
X341518Y264675D01*
X341442Y264610D01*
X341364Y264547D01*
X341283Y264488D01*
X341200Y264432D01*
X341115Y264380D01*
X341028Y264330D01*
X340940Y264284D01*
X340849Y264241D01*
X340757Y264202D01*
X340664Y264167D01*
X340569Y264135D01*
X340473Y264106D01*
X340376Y264082D01*
X340278Y264061D01*
X340180Y264044D01*
X340080Y264030D01*
X339981Y264021D01*
X339881Y264015D01*
X339781Y264013D01*
X337171Y264013D01*
X346620Y271323D02*
X349230Y273411D01*
X349230Y264013D01*
X346620Y264013D02*
X351841Y264013D01*
D11*
X430045Y314369D02*
X442745Y314369D01*
X449095Y308019D01*
X449095Y295319D01*
X442745Y288969D01*
X423695Y295319D02*
X423695Y308019D01*
X430045Y314369D01*
X423695Y295319D02*
X430045Y288969D01*
X442745Y288969D01*
D122*
X359142Y274556D02*
X329682Y274556D01*
X329682Y294216D01*
X359142Y294216D01*
X359142Y274556D01*
D123*
X339672Y295984D02*
X339672Y305382D01*
X342283Y305382D01*
X342384Y305380D01*
X342485Y305374D01*
X342586Y305364D01*
X342686Y305351D01*
X342786Y305333D01*
X342885Y305312D01*
X342983Y305286D01*
X343080Y305257D01*
X343176Y305225D01*
X343270Y305188D01*
X343363Y305148D01*
X343455Y305104D01*
X343544Y305057D01*
X343632Y305006D01*
X343718Y304952D01*
X343801Y304895D01*
X343883Y304835D01*
X343961Y304771D01*
X344038Y304705D01*
X344111Y304635D01*
X344182Y304563D01*
X344250Y304488D01*
X344315Y304410D01*
X344377Y304330D01*
X344436Y304248D01*
X344492Y304163D01*
X344544Y304076D01*
X344593Y303988D01*
X344639Y303897D01*
X344680Y303805D01*
X344719Y303711D01*
X344753Y303616D01*
X344784Y303520D01*
X344811Y303422D01*
X344835Y303324D01*
X344854Y303224D01*
X344870Y303124D01*
X344882Y303024D01*
X344890Y302923D01*
X344894Y302822D01*
X344894Y302720D01*
X344890Y302619D01*
X344882Y302518D01*
X344870Y302418D01*
X344854Y302318D01*
X344835Y302218D01*
X344811Y302120D01*
X344784Y302022D01*
X344753Y301926D01*
X344719Y301831D01*
X344680Y301737D01*
X344639Y301645D01*
X344593Y301554D01*
X344544Y301466D01*
X344492Y301379D01*
X344436Y301294D01*
X344377Y301212D01*
X344315Y301132D01*
X344250Y301054D01*
X344182Y300979D01*
X344111Y300907D01*
X344038Y300837D01*
X343961Y300771D01*
X343883Y300707D01*
X343801Y300647D01*
X343718Y300590D01*
X343632Y300536D01*
X343544Y300485D01*
X343455Y300438D01*
X343363Y300394D01*
X343270Y300354D01*
X343176Y300317D01*
X343080Y300285D01*
X342983Y300256D01*
X342885Y300230D01*
X342786Y300209D01*
X342686Y300191D01*
X342586Y300178D01*
X342485Y300168D01*
X342384Y300162D01*
X342283Y300160D01*
X339672Y300160D01*
X342805Y300160D02*
X344893Y295984D01*
X348759Y303293D02*
X351370Y305382D01*
X351370Y295984D01*
X353980Y295984D02*
X348759Y295984D01*
D11*
X239640Y369227D02*
X239640Y381927D01*
X239640Y369227D02*
X233290Y362877D01*
X220590Y362877D01*
X214240Y369227D01*
X233290Y362877D02*
X239640Y356527D01*
X239640Y343827D01*
X233290Y337477D01*
X220590Y337477D01*
X214240Y343827D01*
X214240Y356527D01*
X220590Y362877D01*
X220590Y388277D02*
X233290Y388277D01*
X239640Y381927D01*
X220590Y388277D02*
X214240Y381927D01*
X214240Y369227D01*
X233290Y337477D02*
X239640Y331127D01*
X239640Y318427D01*
X233290Y312077D01*
X220590Y312077D01*
X214240Y318427D01*
X214240Y331127D01*
X220590Y337477D01*
D124*
X373408Y429770D02*
X373408Y457770D01*
X317408Y457770D01*
X317408Y429770D01*
X373408Y429770D01*
D125*
X318408Y423770D03*
D126*
X328408Y443770D03*
D124*
X322058Y443770D02*
X322060Y443929D01*
X322066Y444088D01*
X322076Y444246D01*
X322090Y444405D01*
X322108Y444563D01*
X322129Y444720D01*
X322155Y444877D01*
X322185Y445033D01*
X322218Y445189D01*
X322256Y445343D01*
X322297Y445497D01*
X322342Y445649D01*
X322391Y445800D01*
X322444Y445950D01*
X322500Y446099D01*
X322561Y446246D01*
X322624Y446391D01*
X322692Y446535D01*
X322763Y446678D01*
X322837Y446818D01*
X322915Y446956D01*
X322997Y447093D01*
X323082Y447227D01*
X323170Y447360D01*
X323261Y447490D01*
X323356Y447617D01*
X323454Y447742D01*
X323555Y447865D01*
X323659Y447985D01*
X323766Y448103D01*
X323876Y448218D01*
X323989Y448330D01*
X324104Y448439D01*
X324222Y448545D01*
X324343Y448649D01*
X324467Y448749D01*
X324592Y448846D01*
X324721Y448940D01*
X324851Y449030D01*
X324984Y449118D01*
X325119Y449202D01*
X325256Y449282D01*
X325395Y449360D01*
X325536Y449433D01*
X325678Y449503D01*
X325823Y449570D01*
X325969Y449633D01*
X326116Y449692D01*
X326265Y449748D01*
X326416Y449799D01*
X326567Y449847D01*
X326720Y449891D01*
X326874Y449932D01*
X327028Y449968D01*
X327184Y450001D01*
X327340Y450030D01*
X327497Y450054D01*
X327655Y450075D01*
X327813Y450092D01*
X327971Y450105D01*
X328130Y450114D01*
X328289Y450119D01*
X328448Y450120D01*
X328607Y450117D01*
X328765Y450110D01*
X328924Y450099D01*
X329082Y450084D01*
X329240Y450065D01*
X329397Y450042D01*
X329554Y450016D01*
X329710Y449985D01*
X329865Y449951D01*
X330019Y449912D01*
X330173Y449870D01*
X330325Y449824D01*
X330476Y449774D01*
X330625Y449720D01*
X330774Y449663D01*
X330920Y449602D01*
X331066Y449537D01*
X331209Y449469D01*
X331351Y449397D01*
X331491Y449321D01*
X331629Y449243D01*
X331765Y449160D01*
X331899Y449075D01*
X332030Y448986D01*
X332160Y448893D01*
X332287Y448798D01*
X332411Y448699D01*
X332534Y448597D01*
X332653Y448493D01*
X332770Y448385D01*
X332884Y448274D01*
X332995Y448161D01*
X333104Y448045D01*
X333209Y447926D01*
X333312Y447804D01*
X333411Y447680D01*
X333508Y447554D01*
X333601Y447425D01*
X333691Y447294D01*
X333777Y447160D01*
X333860Y447025D01*
X333940Y446887D01*
X334016Y446748D01*
X334089Y446607D01*
X334158Y446464D01*
X334224Y446319D01*
X334286Y446172D01*
X334344Y446025D01*
X334399Y445875D01*
X334450Y445725D01*
X334497Y445573D01*
X334540Y445420D01*
X334579Y445266D01*
X334615Y445111D01*
X334646Y444955D01*
X334674Y444799D01*
X334698Y444642D01*
X334718Y444484D01*
X334734Y444326D01*
X334746Y444167D01*
X334754Y444008D01*
X334758Y443849D01*
X334758Y443691D01*
X334754Y443532D01*
X334746Y443373D01*
X334734Y443214D01*
X334718Y443056D01*
X334698Y442898D01*
X334674Y442741D01*
X334646Y442585D01*
X334615Y442429D01*
X334579Y442274D01*
X334540Y442120D01*
X334497Y441967D01*
X334450Y441815D01*
X334399Y441665D01*
X334344Y441515D01*
X334286Y441368D01*
X334224Y441221D01*
X334158Y441076D01*
X334089Y440933D01*
X334016Y440792D01*
X333940Y440653D01*
X333860Y440515D01*
X333777Y440380D01*
X333691Y440246D01*
X333601Y440115D01*
X333508Y439986D01*
X333411Y439860D01*
X333312Y439736D01*
X333209Y439614D01*
X333104Y439495D01*
X332995Y439379D01*
X332884Y439266D01*
X332770Y439155D01*
X332653Y439047D01*
X332534Y438943D01*
X332411Y438841D01*
X332287Y438742D01*
X332160Y438647D01*
X332030Y438554D01*
X331899Y438465D01*
X331765Y438380D01*
X331629Y438297D01*
X331491Y438219D01*
X331351Y438143D01*
X331209Y438071D01*
X331066Y438003D01*
X330920Y437938D01*
X330774Y437877D01*
X330625Y437820D01*
X330476Y437766D01*
X330325Y437716D01*
X330173Y437670D01*
X330019Y437628D01*
X329865Y437589D01*
X329710Y437555D01*
X329554Y437524D01*
X329397Y437498D01*
X329240Y437475D01*
X329082Y437456D01*
X328924Y437441D01*
X328765Y437430D01*
X328607Y437423D01*
X328448Y437420D01*
X328289Y437421D01*
X328130Y437426D01*
X327971Y437435D01*
X327813Y437448D01*
X327655Y437465D01*
X327497Y437486D01*
X327340Y437510D01*
X327184Y437539D01*
X327028Y437572D01*
X326874Y437608D01*
X326720Y437649D01*
X326567Y437693D01*
X326416Y437741D01*
X326265Y437792D01*
X326116Y437848D01*
X325969Y437907D01*
X325823Y437970D01*
X325678Y438037D01*
X325536Y438107D01*
X325395Y438180D01*
X325256Y438258D01*
X325119Y438338D01*
X324984Y438422D01*
X324851Y438510D01*
X324721Y438600D01*
X324592Y438694D01*
X324467Y438791D01*
X324343Y438891D01*
X324222Y438995D01*
X324104Y439101D01*
X323989Y439210D01*
X323876Y439322D01*
X323766Y439437D01*
X323659Y439555D01*
X323555Y439675D01*
X323454Y439798D01*
X323356Y439923D01*
X323261Y440050D01*
X323170Y440180D01*
X323082Y440313D01*
X322997Y440447D01*
X322915Y440584D01*
X322837Y440722D01*
X322763Y440862D01*
X322692Y441005D01*
X322624Y441149D01*
X322561Y441294D01*
X322500Y441441D01*
X322444Y441590D01*
X322391Y441740D01*
X322342Y441891D01*
X322297Y442043D01*
X322256Y442197D01*
X322218Y442351D01*
X322185Y442507D01*
X322155Y442663D01*
X322129Y442820D01*
X322108Y442977D01*
X322090Y443135D01*
X322076Y443294D01*
X322066Y443452D01*
X322060Y443611D01*
X322058Y443770D01*
X370008Y437170D02*
X370008Y450370D01*
X360008Y450370D01*
X360008Y437170D01*
X370008Y437170D01*
D123*
X337379Y465225D02*
X337379Y472013D01*
X337379Y465225D02*
X337381Y465124D01*
X337387Y465023D01*
X337397Y464922D01*
X337410Y464822D01*
X337428Y464722D01*
X337449Y464623D01*
X337475Y464525D01*
X337504Y464428D01*
X337536Y464332D01*
X337573Y464238D01*
X337613Y464145D01*
X337657Y464053D01*
X337704Y463964D01*
X337755Y463876D01*
X337809Y463790D01*
X337866Y463707D01*
X337926Y463625D01*
X337990Y463547D01*
X338056Y463470D01*
X338126Y463397D01*
X338198Y463326D01*
X338273Y463258D01*
X338351Y463193D01*
X338431Y463131D01*
X338513Y463072D01*
X338598Y463016D01*
X338685Y462964D01*
X338773Y462915D01*
X338864Y462869D01*
X338956Y462828D01*
X339050Y462789D01*
X339145Y462755D01*
X339241Y462724D01*
X339339Y462697D01*
X339437Y462673D01*
X339537Y462654D01*
X339637Y462638D01*
X339737Y462626D01*
X339838Y462618D01*
X339939Y462614D01*
X340041Y462614D01*
X340142Y462618D01*
X340243Y462626D01*
X340343Y462638D01*
X340443Y462654D01*
X340543Y462673D01*
X340641Y462697D01*
X340739Y462724D01*
X340835Y462755D01*
X340930Y462789D01*
X341024Y462828D01*
X341116Y462869D01*
X341207Y462915D01*
X341295Y462964D01*
X341382Y463016D01*
X341467Y463072D01*
X341549Y463131D01*
X341629Y463193D01*
X341707Y463258D01*
X341782Y463326D01*
X341854Y463397D01*
X341924Y463470D01*
X341990Y463547D01*
X342054Y463625D01*
X342114Y463707D01*
X342171Y463790D01*
X342225Y463876D01*
X342276Y463964D01*
X342323Y464053D01*
X342367Y464145D01*
X342407Y464238D01*
X342444Y464332D01*
X342476Y464428D01*
X342505Y464525D01*
X342531Y464623D01*
X342552Y464722D01*
X342570Y464822D01*
X342583Y464922D01*
X342593Y465023D01*
X342599Y465124D01*
X342601Y465225D01*
X342601Y472013D01*
X346828Y462615D02*
X349439Y462615D01*
X349439Y462614D02*
X349540Y462616D01*
X349641Y462622D01*
X349742Y462632D01*
X349842Y462645D01*
X349942Y462663D01*
X350041Y462684D01*
X350139Y462710D01*
X350236Y462739D01*
X350332Y462771D01*
X350426Y462808D01*
X350519Y462848D01*
X350611Y462892D01*
X350700Y462939D01*
X350788Y462990D01*
X350874Y463044D01*
X350957Y463101D01*
X351039Y463161D01*
X351117Y463225D01*
X351194Y463291D01*
X351267Y463361D01*
X351338Y463433D01*
X351406Y463508D01*
X351471Y463586D01*
X351533Y463666D01*
X351592Y463748D01*
X351648Y463833D01*
X351700Y463920D01*
X351749Y464008D01*
X351795Y464099D01*
X351836Y464191D01*
X351875Y464285D01*
X351909Y464380D01*
X351940Y464476D01*
X351967Y464574D01*
X351991Y464672D01*
X352010Y464772D01*
X352026Y464872D01*
X352038Y464972D01*
X352046Y465073D01*
X352050Y465174D01*
X352050Y465276D01*
X352046Y465377D01*
X352038Y465478D01*
X352026Y465578D01*
X352010Y465678D01*
X351991Y465778D01*
X351967Y465876D01*
X351940Y465974D01*
X351909Y466070D01*
X351875Y466165D01*
X351836Y466259D01*
X351795Y466351D01*
X351749Y466442D01*
X351700Y466530D01*
X351648Y466617D01*
X351592Y466702D01*
X351533Y466784D01*
X351471Y466864D01*
X351406Y466942D01*
X351338Y467017D01*
X351267Y467089D01*
X351194Y467159D01*
X351117Y467225D01*
X351039Y467289D01*
X350957Y467349D01*
X350874Y467406D01*
X350788Y467460D01*
X350700Y467511D01*
X350611Y467558D01*
X350519Y467602D01*
X350426Y467642D01*
X350332Y467679D01*
X350236Y467711D01*
X350139Y467740D01*
X350041Y467766D01*
X349942Y467787D01*
X349842Y467805D01*
X349742Y467818D01*
X349641Y467828D01*
X349540Y467834D01*
X349439Y467836D01*
X349961Y472013D02*
X346828Y472013D01*
X349961Y472012D02*
X350051Y472010D01*
X350140Y472004D01*
X350230Y471995D01*
X350319Y471981D01*
X350407Y471964D01*
X350494Y471943D01*
X350581Y471918D01*
X350666Y471889D01*
X350750Y471857D01*
X350832Y471822D01*
X350913Y471782D01*
X350992Y471740D01*
X351069Y471694D01*
X351144Y471644D01*
X351217Y471592D01*
X351288Y471536D01*
X351356Y471478D01*
X351421Y471416D01*
X351484Y471352D01*
X351544Y471285D01*
X351601Y471216D01*
X351655Y471144D01*
X351706Y471070D01*
X351754Y470994D01*
X351798Y470916D01*
X351839Y470836D01*
X351877Y470754D01*
X351911Y470671D01*
X351941Y470586D01*
X351968Y470500D01*
X351991Y470414D01*
X352010Y470326D01*
X352025Y470237D01*
X352037Y470148D01*
X352045Y470059D01*
X352049Y469969D01*
X352049Y469879D01*
X352045Y469789D01*
X352037Y469700D01*
X352025Y469611D01*
X352010Y469522D01*
X351991Y469434D01*
X351968Y469348D01*
X351941Y469262D01*
X351911Y469177D01*
X351877Y469094D01*
X351839Y469012D01*
X351798Y468932D01*
X351754Y468854D01*
X351706Y468778D01*
X351655Y468704D01*
X351601Y468632D01*
X351544Y468563D01*
X351484Y468496D01*
X351421Y468432D01*
X351356Y468370D01*
X351288Y468312D01*
X351217Y468256D01*
X351144Y468204D01*
X351069Y468154D01*
X350992Y468108D01*
X350913Y468066D01*
X350832Y468026D01*
X350750Y467991D01*
X350666Y467959D01*
X350581Y467930D01*
X350494Y467905D01*
X350407Y467884D01*
X350319Y467867D01*
X350230Y467853D01*
X350140Y467844D01*
X350051Y467838D01*
X349961Y467836D01*
X347872Y467836D01*
D11*
X400622Y433261D02*
X420688Y433261D01*
X400622Y420638D02*
X400622Y413372D01*
X400622Y400749D02*
X420688Y400749D01*
D127*
X426529Y398748D02*
X426531Y398804D01*
X426537Y398860D01*
X426547Y398915D01*
X426560Y398969D01*
X426578Y399022D01*
X426599Y399074D01*
X426624Y399125D01*
X426652Y399173D01*
X426684Y399219D01*
X426719Y399263D01*
X426757Y399304D01*
X426797Y399343D01*
X426841Y399379D01*
X426886Y399411D01*
X426934Y399440D01*
X426984Y399466D01*
X427035Y399488D01*
X427088Y399507D01*
X427142Y399521D01*
X427197Y399532D01*
X427253Y399539D01*
X427309Y399542D01*
X427365Y399541D01*
X427421Y399536D01*
X427476Y399527D01*
X427531Y399514D01*
X427584Y399498D01*
X427637Y399477D01*
X427687Y399454D01*
X427736Y399426D01*
X427783Y399395D01*
X427827Y399361D01*
X427869Y399324D01*
X427909Y399284D01*
X427945Y399241D01*
X427978Y399196D01*
X428008Y399149D01*
X428035Y399100D01*
X428058Y399049D01*
X428077Y398996D01*
X428093Y398942D01*
X428105Y398887D01*
X428113Y398832D01*
X428117Y398776D01*
X428117Y398720D01*
X428113Y398664D01*
X428105Y398609D01*
X428093Y398554D01*
X428077Y398500D01*
X428058Y398447D01*
X428035Y398396D01*
X428008Y398347D01*
X427978Y398300D01*
X427945Y398255D01*
X427909Y398212D01*
X427869Y398172D01*
X427827Y398135D01*
X427783Y398101D01*
X427736Y398070D01*
X427687Y398042D01*
X427637Y398019D01*
X427584Y397998D01*
X427531Y397982D01*
X427476Y397969D01*
X427421Y397960D01*
X427365Y397955D01*
X427309Y397954D01*
X427253Y397957D01*
X427197Y397964D01*
X427142Y397975D01*
X427088Y397989D01*
X427035Y398008D01*
X426984Y398030D01*
X426934Y398056D01*
X426886Y398085D01*
X426841Y398117D01*
X426797Y398153D01*
X426757Y398192D01*
X426719Y398233D01*
X426684Y398277D01*
X426652Y398323D01*
X426624Y398371D01*
X426599Y398422D01*
X426578Y398474D01*
X426560Y398527D01*
X426547Y398581D01*
X426537Y398636D01*
X426531Y398692D01*
X426529Y398748D01*
D122*
X387876Y410169D02*
X380905Y410169D01*
X387876Y410169D02*
X387979Y410171D01*
X388081Y410177D01*
X388183Y410187D01*
X388285Y410200D01*
X388386Y410218D01*
X388487Y410240D01*
X388586Y410265D01*
X388685Y410294D01*
X388782Y410327D01*
X388878Y410363D01*
X388973Y410404D01*
X389066Y410447D01*
X389157Y410495D01*
X389246Y410545D01*
X389333Y410600D01*
X389418Y410657D01*
X389501Y410718D01*
X389582Y410782D01*
X389660Y410848D01*
X389735Y410918D01*
X389808Y410991D01*
X389878Y411066D01*
X389944Y411144D01*
X390008Y411225D01*
X390069Y411308D01*
X390126Y411393D01*
X390181Y411480D01*
X390231Y411569D01*
X390279Y411660D01*
X390322Y411753D01*
X390363Y411848D01*
X390399Y411944D01*
X390432Y412041D01*
X390461Y412140D01*
X390486Y412239D01*
X390508Y412340D01*
X390526Y412441D01*
X390539Y412543D01*
X390549Y412645D01*
X390555Y412747D01*
X390557Y412850D01*
X390555Y412953D01*
X390549Y413055D01*
X390539Y413157D01*
X390526Y413259D01*
X390508Y413360D01*
X390486Y413461D01*
X390461Y413560D01*
X390432Y413659D01*
X390399Y413756D01*
X390363Y413852D01*
X390322Y413947D01*
X390279Y414040D01*
X390231Y414131D01*
X390181Y414220D01*
X390126Y414307D01*
X390069Y414392D01*
X390008Y414475D01*
X389944Y414556D01*
X389878Y414634D01*
X389808Y414709D01*
X389735Y414782D01*
X389660Y414852D01*
X389582Y414918D01*
X389501Y414982D01*
X389418Y415043D01*
X389333Y415100D01*
X389246Y415155D01*
X389157Y415205D01*
X389066Y415253D01*
X388973Y415296D01*
X388878Y415337D01*
X388782Y415373D01*
X388685Y415406D01*
X388586Y415435D01*
X388487Y415460D01*
X388386Y415482D01*
X388285Y415500D01*
X388183Y415513D01*
X388081Y415523D01*
X387979Y415529D01*
X387876Y415531D01*
X380905Y415531D01*
X380905Y422567D02*
X380907Y422664D01*
X380913Y422761D01*
X380923Y422858D01*
X380936Y422954D01*
X380954Y423050D01*
X380975Y423145D01*
X381000Y423238D01*
X381029Y423331D01*
X381062Y423423D01*
X381098Y423513D01*
X381138Y423601D01*
X381181Y423688D01*
X381228Y423774D01*
X381279Y423857D01*
X381332Y423938D01*
X381389Y424017D01*
X381449Y424093D01*
X381512Y424167D01*
X381578Y424239D01*
X381646Y424307D01*
X381718Y424373D01*
X381792Y424436D01*
X381868Y424496D01*
X381947Y424553D01*
X382028Y424606D01*
X382112Y424657D01*
X382197Y424704D01*
X382284Y424747D01*
X382372Y424787D01*
X382462Y424823D01*
X382554Y424856D01*
X382647Y424885D01*
X382741Y424910D01*
X382835Y424931D01*
X382931Y424949D01*
X383027Y424962D01*
X383124Y424972D01*
X383221Y424978D01*
X383318Y424980D01*
X380905Y422567D02*
X380907Y422459D01*
X380913Y422351D01*
X380922Y422243D01*
X380935Y422135D01*
X380952Y422028D01*
X380973Y421922D01*
X380997Y421817D01*
X381025Y421712D01*
X381057Y421608D01*
X381092Y421506D01*
X381131Y421405D01*
X381173Y421305D01*
X381219Y421207D01*
X381268Y421111D01*
X381321Y421016D01*
X381377Y420923D01*
X381436Y420832D01*
X381498Y420744D01*
X381563Y420657D01*
X381631Y420573D01*
X381702Y420491D01*
X381776Y420412D01*
X381853Y420336D01*
X381932Y420262D01*
X382014Y420191D01*
X382098Y420123D01*
X382185Y420058D01*
X382273Y419996D01*
X382364Y419937D01*
X382457Y419881D01*
X382552Y419829D01*
X382648Y419780D01*
X382747Y419734D01*
X382846Y419692D01*
X382948Y419653D01*
X383050Y419618D01*
X385195Y424176D02*
X385125Y424247D01*
X385052Y424315D01*
X384976Y424380D01*
X384898Y424443D01*
X384818Y424502D01*
X384735Y424558D01*
X384650Y424611D01*
X384564Y424661D01*
X384475Y424707D01*
X384385Y424750D01*
X384293Y424790D01*
X384200Y424825D01*
X384105Y424858D01*
X384009Y424886D01*
X383912Y424911D01*
X383815Y424932D01*
X383716Y424949D01*
X383617Y424963D01*
X383518Y424972D01*
X383418Y424978D01*
X383318Y424980D01*
X385195Y424175D02*
X390557Y419618D01*
X390557Y424980D01*
X388474Y451551D02*
X388474Y481011D01*
X408134Y481011D01*
X408134Y451551D01*
X388474Y451551D01*
D123*
X387763Y463948D02*
X387763Y466036D01*
X387762Y463948D02*
X387760Y463859D01*
X387754Y463771D01*
X387745Y463683D01*
X387732Y463595D01*
X387715Y463508D01*
X387695Y463422D01*
X387670Y463337D01*
X387643Y463252D01*
X387611Y463169D01*
X387577Y463088D01*
X387538Y463008D01*
X387497Y462930D01*
X387452Y462853D01*
X387404Y462779D01*
X387353Y462706D01*
X387299Y462636D01*
X387241Y462569D01*
X387181Y462503D01*
X387119Y462441D01*
X387053Y462381D01*
X386986Y462323D01*
X386916Y462269D01*
X386843Y462218D01*
X386769Y462170D01*
X386692Y462125D01*
X386614Y462084D01*
X386534Y462045D01*
X386453Y462011D01*
X386370Y461979D01*
X386285Y461952D01*
X386200Y461927D01*
X386114Y461907D01*
X386027Y461890D01*
X385939Y461877D01*
X385851Y461868D01*
X385763Y461862D01*
X385674Y461860D01*
X385674Y461859D02*
X380453Y461859D01*
X380362Y461861D01*
X380271Y461867D01*
X380180Y461877D01*
X380090Y461891D01*
X380001Y461909D01*
X379912Y461930D01*
X379825Y461956D01*
X379739Y461985D01*
X379654Y462018D01*
X379570Y462055D01*
X379488Y462095D01*
X379409Y462139D01*
X379331Y462186D01*
X379255Y462237D01*
X379181Y462291D01*
X379110Y462348D01*
X379042Y462408D01*
X378976Y462471D01*
X378913Y462537D01*
X378853Y462605D01*
X378796Y462676D01*
X378742Y462750D01*
X378691Y462826D01*
X378644Y462903D01*
X378600Y462983D01*
X378560Y463065D01*
X378523Y463149D01*
X378490Y463233D01*
X378461Y463320D01*
X378435Y463407D01*
X378414Y463496D01*
X378396Y463585D01*
X378382Y463675D01*
X378372Y463766D01*
X378366Y463857D01*
X378364Y463948D01*
X378365Y463948D02*
X378365Y466036D01*
X385152Y469504D02*
X385051Y469506D01*
X384950Y469512D01*
X384849Y469522D01*
X384749Y469535D01*
X384649Y469553D01*
X384550Y469574D01*
X384452Y469600D01*
X384355Y469629D01*
X384259Y469661D01*
X384165Y469698D01*
X384072Y469738D01*
X383980Y469782D01*
X383891Y469829D01*
X383803Y469880D01*
X383717Y469934D01*
X383634Y469991D01*
X383552Y470051D01*
X383474Y470115D01*
X383397Y470181D01*
X383324Y470251D01*
X383253Y470323D01*
X383185Y470398D01*
X383120Y470476D01*
X383058Y470556D01*
X382999Y470638D01*
X382943Y470723D01*
X382891Y470810D01*
X382842Y470898D01*
X382796Y470989D01*
X382755Y471081D01*
X382716Y471175D01*
X382682Y471270D01*
X382651Y471366D01*
X382624Y471464D01*
X382600Y471562D01*
X382581Y471662D01*
X382565Y471762D01*
X382553Y471862D01*
X382545Y471963D01*
X382541Y472064D01*
X382541Y472166D01*
X382545Y472267D01*
X382553Y472368D01*
X382565Y472468D01*
X382581Y472568D01*
X382600Y472668D01*
X382624Y472766D01*
X382651Y472864D01*
X382682Y472960D01*
X382716Y473055D01*
X382755Y473149D01*
X382796Y473241D01*
X382842Y473332D01*
X382891Y473421D01*
X382943Y473507D01*
X382999Y473592D01*
X383058Y473674D01*
X383120Y473754D01*
X383185Y473832D01*
X383253Y473907D01*
X383324Y473979D01*
X383397Y474049D01*
X383474Y474115D01*
X383552Y474179D01*
X383634Y474239D01*
X383717Y474296D01*
X383803Y474350D01*
X383891Y474401D01*
X383980Y474448D01*
X384072Y474492D01*
X384165Y474532D01*
X384259Y474569D01*
X384355Y474601D01*
X384452Y474630D01*
X384550Y474656D01*
X384649Y474677D01*
X384749Y474695D01*
X384849Y474708D01*
X384950Y474718D01*
X385051Y474724D01*
X385152Y474726D01*
X385253Y474724D01*
X385354Y474718D01*
X385455Y474708D01*
X385555Y474695D01*
X385655Y474677D01*
X385754Y474656D01*
X385852Y474630D01*
X385949Y474601D01*
X386045Y474569D01*
X386139Y474532D01*
X386232Y474492D01*
X386324Y474448D01*
X386413Y474401D01*
X386501Y474350D01*
X386587Y474296D01*
X386670Y474239D01*
X386752Y474179D01*
X386830Y474115D01*
X386907Y474049D01*
X386980Y473979D01*
X387051Y473907D01*
X387119Y473832D01*
X387184Y473754D01*
X387246Y473674D01*
X387305Y473592D01*
X387361Y473507D01*
X387413Y473420D01*
X387462Y473332D01*
X387508Y473241D01*
X387549Y473149D01*
X387588Y473055D01*
X387622Y472960D01*
X387653Y472864D01*
X387680Y472766D01*
X387704Y472668D01*
X387723Y472568D01*
X387739Y472468D01*
X387751Y472368D01*
X387759Y472267D01*
X387763Y472166D01*
X387763Y472064D01*
X387759Y471963D01*
X387751Y471862D01*
X387739Y471762D01*
X387723Y471662D01*
X387704Y471562D01*
X387680Y471464D01*
X387653Y471366D01*
X387622Y471270D01*
X387588Y471175D01*
X387549Y471081D01*
X387508Y470989D01*
X387462Y470898D01*
X387413Y470810D01*
X387361Y470723D01*
X387305Y470638D01*
X387246Y470556D01*
X387184Y470476D01*
X387119Y470398D01*
X387051Y470323D01*
X386980Y470251D01*
X386907Y470181D01*
X386830Y470115D01*
X386752Y470051D01*
X386670Y469991D01*
X386587Y469934D01*
X386501Y469880D01*
X386413Y469829D01*
X386324Y469782D01*
X386232Y469738D01*
X386139Y469698D01*
X386045Y469661D01*
X385949Y469629D01*
X385852Y469600D01*
X385754Y469574D01*
X385655Y469553D01*
X385555Y469535D01*
X385455Y469522D01*
X385354Y469512D01*
X385253Y469506D01*
X385152Y469504D01*
X380453Y470027D02*
X380363Y470029D01*
X380274Y470035D01*
X380184Y470044D01*
X380095Y470058D01*
X380007Y470075D01*
X379920Y470096D01*
X379833Y470121D01*
X379748Y470150D01*
X379664Y470182D01*
X379582Y470217D01*
X379501Y470257D01*
X379422Y470299D01*
X379345Y470345D01*
X379270Y470395D01*
X379197Y470447D01*
X379126Y470503D01*
X379058Y470561D01*
X378993Y470623D01*
X378930Y470687D01*
X378870Y470754D01*
X378813Y470823D01*
X378759Y470895D01*
X378708Y470969D01*
X378660Y471045D01*
X378616Y471123D01*
X378575Y471203D01*
X378537Y471285D01*
X378503Y471368D01*
X378473Y471453D01*
X378446Y471539D01*
X378423Y471625D01*
X378404Y471713D01*
X378389Y471802D01*
X378377Y471891D01*
X378369Y471980D01*
X378365Y472070D01*
X378365Y472160D01*
X378369Y472250D01*
X378377Y472339D01*
X378389Y472428D01*
X378404Y472517D01*
X378423Y472605D01*
X378446Y472691D01*
X378473Y472777D01*
X378503Y472862D01*
X378537Y472945D01*
X378575Y473027D01*
X378616Y473107D01*
X378660Y473185D01*
X378708Y473261D01*
X378759Y473335D01*
X378813Y473407D01*
X378870Y473476D01*
X378930Y473543D01*
X378993Y473607D01*
X379058Y473669D01*
X379126Y473727D01*
X379197Y473783D01*
X379270Y473835D01*
X379345Y473885D01*
X379422Y473931D01*
X379501Y473973D01*
X379582Y474013D01*
X379664Y474048D01*
X379748Y474080D01*
X379833Y474109D01*
X379920Y474134D01*
X380007Y474155D01*
X380095Y474172D01*
X380184Y474186D01*
X380274Y474195D01*
X380363Y474201D01*
X380453Y474203D01*
X380543Y474201D01*
X380632Y474195D01*
X380722Y474186D01*
X380811Y474172D01*
X380899Y474155D01*
X380986Y474134D01*
X381073Y474109D01*
X381158Y474080D01*
X381242Y474048D01*
X381324Y474013D01*
X381405Y473973D01*
X381484Y473931D01*
X381561Y473885D01*
X381636Y473835D01*
X381709Y473783D01*
X381780Y473727D01*
X381848Y473669D01*
X381913Y473607D01*
X381976Y473543D01*
X382036Y473476D01*
X382093Y473407D01*
X382147Y473335D01*
X382198Y473261D01*
X382246Y473185D01*
X382290Y473107D01*
X382331Y473027D01*
X382369Y472945D01*
X382403Y472862D01*
X382433Y472777D01*
X382460Y472691D01*
X382483Y472605D01*
X382502Y472517D01*
X382517Y472428D01*
X382529Y472339D01*
X382537Y472250D01*
X382541Y472160D01*
X382541Y472070D01*
X382537Y471980D01*
X382529Y471891D01*
X382517Y471802D01*
X382502Y471713D01*
X382483Y471625D01*
X382460Y471539D01*
X382433Y471453D01*
X382403Y471368D01*
X382369Y471285D01*
X382331Y471203D01*
X382290Y471123D01*
X382246Y471045D01*
X382198Y470969D01*
X382147Y470895D01*
X382093Y470823D01*
X382036Y470754D01*
X381976Y470687D01*
X381913Y470623D01*
X381848Y470561D01*
X381780Y470503D01*
X381709Y470447D01*
X381636Y470395D01*
X381561Y470345D01*
X381484Y470299D01*
X381405Y470257D01*
X381324Y470217D01*
X381242Y470182D01*
X381158Y470150D01*
X381073Y470121D01*
X380986Y470096D01*
X380899Y470075D01*
X380811Y470058D01*
X380722Y470044D01*
X380632Y470035D01*
X380543Y470029D01*
X380453Y470027D01*
D122*
X301327Y481804D02*
X301327Y452344D01*
X281667Y452344D01*
X281667Y481804D01*
X301327Y481804D01*
D123*
X311976Y466362D02*
X311976Y464273D01*
X311975Y464273D02*
X311973Y464184D01*
X311967Y464096D01*
X311958Y464008D01*
X311945Y463920D01*
X311928Y463833D01*
X311908Y463747D01*
X311883Y463662D01*
X311856Y463577D01*
X311824Y463494D01*
X311790Y463413D01*
X311751Y463333D01*
X311710Y463255D01*
X311665Y463178D01*
X311617Y463104D01*
X311566Y463031D01*
X311512Y462961D01*
X311454Y462894D01*
X311394Y462828D01*
X311332Y462766D01*
X311266Y462706D01*
X311199Y462648D01*
X311129Y462594D01*
X311056Y462543D01*
X310982Y462495D01*
X310905Y462450D01*
X310827Y462409D01*
X310747Y462370D01*
X310666Y462336D01*
X310583Y462304D01*
X310498Y462277D01*
X310413Y462252D01*
X310327Y462232D01*
X310240Y462215D01*
X310152Y462202D01*
X310064Y462193D01*
X309976Y462187D01*
X309887Y462185D01*
X304666Y462185D01*
X304666Y462184D02*
X304575Y462186D01*
X304484Y462192D01*
X304393Y462202D01*
X304303Y462216D01*
X304214Y462234D01*
X304125Y462255D01*
X304038Y462281D01*
X303952Y462310D01*
X303867Y462343D01*
X303783Y462380D01*
X303701Y462420D01*
X303622Y462464D01*
X303544Y462511D01*
X303468Y462562D01*
X303394Y462616D01*
X303323Y462673D01*
X303255Y462733D01*
X303189Y462796D01*
X303126Y462862D01*
X303066Y462930D01*
X303009Y463001D01*
X302955Y463075D01*
X302904Y463151D01*
X302857Y463228D01*
X302813Y463308D01*
X302773Y463390D01*
X302736Y463474D01*
X302703Y463558D01*
X302674Y463645D01*
X302648Y463732D01*
X302627Y463821D01*
X302609Y463910D01*
X302595Y464000D01*
X302585Y464091D01*
X302579Y464182D01*
X302577Y464273D01*
X302578Y464273D02*
X302578Y466362D01*
X307799Y471919D02*
X307799Y475052D01*
X307798Y471919D02*
X307796Y471830D01*
X307790Y471742D01*
X307781Y471654D01*
X307768Y471566D01*
X307751Y471479D01*
X307731Y471393D01*
X307706Y471308D01*
X307679Y471223D01*
X307647Y471140D01*
X307613Y471059D01*
X307574Y470979D01*
X307533Y470901D01*
X307488Y470824D01*
X307440Y470750D01*
X307389Y470677D01*
X307335Y470607D01*
X307277Y470540D01*
X307217Y470474D01*
X307155Y470412D01*
X307089Y470352D01*
X307022Y470294D01*
X306952Y470240D01*
X306879Y470189D01*
X306805Y470141D01*
X306728Y470096D01*
X306650Y470055D01*
X306570Y470016D01*
X306489Y469982D01*
X306406Y469950D01*
X306321Y469923D01*
X306236Y469898D01*
X306150Y469878D01*
X306063Y469861D01*
X305975Y469848D01*
X305887Y469839D01*
X305799Y469833D01*
X305710Y469831D01*
X305710Y469830D02*
X305188Y469830D01*
X305087Y469832D01*
X304986Y469838D01*
X304885Y469848D01*
X304785Y469861D01*
X304685Y469879D01*
X304586Y469900D01*
X304488Y469926D01*
X304391Y469955D01*
X304295Y469987D01*
X304201Y470024D01*
X304108Y470064D01*
X304016Y470108D01*
X303927Y470155D01*
X303839Y470206D01*
X303753Y470260D01*
X303670Y470317D01*
X303588Y470377D01*
X303510Y470441D01*
X303433Y470507D01*
X303360Y470577D01*
X303289Y470649D01*
X303221Y470724D01*
X303156Y470802D01*
X303094Y470882D01*
X303035Y470964D01*
X302979Y471049D01*
X302927Y471136D01*
X302878Y471224D01*
X302832Y471315D01*
X302791Y471407D01*
X302752Y471501D01*
X302718Y471596D01*
X302687Y471692D01*
X302660Y471790D01*
X302636Y471888D01*
X302617Y471988D01*
X302601Y472088D01*
X302589Y472188D01*
X302581Y472289D01*
X302577Y472390D01*
X302577Y472492D01*
X302581Y472593D01*
X302589Y472694D01*
X302601Y472794D01*
X302617Y472894D01*
X302636Y472994D01*
X302660Y473092D01*
X302687Y473190D01*
X302718Y473286D01*
X302752Y473381D01*
X302791Y473475D01*
X302832Y473567D01*
X302878Y473658D01*
X302927Y473747D01*
X302979Y473833D01*
X303035Y473918D01*
X303094Y474000D01*
X303156Y474080D01*
X303221Y474158D01*
X303289Y474233D01*
X303360Y474305D01*
X303433Y474375D01*
X303510Y474441D01*
X303588Y474505D01*
X303670Y474565D01*
X303753Y474622D01*
X303839Y474676D01*
X303927Y474727D01*
X304016Y474774D01*
X304108Y474818D01*
X304201Y474858D01*
X304295Y474895D01*
X304391Y474927D01*
X304488Y474956D01*
X304586Y474982D01*
X304685Y475003D01*
X304785Y475021D01*
X304885Y475034D01*
X304986Y475044D01*
X305087Y475050D01*
X305188Y475052D01*
X307799Y475052D01*
X307925Y475050D01*
X308051Y475044D01*
X308177Y475035D01*
X308302Y475022D01*
X308427Y475004D01*
X308552Y474984D01*
X308676Y474959D01*
X308799Y474931D01*
X308921Y474899D01*
X309042Y474863D01*
X309162Y474824D01*
X309280Y474781D01*
X309397Y474734D01*
X309513Y474684D01*
X309628Y474630D01*
X309740Y474574D01*
X309851Y474513D01*
X309960Y474450D01*
X310067Y474383D01*
X310172Y474313D01*
X310275Y474239D01*
X310375Y474163D01*
X310473Y474084D01*
X310569Y474002D01*
X310662Y473916D01*
X310753Y473829D01*
X310840Y473738D01*
X310926Y473645D01*
X311008Y473549D01*
X311087Y473451D01*
X311163Y473351D01*
X311237Y473248D01*
X311307Y473143D01*
X311374Y473036D01*
X311437Y472927D01*
X311498Y472816D01*
X311554Y472704D01*
X311608Y472589D01*
X311658Y472473D01*
X311705Y472356D01*
X311748Y472238D01*
X311787Y472118D01*
X311823Y471997D01*
X311855Y471875D01*
X311883Y471752D01*
X311908Y471628D01*
X311928Y471503D01*
X311946Y471378D01*
X311959Y471253D01*
X311968Y471127D01*
X311974Y471001D01*
X311976Y470875D01*
D122*
X281558Y490123D02*
X281558Y441359D01*
X258954Y441359D01*
X258954Y490123D01*
X281558Y490123D01*
D11*
X281812Y494441D02*
X259208Y494441D01*
D123*
X257048Y458976D02*
X257048Y456887D01*
X257046Y456798D01*
X257040Y456710D01*
X257031Y456622D01*
X257018Y456534D01*
X257001Y456447D01*
X256981Y456361D01*
X256956Y456276D01*
X256929Y456191D01*
X256897Y456108D01*
X256863Y456027D01*
X256824Y455947D01*
X256783Y455869D01*
X256738Y455792D01*
X256690Y455718D01*
X256639Y455645D01*
X256585Y455575D01*
X256527Y455508D01*
X256467Y455442D01*
X256405Y455380D01*
X256339Y455320D01*
X256272Y455262D01*
X256202Y455208D01*
X256129Y455157D01*
X256055Y455109D01*
X255978Y455064D01*
X255900Y455023D01*
X255820Y454984D01*
X255739Y454950D01*
X255656Y454918D01*
X255571Y454891D01*
X255486Y454866D01*
X255400Y454846D01*
X255313Y454829D01*
X255225Y454816D01*
X255137Y454807D01*
X255049Y454801D01*
X254960Y454799D01*
X249738Y454799D01*
X249738Y454798D02*
X249647Y454800D01*
X249556Y454806D01*
X249465Y454816D01*
X249375Y454830D01*
X249286Y454848D01*
X249197Y454869D01*
X249110Y454895D01*
X249024Y454924D01*
X248939Y454957D01*
X248855Y454994D01*
X248773Y455034D01*
X248694Y455078D01*
X248616Y455125D01*
X248540Y455176D01*
X248466Y455230D01*
X248395Y455287D01*
X248327Y455347D01*
X248261Y455410D01*
X248198Y455476D01*
X248138Y455544D01*
X248081Y455615D01*
X248027Y455689D01*
X247976Y455765D01*
X247929Y455842D01*
X247885Y455922D01*
X247845Y456004D01*
X247808Y456088D01*
X247775Y456172D01*
X247746Y456259D01*
X247720Y456346D01*
X247699Y456435D01*
X247681Y456524D01*
X247667Y456614D01*
X247657Y456705D01*
X247651Y456796D01*
X247649Y456887D01*
X247650Y456887D02*
X247650Y458976D01*
X249738Y462445D02*
X247650Y465055D01*
X257048Y465055D01*
X257048Y462445D02*
X257048Y467666D01*
X252349Y471588D02*
X252164Y471590D01*
X251979Y471597D01*
X251795Y471608D01*
X251611Y471623D01*
X251427Y471643D01*
X251243Y471667D01*
X251061Y471696D01*
X250879Y471729D01*
X250698Y471766D01*
X250518Y471808D01*
X250338Y471854D01*
X250160Y471904D01*
X249984Y471958D01*
X249808Y472017D01*
X249634Y472079D01*
X249462Y472146D01*
X249291Y472217D01*
X249122Y472292D01*
X248955Y472371D01*
X248875Y472401D01*
X248796Y472434D01*
X248719Y472471D01*
X248643Y472511D01*
X248569Y472554D01*
X248497Y472600D01*
X248428Y472650D01*
X248360Y472702D01*
X248295Y472758D01*
X248232Y472816D01*
X248173Y472878D01*
X248115Y472941D01*
X248061Y473008D01*
X248010Y473076D01*
X247962Y473147D01*
X247917Y473220D01*
X247875Y473294D01*
X247837Y473371D01*
X247802Y473449D01*
X247770Y473528D01*
X247742Y473609D01*
X247718Y473691D01*
X247697Y473775D01*
X247680Y473858D01*
X247667Y473943D01*
X247658Y474028D01*
X247652Y474113D01*
X247650Y474199D01*
X247652Y474285D01*
X247658Y474370D01*
X247667Y474455D01*
X247680Y474540D01*
X247697Y474623D01*
X247718Y474707D01*
X247742Y474789D01*
X247770Y474870D01*
X247802Y474949D01*
X247837Y475027D01*
X247875Y475104D01*
X247917Y475178D01*
X247962Y475251D01*
X248010Y475322D01*
X248061Y475390D01*
X248115Y475457D01*
X248173Y475520D01*
X248232Y475582D01*
X248295Y475640D01*
X248360Y475696D01*
X248428Y475748D01*
X248497Y475798D01*
X248569Y475844D01*
X248643Y475887D01*
X248719Y475927D01*
X248796Y475964D01*
X248875Y475997D01*
X248955Y476027D01*
X249122Y476106D01*
X249291Y476181D01*
X249462Y476252D01*
X249634Y476319D01*
X249808Y476381D01*
X249984Y476440D01*
X250160Y476494D01*
X250338Y476544D01*
X250518Y476590D01*
X250698Y476632D01*
X250879Y476669D01*
X251061Y476702D01*
X251243Y476731D01*
X251427Y476755D01*
X251611Y476775D01*
X251795Y476790D01*
X251979Y476801D01*
X252164Y476808D01*
X252349Y476810D01*
X252349Y471588D02*
X252534Y471590D01*
X252719Y471597D01*
X252903Y471608D01*
X253087Y471623D01*
X253271Y471643D01*
X253455Y471667D01*
X253637Y471696D01*
X253819Y471729D01*
X254000Y471766D01*
X254180Y471808D01*
X254360Y471854D01*
X254538Y471904D01*
X254714Y471958D01*
X254890Y472017D01*
X255064Y472079D01*
X255236Y472146D01*
X255407Y472217D01*
X255576Y472292D01*
X255743Y472371D01*
X255823Y472401D01*
X255902Y472434D01*
X255979Y472471D01*
X256055Y472511D01*
X256129Y472554D01*
X256201Y472600D01*
X256270Y472650D01*
X256338Y472703D01*
X256403Y472758D01*
X256466Y472817D01*
X256525Y472878D01*
X256583Y472941D01*
X256637Y473008D01*
X256688Y473076D01*
X256736Y473147D01*
X256781Y473220D01*
X256823Y473294D01*
X256861Y473371D01*
X256896Y473449D01*
X256928Y473528D01*
X256956Y473609D01*
X256980Y473691D01*
X257001Y473775D01*
X257018Y473858D01*
X257031Y473943D01*
X257040Y474028D01*
X257046Y474113D01*
X257048Y474199D01*
X255743Y476027D02*
X255576Y476106D01*
X255407Y476181D01*
X255236Y476252D01*
X255064Y476319D01*
X254890Y476381D01*
X254714Y476440D01*
X254538Y476494D01*
X254360Y476544D01*
X254180Y476590D01*
X254000Y476632D01*
X253819Y476669D01*
X253637Y476702D01*
X253455Y476731D01*
X253271Y476755D01*
X253087Y476775D01*
X252903Y476790D01*
X252719Y476801D01*
X252534Y476808D01*
X252349Y476810D01*
X255743Y476027D02*
X255823Y475997D01*
X255902Y475964D01*
X255979Y475927D01*
X256055Y475887D01*
X256129Y475844D01*
X256201Y475798D01*
X256270Y475748D01*
X256338Y475696D01*
X256403Y475640D01*
X256466Y475582D01*
X256525Y475520D01*
X256583Y475457D01*
X256637Y475390D01*
X256688Y475322D01*
X256736Y475251D01*
X256781Y475178D01*
X256823Y475104D01*
X256861Y475027D01*
X256896Y474949D01*
X256928Y474870D01*
X256956Y474789D01*
X256980Y474707D01*
X257001Y474623D01*
X257018Y474540D01*
X257031Y474455D01*
X257040Y474370D01*
X257046Y474285D01*
X257048Y474199D01*
X254960Y472111D02*
X249738Y476288D01*
D122*
X408274Y491298D02*
X408274Y442534D01*
X408274Y491298D02*
X430878Y491298D01*
X430878Y442534D01*
X408274Y442534D01*
D11*
X408020Y438216D02*
X430624Y438216D01*
D123*
X440690Y458253D02*
X440690Y460341D01*
X440690Y458253D02*
X440688Y458164D01*
X440682Y458076D01*
X440673Y457988D01*
X440660Y457900D01*
X440643Y457813D01*
X440623Y457727D01*
X440598Y457642D01*
X440571Y457557D01*
X440539Y457474D01*
X440505Y457393D01*
X440466Y457313D01*
X440425Y457235D01*
X440380Y457158D01*
X440332Y457084D01*
X440281Y457011D01*
X440227Y456941D01*
X440169Y456874D01*
X440109Y456808D01*
X440047Y456746D01*
X439981Y456686D01*
X439914Y456628D01*
X439844Y456574D01*
X439771Y456523D01*
X439697Y456475D01*
X439620Y456430D01*
X439542Y456389D01*
X439462Y456350D01*
X439381Y456316D01*
X439298Y456284D01*
X439213Y456257D01*
X439128Y456232D01*
X439042Y456212D01*
X438955Y456195D01*
X438867Y456182D01*
X438779Y456173D01*
X438691Y456167D01*
X438602Y456165D01*
X438602Y456164D02*
X433380Y456164D01*
X433289Y456166D01*
X433198Y456172D01*
X433107Y456182D01*
X433017Y456196D01*
X432928Y456214D01*
X432839Y456235D01*
X432752Y456261D01*
X432666Y456290D01*
X432581Y456323D01*
X432497Y456360D01*
X432415Y456400D01*
X432336Y456444D01*
X432258Y456491D01*
X432182Y456542D01*
X432108Y456596D01*
X432037Y456653D01*
X431969Y456713D01*
X431903Y456776D01*
X431840Y456842D01*
X431780Y456910D01*
X431723Y456981D01*
X431669Y457055D01*
X431618Y457131D01*
X431571Y457208D01*
X431527Y457288D01*
X431487Y457370D01*
X431450Y457454D01*
X431417Y457538D01*
X431388Y457625D01*
X431362Y457712D01*
X431341Y457801D01*
X431323Y457890D01*
X431309Y457980D01*
X431299Y458071D01*
X431293Y458162D01*
X431291Y458253D01*
X431292Y458253D02*
X431292Y460341D01*
X433380Y463810D02*
X431292Y466420D01*
X440690Y466420D01*
X440690Y463810D02*
X440690Y469031D01*
X433380Y472954D02*
X431292Y475564D01*
X440690Y475564D01*
X440690Y472954D02*
X440690Y478175D01*
D122*
X332886Y384618D02*
X332886Y355158D01*
X313226Y355158D01*
X313226Y384618D01*
X332886Y384618D01*
D123*
X316294Y386937D02*
X316294Y396335D01*
X318904Y396335D01*
X318904Y396336D02*
X319005Y396334D01*
X319106Y396328D01*
X319207Y396318D01*
X319307Y396305D01*
X319407Y396287D01*
X319506Y396266D01*
X319604Y396240D01*
X319701Y396211D01*
X319797Y396179D01*
X319891Y396142D01*
X319984Y396102D01*
X320076Y396058D01*
X320165Y396011D01*
X320253Y395960D01*
X320339Y395906D01*
X320422Y395849D01*
X320504Y395789D01*
X320582Y395725D01*
X320659Y395659D01*
X320732Y395589D01*
X320803Y395517D01*
X320871Y395442D01*
X320936Y395364D01*
X320998Y395284D01*
X321057Y395202D01*
X321113Y395117D01*
X321165Y395030D01*
X321214Y394942D01*
X321260Y394851D01*
X321301Y394759D01*
X321340Y394665D01*
X321374Y394570D01*
X321405Y394474D01*
X321432Y394376D01*
X321456Y394278D01*
X321475Y394178D01*
X321491Y394078D01*
X321503Y393978D01*
X321511Y393877D01*
X321515Y393776D01*
X321515Y393674D01*
X321511Y393573D01*
X321503Y393472D01*
X321491Y393372D01*
X321475Y393272D01*
X321456Y393172D01*
X321432Y393074D01*
X321405Y392976D01*
X321374Y392880D01*
X321340Y392785D01*
X321301Y392691D01*
X321260Y392599D01*
X321214Y392508D01*
X321165Y392420D01*
X321113Y392333D01*
X321057Y392248D01*
X320998Y392166D01*
X320936Y392086D01*
X320871Y392008D01*
X320803Y391933D01*
X320732Y391861D01*
X320659Y391791D01*
X320582Y391725D01*
X320504Y391661D01*
X320422Y391601D01*
X320339Y391544D01*
X320253Y391490D01*
X320165Y391439D01*
X320076Y391392D01*
X319984Y391348D01*
X319891Y391308D01*
X319797Y391271D01*
X319701Y391239D01*
X319604Y391210D01*
X319506Y391184D01*
X319407Y391163D01*
X319307Y391145D01*
X319207Y391132D01*
X319106Y391122D01*
X319005Y391116D01*
X318904Y391114D01*
X316294Y391114D01*
X319426Y391114D02*
X321515Y386937D01*
X325380Y389026D02*
X327469Y396335D01*
X325380Y389026D02*
X330602Y389026D01*
X329035Y391114D02*
X329035Y386937D01*
D122*
X354318Y384618D02*
X354318Y355158D01*
X334658Y355158D01*
X334658Y384618D01*
X354318Y384618D01*
D123*
X336931Y386937D02*
X336931Y396335D01*
X339542Y396335D01*
X339542Y396336D02*
X339643Y396334D01*
X339744Y396328D01*
X339845Y396318D01*
X339945Y396305D01*
X340045Y396287D01*
X340144Y396266D01*
X340242Y396240D01*
X340339Y396211D01*
X340435Y396179D01*
X340529Y396142D01*
X340622Y396102D01*
X340714Y396058D01*
X340803Y396011D01*
X340891Y395960D01*
X340977Y395906D01*
X341060Y395849D01*
X341142Y395789D01*
X341220Y395725D01*
X341297Y395659D01*
X341370Y395589D01*
X341441Y395517D01*
X341509Y395442D01*
X341574Y395364D01*
X341636Y395284D01*
X341695Y395202D01*
X341751Y395117D01*
X341803Y395030D01*
X341852Y394942D01*
X341898Y394851D01*
X341939Y394759D01*
X341978Y394665D01*
X342012Y394570D01*
X342043Y394474D01*
X342070Y394376D01*
X342094Y394278D01*
X342113Y394178D01*
X342129Y394078D01*
X342141Y393978D01*
X342149Y393877D01*
X342153Y393776D01*
X342153Y393674D01*
X342149Y393573D01*
X342141Y393472D01*
X342129Y393372D01*
X342113Y393272D01*
X342094Y393172D01*
X342070Y393074D01*
X342043Y392976D01*
X342012Y392880D01*
X341978Y392785D01*
X341939Y392691D01*
X341898Y392599D01*
X341852Y392508D01*
X341803Y392420D01*
X341751Y392333D01*
X341695Y392248D01*
X341636Y392166D01*
X341574Y392086D01*
X341509Y392008D01*
X341441Y391933D01*
X341370Y391861D01*
X341297Y391791D01*
X341220Y391725D01*
X341142Y391661D01*
X341060Y391601D01*
X340977Y391544D01*
X340891Y391490D01*
X340803Y391439D01*
X340714Y391392D01*
X340622Y391348D01*
X340529Y391308D01*
X340435Y391271D01*
X340339Y391239D01*
X340242Y391210D01*
X340144Y391184D01*
X340045Y391163D01*
X339945Y391145D01*
X339845Y391132D01*
X339744Y391122D01*
X339643Y391116D01*
X339542Y391114D01*
X336931Y391114D01*
X340064Y391114D02*
X342152Y386937D01*
X346018Y386937D02*
X349151Y386937D01*
X349151Y386938D02*
X349240Y386940D01*
X349328Y386946D01*
X349416Y386955D01*
X349504Y386968D01*
X349591Y386985D01*
X349677Y387005D01*
X349762Y387030D01*
X349847Y387057D01*
X349930Y387089D01*
X350011Y387123D01*
X350091Y387162D01*
X350169Y387203D01*
X350246Y387248D01*
X350320Y387296D01*
X350393Y387347D01*
X350463Y387401D01*
X350530Y387459D01*
X350596Y387519D01*
X350658Y387581D01*
X350718Y387647D01*
X350776Y387714D01*
X350830Y387784D01*
X350881Y387857D01*
X350929Y387931D01*
X350974Y388008D01*
X351015Y388086D01*
X351054Y388166D01*
X351088Y388247D01*
X351120Y388330D01*
X351147Y388415D01*
X351172Y388500D01*
X351192Y388586D01*
X351209Y388673D01*
X351222Y388761D01*
X351231Y388849D01*
X351237Y388937D01*
X351239Y389026D01*
X351239Y390070D01*
X351237Y390159D01*
X351231Y390247D01*
X351222Y390335D01*
X351209Y390423D01*
X351192Y390510D01*
X351172Y390596D01*
X351147Y390681D01*
X351120Y390766D01*
X351088Y390849D01*
X351054Y390930D01*
X351015Y391010D01*
X350974Y391088D01*
X350929Y391165D01*
X350881Y391239D01*
X350830Y391312D01*
X350776Y391382D01*
X350718Y391449D01*
X350658Y391515D01*
X350596Y391577D01*
X350530Y391637D01*
X350463Y391695D01*
X350393Y391749D01*
X350320Y391800D01*
X350246Y391848D01*
X350169Y391893D01*
X350091Y391934D01*
X350011Y391973D01*
X349930Y392007D01*
X349847Y392039D01*
X349762Y392066D01*
X349677Y392091D01*
X349591Y392111D01*
X349504Y392128D01*
X349416Y392141D01*
X349328Y392150D01*
X349240Y392156D01*
X349151Y392158D01*
X346018Y392158D01*
X346018Y396335D01*
X351239Y396335D01*
D122*
X375749Y384618D02*
X375749Y355158D01*
X356089Y355158D01*
X356089Y384618D01*
X375749Y384618D01*
D123*
X359156Y386937D02*
X359156Y396335D01*
X361767Y396335D01*
X361767Y396336D02*
X361868Y396334D01*
X361969Y396328D01*
X362070Y396318D01*
X362170Y396305D01*
X362270Y396287D01*
X362369Y396266D01*
X362467Y396240D01*
X362564Y396211D01*
X362660Y396179D01*
X362754Y396142D01*
X362847Y396102D01*
X362939Y396058D01*
X363028Y396011D01*
X363116Y395960D01*
X363202Y395906D01*
X363285Y395849D01*
X363367Y395789D01*
X363445Y395725D01*
X363522Y395659D01*
X363595Y395589D01*
X363666Y395517D01*
X363734Y395442D01*
X363799Y395364D01*
X363861Y395284D01*
X363920Y395202D01*
X363976Y395117D01*
X364028Y395030D01*
X364077Y394942D01*
X364123Y394851D01*
X364164Y394759D01*
X364203Y394665D01*
X364237Y394570D01*
X364268Y394474D01*
X364295Y394376D01*
X364319Y394278D01*
X364338Y394178D01*
X364354Y394078D01*
X364366Y393978D01*
X364374Y393877D01*
X364378Y393776D01*
X364378Y393674D01*
X364374Y393573D01*
X364366Y393472D01*
X364354Y393372D01*
X364338Y393272D01*
X364319Y393172D01*
X364295Y393074D01*
X364268Y392976D01*
X364237Y392880D01*
X364203Y392785D01*
X364164Y392691D01*
X364123Y392599D01*
X364077Y392508D01*
X364028Y392420D01*
X363976Y392333D01*
X363920Y392248D01*
X363861Y392166D01*
X363799Y392086D01*
X363734Y392008D01*
X363666Y391933D01*
X363595Y391861D01*
X363522Y391791D01*
X363445Y391725D01*
X363367Y391661D01*
X363285Y391601D01*
X363202Y391544D01*
X363116Y391490D01*
X363028Y391439D01*
X362939Y391392D01*
X362847Y391348D01*
X362754Y391308D01*
X362660Y391271D01*
X362564Y391239D01*
X362467Y391210D01*
X362369Y391184D01*
X362270Y391163D01*
X362170Y391145D01*
X362070Y391132D01*
X361969Y391122D01*
X361868Y391116D01*
X361767Y391114D01*
X359156Y391114D01*
X362289Y391114D02*
X364377Y386937D01*
X368243Y392158D02*
X371376Y392158D01*
X371465Y392156D01*
X371553Y392150D01*
X371641Y392141D01*
X371729Y392128D01*
X371816Y392111D01*
X371902Y392091D01*
X371987Y392066D01*
X372072Y392039D01*
X372155Y392007D01*
X372236Y391973D01*
X372316Y391934D01*
X372394Y391893D01*
X372471Y391848D01*
X372545Y391800D01*
X372618Y391749D01*
X372688Y391695D01*
X372755Y391637D01*
X372821Y391577D01*
X372883Y391515D01*
X372943Y391449D01*
X373001Y391382D01*
X373055Y391312D01*
X373106Y391239D01*
X373154Y391165D01*
X373199Y391088D01*
X373240Y391010D01*
X373279Y390930D01*
X373313Y390849D01*
X373345Y390766D01*
X373372Y390681D01*
X373397Y390596D01*
X373417Y390510D01*
X373434Y390423D01*
X373447Y390335D01*
X373456Y390247D01*
X373462Y390159D01*
X373464Y390070D01*
X373464Y389548D01*
X373462Y389447D01*
X373456Y389346D01*
X373446Y389245D01*
X373433Y389145D01*
X373415Y389045D01*
X373394Y388946D01*
X373368Y388848D01*
X373339Y388751D01*
X373307Y388655D01*
X373270Y388561D01*
X373230Y388468D01*
X373186Y388376D01*
X373139Y388287D01*
X373088Y388199D01*
X373034Y388113D01*
X372977Y388030D01*
X372917Y387948D01*
X372853Y387870D01*
X372787Y387793D01*
X372717Y387720D01*
X372645Y387649D01*
X372570Y387581D01*
X372492Y387516D01*
X372412Y387454D01*
X372330Y387395D01*
X372245Y387339D01*
X372158Y387287D01*
X372070Y387238D01*
X371979Y387192D01*
X371887Y387151D01*
X371793Y387112D01*
X371698Y387078D01*
X371602Y387047D01*
X371504Y387020D01*
X371406Y386996D01*
X371306Y386977D01*
X371206Y386961D01*
X371106Y386949D01*
X371005Y386941D01*
X370904Y386937D01*
X370802Y386937D01*
X370701Y386941D01*
X370600Y386949D01*
X370500Y386961D01*
X370400Y386977D01*
X370300Y386996D01*
X370202Y387020D01*
X370104Y387047D01*
X370008Y387078D01*
X369913Y387112D01*
X369819Y387151D01*
X369727Y387192D01*
X369636Y387238D01*
X369548Y387287D01*
X369461Y387339D01*
X369376Y387395D01*
X369294Y387454D01*
X369214Y387516D01*
X369136Y387581D01*
X369061Y387649D01*
X368989Y387720D01*
X368919Y387793D01*
X368853Y387870D01*
X368789Y387948D01*
X368729Y388030D01*
X368672Y388113D01*
X368618Y388199D01*
X368567Y388287D01*
X368520Y388376D01*
X368476Y388468D01*
X368436Y388561D01*
X368399Y388655D01*
X368367Y388751D01*
X368338Y388848D01*
X368312Y388946D01*
X368291Y389045D01*
X368273Y389145D01*
X368260Y389245D01*
X368250Y389346D01*
X368244Y389447D01*
X368242Y389548D01*
X368243Y389548D02*
X368243Y392158D01*
X368245Y392287D01*
X368251Y392415D01*
X368261Y392543D01*
X368275Y392671D01*
X368292Y392799D01*
X368314Y392926D01*
X368340Y393052D01*
X368369Y393177D01*
X368402Y393301D01*
X368440Y393424D01*
X368480Y393546D01*
X368525Y393667D01*
X368573Y393786D01*
X368625Y393904D01*
X368681Y394020D01*
X368740Y394134D01*
X368803Y394246D01*
X368869Y394357D01*
X368938Y394465D01*
X369011Y394571D01*
X369087Y394675D01*
X369166Y394777D01*
X369248Y394876D01*
X369333Y394972D01*
X369421Y395066D01*
X369512Y395157D01*
X369606Y395245D01*
X369702Y395330D01*
X369801Y395412D01*
X369903Y395491D01*
X370007Y395567D01*
X370113Y395640D01*
X370221Y395709D01*
X370331Y395775D01*
X370444Y395838D01*
X370558Y395897D01*
X370674Y395953D01*
X370792Y396005D01*
X370911Y396053D01*
X371032Y396098D01*
X371154Y396138D01*
X371277Y396176D01*
X371401Y396209D01*
X371526Y396238D01*
X371652Y396264D01*
X371779Y396286D01*
X371907Y396303D01*
X372035Y396317D01*
X372163Y396327D01*
X372291Y396333D01*
X372420Y396335D01*
D122*
X386908Y375139D02*
X416368Y375139D01*
X386908Y375139D02*
X386908Y394799D01*
X416368Y394799D01*
X416368Y375139D01*
D123*
X395329Y364077D02*
X393240Y364077D01*
X393240Y364078D02*
X393151Y364080D01*
X393063Y364086D01*
X392975Y364095D01*
X392887Y364108D01*
X392800Y364125D01*
X392714Y364145D01*
X392629Y364170D01*
X392544Y364197D01*
X392461Y364229D01*
X392380Y364263D01*
X392300Y364302D01*
X392222Y364343D01*
X392145Y364388D01*
X392071Y364436D01*
X391998Y364487D01*
X391928Y364541D01*
X391861Y364599D01*
X391795Y364659D01*
X391733Y364721D01*
X391673Y364787D01*
X391615Y364854D01*
X391561Y364924D01*
X391510Y364997D01*
X391462Y365071D01*
X391417Y365148D01*
X391376Y365226D01*
X391337Y365306D01*
X391303Y365387D01*
X391271Y365470D01*
X391244Y365555D01*
X391219Y365640D01*
X391199Y365726D01*
X391182Y365813D01*
X391169Y365901D01*
X391160Y365989D01*
X391154Y366077D01*
X391152Y366166D01*
X391152Y371387D01*
X391154Y371478D01*
X391160Y371569D01*
X391170Y371660D01*
X391184Y371750D01*
X391201Y371839D01*
X391223Y371927D01*
X391249Y372015D01*
X391278Y372101D01*
X391311Y372186D01*
X391348Y372269D01*
X391388Y372351D01*
X391432Y372431D01*
X391479Y372509D01*
X391530Y372585D01*
X391583Y372658D01*
X391640Y372729D01*
X391701Y372798D01*
X391764Y372863D01*
X391829Y372926D01*
X391898Y372986D01*
X391969Y373044D01*
X392042Y373097D01*
X392118Y373148D01*
X392196Y373195D01*
X392276Y373239D01*
X392358Y373279D01*
X392441Y373316D01*
X392526Y373349D01*
X392612Y373378D01*
X392700Y373404D01*
X392788Y373426D01*
X392877Y373443D01*
X392967Y373457D01*
X393058Y373467D01*
X393149Y373473D01*
X393240Y373475D01*
X395329Y373475D01*
X398798Y371387D02*
X401408Y373475D01*
X401408Y364077D01*
X398798Y364077D02*
X404019Y364077D01*
X413163Y371126D02*
X413161Y371221D01*
X413155Y371315D01*
X413146Y371409D01*
X413133Y371503D01*
X413116Y371596D01*
X413095Y371688D01*
X413070Y371780D01*
X413042Y371870D01*
X413010Y371959D01*
X412975Y372047D01*
X412936Y372133D01*
X412894Y372218D01*
X412848Y372301D01*
X412799Y372382D01*
X412747Y372461D01*
X412692Y372538D01*
X412633Y372612D01*
X412572Y372684D01*
X412508Y372754D01*
X412441Y372821D01*
X412371Y372885D01*
X412299Y372946D01*
X412225Y373005D01*
X412148Y373060D01*
X412069Y373112D01*
X411988Y373161D01*
X411905Y373207D01*
X411820Y373249D01*
X411734Y373288D01*
X411646Y373323D01*
X411557Y373355D01*
X411467Y373383D01*
X411375Y373408D01*
X411283Y373429D01*
X411190Y373446D01*
X411096Y373459D01*
X411002Y373468D01*
X410908Y373474D01*
X410813Y373476D01*
X410813Y373475D02*
X410705Y373473D01*
X410596Y373467D01*
X410488Y373457D01*
X410381Y373444D01*
X410274Y373426D01*
X410167Y373405D01*
X410062Y373380D01*
X409957Y373351D01*
X409854Y373319D01*
X409752Y373282D01*
X409651Y373242D01*
X409552Y373199D01*
X409454Y373152D01*
X409358Y373101D01*
X409264Y373047D01*
X409172Y372990D01*
X409082Y372929D01*
X408994Y372865D01*
X408909Y372799D01*
X408826Y372729D01*
X408746Y372656D01*
X408668Y372580D01*
X408593Y372502D01*
X408521Y372421D01*
X408452Y372337D01*
X408386Y372251D01*
X408323Y372163D01*
X408264Y372072D01*
X408207Y371980D01*
X408154Y371885D01*
X408105Y371789D01*
X408059Y371690D01*
X408016Y371591D01*
X407977Y371489D01*
X407942Y371387D01*
X412380Y369298D02*
X412449Y369367D01*
X412515Y369438D01*
X412579Y369511D01*
X412640Y369587D01*
X412698Y369666D01*
X412752Y369746D01*
X412804Y369829D01*
X412852Y369913D01*
X412898Y369999D01*
X412939Y370087D01*
X412978Y370177D01*
X413013Y370268D01*
X413044Y370360D01*
X413072Y370453D01*
X413096Y370547D01*
X413116Y370642D01*
X413133Y370738D01*
X413146Y370835D01*
X413155Y370932D01*
X413161Y371029D01*
X413163Y371126D01*
X412380Y369298D02*
X407942Y364077D01*
X413163Y364077D01*
M02*
