G04 EAGLE Gerber RS-274X export*
G75*
%MOMM*%
%FSLAX34Y34*%
%LPD*%
%INSolderpaste Bottom*%
%IPPOS*%
%AMOC8*
5,1,8,0,0,1.08239X$1,22.5*%
G01*
%ADD10R,1.000000X1.100000*%
%ADD11R,1.399997X0.400000*%
%ADD12R,0.812800X0.254000*%
%ADD13R,0.254000X0.812800*%
%ADD14R,1.100000X1.000000*%
%ADD15R,1.300000X1.500000*%
%ADD16R,1.500000X1.300000*%

G36*
X329266Y361967D02*
X329266Y361967D01*
X329268Y361967D01*
X329311Y361986D01*
X329354Y362005D01*
X329355Y362007D01*
X329357Y362008D01*
X329390Y362093D01*
X329390Y374317D01*
X329389Y374319D01*
X329390Y374321D01*
X329370Y374364D01*
X329351Y374407D01*
X329349Y374408D01*
X329348Y374410D01*
X329264Y374443D01*
X317040Y374443D01*
X317038Y374442D01*
X317035Y374443D01*
X316992Y374423D01*
X316949Y374405D01*
X316948Y374403D01*
X316946Y374402D01*
X316913Y374317D01*
X316913Y362093D01*
X316914Y362091D01*
X316913Y362089D01*
X316933Y362046D01*
X316952Y362002D01*
X316954Y362001D01*
X316955Y361999D01*
X317040Y361967D01*
X329264Y361967D01*
X329266Y361967D01*
G37*
G36*
X357714Y361967D02*
X357714Y361967D01*
X357716Y361967D01*
X357759Y361986D01*
X357802Y362005D01*
X357803Y362007D01*
X357805Y362008D01*
X357838Y362093D01*
X357838Y374317D01*
X357837Y374319D01*
X357838Y374321D01*
X357818Y374364D01*
X357799Y374407D01*
X357797Y374408D01*
X357796Y374410D01*
X357712Y374443D01*
X345488Y374443D01*
X345486Y374442D01*
X345483Y374443D01*
X345440Y374423D01*
X345397Y374405D01*
X345396Y374403D01*
X345394Y374402D01*
X345361Y374317D01*
X345361Y362093D01*
X345362Y362091D01*
X345361Y362089D01*
X345381Y362046D01*
X345400Y362002D01*
X345402Y362001D01*
X345403Y361999D01*
X345488Y361967D01*
X357712Y361967D01*
X357714Y361967D01*
G37*
G36*
X343490Y361967D02*
X343490Y361967D01*
X343492Y361967D01*
X343535Y361986D01*
X343578Y362005D01*
X343579Y362007D01*
X343581Y362008D01*
X343614Y362093D01*
X343614Y374317D01*
X343613Y374319D01*
X343614Y374321D01*
X343594Y374364D01*
X343575Y374407D01*
X343573Y374408D01*
X343572Y374410D01*
X343488Y374443D01*
X331264Y374443D01*
X331262Y374442D01*
X331259Y374443D01*
X331216Y374423D01*
X331173Y374405D01*
X331172Y374403D01*
X331170Y374402D01*
X331137Y374317D01*
X331137Y362093D01*
X331138Y362091D01*
X331137Y362089D01*
X331157Y362046D01*
X331176Y362002D01*
X331178Y362001D01*
X331179Y361999D01*
X331264Y361967D01*
X343488Y361967D01*
X343490Y361967D01*
G37*
G36*
X371938Y361967D02*
X371938Y361967D01*
X371940Y361967D01*
X371983Y361986D01*
X372026Y362005D01*
X372027Y362007D01*
X372029Y362008D01*
X372062Y362093D01*
X372062Y374317D01*
X372061Y374319D01*
X372062Y374321D01*
X372042Y374364D01*
X372023Y374407D01*
X372021Y374408D01*
X372020Y374410D01*
X371936Y374443D01*
X359712Y374443D01*
X359710Y374442D01*
X359707Y374443D01*
X359664Y374423D01*
X359621Y374405D01*
X359620Y374403D01*
X359618Y374402D01*
X359585Y374317D01*
X359585Y362093D01*
X359586Y362091D01*
X359585Y362089D01*
X359605Y362046D01*
X359624Y362002D01*
X359626Y362001D01*
X359627Y361999D01*
X359712Y361967D01*
X371936Y361967D01*
X371938Y361967D01*
G37*
G36*
X357714Y347743D02*
X357714Y347743D01*
X357716Y347743D01*
X357759Y347762D01*
X357802Y347781D01*
X357803Y347783D01*
X357805Y347784D01*
X357838Y347869D01*
X357838Y360093D01*
X357837Y360095D01*
X357838Y360097D01*
X357818Y360140D01*
X357799Y360183D01*
X357797Y360184D01*
X357796Y360186D01*
X357712Y360219D01*
X345488Y360219D01*
X345486Y360218D01*
X345483Y360219D01*
X345440Y360199D01*
X345397Y360181D01*
X345396Y360179D01*
X345394Y360178D01*
X345361Y360093D01*
X345361Y347869D01*
X345362Y347867D01*
X345361Y347865D01*
X345381Y347822D01*
X345400Y347778D01*
X345402Y347777D01*
X345403Y347775D01*
X345488Y347743D01*
X357712Y347743D01*
X357714Y347743D01*
G37*
G36*
X329266Y347743D02*
X329266Y347743D01*
X329268Y347743D01*
X329311Y347762D01*
X329354Y347781D01*
X329355Y347783D01*
X329357Y347784D01*
X329390Y347869D01*
X329390Y360093D01*
X329389Y360095D01*
X329390Y360097D01*
X329370Y360140D01*
X329351Y360183D01*
X329349Y360184D01*
X329348Y360186D01*
X329264Y360219D01*
X317040Y360219D01*
X317038Y360218D01*
X317035Y360219D01*
X316992Y360199D01*
X316949Y360181D01*
X316948Y360179D01*
X316946Y360178D01*
X316913Y360093D01*
X316913Y347869D01*
X316914Y347867D01*
X316913Y347865D01*
X316933Y347822D01*
X316952Y347778D01*
X316954Y347777D01*
X316955Y347775D01*
X317040Y347743D01*
X329264Y347743D01*
X329266Y347743D01*
G37*
G36*
X343490Y347743D02*
X343490Y347743D01*
X343492Y347743D01*
X343535Y347762D01*
X343578Y347781D01*
X343579Y347783D01*
X343581Y347784D01*
X343614Y347869D01*
X343614Y360093D01*
X343613Y360095D01*
X343614Y360097D01*
X343594Y360140D01*
X343575Y360183D01*
X343573Y360184D01*
X343572Y360186D01*
X343488Y360219D01*
X331264Y360219D01*
X331262Y360218D01*
X331259Y360219D01*
X331216Y360199D01*
X331173Y360181D01*
X331172Y360179D01*
X331170Y360178D01*
X331137Y360093D01*
X331137Y347869D01*
X331138Y347867D01*
X331137Y347865D01*
X331157Y347822D01*
X331176Y347778D01*
X331178Y347777D01*
X331179Y347775D01*
X331264Y347743D01*
X343488Y347743D01*
X343490Y347743D01*
G37*
G36*
X371938Y347743D02*
X371938Y347743D01*
X371940Y347743D01*
X371983Y347762D01*
X372026Y347781D01*
X372027Y347783D01*
X372029Y347784D01*
X372062Y347869D01*
X372062Y360093D01*
X372061Y360095D01*
X372062Y360097D01*
X372042Y360140D01*
X372023Y360183D01*
X372021Y360184D01*
X372020Y360186D01*
X371936Y360219D01*
X359712Y360219D01*
X359710Y360218D01*
X359707Y360219D01*
X359664Y360199D01*
X359621Y360181D01*
X359620Y360179D01*
X359618Y360178D01*
X359585Y360093D01*
X359585Y347869D01*
X359586Y347867D01*
X359585Y347865D01*
X359605Y347822D01*
X359624Y347778D01*
X359626Y347777D01*
X359627Y347775D01*
X359712Y347743D01*
X371936Y347743D01*
X371938Y347743D01*
G37*
G36*
X329266Y333519D02*
X329266Y333519D01*
X329268Y333519D01*
X329311Y333538D01*
X329354Y333557D01*
X329355Y333559D01*
X329357Y333560D01*
X329390Y333645D01*
X329390Y345869D01*
X329389Y345871D01*
X329390Y345873D01*
X329370Y345916D01*
X329351Y345959D01*
X329349Y345960D01*
X329348Y345962D01*
X329264Y345995D01*
X317040Y345995D01*
X317038Y345994D01*
X317035Y345995D01*
X316992Y345975D01*
X316949Y345957D01*
X316948Y345955D01*
X316946Y345954D01*
X316913Y345869D01*
X316913Y333645D01*
X316914Y333643D01*
X316913Y333641D01*
X316933Y333598D01*
X316952Y333554D01*
X316954Y333553D01*
X316955Y333551D01*
X317040Y333519D01*
X329264Y333519D01*
X329266Y333519D01*
G37*
G36*
X357714Y333519D02*
X357714Y333519D01*
X357716Y333519D01*
X357759Y333538D01*
X357802Y333557D01*
X357803Y333559D01*
X357805Y333560D01*
X357838Y333645D01*
X357838Y345869D01*
X357837Y345871D01*
X357838Y345873D01*
X357818Y345916D01*
X357799Y345959D01*
X357797Y345960D01*
X357796Y345962D01*
X357712Y345995D01*
X345488Y345995D01*
X345486Y345994D01*
X345483Y345995D01*
X345440Y345975D01*
X345397Y345957D01*
X345396Y345955D01*
X345394Y345954D01*
X345361Y345869D01*
X345361Y333645D01*
X345362Y333643D01*
X345361Y333641D01*
X345381Y333598D01*
X345400Y333554D01*
X345402Y333553D01*
X345403Y333551D01*
X345488Y333519D01*
X357712Y333519D01*
X357714Y333519D01*
G37*
G36*
X343490Y333519D02*
X343490Y333519D01*
X343492Y333519D01*
X343535Y333538D01*
X343578Y333557D01*
X343579Y333559D01*
X343581Y333560D01*
X343614Y333645D01*
X343614Y345869D01*
X343613Y345871D01*
X343614Y345873D01*
X343594Y345916D01*
X343575Y345959D01*
X343573Y345960D01*
X343572Y345962D01*
X343488Y345995D01*
X331264Y345995D01*
X331262Y345994D01*
X331259Y345995D01*
X331216Y345975D01*
X331173Y345957D01*
X331172Y345955D01*
X331170Y345954D01*
X331137Y345869D01*
X331137Y333645D01*
X331138Y333643D01*
X331137Y333641D01*
X331157Y333598D01*
X331176Y333554D01*
X331178Y333553D01*
X331179Y333551D01*
X331264Y333519D01*
X343488Y333519D01*
X343490Y333519D01*
G37*
G36*
X371938Y333519D02*
X371938Y333519D01*
X371940Y333519D01*
X371983Y333538D01*
X372026Y333557D01*
X372027Y333559D01*
X372029Y333560D01*
X372062Y333645D01*
X372062Y345869D01*
X372061Y345871D01*
X372062Y345873D01*
X372042Y345916D01*
X372023Y345959D01*
X372021Y345960D01*
X372020Y345962D01*
X371936Y345995D01*
X359712Y345995D01*
X359710Y345994D01*
X359707Y345995D01*
X359664Y345975D01*
X359621Y345957D01*
X359620Y345955D01*
X359618Y345954D01*
X359585Y345869D01*
X359585Y333645D01*
X359586Y333643D01*
X359585Y333641D01*
X359605Y333598D01*
X359624Y333554D01*
X359626Y333553D01*
X359627Y333551D01*
X359712Y333519D01*
X371936Y333519D01*
X371938Y333519D01*
G37*
G36*
X343490Y319295D02*
X343490Y319295D01*
X343492Y319295D01*
X343535Y319314D01*
X343578Y319333D01*
X343579Y319335D01*
X343581Y319336D01*
X343614Y319421D01*
X343614Y331645D01*
X343613Y331647D01*
X343614Y331649D01*
X343594Y331692D01*
X343575Y331735D01*
X343573Y331736D01*
X343572Y331738D01*
X343488Y331771D01*
X331264Y331771D01*
X331262Y331770D01*
X331259Y331771D01*
X331216Y331751D01*
X331173Y331733D01*
X331172Y331731D01*
X331170Y331730D01*
X331137Y331645D01*
X331137Y319421D01*
X331138Y319419D01*
X331137Y319417D01*
X331157Y319374D01*
X331176Y319330D01*
X331178Y319329D01*
X331179Y319327D01*
X331264Y319295D01*
X343488Y319295D01*
X343490Y319295D01*
G37*
G36*
X357714Y319295D02*
X357714Y319295D01*
X357716Y319295D01*
X357759Y319314D01*
X357802Y319333D01*
X357803Y319335D01*
X357805Y319336D01*
X357838Y319421D01*
X357838Y331645D01*
X357837Y331647D01*
X357838Y331649D01*
X357818Y331692D01*
X357799Y331735D01*
X357797Y331736D01*
X357796Y331738D01*
X357712Y331771D01*
X345488Y331771D01*
X345486Y331770D01*
X345483Y331771D01*
X345440Y331751D01*
X345397Y331733D01*
X345396Y331731D01*
X345394Y331730D01*
X345361Y331645D01*
X345361Y319421D01*
X345362Y319419D01*
X345361Y319417D01*
X345381Y319374D01*
X345400Y319330D01*
X345402Y319329D01*
X345403Y319327D01*
X345488Y319295D01*
X357712Y319295D01*
X357714Y319295D01*
G37*
G36*
X371938Y319295D02*
X371938Y319295D01*
X371940Y319295D01*
X371983Y319314D01*
X372026Y319333D01*
X372027Y319335D01*
X372029Y319336D01*
X372062Y319421D01*
X372062Y331645D01*
X372061Y331647D01*
X372062Y331649D01*
X372042Y331692D01*
X372023Y331735D01*
X372021Y331736D01*
X372020Y331738D01*
X371936Y331771D01*
X359712Y331771D01*
X359710Y331770D01*
X359707Y331771D01*
X359664Y331751D01*
X359621Y331733D01*
X359620Y331731D01*
X359618Y331730D01*
X359585Y331645D01*
X359585Y319421D01*
X359586Y319419D01*
X359585Y319417D01*
X359605Y319374D01*
X359624Y319330D01*
X359626Y319329D01*
X359627Y319327D01*
X359712Y319295D01*
X371936Y319295D01*
X371938Y319295D01*
G37*
G36*
X329266Y319295D02*
X329266Y319295D01*
X329268Y319295D01*
X329311Y319314D01*
X329354Y319333D01*
X329355Y319335D01*
X329357Y319336D01*
X329390Y319421D01*
X329390Y331645D01*
X329389Y331647D01*
X329390Y331649D01*
X329370Y331692D01*
X329351Y331735D01*
X329349Y331736D01*
X329348Y331738D01*
X329264Y331771D01*
X317040Y331771D01*
X317038Y331770D01*
X317035Y331771D01*
X316992Y331751D01*
X316949Y331733D01*
X316948Y331731D01*
X316946Y331730D01*
X316913Y331645D01*
X316913Y319421D01*
X316914Y319419D01*
X316913Y319417D01*
X316933Y319374D01*
X316952Y319330D01*
X316954Y319329D01*
X316955Y319327D01*
X317040Y319295D01*
X329264Y319295D01*
X329266Y319295D01*
G37*
D10*
X444018Y327431D03*
X427018Y327431D03*
D11*
X402249Y326590D03*
X402249Y338590D03*
X402249Y350590D03*
D12*
X379032Y374376D03*
X379032Y369375D03*
X379032Y364373D03*
X379032Y359372D03*
X379032Y354371D03*
X379032Y349370D03*
X379032Y344368D03*
X379032Y339367D03*
X379032Y334366D03*
X379032Y329365D03*
X379032Y324363D03*
X379032Y319362D03*
D13*
X371995Y312325D03*
X366994Y312325D03*
X361992Y312325D03*
X356991Y312325D03*
X351990Y312325D03*
X346989Y312325D03*
X341987Y312325D03*
X336986Y312325D03*
X331985Y312325D03*
X326984Y312325D03*
X321982Y312325D03*
X316981Y312325D03*
D12*
X309944Y319362D03*
X309944Y324363D03*
X309944Y329365D03*
X309944Y334366D03*
X309944Y339367D03*
X309944Y344368D03*
X309944Y349370D03*
X309944Y354371D03*
X309944Y359372D03*
X309944Y364373D03*
X309944Y369375D03*
X309944Y374376D03*
D13*
X316981Y381413D03*
X321982Y381413D03*
X326984Y381413D03*
X331985Y381413D03*
X336986Y381413D03*
X341987Y381413D03*
X346989Y381413D03*
X351990Y381413D03*
X356991Y381413D03*
X361992Y381413D03*
X366994Y381413D03*
X371995Y381413D03*
D10*
X298083Y388311D03*
X281083Y388311D03*
D14*
X398174Y298415D03*
X415174Y298415D03*
D10*
X419242Y383358D03*
X419242Y366358D03*
X398396Y383355D03*
X398396Y366355D03*
D14*
X270500Y347504D03*
X287500Y347504D03*
D15*
X445792Y347365D03*
X426792Y347365D03*
D16*
X439960Y387531D03*
X439960Y368531D03*
D15*
X269837Y325426D03*
X288837Y325426D03*
M02*
