M48
;GenerationSoftware,Autodesk,EAGLE,9.6.2*%
;CreationDate,2022-12-15T10:18:01Z*%
FMAT,2
ICI,OFF
METRIC,TZ,000.000
T2C0.350
T1C1.016
%
G90
M71
T1
X43640Y30167
X22694Y37558
X22694Y35018
X22694Y32478
T2
X27887Y40019
X27875Y42320
X24657Y31150
X26324Y29851
X34290Y24368
X31591Y24368
X43974Y43656
X26970Y30980
X33338Y23336
X41159Y39679
X24606Y41558
X44168Y27465
X44529Y42596
X34271Y40224
X35820Y39745
X31368Y39869
X31353Y43259
X25876Y28099
X35719Y29766
M30